<svg width="767" height="430" viewBox="0 0 767 430" fill="none" xmlns="http://www.w3.org/2000/svg">
<path d="M122.712 361.464C122.541 359.821 121.944 358.637 120.92 357.912C119.917 357.165 118.627 356.792 117.048 356.792C116.408 356.792 115.779 356.856 115.16 356.984C114.541 357.112 113.987 357.325 113.496 357.624C113.027 357.922 112.643 358.328 112.344 358.84C112.067 359.33 111.928 359.949 111.928 360.696C111.928 361.4 112.131 361.976 112.536 362.424C112.963 362.85 113.517 363.202 114.2 363.48C114.904 363.757 115.693 363.992 116.568 364.184C117.443 364.354 118.328 364.546 119.224 364.76C120.141 364.973 121.037 365.229 121.912 365.528C122.787 365.805 123.565 366.189 124.248 366.68C124.952 367.17 125.507 367.789 125.912 368.536C126.339 369.282 126.552 370.221 126.552 371.352C126.552 372.568 126.275 373.613 125.72 374.488C125.187 375.341 124.493 376.045 123.64 376.6C122.787 377.133 121.827 377.517 120.76 377.752C119.715 378.008 118.669 378.136 117.624 378.136C116.344 378.136 115.128 377.976 113.976 377.656C112.845 377.336 111.843 376.856 110.968 376.216C110.115 375.554 109.432 374.722 108.92 373.72C108.429 372.696 108.184 371.49 108.184 370.104H111.064C111.064 371.064 111.245 371.896 111.608 372.6C111.992 373.282 112.483 373.848 113.08 374.296C113.699 374.744 114.413 375.074 115.224 375.288C116.035 375.501 116.867 375.608 117.72 375.608C118.403 375.608 119.085 375.544 119.768 375.416C120.472 375.288 121.101 375.074 121.656 374.776C122.211 374.456 122.659 374.029 123 373.496C123.341 372.962 123.512 372.28 123.512 371.448C123.512 370.658 123.299 370.018 122.872 369.528C122.467 369.037 121.912 368.642 121.208 368.344C120.525 368.024 119.747 367.768 118.872 367.576C117.997 367.384 117.101 367.192 116.184 367C115.288 366.786 114.403 366.552 113.528 366.296C112.653 366.018 111.864 365.666 111.16 365.24C110.477 364.792 109.923 364.226 109.496 363.544C109.091 362.84 108.888 361.965 108.888 360.92C108.888 359.768 109.123 358.776 109.592 357.944C110.061 357.09 110.68 356.397 111.448 355.864C112.237 355.309 113.123 354.904 114.104 354.648C115.107 354.37 116.131 354.232 117.176 354.232C118.349 354.232 119.437 354.37 120.44 354.648C121.443 354.925 122.317 355.362 123.064 355.96C123.832 356.557 124.429 357.314 124.856 358.232C125.304 359.128 125.549 360.205 125.592 361.464H122.712ZM144.454 377.56C143.985 377.837 143.334 377.976 142.502 377.976C141.798 377.976 141.233 377.784 140.806 377.4C140.401 376.994 140.198 376.344 140.198 375.448C139.451 376.344 138.577 376.994 137.574 377.4C136.593 377.784 135.526 377.976 134.374 377.976C133.627 377.976 132.913 377.89 132.23 377.72C131.569 377.549 130.993 377.282 130.502 376.92C130.011 376.557 129.617 376.088 129.318 375.512C129.041 374.914 128.902 374.2 128.902 373.368C128.902 372.429 129.062 371.661 129.382 371.064C129.702 370.466 130.118 369.986 130.63 369.624C131.163 369.24 131.761 368.952 132.422 368.76C133.105 368.568 133.798 368.408 134.502 368.28C135.249 368.13 135.953 368.024 136.614 367.96C137.297 367.874 137.894 367.768 138.406 367.64C138.918 367.49 139.323 367.288 139.622 367.032C139.921 366.754 140.07 366.36 140.07 365.848C140.07 365.25 139.953 364.77 139.718 364.408C139.505 364.045 139.217 363.768 138.854 363.576C138.513 363.384 138.118 363.256 137.67 363.192C137.243 363.128 136.817 363.096 136.39 363.096C135.238 363.096 134.278 363.32 133.51 363.768C132.742 364.194 132.326 365.016 132.262 366.232H129.542C129.585 365.208 129.798 364.344 130.182 363.64C130.566 362.936 131.078 362.37 131.718 361.944C132.358 361.496 133.083 361.176 133.894 360.984C134.726 360.792 135.611 360.696 136.55 360.696C137.297 360.696 138.033 360.749 138.758 360.856C139.505 360.962 140.177 361.186 140.774 361.528C141.371 361.848 141.851 362.306 142.214 362.904C142.577 363.501 142.758 364.28 142.758 365.24V373.752C142.758 374.392 142.79 374.861 142.854 375.16C142.939 375.458 143.195 375.608 143.622 375.608C143.857 375.608 144.134 375.554 144.454 375.448V377.56ZM140.038 369.08C139.697 369.336 139.249 369.528 138.694 369.656C138.139 369.762 137.553 369.858 136.934 369.944C136.337 370.008 135.729 370.093 135.11 370.2C134.491 370.285 133.937 370.434 133.446 370.648C132.955 370.861 132.55 371.17 132.23 371.576C131.931 371.96 131.782 372.493 131.782 373.176C131.782 373.624 131.867 374.008 132.038 374.328C132.23 374.626 132.465 374.872 132.742 375.064C133.041 375.256 133.382 375.394 133.766 375.48C134.15 375.565 134.555 375.608 134.982 375.608C135.878 375.608 136.646 375.49 137.286 375.256C137.926 375 138.449 374.69 138.854 374.328C139.259 373.944 139.558 373.538 139.75 373.112C139.942 372.664 140.038 372.248 140.038 371.864V369.08ZM154.442 377.624H151.53L145.386 361.08H148.426L153.066 374.872H153.13L157.642 361.08H160.49L154.442 377.624ZM174.474 367.768C174.431 367.128 174.282 366.52 174.026 365.944C173.791 365.368 173.46 364.877 173.034 364.472C172.628 364.045 172.138 363.714 171.562 363.48C171.007 363.224 170.388 363.096 169.706 363.096C169.002 363.096 168.362 363.224 167.786 363.48C167.231 363.714 166.751 364.045 166.346 364.472C165.94 364.898 165.62 365.4 165.386 365.976C165.151 366.53 165.012 367.128 164.97 367.768H174.474ZM177.097 372.376C176.735 374.232 175.935 375.629 174.698 376.568C173.46 377.506 171.903 377.976 170.026 377.976C168.703 377.976 167.551 377.762 166.57 377.336C165.61 376.909 164.799 376.312 164.138 375.544C163.476 374.776 162.975 373.858 162.634 372.792C162.314 371.725 162.132 370.562 162.09 369.304C162.09 368.045 162.282 366.893 162.666 365.848C163.05 364.802 163.583 363.896 164.266 363.128C164.97 362.36 165.791 361.762 166.73 361.336C167.69 360.909 168.735 360.696 169.866 360.696C171.338 360.696 172.554 361.005 173.514 361.624C174.495 362.221 175.274 362.989 175.85 363.928C176.447 364.866 176.852 365.89 177.066 367C177.3 368.109 177.396 369.165 177.354 370.168H164.97C164.948 370.893 165.034 371.586 165.226 372.248C165.418 372.888 165.727 373.464 166.154 373.976C166.58 374.466 167.124 374.861 167.786 375.16C168.447 375.458 169.226 375.608 170.122 375.608C171.274 375.608 172.212 375.341 172.938 374.808C173.684 374.274 174.175 373.464 174.41 372.376H177.097ZM189.495 354.776H192.727L204.759 373.304H204.823V354.776H207.703V377.624H204.375L192.439 359.288H192.375V377.624H189.495V354.776ZM214.157 369.368C214.157 370.37 214.285 371.266 214.541 372.056C214.818 372.824 215.192 373.474 215.661 374.008C216.13 374.52 216.674 374.914 217.293 375.192C217.933 375.469 218.605 375.608 219.309 375.608C220.013 375.608 220.674 375.469 221.293 375.192C221.933 374.914 222.488 374.52 222.957 374.008C223.426 373.474 223.789 372.824 224.045 372.056C224.322 371.266 224.461 370.37 224.461 369.368C224.461 368.365 224.322 367.48 224.045 366.712C223.789 365.922 223.426 365.261 222.957 364.728C222.488 364.194 221.933 363.789 221.293 363.512C220.674 363.234 220.013 363.096 219.309 363.096C218.605 363.096 217.933 363.234 217.293 363.512C216.674 363.789 216.13 364.194 215.661 364.728C215.192 365.261 214.818 365.922 214.541 366.712C214.285 367.48 214.157 368.365 214.157 369.368ZM211.277 369.368C211.277 368.152 211.448 367.021 211.789 365.976C212.13 364.909 212.642 363.992 213.325 363.224C214.008 362.434 214.85 361.816 215.853 361.368C216.856 360.92 218.008 360.696 219.309 360.696C220.632 360.696 221.784 360.92 222.765 361.368C223.768 361.816 224.61 362.434 225.293 363.224C225.976 363.992 226.488 364.909 226.829 365.976C227.17 367.021 227.341 368.152 227.341 369.368C227.341 370.584 227.17 371.714 226.829 372.76C226.488 373.805 225.976 374.722 225.293 375.512C224.61 376.28 223.768 376.888 222.765 377.336C221.784 377.762 220.632 377.976 219.309 377.976C218.008 377.976 216.856 377.762 215.853 377.336C214.85 376.888 214.008 376.28 213.325 375.512C212.642 374.722 212.13 373.805 211.789 372.76C211.448 371.714 211.277 370.584 211.277 369.368ZM246.932 377.624H244.052L240.692 364.472H240.628L237.3 377.624H234.356L229.044 361.08H232.052L235.796 374.616H235.86L239.188 361.08H242.164L245.62 374.616H245.684L249.396 361.08H252.212L246.932 377.624Z" fill="#FFFEF9"/>
<path d="M268.76 375.008L266.888 373.808L272.952 367.696V368.592L266.888 362.48L268.76 361.28L275.32 368.144L268.76 375.008Z" fill="#FFFEF9"/>
<path d="M173.108 189.225H169.328V187.209H169.244C168.74 188.049 168.086 188.656 167.284 189.029C166.481 189.402 165.66 189.589 164.82 189.589C163.756 189.589 162.879 189.449 162.188 189.169C161.516 188.889 160.984 188.497 160.592 187.993C160.2 187.471 159.92 186.845 159.752 186.117C159.603 185.371 159.528 184.549 159.528 183.653V174.749H163.504V182.925C163.504 184.12 163.691 185.016 164.064 185.613C164.437 186.192 165.1 186.481 166.052 186.481C167.135 186.481 167.919 186.164 168.404 185.529C168.889 184.876 169.132 183.812 169.132 182.337V174.749H173.108V189.225ZM183.433 186.621C184.087 186.621 184.628 186.491 185.057 186.229C185.505 185.968 185.86 185.632 186.121 185.221C186.401 184.792 186.597 184.297 186.709 183.737C186.821 183.177 186.877 182.608 186.877 182.029C186.877 181.451 186.812 180.881 186.681 180.321C186.569 179.761 186.373 179.267 186.093 178.837C185.813 178.389 185.449 178.035 185.001 177.773C184.572 177.493 184.04 177.353 183.405 177.353C182.752 177.353 182.201 177.493 181.753 177.773C181.324 178.035 180.969 178.38 180.689 178.809C180.428 179.239 180.241 179.733 180.129 180.293C180.017 180.853 179.961 181.432 179.961 182.029C179.961 182.608 180.017 183.177 180.129 183.737C180.26 184.297 180.456 184.792 180.717 185.221C180.997 185.632 181.361 185.968 181.809 186.229C182.257 186.491 182.799 186.621 183.433 186.621ZM176.125 174.749H179.905V176.597H179.961C180.447 175.813 181.063 175.244 181.809 174.889C182.556 174.535 183.377 174.357 184.273 174.357C185.412 174.357 186.392 174.572 187.213 175.001C188.035 175.431 188.716 176 189.257 176.709C189.799 177.419 190.2 178.249 190.461 179.201C190.723 180.135 190.853 181.115 190.853 182.141C190.853 183.112 190.723 184.045 190.461 184.941C190.2 185.837 189.799 186.631 189.257 187.321C188.735 188.012 188.072 188.562 187.269 188.973C186.485 189.384 185.561 189.589 184.497 189.589C183.601 189.589 182.771 189.412 182.005 189.057C181.259 188.684 180.643 188.143 180.157 187.433H180.101V194.293H176.125V174.749ZM206.075 174.749H208.987V177.409H206.075V184.577C206.075 185.249 206.187 185.697 206.411 185.921C206.635 186.145 207.083 186.257 207.755 186.257C207.979 186.257 208.194 186.248 208.399 186.229C208.605 186.211 208.801 186.183 208.987 186.145V189.225C208.651 189.281 208.278 189.318 207.867 189.337C207.457 189.356 207.055 189.365 206.663 189.365C206.047 189.365 205.459 189.318 204.899 189.225C204.358 189.15 203.873 188.992 203.443 188.749C203.033 188.506 202.706 188.161 202.463 187.713C202.221 187.265 202.099 186.677 202.099 185.949V177.409H199.691V174.749H202.099V170.409H206.075V174.749ZM214.407 182.001C214.407 182.58 214.463 183.149 214.575 183.709C214.687 184.251 214.874 184.745 215.135 185.193C215.415 185.623 215.779 185.968 216.227 186.229C216.675 186.491 217.235 186.621 217.907 186.621C218.579 186.621 219.139 186.491 219.587 186.229C220.054 185.968 220.418 185.623 220.679 185.193C220.959 184.745 221.155 184.251 221.267 183.709C221.379 183.149 221.435 182.58 221.435 182.001C221.435 181.423 221.379 180.853 221.267 180.293C221.155 179.733 220.959 179.239 220.679 178.809C220.418 178.38 220.054 178.035 219.587 177.773C219.139 177.493 218.579 177.353 217.907 177.353C217.235 177.353 216.675 177.493 216.227 177.773C215.779 178.035 215.415 178.38 215.135 178.809C214.874 179.239 214.687 179.733 214.575 180.293C214.463 180.853 214.407 181.423 214.407 182.001ZM210.431 182.001C210.431 180.844 210.608 179.799 210.963 178.865C211.318 177.913 211.822 177.111 212.475 176.457C213.128 175.785 213.912 175.272 214.827 174.917C215.742 174.544 216.768 174.357 217.907 174.357C219.046 174.357 220.072 174.544 220.987 174.917C221.92 175.272 222.714 175.785 223.367 176.457C224.02 177.111 224.524 177.913 224.879 178.865C225.234 179.799 225.411 180.844 225.411 182.001C225.411 183.159 225.234 184.204 224.879 185.137C224.524 186.071 224.02 186.873 223.367 187.545C222.714 188.199 221.92 188.702 220.987 189.057C220.072 189.412 219.046 189.589 217.907 189.589C216.768 189.589 215.742 189.412 214.827 189.057C213.912 188.702 213.128 188.199 212.475 187.545C211.822 186.873 211.318 186.071 210.963 185.137C210.608 184.204 210.431 183.159 210.431 182.001Z" fill="#FFFEF9"/>
<path d="M114.514 220.951L110.082 246.106L110.401 246.425C113.455 243.368 116.725 241.18 120.21 239.86C123.695 238.54 127.649 237.884 132.073 237.892C137.557 237.892 142.412 238.894 146.637 240.899C150.725 242.805 154.365 245.555 157.315 248.968C160.291 252.477 162.549 256.536 163.963 260.914C165.512 265.636 166.286 270.578 166.254 275.548C166.301 281.024 165.167 286.447 162.932 291.446C160.805 296.231 157.769 300.556 153.993 304.183C150.231 307.783 145.796 310.605 140.941 312.488C135.903 314.448 130.526 315.384 125.122 315.243C119.905 315.266 114.711 314.547 109.697 313.106C104.965 311.771 100.534 309.542 96.6406 306.541C92.8418 303.585 89.7369 299.832 87.5444 295.547C85.2772 291.17 84.0964 286.081 84.002 280.279H106.469C106.994 285.341 108.892 289.376 112.164 292.383C115.437 295.39 119.602 296.892 124.661 296.89C127.432 296.931 130.172 296.308 132.652 295.071C134.942 293.91 136.973 292.296 138.623 290.328C140.296 288.314 141.584 286.008 142.421 283.527C143.314 280.957 143.769 278.256 143.767 275.536C143.783 272.796 143.355 270.071 142.5 267.467C141.701 265.016 140.408 262.755 138.702 260.823C137.034 258.938 134.985 257.428 132.691 256.391C130.145 255.296 127.394 254.759 124.622 254.817C120.61 254.817 117.34 255.529 114.813 256.954C112.286 258.379 109.913 260.62 107.693 263.677H87.4539L98.3726 202.451H160.232V220.951H114.514Z" fill="#FFFEF9"/>
<path d="M280.325 270.856V274.319H286.67V279.877H280.325V308.126H272.886V279.877H261.573V308.126H254.118V279.877H248.561V274.319H254.118V271.509C254.118 269.376 254.381 267.642 254.906 266.309C255.329 265.124 256.051 264.067 257 263.239C257.859 262.524 258.881 262.029 259.975 261.799C261.124 261.555 262.296 261.435 263.471 261.44C265.869 261.44 267.613 261.593 268.702 261.897V267.715C268.198 267.58 267.685 267.482 267.166 267.423C266.526 267.352 265.882 267.319 265.238 267.325C264.324 267.3 263.424 267.551 262.656 268.045C261.937 268.525 261.577 269.462 261.577 270.856V274.319H272.889V271.509C272.889 269.376 273.152 267.642 273.677 266.309C274.101 265.125 274.82 264.068 275.767 263.239C276.627 262.525 277.649 262.031 278.742 261.799C279.893 261.555 281.066 261.435 282.242 261.44C284.637 261.44 286.381 261.593 287.473 261.897V267.715C286.969 267.58 286.456 267.482 285.937 267.423C285.297 267.352 284.653 267.319 284.009 267.325C283.094 267.3 282.193 267.551 281.423 268.045C280.718 268.525 280.325 269.466 280.325 270.856Z" fill="#FFFEF9"/>
<path d="M243.294 278.441C241.791 276.841 239.963 275.581 237.933 274.745C235.645 273.819 233.194 273.363 230.726 273.403C229.398 273.396 228.072 273.516 226.766 273.761L268.343 203.002H265.478L247.407 233.727C247.147 232.637 246.868 231.574 246.569 230.551C244.399 223.203 241.441 217.315 237.697 212.886C233.952 208.456 229.623 205.288 224.708 203.38C219.682 201.46 214.343 200.494 208.964 200.53C203.631 200.501 198.339 201.467 193.361 203.38C188.449 205.28 184.144 208.448 180.447 212.886C176.749 217.323 173.82 223.211 171.658 230.551C169.49 237.898 168.406 246.951 168.406 257.71C168.406 268.799 169.49 278.067 171.658 285.514C173.825 292.961 176.755 298.902 180.447 303.337C184.144 307.771 188.449 310.94 193.361 312.842C195.443 313.647 197.588 314.282 199.773 314.739L196.313 320.624H199.249L214.057 295.433C214.241 296.432 214.504 297.416 214.844 298.373C215.551 300.46 216.687 302.376 218.178 303.998C219.682 305.599 221.511 306.859 223.543 307.694C228.194 309.478 233.341 309.478 237.992 307.694C240.022 306.858 241.85 305.598 243.353 303.998C244.844 302.376 245.979 300.46 246.687 298.373C248.214 293.722 248.214 288.705 246.687 284.054C245.96 281.967 244.804 280.055 243.294 278.441ZM208.92 297.334C204.378 297.334 200.893 295.855 198.466 292.898C195.943 289.762 194.133 286.114 193.16 282.208C192.044 277.96 191.384 273.606 191.192 269.219C190.98 264.732 190.875 260.903 190.877 257.733C190.877 255.833 190.904 253.536 190.956 250.841C191.008 248.146 191.194 245.374 191.511 242.524C191.825 239.664 192.351 236.832 193.085 234.05C193.758 231.409 194.798 228.876 196.175 226.524C197.436 224.368 199.17 222.526 201.245 221.136C203.305 219.766 205.866 219.08 208.928 219.077C211.99 219.075 214.579 219.761 216.694 221.136C218.816 222.52 220.601 224.361 221.921 226.524C223.339 228.856 224.381 231.395 225.011 234.05C225.692 236.843 226.218 239.673 226.585 242.524C226.947 245.283 227.158 248.06 227.219 250.841C227.269 253.533 227.295 255.831 227.298 257.733C227.298 260.701 227.205 264.244 227.018 268.361L209.999 297.295C209.648 297.318 209.286 297.33 208.92 297.33V297.334ZM239.763 295.543C239.415 296.91 238.829 298.205 238.031 299.369C237.249 300.502 236.221 301.444 235.024 302.124C233.69 302.812 232.21 303.171 230.708 303.171C229.207 303.171 227.727 302.812 226.393 302.124C225.194 301.447 224.165 300.504 223.385 299.369C222.585 298.207 221.998 296.912 221.653 295.543C220.909 292.705 220.909 289.722 221.653 286.884C221.989 285.512 222.576 284.215 223.385 283.058C224.175 281.943 225.202 281.016 226.393 280.346C227.727 279.658 229.207 279.299 230.708 279.299C232.21 279.299 233.69 279.658 235.024 280.346C236.213 281.018 237.24 281.944 238.031 283.058C238.838 284.217 239.425 285.513 239.763 286.884C240.503 289.723 240.503 292.704 239.763 295.543Z" fill="#FFFEF9"/>
<path d="M256.457 207.454C256.298 206.675 255.983 205.936 255.532 205.281C255.09 204.662 254.505 204.158 253.827 203.813C253.006 203.427 252.105 203.243 251.198 203.274C250.315 203.253 249.439 203.432 248.636 203.797C247.937 204.13 247.325 204.621 246.849 205.23C246.364 205.863 246.009 206.585 245.806 207.355C245.576 208.201 245.462 209.073 245.467 209.949C245.46 210.817 245.557 211.683 245.754 212.528C245.919 213.273 246.241 213.975 246.699 214.586C247.157 215.175 247.755 215.639 248.439 215.936C249.263 216.287 250.153 216.455 251.048 216.428C251.926 216.449 252.798 216.288 253.611 215.956C254.297 215.665 254.905 215.214 255.382 214.641C255.858 214.049 256.207 213.366 256.409 212.634C256.642 211.805 256.756 210.948 256.748 210.087C256.745 209.201 256.648 208.319 256.457 207.454ZM253.237 211.248C253.207 211.675 253.117 212.095 252.969 212.496C252.831 212.879 252.599 213.22 252.292 213.488C251.933 213.751 251.5 213.893 251.054 213.893C250.609 213.893 250.175 213.751 249.816 213.488C249.523 213.216 249.302 212.875 249.175 212.496C249.038 212.088 248.959 211.663 248.939 211.233C248.919 210.78 248.907 210.378 248.907 210.016C248.907 209.654 248.907 209.198 248.958 208.702C248.986 208.23 249.081 207.765 249.242 207.32C249.388 206.913 249.624 206.544 249.934 206.242C250.281 205.934 250.735 205.777 251.198 205.805C251.417 205.791 251.637 205.826 251.842 205.908C252.046 205.99 252.229 206.116 252.379 206.277C252.668 206.608 252.88 207 253.001 207.422C253.137 207.877 253.221 208.346 253.253 208.82C253.288 209.304 253.304 209.713 253.304 210.052C253.304 210.39 253.272 210.819 253.237 211.248ZM273.85 218.727C273.694 217.967 273.379 217.25 272.925 216.621C272.48 216.018 271.895 215.532 271.221 215.204C270.397 214.827 269.497 214.648 268.592 214.681C267.71 214.659 266.835 214.832 266.029 215.188C265.335 215.504 264.725 215.977 264.246 216.57C263.761 217.176 263.405 217.875 263.199 218.625C262.968 219.459 262.854 220.321 262.861 221.187C262.857 222.061 262.953 222.933 263.148 223.785C263.318 224.543 263.639 225.259 264.093 225.89C264.539 226.494 265.131 226.974 265.813 227.288C266.634 227.649 267.525 227.823 268.422 227.795C269.302 227.817 270.176 227.649 270.985 227.303C271.677 227.001 272.285 226.533 272.756 225.942C273.23 225.329 273.579 224.63 273.783 223.883C274.015 223.049 274.128 222.186 274.122 221.321C274.128 220.445 274.037 219.571 273.85 218.715V218.727ZM270.63 222.486C270.601 222.934 270.511 223.376 270.363 223.8C270.225 224.203 269.995 224.567 269.69 224.863C269.353 225.166 268.91 225.324 268.458 225.3C268.231 225.315 268.004 225.284 267.789 225.209C267.575 225.134 267.378 225.016 267.21 224.863C266.916 224.564 266.696 224.2 266.568 223.8C266.432 223.369 266.353 222.922 266.332 222.47C266.312 221.998 266.301 221.58 266.301 221.222C266.301 220.864 266.301 220.411 266.352 219.939C266.38 219.489 266.477 219.045 266.639 218.625C266.783 218.236 267.02 217.889 267.328 217.613C267.686 217.33 268.136 217.19 268.592 217.219C268.81 217.206 269.028 217.24 269.232 217.318C269.436 217.397 269.62 217.519 269.772 217.676C270.056 217.986 270.268 218.354 270.394 218.754C270.531 219.181 270.616 219.622 270.646 220.069C270.681 220.53 270.697 220.931 270.697 221.25C270.697 221.569 270.666 222.013 270.63 222.474V222.486Z" fill="#FFFEF9"/>
<path d="M290.391 267.104L291.024 265.231L294.193 266.471V263.015H296.161V266.471L299.31 265.231L300.002 267.104L296.72 268.199L298.735 270.903L297.208 272.024L295.165 269.206L293.197 272.024L291.583 270.903L293.598 268.199L290.391 267.104Z" fill="#FFFEF9"/>
<path d="M122.111 60.165H114.301V53.73H122.111V60.165ZM114.301 64.565H122.111V93H114.301V64.565ZM126.611 64.565H134.036V68.525H134.201C135.191 66.875 136.474 65.6833 138.051 64.95C139.627 64.18 141.241 63.795 142.891 63.795C144.981 63.795 146.686 64.0883 148.006 64.675C149.362 65.225 150.426 66.0133 151.196 67.04C151.966 68.03 152.497 69.2583 152.791 70.725C153.121 72.155 153.286 73.75 153.286 75.51V93H145.476V76.94C145.476 74.5933 145.109 72.8517 144.376 71.715C143.642 70.5417 142.341 69.955 140.471 69.955C138.344 69.955 136.804 70.5967 135.851 71.88C134.897 73.1267 134.421 75.1983 134.421 78.095V93H126.611V64.565ZM177.748 78.7C177.748 77.5267 177.638 76.4083 177.418 75.345C177.198 74.245 176.813 73.2917 176.263 72.485C175.75 71.6417 175.071 70.9633 174.228 70.45C173.385 69.9367 172.321 69.68 171.038 69.68C169.755 69.68 168.673 69.9367 167.793 70.45C166.913 70.9633 166.198 71.6417 165.648 72.485C165.135 73.3283 164.75 74.3 164.493 75.4C164.273 76.4633 164.163 77.5817 164.163 78.755C164.163 79.855 164.291 80.955 164.548 82.055C164.805 83.155 165.208 84.145 165.758 85.025C166.345 85.8683 167.06 86.565 167.903 87.115C168.783 87.6283 169.828 87.885 171.038 87.885C172.321 87.885 173.385 87.6283 174.228 87.115C175.108 86.6017 175.805 85.9233 176.318 85.08C176.831 84.2 177.198 83.21 177.418 82.11C177.638 81.01 177.748 79.8733 177.748 78.7ZM177.858 89.37H177.748C176.831 90.91 175.621 92.0283 174.118 92.725C172.651 93.385 170.983 93.715 169.113 93.715C166.986 93.715 165.116 93.3117 163.503 92.505C161.89 91.6617 160.551 90.5433 159.488 89.15C158.461 87.72 157.673 86.0883 157.123 84.255C156.61 82.4217 156.353 80.515 156.353 78.535C156.353 76.6283 156.61 74.795 157.123 73.035C157.673 71.2383 158.461 69.6617 159.488 68.305C160.551 66.9483 161.871 65.8667 163.448 65.06C165.025 64.2167 166.858 63.795 168.948 63.795C170.635 63.795 172.23 64.1617 173.733 64.895C175.273 65.5917 176.483 66.6367 177.363 68.03H177.473V53.73H185.283V93H177.858V89.37ZM196.466 78.81C196.466 79.9467 196.576 81.065 196.796 82.165C197.016 83.2283 197.383 84.2 197.896 85.08C198.446 85.9233 199.161 86.6017 200.041 87.115C200.921 87.6283 202.021 87.885 203.341 87.885C204.661 87.885 205.761 87.6283 206.641 87.115C207.558 86.6017 208.273 85.9233 208.786 85.08C209.336 84.2 209.721 83.2283 209.941 82.165C210.161 81.065 210.271 79.9467 210.271 78.81C210.271 77.6733 210.161 76.555 209.941 75.455C209.721 74.355 209.336 73.3833 208.786 72.54C208.273 71.6967 207.558 71.0183 206.641 70.505C205.761 69.955 204.661 69.68 203.341 69.68C202.021 69.68 200.921 69.955 200.041 70.505C199.161 71.0183 198.446 71.6967 197.896 72.54C197.383 73.3833 197.016 74.355 196.796 75.455C196.576 76.555 196.466 77.6733 196.466 78.81ZM188.656 78.81C188.656 76.5367 189.004 74.4833 189.701 72.65C190.398 70.78 191.388 69.2033 192.671 67.92C193.954 66.6 195.494 65.5917 197.291 64.895C199.088 64.1617 201.104 63.795 203.341 63.795C205.578 63.795 207.594 64.1617 209.391 64.895C211.224 65.5917 212.783 66.6 214.066 67.92C215.349 69.2033 216.339 70.78 217.036 72.65C217.733 74.4833 218.081 76.5367 218.081 78.81C218.081 81.0833 217.733 83.1367 217.036 84.97C216.339 86.8033 215.349 88.38 214.066 89.7C212.783 90.9833 211.224 91.9733 209.391 92.67C207.594 93.3667 205.578 93.715 203.341 93.715C201.104 93.715 199.088 93.3667 197.291 92.67C195.494 91.9733 193.954 90.9833 192.671 89.7C191.388 88.38 190.398 86.8033 189.701 84.97C189.004 83.1367 188.656 81.0833 188.656 78.81ZM228.439 78.81C228.439 79.9467 228.549 81.065 228.769 82.165C228.989 83.2283 229.356 84.2 229.869 85.08C230.419 85.9233 231.134 86.6017 232.014 87.115C232.894 87.6283 233.994 87.885 235.314 87.885C236.634 87.885 237.734 87.6283 238.614 87.115C239.531 86.6017 240.246 85.9233 240.759 85.08C241.309 84.2 241.694 83.2283 241.914 82.165C242.134 81.065 242.244 79.9467 242.244 78.81C242.244 77.6733 242.134 76.555 241.914 75.455C241.694 74.355 241.309 73.3833 240.759 72.54C240.246 71.6967 239.531 71.0183 238.614 70.505C237.734 69.955 236.634 69.68 235.314 69.68C233.994 69.68 232.894 69.955 232.014 70.505C231.134 71.0183 230.419 71.6967 229.869 72.54C229.356 73.3833 228.989 74.355 228.769 75.455C228.549 76.555 228.439 77.6733 228.439 78.81ZM220.629 78.81C220.629 76.5367 220.977 74.4833 221.674 72.65C222.371 70.78 223.361 69.2033 224.644 67.92C225.927 66.6 227.467 65.5917 229.264 64.895C231.061 64.1617 233.077 63.795 235.314 63.795C237.551 63.795 239.567 64.1617 241.364 64.895C243.197 65.5917 244.756 66.6 246.039 67.92C247.322 69.2033 248.312 70.78 249.009 72.65C249.706 74.4833 250.054 76.5367 250.054 78.81C250.054 81.0833 249.706 83.1367 249.009 84.97C248.312 86.8033 247.322 88.38 246.039 89.7C244.756 90.9833 243.197 91.9733 241.364 92.67C239.567 93.3667 237.551 93.715 235.314 93.715C233.077 93.715 231.061 93.3667 229.264 92.67C227.467 91.9733 225.927 90.9833 224.644 89.7C223.361 88.38 222.371 86.8033 221.674 84.97C220.977 83.1367 220.629 81.0833 220.629 78.81ZM253.482 64.565H260.907V69.845H261.017C261.384 68.965 261.879 68.1583 262.502 67.425C263.126 66.655 263.841 66.0133 264.647 65.5C265.454 64.95 266.316 64.5283 267.232 64.235C268.149 63.9417 269.102 63.795 270.092 63.795C270.606 63.795 271.174 63.8867 271.797 64.07V71.33C271.431 71.2567 270.991 71.2017 270.477 71.165C269.964 71.0917 269.469 71.055 268.992 71.055C267.562 71.055 266.352 71.2933 265.362 71.77C264.372 72.2467 263.566 72.9067 262.942 73.75C262.356 74.5567 261.934 75.51 261.677 76.61C261.421 77.71 261.292 78.9017 261.292 80.185V93H253.482V64.565ZM90.7877 113.79H86.1127V108.565H90.7877V106.365C90.7877 103.835 91.576 101.763 93.1527 100.15C94.7294 98.5367 97.1127 97.73 100.303 97.73C100.999 97.73 101.696 97.7667 102.393 97.84C103.089 97.8767 103.768 97.9133 104.428 97.95V103.78C103.511 103.67 102.558 103.615 101.568 103.615C100.504 103.615 99.7344 103.872 99.2577 104.385C98.8177 104.862 98.5977 105.687 98.5977 106.86V108.565H103.988V113.79H98.5977V137H90.7877V113.79ZM132.423 137H124.998V133.04H124.833C123.843 134.69 122.56 135.882 120.983 136.615C119.406 137.348 117.793 137.715 116.143 137.715C114.053 137.715 112.33 137.44 110.973 136.89C109.653 136.34 108.608 135.57 107.838 134.58C107.068 133.553 106.518 132.325 106.188 130.895C105.895 129.428 105.748 127.815 105.748 126.055V108.565H113.558V124.625C113.558 126.972 113.925 128.732 114.658 129.905C115.391 131.042 116.693 131.61 118.563 131.61C120.69 131.61 122.23 130.987 123.183 129.74C124.136 128.457 124.613 126.367 124.613 123.47V108.565H132.423V137ZM136.701 108.565H144.126V113.845H144.236C144.602 112.965 145.097 112.158 145.721 111.425C146.344 110.655 147.059 110.013 147.866 109.5C148.672 108.95 149.534 108.528 150.451 108.235C151.367 107.942 152.321 107.795 153.311 107.795C153.824 107.795 154.392 107.887 155.016 108.07V115.33C154.649 115.257 154.209 115.202 153.696 115.165C153.182 115.092 152.687 115.055 152.211 115.055C150.781 115.055 149.571 115.293 148.581 115.77C147.591 116.247 146.784 116.907 146.161 117.75C145.574 118.557 145.152 119.51 144.896 120.61C144.639 121.71 144.511 122.902 144.511 124.185V137H136.701V108.565ZM157.394 108.565H164.819V112.525H164.984C165.974 110.875 167.258 109.683 168.834 108.95C170.411 108.18 172.024 107.795 173.674 107.795C175.764 107.795 177.469 108.088 178.789 108.675C180.146 109.225 181.209 110.013 181.979 111.04C182.749 112.03 183.281 113.258 183.574 114.725C183.904 116.155 184.069 117.75 184.069 119.51V137H176.259V120.94C176.259 118.593 175.893 116.852 175.159 115.715C174.426 114.542 173.124 113.955 171.254 113.955C169.128 113.955 167.588 114.597 166.634 115.88C165.681 117.127 165.204 119.198 165.204 122.095V137H157.394V108.565ZM196.377 104.165H188.567V97.73H196.377V104.165ZM188.567 108.565H196.377V137H188.567V108.565ZM210.777 108.565H216.497V113.79H210.777V127.87C210.777 129.19 210.997 130.07 211.437 130.51C211.877 130.95 212.757 131.17 214.077 131.17C214.517 131.17 214.938 131.152 215.342 131.115C215.745 131.078 216.13 131.023 216.497 130.95V137C215.837 137.11 215.103 137.183 214.297 137.22C213.49 137.257 212.702 137.275 211.932 137.275C210.722 137.275 209.567 137.183 208.467 137C207.403 136.853 206.45 136.542 205.607 136.065C204.8 135.588 204.158 134.91 203.682 134.03C203.205 133.15 202.967 131.995 202.967 130.565V113.79H198.237V108.565H202.967V100.04H210.777V108.565ZM245.238 137H237.813V133.04H237.648C236.658 134.69 235.374 135.882 233.798 136.615C232.221 137.348 230.608 137.715 228.958 137.715C226.868 137.715 225.144 137.44 223.788 136.89C222.468 136.34 221.423 135.57 220.653 134.58C219.883 133.553 219.333 132.325 219.003 130.895C218.709 129.428 218.563 127.815 218.563 126.055V108.565H226.373V124.625C226.373 126.972 226.739 128.732 227.473 129.905C228.206 131.042 229.508 131.61 231.378 131.61C233.504 131.61 235.044 130.987 235.998 129.74C236.951 128.457 237.428 126.367 237.428 123.47V108.565H245.238V137ZM249.515 108.565H256.94V113.845H257.05C257.417 112.965 257.912 112.158 258.535 111.425C259.158 110.655 259.873 110.013 260.68 109.5C261.487 108.95 262.348 108.528 263.265 108.235C264.182 107.942 265.135 107.795 266.125 107.795C266.638 107.795 267.207 107.887 267.83 108.07V115.33C267.463 115.257 267.023 115.202 266.51 115.165C265.997 115.092 265.502 115.055 265.025 115.055C263.595 115.055 262.385 115.293 261.395 115.77C260.405 116.247 259.598 116.907 258.975 117.75C258.388 118.557 257.967 119.51 257.71 120.61C257.453 121.71 257.325 122.902 257.325 124.185V137H249.515V108.565ZM287.415 119.73C287.049 117.75 286.389 116.247 285.435 115.22C284.519 114.193 283.107 113.68 281.2 113.68C279.954 113.68 278.909 113.9 278.065 114.34C277.259 114.743 276.599 115.257 276.085 115.88C275.609 116.503 275.26 117.163 275.04 117.86C274.857 118.557 274.747 119.18 274.71 119.73H287.415ZM274.71 124.68C274.82 127.21 275.462 129.043 276.635 130.18C277.809 131.317 279.495 131.885 281.695 131.885C283.272 131.885 284.629 131.5 285.765 130.73C286.902 129.923 287.599 129.08 287.855 128.2H294.73C293.63 131.61 291.944 134.048 289.67 135.515C287.397 136.982 284.647 137.715 281.42 137.715C279.184 137.715 277.167 137.367 275.37 136.67C273.574 135.937 272.052 134.91 270.805 133.59C269.559 132.27 268.587 130.693 267.89 128.86C267.23 127.027 266.9 125.01 266.9 122.81C266.9 120.683 267.249 118.703 267.945 116.87C268.642 115.037 269.632 113.46 270.915 112.14C272.199 110.783 273.72 109.72 275.48 108.95C277.277 108.18 279.257 107.795 281.42 107.795C283.84 107.795 285.949 108.272 287.745 109.225C289.542 110.142 291.009 111.388 292.145 112.965C293.319 114.542 294.162 116.338 294.675 118.355C295.189 120.372 295.372 122.48 295.225 124.68H274.71Z" fill="#FFFEF9"/>
</svg>
