<svg width="264" height="43" viewBox="0 0 264 43" fill="none" xmlns="http://www.w3.org/2000/svg">
<rect x="0.932971" y="10.7183" width="21.1124" height="23.6317" fill="#DADCDF" stroke="#252525" stroke-width="0.946996"/>
<path d="M22.0597 37.9965C22.0597 38.8498 21.7629 39.6682 21.2345 40.2716C20.7062 40.875 19.9896 41.214 19.2423 41.214H3.73683C2.98961 41.214 2.27299 40.875 1.74463 40.2716C1.21627 39.6682 0.919434 38.8498 0.919434 37.9965V9.03826C0.919434 8.1849 1.21627 7.3665 1.74463 6.76309C2.27299 6.15967 2.98961 5.82068 3.73683 5.82068H19.2423C19.9896 5.82068 20.7062 6.15967 21.2345 6.76309C21.7629 7.3665 22.0597 8.1849 22.0597 9.03826V37.9965Z" stroke="#252525" stroke-width="0.946996" stroke-miterlimit="10" stroke-linecap="square"/>
<path d="M16.1667 1.39648H27.0711C27.7405 1.39648 28.2827 1.9668 28.2827 2.67094V14.141C28.2827 14.8451 27.7405 15.4155 27.0711 15.4155H22.2247L17.9841 18.6016V15.4155H16.1667C15.4973 15.4155 14.9551 14.8451 14.9551 14.141V2.67094C14.9551 1.9668 15.4973 1.39648 16.1667 1.39648Z" fill="white" stroke="#252525" stroke-width="0.946996" stroke-linecap="round" stroke-linejoin="round"/>
<g clip-path="url(#clip0_8899_4780)">
<rect x="17.2529" y="3.85437" width="8.73186" height="9.33991" rx="0.710247" fill="white"/>
<path d="M17.2529 3.85437V9.4699C17.2529 12.2222 18.3951 13.1943 20.4537 13.1943H25.9848V3.85437H17.2529Z" fill="white"/>
<path d="M17.2529 3.85437V8.74886C17.9277 6.80429 19.797 5.31775 21.6957 5.31775C23.7994 5.31775 25.142 7.14165 24.6949 9.39182C24.3502 11.1261 23.0422 12.6062 21.4977 13.1943H25.9848V3.85437H17.2529Z" fill="#BD0000"/>
<path d="M20.8864 12.9132C22.2197 12.9132 23.3006 11.3365 23.3006 9.39163C23.3006 7.44675 22.2197 5.87011 20.8864 5.87011C19.5531 5.87011 18.4722 7.44675 18.4722 9.39163C18.4722 11.3365 19.5531 12.9132 20.8864 12.9132Z" fill="#BD0000"/>
</g>
<path d="M6.43408 29.9078V27.9415" stroke="#252525" stroke-width="0.946996" stroke-linecap="round" stroke-linejoin="round"/>
<path d="M16.5444 29.9078V27.9415" stroke="#252525" stroke-width="0.946996" stroke-linecap="round" stroke-linejoin="round"/>
<path d="M11.4893 19.5848V23.0258" stroke="#252525" stroke-width="0.946996" stroke-linecap="round" stroke-linejoin="round"/>
<path d="M13.4197 15.6522H9.55926L8.27246 19.5848H14.7065L13.4197 15.6522Z" fill="white" stroke="#252525" stroke-width="0.946996" stroke-linecap="round" stroke-linejoin="round"/>
<path d="M18.3829 23.0258H4.5957V27.9416H18.3829V23.0258Z" fill="white" stroke="#252525" stroke-width="0.946996" stroke-linecap="round" stroke-linejoin="round"/>
<path d="M10.1104 25.4837H12.8678" stroke="#252525" stroke-width="0.946996" stroke-linecap="round" stroke-linejoin="round"/>
<path d="M36.9842 25.419C36.9842 26.2993 37.0874 27.1674 37.2937 28.0233C37.523 28.8547 37.8555 29.6005 38.2912 30.2608C38.7498 30.921 39.323 31.4468 40.0109 31.838C40.7217 32.2293 41.5472 32.4249 42.4873 32.4249C43.4733 32.4249 44.3102 32.2171 44.9981 31.8013C45.686 31.3856 46.2478 30.8477 46.6835 30.1874C47.1191 29.5027 47.4287 28.7324 47.6121 27.8766C47.8185 27.0207 47.9217 26.1526 47.9217 25.2723C47.9217 24.343 47.8185 23.4505 47.6121 22.5946C47.4058 21.7143 47.0733 20.944 46.6147 20.2838C46.179 19.6235 45.6058 19.0978 44.895 18.7065C44.1841 18.2908 43.3243 18.0829 42.3154 18.0829C41.3294 18.0829 40.4924 18.2908 39.8045 18.7065C39.1167 19.1222 38.5663 19.6724 38.1536 20.3571C37.7409 21.0418 37.4428 21.8243 37.2593 22.7047C37.0759 23.585 36.9842 24.4898 36.9842 25.419ZM50.742 34.7358H47.8185V32.1681H47.7497C47.2682 33.2197 46.5115 33.9777 45.4797 34.4423C44.4478 34.9069 43.3128 35.1392 42.0746 35.1392C40.6988 35.1392 39.495 34.8703 38.4632 34.3323C37.4542 33.7943 36.6058 33.0729 35.918 32.1681C35.253 31.2634 34.7485 30.2119 34.4046 29.0137C34.0606 27.8154 33.8887 26.5438 33.8887 25.1989C33.8887 23.854 34.0492 22.5824 34.3702 21.3842C34.7141 20.1859 35.2186 19.1467 35.8836 18.2663C36.5715 17.3616 37.4199 16.6524 38.4288 16.1389C39.4606 15.6009 40.6529 15.3319 42.0058 15.3319C42.4644 15.3319 42.9574 15.3808 43.4848 15.4786C44.0122 15.5765 44.5395 15.7476 45.0669 15.9922C45.5943 16.2122 46.0873 16.5179 46.5459 16.9092C47.0274 17.276 47.4287 17.7406 47.7497 18.303H47.8185V8.54608H50.742V34.7358Z" fill="#252525"/>
<path d="M67.5876 23.4383C67.5418 22.7046 67.3812 22.0077 67.1061 21.3475C66.8539 20.6872 66.4985 20.1248 66.0399 19.6602C65.6042 19.1711 65.0768 18.7921 64.4577 18.5231C63.8615 18.2297 63.1966 18.0829 62.4628 18.0829C61.7061 18.0829 61.0182 18.2297 60.3991 18.5231C59.803 18.7921 59.287 19.1711 58.8514 19.6602C58.4157 20.1493 58.0718 20.7239 57.8195 21.3842C57.5673 22.02 57.4183 22.7046 57.3724 23.4383H67.5876ZM70.408 28.7202C70.0182 30.8477 69.1583 32.4494 67.8284 33.5253C66.4985 34.6013 64.8246 35.1392 62.8068 35.1392C61.3851 35.1392 60.1469 34.8947 59.0921 34.4056C58.0603 33.9166 57.189 33.2319 56.4781 32.3516C55.7673 31.4712 55.2285 30.4197 54.8616 29.1971C54.5177 27.9744 54.3228 26.6417 54.2769 25.1989C54.2769 23.7562 54.4833 22.4357 54.896 21.2374C55.3087 20.0392 55.882 18.9999 56.6157 18.1196C57.3724 17.2393 58.2552 16.5546 59.2641 16.0655C60.296 15.5765 61.4195 15.3319 62.6348 15.3319C64.2169 15.3319 65.5239 15.6865 66.5558 16.3957C67.6105 17.0803 68.4475 17.9607 69.0666 19.0366C69.7086 20.1126 70.1443 21.2863 70.3736 22.5579C70.6258 23.8295 70.729 25.04 70.6831 26.1893H57.3724C57.3495 27.0207 57.4412 27.8154 57.6476 28.5735C57.8539 29.3071 58.1864 29.9673 58.645 30.5542C59.1036 31.1166 59.6883 31.569 60.3991 31.9114C61.11 32.2537 61.9469 32.4249 62.9099 32.4249C64.1482 32.4249 65.1571 32.1192 65.9367 31.5079C66.7392 30.8966 67.2666 29.9673 67.5188 28.7202H70.408Z" fill="#252525"/>
<path d="M89.4664 34.6624C88.9619 34.9803 88.2625 35.1392 87.3683 35.1392C86.6116 35.1392 86.004 34.9192 85.5454 34.479C85.1097 34.0144 84.8919 33.2686 84.8919 32.2415C84.0893 33.2686 83.1492 34.0144 82.0715 34.479C81.0167 34.9192 79.8703 35.1392 78.6321 35.1392C77.8295 35.1392 77.0614 35.0414 76.3276 34.8458C75.6168 34.6502 74.9977 34.3445 74.4703 33.9288C73.9429 33.5131 73.5187 32.9751 73.1977 32.3149C72.8996 31.6302 72.7506 30.811 72.7506 29.8573C72.7506 28.7813 72.9225 27.901 73.2665 27.2163C73.6104 26.5316 74.0576 25.9814 74.6079 25.5657C75.1811 25.1255 75.8232 24.7954 76.534 24.5753C77.2677 24.3553 78.013 24.1719 78.7696 24.0251C79.5722 23.854 80.3289 23.7317 81.0397 23.6583C81.7734 23.5605 82.4155 23.4383 82.9658 23.2915C83.5161 23.1204 83.9518 22.8881 84.2728 22.5946C84.5938 22.2767 84.7543 21.8243 84.7543 21.2374C84.7543 20.5527 84.6282 20.0025 84.376 19.5868C84.1467 19.1711 83.8371 18.8532 83.4473 18.6331C83.0804 18.4131 82.6562 18.2663 82.1747 18.193C81.7161 18.1196 81.2575 18.0829 80.7989 18.0829C79.5607 18.0829 78.5289 18.3397 77.7034 18.8532C76.8779 19.3423 76.4308 20.2838 76.362 21.6776H73.4385C73.4843 20.5038 73.7136 19.5135 74.1264 18.7065C74.5391 17.8995 75.0894 17.2515 75.7773 16.7625C76.4652 16.2489 77.2448 15.8821 78.1161 15.662C79.0104 15.442 79.962 15.3319 80.9709 15.3319C81.7734 15.3319 82.5645 15.3931 83.3441 15.5153C84.1467 15.6376 84.8689 15.8944 85.511 16.2856C86.153 16.6524 86.6689 17.1782 87.0587 17.8629C87.4485 18.5476 87.6434 19.4401 87.6434 20.5405V30.2975C87.6434 31.0311 87.6778 31.569 87.7466 31.9114C87.8383 32.2537 88.1135 32.4249 88.5721 32.4249C88.8243 32.4249 89.1224 32.3638 89.4664 32.2415V34.6624ZM84.7199 24.9421C84.353 25.2356 83.8715 25.4557 83.2753 25.6024C82.6792 25.7247 82.0486 25.8347 81.3836 25.9325C80.7416 26.0059 80.0881 26.1037 79.4231 26.226C78.7582 26.3238 78.162 26.4949 77.6346 26.7395C77.1072 26.984 76.6716 27.3386 76.3276 27.8032C76.0066 28.2434 75.8461 28.8547 75.8461 29.6372C75.8461 30.1507 75.9378 30.5909 76.1212 30.9577C76.3276 31.3001 76.5798 31.5813 76.8779 31.8013C77.1989 32.0214 77.5658 32.1804 77.9786 32.2782C78.3913 32.376 78.827 32.4249 79.2855 32.4249C80.2486 32.4249 81.0741 32.2904 81.762 32.0214C82.4499 31.728 83.0116 31.3734 83.4473 30.9577C83.883 30.5175 84.204 30.0529 84.4104 29.5639C84.6167 29.0503 84.7199 28.5735 84.7199 28.1333V24.9421Z" fill="#252525"/>
<path d="M92.3593 8.54608H95.2828V34.7358H92.3593V8.54608Z" fill="#252525"/>
<path d="M101.6 28.7569C101.623 29.4416 101.772 30.0285 102.048 30.5175C102.323 30.9822 102.678 31.3612 103.114 31.6546C103.572 31.9236 104.077 32.1192 104.627 32.2415C105.2 32.3638 105.785 32.4249 106.381 32.4249C106.84 32.4249 107.321 32.3882 107.826 32.3149C108.33 32.2415 108.789 32.107 109.202 31.9114C109.637 31.7158 109.993 31.4345 110.268 31.0677C110.543 30.6765 110.681 30.1874 110.681 29.6005C110.681 28.7936 110.394 28.1822 109.821 27.7665C109.247 27.3508 108.525 27.0207 107.654 26.7762C106.805 26.5072 105.877 26.2749 104.868 26.0792C103.859 25.8592 102.919 25.5657 102.048 25.1989C101.199 24.8077 100.488 24.2697 99.9151 23.585C99.3418 22.9003 99.0552 21.9466 99.0552 20.7239C99.0552 19.7702 99.2501 18.951 99.6399 18.2663C100.053 17.5816 100.569 17.0314 101.188 16.6157C101.83 16.1756 102.541 15.8577 103.32 15.662C104.123 15.442 104.914 15.3319 105.693 15.3319C106.702 15.3319 107.631 15.4297 108.479 15.6254C109.328 15.7965 110.073 16.1144 110.715 16.5791C111.38 17.0192 111.907 17.6306 112.297 18.4131C112.687 19.1711 112.916 20.1248 112.985 21.2741H110.061C110.016 20.6628 109.867 20.1615 109.614 19.7702C109.362 19.3545 109.041 19.0244 108.651 18.7799C108.261 18.5353 107.826 18.3642 107.344 18.2663C106.886 18.1441 106.416 18.0829 105.934 18.0829C105.498 18.0829 105.051 18.1196 104.593 18.193C104.157 18.2663 103.756 18.4008 103.389 18.5965C103.022 18.7676 102.724 19.0122 102.495 19.3301C102.265 19.6235 102.151 20.0148 102.151 20.5038C102.151 21.0418 102.323 21.4942 102.667 21.861C103.034 22.2034 103.492 22.4968 104.042 22.7413C104.593 22.9614 105.212 23.157 105.9 23.3282C106.588 23.4749 107.276 23.6339 107.963 23.8051C108.697 23.9762 109.408 24.1841 110.096 24.4286C110.807 24.6732 111.426 25.0033 111.953 25.419C112.504 25.8102 112.939 26.3115 113.26 26.9229C113.604 27.5342 113.776 28.2923 113.776 29.1971C113.776 30.3464 113.547 31.3001 113.088 32.0581C112.653 32.8162 112.068 33.4275 111.334 33.8921C110.623 34.3567 109.809 34.6746 108.892 34.8458C107.998 35.0414 107.104 35.1392 106.209 35.1392C105.223 35.1392 104.283 35.0292 103.389 34.8091C102.495 34.589 101.704 34.2345 101.016 33.7454C100.328 33.2319 99.7775 32.5716 99.3648 31.7647C98.952 30.9332 98.7227 29.9307 98.6769 28.7569H101.6Z" fill="#252525"/>
<path d="M126.064 25.7697C126.064 26.5278 126.133 27.2736 126.27 28.0072C126.408 28.7163 126.637 29.3644 126.958 29.9512C127.302 30.5137 127.749 30.9661 128.3 31.3084C128.85 31.6508 129.538 31.8219 130.363 31.8219C131.189 31.8219 131.877 31.6508 132.427 31.3084C133 30.9661 133.447 30.5137 133.769 29.9512C134.112 29.3644 134.353 28.7163 134.491 28.0072C134.628 27.2736 134.697 26.5278 134.697 25.7697C134.697 25.0116 134.628 24.2658 134.491 23.5322C134.353 22.7986 134.112 22.1506 133.769 21.5881C133.447 21.0257 133 20.5733 132.427 20.231C131.877 19.8642 131.189 19.6808 130.363 19.6808C129.538 19.6808 128.85 19.8642 128.3 20.231C127.749 20.5733 127.302 21.0257 126.958 21.5881C126.637 22.1506 126.408 22.7986 126.27 23.5322C126.133 24.2658 126.064 25.0116 126.064 25.7697ZM121.18 25.7697C121.18 24.2536 121.398 22.8842 121.834 21.6615C122.269 20.4144 122.888 19.3629 123.691 18.507C124.493 17.6267 125.456 16.9542 126.58 16.4896C127.704 16.0005 128.965 15.756 130.363 15.756C131.762 15.756 133.023 16.0005 134.147 16.4896C135.293 16.9542 136.268 17.6267 137.07 18.507C137.873 19.3629 138.492 20.4144 138.928 21.6615C139.363 22.8842 139.581 24.2536 139.581 25.7697C139.581 27.2858 139.363 28.6552 138.928 29.8779C138.492 31.1006 137.873 32.1521 137.07 33.0324C136.268 33.8883 135.293 34.5485 134.147 35.0131C133.023 35.4777 131.762 35.71 130.363 35.71C128.965 35.71 127.704 35.4777 126.58 35.0131C125.456 34.5485 124.493 33.8883 123.691 33.0324C122.888 32.1521 122.269 31.1006 121.834 29.8779C121.398 28.6552 121.18 27.2858 121.18 25.7697Z" fill="#BD0000"/>
<path d="M142.757 16.2695H147.4V18.9105H147.503C148.122 17.8101 148.925 17.0153 149.911 16.5263C150.897 16.0128 151.906 15.756 152.938 15.756C154.245 15.756 155.311 15.9516 156.136 16.3429C156.985 16.7097 157.65 17.2354 158.131 17.9201C158.613 18.5804 158.945 19.3996 159.129 20.3777C159.335 21.3314 159.438 22.3951 159.438 23.5689V35.2332H154.554V24.5226C154.554 22.9575 154.325 21.796 153.866 21.0379C153.408 20.2554 152.594 19.8642 151.424 19.8642C150.094 19.8642 149.131 20.2921 148.535 21.148C147.939 21.9794 147.641 23.361 147.641 25.2929V35.2332H142.757V16.2695Z" fill="#BD0000"/>
<path d="M174.098 16.2695H177.675V19.7541H174.098V29.1443C174.098 30.0246 174.236 30.6115 174.511 30.9049C174.786 31.1984 175.336 31.3451 176.162 31.3451C176.437 31.3451 176.701 31.3329 176.953 31.3084C177.205 31.284 177.446 31.2473 177.675 31.1984V35.2332C177.262 35.3066 176.804 35.3555 176.299 35.3799C175.795 35.4044 175.302 35.4166 174.82 35.4166C174.064 35.4166 173.341 35.3555 172.654 35.2332C171.989 35.1354 171.392 34.9275 170.865 34.6096C170.361 34.2917 169.959 33.8393 169.661 33.2525C169.363 32.6656 169.214 31.8953 169.214 30.9416V19.7541H166.256V16.2695H169.214V10.5841H174.098V16.2695Z" fill="#BD0000"/>
<path d="M179.999 9.04351H184.883V18.9105H184.986C185.605 17.8101 186.396 17.0153 187.359 16.5263C188.322 16.0128 189.263 15.756 190.18 15.756C191.487 15.756 192.553 15.9516 193.378 16.3429C194.227 16.7097 194.892 17.2354 195.373 17.9201C195.855 18.5804 196.187 19.3996 196.371 20.3777C196.577 21.3314 196.68 22.3951 196.68 23.5689V35.2332H191.796V24.5226C191.796 22.9575 191.567 21.796 191.108 21.0379C190.65 20.2554 189.836 19.8642 188.666 19.8642C187.336 19.8642 186.373 20.2921 185.777 21.148C185.181 21.9794 184.883 23.361 184.883 25.2929V35.2332H179.999V9.04351Z" fill="#BD0000"/>
<path d="M212.356 23.7156C212.127 22.3951 211.714 21.3925 211.118 20.7078C210.545 20.0231 209.662 19.6808 208.47 19.6808C207.69 19.6808 207.037 19.8275 206.509 20.1209C206.005 20.3899 205.592 20.7323 205.271 21.148C204.973 21.5637 204.755 22.0039 204.618 22.4685C204.503 22.9331 204.434 23.3488 204.411 23.7156H212.356ZM204.411 27.0168C204.48 28.7041 204.881 29.9268 205.615 30.6848C206.349 31.4429 207.404 31.8219 208.779 31.8219C209.765 31.8219 210.614 31.5652 211.325 31.0516C212.035 30.5137 212.471 29.9512 212.632 29.3644H216.931C216.243 31.6385 215.188 33.2647 213.767 34.2428C212.345 35.221 210.625 35.71 208.607 35.71C207.209 35.71 205.948 35.4777 204.824 35.0131C203.7 34.524 202.749 33.8393 201.969 32.959C201.19 32.0787 200.582 31.0272 200.146 29.8045C199.734 28.5818 199.527 27.2369 199.527 25.7697C199.527 24.3514 199.745 23.0309 200.181 21.8082C200.616 20.5856 201.236 19.5341 202.038 18.6537C202.841 17.749 203.792 17.0398 204.893 16.5263C206.016 16.0128 207.255 15.756 208.607 15.756C210.121 15.756 211.439 16.0739 212.563 16.7097C213.686 17.321 214.604 18.1524 215.314 19.2039C216.048 20.2554 216.576 21.4537 216.897 22.7986C217.218 24.1435 217.332 25.5496 217.241 27.0168H204.411Z" fill="#BD0000"/>
<path d="M233.101 30.7582C233.789 30.7582 234.396 30.6115 234.924 30.318C235.451 30.0246 235.887 29.6333 236.231 29.1443C236.575 28.6552 236.827 28.105 236.987 27.4937C237.171 26.8579 237.263 26.1976 237.263 25.5129C237.263 24.7304 237.194 23.9968 237.056 23.3121C236.919 22.603 236.689 21.9794 236.368 21.4414C236.047 20.9034 235.623 20.4755 235.096 20.1576C234.568 19.8397 233.903 19.6808 233.101 19.6808C232.413 19.6808 231.817 19.8275 231.312 20.1209C230.831 20.4144 230.418 20.8179 230.074 21.3314C229.753 21.8205 229.512 22.3951 229.352 23.0554C229.214 23.6911 229.145 24.3636 229.145 25.0728C229.145 25.7575 229.203 26.4422 229.317 27.1269C229.455 27.7871 229.673 28.3862 229.971 28.9242C230.292 29.4622 230.705 29.9023 231.209 30.2447C231.714 30.587 232.344 30.7582 233.101 30.7582ZM241.906 34.0227C241.906 34.7808 241.803 35.6489 241.596 36.627C241.413 37.6052 241 38.51 240.358 39.3414C239.716 40.1972 238.787 40.9186 237.572 41.5055C236.357 42.0924 234.729 42.3858 232.688 42.3858C231.817 42.3858 230.922 42.2636 230.005 42.019C229.111 41.799 228.286 41.4444 227.529 40.9553C226.795 40.4662 226.176 39.8304 225.672 39.0479C225.19 38.2899 224.915 37.3729 224.846 36.2969H229.696C229.925 37.2751 230.372 37.9475 231.037 38.3143C231.702 38.7056 232.47 38.9012 233.342 38.9012C234.717 38.9012 235.715 38.4611 236.334 37.5807C236.976 36.7004 237.285 35.5878 237.263 34.2428V31.7486H237.194C236.666 32.7512 235.91 33.497 234.924 33.9861C233.961 34.4507 232.94 34.683 231.863 34.683C230.533 34.683 229.386 34.4385 228.423 33.9494C227.46 33.4359 226.669 32.7512 226.05 31.8953C225.431 31.015 224.972 30.0001 224.674 28.8508C224.399 27.6771 224.261 26.4422 224.261 25.1461C224.261 23.9235 224.422 22.7497 224.743 21.6248C225.087 20.4755 225.58 19.4729 226.222 18.617C226.864 17.7367 227.655 17.0398 228.595 16.5263C229.558 16.0128 230.659 15.756 231.897 15.756C233.066 15.756 234.087 15.9883 234.958 16.4529C235.852 16.9175 236.598 17.7 237.194 18.8004H237.263V16.2695H241.906V34.0227Z" fill="#BD0000"/>
<path d="M250.172 25.7697C250.172 26.5278 250.241 27.2736 250.378 28.0072C250.516 28.7163 250.745 29.3644 251.066 29.9512C251.41 30.5137 251.857 30.9661 252.407 31.3084C252.958 31.6508 253.646 31.8219 254.471 31.8219C255.297 31.8219 255.984 31.6508 256.535 31.3084C257.108 30.9661 257.555 30.5137 257.876 29.9512C258.22 29.3644 258.461 28.7163 258.598 28.0072C258.736 27.2736 258.805 26.5278 258.805 25.7697C258.805 25.0116 258.736 24.2658 258.598 23.5322C258.461 22.7986 258.22 22.1506 257.876 21.5881C257.555 21.0257 257.108 20.5733 256.535 20.231C255.984 19.8642 255.297 19.6808 254.471 19.6808C253.646 19.6808 252.958 19.8642 252.407 20.231C251.857 20.5733 251.41 21.0257 251.066 21.5881C250.745 22.1506 250.516 22.7986 250.378 23.5322C250.241 24.2658 250.172 25.0116 250.172 25.7697ZM245.288 25.7697C245.288 24.2536 245.506 22.8842 245.941 21.6615C246.377 20.4144 246.996 19.3629 247.799 18.507C248.601 17.6267 249.564 16.9542 250.688 16.4896C251.811 16.0005 253.072 15.756 254.471 15.756C255.87 15.756 257.131 16.0005 258.255 16.4896C259.401 16.9542 260.376 17.6267 261.178 18.507C261.981 19.3629 262.6 20.4144 263.035 21.6615C263.471 22.8842 263.689 24.2536 263.689 25.7697C263.689 27.2858 263.471 28.6552 263.035 29.8779C262.6 31.1006 261.981 32.1521 261.178 33.0324C260.376 33.8883 259.401 34.5485 258.255 35.0131C257.131 35.4777 255.87 35.71 254.471 35.71C253.072 35.71 251.811 35.4777 250.688 35.0131C249.564 34.5485 248.601 33.8883 247.799 33.0324C246.996 32.1521 246.377 31.1006 245.941 29.8779C245.506 28.6552 245.288 27.2858 245.288 25.7697Z" fill="#BD0000"/>
<defs>
<clipPath id="clip0_8899_4780">
<rect x="17.2529" y="3.85437" width="8.73186" height="9.33991" rx="0.710247" fill="white"/>
</clipPath>
</defs>
</svg>
