<svg width="420" height="64" viewBox="0 0 420 64" fill="none" xmlns="http://www.w3.org/2000/svg">
<rect x="1.7312" y="16.1293" width="33.0946" height="34.666" fill="#DADCDF" stroke="#252525" stroke-width="2"/>
<path d="M35.0945 56.5285C35.0945 57.8015 34.6222 59.0224 33.7816 59.9226C32.9411 60.8227 31.801 61.3284 30.6122 61.3284H5.94437C4.75562 61.3284 3.61555 60.8227 2.77497 59.9226C1.93439 59.0224 1.46216 57.8015 1.46216 56.5285V13.3293C1.46216 12.0563 1.93439 10.8354 2.77497 9.93528C3.61555 9.03512 4.75562 8.52942 5.94437 8.52942H30.6122C31.801 8.52942 32.9411 9.03512 33.7816 9.93528C34.6222 10.8354 35.0945 12.0563 35.0945 13.3293V56.5285Z" stroke="#252525" stroke-width="2" stroke-miterlimit="10" stroke-linecap="square"/>
<path d="M25.7195 1.92953H43.0674C44.1324 1.92953 44.995 2.78032 44.995 3.83073V20.9415C44.995 21.9919 44.1324 22.8427 43.0674 22.8427H35.3573L28.6108 27.5957V22.8427H25.7195C24.6546 22.8427 23.792 21.9919 23.792 20.9415V3.83073C23.792 2.78032 24.6546 1.92953 25.7195 1.92953Z" fill="white" stroke="#252525" stroke-width="2" stroke-linecap="round" stroke-linejoin="round"/>
<g clip-path="url(#clip0_8899_3831)">
<rect x="27.4478" y="5.59613" width="13.8916" height="13.9331" rx="1.5" fill="white"/>
<path d="M27.4478 5.59613V13.9732C27.4478 18.079 29.2648 19.5292 32.5399 19.5292H41.3394V5.59613H27.4478Z" fill="white"/>
<path d="M27.4478 5.59613V12.8976C28.5213 9.99675 31.4952 7.77916 34.5158 7.77916C37.8626 7.77916 39.9985 10.5 39.2873 13.8568C38.7388 16.4439 36.6579 18.652 34.2007 19.5292H41.3394V5.59613H27.4478Z" fill="#BD0000"/>
<path d="M33.2283 19.1098C35.3495 19.1098 37.069 16.7578 37.069 13.8565C37.069 10.9552 35.3495 8.60317 33.2283 8.60317C31.1071 8.60317 29.3875 10.9552 29.3875 13.8565C29.3875 16.7578 31.1071 19.1098 33.2283 19.1098Z" fill="#BD0000"/>
</g>
<path d="M10.2358 44.4621V41.5288" stroke="#252525" stroke-width="2" stroke-linecap="round" stroke-linejoin="round"/>
<path d="M26.321 44.4621V41.5288" stroke="#252525" stroke-width="2" stroke-linecap="round" stroke-linejoin="round"/>
<path d="M18.2783 29.0623V34.1956" stroke="#252525" stroke-width="2" stroke-linecap="round" stroke-linejoin="round"/>
<path d="M21.3491 23.1958H15.2076L13.1604 29.0624H23.3963L21.3491 23.1958Z" fill="white" stroke="#252525" stroke-width="2" stroke-linecap="round" stroke-linejoin="round"/>
<path d="M29.2454 34.1956H7.31128V41.5288H29.2454V34.1956Z" fill="white" stroke="#252525" stroke-width="2" stroke-linecap="round" stroke-linejoin="round"/>
<path d="M16.085 37.8622H20.4718" stroke="#252525" stroke-width="2" stroke-linecap="round" stroke-linejoin="round"/>
<path d="M58.838 37.7657C58.838 39.079 59.0022 40.374 59.3305 41.6508C59.6953 42.8911 60.2242 44.0037 60.9173 44.9886C61.6469 45.9735 62.5589 46.7579 63.6533 47.3415C64.7841 47.9252 66.0974 48.217 67.593 48.217C69.1616 48.217 70.4931 47.9069 71.5875 47.2868C72.6819 46.6667 73.5756 45.8641 74.2687 44.8792C74.9618 43.8578 75.4543 42.7087 75.7461 41.4319C76.0744 40.1551 76.2386 38.8601 76.2386 37.5469C76.2386 36.1607 76.0744 34.8292 75.7461 33.5524C75.4178 32.2391 74.8888 31.0901 74.1593 30.1051C73.4662 29.1202 72.5542 28.3359 71.4233 27.7522C70.2925 27.1321 68.9245 26.822 67.3194 26.822C65.7508 26.822 64.4193 27.1321 63.325 27.7522C62.2306 28.3724 61.3551 29.1931 60.6985 30.2146C60.0418 31.236 59.5676 32.4033 59.2758 33.7166C58.9839 35.0298 58.838 36.3795 58.838 37.7657ZM80.7255 51.6643H76.0744V47.834H75.965C75.1989 49.4026 73.9951 50.5334 72.3535 51.2265C70.712 51.9196 68.9063 52.2662 66.9364 52.2662C64.7476 52.2662 62.8325 51.8649 61.1909 51.0624C59.5858 50.2598 58.2361 49.1837 57.1417 47.834C56.0838 46.4843 55.2813 44.9157 54.7341 43.1282C54.1869 41.3407 53.9133 39.4438 53.9133 37.4374C53.9133 35.4311 54.1687 33.5342 54.6794 31.7467C55.2266 29.9592 56.0291 28.4088 57.087 27.0956C58.1814 25.7459 59.5311 24.688 61.1362 23.9219C62.7778 23.1194 64.6747 22.7181 66.827 22.7181C67.5565 22.7181 68.3408 22.791 69.1799 22.937C70.0189 23.0829 70.8579 23.3382 71.6969 23.703C72.5359 24.0313 73.3202 24.4873 74.0498 25.071C74.8159 25.6182 75.4543 26.3113 75.965 27.1503H76.0744V12.5951H80.7255V51.6643Z" fill="#252525"/>
<path d="M107.525 34.8109C107.452 33.7166 107.197 32.6769 106.759 31.692C106.358 30.707 105.793 29.868 105.063 29.1749C104.37 28.4453 103.531 27.8799 102.546 27.4786C101.597 27.0409 100.54 26.822 99.3722 26.822C98.1684 26.822 97.074 27.0409 96.0891 27.4786C95.1406 27.8799 94.3198 28.4453 93.6267 29.1749C92.9336 29.9045 92.3864 30.7617 91.9852 31.7467C91.5839 32.6951 91.3468 33.7166 91.2738 34.8109H107.525ZM112.012 42.6904C111.392 45.8641 110.024 48.2535 107.908 49.8586C105.793 51.4637 103.13 52.2662 99.9194 52.2662C97.6577 52.2662 95.6878 51.9014 94.0098 51.1718C92.3682 50.4422 90.982 49.4208 89.8511 48.1076C88.7203 46.7943 87.863 45.2257 87.2794 43.4018C86.7322 41.5778 86.4221 39.5897 86.3491 37.4374C86.3491 35.2852 86.6775 33.3153 87.3341 31.5278C87.9907 29.7403 88.9027 28.19 90.07 26.8767C91.2738 25.5635 92.6783 24.542 94.2834 23.8125C95.9249 23.0829 97.7124 22.7181 99.6458 22.7181C102.163 22.7181 104.242 23.247 105.884 24.3049C107.562 25.3263 108.893 26.6396 109.878 28.2447C110.9 29.8498 111.593 31.6008 111.958 33.4977C112.359 35.3946 112.523 37.2003 112.45 38.9148H91.2738C91.2373 40.1551 91.3833 41.3407 91.7116 42.4715C92.0399 43.5659 92.5688 44.5509 93.2984 45.4264C94.028 46.2654 94.9582 46.9402 96.0891 47.451C97.2199 47.9617 98.5514 48.217 100.084 48.217C102.053 48.217 103.659 47.761 104.899 46.849C106.176 45.9371 107.015 44.5509 107.416 42.6904H112.012Z" fill="#252525"/>
<path d="M142.332 51.5549C141.53 52.0291 140.417 52.2662 138.995 52.2662C137.791 52.2662 136.824 51.9379 136.094 51.2813C135.401 50.5882 135.055 49.4755 135.055 47.9434C133.778 49.4755 132.282 50.5882 130.568 51.2813C128.89 51.9379 127.066 52.2662 125.096 52.2662C123.819 52.2662 122.597 52.1203 121.43 51.8285C120.299 51.5366 119.314 51.0806 118.475 50.4605C117.636 49.8403 116.961 49.0378 116.45 48.0529C115.976 47.0314 115.739 45.8094 115.739 44.3867C115.739 42.7816 116.013 41.4684 116.56 40.447C117.107 39.4255 117.818 38.6048 118.694 37.9846C119.606 37.328 120.627 36.8355 121.758 36.5072C122.925 36.1789 124.111 35.9053 125.315 35.6864C126.592 35.4311 127.795 35.2487 128.926 35.1392C130.094 34.9933 131.115 34.8109 131.991 34.5921C132.866 34.3367 133.559 33.9901 134.07 33.5524C134.581 33.0782 134.836 32.4033 134.836 31.5278C134.836 30.5064 134.635 29.6856 134.234 29.0655C133.869 28.4453 133.377 27.9711 132.757 27.6428C132.173 27.3145 131.498 27.0956 130.732 26.9861C130.002 26.8767 129.273 26.822 128.543 26.822C126.573 26.822 124.932 27.205 123.619 27.9711C122.305 28.7007 121.594 30.1051 121.485 32.1844H116.833C116.906 30.4334 117.271 28.956 117.928 27.7522C118.584 26.5484 119.46 25.5817 120.554 24.8521C121.649 24.0861 122.889 23.5389 124.275 23.2106C125.698 22.8822 127.212 22.7181 128.817 22.7181C130.094 22.7181 131.352 22.8093 132.592 22.9917C133.869 23.1741 135.018 23.5571 136.04 24.1408C137.061 24.688 137.882 25.4723 138.502 26.4937C139.122 27.5151 139.432 28.8466 139.432 30.4881V45.0433C139.432 46.1377 139.487 46.9402 139.596 47.451C139.742 47.9617 140.18 48.217 140.91 48.217C141.311 48.217 141.785 48.1258 142.332 47.9434V51.5549ZM134.781 37.0544C134.198 37.4921 133.431 37.8205 132.483 38.0393C131.535 38.2217 130.531 38.3859 129.473 38.5318C128.452 38.6412 127.412 38.7872 126.355 38.9696C125.297 39.1155 124.348 39.3708 123.509 39.7356C122.67 40.1004 121.977 40.6294 121.43 41.3225C120.919 41.9791 120.664 42.8911 120.664 44.0584C120.664 44.8245 120.81 45.4811 121.102 46.0283C121.43 46.539 121.831 46.9585 122.305 47.2868C122.816 47.6151 123.4 47.8522 124.056 47.9981C124.713 48.1441 125.406 48.217 126.136 48.217C127.668 48.217 128.981 48.0164 130.075 47.6151C131.17 47.1774 132.063 46.6484 132.757 46.0283C133.45 45.3716 133.96 44.6785 134.289 43.949C134.617 43.1829 134.781 42.4715 134.781 41.8149V37.0544Z" fill="#252525"/>
<path d="M146.935 12.5951H151.586V51.6643H146.935V12.5951Z" fill="#252525"/>
<path d="M161.637 42.7451C161.673 43.7666 161.91 44.6421 162.348 45.3716C162.786 46.0647 163.351 46.6302 164.044 47.0679C164.774 47.4692 165.576 47.761 166.452 47.9434C167.364 48.1258 168.294 48.217 169.242 48.217C169.972 48.217 170.738 48.1623 171.541 48.0529C172.343 47.9434 173.073 47.7428 173.729 47.451C174.423 47.1591 174.988 46.7396 175.426 46.1924C175.863 45.6088 176.082 44.8792 176.082 44.0037C176.082 42.7999 175.626 41.8879 174.714 41.2677C173.802 40.6476 172.653 40.1551 171.267 39.7903C169.917 39.3891 168.44 39.0425 166.835 38.7507C165.23 38.4224 163.734 37.9846 162.348 37.4374C160.998 36.8538 159.867 36.0512 158.955 35.0298C158.043 34.0084 157.587 32.5857 157.587 30.7617C157.587 29.3391 157.897 28.117 158.518 27.0956C159.174 26.0742 159.995 25.2534 160.98 24.6332C162.001 23.9766 163.132 23.5024 164.372 23.2106C165.649 22.8822 166.908 22.7181 168.148 22.7181C169.753 22.7181 171.231 22.864 172.58 23.1558C173.93 23.4112 175.116 23.8854 176.137 24.5785C177.195 25.2352 178.034 26.1471 178.654 27.3145C179.274 28.4453 179.639 29.868 179.748 31.5825H175.097C175.024 30.6705 174.787 29.9227 174.386 29.3391C173.985 28.7189 173.474 28.2264 172.854 27.8616C172.234 27.4969 171.541 27.2415 170.775 27.0956C170.045 26.9132 169.297 26.822 168.531 26.822C167.838 26.822 167.127 26.8767 166.397 26.9861C165.704 27.0956 165.066 27.2962 164.482 27.5881C163.898 27.8434 163.424 28.2082 163.059 28.6824C162.694 29.1202 162.512 29.7038 162.512 30.4334C162.512 31.236 162.786 31.9108 163.333 32.458C163.916 32.9687 164.646 33.4065 165.522 33.7713C166.397 34.0996 167.382 34.3914 168.476 34.6468C169.571 34.8656 170.665 35.1028 171.76 35.3581C172.927 35.6135 174.058 35.9235 175.152 36.2883C176.283 36.6531 177.268 37.1456 178.107 37.7657C178.982 38.3494 179.675 39.0972 180.186 40.0092C180.733 40.9212 181.007 42.052 181.007 43.4018C181.007 45.1163 180.642 46.539 179.913 47.6698C179.22 48.8007 178.289 49.7127 177.122 50.4058C175.991 51.0989 174.696 51.5731 173.237 51.8285C171.814 52.1203 170.392 52.2662 168.969 52.2662C167.4 52.2662 165.905 52.102 164.482 51.7737C163.059 51.4454 161.801 50.9165 160.706 50.1869C159.612 49.4208 158.736 48.4359 158.08 47.2321C157.423 45.9918 157.058 44.4961 156.985 42.7451H161.637Z" fill="#252525"/>
<path d="M200.556 38.2889C200.556 39.4198 200.666 40.5324 200.884 41.6268C201.103 42.6847 201.468 43.6514 201.979 44.5268C202.526 45.3659 203.237 46.0407 204.113 46.5514C204.988 47.0621 206.083 47.3175 207.396 47.3175C208.709 47.3175 209.804 47.0621 210.679 46.5514C211.591 46.0407 212.302 45.3659 212.813 44.5268C213.36 43.6514 213.743 42.6847 213.962 41.6268C214.181 40.5324 214.29 39.4198 214.29 38.2889C214.29 37.1581 214.181 36.0454 213.962 34.9511C213.743 33.8567 213.36 32.89 212.813 32.051C212.302 31.212 211.591 30.5371 210.679 30.0264C209.804 29.4792 208.709 29.2056 207.396 29.2056C206.083 29.2056 204.988 29.4792 204.113 30.0264C203.237 30.5371 202.526 31.212 201.979 32.051C201.468 32.89 201.103 33.8567 200.884 34.9511C200.666 36.0454 200.556 37.1581 200.556 38.2889ZM192.786 38.2889C192.786 36.0272 193.133 33.9844 193.826 32.1604C194.519 30.3 195.504 28.7314 196.781 27.4546C198.057 26.1414 199.589 25.1382 201.377 24.4451C203.164 23.7155 205.171 23.3507 207.396 23.3507C209.621 23.3507 211.628 23.7155 213.415 24.4451C215.239 25.1382 216.789 26.1414 218.066 27.4546C219.343 28.7314 220.328 30.3 221.021 32.1604C221.714 33.9844 222.061 36.0272 222.061 38.2889C222.061 40.5506 221.714 42.5935 221.021 44.4174C220.328 46.2414 219.343 47.81 218.066 49.1232C216.789 50.4 215.239 51.3849 213.415 52.078C211.628 52.7711 209.621 53.1177 207.396 53.1177C205.171 53.1177 203.164 52.7711 201.377 52.078C199.589 51.3849 198.057 50.4 196.781 49.1232C195.504 47.81 194.519 46.2414 193.826 44.4174C193.133 42.5935 192.786 40.5506 192.786 38.2889Z" fill="#BD0000"/>
<path d="M227.113 24.1168H234.5V28.0565H234.664C235.649 26.415 236.926 25.2294 238.494 24.4998C240.063 23.7337 241.668 23.3507 243.309 23.3507C245.389 23.3507 247.085 23.6425 248.398 24.2262C249.748 24.7734 250.806 25.5577 251.572 26.5791C252.338 27.564 252.867 28.7861 253.159 30.2453C253.487 31.6679 253.651 33.2548 253.651 35.0058V52.4063H245.881V36.4285C245.881 34.0938 245.516 32.3611 244.787 31.2302C244.057 30.0629 242.762 29.4792 240.902 29.4792C238.786 29.4792 237.254 30.1176 236.305 31.3944C235.357 32.6346 234.883 34.6957 234.883 37.5776V52.4063H227.113V24.1168Z" fill="#BD0000"/>
<path d="M276.974 24.1168H282.665V29.315H276.974V43.323C276.974 44.6363 277.193 45.5118 277.63 45.9495C278.068 46.3873 278.944 46.6062 280.257 46.6062C280.695 46.6062 281.114 46.5879 281.515 46.5514C281.917 46.515 282.3 46.4602 282.665 46.3873V52.4063C282.008 52.5158 281.278 52.5887 280.476 52.6252C279.673 52.6617 278.889 52.6799 278.123 52.6799C276.919 52.6799 275.77 52.5887 274.676 52.4063C273.618 52.2604 272.669 51.9504 271.83 51.4761C271.028 51.0019 270.389 50.327 269.915 49.4515C269.441 48.576 269.204 47.4269 269.204 46.0043V29.315H264.498V24.1168H269.204V15.6354H276.974V24.1168Z" fill="#BD0000"/>
<path d="M286.361 13.3372H294.132V28.0565H294.296C295.281 26.415 296.539 25.2294 298.071 24.4998C299.603 23.7337 301.099 23.3507 302.558 23.3507C304.638 23.3507 306.334 23.6425 307.647 24.2262C308.997 24.7734 310.055 25.5577 310.821 26.5791C311.587 27.564 312.116 28.7861 312.408 30.2453C312.736 31.6679 312.9 33.2548 312.9 35.0058V52.4063H305.13V36.4285C305.13 34.0938 304.765 32.3611 304.036 31.2302C303.306 30.0629 302.011 29.4792 300.151 29.4792C298.035 29.4792 296.503 30.1176 295.554 31.3944C294.606 32.6346 294.132 34.6957 294.132 37.5776V52.4063H286.361V13.3372Z" fill="#BD0000"/>
<path d="M337.839 35.2247C337.475 33.2548 336.818 31.7591 335.87 30.7377C334.958 29.7163 333.553 29.2056 331.656 29.2056C330.416 29.2056 329.376 29.4245 328.537 29.8622C327.735 30.2635 327.078 30.7742 326.567 31.3944C326.093 32.0145 325.747 32.6711 325.528 33.3642C325.345 34.0573 325.236 34.6775 325.199 35.2247H337.839ZM325.199 40.1494C325.309 42.6664 325.947 44.4904 327.115 45.6212C328.282 46.7521 329.96 47.3175 332.149 47.3175C333.717 47.3175 335.067 46.9345 336.198 46.1684C337.329 45.3659 338.022 44.5268 338.277 43.6514H345.117C344.023 47.0439 342.345 49.4698 340.083 50.9289C337.821 52.3881 335.085 53.1177 331.875 53.1177C329.65 53.1177 327.643 52.7711 325.856 52.078C324.069 51.3484 322.555 50.327 321.314 49.0138C320.074 47.7005 319.107 46.1319 318.414 44.308C317.758 42.484 317.429 40.4777 317.429 38.2889C317.429 36.1731 317.776 34.2032 318.469 32.3793C319.162 30.5553 320.147 28.9867 321.424 27.6735C322.701 26.3238 324.214 25.2659 325.965 24.4998C327.753 23.7337 329.723 23.3507 331.875 23.3507C334.283 23.3507 336.38 23.8249 338.168 24.7734C339.955 25.6854 341.414 26.9257 342.545 28.4943C343.713 30.0629 344.552 31.8503 345.062 33.8567C345.573 35.8631 345.755 37.9606 345.609 40.1494H325.199Z" fill="#BD0000"/>
<path d="M370.842 45.7307C371.936 45.7307 372.903 45.5118 373.742 45.074C374.581 44.6363 375.274 44.0526 375.821 43.323C376.368 42.5935 376.77 41.7727 377.025 40.8607C377.317 39.9122 377.463 38.9273 377.463 37.9059C377.463 36.7385 377.353 35.6442 377.134 34.6228C376.915 33.5649 376.551 32.6346 376.04 31.8321C375.529 31.0296 374.854 30.3912 374.015 29.9169C373.176 29.4427 372.118 29.2056 370.842 29.2056C369.747 29.2056 368.799 29.4245 367.996 29.8622C367.23 30.3 366.574 30.9019 366.026 31.6679C365.516 32.3975 365.133 33.2548 364.877 34.2397C364.658 35.1882 364.549 36.1914 364.549 37.2493C364.549 38.2707 364.64 39.2921 364.823 40.3135C365.042 41.2984 365.388 42.1922 365.862 42.9947C366.373 43.7973 367.03 44.4539 367.832 44.9646C368.635 45.4753 369.638 45.7307 370.842 45.7307ZM384.85 50.6006C384.85 51.7315 384.686 53.0265 384.357 54.4857C384.065 55.9448 383.409 57.2946 382.387 58.5348C381.366 59.8116 379.888 60.8877 377.955 61.7632C376.022 62.6387 373.432 63.0765 370.185 63.0765C368.799 63.0765 367.376 62.8941 365.917 62.5293C364.494 62.201 363.181 61.6721 361.977 60.9425C360.81 60.2129 359.825 59.2644 359.022 58.0971C358.256 56.9662 357.819 55.5983 357.709 53.9932H365.425C365.789 55.4524 366.501 56.4555 367.559 57.0027C368.616 57.5864 369.839 57.8782 371.225 57.8782C373.413 57.8782 375 57.2216 375.985 55.9083C377.007 54.5951 377.499 52.9353 377.463 50.9289V47.2081H377.353C376.514 48.7037 375.31 49.8163 373.742 50.5459C372.21 51.239 370.586 51.5856 368.872 51.5856C366.756 51.5856 364.932 51.2208 363.4 50.4912C361.868 49.7251 360.609 48.7037 359.624 47.4269C358.639 46.1137 357.91 44.5998 357.436 42.8853C356.998 41.1343 356.779 39.2921 356.779 37.3587C356.779 35.5347 357.034 33.7837 357.545 32.1057C358.092 30.3912 358.877 28.8955 359.898 27.6188C360.919 26.3055 362.178 25.2659 363.674 24.4998C365.206 23.7337 366.957 23.3507 368.927 23.3507C370.787 23.3507 372.41 23.6973 373.797 24.3904C375.219 25.0835 376.405 26.2508 377.353 27.8924H377.463V24.1168H384.85V50.6006Z" fill="#BD0000"/>
<path d="M398 38.2889C398 39.4198 398.11 40.5324 398.328 41.6268C398.547 42.6847 398.912 43.6514 399.423 44.5268C399.97 45.3659 400.681 46.0407 401.557 46.5514C402.432 47.0621 403.527 47.3175 404.84 47.3175C406.153 47.3175 407.248 47.0621 408.123 46.5514C409.035 46.0407 409.746 45.3659 410.257 44.5268C410.804 43.6514 411.187 42.6847 411.406 41.6268C411.625 40.5324 411.735 39.4198 411.735 38.2889C411.735 37.1581 411.625 36.0454 411.406 34.9511C411.187 33.8567 410.804 32.89 410.257 32.051C409.746 31.212 409.035 30.5371 408.123 30.0264C407.248 29.4792 406.153 29.2056 404.84 29.2056C403.527 29.2056 402.432 29.4792 401.557 30.0264C400.681 30.5371 399.97 31.212 399.423 32.051C398.912 32.89 398.547 33.8567 398.328 34.9511C398.11 36.0454 398 37.1581 398 38.2889ZM390.23 38.2889C390.23 36.0272 390.577 33.9844 391.27 32.1604C391.963 30.3 392.948 28.7314 394.225 27.4546C395.501 26.1414 397.033 25.1382 398.821 24.4451C400.608 23.7155 402.615 23.3507 404.84 23.3507C407.065 23.3507 409.072 23.7155 410.859 24.4451C412.683 25.1382 414.233 26.1414 415.51 27.4546C416.787 28.7314 417.772 30.3 418.465 32.1604C419.158 33.9844 419.505 36.0272 419.505 38.2889C419.505 40.5506 419.158 42.5935 418.465 44.4174C417.772 46.2414 416.787 47.81 415.51 49.1232C414.233 50.4 412.683 51.3849 410.859 52.078C409.072 52.7711 407.065 53.1177 404.84 53.1177C402.615 53.1177 400.608 52.7711 398.821 52.078C397.033 51.3849 395.501 50.4 394.225 49.1232C392.948 47.81 391.963 46.2414 391.27 44.4174C390.577 42.5935 390.23 40.5506 390.23 38.2889Z" fill="#BD0000"/>
<defs>
<clipPath id="clip0_8899_3831">
<rect x="27.4478" y="5.59613" width="13.8916" height="13.9331" rx="1.5" fill="white"/>
</clipPath>
</defs>
</svg>
