<svg viewBox="0 0 399 155" fill="none" xmlns="http://www.w3.org/2000/svg"
  xmlns:xlink="http://www.w3.org/1999/xlink">
  <style>
    .Shopping_Cart_990 {
      animation: 2s infinite forwards running Shopping_Cart_990;
      transform: translateX(-0.01px) translateY(0px);
    }

    @keyframes Shopping_Cart_990 {
      0% {
        transform: translateX(-0.01px) translateY(0px);
      }

      100% {
        transform: translateX(243px) translateY(0px);
      }
    }
  </style>
  <g clip-path="url(#clip_0_150)" width="399" height="155" data-name="PayPal Page Loading Spinner">
    <g class="Shopping_Cart_990" width="155.83" height="155" data-name="Shopping Cart">
      <g transform="translate(32 2.61) rotate(-1.92)" width="77.88" height="70.13" data-name="Heart">
        <path
          d="M55.3719 65.1008C52.3255 70.0553 46.0386 71.5997 41.1848 68.5858L10.2129 49.3545C0.101171 42.9373 -3.03066 29.3168 3.21774 18.9323C9.46613 8.5479 22.7286 5.33185 32.8403 11.7491L33.8485 12.3889C35.0717 13.1653 36.6702 12.7725 37.4305 11.5088L38.0454 10.4869C44.2938 0.102393 57.5563 -3.11365 67.668 3.30363C77.7797 9.72089 80.9115 23.3413 74.6632 33.7258L55.3719 65.1008Z"
          fill="#ed1400" data-name="Union" />
        <path
          d="M56.0275 55.0364C55.631 54.8601 55.2412 54.657 54.8601 54.4267L21.2783 34.1313C10.4924 27.4689 7.15165 13.3282 13.8165 2.54717C14.255 1.83799 14.7157 1.1294 15.1971 0.426283C10.387 1.94418 6.07164 5.19123 3.21861 9.93279C-3.02979 20.3173 0.102043 33.9378 10.2138 40.355L41.1856 59.5863C46.0395 62.6002 52.3264 61.0558 55.3727 56.1013L56.0275 55.0364Z"
          fill="black" fill-opacity="0.14" data-name="Subtract" transform="translate(0.31 9.43) rotate(-1.92)" />
      </g>
      <g transform="translate(0 13.27)" width="155.83" height="141.73" data-name="Cart">
        <path
          d="M14.2858 -7.62939e-06C10.6031 -7.62939e-06 7.07121 1.46075 4.46714 4.06092C1.86306 6.66109 0.400105 10.1877 0.400105 13.8649C0.400105 17.5421 1.86306 21.0686 4.46714 23.6688C7.07121 26.269 10.6031 27.7297 14.2858 27.7297C17.9685 27.7297 21.5004 26.269 24.1045 23.6688C26.7086 21.0686 28.1715 17.5421 28.1715 13.8649C28.1715 10.1877 26.7086 6.66109 24.1045 4.06092C21.5004 1.46075 17.9685 -7.62939e-06 14.2858 -7.62939e-06V-7.62939e-06ZM14.2858 20.7973C13.374 20.7975 12.4711 20.6183 11.6287 20.27C10.7862 19.9217 10.0208 19.4111 9.37603 18.7673C8.73128 18.1235 8.21988 17.3592 7.87104 16.518C7.5222 15.6769 7.34276 14.7753 7.34296 13.8649C7.34296 10.0351 10.4503 6.93243 14.2858 6.93243C18.1214 6.93243 21.2287 10.0351 21.2287 13.8649C21.2287 17.6946 18.1214 20.7973 14.2858 20.7973ZM99.143 -7.62939e-06C95.4603 -7.62939e-06 91.9284 1.46075 89.3243 4.06092C86.7202 6.66109 85.2573 10.1877 85.2573 13.8649C85.2573 17.5421 86.7202 21.0686 89.3243 23.6688C91.9284 26.269 95.4603 27.7297 99.143 27.7297C102.826 27.7297 106.358 26.269 108.962 23.6688C111.566 21.0686 113.029 17.5421 113.029 13.8649C113.029 10.1877 111.566 6.66109 108.962 4.06092C106.358 1.46075 102.826 -7.62939e-06 99.143 -7.62939e-06V-7.62939e-06ZM99.143 20.7973C98.2312 20.7975 97.3283 20.6183 96.4858 20.27C95.6434 19.9217 94.8779 19.4111 94.2332 18.7673C93.5884 18.1235 93.077 17.3592 92.7282 16.518C92.3794 15.6769 92.1999 14.7753 92.2001 13.8649C92.2001 10.0351 95.3074 6.93243 99.143 6.93243C102.979 6.93243 106.086 10.0351 106.086 13.8649C106.086 17.6946 102.979 20.7973 99.143 20.7973Z"
          fill="#223E49" data-name="Vector" transform="translate(32.4 114)" />
        <path
          d="M155.019 26.086C154.686 25.6848 154.269 25.3618 153.797 25.14C153.325 24.9182 152.809 24.803 152.288 24.8027H28.4117L24.4373 2.90854C24.2902 2.09317 23.8609 1.35529 23.2245 0.823701C22.588 0.292115 21.7848 0.0005858 20.9551 0H3.54086C2.60093 0.00163283 1.70008 0.375706 1.03617 1.04006C0.372266 1.70441 -0.000409927 2.60472 3.38376e-07 3.54324C3.38376e-07 5.49973 1.58606 7.08649 3.54086 7.08649H17.9974L35.4765 103.389C35.6236 104.204 36.0526 104.942 36.6887 105.473C37.3248 106.005 38.1277 106.296 38.9571 106.297H138.121C139.821 106.297 141.284 105.09 141.599 103.416L155.765 29.0084C155.863 28.4964 155.846 27.9693 155.717 27.4644C155.588 26.9594 155.35 26.4889 155.019 26.086V26.086ZM144.635 49.6054H121.947L123.632 31.8892H148.006L144.635 49.6054ZM34.1974 56.6919H55.8051L57.4899 74.4081H37.4143L34.199 56.6919H34.1974ZM92.0808 56.6919H114.156L112.47 74.4081H92.0808V56.6919V56.6919ZM62.2466 49.6054L60.5602 31.8892H84.9991V49.6054H62.245H62.2466ZM84.9975 56.6919V74.4081H64.6087L62.9239 56.6919H84.996H84.9975ZM65.2814 81.4946H84.9991V99.2108H66.9662L65.2798 81.4946H65.2814ZM92.0808 81.4946H111.797L110.111 99.2108H92.0808V81.4946ZM92.0808 49.6054V31.8892H116.518L114.832 49.6054H92.0808ZM121.275 56.6919H143.285L139.914 74.4081H119.587L121.273 56.6919H121.275ZM53.4446 31.8892L55.1309 49.6054H32.9122L29.6954 31.8892H53.4461H53.4446ZM38.6979 81.4946H58.1657L59.8505 99.2108H41.9148L38.6995 81.4946H38.6979ZM135.188 99.2108H117.226L118.913 81.4946H138.564L135.19 99.2108H135.188Z"
          fill="#CED1D5" data-name="Vector" />
      </g>
    </g>
  </g>
  <defs>
    <clipPath id="clip_0_150">
      <rect width="399" height="155" />
    </clipPath>
  </defs>
</svg>
