<svg width="767" height="767" viewBox="0 0 767 767" fill="none" xmlns="http://www.w3.org/2000/svg">
<path d="M51.48 582.11C51.5 582.67 51.63 583.15 51.87 583.55C52.11 583.93 52.42 584.24 52.8 584.48C53.2 584.7 53.64 584.86 54.12 584.96C54.62 585.06 55.13 585.11 55.65 585.11C56.05 585.11 56.47 585.08 56.91 585.02C57.35 584.96 57.75 584.85 58.11 584.69C58.49 584.53 58.8 584.3 59.04 584C59.28 583.68 59.4 583.28 59.4 582.8C59.4 582.14 59.15 581.64 58.65 581.3C58.15 580.96 57.52 580.69 56.76 580.49C56.02 580.27 55.21 580.08 54.33 579.92C53.45 579.74 52.63 579.5 51.87 579.2C51.13 578.88 50.51 578.44 50.01 577.88C49.51 577.32 49.26 576.54 49.26 575.54C49.26 574.76 49.43 574.09 49.77 573.53C50.13 572.97 50.58 572.52 51.12 572.18C51.68 571.82 52.3 571.56 52.98 571.4C53.68 571.22 54.37 571.13 55.05 571.13C55.93 571.13 56.74 571.21 57.48 571.37C58.22 571.51 58.87 571.77 59.43 572.15C60.01 572.51 60.47 573.01 60.81 573.65C61.15 574.27 61.35 575.05 61.41 575.99H58.86C58.82 575.49 58.69 575.08 58.47 574.76C58.25 574.42 57.97 574.15 57.63 573.95C57.29 573.75 56.91 573.61 56.49 573.53C56.09 573.43 55.68 573.38 55.26 573.38C54.88 573.38 54.49 573.41 54.09 573.47C53.71 573.53 53.36 573.64 53.04 573.8C52.72 573.94 52.46 574.14 52.26 574.4C52.06 574.64 51.96 574.96 51.96 575.36C51.96 575.8 52.11 576.17 52.41 576.47C52.73 576.75 53.13 576.99 53.61 577.19C54.09 577.37 54.63 577.53 55.23 577.67C55.83 577.79 56.43 577.92 57.03 578.06C57.67 578.2 58.29 578.37 58.89 578.57C59.51 578.77 60.05 579.04 60.51 579.38C60.99 579.7 61.37 580.11 61.65 580.61C61.95 581.11 62.1 581.73 62.1 582.47C62.1 583.41 61.9 584.19 61.5 584.81C61.12 585.43 60.61 585.93 59.97 586.31C59.35 586.69 58.64 586.95 57.84 587.09C57.06 587.25 56.28 587.33 55.5 587.33C54.64 587.33 53.82 587.24 53.04 587.06C52.26 586.88 51.57 586.59 50.97 586.19C50.37 585.77 49.89 585.23 49.53 584.57C49.17 583.89 48.97 583.07 48.93 582.11H51.48ZM75.45 576.47C75.25 575.49 74.83 574.73 74.19 574.19C73.55 573.65 72.69 573.38 71.61 573.38C70.69 573.38 69.92 573.55 69.3 573.89C68.68 574.23 68.18 574.68 67.8 575.24C67.44 575.8 67.18 576.45 67.02 577.19C66.86 577.91 66.78 578.66 66.78 579.44C66.78 580.16 66.86 580.86 67.02 581.54C67.2 582.22 67.47 582.83 67.83 583.37C68.19 583.89 68.66 584.31 69.24 584.63C69.82 584.95 70.51 585.11 71.31 585.11C72.57 585.11 73.55 584.78 74.25 584.12C74.97 583.46 75.41 582.53 75.57 581.33H78.18C77.9 583.25 77.18 584.73 76.02 585.77C74.88 586.81 73.32 587.33 71.34 587.33C70.16 587.33 69.11 587.14 68.19 586.76C67.29 586.38 66.53 585.84 65.91 585.14C65.31 584.44 64.85 583.61 64.53 582.65C64.23 581.67 64.08 580.6 64.08 579.44C64.08 578.28 64.23 577.2 64.53 576.2C64.83 575.18 65.28 574.3 65.88 573.56C66.5 572.8 67.27 572.21 68.19 571.79C69.11 571.35 70.18 571.13 71.4 571.13C72.28 571.13 73.1 571.24 73.86 571.46C74.64 571.66 75.32 571.98 75.9 572.42C76.5 572.86 76.99 573.42 77.37 574.1C77.75 574.76 77.99 575.55 78.09 576.47H75.45ZM94.7733 586.94C94.3333 587.2 93.7233 587.33 92.9433 587.33C92.2833 587.33 91.7533 587.15 91.3533 586.79C90.9733 586.41 90.7833 585.8 90.7833 584.96C90.0833 585.8 89.2633 586.41 88.3233 586.79C87.4033 587.15 86.4033 587.33 85.3233 587.33C84.6233 587.33 83.9533 587.25 83.3133 587.09C82.6933 586.93 82.1533 586.68 81.6933 586.34C81.2333 586 80.8633 585.56 80.5833 585.02C80.3233 584.46 80.1933 583.79 80.1933 583.01C80.1933 582.13 80.3433 581.41 80.6433 580.85C80.9433 580.29 81.3333 579.84 81.8133 579.5C82.3133 579.14 82.8733 578.87 83.4933 578.69C84.1333 578.51 84.7833 578.36 85.4433 578.24C86.1433 578.1 86.8033 578 87.4233 577.94C88.0633 577.86 88.6233 577.76 89.1033 577.64C89.5833 577.5 89.9633 577.31 90.2433 577.07C90.5233 576.81 90.6633 576.44 90.6633 575.96C90.6633 575.4 90.5533 574.95 90.3333 574.61C90.1333 574.27 89.8633 574.01 89.5233 573.83C89.2033 573.65 88.8333 573.53 88.4133 573.47C88.0133 573.41 87.6133 573.38 87.2133 573.38C86.1333 573.38 85.2333 573.59 84.5133 574.01C83.7933 574.41 83.4033 575.18 83.3433 576.32H80.7933C80.8333 575.36 81.0333 574.55 81.3933 573.89C81.7533 573.23 82.2333 572.7 82.8333 572.3C83.4333 571.88 84.1133 571.58 84.8733 571.4C85.6533 571.22 86.4833 571.13 87.3633 571.13C88.0633 571.13 88.7533 571.18 89.4333 571.28C90.1333 571.38 90.7633 571.59 91.3233 571.91C91.8833 572.21 92.3333 572.64 92.6733 573.2C93.0133 573.76 93.1833 574.49 93.1833 575.39V583.37C93.1833 583.97 93.2133 584.41 93.2733 584.69C93.3533 584.97 93.5933 585.11 93.9933 585.11C94.2133 585.11 94.4733 585.06 94.7733 584.96V586.94ZM90.6333 578.99C90.3133 579.23 89.8933 579.41 89.3733 579.53C88.8533 579.63 88.3033 579.72 87.7233 579.8C87.1633 579.86 86.5933 579.94 86.0133 580.04C85.4333 580.12 84.9133 580.26 84.4533 580.46C83.9933 580.66 83.6133 580.95 83.3133 581.33C83.0333 581.69 82.8933 582.19 82.8933 582.83C82.8933 583.25 82.9733 583.61 83.1333 583.91C83.3133 584.19 83.5333 584.42 83.7933 584.6C84.0733 584.78 84.3933 584.91 84.7533 584.99C85.1133 585.07 85.4933 585.11 85.8933 585.11C86.7333 585.11 87.4533 585 88.0533 584.78C88.6533 584.54 89.1433 584.25 89.5233 583.91C89.9033 583.55 90.1833 583.17 90.3633 582.77C90.5433 582.35 90.6333 581.96 90.6333 581.6V578.99ZM97.0566 571.49H99.4566V574.76H99.5166C100.137 573.5 100.897 572.57 101.797 571.97C102.697 571.37 103.837 571.09 105.217 571.13V573.83C104.197 573.83 103.327 573.97 102.607 574.25C101.887 574.53 101.307 574.94 100.867 575.48C100.427 576.02 100.107 576.68 99.9066 577.46C99.7066 578.22 99.6066 579.1 99.6066 580.1V587H97.0566V571.49ZM113.227 589.07C112.927 589.83 112.627 590.47 112.327 590.99C112.047 591.51 111.727 591.93 111.367 592.25C111.027 592.59 110.637 592.83 110.197 592.97C109.777 593.13 109.287 593.21 108.727 593.21C108.427 593.21 108.127 593.19 107.827 593.15C107.527 593.11 107.237 593.04 106.957 592.94V590.6C107.177 590.7 107.427 590.78 107.707 590.84C108.007 590.92 108.257 590.96 108.457 590.96C108.977 590.96 109.407 590.83 109.747 590.57C110.107 590.33 110.377 589.98 110.557 589.52L111.607 586.91L105.457 571.49H108.337L112.867 584.18H112.927L117.277 571.49H119.977L113.227 589.07ZM121.717 577.46H130.387V579.86H121.717V577.46ZM147.177 585.68C147.177 588.22 146.597 590.12 145.437 591.38C144.277 592.64 142.457 593.27 139.977 593.27C139.257 593.27 138.517 593.19 137.757 593.03C137.017 592.87 136.337 592.61 135.717 592.25C135.117 591.89 134.617 591.42 134.217 590.84C133.817 590.26 133.597 589.55 133.557 588.71H136.107C136.127 589.17 136.267 589.56 136.527 589.88C136.807 590.2 137.137 590.46 137.517 590.66C137.917 590.86 138.347 591 138.807 591.08C139.267 591.18 139.707 591.23 140.127 591.23C140.967 591.23 141.677 591.08 142.257 590.78C142.837 590.5 143.317 590.1 143.697 589.58C144.077 589.08 144.347 588.47 144.507 587.75C144.687 587.03 144.777 586.24 144.777 585.38V584.36H144.717C144.277 585.32 143.607 586.03 142.707 586.49C141.827 586.93 140.887 587.15 139.887 587.15C138.727 587.15 137.717 586.94 136.857 586.52C135.997 586.1 135.277 585.54 134.697 584.84C134.117 584.12 133.677 583.29 133.377 582.35C133.097 581.39 132.957 580.38 132.957 579.32C132.957 578.4 133.077 577.46 133.317 576.5C133.557 575.52 133.957 574.64 134.517 573.86C135.077 573.06 135.817 572.41 136.737 571.91C137.657 571.39 138.787 571.13 140.127 571.13C141.107 571.13 142.007 571.35 142.827 571.79C143.647 572.21 144.287 572.85 144.747 573.71H144.777V571.49H147.177V585.68ZM140.037 584.93C140.877 584.93 141.587 584.76 142.167 584.42C142.767 584.06 143.247 583.6 143.607 583.04C143.967 582.46 144.227 581.81 144.387 581.09C144.567 580.37 144.657 579.65 144.657 578.93C144.657 578.25 144.577 577.58 144.417 576.92C144.257 576.26 143.997 575.67 143.637 575.15C143.297 574.61 142.847 574.18 142.287 573.86C141.727 573.54 141.047 573.38 140.247 573.38C139.427 573.38 138.727 573.54 138.147 573.86C137.567 574.16 137.087 574.57 136.707 575.09C136.347 575.61 136.077 576.21 135.897 576.89C135.737 577.57 135.657 578.28 135.657 579.02C135.657 579.72 135.727 580.42 135.867 581.12C136.007 581.82 136.247 582.46 136.587 583.04C136.927 583.6 137.377 584.06 137.937 584.42C138.497 584.76 139.197 584.93 140.037 584.93ZM152.884 579.26C152.884 580.2 153.004 581.04 153.244 581.78C153.504 582.5 153.854 583.11 154.294 583.61C154.734 584.09 155.244 584.46 155.824 584.72C156.424 584.98 157.054 585.11 157.714 585.11C158.374 585.11 158.994 584.98 159.574 584.72C160.174 584.46 160.694 584.09 161.134 583.61C161.574 583.11 161.914 582.5 162.154 581.78C162.414 581.04 162.544 580.2 162.544 579.26C162.544 578.32 162.414 577.49 162.154 576.77C161.914 576.03 161.574 575.41 161.134 574.91C160.694 574.41 160.174 574.03 159.574 573.77C158.994 573.51 158.374 573.38 157.714 573.38C157.054 573.38 156.424 573.51 155.824 573.77C155.244 574.03 154.734 574.41 154.294 574.91C153.854 575.41 153.504 576.03 153.244 576.77C153.004 577.49 152.884 578.32 152.884 579.26ZM150.184 579.26C150.184 578.12 150.344 577.06 150.664 576.08C150.984 575.08 151.464 574.22 152.104 573.5C152.744 572.76 153.534 572.18 154.474 571.76C155.414 571.34 156.494 571.13 157.714 571.13C158.954 571.13 160.034 571.34 160.954 571.76C161.894 572.18 162.684 572.76 163.324 573.5C163.964 574.22 164.444 575.08 164.764 576.08C165.084 577.06 165.244 578.12 165.244 579.26C165.244 580.4 165.084 581.46 164.764 582.44C164.444 583.42 163.964 584.28 163.324 585.02C162.684 585.74 161.894 586.31 160.954 586.73C160.034 587.13 158.954 587.33 157.714 587.33C156.494 587.33 155.414 587.13 154.474 586.73C153.534 586.31 152.744 585.74 152.104 585.02C151.464 584.28 150.984 583.42 150.664 582.44C150.344 581.46 150.184 580.4 150.184 579.26ZM170.11 579.26C170.11 580.2 170.23 581.04 170.47 581.78C170.73 582.5 171.08 583.11 171.52 583.61C171.96 584.09 172.47 584.46 173.05 584.72C173.65 584.98 174.28 585.11 174.94 585.11C175.6 585.11 176.22 584.98 176.8 584.72C177.4 584.46 177.92 584.09 178.36 583.61C178.8 583.11 179.14 582.5 179.38 581.78C179.64 581.04 179.77 580.2 179.77 579.26C179.77 578.32 179.64 577.49 179.38 576.77C179.14 576.03 178.8 575.41 178.36 574.91C177.92 574.41 177.4 574.03 176.8 573.77C176.22 573.51 175.6 573.38 174.94 573.38C174.28 573.38 173.65 573.51 173.05 573.77C172.47 574.03 171.96 574.41 171.52 574.91C171.08 575.41 170.73 576.03 170.47 576.77C170.23 577.49 170.11 578.32 170.11 579.26ZM167.41 579.26C167.41 578.12 167.57 577.06 167.89 576.08C168.21 575.08 168.69 574.22 169.33 573.5C169.97 572.76 170.76 572.18 171.7 571.76C172.64 571.34 173.72 571.13 174.94 571.13C176.18 571.13 177.26 571.34 178.18 571.76C179.12 572.18 179.91 572.76 180.55 573.5C181.19 574.22 181.67 575.08 181.99 576.08C182.31 577.06 182.47 578.12 182.47 579.26C182.47 580.4 182.31 581.46 181.99 582.44C181.67 583.42 181.19 584.28 180.55 585.02C179.91 585.74 179.12 586.31 178.18 586.73C177.26 587.13 176.18 587.33 174.94 587.33C173.72 587.33 172.64 587.13 171.7 586.73C170.76 586.31 169.97 585.74 169.33 585.02C168.69 584.28 168.21 583.42 167.89 582.44C167.57 581.46 167.41 580.4 167.41 579.26ZM187.337 579.38C187.337 580.1 187.427 580.81 187.607 581.51C187.807 582.19 188.097 582.8 188.477 583.34C188.877 583.88 189.377 584.31 189.977 584.63C190.597 584.95 191.317 585.11 192.137 585.11C192.997 585.11 193.727 584.94 194.327 584.6C194.927 584.26 195.417 583.82 195.797 583.28C196.177 582.72 196.447 582.09 196.607 581.39C196.787 580.69 196.877 579.98 196.877 579.26C196.877 578.5 196.787 577.77 196.607 577.07C196.427 576.35 196.137 575.72 195.737 575.18C195.357 574.64 194.857 574.21 194.237 573.89C193.617 573.55 192.867 573.38 191.987 573.38C191.127 573.38 190.397 573.55 189.797 573.89C189.197 574.23 188.717 574.68 188.357 575.24C187.997 575.8 187.737 576.44 187.577 577.16C187.417 577.88 187.337 578.62 187.337 579.38ZM199.337 587H196.787V584.9H196.727C196.307 585.76 195.647 586.38 194.747 586.76C193.847 587.14 192.857 587.33 191.777 587.33C190.577 587.33 189.527 587.11 188.627 586.67C187.747 586.23 187.007 585.64 186.407 584.9C185.827 584.16 185.387 583.3 185.087 582.32C184.787 581.34 184.637 580.3 184.637 579.2C184.637 578.1 184.777 577.06 185.057 576.08C185.357 575.1 185.797 574.25 186.377 573.53C186.977 572.79 187.717 572.21 188.597 571.79C189.497 571.35 190.537 571.13 191.717 571.13C192.117 571.13 192.547 571.17 193.007 571.25C193.467 571.33 193.927 571.47 194.387 571.67C194.847 571.85 195.277 572.1 195.677 572.42C196.097 572.72 196.447 573.1 196.727 573.56H196.787V565.58H199.337V587ZM213.469 579.38C213.469 580.1 213.559 580.81 213.739 581.51C213.939 582.19 214.229 582.8 214.609 583.34C215.009 583.88 215.509 584.31 216.109 584.63C216.729 584.95 217.449 585.11 218.269 585.11C219.129 585.11 219.859 584.94 220.459 584.6C221.059 584.26 221.549 583.82 221.929 583.28C222.309 582.72 222.579 582.09 222.739 581.39C222.919 580.69 223.009 579.98 223.009 579.26C223.009 578.5 222.919 577.77 222.739 577.07C222.559 576.35 222.269 575.72 221.869 575.18C221.489 574.64 220.989 574.21 220.369 573.89C219.749 573.55 218.999 573.38 218.119 573.38C217.259 573.38 216.529 573.55 215.929 573.89C215.329 574.23 214.849 574.68 214.489 575.24C214.129 575.8 213.869 576.44 213.709 577.16C213.549 577.88 213.469 578.62 213.469 579.38ZM225.469 587H222.919V584.9H222.859C222.439 585.76 221.779 586.38 220.879 586.76C219.979 587.14 218.989 587.33 217.909 587.33C216.709 587.33 215.659 587.11 214.759 586.67C213.879 586.23 213.139 585.64 212.539 584.9C211.959 584.16 211.519 583.3 211.219 582.32C210.919 581.34 210.769 580.3 210.769 579.2C210.769 578.1 210.909 577.06 211.189 576.08C211.489 575.1 211.929 574.25 212.509 573.53C213.109 572.79 213.849 572.21 214.729 571.79C215.629 571.35 216.669 571.13 217.849 571.13C218.249 571.13 218.679 571.17 219.139 571.25C219.599 571.33 220.059 571.47 220.519 571.67C220.979 571.85 221.409 572.1 221.809 572.42C222.229 572.72 222.579 573.1 222.859 573.56H222.919V565.58H225.469V587ZM240.163 577.76C240.123 577.16 239.983 576.59 239.743 576.05C239.523 575.51 239.213 575.05 238.813 574.67C238.433 574.27 237.973 573.96 237.433 573.74C236.913 573.5 236.333 573.38 235.693 573.38C235.033 573.38 234.433 573.5 233.893 573.74C233.373 573.96 232.923 574.27 232.543 574.67C232.163 575.07 231.863 575.54 231.643 576.08C231.423 576.6 231.293 577.16 231.253 577.76H240.163ZM242.623 582.08C242.283 583.82 241.533 585.13 240.373 586.01C239.213 586.89 237.753 587.33 235.993 587.33C234.753 587.33 233.673 587.13 232.753 586.73C231.853 586.33 231.093 585.77 230.473 585.05C229.853 584.33 229.383 583.47 229.063 582.47C228.763 581.47 228.593 580.38 228.553 579.2C228.553 578.02 228.733 576.94 229.093 575.96C229.453 574.98 229.953 574.13 230.593 573.41C231.253 572.69 232.023 572.13 232.903 571.73C233.803 571.33 234.783 571.13 235.843 571.13C237.223 571.13 238.363 571.42 239.263 572C240.183 572.56 240.913 573.28 241.453 574.16C242.013 575.04 242.393 576 242.593 577.04C242.813 578.08 242.903 579.07 242.863 580.01H231.253C231.233 580.69 231.313 581.34 231.493 581.96C231.673 582.56 231.963 583.1 232.363 583.58C232.763 584.04 233.273 584.41 233.893 584.69C234.513 584.97 235.243 585.11 236.083 585.11C237.163 585.11 238.043 584.86 238.723 584.36C239.423 583.86 239.883 583.1 240.103 582.08H242.623ZM259.246 586.94C258.806 587.2 258.196 587.33 257.416 587.33C256.756 587.33 256.226 587.15 255.826 586.79C255.446 586.41 255.256 585.8 255.256 584.96C254.556 585.8 253.736 586.41 252.796 586.79C251.876 587.15 250.876 587.33 249.796 587.33C249.096 587.33 248.426 587.25 247.786 587.09C247.166 586.93 246.626 586.68 246.166 586.34C245.706 586 245.336 585.56 245.056 585.02C244.796 584.46 244.666 583.79 244.666 583.01C244.666 582.13 244.816 581.41 245.116 580.85C245.416 580.29 245.806 579.84 246.286 579.5C246.786 579.14 247.346 578.87 247.966 578.69C248.606 578.51 249.256 578.36 249.916 578.24C250.616 578.1 251.276 578 251.896 577.94C252.536 577.86 253.096 577.76 253.576 577.64C254.056 577.5 254.436 577.31 254.716 577.07C254.996 576.81 255.136 576.44 255.136 575.96C255.136 575.4 255.026 574.95 254.806 574.61C254.606 574.27 254.336 574.01 253.996 573.83C253.676 573.65 253.306 573.53 252.886 573.47C252.486 573.41 252.086 573.38 251.686 573.38C250.606 573.38 249.706 573.59 248.986 574.01C248.266 574.41 247.876 575.18 247.816 576.32H245.266C245.306 575.36 245.506 574.55 245.866 573.89C246.226 573.23 246.706 572.7 247.306 572.3C247.906 571.88 248.586 571.58 249.346 571.4C250.126 571.22 250.956 571.13 251.836 571.13C252.536 571.13 253.226 571.18 253.906 571.28C254.606 571.38 255.236 571.59 255.796 571.91C256.356 572.21 256.806 572.64 257.146 573.2C257.486 573.76 257.656 574.49 257.656 575.39V583.37C257.656 583.97 257.686 584.41 257.746 584.69C257.826 584.97 258.066 585.11 258.466 585.11C258.686 585.11 258.946 585.06 259.246 584.96V586.94ZM255.106 578.99C254.786 579.23 254.366 579.41 253.846 579.53C253.326 579.63 252.776 579.72 252.196 579.8C251.636 579.86 251.066 579.94 250.486 580.04C249.906 580.12 249.386 580.26 248.926 580.46C248.466 580.66 248.086 580.95 247.786 581.33C247.506 581.69 247.366 582.19 247.366 582.83C247.366 583.25 247.446 583.61 247.606 583.91C247.786 584.19 248.006 584.42 248.266 584.6C248.546 584.78 248.866 584.91 249.226 584.99C249.586 585.07 249.966 585.11 250.366 585.11C251.206 585.11 251.926 585 252.526 584.78C253.126 584.54 253.616 584.25 253.996 583.91C254.376 583.55 254.656 583.17 254.836 582.77C255.016 582.35 255.106 581.96 255.106 581.6V578.99ZM261.769 565.58H264.319V587H261.769V565.58ZM269.83 582.11C269.85 582.67 269.98 583.15 270.22 583.55C270.46 583.93 270.77 584.24 271.15 584.48C271.55 584.7 271.99 584.86 272.47 584.96C272.97 585.06 273.48 585.11 274 585.11C274.4 585.11 274.82 585.08 275.26 585.02C275.7 584.96 276.1 584.85 276.46 584.69C276.84 584.53 277.15 584.3 277.39 584C277.63 583.68 277.75 583.28 277.75 582.8C277.75 582.14 277.5 581.64 277 581.3C276.5 580.96 275.87 580.69 275.11 580.49C274.37 580.27 273.56 580.08 272.68 579.92C271.8 579.74 270.98 579.5 270.22 579.2C269.48 578.88 268.86 578.44 268.36 577.88C267.86 577.32 267.61 576.54 267.61 575.54C267.61 574.76 267.78 574.09 268.12 573.53C268.48 572.97 268.93 572.52 269.47 572.18C270.03 571.82 270.65 571.56 271.33 571.4C272.03 571.22 272.72 571.13 273.4 571.13C274.28 571.13 275.09 571.21 275.83 571.37C276.57 571.51 277.22 571.77 277.78 572.15C278.36 572.51 278.82 573.01 279.16 573.65C279.5 574.27 279.7 575.05 279.76 575.99H277.21C277.17 575.49 277.04 575.08 276.82 574.76C276.6 574.42 276.32 574.15 275.98 573.95C275.64 573.75 275.26 573.61 274.84 573.53C274.44 573.43 274.03 573.38 273.61 573.38C273.23 573.38 272.84 573.41 272.44 573.47C272.06 573.53 271.71 573.64 271.39 573.8C271.07 573.94 270.81 574.14 270.61 574.4C270.41 574.64 270.31 574.96 270.31 575.36C270.31 575.8 270.46 576.17 270.76 576.47C271.08 576.75 271.48 576.99 271.96 577.19C272.44 577.37 272.98 577.53 273.58 577.67C274.18 577.79 274.78 577.92 275.38 578.06C276.02 578.2 276.64 578.37 277.24 578.57C277.86 578.77 278.4 579.04 278.86 579.38C279.34 579.7 279.72 580.11 280 580.61C280.3 581.11 280.45 581.73 280.45 582.47C280.45 583.41 280.25 584.19 279.85 584.81C279.47 585.43 278.96 585.93 278.32 586.31C277.7 586.69 276.99 586.95 276.19 587.09C275.41 587.25 274.63 587.33 273.85 587.33C272.99 587.33 272.17 587.24 271.39 587.06C270.61 586.88 269.92 586.59 269.32 586.19C268.72 585.77 268.24 585.23 267.88 584.57C267.52 583.89 267.32 583.07 267.28 582.11H269.83ZM295.159 571.49H298.249V573.74H295.159V583.37C295.159 583.67 295.179 583.91 295.219 584.09C295.279 584.27 295.379 584.41 295.519 584.51C295.659 584.61 295.849 584.68 296.089 584.72C296.349 584.74 296.679 584.75 297.079 584.75H298.249V587H296.299C295.639 587 295.069 586.96 294.589 586.88C294.129 586.78 293.749 586.61 293.449 586.37C293.169 586.13 292.959 585.79 292.819 585.35C292.679 584.91 292.609 584.33 292.609 583.61V573.74H289.969V571.49H292.609V566.84H295.159V571.49ZM302.942 579.26C302.942 580.2 303.062 581.04 303.302 581.78C303.562 582.5 303.912 583.11 304.352 583.61C304.792 584.09 305.302 584.46 305.882 584.72C306.482 584.98 307.112 585.11 307.772 585.11C308.432 585.11 309.052 584.98 309.632 584.72C310.232 584.46 310.752 584.09 311.192 583.61C311.632 583.11 311.972 582.5 312.212 581.78C312.472 581.04 312.602 580.2 312.602 579.26C312.602 578.32 312.472 577.49 312.212 576.77C311.972 576.03 311.632 575.41 311.192 574.91C310.752 574.41 310.232 574.03 309.632 573.77C309.052 573.51 308.432 573.38 307.772 573.38C307.112 573.38 306.482 573.51 305.882 573.77C305.302 574.03 304.792 574.41 304.352 574.91C303.912 575.41 303.562 576.03 303.302 576.77C303.062 577.49 302.942 578.32 302.942 579.26ZM300.242 579.26C300.242 578.12 300.402 577.06 300.722 576.08C301.042 575.08 301.522 574.22 302.162 573.5C302.802 572.76 303.592 572.18 304.532 571.76C305.472 571.34 306.552 571.13 307.772 571.13C309.012 571.13 310.092 571.34 311.012 571.76C311.952 572.18 312.742 572.76 313.382 573.5C314.022 574.22 314.502 575.08 314.822 576.08C315.142 577.06 315.302 578.12 315.302 579.26C315.302 580.4 315.142 581.46 314.822 582.44C314.502 583.42 314.022 584.28 313.382 585.02C312.742 585.74 311.952 586.31 311.012 586.73C310.092 587.13 309.012 587.33 307.772 587.33C306.552 587.33 305.472 587.13 304.532 586.73C303.592 586.31 302.802 585.74 302.162 585.02C301.522 584.28 301.042 583.42 300.722 582.44C300.402 581.46 300.242 580.4 300.242 579.26ZM328.218 582.11C328.238 582.67 328.368 583.15 328.608 583.55C328.848 583.93 329.158 584.24 329.538 584.48C329.938 584.7 330.378 584.86 330.858 584.96C331.358 585.06 331.868 585.11 332.388 585.11C332.788 585.11 333.208 585.08 333.648 585.02C334.088 584.96 334.488 584.85 334.848 584.69C335.228 584.53 335.538 584.3 335.778 584C336.018 583.68 336.138 583.28 336.138 582.8C336.138 582.14 335.888 581.64 335.388 581.3C334.888 580.96 334.258 580.69 333.498 580.49C332.758 580.27 331.948 580.08 331.068 579.92C330.188 579.74 329.368 579.5 328.608 579.2C327.868 578.88 327.248 578.44 326.748 577.88C326.248 577.32 325.998 576.54 325.998 575.54C325.998 574.76 326.168 574.09 326.508 573.53C326.868 572.97 327.318 572.52 327.858 572.18C328.418 571.82 329.038 571.56 329.718 571.4C330.418 571.22 331.108 571.13 331.788 571.13C332.668 571.13 333.478 571.21 334.218 571.37C334.958 571.51 335.608 571.77 336.168 572.15C336.748 572.51 337.208 573.01 337.548 573.65C337.888 574.27 338.088 575.05 338.148 575.99H335.598C335.558 575.49 335.428 575.08 335.208 574.76C334.988 574.42 334.708 574.15 334.368 573.95C334.028 573.75 333.648 573.61 333.228 573.53C332.828 573.43 332.418 573.38 331.998 573.38C331.618 573.38 331.228 573.41 330.828 573.47C330.448 573.53 330.098 573.64 329.778 573.8C329.458 573.94 329.198 574.14 328.998 574.4C328.798 574.64 328.698 574.96 328.698 575.36C328.698 575.8 328.848 576.17 329.148 576.47C329.468 576.75 329.868 576.99 330.348 577.19C330.828 577.37 331.368 577.53 331.968 577.67C332.568 577.79 333.168 577.92 333.768 578.06C334.408 578.2 335.028 578.37 335.628 578.57C336.248 578.77 336.788 579.04 337.248 579.38C337.728 579.7 338.108 580.11 338.388 580.61C338.688 581.11 338.838 581.73 338.838 582.47C338.838 583.41 338.638 584.19 338.238 584.81C337.858 585.43 337.348 585.93 336.708 586.31C336.088 586.69 335.378 586.95 334.578 587.09C333.798 587.25 333.018 587.33 332.238 587.33C331.378 587.33 330.558 587.24 329.778 587.06C328.998 586.88 328.308 586.59 327.708 586.19C327.108 585.77 326.628 585.23 326.268 584.57C325.908 583.89 325.708 583.07 325.668 582.11H328.218ZM341.748 571.49H344.298V573.59H344.358C344.778 572.73 345.438 572.11 346.338 571.73C347.238 571.33 348.228 571.13 349.308 571.13C350.508 571.13 351.548 571.35 352.428 571.79C353.328 572.23 354.068 572.83 354.648 573.59C355.248 574.33 355.698 575.19 355.998 576.17C356.298 577.15 356.448 578.19 356.448 579.29C356.448 580.39 356.298 581.43 355.998 582.41C355.718 583.39 355.278 584.25 354.678 584.99C354.098 585.71 353.358 586.28 352.458 586.7C351.578 587.12 350.548 587.33 349.368 587.33C348.988 587.33 348.558 587.29 348.078 587.21C347.618 587.13 347.158 587 346.698 586.82C346.238 586.64 345.798 586.4 345.378 586.1C344.978 585.78 344.638 585.39 344.358 584.93H344.298V592.91H341.748V571.49ZM353.748 579.11C353.748 578.39 353.648 577.69 353.448 577.01C353.268 576.31 352.978 575.69 352.578 575.15C352.198 574.61 351.698 574.18 351.078 573.86C350.478 573.54 349.768 573.38 348.948 573.38C348.088 573.38 347.358 573.55 346.758 573.89C346.158 574.23 345.668 574.68 345.288 575.24C344.908 575.78 344.628 576.4 344.448 577.1C344.288 577.8 344.208 578.51 344.208 579.23C344.208 579.99 344.298 580.73 344.478 581.45C344.658 582.15 344.938 582.77 345.318 583.31C345.718 583.85 346.228 584.29 346.848 584.63C347.468 584.95 348.218 585.11 349.098 585.11C349.978 585.11 350.708 584.94 351.288 584.6C351.888 584.26 352.368 583.81 352.728 583.25C353.088 582.69 353.348 582.05 353.508 581.33C353.668 580.61 353.748 579.87 353.748 579.11ZM361.301 579.26C361.301 580.2 361.421 581.04 361.661 581.78C361.921 582.5 362.271 583.11 362.711 583.61C363.151 584.09 363.661 584.46 364.241 584.72C364.841 584.98 365.471 585.11 366.131 585.11C366.791 585.11 367.411 584.98 367.991 584.72C368.591 584.46 369.111 584.09 369.551 583.61C369.991 583.11 370.331 582.5 370.571 581.78C370.831 581.04 370.961 580.2 370.961 579.26C370.961 578.32 370.831 577.49 370.571 576.77C370.331 576.03 369.991 575.41 369.551 574.91C369.111 574.41 368.591 574.03 367.991 573.77C367.411 573.51 366.791 573.38 366.131 573.38C365.471 573.38 364.841 573.51 364.241 573.77C363.661 574.03 363.151 574.41 362.711 574.91C362.271 575.41 361.921 576.03 361.661 576.77C361.421 577.49 361.301 578.32 361.301 579.26ZM358.601 579.26C358.601 578.12 358.761 577.06 359.081 576.08C359.401 575.08 359.881 574.22 360.521 573.5C361.161 572.76 361.951 572.18 362.891 571.76C363.831 571.34 364.911 571.13 366.131 571.13C367.371 571.13 368.451 571.34 369.371 571.76C370.311 572.18 371.101 572.76 371.741 573.5C372.381 574.22 372.861 575.08 373.181 576.08C373.501 577.06 373.661 578.12 373.661 579.26C373.661 580.4 373.501 581.46 373.181 582.44C372.861 583.42 372.381 584.28 371.741 585.02C371.101 585.74 370.311 586.31 369.371 586.73C368.451 587.13 367.371 587.33 366.131 587.33C364.911 587.33 363.831 587.13 362.891 586.73C361.951 586.31 361.161 585.74 360.521 585.02C359.881 584.28 359.401 583.42 359.081 582.44C358.761 581.46 358.601 580.4 358.601 579.26ZM378.528 579.26C378.528 580.2 378.648 581.04 378.888 581.78C379.148 582.5 379.498 583.11 379.938 583.61C380.378 584.09 380.888 584.46 381.468 584.72C382.068 584.98 382.698 585.11 383.358 585.11C384.018 585.11 384.638 584.98 385.218 584.72C385.818 584.46 386.338 584.09 386.778 583.61C387.218 583.11 387.558 582.5 387.798 581.78C388.058 581.04 388.188 580.2 388.188 579.26C388.188 578.32 388.058 577.49 387.798 576.77C387.558 576.03 387.218 575.41 386.778 574.91C386.338 574.41 385.818 574.03 385.218 573.77C384.638 573.51 384.018 573.38 383.358 573.38C382.698 573.38 382.068 573.51 381.468 573.77C380.888 574.03 380.378 574.41 379.938 574.91C379.498 575.41 379.148 576.03 378.888 576.77C378.648 577.49 378.528 578.32 378.528 579.26ZM375.828 579.26C375.828 578.12 375.988 577.06 376.308 576.08C376.628 575.08 377.108 574.22 377.748 573.5C378.388 572.76 379.178 572.18 380.118 571.76C381.058 571.34 382.138 571.13 383.358 571.13C384.598 571.13 385.678 571.34 386.598 571.76C387.538 572.18 388.328 572.76 388.968 573.5C389.608 574.22 390.088 575.08 390.408 576.08C390.728 577.06 390.888 578.12 390.888 579.26C390.888 580.4 390.728 581.46 390.408 582.44C390.088 583.42 389.608 584.28 388.968 585.02C388.328 585.74 387.538 586.31 386.598 586.73C385.678 587.13 384.598 587.33 383.358 587.33C382.138 587.33 381.058 587.13 380.118 586.73C379.178 586.31 378.388 585.74 377.748 585.02C377.108 584.28 376.628 583.42 376.308 582.44C375.988 581.46 375.828 580.4 375.828 579.26ZM394.045 565.58H396.595V578.27L403.675 571.49H407.095L400.945 577.13L407.545 587H404.305L398.995 578.9L396.595 581.12V587H394.045V565.58ZM430.641 587H428.241V584.54H428.181C427.641 585.5 426.951 586.21 426.111 586.67C425.271 587.11 424.281 587.33 423.141 587.33C422.121 587.33 421.271 587.2 420.591 586.94C419.911 586.66 419.361 586.27 418.941 585.77C418.521 585.27 418.221 584.68 418.041 584C417.881 583.3 417.801 582.53 417.801 581.69V571.49H420.351V581.99C420.351 582.95 420.631 583.71 421.191 584.27C421.751 584.83 422.521 585.11 423.501 585.11C424.281 585.11 424.951 584.99 425.511 584.75C426.091 584.51 426.571 584.17 426.951 583.73C427.331 583.29 427.611 582.78 427.791 582.2C427.991 581.6 428.091 580.95 428.091 580.25V571.49H430.641V587ZM434.561 571.49H437.111V573.59H437.171C437.591 572.73 438.251 572.11 439.151 571.73C440.051 571.33 441.041 571.13 442.121 571.13C443.321 571.13 444.361 571.35 445.241 571.79C446.141 572.23 446.881 572.83 447.461 573.59C448.061 574.33 448.511 575.19 448.811 576.17C449.111 577.15 449.261 578.19 449.261 579.29C449.261 580.39 449.111 581.43 448.811 582.41C448.531 583.39 448.091 584.25 447.491 584.99C446.911 585.71 446.171 586.28 445.271 586.7C444.391 587.12 443.361 587.33 442.181 587.33C441.801 587.33 441.371 587.29 440.891 587.21C440.431 587.13 439.971 587 439.511 586.82C439.051 586.64 438.611 586.4 438.191 586.1C437.791 585.78 437.451 585.39 437.171 584.93H437.111V592.91H434.561V571.49ZM446.561 579.11C446.561 578.39 446.461 577.69 446.261 577.01C446.081 576.31 445.791 575.69 445.391 575.15C445.011 574.61 444.511 574.18 443.891 573.86C443.291 573.54 442.581 573.38 441.761 573.38C440.901 573.38 440.171 573.55 439.571 573.89C438.971 574.23 438.481 574.68 438.101 575.24C437.721 575.78 437.441 576.4 437.261 577.1C437.101 577.8 437.021 578.51 437.021 579.23C437.021 579.99 437.111 580.73 437.291 581.45C437.471 582.15 437.751 582.77 438.131 583.31C438.531 583.85 439.041 584.29 439.661 584.63C440.281 584.95 441.031 585.11 441.911 585.11C442.791 585.11 443.521 584.94 444.101 584.6C444.701 584.26 445.181 583.81 445.541 583.25C445.901 582.69 446.161 582.05 446.321 581.33C446.481 580.61 446.561 579.87 446.561 579.11ZM466.694 589.07C466.394 589.83 466.094 590.47 465.794 590.99C465.514 591.51 465.194 591.93 464.834 592.25C464.494 592.59 464.104 592.83 463.664 592.97C463.244 593.13 462.754 593.21 462.194 593.21C461.894 593.21 461.594 593.19 461.294 593.15C460.994 593.11 460.704 593.04 460.424 592.94V590.6C460.644 590.7 460.894 590.78 461.174 590.84C461.474 590.92 461.724 590.96 461.924 590.96C462.444 590.96 462.874 590.83 463.214 590.57C463.574 590.33 463.844 589.98 464.024 589.52L465.074 586.91L458.924 571.49H461.804L466.334 584.18H466.394L470.744 571.49H473.444L466.694 589.07ZM477.464 579.26C477.464 580.2 477.584 581.04 477.824 581.78C478.084 582.5 478.434 583.11 478.874 583.61C479.314 584.09 479.824 584.46 480.404 584.72C481.004 584.98 481.634 585.11 482.294 585.11C482.954 585.11 483.574 584.98 484.154 584.72C484.754 584.46 485.274 584.09 485.714 583.61C486.154 583.11 486.494 582.5 486.734 581.78C486.994 581.04 487.124 580.2 487.124 579.26C487.124 578.32 486.994 577.49 486.734 576.77C486.494 576.03 486.154 575.41 485.714 574.91C485.274 574.41 484.754 574.03 484.154 573.77C483.574 573.51 482.954 573.38 482.294 573.38C481.634 573.38 481.004 573.51 480.404 573.77C479.824 574.03 479.314 574.41 478.874 574.91C478.434 575.41 478.084 576.03 477.824 576.77C477.584 577.49 477.464 578.32 477.464 579.26ZM474.764 579.26C474.764 578.12 474.924 577.06 475.244 576.08C475.564 575.08 476.044 574.22 476.684 573.5C477.324 572.76 478.114 572.18 479.054 571.76C479.994 571.34 481.074 571.13 482.294 571.13C483.534 571.13 484.614 571.34 485.534 571.76C486.474 572.18 487.264 572.76 487.904 573.5C488.544 574.22 489.024 575.08 489.344 576.08C489.664 577.06 489.824 578.12 489.824 579.26C489.824 580.4 489.664 581.46 489.344 582.44C489.024 583.42 488.544 584.28 487.904 585.02C487.264 585.74 486.474 586.31 485.534 586.73C484.614 587.13 483.534 587.33 482.294 587.33C481.074 587.33 479.994 587.13 479.054 586.73C478.114 586.31 477.324 585.74 476.684 585.02C476.044 584.28 475.564 583.42 475.244 582.44C474.924 581.46 474.764 580.4 474.764 579.26ZM505.67 587H503.27V584.54H503.21C502.67 585.5 501.98 586.21 501.14 586.67C500.3 587.11 499.31 587.33 498.17 587.33C497.15 587.33 496.3 587.2 495.62 586.94C494.94 586.66 494.39 586.27 493.97 585.77C493.55 585.27 493.25 584.68 493.07 584C492.91 583.3 492.83 582.53 492.83 581.69V571.49H495.38V581.99C495.38 582.95 495.66 583.71 496.22 584.27C496.78 584.83 497.55 585.11 498.53 585.11C499.31 585.11 499.98 584.99 500.54 584.75C501.12 584.51 501.6 584.17 501.98 583.73C502.36 583.29 502.64 582.78 502.82 582.2C503.02 581.6 503.12 580.95 503.12 580.25V571.49H505.67V587ZM509.41 571.49H511.81V574.76H511.87C512.49 573.5 513.25 572.57 514.15 571.97C515.05 571.37 516.19 571.09 517.57 571.13V573.83C516.55 573.83 515.68 573.97 514.96 574.25C514.24 574.53 513.66 574.94 513.22 575.48C512.78 576.02 512.46 576.68 512.26 577.46C512.06 578.22 511.96 579.1 511.96 580.1V587H509.41V571.49ZM51.48 619.11C51.5 619.67 51.63 620.15 51.87 620.55C52.11 620.93 52.42 621.24 52.8 621.48C53.2 621.7 53.64 621.86 54.12 621.96C54.62 622.06 55.13 622.11 55.65 622.11C56.05 622.11 56.47 622.08 56.91 622.02C57.35 621.96 57.75 621.85 58.11 621.69C58.49 621.53 58.8 621.3 59.04 621C59.28 620.68 59.4 620.28 59.4 619.8C59.4 619.14 59.15 618.64 58.65 618.3C58.15 617.96 57.52 617.69 56.76 617.49C56.02 617.27 55.21 617.08 54.33 616.92C53.45 616.74 52.63 616.5 51.87 616.2C51.13 615.88 50.51 615.44 50.01 614.88C49.51 614.32 49.26 613.54 49.26 612.54C49.26 611.76 49.43 611.09 49.77 610.53C50.13 609.97 50.58 609.52 51.12 609.18C51.68 608.82 52.3 608.56 52.98 608.4C53.68 608.22 54.37 608.13 55.05 608.13C55.93 608.13 56.74 608.21 57.48 608.37C58.22 608.51 58.87 608.77 59.43 609.15C60.01 609.51 60.47 610.01 60.81 610.65C61.15 611.27 61.35 612.05 61.41 612.99H58.86C58.82 612.49 58.69 612.08 58.47 611.76C58.25 611.42 57.97 611.15 57.63 610.95C57.29 610.75 56.91 610.61 56.49 610.53C56.09 610.43 55.68 610.38 55.26 610.38C54.88 610.38 54.49 610.41 54.09 610.47C53.71 610.53 53.36 610.64 53.04 610.8C52.72 610.94 52.46 611.14 52.26 611.4C52.06 611.64 51.96 611.96 51.96 612.36C51.96 612.8 52.11 613.17 52.41 613.47C52.73 613.75 53.13 613.99 53.61 614.19C54.09 614.37 54.63 614.53 55.23 614.67C55.83 614.79 56.43 614.92 57.03 615.06C57.67 615.2 58.29 615.37 58.89 615.57C59.51 615.77 60.05 616.04 60.51 616.38C60.99 616.7 61.37 617.11 61.65 617.61C61.95 618.11 62.1 618.73 62.1 619.47C62.1 620.41 61.9 621.19 61.5 621.81C61.12 622.43 60.61 622.93 59.97 623.31C59.35 623.69 58.64 623.95 57.84 624.09C57.06 624.25 56.28 624.33 55.5 624.33C54.64 624.33 53.82 624.24 53.04 624.06C52.26 623.88 51.57 623.59 50.97 623.19C50.37 622.77 49.89 622.23 49.53 621.57C49.17 620.89 48.97 620.07 48.93 619.11H51.48ZM65.01 608.49H67.56V610.59H67.62C68.04 609.73 68.7 609.11 69.6 608.73C70.5 608.33 71.49 608.13 72.57 608.13C73.77 608.13 74.81 608.35 75.69 608.79C76.59 609.23 77.33 609.83 77.91 610.59C78.51 611.33 78.96 612.19 79.26 613.17C79.56 614.15 79.71 615.19 79.71 616.29C79.71 617.39 79.56 618.43 79.26 619.41C78.98 620.39 78.54 621.25 77.94 621.99C77.36 622.71 76.62 623.28 75.72 623.7C74.84 624.12 73.81 624.33 72.63 624.33C72.25 624.33 71.82 624.29 71.34 624.21C70.88 624.13 70.42 624 69.96 623.82C69.5 623.64 69.06 623.4 68.64 623.1C68.24 622.78 67.9 622.39 67.62 621.93H67.56V629.91H65.01V608.49ZM77.01 616.11C77.01 615.39 76.91 614.69 76.71 614.01C76.53 613.31 76.24 612.69 75.84 612.15C75.46 611.61 74.96 611.18 74.34 610.86C73.74 610.54 73.03 610.38 72.21 610.38C71.35 610.38 70.62 610.55 70.02 610.89C69.42 611.23 68.93 611.68 68.55 612.24C68.17 612.78 67.89 613.4 67.71 614.1C67.55 614.8 67.47 615.51 67.47 616.23C67.47 616.99 67.56 617.73 67.74 618.45C67.92 619.15 68.2 619.77 68.58 620.31C68.98 620.85 69.49 621.29 70.11 621.63C70.73 621.95 71.48 622.11 72.36 622.11C73.24 622.11 73.97 621.94 74.55 621.6C75.15 621.26 75.63 620.81 75.99 620.25C76.35 619.69 76.61 619.05 76.77 618.33C76.93 617.61 77.01 616.87 77.01 616.11ZM96.4432 623.94C96.0032 624.2 95.3932 624.33 94.6132 624.33C93.9532 624.33 93.4232 624.15 93.0232 623.79C92.6432 623.41 92.4532 622.8 92.4532 621.96C91.7532 622.8 90.9332 623.41 89.9932 623.79C89.0732 624.15 88.0732 624.33 86.9932 624.33C86.2932 624.33 85.6232 624.25 84.9832 624.09C84.3632 623.93 83.8232 623.68 83.3632 623.34C82.9032 623 82.5332 622.56 82.2532 622.02C81.9932 621.46 81.8632 620.79 81.8632 620.01C81.8632 619.13 82.0132 618.41 82.3132 617.85C82.6132 617.29 83.0032 616.84 83.4832 616.5C83.9832 616.14 84.5432 615.87 85.1632 615.69C85.8032 615.51 86.4532 615.36 87.1132 615.24C87.8132 615.1 88.4732 615 89.0932 614.94C89.7332 614.86 90.2932 614.76 90.7732 614.64C91.2532 614.5 91.6332 614.31 91.9132 614.07C92.1932 613.81 92.3332 613.44 92.3332 612.96C92.3332 612.4 92.2232 611.95 92.0032 611.61C91.8032 611.27 91.5332 611.01 91.1932 610.83C90.8732 610.65 90.5032 610.53 90.0832 610.47C89.6832 610.41 89.2832 610.38 88.8832 610.38C87.8032 610.38 86.9032 610.59 86.1832 611.01C85.4632 611.41 85.0732 612.18 85.0132 613.32H82.4632C82.5032 612.36 82.7032 611.55 83.0632 610.89C83.4232 610.23 83.9032 609.7 84.5032 609.3C85.1032 608.88 85.7832 608.58 86.5432 608.4C87.3232 608.22 88.1532 608.13 89.0332 608.13C89.7332 608.13 90.4232 608.18 91.1032 608.28C91.8032 608.38 92.4332 608.59 92.9932 608.91C93.5532 609.21 94.0032 609.64 94.3432 610.2C94.6832 610.76 94.8532 611.49 94.8532 612.39V620.37C94.8532 620.97 94.8832 621.41 94.9432 621.69C95.0232 621.97 95.2632 622.11 95.6632 622.11C95.8832 622.11 96.1432 622.06 96.4432 621.96V623.94ZM92.3032 615.99C91.9832 616.23 91.5632 616.41 91.0432 616.53C90.5232 616.63 89.9732 616.72 89.3932 616.8C88.8332 616.86 88.2632 616.94 87.6832 617.04C87.1032 617.12 86.5832 617.26 86.1232 617.46C85.6632 617.66 85.2832 617.95 84.9832 618.33C84.7032 618.69 84.5632 619.19 84.5632 619.83C84.5632 620.25 84.6432 620.61 84.8032 620.91C84.9832 621.19 85.2032 621.42 85.4632 621.6C85.7432 621.78 86.0632 621.91 86.4232 621.99C86.7832 622.07 87.1632 622.11 87.5632 622.11C88.4032 622.11 89.1232 622 89.7232 621.78C90.3232 621.54 90.8132 621.25 91.1932 620.91C91.5732 620.55 91.8532 620.17 92.0332 619.77C92.2132 619.35 92.3032 618.96 92.3032 618.6V615.99ZM109.346 613.47C109.146 612.49 108.726 611.73 108.086 611.19C107.446 610.65 106.586 610.38 105.506 610.38C104.586 610.38 103.816 610.55 103.196 610.89C102.576 611.23 102.076 611.68 101.696 612.24C101.336 612.8 101.076 613.45 100.916 614.19C100.756 614.91 100.676 615.66 100.676 616.44C100.676 617.16 100.756 617.86 100.916 618.54C101.096 619.22 101.366 619.83 101.726 620.37C102.086 620.89 102.556 621.31 103.136 621.63C103.716 621.95 104.406 622.11 105.206 622.11C106.466 622.11 107.446 621.78 108.146 621.12C108.866 620.46 109.306 619.53 109.466 618.33H112.076C111.796 620.25 111.076 621.73 109.916 622.77C108.776 623.81 107.216 624.33 105.236 624.33C104.056 624.33 103.006 624.14 102.086 623.76C101.186 623.38 100.426 622.84 99.8065 622.14C99.2065 621.44 98.7465 620.61 98.4265 619.65C98.1265 618.67 97.9765 617.6 97.9765 616.44C97.9765 615.28 98.1265 614.2 98.4265 613.2C98.7265 612.18 99.1765 611.3 99.7765 610.56C100.396 609.8 101.166 609.21 102.086 608.79C103.006 608.35 104.076 608.13 105.296 608.13C106.176 608.13 106.996 608.24 107.756 608.46C108.536 608.66 109.216 608.98 109.796 609.42C110.396 609.86 110.886 610.42 111.266 611.1C111.646 611.76 111.886 612.55 111.986 613.47H109.346ZM125.7 614.76C125.66 614.16 125.52 613.59 125.28 613.05C125.06 612.51 124.75 612.05 124.35 611.67C123.97 611.27 123.51 610.96 122.97 610.74C122.45 610.5 121.87 610.38 121.23 610.38C120.57 610.38 119.97 610.5 119.43 610.74C118.91 610.96 118.46 611.27 118.08 611.67C117.7 612.07 117.4 612.54 117.18 613.08C116.96 613.6 116.83 614.16 116.79 614.76H125.7ZM128.16 619.08C127.82 620.82 127.07 622.13 125.91 623.01C124.75 623.89 123.29 624.33 121.53 624.33C120.29 624.33 119.21 624.13 118.29 623.73C117.39 623.33 116.63 622.77 116.01 622.05C115.39 621.33 114.92 620.47 114.6 619.47C114.3 618.47 114.13 617.38 114.09 616.2C114.09 615.02 114.27 613.94 114.63 612.96C114.99 611.98 115.49 611.13 116.13 610.41C116.79 609.69 117.56 609.13 118.44 608.73C119.34 608.33 120.32 608.13 121.38 608.13C122.76 608.13 123.9 608.42 124.8 609C125.72 609.56 126.45 610.28 126.99 611.16C127.55 612.04 127.93 613 128.13 614.04C128.35 615.08 128.44 616.07 128.4 617.01H116.79C116.77 617.69 116.85 618.34 117.03 618.96C117.21 619.56 117.5 620.1 117.9 620.58C118.3 621.04 118.81 621.41 119.43 621.69C120.05 621.97 120.78 622.11 121.62 622.11C122.7 622.11 123.58 621.86 124.26 621.36C124.96 620.86 125.42 620.1 125.64 619.08H128.16ZM140.443 610.74H137.833V608.49H140.443V606.18C140.443 604.92 140.803 603.97 141.523 603.33C142.263 602.67 143.333 602.34 144.733 602.34C144.973 602.34 145.243 602.36 145.543 602.4C145.863 602.44 146.143 602.5 146.383 602.58V604.8C146.163 604.72 145.923 604.67 145.663 604.65C145.403 604.61 145.163 604.59 144.943 604.59C144.323 604.59 143.843 604.71 143.503 604.95C143.163 605.19 142.993 605.65 142.993 606.33V608.49H145.993V610.74H142.993V624H140.443V610.74ZM150.13 616.26C150.13 617.2 150.25 618.04 150.49 618.78C150.75 619.5 151.1 620.11 151.54 620.61C151.98 621.09 152.49 621.46 153.07 621.72C153.67 621.98 154.3 622.11 154.96 622.11C155.62 622.11 156.24 621.98 156.82 621.72C157.42 621.46 157.94 621.09 158.38 620.61C158.82 620.11 159.16 619.5 159.4 618.78C159.66 618.04 159.79 617.2 159.79 616.26C159.79 615.32 159.66 614.49 159.4 613.77C159.16 613.03 158.82 612.41 158.38 611.91C157.94 611.41 157.42 611.03 156.82 610.77C156.24 610.51 155.62 610.38 154.96 610.38C154.3 610.38 153.67 610.51 153.07 610.77C152.49 611.03 151.98 611.41 151.54 611.91C151.1 612.41 150.75 613.03 150.49 613.77C150.25 614.49 150.13 615.32 150.13 616.26ZM147.43 616.26C147.43 615.12 147.59 614.06 147.91 613.08C148.23 612.08 148.71 611.22 149.35 610.5C149.99 609.76 150.78 609.18 151.72 608.76C152.66 608.34 153.74 608.13 154.96 608.13C156.2 608.13 157.28 608.34 158.2 608.76C159.14 609.18 159.93 609.76 160.57 610.5C161.21 611.22 161.69 612.08 162.01 613.08C162.33 614.06 162.49 615.12 162.49 616.26C162.49 617.4 162.33 618.46 162.01 619.44C161.69 620.42 161.21 621.28 160.57 622.02C159.93 622.74 159.14 623.31 158.2 623.73C157.28 624.13 156.2 624.33 154.96 624.33C153.74 624.33 152.66 624.13 151.72 623.73C150.78 623.31 149.99 622.74 149.35 622.02C148.71 621.28 148.23 620.42 147.91 619.44C147.59 618.46 147.43 617.4 147.43 616.26ZM165.406 608.49H167.806V611.76H167.866C168.486 610.5 169.246 609.57 170.146 608.97C171.046 608.37 172.186 608.09 173.566 608.13V610.83C172.546 610.83 171.676 610.97 170.956 611.25C170.236 611.53 169.656 611.94 169.216 612.48C168.776 613.02 168.456 613.68 168.256 614.46C168.056 615.22 167.956 616.1 167.956 617.1V624H165.406V608.49ZM187.376 608.49H190.466V610.74H187.376V620.37C187.376 620.67 187.396 620.91 187.436 621.09C187.496 621.27 187.596 621.41 187.736 621.51C187.876 621.61 188.066 621.68 188.306 621.72C188.566 621.74 188.896 621.75 189.296 621.75H190.466V624H188.516C187.856 624 187.286 623.96 186.806 623.88C186.346 623.78 185.966 623.61 185.666 623.37C185.386 623.13 185.176 622.79 185.036 622.35C184.896 621.91 184.826 621.33 184.826 620.61V610.74H182.186V608.49H184.826V603.84H187.376V608.49ZM193.299 602.58H195.849V610.77H195.909C196.109 610.29 196.389 609.89 196.749 609.57C197.109 609.23 197.509 608.96 197.949 608.76C198.409 608.54 198.879 608.38 199.359 608.28C199.859 608.18 200.339 608.13 200.799 608.13C201.819 608.13 202.669 608.27 203.349 608.55C204.029 608.83 204.579 609.22 204.999 609.72C205.419 610.22 205.709 610.82 205.869 611.52C206.049 612.2 206.139 612.96 206.139 613.8V624H203.589V613.5C203.589 612.54 203.309 611.78 202.749 611.22C202.189 610.66 201.419 610.38 200.439 610.38C199.659 610.38 198.979 610.5 198.399 610.74C197.839 610.98 197.369 611.32 196.989 611.76C196.609 612.2 196.319 612.72 196.119 613.32C195.939 613.9 195.849 614.54 195.849 615.24V624H193.299V602.58ZM220.739 614.76C220.699 614.16 220.559 613.59 220.319 613.05C220.099 612.51 219.789 612.05 219.389 611.67C219.009 611.27 218.549 610.96 218.009 610.74C217.489 610.5 216.909 610.38 216.269 610.38C215.609 610.38 215.009 610.5 214.469 610.74C213.949 610.96 213.499 611.27 213.119 611.67C212.739 612.07 212.439 612.54 212.219 613.08C211.999 613.6 211.869 614.16 211.829 614.76H220.739ZM223.199 619.08C222.859 620.82 222.109 622.13 220.949 623.01C219.789 623.89 218.329 624.33 216.569 624.33C215.329 624.33 214.249 624.13 213.329 623.73C212.429 623.33 211.669 622.77 211.049 622.05C210.429 621.33 209.959 620.47 209.639 619.47C209.339 618.47 209.169 617.38 209.129 616.2C209.129 615.02 209.309 613.94 209.669 612.96C210.029 611.98 210.529 611.13 211.169 610.41C211.829 609.69 212.599 609.13 213.479 608.73C214.379 608.33 215.359 608.13 216.419 608.13C217.799 608.13 218.939 608.42 219.839 609C220.759 609.56 221.489 610.28 222.029 611.16C222.589 612.04 222.969 613 223.169 614.04C223.389 615.08 223.479 616.07 223.439 617.01H211.829C211.809 617.69 211.889 618.34 212.069 618.96C212.249 619.56 212.539 620.1 212.939 620.58C213.339 621.04 213.849 621.41 214.469 621.69C215.089 621.97 215.819 622.11 216.659 622.11C217.739 622.11 218.619 621.86 219.299 621.36C219.999 620.86 220.459 620.1 220.679 619.08H223.199ZM234.132 602.58H238.392V610.65H238.482C239.022 609.75 239.712 609.1 240.552 608.7C241.392 608.28 242.212 608.07 243.012 608.07C244.152 608.07 245.082 608.23 245.802 608.55C246.542 608.85 247.122 609.28 247.542 609.84C247.962 610.38 248.252 611.05 248.412 611.85C248.592 612.63 248.682 613.5 248.682 614.46V624H244.422V615.24C244.422 613.96 244.222 613.01 243.822 612.39C243.422 611.75 242.712 611.43 241.692 611.43C240.532 611.43 239.692 611.78 239.172 612.48C238.652 613.16 238.392 614.29 238.392 615.87V624H234.132V602.58ZM251.735 613.26C251.795 612.26 252.045 611.43 252.485 610.77C252.925 610.11 253.485 609.58 254.165 609.18C254.845 608.78 255.605 608.5 256.445 608.34C257.305 608.16 258.165 608.07 259.025 608.07C259.805 608.07 260.595 608.13 261.395 608.25C262.195 608.35 262.925 608.56 263.585 608.88C264.245 609.2 264.785 609.65 265.205 610.23C265.625 610.79 265.835 611.54 265.835 612.48V620.55C265.835 621.25 265.875 621.92 265.955 622.56C266.035 623.2 266.175 623.68 266.375 624H262.055C261.975 623.76 261.905 623.52 261.845 623.28C261.805 623.02 261.775 622.76 261.755 622.5C261.075 623.2 260.275 623.69 259.355 623.97C258.435 624.25 257.495 624.39 256.535 624.39C255.795 624.39 255.105 624.3 254.465 624.12C253.825 623.94 253.265 623.66 252.785 623.28C252.305 622.9 251.925 622.42 251.645 621.84C251.385 621.26 251.255 620.57 251.255 619.77C251.255 618.89 251.405 618.17 251.705 617.61C252.025 617.03 252.425 616.57 252.905 616.23C253.405 615.89 253.965 615.64 254.585 615.48C255.225 615.3 255.865 615.16 256.505 615.06C257.145 614.96 257.775 614.88 258.395 614.82C259.015 614.76 259.565 614.67 260.045 614.55C260.525 614.43 260.905 614.26 261.185 614.04C261.465 613.8 261.595 613.46 261.575 613.02C261.575 612.56 261.495 612.2 261.335 611.94C261.195 611.66 260.995 611.45 260.735 611.31C260.495 611.15 260.205 611.05 259.865 611.01C259.545 610.95 259.195 610.92 258.815 610.92C257.975 610.92 257.315 611.1 256.835 611.46C256.355 611.82 256.075 612.42 255.995 613.26H251.735ZM261.575 616.41C261.395 616.57 261.165 616.7 260.885 616.8C260.625 616.88 260.335 616.95 260.015 617.01C259.715 617.07 259.395 617.12 259.055 617.16C258.715 617.2 258.375 617.25 258.035 617.31C257.715 617.37 257.395 617.45 257.075 617.55C256.775 617.65 256.505 617.79 256.265 617.97C256.045 618.13 255.865 618.34 255.725 618.6C255.585 618.86 255.515 619.19 255.515 619.59C255.515 619.97 255.585 620.29 255.725 620.55C255.865 620.81 256.055 621.02 256.295 621.18C256.535 621.32 256.815 621.42 257.135 621.48C257.455 621.54 257.785 621.57 258.125 621.57C258.965 621.57 259.615 621.43 260.075 621.15C260.535 620.87 260.875 620.54 261.095 620.16C261.315 619.76 261.445 619.36 261.485 618.96C261.545 618.56 261.575 618.24 261.575 618V616.41ZM283.691 624H279.641V621.84H279.551C279.011 622.74 278.311 623.39 277.451 623.79C276.591 624.19 275.711 624.39 274.811 624.39C273.671 624.39 272.731 624.24 271.991 623.94C271.271 623.64 270.701 623.22 270.281 622.68C269.861 622.12 269.561 621.45 269.381 620.67C269.221 619.87 269.141 618.99 269.141 618.03V608.49H273.401V617.25C273.401 618.53 273.601 619.49 274.001 620.13C274.401 620.75 275.111 621.06 276.131 621.06C277.291 621.06 278.131 620.72 278.651 620.04C279.171 619.34 279.431 618.2 279.431 616.62V608.49H283.691V624ZM286.925 608.49H290.975V610.65H291.065C291.605 609.75 292.305 609.1 293.165 608.7C294.025 608.28 294.905 608.07 295.805 608.07C296.945 608.07 297.875 608.23 298.595 608.55C299.335 608.85 299.915 609.28 300.335 609.84C300.755 610.38 301.045 611.05 301.205 611.85C301.385 612.63 301.475 613.5 301.475 614.46V624H297.215V615.24C297.215 613.96 297.015 613.01 296.615 612.39C296.215 611.75 295.505 611.43 294.485 611.43C293.325 611.43 292.485 611.78 291.965 612.48C291.445 613.16 291.185 614.29 291.185 615.87V624H286.925V608.49ZM310.108 608.49H313.228V611.34H310.108V619.02C310.108 619.74 310.228 620.22 310.468 620.46C310.708 620.7 311.188 620.82 311.908 620.82C312.148 620.82 312.378 620.81 312.598 620.79C312.818 620.77 313.028 620.74 313.228 620.7V624C312.868 624.06 312.468 624.1 312.028 624.12C311.588 624.14 311.158 624.15 310.738 624.15C310.078 624.15 309.448 624.1 308.848 624C308.268 623.92 307.748 623.75 307.288 623.49C306.848 623.23 306.498 622.86 306.238 622.38C305.978 621.9 305.848 621.27 305.848 620.49V611.34H303.268V608.49H305.848V603.84H310.108V608.49ZM319.635 606.09H315.375V602.58H319.635V606.09ZM315.375 608.49H319.635V624H315.375V608.49ZM322.989 608.49H327.039V610.65H327.129C327.669 609.75 328.369 609.1 329.229 608.7C330.089 608.28 330.969 608.07 331.869 608.07C333.009 608.07 333.939 608.23 334.659 608.55C335.399 608.85 335.979 609.28 336.399 609.84C336.819 610.38 337.109 611.05 337.269 611.85C337.449 612.63 337.539 613.5 337.539 614.46V624H333.279V615.24C333.279 613.96 333.079 613.01 332.679 612.39C332.279 611.75 331.569 611.43 330.549 611.43C329.389 611.43 328.549 611.78 328.029 612.48C327.509 613.16 327.249 614.29 327.249 615.87V624H322.989V608.49ZM348.002 620.34C348.602 620.34 349.132 620.22 349.592 619.98C350.052 619.74 350.432 619.42 350.732 619.02C351.032 618.62 351.252 618.17 351.392 617.67C351.552 617.15 351.632 616.61 351.632 616.05C351.632 615.41 351.572 614.81 351.452 614.25C351.332 613.67 351.132 613.16 350.852 612.72C350.572 612.28 350.202 611.93 349.742 611.67C349.282 611.41 348.702 611.28 348.002 611.28C347.402 611.28 346.882 611.4 346.442 611.64C346.022 611.88 345.662 612.21 345.362 612.63C345.082 613.03 344.872 613.5 344.732 614.04C344.612 614.56 344.552 615.11 344.552 615.69C344.552 616.25 344.602 616.81 344.702 617.37C344.822 617.91 345.012 618.4 345.272 618.84C345.552 619.28 345.912 619.64 346.352 619.92C346.792 620.2 347.342 620.34 348.002 620.34ZM355.682 623.01C355.682 623.63 355.592 624.34 355.412 625.14C355.252 625.94 354.892 626.68 354.332 627.36C353.772 628.06 352.962 628.65 351.902 629.13C350.842 629.61 349.422 629.85 347.642 629.85C346.882 629.85 346.102 629.75 345.302 629.55C344.522 629.37 343.802 629.08 343.142 628.68C342.502 628.28 341.962 627.76 341.522 627.12C341.102 626.5 340.862 625.75 340.802 624.87H345.032C345.232 625.67 345.622 626.22 346.202 626.52C346.782 626.84 347.452 627 348.212 627C349.412 627 350.282 626.64 350.822 625.92C351.382 625.2 351.652 624.29 351.632 623.19V621.15H351.572C351.112 621.97 350.452 622.58 349.592 622.98C348.752 623.36 347.862 623.55 346.922 623.55C345.762 623.55 344.762 623.35 343.922 622.95C343.082 622.53 342.392 621.97 341.852 621.27C341.312 620.55 340.912 619.72 340.652 618.78C340.412 617.82 340.292 616.81 340.292 615.75C340.292 614.75 340.432 613.79 340.712 612.87C341.012 611.93 341.442 611.11 342.002 610.41C342.562 609.69 343.252 609.12 344.072 608.7C344.912 608.28 345.872 608.07 346.952 608.07C347.972 608.07 348.862 608.26 349.622 608.64C350.402 609.02 351.052 609.66 351.572 610.56H351.632V608.49H355.682V623.01ZM370.762 618.96C370.762 619.42 370.852 619.82 371.032 620.16C371.232 620.48 371.482 620.75 371.782 620.97C372.082 621.17 372.422 621.32 372.802 621.42C373.202 621.52 373.612 621.57 374.032 621.57C374.332 621.57 374.642 621.54 374.962 621.48C375.302 621.4 375.602 621.29 375.862 621.15C376.142 620.99 376.372 620.79 376.552 620.55C376.732 620.29 376.822 619.97 376.822 619.59C376.822 618.95 376.392 618.47 375.532 618.15C374.692 617.83 373.512 617.51 371.992 617.19C371.372 617.05 370.762 616.89 370.162 616.71C369.582 616.51 369.062 616.26 368.602 615.96C368.142 615.64 367.772 615.25 367.492 614.79C367.212 614.31 367.072 613.73 367.072 613.05C367.072 612.05 367.262 611.23 367.642 610.59C368.042 609.95 368.562 609.45 369.202 609.09C369.842 608.71 370.562 608.45 371.362 608.31C372.162 608.15 372.982 608.07 373.822 608.07C374.662 608.07 375.472 608.15 376.252 608.31C377.052 608.47 377.762 608.74 378.382 609.12C379.002 609.5 379.512 610.01 379.912 610.65C380.332 611.27 380.582 612.06 380.662 613.02H376.612C376.552 612.2 376.242 611.65 375.682 611.37C375.122 611.07 374.462 610.92 373.702 610.92C373.462 610.92 373.202 610.94 372.922 610.98C372.642 611 372.382 611.06 372.142 611.16C371.922 611.26 371.732 611.41 371.572 611.61C371.412 611.79 371.332 612.04 371.332 612.36C371.332 612.74 371.472 613.05 371.752 613.29C372.032 613.53 372.392 613.73 372.832 613.89C373.292 614.03 373.812 614.16 374.392 614.28C374.972 614.4 375.562 614.53 376.162 614.67C376.782 614.81 377.382 614.98 377.962 615.18C378.562 615.38 379.092 615.65 379.552 615.99C380.012 616.31 380.382 616.72 380.662 617.22C380.942 617.7 381.082 618.3 381.082 619.02C381.082 620.04 380.872 620.9 380.452 621.6C380.052 622.28 379.522 622.83 378.862 623.25C378.202 623.67 377.442 623.96 376.582 624.12C375.742 624.3 374.882 624.39 374.002 624.39C373.102 624.39 372.222 624.3 371.362 624.12C370.502 623.94 369.732 623.64 369.052 623.22C368.392 622.8 367.842 622.25 367.402 621.57C366.982 620.87 366.752 620 366.712 618.96H370.762ZM394.015 614.58C393.815 613.5 393.455 612.68 392.935 612.12C392.435 611.56 391.665 611.28 390.625 611.28C389.945 611.28 389.375 611.4 388.915 611.64C388.475 611.86 388.115 612.14 387.835 612.48C387.575 612.82 387.385 613.18 387.265 613.56C387.165 613.94 387.105 614.28 387.085 614.58H394.015ZM387.085 617.28C387.145 618.66 387.495 619.66 388.135 620.28C388.775 620.9 389.695 621.21 390.895 621.21C391.755 621.21 392.495 621 393.115 620.58C393.735 620.14 394.115 619.68 394.255 619.2H398.005C397.405 621.06 396.485 622.39 395.245 623.19C394.005 623.99 392.505 624.39 390.745 624.39C389.525 624.39 388.425 624.2 387.445 623.82C386.465 623.42 385.635 622.86 384.955 622.14C384.275 621.42 383.745 620.56 383.365 619.56C383.005 618.56 382.825 617.46 382.825 616.26C382.825 615.1 383.015 614.02 383.395 613.02C383.775 612.02 384.315 611.16 385.015 610.44C385.715 609.7 386.545 609.12 387.505 608.7C388.485 608.28 389.565 608.07 390.745 608.07C392.065 608.07 393.215 608.33 394.195 608.85C395.175 609.35 395.975 610.03 396.595 610.89C397.235 611.75 397.695 612.73 397.975 613.83C398.255 614.93 398.355 616.08 398.275 617.28H387.085ZM400.622 613.26C400.682 612.26 400.932 611.43 401.372 610.77C401.812 610.11 402.372 609.58 403.052 609.18C403.732 608.78 404.492 608.5 405.332 608.34C406.192 608.16 407.052 608.07 407.912 608.07C408.692 608.07 409.482 608.13 410.282 608.25C411.082 608.35 411.812 608.56 412.472 608.88C413.132 609.2 413.672 609.65 414.092 610.23C414.512 610.79 414.722 611.54 414.722 612.48V620.55C414.722 621.25 414.762 621.92 414.842 622.56C414.922 623.2 415.062 623.68 415.262 624H410.942C410.862 623.76 410.792 623.52 410.732 623.28C410.692 623.02 410.662 622.76 410.642 622.5C409.962 623.2 409.162 623.69 408.242 623.97C407.322 624.25 406.382 624.39 405.422 624.39C404.682 624.39 403.992 624.3 403.352 624.12C402.712 623.94 402.152 623.66 401.672 623.28C401.192 622.9 400.812 622.42 400.532 621.84C400.272 621.26 400.142 620.57 400.142 619.77C400.142 618.89 400.292 618.17 400.592 617.61C400.912 617.03 401.312 616.57 401.792 616.23C402.292 615.89 402.852 615.64 403.472 615.48C404.112 615.3 404.752 615.16 405.392 615.06C406.032 614.96 406.662 614.88 407.282 614.82C407.902 614.76 408.452 614.67 408.932 614.55C409.412 614.43 409.792 614.26 410.072 614.04C410.352 613.8 410.482 613.46 410.462 613.02C410.462 612.56 410.382 612.2 410.222 611.94C410.082 611.66 409.882 611.45 409.622 611.31C409.382 611.15 409.092 611.05 408.752 611.01C408.432 610.95 408.082 610.92 407.702 610.92C406.862 610.92 406.202 611.1 405.722 611.46C405.242 611.82 404.962 612.42 404.882 613.26H400.622ZM410.462 616.41C410.282 616.57 410.052 616.7 409.772 616.8C409.512 616.88 409.222 616.95 408.902 617.01C408.602 617.07 408.282 617.12 407.942 617.16C407.602 617.2 407.262 617.25 406.922 617.31C406.602 617.37 406.282 617.45 405.962 617.55C405.662 617.65 405.392 617.79 405.152 617.97C404.932 618.13 404.752 618.34 404.612 618.6C404.472 618.86 404.402 619.19 404.402 619.59C404.402 619.97 404.472 620.29 404.612 620.55C404.752 620.81 404.942 621.02 405.182 621.18C405.422 621.32 405.702 621.42 406.022 621.48C406.342 621.54 406.672 621.57 407.012 621.57C407.852 621.57 408.502 621.43 408.962 621.15C409.422 620.87 409.762 620.54 409.982 620.16C410.202 619.76 410.332 619.36 410.372 618.96C410.432 618.56 410.462 618.24 410.462 618V616.41ZM421.328 618.96C421.328 619.42 421.418 619.82 421.598 620.16C421.798 620.48 422.048 620.75 422.348 620.97C422.648 621.17 422.988 621.32 423.368 621.42C423.768 621.52 424.178 621.57 424.598 621.57C424.898 621.57 425.208 621.54 425.528 621.48C425.868 621.4 426.168 621.29 426.428 621.15C426.708 620.99 426.938 620.79 427.118 620.55C427.298 620.29 427.388 619.97 427.388 619.59C427.388 618.95 426.958 618.47 426.098 618.15C425.258 617.83 424.078 617.51 422.558 617.19C421.938 617.05 421.328 616.89 420.728 616.71C420.148 616.51 419.628 616.26 419.168 615.96C418.708 615.64 418.338 615.25 418.058 614.79C417.778 614.31 417.638 613.73 417.638 613.05C417.638 612.05 417.828 611.23 418.208 610.59C418.608 609.95 419.128 609.45 419.768 609.09C420.408 608.71 421.128 608.45 421.928 608.31C422.728 608.15 423.548 608.07 424.388 608.07C425.228 608.07 426.038 608.15 426.818 608.31C427.618 608.47 428.328 608.74 428.948 609.12C429.568 609.5 430.078 610.01 430.478 610.65C430.898 611.27 431.148 612.06 431.228 613.02H427.178C427.118 612.2 426.808 611.65 426.248 611.37C425.688 611.07 425.028 610.92 424.268 610.92C424.028 610.92 423.768 610.94 423.488 610.98C423.208 611 422.948 611.06 422.708 611.16C422.488 611.26 422.298 611.41 422.138 611.61C421.978 611.79 421.898 612.04 421.898 612.36C421.898 612.74 422.038 613.05 422.318 613.29C422.598 613.53 422.958 613.73 423.398 613.89C423.858 614.03 424.378 614.16 424.958 614.28C425.538 614.4 426.128 614.53 426.728 614.67C427.348 614.81 427.948 614.98 428.528 615.18C429.128 615.38 429.658 615.65 430.118 615.99C430.578 616.31 430.948 616.72 431.228 617.22C431.508 617.7 431.648 618.3 431.648 619.02C431.648 620.04 431.438 620.9 431.018 621.6C430.618 622.28 430.088 622.83 429.428 623.25C428.768 623.67 428.008 623.96 427.148 624.12C426.308 624.3 425.448 624.39 424.568 624.39C423.668 624.39 422.788 624.3 421.928 624.12C421.068 623.94 420.298 623.64 419.618 623.22C418.958 622.8 418.408 622.25 417.968 621.57C417.548 620.87 417.318 620 417.278 618.96H421.328ZM437.921 616.26C437.921 616.88 437.981 617.49 438.101 618.09C438.221 618.67 438.421 619.2 438.701 619.68C439.001 620.14 439.391 620.51 439.871 620.79C440.351 621.07 440.951 621.21 441.671 621.21C442.391 621.21 442.991 621.07 443.471 620.79C443.971 620.51 444.361 620.14 444.641 619.68C444.941 619.2 445.151 618.67 445.271 618.09C445.391 617.49 445.451 616.88 445.451 616.26C445.451 615.64 445.391 615.03 445.271 614.43C445.151 613.83 444.941 613.3 444.641 612.84C444.361 612.38 443.971 612.01 443.471 611.73C442.991 611.43 442.391 611.28 441.671 611.28C440.951 611.28 440.351 611.43 439.871 611.73C439.391 612.01 439.001 612.38 438.701 612.84C438.421 613.3 438.221 613.83 438.101 614.43C437.981 615.03 437.921 615.64 437.921 616.26ZM433.661 616.26C433.661 615.02 433.851 613.9 434.231 612.9C434.611 611.88 435.151 611.02 435.851 610.32C436.551 609.6 437.391 609.05 438.371 608.67C439.351 608.27 440.451 608.07 441.671 608.07C442.891 608.07 443.991 608.27 444.971 608.67C445.971 609.05 446.821 609.6 447.521 610.32C448.221 611.02 448.761 611.88 449.141 612.9C449.521 613.9 449.711 615.02 449.711 616.26C449.711 617.5 449.521 618.62 449.141 619.62C448.761 620.62 448.221 621.48 447.521 622.2C446.821 622.9 445.971 623.44 444.971 623.82C443.991 624.2 442.891 624.39 441.671 624.39C440.451 624.39 439.351 624.2 438.371 623.82C437.391 623.44 436.551 622.9 435.851 622.2C435.151 621.48 434.611 620.62 434.231 619.62C433.851 618.62 433.661 617.5 433.661 616.26ZM452.481 608.49H456.531V610.65H456.621C457.161 609.75 457.861 609.1 458.721 608.7C459.581 608.28 460.461 608.07 461.361 608.07C462.501 608.07 463.431 608.23 464.151 608.55C464.891 608.85 465.471 609.28 465.891 609.84C466.311 610.38 466.601 611.05 466.761 611.85C466.941 612.63 467.031 613.5 467.031 614.46V624H462.771V615.24C462.771 613.96 462.571 613.01 462.171 612.39C461.771 611.75 461.061 611.43 460.041 611.43C458.881 611.43 458.041 611.78 457.521 612.48C457.001 613.16 456.741 614.29 456.741 615.87V624H452.481V608.49Z" fill="#FFFEF9"/>
<path d="M43.957 671.017C43.957 668.775 45.7739 666.958 48.0152 666.958H249.899C252.14 666.958 253.957 668.775 253.957 671.017V732.9C253.957 735.142 252.14 736.958 249.899 736.958H48.0152C45.7739 736.958 43.957 735.142 43.957 732.9V671.017Z" fill="#BD0000"/>
<path d="M91.669 697.798C91.4984 696.156 90.901 694.972 89.877 694.246C88.8744 693.5 87.5837 693.126 86.005 693.126C85.365 693.126 84.7357 693.19 84.117 693.318C83.4984 693.446 82.9437 693.66 82.453 693.958C81.9837 694.257 81.5997 694.662 81.301 695.174C81.0237 695.665 80.885 696.284 80.885 697.03C80.885 697.734 81.0877 698.31 81.493 698.758C81.9197 699.185 82.4744 699.537 83.157 699.814C83.861 700.092 84.6504 700.326 85.525 700.518C86.3997 700.689 87.285 700.881 88.181 701.094C89.0984 701.308 89.9944 701.564 90.869 701.862C91.7437 702.14 92.5224 702.524 93.205 703.014C93.909 703.505 94.4637 704.124 94.869 704.87C95.2957 705.617 95.509 706.556 95.509 707.686C95.509 708.902 95.2317 709.948 94.677 710.822C94.1437 711.676 93.4504 712.38 92.597 712.934C91.7437 713.468 90.7837 713.852 89.717 714.086C88.6717 714.342 87.6264 714.47 86.581 714.47C85.301 714.47 84.085 714.31 82.933 713.99C81.8024 713.67 80.7997 713.19 79.925 712.55C79.0717 711.889 78.389 711.057 77.877 710.054C77.3864 709.03 77.141 707.825 77.141 706.438H80.021C80.021 707.398 80.2024 708.23 80.565 708.934C80.949 709.617 81.4397 710.182 82.037 710.63C82.6557 711.078 83.3704 711.409 84.181 711.622C84.9917 711.836 85.8237 711.942 86.677 711.942C87.3597 711.942 88.0424 711.878 88.725 711.75C89.429 711.622 90.0584 711.409 90.613 711.11C91.1677 710.79 91.6157 710.364 91.957 709.83C92.2984 709.297 92.469 708.614 92.469 707.782C92.469 706.993 92.2557 706.353 91.829 705.862C91.4237 705.372 90.869 704.977 90.165 704.678C89.4824 704.358 88.7037 704.102 87.829 703.91C86.9544 703.718 86.0584 703.526 85.141 703.334C84.245 703.121 83.3597 702.886 82.485 702.63C81.6104 702.353 80.821 702.001 80.117 701.574C79.4344 701.126 78.8797 700.561 78.453 699.878C78.0477 699.174 77.845 698.3 77.845 697.254C77.845 696.102 78.0797 695.11 78.549 694.278C79.0184 693.425 79.637 692.732 80.405 692.198C81.1944 691.644 82.0797 691.238 83.061 690.982C84.0637 690.705 85.0877 690.566 86.133 690.566C87.3064 690.566 88.3944 690.705 89.397 690.982C90.3997 691.26 91.2744 691.697 92.021 692.294C92.789 692.892 93.3864 693.649 93.813 694.566C94.261 695.462 94.5064 696.54 94.549 697.798H91.669ZM113.411 713.894C112.942 714.172 112.291 714.31 111.459 714.31C110.755 714.31 110.19 714.118 109.763 713.734C109.358 713.329 109.155 712.678 109.155 711.782C108.408 712.678 107.534 713.329 106.531 713.734C105.55 714.118 104.483 714.31 103.331 714.31C102.584 714.31 101.87 714.225 101.187 714.054C100.526 713.884 99.9497 713.617 99.459 713.254C98.9684 712.892 98.5737 712.422 98.275 711.846C97.9977 711.249 97.859 710.534 97.859 709.702C97.859 708.764 98.019 707.996 98.339 707.398C98.659 706.801 99.075 706.321 99.587 705.958C100.12 705.574 100.718 705.286 101.379 705.094C102.062 704.902 102.755 704.742 103.459 704.614C104.206 704.465 104.91 704.358 105.571 704.294C106.254 704.209 106.851 704.102 107.363 703.974C107.875 703.825 108.28 703.622 108.579 703.366C108.878 703.089 109.027 702.694 109.027 702.182C109.027 701.585 108.91 701.105 108.675 700.742C108.462 700.38 108.174 700.102 107.811 699.91C107.47 699.718 107.075 699.59 106.627 699.526C106.2 699.462 105.774 699.43 105.347 699.43C104.195 699.43 103.235 699.654 102.467 700.102C101.699 700.529 101.283 701.35 101.219 702.566H98.499C98.5417 701.542 98.755 700.678 99.139 699.974C99.523 699.27 100.035 698.705 100.675 698.278C101.315 697.83 102.04 697.51 102.851 697.318C103.683 697.126 104.568 697.03 105.507 697.03C106.254 697.03 106.99 697.084 107.715 697.19C108.462 697.297 109.134 697.521 109.731 697.862C110.328 698.182 110.808 698.641 111.171 699.238C111.534 699.836 111.715 700.614 111.715 701.574V710.086C111.715 710.726 111.747 711.196 111.811 711.494C111.896 711.793 112.152 711.942 112.579 711.942C112.814 711.942 113.091 711.889 113.411 711.782V713.894ZM108.995 705.414C108.654 705.67 108.206 705.862 107.651 705.99C107.096 706.097 106.51 706.193 105.891 706.278C105.294 706.342 104.686 706.428 104.067 706.534C103.448 706.62 102.894 706.769 102.403 706.982C101.912 707.196 101.507 707.505 101.187 707.91C100.888 708.294 100.739 708.828 100.739 709.51C100.739 709.958 100.824 710.342 100.995 710.662C101.187 710.961 101.422 711.206 101.699 711.398C101.998 711.59 102.339 711.729 102.723 711.814C103.107 711.9 103.512 711.942 103.939 711.942C104.835 711.942 105.603 711.825 106.243 711.59C106.883 711.334 107.406 711.025 107.811 710.662C108.216 710.278 108.515 709.873 108.707 709.446C108.899 708.998 108.995 708.582 108.995 708.198V705.414ZM123.399 713.958H120.487L114.343 697.414H117.383L122.023 711.206H122.087L126.599 697.414H129.447L123.399 713.958ZM143.431 704.102C143.388 703.462 143.239 702.854 142.983 702.278C142.748 701.702 142.417 701.212 141.991 700.806C141.585 700.38 141.095 700.049 140.519 699.814C139.964 699.558 139.345 699.43 138.663 699.43C137.959 699.43 137.319 699.558 136.743 699.814C136.188 700.049 135.708 700.38 135.303 700.806C134.897 701.233 134.577 701.734 134.343 702.31C134.108 702.865 133.969 703.462 133.927 704.102H143.431ZM146.055 708.71C145.692 710.566 144.892 711.964 143.655 712.902C142.417 713.841 140.86 714.31 138.983 714.31C137.66 714.31 136.508 714.097 135.527 713.67C134.567 713.244 133.756 712.646 133.095 711.878C132.433 711.11 131.932 710.193 131.591 709.126C131.271 708.06 131.089 706.897 131.047 705.638C131.047 704.38 131.239 703.228 131.623 702.182C132.007 701.137 132.54 700.23 133.223 699.462C133.927 698.694 134.748 698.097 135.687 697.67C136.647 697.244 137.692 697.03 138.823 697.03C140.295 697.03 141.511 697.34 142.471 697.958C143.452 698.556 144.231 699.324 144.807 700.262C145.404 701.201 145.809 702.225 146.023 703.334C146.257 704.444 146.353 705.5 146.311 706.502H133.927C133.905 707.228 133.991 707.921 134.183 708.582C134.375 709.222 134.684 709.798 135.111 710.31C135.537 710.801 136.081 711.196 136.743 711.494C137.404 711.793 138.183 711.942 139.079 711.942C140.231 711.942 141.169 711.676 141.895 711.142C142.641 710.609 143.132 709.798 143.367 708.71H146.055ZM158.452 691.11H161.684L173.716 709.638H173.78V691.11H176.66V713.958H173.332L161.396 695.622H161.332V713.958H158.452V691.11ZM183.114 705.702C183.114 706.705 183.242 707.601 183.498 708.39C183.775 709.158 184.149 709.809 184.618 710.342C185.087 710.854 185.631 711.249 186.25 711.526C186.89 711.804 187.562 711.942 188.266 711.942C188.97 711.942 189.631 711.804 190.25 711.526C190.89 711.249 191.445 710.854 191.914 710.342C192.383 709.809 192.746 709.158 193.002 708.39C193.279 707.601 193.418 706.705 193.418 705.702C193.418 704.7 193.279 703.814 193.002 703.046C192.746 702.257 192.383 701.596 191.914 701.062C191.445 700.529 190.89 700.124 190.25 699.846C189.631 699.569 188.97 699.43 188.266 699.43C187.562 699.43 186.89 699.569 186.25 699.846C185.631 700.124 185.087 700.529 184.618 701.062C184.149 701.596 183.775 702.257 183.498 703.046C183.242 703.814 183.114 704.7 183.114 705.702ZM180.234 705.702C180.234 704.486 180.405 703.356 180.746 702.31C181.087 701.244 181.599 700.326 182.282 699.558C182.965 698.769 183.807 698.15 184.81 697.702C185.813 697.254 186.965 697.03 188.266 697.03C189.589 697.03 190.741 697.254 191.722 697.702C192.725 698.15 193.567 698.769 194.25 699.558C194.933 700.326 195.445 701.244 195.786 702.31C196.127 703.356 196.298 704.486 196.298 705.702C196.298 706.918 196.127 708.049 195.786 709.094C195.445 710.14 194.933 711.057 194.25 711.846C193.567 712.614 192.725 713.222 191.722 713.67C190.741 714.097 189.589 714.31 188.266 714.31C186.965 714.31 185.813 714.097 184.81 713.67C183.807 713.222 182.965 712.614 182.282 711.846C181.599 711.057 181.087 710.14 180.746 709.094C180.405 708.049 180.234 706.918 180.234 705.702ZM215.889 713.958H213.009L209.649 700.806H209.585L206.257 713.958H203.313L198.001 697.414H201.009L204.753 710.95H204.817L208.145 697.414H211.121L214.577 710.95H214.641L218.353 697.414H221.169L215.889 713.958Z" fill="white"/>
<path d="M48.86 396.74H61.64V420.95H61.91C63.53 418.25 65.6 416.3 68.12 415.1C70.64 413.84 73.1 413.21 75.5 413.21C78.92 413.21 81.71 413.69 83.87 414.65C86.09 415.55 87.83 416.84 89.09 418.52C90.35 420.14 91.22 422.15 91.7 424.55C92.24 426.89 92.51 429.5 92.51 432.38V461H79.73V434.72C79.73 430.88 79.13 428.03 77.93 426.17C76.73 424.25 74.6 423.29 71.54 423.29C68.06 423.29 65.54 424.34 63.98 426.44C62.42 428.48 61.64 431.87 61.64 436.61V461H48.86V396.74ZM98.9696 428.78C99.1496 425.78 99.8996 423.29 101.22 421.31C102.54 419.33 104.22 417.74 106.26 416.54C108.3 415.34 110.58 414.5 113.1 414.02C115.68 413.48 118.26 413.21 120.84 413.21C123.18 413.21 125.55 413.39 127.95 413.75C130.35 414.05 132.54 414.68 134.52 415.64C136.5 416.6 138.12 417.95 139.38 419.69C140.64 421.37 141.27 423.62 141.27 426.44V450.65C141.27 452.75 141.39 454.76 141.63 456.68C141.87 458.6 142.29 460.04 142.89 461H129.93C129.69 460.28 129.48 459.56 129.3 458.84C129.18 458.06 129.09 457.28 129.03 456.5C126.99 458.6 124.59 460.07 121.83 460.91C119.07 461.75 116.25 462.17 113.37 462.17C111.15 462.17 109.08 461.9 107.16 461.36C105.24 460.82 103.56 459.98 102.12 458.84C100.68 457.7 99.5396 456.26 98.6996 454.52C97.9196 452.78 97.5296 450.71 97.5296 448.31C97.5296 445.67 97.9796 443.51 98.8796 441.83C99.8396 440.09 101.04 438.71 102.48 437.69C103.98 436.67 105.66 435.92 107.52 435.44C109.44 434.9 111.36 434.48 113.28 434.18C115.2 433.88 117.09 433.64 118.95 433.46C120.81 433.28 122.46 433.01 123.9 432.65C125.34 432.29 126.48 431.78 127.32 431.12C128.16 430.4 128.55 429.38 128.49 428.06C128.49 426.68 128.25 425.6 127.77 424.82C127.35 423.98 126.75 423.35 125.97 422.93C125.25 422.45 124.38 422.15 123.36 422.03C122.4 421.85 121.35 421.76 120.21 421.76C117.69 421.76 115.71 422.3 114.27 423.38C112.83 424.46 111.99 426.26 111.75 428.78H98.9696ZM128.49 438.23C127.95 438.71 127.26 439.1 126.42 439.4C125.64 439.64 124.77 439.85 123.81 440.03C122.91 440.21 121.95 440.36 120.93 440.48C119.91 440.6 118.89 440.75 117.87 440.93C116.91 441.11 115.95 441.35 114.99 441.65C114.09 441.95 113.28 442.37 112.56 442.91C111.9 443.39 111.36 444.02 110.94 444.8C110.52 445.58 110.31 446.57 110.31 447.77C110.31 448.91 110.52 449.87 110.94 450.65C111.36 451.43 111.93 452.06 112.65 452.54C113.37 452.96 114.21 453.26 115.17 453.44C116.13 453.62 117.12 453.71 118.14 453.71C120.66 453.71 122.61 453.29 123.99 452.45C125.37 451.61 126.39 450.62 127.05 449.48C127.71 448.28 128.1 447.08 128.22 445.88C128.4 444.68 128.49 443.72 128.49 443V438.23ZM148.849 396.74H161.629V461H148.849V396.74ZM169.352 396.74H182.132V461H169.352V396.74Z" fill="#FBF9F3"/>
<rect x="201.199" y="378" width="85.4595" height="85.4595" rx="27.6631" fill="#FBF9F3"/>
<path d="M201.199 378V422.781C207.797 405.005 226.085 391.4 244.681 391.4C265.26 391.4 278.42 408.082 274.045 428.695C270.661 444.556 257.876 458.093 242.767 463.494H286.659V378H201.199Z" fill="#BD0000"/>
<path d="M260.371 428.661C260.371 410.851 249.808 396.425 236.75 396.425C223.692 396.425 213.129 410.851 213.129 428.661C213.129 446.47 223.692 460.896 236.75 460.896C249.808 460.896 260.371 446.47 260.371 428.661Z" fill="#BD0000"/>
<path d="M358.687 461H345.547L337.267 429.77H337.087L329.167 461H315.937L301.177 414.47H314.677L323.227 446.06H323.407L331.147 414.47H343.567L351.487 445.97H351.667L360.217 414.47H373.357L358.687 461ZM407.418 432.74C406.818 429.5 405.738 427.04 404.178 425.36C402.678 423.68 400.368 422.84 397.248 422.84C395.208 422.84 393.498 423.2 392.118 423.92C390.798 424.58 389.718 425.42 388.878 426.44C388.098 427.46 387.528 428.54 387.168 429.68C386.868 430.82 386.688 431.84 386.628 432.74H407.418ZM386.628 440.84C386.808 444.98 387.858 447.98 389.778 449.84C391.698 451.7 394.458 452.63 398.058 452.63C400.638 452.63 402.858 452 404.718 450.74C406.578 449.42 407.718 448.04 408.138 446.6H419.388C417.588 452.18 414.828 456.17 411.108 458.57C407.388 460.97 402.888 462.17 397.608 462.17C393.948 462.17 390.648 461.6 387.708 460.46C384.768 459.26 382.278 457.58 380.238 455.42C378.198 453.26 376.608 450.68 375.468 447.68C374.388 444.68 373.848 441.38 373.848 437.78C373.848 434.3 374.418 431.06 375.558 428.06C376.698 425.06 378.318 422.48 380.418 420.32C382.518 418.1 385.008 416.36 387.888 415.1C390.828 413.84 394.068 413.21 397.608 413.21C401.568 413.21 405.018 413.99 407.958 415.55C410.898 417.05 413.298 419.09 415.158 421.67C417.078 424.25 418.458 427.19 419.298 430.49C420.138 433.79 420.438 437.24 420.198 440.84H386.628ZM456.397 432.74C455.797 429.5 454.717 427.04 453.157 425.36C451.657 423.68 449.347 422.84 446.227 422.84C444.187 422.84 442.477 423.2 441.097 423.92C439.777 424.58 438.697 425.42 437.857 426.44C437.077 427.46 436.507 428.54 436.147 429.68C435.847 430.82 435.667 431.84 435.607 432.74H456.397ZM435.607 440.84C435.787 444.98 436.837 447.98 438.757 449.84C440.677 451.7 443.437 452.63 447.037 452.63C449.617 452.63 451.837 452 453.697 450.74C455.557 449.42 456.697 448.04 457.117 446.6H468.367C466.567 452.18 463.807 456.17 460.087 458.57C456.367 460.97 451.867 462.17 446.587 462.17C442.927 462.17 439.627 461.6 436.687 460.46C433.747 459.26 431.257 457.58 429.217 455.42C427.177 453.26 425.587 450.68 424.447 447.68C423.367 444.68 422.827 441.38 422.827 437.78C422.827 434.3 423.397 431.06 424.537 428.06C425.677 425.06 427.297 422.48 429.397 420.32C431.497 418.1 433.987 416.36 436.867 415.1C439.807 413.84 443.047 413.21 446.587 413.21C450.547 413.21 453.997 413.99 456.937 415.55C459.877 417.05 462.277 419.09 464.137 421.67C466.057 424.25 467.437 427.19 468.277 430.49C469.117 433.79 469.417 437.24 469.177 440.84H435.607ZM474.057 414.47H486.207V420.95H486.477C488.097 418.25 490.197 416.3 492.777 415.1C495.357 413.84 497.997 413.21 500.697 413.21C504.117 413.21 506.907 413.69 509.067 414.65C511.287 415.55 513.027 416.84 514.287 418.52C515.547 420.14 516.417 422.15 516.897 424.55C517.437 426.89 517.707 429.5 517.707 432.38V461H504.927V434.72C504.927 430.88 504.327 428.03 503.127 426.17C501.927 424.25 499.797 423.29 496.737 423.29C493.257 423.29 490.737 424.34 489.177 426.44C487.617 428.48 486.837 431.87 486.837 436.61V461H474.057V414.47Z" fill="#FBF9F3"/>
<path d="M71.675 500.625C71.625 499.175 71.325 497.925 70.775 496.875C70.225 495.775 69.475 494.875 68.525 494.175C67.625 493.475 66.575 492.975 65.375 492.675C64.175 492.325 62.9 492.15 61.55 492.15C60.5 492.15 59.425 492.275 58.325 492.525C57.275 492.725 56.3 493.1 55.4 493.65C54.5 494.15 53.775 494.825 53.225 495.675C52.675 496.525 52.4 497.575 52.4 498.825C52.4 499.875 52.65 500.775 53.15 501.525C53.7 502.225 54.375 502.825 55.175 503.325C55.975 503.825 56.85 504.25 57.8 504.6C58.75 504.9 59.625 505.15 60.425 505.35L66.725 506.775C68.075 506.975 69.4 507.35 70.7 507.9C72.05 508.4 73.225 509.075 74.225 509.925C75.275 510.775 76.125 511.825 76.775 513.075C77.425 514.325 77.75 515.8 77.75 517.5C77.75 519.6 77.275 521.4 76.325 522.9C75.375 524.35 74.15 525.55 72.65 526.5C71.2 527.4 69.55 528.05 67.7 528.45C65.85 528.85 64.025 529.05 62.225 529.05C57.675 529.05 53.975 527.975 51.125 525.825C48.325 523.675 46.725 520.225 46.325 515.475H51.05C51.25 518.675 52.4 521.1 54.5 522.75C56.65 524.35 59.3 525.15 62.45 525.15C63.6 525.15 64.775 525.025 65.975 524.775C67.225 524.525 68.375 524.1 69.425 523.5C70.475 522.9 71.325 522.15 71.975 521.25C72.675 520.3 73.025 519.15 73.025 517.8C73.025 516.65 72.775 515.7 72.275 514.95C71.825 514.15 71.2 513.5 70.4 513C69.6 512.45 68.675 512 67.625 511.65C66.625 511.3 65.6 511 64.55 510.75L58.475 509.4C56.925 509 55.5 508.55 54.2 508.05C52.9 507.5 51.75 506.85 50.75 506.1C49.8 505.3 49.05 504.35 48.5 503.25C47.95 502.1 47.675 500.7 47.675 499.05C47.675 497.1 48.1 495.425 48.95 494.025C49.85 492.625 51 491.5 52.4 490.65C53.8 489.8 55.35 489.175 57.05 488.775C58.8 488.375 60.525 488.175 62.225 488.175C64.175 488.175 65.975 488.425 67.625 488.925C69.325 489.425 70.8 490.2 72.05 491.25C73.35 492.3 74.375 493.6 75.125 495.15C75.875 496.7 76.3 498.525 76.4 500.625H71.675ZM82.2834 474.45H87.0084V495.975H87.1584C88.0584 493.625 89.6584 491.75 91.9584 490.35C94.2584 488.9 96.7834 488.175 99.5334 488.175C102.233 488.175 104.483 488.525 106.283 489.225C108.133 489.925 109.608 490.925 110.708 492.225C111.808 493.475 112.583 495.025 113.033 496.875C113.483 498.725 113.708 500.8 113.708 503.1V528H108.983V503.85C108.983 502.2 108.833 500.675 108.533 499.275C108.233 497.825 107.708 496.575 106.958 495.525C106.208 494.475 105.183 493.65 103.883 493.05C102.633 492.45 101.058 492.15 99.1584 492.15C97.2584 492.15 95.5584 492.5 94.0584 493.2C92.6084 493.85 91.3584 494.775 90.3084 495.975C89.3084 497.125 88.5084 498.525 87.9084 500.175C87.3584 501.775 87.0584 503.525 87.0084 505.425V528H82.2834V474.45ZM136.742 492.15C134.492 492.15 132.517 492.625 130.817 493.575C129.117 494.525 127.692 495.775 126.542 497.325C125.442 498.875 124.592 500.65 123.992 502.65C123.442 504.6 123.167 506.6 123.167 508.65C123.167 510.7 123.442 512.725 123.992 514.725C124.592 516.675 125.442 518.425 126.542 519.975C127.692 521.525 129.117 522.775 130.817 523.725C132.517 524.675 134.492 525.15 136.742 525.15C138.992 525.15 140.967 524.675 142.667 523.725C144.367 522.775 145.767 521.525 146.867 519.975C148.017 518.425 148.867 516.675 149.417 514.725C150.017 512.725 150.317 510.7 150.317 508.65C150.317 506.6 150.017 504.6 149.417 502.65C148.867 500.65 148.017 498.875 146.867 497.325C145.767 495.775 144.367 494.525 142.667 493.575C140.967 492.625 138.992 492.15 136.742 492.15ZM136.742 488.175C139.692 488.175 142.292 488.725 144.542 489.825C146.842 490.925 148.767 492.4 150.317 494.25C151.867 496.1 153.042 498.275 153.842 500.775C154.642 503.225 155.042 505.85 155.042 508.65C155.042 511.45 154.642 514.1 153.842 516.6C153.042 519.05 151.867 521.2 150.317 523.05C148.767 524.9 146.842 526.375 144.542 527.475C142.292 528.525 139.692 529.05 136.742 529.05C133.792 529.05 131.167 528.525 128.867 527.475C126.617 526.375 124.717 524.9 123.167 523.05C121.617 521.2 120.442 519.05 119.642 516.6C118.842 514.1 118.442 511.45 118.442 508.65C118.442 505.85 118.842 503.225 119.642 500.775C120.442 498.275 121.617 496.1 123.167 494.25C124.717 492.4 126.617 490.925 128.867 489.825C131.167 488.725 133.792 488.175 136.742 488.175ZM159.816 489.3H164.166V496.65H164.316C165.416 493.95 167.191 491.875 169.641 490.425C172.141 488.925 174.966 488.175 178.116 488.175C181.066 488.175 183.616 488.725 185.766 489.825C187.966 490.925 189.791 492.425 191.241 494.325C192.691 496.175 193.766 498.35 194.466 500.85C195.166 503.3 195.516 505.9 195.516 508.65C195.516 511.4 195.166 514.025 194.466 516.525C193.766 518.975 192.691 521.15 191.241 523.05C189.791 524.9 187.966 526.375 185.766 527.475C183.616 528.525 181.066 529.05 178.116 529.05C176.716 529.05 175.316 528.875 173.916 528.525C172.516 528.175 171.216 527.65 170.016 526.95C168.816 526.25 167.741 525.375 166.791 524.325C165.891 523.275 165.191 522.05 164.691 520.65H164.541V542.25H159.816V489.3ZM190.791 508.65C190.791 506.65 190.541 504.675 190.041 502.725C189.591 500.725 188.841 498.95 187.791 497.4C186.791 495.85 185.491 494.6 183.891 493.65C182.291 492.65 180.366 492.15 178.116 492.15C175.516 492.15 173.341 492.6 171.591 493.5C169.841 494.4 168.441 495.6 167.391 497.1C166.341 498.6 165.591 500.35 165.141 502.35C164.741 504.35 164.541 506.45 164.541 508.65C164.541 510.65 164.766 512.65 165.216 514.65C165.716 516.6 166.491 518.35 167.541 519.9C168.641 521.45 170.041 522.725 171.741 523.725C173.491 524.675 175.616 525.15 178.116 525.15C180.366 525.15 182.291 524.675 183.891 523.725C185.491 522.725 186.791 521.45 187.791 519.9C188.841 518.35 189.591 516.6 190.041 514.65C190.541 512.65 190.791 510.65 190.791 508.65Z" fill="#FBF9F3"/>
<path d="M56 346.3H63.875V350.275H56V376.375C56 377.925 56.2 379.15 56.6 380.05C57.05 380.9 58.125 381.375 59.825 381.475C61.175 381.475 62.525 381.4 63.875 381.25V385.225C63.175 385.225 62.475 385.25 61.775 385.3C61.075 385.35 60.375 385.375 59.675 385.375C56.525 385.375 54.325 384.775 53.075 383.575C51.825 382.325 51.225 380.05 51.275 376.75V350.275H44.525V346.3H51.275V334.675H56V346.3ZM68.3674 331.45H73.0924V352.975H73.2424C74.1424 350.625 75.7424 348.75 78.0424 347.35C80.3424 345.9 82.8674 345.175 85.6174 345.175C88.3174 345.175 90.5674 345.525 92.3674 346.225C94.2174 346.925 95.6924 347.925 96.7924 349.225C97.8924 350.475 98.6674 352.025 99.1174 353.875C99.5674 355.725 99.7924 357.8 99.7924 360.1V385H95.0674V360.85C95.0674 359.2 94.9174 357.675 94.6174 356.275C94.3174 354.825 93.7924 353.575 93.0424 352.525C92.2924 351.475 91.2674 350.65 89.9674 350.05C88.7174 349.45 87.1424 349.15 85.2424 349.15C83.3424 349.15 81.6424 349.5 80.1424 350.2C78.6924 350.85 77.4424 351.775 76.3924 352.975C75.3924 354.125 74.5924 355.525 73.9924 357.175C73.4424 358.775 73.1424 360.525 73.0924 362.425V385H68.3674V331.45ZM134.301 362.95C134.251 361.15 133.926 359.425 133.326 357.775C132.776 356.125 131.976 354.675 130.926 353.425C129.876 352.125 128.601 351.1 127.101 350.35C125.601 349.55 123.901 349.15 122.001 349.15C120.051 349.15 118.326 349.55 116.826 350.35C115.326 351.1 114.051 352.125 113.001 353.425C111.951 354.675 111.101 356.15 110.451 357.85C109.851 359.5 109.451 361.2 109.251 362.95H134.301ZM109.251 366.925C109.251 368.625 109.476 370.4 109.926 372.25C110.426 374.05 111.201 375.675 112.251 377.125C113.301 378.575 114.626 379.775 116.226 380.725C117.826 381.675 119.751 382.15 122.001 382.15C125.451 382.15 128.151 381.25 130.101 379.45C132.051 377.65 133.401 375.25 134.151 372.25H138.876C137.876 376.65 136.026 380.05 133.326 382.45C130.676 384.85 126.901 386.05 122.001 386.05C118.951 386.05 116.301 385.525 114.051 384.475C111.851 383.375 110.051 381.9 108.651 380.05C107.251 378.15 106.201 375.975 105.501 373.525C104.851 371.025 104.526 368.4 104.526 365.65C104.526 363.1 104.851 360.6 105.501 358.15C106.201 355.7 107.251 353.525 108.651 351.625C110.051 349.675 111.851 348.125 114.051 346.975C116.301 345.775 118.951 345.175 122.001 345.175C125.101 345.175 127.751 345.8 129.951 347.05C132.151 348.3 133.926 349.95 135.276 352C136.676 354 137.676 356.325 138.276 358.975C138.876 361.575 139.126 364.225 139.026 366.925H109.251Z" fill="#FBF9F3"/>
</svg>
