<svg width="45" height="42" viewBox="0 0 45 42" fill="none" xmlns="http://www.w3.org/2000/svg">
<path d="M2.5702 31.71L4.0222 27.714H4.0462L5.4742 31.71H2.5702ZM3.4222 26.682L0.0862031 35.25H1.2502L2.2102 32.67H5.8342L6.7702 35.25H8.0302L4.6822 26.682H3.4222ZM12.9195 31.038H13.9755C13.9355 30.67 13.8395 30.354 13.6875 30.09C13.5355 29.818 13.3395 29.594 13.0995 29.418C12.8675 29.242 12.5955 29.114 12.2835 29.034C11.9795 28.946 11.6515 28.902 11.2995 28.902C10.8115 28.902 10.3835 28.99 10.0155 29.166C9.64745 29.334 9.33945 29.57 9.09145 29.874C8.85145 30.17 8.67145 30.522 8.55145 30.93C8.43145 31.33 8.37145 31.762 8.37145 32.226C8.37145 32.69 8.43145 33.118 8.55145 33.51C8.67945 33.894 8.86345 34.226 9.10345 34.506C9.35145 34.786 9.65545 35.002 10.0155 35.154C10.3835 35.306 10.8035 35.382 11.2755 35.382C12.0675 35.382 12.6915 35.174 13.1475 34.758C13.6115 34.342 13.8995 33.75 14.0115 32.982H12.9675C12.9035 33.462 12.7275 33.834 12.4395 34.098C12.1595 34.362 11.7675 34.494 11.2635 34.494C10.9435 34.494 10.6675 34.43 10.4355 34.302C10.2035 34.174 10.0155 34.006 9.87145 33.798C9.72745 33.582 9.61945 33.338 9.54745 33.066C9.48345 32.794 9.45145 32.514 9.45145 32.226C9.45145 31.914 9.48345 31.614 9.54745 31.326C9.61145 31.03 9.71545 30.77 9.85945 30.546C10.0115 30.322 10.2115 30.142 10.4595 30.006C10.7075 29.87 11.0155 29.802 11.3835 29.802C11.8155 29.802 12.1595 29.91 12.4155 30.126C12.6715 30.342 12.8395 30.646 12.9195 31.038ZM19.3648 31.038H20.4208C20.3808 30.67 20.2848 30.354 20.1328 30.09C19.9808 29.818 19.7848 29.594 19.5448 29.418C19.3128 29.242 19.0408 29.114 18.7288 29.034C18.4248 28.946 18.0968 28.902 17.7448 28.902C17.2568 28.902 16.8288 28.99 16.4608 29.166C16.0928 29.334 15.7848 29.57 15.5368 29.874C15.2968 30.17 15.1168 30.522 14.9968 30.93C14.8768 31.33 14.8168 31.762 14.8168 32.226C14.8168 32.69 14.8768 33.118 14.9968 33.51C15.1248 33.894 15.3088 34.226 15.5488 34.506C15.7968 34.786 16.1008 35.002 16.4608 35.154C16.8288 35.306 17.2488 35.382 17.7208 35.382C18.5128 35.382 19.1368 35.174 19.5928 34.758C20.0568 34.342 20.3448 33.75 20.4568 32.982H19.4128C19.3488 33.462 19.1728 33.834 18.8848 34.098C18.6048 34.362 18.2128 34.494 17.7088 34.494C17.3888 34.494 17.1128 34.43 16.8808 34.302C16.6488 34.174 16.4608 34.006 16.3168 33.798C16.1728 33.582 16.0648 33.338 15.9928 33.066C15.9288 32.794 15.8968 32.514 15.8968 32.226C15.8968 31.914 15.9288 31.614 15.9928 31.326C16.0568 31.03 16.1608 30.77 16.3048 30.546C16.4568 30.322 16.6568 30.142 16.9048 30.006C17.1528 29.87 17.4608 29.802 17.8288 29.802C18.2608 29.802 18.6048 29.91 18.8608 30.126C19.1168 30.342 19.2848 30.646 19.3648 31.038ZM22.3421 32.154C22.3421 31.778 22.3901 31.446 22.4861 31.158C22.5901 30.862 22.7301 30.614 22.9061 30.414C23.0821 30.214 23.2861 30.062 23.5181 29.958C23.7581 29.854 24.0101 29.802 24.2741 29.802C24.5381 29.802 24.7861 29.854 25.0181 29.958C25.2581 30.062 25.4661 30.214 25.6421 30.414C25.8181 30.614 25.9541 30.862 26.0501 31.158C26.1541 31.446 26.2061 31.778 26.2061 32.154C26.2061 32.53 26.1541 32.866 26.0501 33.162C25.9541 33.45 25.8181 33.694 25.6421 33.894C25.4661 34.086 25.2581 34.234 25.0181 34.338C24.7861 34.442 24.5381 34.494 24.2741 34.494C24.0101 34.494 23.7581 34.442 23.5181 34.338C23.2861 34.234 23.0821 34.086 22.9061 33.894C22.7301 33.694 22.5901 33.45 22.4861 33.162C22.3901 32.866 22.3421 32.53 22.3421 32.154ZM21.2621 32.154C21.2621 32.61 21.3261 33.034 21.4541 33.426C21.5821 33.818 21.7741 34.162 22.0301 34.458C22.2861 34.746 22.6021 34.974 22.9781 35.142C23.3541 35.302 23.7861 35.382 24.2741 35.382C24.7701 35.382 25.2021 35.302 25.5701 35.142C25.9461 34.974 26.2621 34.746 26.5181 34.458C26.7741 34.162 26.9661 33.818 27.0941 33.426C27.2221 33.034 27.2861 32.61 27.2861 32.154C27.2861 31.698 27.2221 31.274 27.0941 30.882C26.9661 30.482 26.7741 30.138 26.5181 29.85C26.2621 29.554 25.9461 29.322 25.5701 29.154C25.2021 28.986 24.7701 28.902 24.2741 28.902C23.7861 28.902 23.3541 28.986 22.9781 29.154C22.6021 29.322 22.2861 29.554 22.0301 29.85C21.7741 30.138 21.5821 30.482 21.4541 30.882C21.3261 31.274 21.2621 31.698 21.2621 32.154ZM33.6247 35.25V29.046H32.6047V32.55C32.6047 32.83 32.5647 33.09 32.4847 33.33C32.4127 33.562 32.3007 33.766 32.1487 33.942C31.9967 34.118 31.8047 34.254 31.5727 34.35C31.3487 34.446 31.0807 34.494 30.7687 34.494C30.3767 34.494 30.0687 34.382 29.8447 34.158C29.6207 33.934 29.5087 33.63 29.5087 33.246V29.046H28.4887V33.126C28.4887 33.462 28.5207 33.77 28.5847 34.05C28.6567 34.322 28.7767 34.558 28.9447 34.758C29.1127 34.958 29.3327 35.114 29.6047 35.226C29.8767 35.33 30.2167 35.382 30.6247 35.382C31.0807 35.382 31.4767 35.294 31.8127 35.118C32.1487 34.934 32.4247 34.65 32.6407 34.266H32.6647V35.25H33.6247ZM35.1567 29.046V35.25H36.1767V31.746C36.1767 31.466 36.2127 31.21 36.2847 30.978C36.3647 30.738 36.4807 30.53 36.6327 30.354C36.7847 30.178 36.9727 30.042 37.1967 29.946C37.4287 29.85 37.7007 29.802 38.0127 29.802C38.4047 29.802 38.7127 29.914 38.9367 30.138C39.1607 30.362 39.2727 30.666 39.2727 31.05V35.25H40.2927V31.17C40.2927 30.834 40.2567 30.53 40.1847 30.258C40.1207 29.978 40.0047 29.738 39.8367 29.538C39.6687 29.338 39.4487 29.182 39.1767 29.07C38.9047 28.958 38.5647 28.902 38.1567 28.902C37.2367 28.902 36.5647 29.278 36.1407 30.03H36.1167V29.046H35.1567ZM43.2406 29.046V27.186H42.2206V29.046H41.1646V29.946H42.2206V33.894C42.2206 34.182 42.2486 34.414 42.3046 34.59C42.3606 34.766 42.4446 34.902 42.5566 34.998C42.6766 35.094 42.8286 35.162 43.0126 35.202C43.2046 35.234 43.4326 35.25 43.6966 35.25H44.4766V34.35H44.0086C43.8486 34.35 43.7166 34.346 43.6126 34.338C43.5166 34.322 43.4406 34.294 43.3846 34.254C43.3286 34.214 43.2886 34.158 43.2646 34.086C43.2486 34.014 43.2406 33.918 43.2406 33.798V29.946H44.4766V29.046H43.2406Z" fill="#2F3337"/>
<g clip-path="url(#clip0_1358_10281)">
<path d="M11.9167 21.3334C11.9167 16.2707 16.0207 12.1667 21.0834 12.1667H22.9167C27.9795 12.1667 32.0834 16.2707 32.0834 21.3334" stroke="#2F3337" stroke-width="2" stroke-miterlimit="10" stroke-linecap="round" stroke-linejoin="round"/>
<path d="M22 12.1667C25.0376 12.1667 27.5 9.70431 27.5 6.66675C27.5 3.62918 25.0376 1.16675 22 1.16675C18.9624 1.16675 16.5 3.62918 16.5 6.66675C16.5 9.70431 18.9624 12.1667 22 12.1667Z" stroke="#2F3337" stroke-width="2" stroke-miterlimit="10" stroke-linecap="round" stroke-linejoin="round"/>
</g>
<defs>
<clipPath id="clip0_1358_10281">
<rect width="22" height="22" fill="white" transform="translate(11 0.25)"/>
</clipPath>
</defs>
</svg>
