<svg xmlns="http://www.w3.org/2000/svg" xml:space="preserve" viewBox="0 0 576.539 507.943">
  <path
    d="M31.39 494.183h512.191a18.524 18.524 0 0 0 16.043-9.265 18.514 18.514 0 0 0 0-18.524L303.529 22.822a18.526 18.526 0 0 0-32.086 0L15.346 466.394a18.527 18.527 0 0 0 16.044 27.789z" />
  <path fill="#FF0" d="m287.485 69.346 223.827 387.679H63.658z" />
  <circle cx="287.485" cy="399.078" r="25.644"/>
  <path
    d="m303.068 344.582 18.396-167.807a34.366 34.366 0 0 0-17.297-33.69 34.37 34.37 0 0 0-50.164 38.455l19.122 166.535a15.074 15.074 0 1 0 29.943-3.493" />
</svg>
