<svg width="43" height="27" viewBox="0 0 43 27" fill="none" xmlns="http://www.w3.org/2000/svg">
<rect x="0.837891" y="0.729492" width="41" height="25" rx="1.5" fill="white" stroke="#DADCDF"/>
<path fill-rule="evenodd" clip-rule="evenodd" d="M12 4H30.9588V22.96H12V4Z" fill="#016FD0"/>
<path fill-rule="evenodd" clip-rule="evenodd" d="M18.8682 19.96V13.166L30.9593 13.1771V15.0538L29.5617 16.547L30.9593 18.0545V19.9707H28.7281L27.5424 18.6623L26.3649 19.976L18.8682 19.96Z" fill="white"/>
<path fill-rule="evenodd" clip-rule="evenodd" d="M19.6738 19.2147V13.9136H24.1688V15.1348H21.1295V15.9638H24.0964V17.1649H21.1295V17.9791H24.1688V19.2147H19.6738Z" fill="#016FD0"/>
<path fill-rule="evenodd" clip-rule="evenodd" d="M24.1465 19.215L26.6332 16.5616L24.1465 13.9143H26.0712L27.591 15.5943L29.1149 13.9143H30.9573V13.9559L28.5233 16.5616L30.9573 19.1402V19.215H29.0964L27.5498 17.5182L26.0189 19.215H24.1465Z" fill="#016FD0"/>
<path fill-rule="evenodd" clip-rule="evenodd" d="M19.4307 7.13574H22.3453L23.3689 9.46048V7.13574H26.9673L27.5877 8.87744L28.2102 7.13574H30.9578V13.9293H16.4375L19.4307 7.13574Z" fill="white"/>
<path fill-rule="evenodd" clip-rule="evenodd" d="M19.983 7.87402L17.6309 13.1706H19.2441L19.6876 12.1099H22.0921L22.5356 13.1706H24.1887L21.8464 7.87402H19.983ZM20.1851 10.9212L20.8903 9.2351L21.595 10.9212H20.1851Z" fill="#016FD0"/>
<path fill-rule="evenodd" clip-rule="evenodd" d="M24.168 13.1698V7.87329L26.4354 7.88111L27.6022 11.1373L28.7769 7.87329H30.9592V13.1698L29.5549 13.1822V9.54377L28.2293 13.1698H26.9472L25.594 9.53142V13.1698H24.168Z" fill="#016FD0"/>
</svg>
