<svg width="57" height="21" viewBox="0 0 57 21" fill="none" xmlns="http://www.w3.org/2000/svg">
<path fill-rule="evenodd" clip-rule="evenodd" d="M27.632 8.95085L28.7859 6.17624H32.408L33.5707 8.95085H34.3147L30.6013 0.38028L26.8879 8.95085H27.632ZM30.6048 1.87742L32.1564 5.56455H29.0624L30.6048 1.87742Z" fill="#2F3337"/>
<path fill-rule="evenodd" clip-rule="evenodd" d="M4.26634 4.46969C4.18604 4.4473 4.10511 4.42776 4.02363 4.41101C4.14909 4.38127 4.26903 4.34454 4.38346 4.30071C4.74516 4.16553 5.02763 3.95937 5.23087 3.68901C5.43411 3.41865 5.53744 3.08407 5.53744 2.6819C5.53744 2.24256 5.43755 1.87418 5.23776 1.58016C5.03797 1.28615 4.7555 1.0631 4.39036 0.914402C4.02521 0.765694 3.59118 0.691334 3.0848 0.691334H1.25909V8.94425H3.20537C3.74964 8.94425 4.2319 8.85637 4.65215 8.68402C5.07241 8.51165 5.4031 8.24805 5.64424 7.89319C5.88536 7.53834 6.00593 7.08886 6.00593 6.54813C6.00593 6.17299 5.9267 5.84518 5.77168 5.56469C5.61667 5.28756 5.40999 5.05773 5.14819 4.87524C4.88984 4.69612 4.5936 4.56093 4.26634 4.46969ZM1.92392 8.36972V4.71302H3.20881C3.49471 4.71302 3.76685 4.75357 4.01832 4.8313C4.26978 4.90903 4.49714 5.02733 4.69693 5.17941C4.89672 5.33149 5.05175 5.52073 5.16543 5.74379C5.27909 5.97022 5.33422 6.22706 5.33422 6.5177C5.33422 6.92663 5.24466 7.26798 5.06897 7.53834C4.89329 7.80871 4.64527 8.01487 4.3249 8.1568C4.00455 8.29874 3.63251 8.36972 3.20881 8.36972H1.92392ZM3.08825 4.13849H1.92392V1.27263H3.08825C3.63596 1.27263 4.06999 1.40106 4.39379 1.65453C4.71761 1.91137 4.8795 2.26622 4.8795 2.72245C4.8795 3.04689 4.79683 3.3105 4.63838 3.52003C4.47992 3.72956 4.2629 3.88502 3.99076 3.98641C3.71864 4.0878 3.4155 4.13849 3.08825 4.13849Z" fill="#2F3337"/>
<path d="M45.4549 10.9896V20.662L39.1648 15.5182V20.2023H36.6708V10.53L42.9609 15.6737V10.9896H45.4549Z" fill="#2F3337"/>
<path fill-rule="evenodd" clip-rule="evenodd" d="M26.9574 12.0885C26.4924 12.5143 26.1307 13.0246 25.8654 13.6161H25.8585C25.5933 14.2075 25.4624 14.8766 25.4624 15.5965C25.4624 16.3163 25.5864 16.9787 25.8379 17.5837C26.0893 18.1886 26.4441 18.7124 26.9057 19.1552C27.3673 19.5979 27.9082 19.9426 28.5351 20.1825C29.162 20.4225 29.8475 20.5442 30.6019 20.5442C31.3563 20.5442 32.0453 20.4259 32.6757 20.1825C33.3061 19.9392 33.8503 19.5979 34.305 19.1552C34.7632 18.7124 35.1145 18.1886 35.366 17.5837C35.6175 16.9787 35.7415 16.3231 35.7415 15.5965C35.7415 14.8699 35.614 14.2075 35.3591 13.6161C35.1042 13.0213 34.746 12.5143 34.2809 12.0885C33.8159 11.6627 33.2716 11.3348 32.6515 11.1017C32.0281 10.8685 31.3288 10.7535 30.6054 10.7535C29.882 10.7535 29.2068 10.8685 28.5868 11.1017C27.9667 11.3348 27.4225 11.6627 26.9574 12.0885ZM29.3446 17.7999C28.9898 17.5836 28.7108 17.2863 28.5144 16.9044H28.511C28.3146 16.5259 28.2147 16.0966 28.2147 15.5965C28.2147 15.0963 28.3146 14.6603 28.511 14.2818C28.7073 13.9033 28.9829 13.6093 29.3412 13.393C29.6994 13.1801 30.1197 13.0719 30.6019 13.0719C31.1118 13.0719 31.5423 13.1767 31.8972 13.393C32.252 13.6093 32.5207 13.9033 32.7101 14.2818C32.8996 14.657 32.9926 15.1064 32.9926 15.5965C32.9926 16.0865 32.8927 16.5225 32.6963 16.9044C32.5 17.2863 32.2244 17.5836 31.8731 17.7999C31.5182 18.0129 31.0876 18.121 30.6054 18.121C30.1231 18.121 29.7029 18.0162 29.3446 17.7999Z" fill="#2F3337"/>
<path fill-rule="evenodd" clip-rule="evenodd" d="M7.13735 15.2773C7.37057 15.3625 7.59055 15.4658 7.79727 15.5863C8.16241 15.8026 8.4552 16.0763 8.67566 16.4143C8.89613 16.7522 9.00292 17.1578 9.00292 17.6309C9.00292 18.246 8.85135 18.7394 8.54822 19.118C8.24508 19.4965 7.81105 19.7702 7.24611 19.9392C6.68117 20.1115 6.006 20.196 5.2206 20.196H1.21094V10.9833H4.97948C5.6512 10.9833 6.24713 11.0712 6.77073 11.2469C7.29434 11.4227 7.7077 11.6829 8.01084 12.031C8.31398 12.3791 8.46554 12.8151 8.46554 13.3389C8.46554 13.8627 8.31398 14.2683 8.01084 14.6231C7.78231 14.8906 7.49115 15.1082 7.13735 15.2773ZM3.8186 16.3568V18.2562H4.9037C5.16205 18.2562 5.39629 18.2291 5.60642 18.1784C5.81655 18.1244 5.98534 18.0264 6.10935 17.881C6.23336 17.7357 6.2988 17.5295 6.2988 17.2558C6.2988 17.0801 6.26435 16.9348 6.19202 16.8198C6.11968 16.7049 6.01978 16.6137 5.88888 16.5427C5.75799 16.4718 5.60987 16.4244 5.44452 16.3974C5.27917 16.3704 5.0966 16.3568 4.90024 16.3568H3.8186ZM4.66601 14.6366H3.8186V12.9401H4.66256C5.02081 12.9401 5.29294 13.0043 5.4824 13.1361C5.67186 13.2679 5.76488 13.4741 5.76488 13.7546C5.76488 13.9371 5.72354 14.0959 5.63742 14.2277C5.5513 14.3595 5.43074 14.4609 5.26883 14.5319C5.11037 14.6028 4.90713 14.6366 4.66601 14.6366Z" fill="#2F3337"/>
<path d="M12.5681 14.4131V13.0545H16.5778V10.9896H10.0741V20.2023H12.5681V20.1989H16.5778V18.134H12.5681V16.4138H16.3091V14.4131H12.5681Z" fill="#2F3337"/>
<path d="M26.2197 10.9896L22.892 16.5152V20.1989H20.2362V16.5422L16.8948 10.9896H19.8986L21.5624 14.2137L23.2124 10.9896H26.2197Z" fill="#2F3337"/>
<path fill-rule="evenodd" clip-rule="evenodd" d="M49.6134 10.9963V10.9896H46.9161V20.2023H48.6867V20.209H50.4298C51.4942 20.209 52.407 20.0198 53.1718 19.648C53.9365 19.2763 54.5255 18.7457 54.9424 18.0562C55.3592 17.3668 55.5659 16.5591 55.5659 15.6027C55.5659 14.6463 55.3592 13.825 54.9424 13.1424C54.5255 12.4597 53.9365 11.9291 53.1718 11.5573C52.407 11.1822 51.4942 10.9963 50.4298 10.9963H49.6134ZM49.6134 13.2336V17.965H50.323C50.6364 17.965 50.943 17.9312 51.2427 17.867C51.5424 17.7994 51.8111 17.6845 52.0557 17.5121C52.2968 17.3398 52.4932 17.0998 52.6378 16.7889C52.786 16.478 52.8583 16.0792 52.8583 15.5993C52.8583 15.1194 52.786 14.7206 52.6378 14.4097C52.4897 14.0988 52.2968 13.8554 52.0557 13.6865C51.8145 13.5141 51.5424 13.3958 51.2427 13.3316C50.943 13.2674 50.6364 13.2336 50.323 13.2336H49.6134Z" fill="#2F3337"/>
<path d="M7.60794 4.11458V1.30616H11.4695V0.694463H6.94654V8.94736H11.4695V8.33566H7.60794V4.72629H11.2283V4.11458H7.60794Z" fill="#2F3337"/>
<path fill-rule="evenodd" clip-rule="evenodd" d="M13.3053 8.94761V8.94425H14.9278C15.7442 8.94425 16.4642 8.7685 17.0842 8.42379C17.7043 8.07907 18.19 7.59579 18.5379 6.98071C18.8858 6.36562 19.0615 5.64241 19.0615 4.8178C19.0615 3.99318 18.8858 3.27332 18.5379 2.65486C18.19 2.03978 17.7043 1.55652 17.0842 1.2118C16.4642 0.863705 15.7442 0.691334 14.9278 0.691334H13.0057V0.694716H12.644V8.94761H13.3053ZM13.3053 8.29874V1.34022H14.9278C15.448 1.34022 15.9234 1.42133 16.3505 1.58693C16.7776 1.75253 17.1462 1.9891 17.4494 2.28988C17.7525 2.59405 17.9867 2.95904 18.1521 3.38824C18.3174 3.81745 18.4001 4.29397 18.4001 4.82118C18.4001 5.34838 18.3174 5.8249 18.1521 6.25411C17.9867 6.67993 17.7525 7.0483 17.4494 7.34909C17.1462 7.65325 16.7776 7.88644 16.3505 8.05203C15.9234 8.21764 15.448 8.29874 14.9278 8.29874H13.3053Z" fill="#2F3337"/>
<path fill-rule="evenodd" clip-rule="evenodd" d="M25.0436 4.41101C25.1251 4.42776 25.206 4.4473 25.2863 4.46969C25.6136 4.56093 25.9098 4.69612 26.1682 4.87524C26.43 5.05773 26.6366 5.28756 26.7917 5.56469C26.9467 5.84518 27.0259 6.17299 27.0259 6.54813C27.0259 7.08886 26.9053 7.53834 26.6642 7.89319C26.4231 8.24805 26.0924 8.51165 25.6721 8.68402C25.2519 8.85637 24.7696 8.94425 24.2253 8.94425H22.2791V0.691334H24.1048C24.6111 0.691334 25.0452 0.765694 25.4103 0.914402C25.7755 1.0631 26.0579 1.28615 26.2577 1.58016C26.4575 1.87418 26.5574 2.24256 26.5574 2.6819C26.5574 3.08407 26.4541 3.41865 26.2508 3.68901C26.0476 3.95937 25.7651 4.16553 25.4034 4.30071C25.289 4.34454 25.1691 4.38127 25.0436 4.41101ZM22.9439 4.71302V8.36972H24.2288C24.6525 8.36972 25.0245 8.29874 25.3449 8.1568C25.6652 8.01487 25.9132 7.80871 26.0889 7.53834C26.2646 7.26798 26.3542 6.92663 26.3542 6.5177C26.3542 6.22706 26.2991 5.97022 26.1854 5.74379C26.0717 5.52073 25.9167 5.33149 25.7169 5.17941C25.5171 5.02733 25.2897 4.90903 25.0383 4.8313C24.7868 4.75357 24.5147 4.71302 24.2288 4.71302H22.9439ZM22.9439 4.13849H24.1082C24.4355 4.13849 24.7386 4.0878 25.0107 3.98641C25.2829 3.88502 25.4999 3.72956 25.6583 3.52003C25.8168 3.3105 25.8995 3.04689 25.8995 2.72245C25.8995 2.26622 25.7376 1.91137 25.4138 1.65453C25.09 1.40106 24.6559 1.27263 24.1082 1.27263H22.9439V4.13849Z" fill="#2F3337"/>
<path d="M38.1111 0.694463H33.0266V1.30616H35.2382V8.94736H35.8995V1.30616H38.1111V0.694463Z" fill="#2F3337"/>
<path d="M39.2273 0.694463V4.14839H44.143V0.694463H44.8147V8.94736H44.143V4.7601H39.2273V8.94736H38.5659V0.694463H39.2273Z" fill="#2F3337"/>
<path fill-rule="evenodd" clip-rule="evenodd" d="M49.0996 3.08746C49.2237 3.32402 49.3718 3.53356 49.544 3.71942L49.5475 3.71604C49.7197 3.89855 49.8713 4.06752 49.9988 4.21621L50.0902 4.3184C50.0581 4.33373 50.0253 4.34926 49.9918 4.36492C49.7679 4.47307 49.5371 4.59474 49.3063 4.73669C49.0721 4.87862 48.8585 5.0476 48.6622 5.24362C48.4658 5.43963 48.3039 5.66605 48.1799 5.92627C48.0559 6.1865 47.9939 6.49066 47.9939 6.83538C47.9939 7.29838 48.1145 7.69718 48.3591 8.03175C48.6036 8.36634 48.924 8.62317 49.3201 8.7989C49.7197 8.97803 50.1434 9.0659 50.6016 9.0659C51.139 9.0659 51.6247 8.96114 52.0552 8.74823C52.4858 8.53531 52.8854 8.25479 53.2506 7.91008C53.2602 7.90104 53.2697 7.89197 53.2793 7.88287L54.2289 8.94424H54.9729L53.6734 7.48171C53.8827 7.2548 54.0836 7.01408 54.2771 6.76104C54.5975 6.34197 54.9178 5.92629 55.2382 5.51736L54.7456 5.22334C54.4562 5.62551 54.16 6.01753 53.8568 6.4028C53.6737 6.63498 53.4868 6.85267 53.2963 7.05735L50.9822 4.45296C50.9862 4.45065 50.9902 4.44834 50.9943 4.44602C51.2733 4.28381 51.5213 4.11822 51.7383 3.95262C51.9553 3.78702 52.1379 3.61466 52.286 3.43892C52.4342 3.2598 52.5478 3.08069 52.6271 2.89481C52.7063 2.71232 52.7476 2.51968 52.7476 2.32367C52.7476 2.02626 52.6753 1.74238 52.5306 1.47539C52.3859 1.2084 52.1758 0.988729 51.9002 0.819751C51.6247 0.650772 51.2767 0.566289 50.8737 0.566289C50.4707 0.566289 50.1262 0.640648 49.8334 0.789346C49.5406 0.938054 49.3132 1.14083 49.1548 1.40106C48.9929 1.66128 48.9137 1.95866 48.9137 2.29662C48.9137 2.58726 48.9756 2.85088 49.0996 3.08746ZM50.4655 4.73791C50.4012 4.77199 50.3352 4.80651 50.2674 4.84145C49.9988 4.98001 49.7438 5.13547 49.4993 5.30783C49.2547 5.48018 49.0514 5.68633 48.893 5.92627C48.7311 6.16622 48.6519 6.46025 48.6519 6.80497C48.6519 7.14969 48.7414 7.464 48.9171 7.71746C49.0928 7.9743 49.3305 8.16693 49.6336 8.30211C49.9367 8.43731 50.2674 8.5015 50.636 8.5015C51.0701 8.5015 51.4731 8.40688 51.8486 8.21425C52.2218 8.02273 52.5747 7.77111 52.9003 7.45935L50.4655 4.73791ZM50.6212 4.04666C51.0775 3.78226 51.4354 3.50557 51.7039 3.22262C51.9829 2.9286 52.1172 2.62782 52.1172 2.32028C52.1172 2.10737 52.0725 1.91136 51.9795 1.73224C51.8864 1.54974 51.7521 1.40443 51.5695 1.28952C51.387 1.17462 51.1596 1.11716 50.8771 1.11716C50.4534 1.11716 50.1262 1.22868 49.9023 1.45173C49.6784 1.67479 49.5647 1.95866 49.5647 2.29324C49.5647 2.62781 49.6611 2.90158 49.8575 3.14829C50.0539 3.39498 50.2605 3.64169 50.4776 3.88502L50.6212 4.04666Z" fill="#2F3337"/>
</svg>
