<svg width="32" height="32" viewBox="0 0 32 32" fill="none" xmlns="http://www.w3.org/2000/svg">
<path fill-rule="evenodd" clip-rule="evenodd" d="M4 4C4 3.44772 4.44772 3 5 3H27C27.5523 3 28 3.44772 28 4V13H26V5H6V13H4V4ZM11 12C11 11.4477 11.4477 11 12 11H20C20.5523 11 21 11.4477 21 12C21 12.5523 20.5523 13 20 13H12C11.4477 13 11 12.5523 11 12ZM4 20.75V24H28V20.75H4ZM28 19.25H4V17C4 16.4477 4.44772 16 5 16H27C27.5523 16 28 16.4477 28 17V19.25ZM28 26V28C28 28.5523 28.4477 29 29 29C29.5523 29 30 28.5523 30 28L30 25L30 17C30 15.3431 28.6569 14 27 14H5C3.34315 14 2 15.3431 2 17V25V28C2 28.5523 2.44772 29 3 29C3.55228 29 4 28.5523 4 28V26H28Z" fill="#252525"/>
</svg>
