<svg width="16" height="17" viewBox="0 0 16 17" fill="none" xmlns="http://www.w3.org/2000/svg">
  <path d="M8 13V11.5" stroke="#2F3337" stroke-width="2" stroke-linecap="round" stroke-linejoin="round" />
  <path
    d="M6 13.5H10C10.5304 13.5 11.0391 13.7107 11.4142 14.0858C11.7893 14.4609 12 14.9696 12 15.5H4C4 14.9696 4.21071 14.4609 4.58579 14.0858C4.96086 13.7107 5.46957 13.5 6 13.5Z"
    stroke="#2F3337" stroke-width="1.5" stroke-linecap="round" stroke-linejoin="round" />
  <path d="M12 1.5H15V5C15 5.79565 14.6839 6.55871 14.1213 7.12132C13.5587 7.68393 12.7956 8 12 8" stroke="#2F3337"
    stroke-width="1.5" stroke-linecap="round" stroke-linejoin="round" />
  <path d="M4 1.5H1V5C1 5.79565 1.31607 6.55871 1.87868 7.12132C2.44129 7.68393 3.20435 8 4 8" stroke="#2F3337"
    stroke-width="1.5" stroke-linecap="round" stroke-linejoin="round" />
  <path
    d="M4 1.5H12V7C12 8.06087 11.5786 9.07828 10.8284 9.82843C10.0783 10.5786 9.06087 11 8 11C6.93913 11 5.92172 10.5786 5.17157 9.82843C4.42143 9.07828 4 8.06087 4 7V1.5Z"
    stroke="#2F3337" stroke-width="1.5" stroke-linecap="round" stroke-linejoin="round" />
</svg>
