<svg width="91" height="21" viewBox="0 0 91 21" fill="none" xmlns="http://www.w3.org/2000/svg">
<path fill-rule="evenodd" clip-rule="evenodd" d="M21.0084 0.0422363H0.363159V20.6875H21.0084V0.0422363ZM3.53636 12.7758L5.13979 11.1723V15.9826H9.95011L8.34667 17.5861H3.53636V12.7758ZM11.5536 15.9826H16.3639V11.1723L17.9673 12.7758V17.5861H13.157L11.5536 15.9826ZM11.5536 4.75855L13.157 3.15511H17.9673V7.96543L16.3639 9.56887V4.75855H11.5536ZM9.95011 4.75855H5.13979V9.56887L3.53636 7.96543V3.15511H8.34667L9.95011 4.75855ZM7.97876 10.0027L6.67826 8.70217C7.12488 7.61308 7.99432 6.74363 9.08342 6.29701L10.3839 7.59752C9.13284 7.76226 8.1435 8.75159 7.97876 10.0027ZM13.5249 10.7385L14.8254 12.039C14.3788 13.1281 13.5093 13.9975 12.4203 14.4442L11.1197 13.1437C12.3708 12.9789 13.3602 11.9896 13.5249 10.7385ZM6.67734 12.0399L7.97785 10.7394C8.14258 11.9905 9.13192 12.9798 10.383 13.1446L9.0825 14.4451C7.9934 13.9985 7.12396 13.129 6.67734 12.0399ZM12.4203 6.29701C13.5093 6.74363 14.3788 7.61308 14.8254 8.70217L13.5249 10.0027C13.3602 8.75159 12.3708 7.76226 11.1197 7.59752L12.4203 6.29701Z" fill="#252525"/>
<path d="M76.1544 4.82664H78.7601V16.5763L71.023 9.71836V16.0168H68.4332V4.26715L76.1544 11.1251V4.82664Z" fill="#252525"/>
<path fill-rule="evenodd" clip-rule="evenodd" d="M80.6456 4.82671H84.642C85.8676 4.82671 86.928 5.05583 87.8232 5.5141C88.7185 5.97236 89.4112 6.61714 89.9014 7.44841C90.3917 8.27967 90.6368 9.2708 90.6368 10.4218C90.6368 11.5621 90.3917 12.5533 89.9014 13.3952C89.4112 14.2264 88.7185 14.8712 87.8232 15.3295C86.928 15.7877 85.8676 16.0169 84.642 16.0169H80.6456V4.82671ZM83.4271 7.22461H84.5461C84.9724 7.22461 85.3827 7.2779 85.7771 7.38447C86.182 7.49104 86.5337 7.66688 86.8321 7.912C87.1412 8.15712 87.3863 8.48749 87.5675 8.90313C87.7486 9.30811 87.8392 9.81432 87.8392 10.4218C87.8392 11.0293 87.7486 11.5408 87.5675 11.9564C87.3863 12.3614 87.1412 12.6865 86.8321 12.9316C86.5337 13.1767 86.182 13.3526 85.7771 13.4591C85.3827 13.5657 84.9724 13.619 84.5461 13.619H83.4271V7.22461Z" fill="#252525"/>
<path fill-rule="evenodd" clip-rule="evenodd" d="M55.1441 10.4218C55.1441 9.55855 55.2934 8.7699 55.5918 8.05586C55.9008 7.34184 56.3271 6.72372 56.8706 6.20151C57.4142 5.6793 58.0536 5.27963 58.789 5.00254C59.5243 4.7148 60.3183 4.57093 61.1709 4.57093C62.0341 4.57093 62.8281 4.7148 63.5528 5.00254C64.2881 5.27963 64.9275 5.6793 65.4711 6.20151C66.0146 6.72372 66.4356 7.34184 66.734 8.05586C67.0324 8.7699 67.1816 9.55855 67.1816 10.4218C67.1816 11.285 67.0324 12.079 66.734 12.8037C66.4462 13.5284 66.0306 14.1572 65.4871 14.69C64.9542 15.2229 64.3201 15.6385 63.5847 15.937C62.8494 16.2247 62.0447 16.3686 61.1709 16.3686C60.2863 16.3686 59.4763 16.2247 58.741 15.937C58.0056 15.6385 57.3662 15.2229 56.8227 14.69C56.2898 14.1572 55.8742 13.5284 55.5758 12.8037C55.288 12.079 55.1441 11.285 55.1441 10.4218ZM58.0056 10.4218C58.0056 11.0825 58.1335 11.6687 58.3893 12.1803C58.6557 12.6811 59.0234 13.0755 59.4923 13.3632C59.9719 13.651 60.5314 13.7948 61.1709 13.7948C61.7996 13.7948 62.3485 13.651 62.8174 13.3632C63.297 13.0755 63.6647 12.6811 63.9204 12.1803C64.1869 11.6687 64.3201 11.0825 64.3201 10.4218C64.3201 9.76104 64.1922 9.18022 63.9364 8.67933C63.6807 8.16777 63.3183 7.76811 62.8494 7.48039C62.3805 7.19264 61.8209 7.04875 61.1709 7.04875C60.5314 7.04875 59.9719 7.19264 59.4923 7.48039C59.0234 7.76811 58.6557 8.16777 58.3893 8.67933C58.1335 9.18022 58.0056 9.76104 58.0056 10.4218Z" fill="#252525"/>
<path d="M52.7885 4.82671H55.8898L51.9732 11.4609V16.0169H49.2237V11.4769L45.3071 4.82671H48.4084L50.5985 9.03102L52.7885 4.82671Z" fill="#252525"/>
<path d="M39.9433 13.7948H44.7871V16.0169H37.3536V4.82671H44.7871V7.04875H39.9433V9.04699H44.4674V11.2211H39.9433V13.7948Z" fill="#252525"/>
<path fill-rule="evenodd" clip-rule="evenodd" d="M34.7789 9.17488C34.4986 9.51651 34.1319 9.79335 33.6788 10.0054C33.9974 10.1166 34.2948 10.2607 34.5711 10.4378C34.9867 10.6936 35.3171 11.0239 35.5622 11.4289C35.818 11.8232 35.9459 12.3028 35.9459 12.8676C35.9459 13.6137 35.7647 14.2158 35.4024 14.674C35.0507 15.1323 34.5498 15.4733 33.8997 15.6972C33.2496 15.9103 32.4823 16.0169 31.5977 16.0169H27.2176V4.82671H31.326C32.1039 4.82671 32.786 4.93328 33.3722 5.14643C33.969 5.34892 34.4379 5.6633 34.7789 6.08959C35.1306 6.50523 35.3065 7.03278 35.3065 7.67222C35.3065 8.25835 35.1306 8.75925 34.7789 9.17488ZM29.9192 13.9227V11.1571H31.294C31.5604 11.1571 31.8002 11.1838 32.0133 11.2371C32.2371 11.2797 32.4343 11.3543 32.6048 11.4609C32.7754 11.5674 32.9086 11.706 33.0045 11.8765C33.1004 12.047 33.1484 12.2495 33.1484 12.484C33.1484 12.8463 33.0631 13.1341 32.8926 13.3472C32.7327 13.5497 32.5142 13.6989 32.2371 13.7948C31.9601 13.8801 31.6457 13.9227 31.294 13.9227H29.9192ZM31.0382 9.2708H29.9192V6.92087H31.0382C31.5071 6.92087 31.8695 7.01678 32.1253 7.20861C32.381 7.40045 32.5089 7.68819 32.5089 8.07186C32.5089 8.32763 32.4503 8.5461 32.3331 8.72727C32.2158 8.89779 32.0453 9.03102 31.8215 9.12693C31.6084 9.22285 31.3473 9.2708 31.0382 9.2708Z" fill="#252525"/>
</svg>
