<svg width="32" height="32" viewBox="0 0 32 32" fill="none" xmlns="http://www.w3.org/2000/svg">
<path fill-rule="evenodd" clip-rule="evenodd" d="M3 5C3 4.44772 3.44772 4 4 4H12.25H13.75H18.25H19.75H28C28.5523 4 29 4.44772 29 5V9V10.5V28C29 28.5523 28.5523 29 28 29H4C3.44772 29 3 28.5523 3 28V10.5V9V5ZM5 10.5V27H27V10.5L19.75 10.5V15C19.75 15.4142 19.4142 15.75 19 15.75H13C12.5858 15.75 12.25 15.4142 12.25 15V10.5L5 10.5ZM12.25 9L5 9V6H12.25V9ZM13.75 10.5V14.25H18.25V10.5L13.75 10.5ZM18.25 9L13.75 9V6H18.25V9ZM19.75 9L27 9V6H19.75V9Z" fill="#252525"/>
</svg>
