<svg width="55" height="28" viewBox="0 0 55 28" fill="none" xmlns="http://www.w3.org/2000/svg">
<path fill-rule="evenodd" clip-rule="evenodd" d="M46.1261 19.3989L47.2471 17.4896C47.2863 17.4246 47.3241 17.3628 47.3602 17.304L47.3607 17.3031C47.5677 16.9655 47.716 16.7236 47.716 16.4971C47.716 16.2699 47.5651 16.1935 47.3871 16.1034C47.1312 15.9738 46.8191 15.8159 46.8191 15.1399C46.8191 14.2799 47.3483 13.7274 47.9815 13.7274C48.3867 13.7274 48.7965 13.7745 49.2092 13.8218L49.2092 13.8219C49.6273 13.8699 50.0482 13.9182 50.4698 13.9182C50.8901 13.9182 51.2486 13.8699 51.605 13.8219C51.9571 13.7745 52.3071 13.7274 52.7124 13.7274C53.6312 13.7274 54.1404 14.3567 54.1404 15.1778C54.1404 15.7513 53.7727 16.4578 53.0801 16.4578C52.9374 16.4578 52.7998 16.4339 52.6622 16.41C52.5244 16.3861 52.3866 16.3621 52.2436 16.3621C52.0193 16.3621 51.8564 16.4015 51.6935 16.5734C51.5261 16.7574 51.3483 17.0155 51.1841 17.2537L51.1839 17.2541C51.1272 17.3363 51.0722 17.4161 51.0199 17.4896L48.5117 21.2325C48.0025 21.9968 47.859 22.2833 47.859 22.6076V23.7357C47.859 24.1552 48.1241 24.4218 48.552 24.4218C48.759 24.4218 48.9604 24.3877 49.159 24.3542C49.3526 24.3215 49.5436 24.2892 49.7349 24.2892C50.4284 24.2892 50.7961 24.9952 50.7961 25.5687C50.7961 26.3893 50.2864 27.0201 49.3682 27.0201C48.8705 27.0201 48.4504 26.9744 48.0204 26.9276C47.5695 26.8785 47.1077 26.8283 46.5341 26.8283C46.0111 26.8283 45.4932 26.8767 44.9779 26.9249L44.9778 26.9249C44.4678 26.9726 43.9603 27.0201 43.453 27.0201C41.9234 27.0201 41.4142 26.3893 41.4142 25.5687C41.4142 24.9952 41.7804 24.2892 42.4754 24.2892C42.6793 24.2892 42.878 24.3224 43.0767 24.3555C43.2752 24.3886 43.4737 24.4218 43.6772 24.4218C44.024 24.4218 44.2477 24.2314 44.2477 23.7162V22.9714C44.2296 22.349 44.098 22.1477 43.6377 21.4431L43.5751 21.3471L41.2109 17.6984C41.179 17.6501 41.1402 17.5894 41.0967 17.5215C40.9168 17.2404 40.6563 16.8336 40.475 16.6486C40.3125 16.4767 40.1292 16.401 39.8845 16.401C39.7539 16.401 39.6315 16.4129 39.5097 16.4257C39.5415 16.6087 39.5577 16.7984 39.5577 16.9939C39.5577 18.4448 38.5373 19.4582 37.1323 19.668V19.7063C38.9798 20.1448 40.0769 21.2524 40.0769 23.067C40.0769 26.2568 37.1522 27.0211 34.8812 27.0211C34.4029 27.0211 33.9442 26.9819 33.4414 26.939C32.8313 26.8869 32.156 26.8293 31.3013 26.8293C30.6949 26.8293 30.226 26.8839 29.7889 26.9349C29.4072 26.9794 29.0496 27.0211 28.6456 27.0211C28.4415 27.0211 28.2554 27.011 28.0861 26.9918C27.9655 27.0227 27.8364 27.039 27.7004 27.039C27.2717 27.039 26.9026 26.9922 26.5294 26.945C26.1478 26.8966 25.762 26.8477 25.3038 26.8477C24.8582 26.8477 24.4174 26.8961 23.9792 26.9442C23.5463 26.9918 23.1159 27.039 22.686 27.039C21.9008 27.039 21.3358 26.5044 21.3358 25.7974C21.3358 24.9753 21.7593 24.4985 22.3233 24.4985C22.3677 24.4985 22.4162 24.5023 22.4702 24.5067H22.4703H22.4703C22.5387 24.5122 22.6161 24.5184 22.7059 24.5184C22.9869 24.5184 23.1693 24.3839 23.1693 24.1168C23.1693 24.0277 23.1514 23.9561 23.1335 23.8846C23.1244 23.8481 23.1152 23.8117 23.1085 23.773C23.0682 23.5817 22.9869 23.219 22.8868 23.0655C22.7662 22.8747 22.5649 22.8747 22.263 22.8747L19.9671 22.8752C19.1016 22.8552 18.9805 22.9509 18.86 23.1034C18.7389 23.2763 18.578 23.9065 18.578 24.1168C18.578 24.3659 18.719 24.4795 18.9805 24.4795C19.0702 24.4795 19.1351 24.4854 19.1924 24.4907L19.1924 24.4907C19.2376 24.4948 19.2782 24.4985 19.3223 24.4985C19.7454 24.4985 20.3094 24.7845 20.3094 25.7974C20.3094 26.5044 19.7453 27.039 18.9606 27.039C18.5318 27.039 18.1624 26.9922 17.789 26.9449C17.4074 26.8966 17.0216 26.8477 16.564 26.8477C16.118 26.8477 15.6775 26.8961 15.2396 26.9442C14.8068 26.9917 14.3765 27.039 13.9458 27.039C13.2156 27.039 12.6767 26.5436 12.6047 25.8595C11.5325 26.7506 9.93226 27.0211 8.56623 27.0211C8.08213 27.0211 7.61827 26.9819 7.10982 26.939L7.10977 26.939L7.10973 26.939C6.49311 26.8869 5.81091 26.8293 4.94747 26.8293C4.33408 26.8293 3.85971 26.884 3.41748 26.9349C3.03135 26.9794 2.66971 27.0211 2.26142 27.0211C0.626171 27.0206 0.140381 26.3903 0.140381 25.5692C0.140381 24.9962 0.491146 24.2887 1.15282 24.2887C1.29639 24.2887 1.43491 24.3213 1.57571 24.3543C1.72124 24.3885 1.86921 24.4233 2.02774 24.4233C2.39744 24.4233 2.51502 24.0406 2.51502 22.8757V17.8723C2.51502 16.6302 2.39744 16.3243 2.02774 16.3243C1.86954 16.3243 1.72162 16.3588 1.57609 16.3929L1.57607 16.3929L1.57605 16.3929C1.43513 16.4258 1.29645 16.4583 1.15282 16.4583C0.491146 16.4578 0.140381 15.7518 0.140381 15.1783C0.140381 14.3577 0.626171 13.7274 2.33914 13.7274C2.77744 13.7274 3.18756 13.7732 3.60627 13.82L3.60628 13.8201H3.60629H3.6063H3.60631H3.60632H3.60632C4.04293 13.8689 4.48887 13.9187 4.98583 13.9187C5.93333 13.9187 6.69774 13.8588 7.37119 13.8061H7.3712H7.37122H7.37123H7.37124H7.37125C7.90148 13.7645 8.37533 13.7274 8.83778 13.7274C9.85071 13.7274 10.8039 13.842 11.6409 14.2804C12.6912 14.835 13.2951 15.8091 13.2951 16.9939C13.2951 18.4448 12.2627 19.4582 10.8427 19.668V19.7064C12.7111 20.1448 13.8197 21.2524 13.8197 23.067C13.8197 23.5305 13.7573 23.9428 13.6435 24.309C13.7316 24.3115 13.8202 24.3189 13.9103 24.3264L13.9104 24.3264C14.0261 24.3361 14.1444 24.346 14.2676 24.346C14.8159 24.346 15.0541 23.6405 15.2127 23.1711C15.2348 23.1055 15.2554 23.0446 15.2751 22.9908L18.0334 15.8085C18.4848 14.6401 18.7442 14.1236 19.3661 13.8979C18.3436 13.7514 17.3379 13.1908 17.3379 12.0822C17.3379 11.3597 17.9343 10.8156 18.6831 10.8156C19.2636 10.8156 19.7384 11.2715 19.7384 11.8316C19.7384 11.9007 19.7244 11.9704 19.7104 12.04L19.7104 12.04L19.7104 12.04C19.7036 12.0737 19.6968 12.1074 19.6916 12.141C19.8142 12.2142 19.9058 12.258 20.0583 12.258C20.5934 12.258 21.2815 11.4484 21.2815 10.9626C21.2815 10.6089 20.8535 9.60738 20.6851 9.23867L19.142 5.71806C18.8824 5.09924 18.8057 4.9672 18.5915 4.9672C18.5305 4.9672 18.4734 4.97452 18.4161 4.98186C18.3585 4.98922 18.3009 4.9966 18.2392 4.9966C17.735 4.9966 17.5676 4.599 17.5676 4.15656C17.5676 3.59702 17.8266 3.14013 18.4694 3.14013C18.6914 3.14013 18.9279 3.17486 19.1717 3.21067C19.4312 3.24878 19.699 3.28811 19.9666 3.28811C20.2385 3.28811 20.5063 3.25209 20.7776 3.21559C21.0561 3.17811 21.3384 3.14013 21.6328 3.14013C22.2292 3.14013 22.5196 3.47994 22.5196 4.02452C22.5196 4.50981 22.275 4.61395 22.0309 4.68719C21.9912 4.69662 21.9512 4.70453 21.9119 4.71228C21.7085 4.75243 21.5261 4.78845 21.5261 5.01105C21.5261 5.11744 21.5894 5.30808 21.6366 5.45039L21.6366 5.45042L21.6366 5.45043C21.6549 5.50539 21.6707 5.55313 21.6796 5.58603L22.6731 8.56106H22.703L23.6965 5.71806C23.7727 5.52673 23.8953 5.18843 23.8953 4.9966C23.8953 4.87533 23.7764 4.82849 23.627 4.76962C23.5763 4.74964 23.5221 4.72827 23.4678 4.70214C23.2536 4.61395 23.0244 4.45152 23.0244 4.00957C23.0244 3.55318 23.3303 3.14013 23.8191 3.14013C24.0279 3.14013 24.2473 3.17529 24.4722 3.21133C24.7087 3.24923 24.9514 3.28811 25.1942 3.28811C25.4524 3.28811 25.7065 3.25166 25.9625 3.21493C26.2223 3.17767 26.484 3.14013 26.7537 3.14013C27.0956 3.14013 27.3292 3.27001 27.4727 3.47608V2.81727C27.4727 2.08086 27.4428 1.77095 27.1967 1.77095C27.1253 1.77095 27.0541 1.79352 26.9782 1.8176C26.8915 1.84511 26.7985 1.87459 26.692 1.87459C26.1887 1.87459 26.0208 1.47699 26.0208 1.03455C26.0208 0.460067 26.2799 0.00317383 26.9216 0.00317383C27.1194 0.00317383 27.3206 0.0396019 27.5234 0.0763102C27.7293 0.113588 27.9367 0.151154 28.1438 0.151154C28.3759 0.151154 28.6039 0.113589 28.8296 0.0763757C29.0512 0.0398546 29.2707 0.003673 29.4901 0.003673C29.8563 0.003673 29.9948 0.224895 29.9948 0.798875V3.33246H30.0257C30.4986 2.68474 31.2474 2.34593 32.1348 2.34593C33.3301 2.34593 34.106 2.98058 34.5655 3.84853C34.6519 3.43861 34.9327 3.14014 35.5139 3.14014C35.7563 3.14014 35.9761 3.17653 36.1977 3.21322C36.4231 3.25051 36.6503 3.28812 36.905 3.28812C37.1543 3.28812 37.3359 3.24707 37.5078 3.20821C37.6622 3.17329 37.8088 3.14014 37.9897 3.14014C38.3873 3.14014 38.3873 3.42066 38.3873 3.80331V7.4714C38.3873 7.78082 38.3873 8.2965 38.5716 8.59047C38.6663 8.7303 38.7935 8.84501 38.9424 8.92469C39.0913 9.00438 39.2573 9.04665 39.4261 9.04786C39.8701 9.04786 40.2826 8.82614 40.5272 8.45893C40.8481 7.98759 40.879 7.48635 40.879 6.94077V5.92485C40.879 5.12964 40.8172 4.89348 40.6035 4.89348C40.5532 4.89348 40.503 4.90647 40.4527 4.91947C40.4267 4.92618 40.4007 4.9329 40.3748 4.93782L40.347 4.94692C40.2665 4.97341 40.1945 4.99711 40.0992 4.99711C39.596 4.99711 39.4261 4.59951 39.4261 4.15756C39.4261 3.59753 39.6862 3.14014 40.3598 3.14014C40.6117 3.14014 40.8217 3.17714 41.0317 3.21413C41.2417 3.25113 41.4517 3.28812 41.7036 3.28812C41.9145 3.28812 42.0936 3.24963 42.269 3.21191C42.4375 3.17567 42.6028 3.14014 42.7898 3.14014C43.1864 3.14014 43.2781 3.30307 43.2781 3.62693V8.04539C43.2781 8.92977 43.3857 9.07725 43.5536 9.07725C43.625 9.07725 43.6963 9.05476 43.7724 9.03079C43.8592 9.00342 43.9521 8.97412 44.0583 8.97412C44.5635 8.97412 44.73 9.37172 44.73 9.81316C44.73 10.3732 44.4709 10.8296 43.8291 10.8296C43.6336 10.8296 43.4463 10.7912 43.2631 10.7537C43.0877 10.7178 42.916 10.6826 42.7444 10.6826C42.5701 10.6826 42.3954 10.7221 42.2271 10.7601C42.0707 10.7955 41.9198 10.8296 41.7798 10.8296C41.3992 10.8296 41.2308 10.5795 41.2308 10.3438V9.75487H41.1999C40.6344 10.565 39.5342 11.0219 38.5098 11.0219C36.9354 11.0219 35.9872 10.1375 35.9872 8.65026V5.92485C35.9872 5.02651 35.8806 4.89348 35.7117 4.89348C35.6625 4.89348 35.6122 4.90643 35.5619 4.9194L35.5618 4.91941C35.5357 4.92614 35.5095 4.93288 35.4835 4.93782L35.4543 4.94739C35.3746 4.97369 35.3036 4.99711 35.208 4.99711C35.1174 4.99711 35.0378 4.98432 34.9679 4.96079C35.0686 5.40217 35.1143 5.85846 35.1143 6.29404C35.1143 8.31194 34.1368 10.4474 31.7522 10.4474C30.7437 10.4474 29.8269 10.0937 29.2913 9.0922L29.2614 9.12209L29.3068 9.4898C29.3068 9.96164 28.8942 10.1824 28.4513 10.1824C27.6401 10.1824 27.4727 9.81366 27.4727 9.10664V4.78992C27.3668 4.91722 27.2087 4.9966 26.9834 4.9966C26.9144 4.9966 26.8454 4.98188 26.7765 4.96716C26.7078 4.95248 26.6391 4.93781 26.5704 4.93781C26.4025 4.93781 26.2645 5.04094 26.0353 5.64482L24.7059 9.15048C24.0439 10.9039 23.0531 13.0558 21.1703 13.7274L21.1952 13.7274C22.1419 13.7274 22.9471 13.7274 23.3696 13.9361C23.8943 14.2047 23.975 14.4334 24.2365 15.3123L26.6929 23.1243L26.7225 23.2149C26.928 23.8455 27.0504 24.2213 27.3209 24.3199C27.3922 24.3 27.4683 24.2892 27.549 24.2892C27.6447 24.2892 27.7382 24.304 27.8317 24.3237C27.9193 24.3155 28.0031 24.3081 28.083 24.3081C28.2278 24.3081 28.3743 24.3406 28.5085 24.4138C28.7998 24.3472 28.8953 23.9346 28.8953 22.8762V17.8723C28.8953 16.6301 28.7797 16.3242 28.4144 16.3242C28.258 16.3242 28.1118 16.3588 27.9679 16.3928C27.8284 16.4258 27.6912 16.4583 27.549 16.4583C26.8938 16.4583 26.5475 15.7517 26.5475 15.1783C26.5475 14.3576 27.0293 13.7274 28.7224 13.7274C29.1562 13.7274 29.5621 13.7732 29.9765 13.8201C30.4083 13.8689 30.8492 13.9187 31.3402 13.9187C32.2767 13.9187 33.0322 13.8588 33.6981 13.8061C34.2229 13.7645 34.692 13.7274 35.1502 13.7274C36.1517 13.7274 37.0934 13.842 37.9215 14.2804C38.0108 14.3281 38.0968 14.3788 38.1795 14.4326C38.4071 14.0053 38.86 13.7274 39.5378 13.7274C39.9432 13.7274 40.3538 13.7745 40.7668 13.822C41.1847 13.8699 41.605 13.9182 42.025 13.9182C42.3957 13.9182 42.7463 13.8723 43.1036 13.8255C43.4747 13.7769 43.853 13.7274 44.2686 13.7274C44.3546 13.7274 44.4361 13.7332 44.5132 13.7443C43.7531 13.4844 43.1341 12.952 43.1341 12.0822C43.1341 11.3597 43.7305 10.8156 44.4793 10.8156C45.0593 10.8156 45.5341 11.2715 45.5341 11.8316C45.5341 11.9 45.5204 11.9689 45.5067 12.0377C45.4998 12.0722 45.4929 12.1066 45.4878 12.141C45.6103 12.2142 45.702 12.2581 45.854 12.2581C46.3901 12.2581 47.0767 11.4484 47.0767 10.9626C47.0767 10.6089 46.6487 9.60739 46.4813 9.23869L44.9377 5.71807C44.6786 5.09925 44.6014 4.96722 44.3876 4.96722C44.3265 4.96722 44.2693 4.97453 44.212 4.98187C44.1544 4.98923 44.0968 4.99661 44.0349 4.99661C43.5307 4.99661 43.3633 4.59901 43.3633 4.15657C43.3633 3.59704 43.6228 3.14014 44.2651 3.14014C44.4874 3.14014 44.724 3.17489 44.9678 3.21071C45.2271 3.24881 45.4947 3.28812 45.7623 3.28812C46.0346 3.28812 46.3028 3.25205 46.5744 3.21553C46.8528 3.17807 47.1348 3.14014 47.4284 3.14014C48.0248 3.14014 48.3153 3.47995 48.3153 4.02453C48.3153 4.50982 48.0712 4.61396 47.826 4.6872C47.7865 4.69665 47.7465 4.70458 47.7072 4.71234C47.5045 4.75248 47.3223 4.78856 47.3223 5.01106C47.3223 5.11493 47.3831 5.2991 47.4297 5.4402C47.4492 5.49946 47.4663 5.55112 47.4753 5.58604L48.4688 8.56107H48.4987L49.4922 5.71807C49.5679 5.52675 49.6915 5.18844 49.6915 4.99661C49.6915 4.87554 49.5724 4.82866 49.4233 4.76992C49.3724 4.74985 49.3179 4.72841 49.2635 4.70215C49.0497 4.61396 48.8201 4.45153 48.8201 4.00958C48.8201 3.55319 49.126 3.14014 49.6152 3.14014C49.8239 3.14014 50.043 3.17525 50.2678 3.21126C50.5045 3.24919 50.7476 3.28812 50.9914 3.28812C51.2484 3.28812 51.502 3.25174 51.7577 3.21505C52.0177 3.17775 52.2799 3.14014 52.5499 3.14014C53.1917 3.14014 53.4508 3.59704 53.4508 4.15657C53.4508 4.59901 53.2833 4.99661 52.7791 4.99661C52.7104 4.99661 52.6415 4.98191 52.5726 4.96722C52.5037 4.95252 52.4348 4.93782 52.3661 4.93782C52.1982 4.93782 52.0606 5.04096 51.8315 5.64483L50.5006 9.1505C49.7069 11.2566 48.4374 13.9377 45.716 13.9377C45.4383 13.9377 45.1479 13.9073 44.8661 13.8437C45.3829 14.0732 45.6154 14.6163 45.6154 15.2356C45.6154 15.839 45.2869 15.9911 45.0145 16.1171C44.8215 16.2064 44.6567 16.2827 44.6567 16.4971C44.6567 16.7064 44.7997 16.9735 45.0852 17.4896L46.1261 19.3989ZM1.68644 2.81727C1.68644 2.08086 1.65655 1.77095 1.41091 1.77095C1.33978 1.77095 1.26864 1.79351 1.19275 1.81758C1.10598 1.8451 1.013 1.87459 0.906685 1.87459C0.402459 1.87459 0.235048 1.47699 0.235048 1.03455C0.235048 0.460067 0.494137 0.00317383 1.13588 0.00317383C1.33285 0.00317383 1.5336 0.0394894 1.73621 0.07614C1.94259 0.113473 2.1509 0.151154 2.35908 0.151154C2.59048 0.151154 2.81783 0.11365 3.04324 0.0764668C3.26482 0.0399148 3.48452 0.003673 3.70434 0.003673C4.07055 0.003673 4.20857 0.224895 4.20857 0.798875V3.33246H4.23946C4.71279 2.68474 5.46216 2.34593 6.34854 2.34593C7.5377 2.34593 8.31207 2.97408 8.77266 3.83518C8.86236 3.43214 9.14322 3.14013 9.71768 3.14013C9.96048 3.14013 10.1805 3.17657 10.4021 3.21329C10.6271 3.25056 10.8538 3.28811 11.1078 3.28811C11.3578 3.28811 11.5396 3.24702 11.7117 3.20814C11.8662 3.17324 12.0127 3.14013 12.1935 3.14013C12.5921 3.14013 12.5921 3.42065 12.5921 3.8033L12.5916 7.47139C12.5916 7.7808 12.5916 8.29649 12.7744 8.59046C12.8693 8.73028 12.9968 8.84495 13.1458 8.92463C13.2948 9.0043 13.4609 9.04659 13.6299 9.04785C14.0734 9.04785 14.4864 8.82613 14.731 8.45892C15.0514 7.98758 15.0828 7.48634 15.0828 6.94076V5.92483C15.0828 5.12963 15.0215 4.89346 14.8078 4.89346C14.7574 4.89346 14.7069 4.9065 14.6564 4.91951C14.6304 4.92621 14.6045 4.9329 14.5786 4.93781L14.5501 4.94715C14.47 4.97354 14.3985 4.9971 14.3031 4.9971C13.7988 4.9971 13.6304 4.5995 13.6304 4.15755C13.6304 3.59752 13.89 3.14013 14.5621 3.14013C14.8143 3.14013 15.0245 3.17713 15.2348 3.21412C15.445 3.25112 15.6553 3.28811 15.9074 3.28811C16.1183 3.28811 16.2972 3.24962 16.4725 3.2119C16.641 3.17566 16.8061 3.14013 16.9931 3.14013C17.3907 3.14013 17.4824 3.30306 17.4824 3.62692V8.04537C17.4824 8.92976 17.5895 9.07724 17.7579 9.07724C17.8287 9.07724 17.8998 9.05483 17.9757 9.0309C18.0625 9.0035 18.1557 8.9741 18.2621 8.9741C18.7663 8.9741 18.9343 9.37171 18.9343 9.81315C18.9343 10.3732 18.6752 10.8296 18.0329 10.8296C17.8375 10.8296 17.6503 10.7912 17.467 10.7537C17.2915 10.7178 17.1196 10.6826 16.9477 10.6826C16.7736 10.6826 16.5994 10.722 16.4315 10.76C16.2751 10.7954 16.1242 10.8296 15.9836 10.8296C15.603 10.8296 15.4346 10.5795 15.4346 10.3438V9.75486H15.4032C14.8377 10.565 13.738 11.0219 12.7136 11.0219C11.1392 11.0219 10.1915 10.1375 10.1915 8.65024V5.92483C10.1915 5.0265 10.0839 4.89346 9.91599 4.89346C9.8662 4.89346 9.81598 4.90638 9.76562 4.91934L9.7656 4.91935C9.73935 4.9261 9.71307 4.93286 9.68679 4.93781L9.65738 4.94745C9.57778 4.97372 9.50691 4.9971 9.41226 4.9971C9.32651 4.9971 9.25048 4.98562 9.18335 4.9644C9.28349 5.40466 9.32905 5.85965 9.32905 6.29404C9.32905 8.31194 8.35149 10.4474 5.96638 10.4474C4.95743 10.4474 4.04016 10.0937 3.50504 9.0922L3.47515 9.12209L3.52099 9.4898C3.52099 9.96164 3.10794 10.1824 2.665 10.1824C1.85435 10.1824 1.68644 9.81366 1.68644 9.10664V2.81727ZM6.80693 6.42608C6.80693 5.92534 6.76159 5.37976 6.5015 4.95326C6.3022 4.6289 5.96638 4.33444 5.56878 4.33444C4.98832 4.33444 4.20857 4.87952 4.20857 6.45597C4.20857 7.8695 4.78903 8.45892 5.55383 8.45892C6.28725 8.45892 6.80693 7.82515 6.80693 6.42608ZM19.9671 19.934C19.9598 19.9618 19.9497 19.9871 19.9399 20.0118C19.923 20.0546 19.9068 20.0955 19.9068 20.1438C19.9068 20.2972 20.1484 20.3919 20.6721 20.3919H21.2152C21.9411 20.3919 22.1016 20.3162 22.1016 20.1253C22.1016 19.9913 22.0418 19.7427 22.0009 19.6087L21.1753 16.0761H21.135L19.9671 19.934ZM6.11486 18.3496C6.11486 18.808 6.25088 18.808 7.04808 18.808C8.68282 18.808 9.5981 18.3875 9.5981 17.4129C9.5981 16.4015 8.31362 16.1529 7.4955 16.1529C6.21152 16.1529 6.11486 16.402 6.11486 17.3173V18.3496ZM6.11486 23.373C6.11486 24.1741 6.52292 24.4806 8.06051 24.4806C9.03309 24.4806 10.0844 24.0022 10.0844 22.9519C10.0844 21.6729 8.62453 21.1951 7.10637 21.1951C6.15322 21.1951 6.11486 21.215 6.11486 22.0157V23.373ZM33.38 18.808C32.5912 18.808 32.4567 18.808 32.4567 18.3496V17.3172C32.4567 16.402 32.5524 16.1528 33.8224 16.1528C34.6306 16.1528 35.9011 16.4015 35.9011 17.4129C35.9011 18.3875 34.9968 18.808 33.38 18.808ZM34.381 24.4805C32.8603 24.4805 32.4567 24.1741 32.4567 23.3729V22.0157C32.4567 21.215 32.4946 21.1951 33.4373 21.1951C34.939 21.1951 36.3819 21.6729 36.3819 22.9519C36.3819 24.0022 35.3426 24.4805 34.381 24.4805ZM32.2883 4.95326C32.5474 5.37976 32.5922 5.92534 32.5922 6.42608C32.5922 7.82515 32.0725 8.45892 31.3401 8.45892C30.5753 8.45892 29.9948 7.8695 29.9948 6.45597C29.9948 4.87952 30.7741 4.33444 31.3541 4.33444C31.7522 4.33444 32.0885 4.6289 32.2883 4.95326Z" fill="#252525"/>
<path d="M52.1074 26.1337V25.2144H52.5733C52.6107 25.2144 52.6514 25.2252 52.6954 25.2468C52.7394 25.2676 52.7767 25.3 52.8075 25.344C52.839 25.3872 52.8548 25.442 52.8548 25.5084C52.8548 25.5757 52.8386 25.633 52.8062 25.6803C52.7738 25.7268 52.7344 25.7621 52.6879 25.7862C52.6422 25.8103 52.599 25.8223 52.5583 25.8223H52.222V25.6728H52.4961C52.5235 25.6728 52.553 25.6591 52.5845 25.6317C52.6169 25.6043 52.6331 25.5632 52.6331 25.5084C52.6331 25.4519 52.6169 25.4137 52.5845 25.3938C52.553 25.3739 52.5251 25.3639 52.5011 25.3639H52.3092V26.1337H52.1074ZM52.663 25.7002L52.8922 26.1337H52.6705L52.4462 25.7002H52.663ZM52.4562 26.6818C52.3184 26.6818 52.1892 26.656 52.0688 26.6045C51.9484 26.5531 51.8425 26.4816 51.7512 26.3903C51.6598 26.2989 51.5884 26.1931 51.5369 26.0727C51.4855 25.9523 51.4597 25.8231 51.4597 25.6853C51.4597 25.5474 51.4855 25.4183 51.5369 25.2979C51.5884 25.1775 51.6598 25.0716 51.7512 24.9803C51.8425 24.8889 51.9484 24.8175 52.0688 24.766C52.1892 24.7145 52.3184 24.6888 52.4562 24.6888C52.5941 24.6888 52.7232 24.7145 52.8436 24.766C52.964 24.8175 53.0699 24.8889 53.1612 24.9803C53.2526 25.0716 53.324 25.1775 53.3755 25.2979C53.427 25.4183 53.4527 25.5474 53.4527 25.6853C53.4527 25.8231 53.427 25.9523 53.3755 26.0727C53.324 26.1931 53.2526 26.2989 53.1612 26.3903C53.0699 26.4816 52.964 26.5531 52.8436 26.6045C52.7232 26.656 52.5941 26.6818 52.4562 26.6818ZM52.4562 26.4426C52.5957 26.4426 52.7228 26.4086 52.8374 26.3405C52.952 26.2724 53.0433 26.181 53.1114 26.0664C53.1795 25.9518 53.2135 25.8248 53.2135 25.6853C53.2135 25.5458 53.1795 25.4187 53.1114 25.3041C53.0433 25.1895 52.952 25.0982 52.8374 25.0301C52.7228 24.962 52.5957 24.9279 52.4562 24.9279C52.3167 24.9279 52.1896 24.962 52.0751 25.0301C51.9605 25.0982 51.8691 25.1895 51.801 25.3041C51.7329 25.4187 51.6989 25.5458 51.6989 25.6853C51.6989 25.8248 51.7329 25.9518 51.801 26.0664C51.8691 26.181 51.9605 26.2724 52.0751 26.3405C52.1896 26.4086 52.3167 26.4426 52.4562 26.4426Z" fill="#252525"/>
</svg>
