<svg width="32" height="32" viewBox="0 0 32 32" fill="none" xmlns="http://www.w3.org/2000/svg">
<path fill-rule="evenodd" clip-rule="evenodd" d="M24 2C24 1.44772 23.5523 1 23 1C22.4477 1 22 1.44772 22 2V4H10V2C10 1.44772 9.55228 1 9 1C8.44772 1 8 1.44772 8 2V4H4C3.44772 4 3 4.44772 3 5V28C3 28.5523 3.44772 29 4 29H28C28.5523 29 29 28.5523 29 28V5C29 4.44772 28.5523 4 28 4H24V2ZM5 8.25V6H27V8.25H5ZM5 9.75V27H27V9.75H5ZM20.8111 12.1C21.6444 12.1 22.3222 12.2944 22.8444 12.6833C23.3778 13.0611 23.7889 13.55 24.0778 14.15C24.3778 14.7389 24.5778 15.3889 24.6778 16.1C24.7889 16.8111 24.8444 17.5 24.8444 18.1666C24.8444 18.8333 24.7889 19.5222 24.6778 20.2333C24.5778 20.9444 24.3778 21.6 24.0778 22.2C23.7889 22.7889 23.3778 23.2778 22.8444 23.6666C22.3222 24.0444 21.6444 24.2333 20.8111 24.2333C19.9778 24.2333 19.2944 24.0444 18.7611 23.6666C18.2389 23.2778 17.8278 22.7889 17.5278 22.2C17.2389 21.6 17.0389 20.9444 16.9278 20.2333C16.8278 19.5222 16.7778 18.8333 16.7778 18.1666C16.7778 17.5 16.8278 16.8111 16.9278 16.1C17.0389 15.3889 17.2389 14.7389 17.5278 14.15C17.8278 13.55 18.2389 13.0611 18.7611 12.6833C19.2944 12.2944 19.9778 12.1 20.8111 12.1ZM20.8111 22.65C21.2222 22.65 21.5667 22.5333 21.8444 22.3C22.1222 22.0555 22.3389 21.7333 22.4944 21.3333C22.6611 20.9222 22.7778 20.4444 22.8444 19.9C22.9111 19.3555 22.9444 18.7778 22.9444 18.1666C22.9444 17.5555 22.9111 16.9833 22.8444 16.45C22.7778 15.9055 22.6611 15.4278 22.4944 15.0166C22.3389 14.6055 22.1222 14.2833 21.8444 14.05C21.5667 13.8055 21.2222 13.6833 20.8111 13.6833C20.3889 13.6833 20.0389 13.8055 19.7611 14.05C19.4944 14.2833 19.2778 14.6055 19.1111 15.0166C18.9555 15.4278 18.8444 15.9055 18.7778 16.45C18.7111 16.9833 18.6778 17.5555 18.6778 18.1666C18.6778 18.7778 18.7111 19.3555 18.7778 19.9C18.8444 20.4444 18.9555 20.9222 19.1111 21.3333C19.2778 21.7333 19.4944 22.0555 19.7611 22.3C20.0389 22.5333 20.3889 22.65 20.8111 22.65ZM11.65 17.1C11.3389 17.1555 11.0278 17.1778 10.7167 17.1666V18.5833C11.0945 18.5722 11.4611 18.5833 11.8167 18.6166C12.1833 18.65 12.5111 18.7389 12.8 18.8833C13.0889 19.0166 13.3222 19.2166 13.5 19.4833C13.6778 19.75 13.7667 20.1111 13.7667 20.5666C13.7667 21.2333 13.55 21.75 13.1167 22.1166C12.6945 22.4722 12.1667 22.65 11.5333 22.65C10.7889 22.65 10.2278 22.4166 9.85002 21.95C9.48335 21.4722 9.31113 20.8778 9.33335 20.1666H7.43335C7.44446 20.7778 7.53891 21.3333 7.71668 21.8333C7.89446 22.3333 8.15002 22.7611 8.48335 23.1166C8.82779 23.4722 9.25002 23.75 9.75002 23.95C10.2611 24.1389 10.8556 24.2333 11.5333 24.2333C12.0889 24.2333 12.6167 24.15 13.1167 23.9833C13.6167 23.8166 14.0556 23.5833 14.4333 23.2833C14.8111 22.9722 15.1111 22.6 15.3333 22.1666C15.5556 21.7222 15.6667 21.2222 15.6667 20.6666C15.6667 19.9111 15.4778 19.2722 15.1 18.75C14.7333 18.2166 14.2167 17.8833 13.55 17.75V17.7166C14.1167 17.5166 14.5333 17.2 14.8 16.7666C15.0667 16.3222 15.2 15.8055 15.2 15.2166C15.2 14.7055 15.0945 14.2555 14.8833 13.8666C14.6722 13.4666 14.3889 13.1389 14.0333 12.8833C13.6889 12.6278 13.2945 12.4333 12.85 12.3C12.4167 12.1666 11.9722 12.1 11.5167 12.1C10.9278 12.1 10.4 12.2 9.93335 12.4C9.46668 12.6 9.06668 12.8778 8.73335 13.2333C8.41113 13.5889 8.15557 14.0111 7.96668 14.5C7.77779 14.9778 7.67224 15.5 7.65002 16.0666H9.55002C9.53891 15.7666 9.57224 15.4778 9.65002 15.2C9.72779 14.9111 9.84446 14.6555 10 14.4333C10.1667 14.2 10.3722 14.0166 10.6167 13.8833C10.8611 13.75 11.15 13.6833 11.4833 13.6833C12.0167 13.6833 12.45 13.8333 12.7833 14.1333C13.1278 14.4333 13.3 14.8333 13.3 15.3333C13.3 15.6889 13.2222 15.9889 13.0667 16.2333C12.9222 16.4778 12.7278 16.6722 12.4833 16.8166C12.2389 16.95 11.9611 17.0444 11.65 17.1Z" fill="#252525"/>
</svg>
