<svg width="32" height="32" viewBox="0 0 32 32" fill="none" xmlns="http://www.w3.org/2000/svg">
<path fill-rule="evenodd" clip-rule="evenodd" d="M23 1C23.5523 1 24 1.44772 24 2V4H28C28.5523 4 29 4.44772 29 5V28C29 28.5523 28.5523 29 28 29H4C3.44772 29 3 28.5523 3 28V5C3 4.44772 3.44772 4 4 4H8V2C8 1.44772 8.44772 1 9 1C9.55228 1 10 1.44772 10 2V4H22V2C22 1.44772 22.4477 1 23 1ZM8 6H5V8.25H27V6H24H22H10H8ZM5 27V9.75H27V27H5ZM15.6167 21.2333H14.1167V24H12.3167V21.2333H7.31671V19.35L12.3167 12.3333H14.1167V19.7333H15.6167V21.2333ZM8.78338 19.7333H12.3167V14.6H12.2834L8.78338 19.7333ZM18.2278 12.3333H24.2611V14.0333H19.6444L19.0444 17L19.0778 17.0333C19.3333 16.7444 19.6556 16.5278 20.0444 16.3833C20.4444 16.2278 20.8389 16.15 21.2278 16.15C21.8056 16.15 22.3222 16.25 22.7778 16.45C23.2333 16.6389 23.6167 16.9111 23.9278 17.2666C24.2389 17.6111 24.4722 18.0222 24.6278 18.5C24.7944 18.9778 24.8778 19.4944 24.8778 20.05C24.8778 20.5166 24.8 21 24.6444 21.5C24.5 21.9889 24.2611 22.4389 23.9278 22.85C23.6056 23.25 23.1889 23.5833 22.6778 23.85C22.1667 24.1055 21.5556 24.2333 20.8444 24.2333C20.2778 24.2333 19.75 24.1555 19.2611 24C18.7833 23.8555 18.3611 23.6333 17.9944 23.3333C17.6278 23.0333 17.3333 22.6666 17.1111 22.2333C16.9 21.7889 16.7833 21.2722 16.7611 20.6833H18.6611C18.7167 21.3166 18.9333 21.8055 19.3111 22.15C19.6889 22.4833 20.1889 22.65 20.8111 22.65C21.2111 22.65 21.55 22.5833 21.8278 22.45C22.1056 22.3166 22.3278 22.1333 22.4944 21.9C22.6722 21.6666 22.7944 21.3944 22.8611 21.0833C22.9389 20.7722 22.9778 20.4389 22.9778 20.0833C22.9778 19.7611 22.9333 19.4555 22.8444 19.1666C22.7556 18.8666 22.6222 18.6055 22.4444 18.3833C22.2667 18.1611 22.0333 17.9833 21.7444 17.85C21.4667 17.7166 21.1389 17.65 20.7611 17.65C20.3611 17.65 19.9833 17.7278 19.6278 17.8833C19.2833 18.0278 19.0333 18.3055 18.8778 18.7166H16.9778L18.2278 12.3333Z" fill="#252525"/>
</svg>
