<svg width="33" height="24" viewBox="0 0 33 24" fill="none" xmlns="http://www.w3.org/2000/svg">
<path d="M22.0209 0H11.3542V24H22.0209V0Z" fill="#E6E6E6"/>
<rect x="6.6875" width="19.3332" height="24" fill="white"/>
<path d="M32.6876 22.6667C32.6876 23.4033 32.091 24 31.3543 24H22.0209V0H31.3543C32.091 0 32.6876 0.596667 32.6876 1.33333V22.6667Z" fill="#FE0000"/>
<path d="M11.3542 24H2.02089C1.28422 24 0.687561 23.4033 0.687561 22.6667V1.33333C0.687561 0.596667 1.28422 0 2.02089 0H11.3542V24Z" fill="#FE0000"/>
<path fill-rule="evenodd" clip-rule="evenodd" d="M17.2708 16.4587C17.2708 16.4587 16.9801 14.236 17.1268 14.2594C18.3535 14.4494 18.9315 14.538 18.9315 14.538C18.2955 13.3367 19.8935 12.7554 20.7148 12.0567C20.0781 11.8414 20.1648 11.92 20.5748 10.3914C19.2455 10.8134 19.3541 10.69 19.0721 10.0307C19.0721 10.0307 18.9688 10.1487 18.1368 11.088C18.0181 11.222 17.8195 11.1327 17.8608 10.928C18.2941 8.7847 18.3161 8.69737 18.3161 8.69737C17.4721 9.2067 17.5035 9.23603 17.3701 8.9727C16.9068 8.06937 16.6875 7.62537 16.6875 7.62537C16.6875 7.62537 16.4681 8.07003 16.0048 8.97203C15.8708 9.2347 15.9021 9.20603 15.0581 8.6967C15.0581 8.6967 15.0794 8.78403 15.5134 10.9274C15.5554 11.132 15.3561 11.222 15.2374 11.0874C14.4054 10.148 14.3028 10.03 14.3028 10.03C14.0201 10.69 14.1301 10.8127 12.8001 10.3907C13.2101 11.9194 13.2968 11.8407 12.6601 12.056C13.4821 12.7547 15.0801 13.336 14.4434 14.5374C14.4434 14.5374 15.0214 14.4487 16.2481 14.2587C16.3948 14.2354 16.1461 16.5 16.1461 16.5L17.2708 16.4587Z" fill="#FE0000"/>
</svg>
