<svg width="17" height="17" viewBox="0 0 17 17" fill="none" xmlns="http://www.w3.org/2000/svg">
<path fill-rule="evenodd" clip-rule="evenodd" d="M13.2425 4.54738C13.345 4.88045 13.4262 5.15914 13.5109 5.43443C13.5957 5.70972 13.7334 5.79808 14.0265 5.7437C14.6939 5.61455 15.3649 5.47861 16.0323 5.34606C16.0923 5.33247 16.1559 5.33247 16.2548 5.31887C16.1418 5.73011 16.0323 6.11755 15.9228 6.505C15.8098 6.90264 15.6898 7.30028 15.5768 7.69792C15.4955 7.9902 15.5414 8.07857 15.824 8.20092C16.0712 8.30968 16.3183 8.42183 16.6609 8.57477C16.5585 8.62915 16.4914 8.64954 16.4384 8.69032C15.2307 9.61815 14.0265 10.5494 12.8188 11.4772C12.3844 11.8137 12.3597 11.8782 12.5186 12.3948C12.5928 12.6463 12.674 12.8944 12.7517 13.1425C12.7587 13.1629 12.7446 13.1867 12.7411 13.2343C11.9183 13.1222 11.099 13.0066 10.2833 12.8978C9.85245 12.8435 9.42163 12.7823 8.9908 12.7415C8.62708 12.7075 8.48582 12.8401 8.49642 13.1833C8.52467 14.3627 8.55645 15.5386 8.58823 16.7145C8.59176 16.8029 8.58823 16.8946 8.58823 17H7.9879C7.9879 16.6771 7.97731 16.3509 7.99143 16.028C8.03028 15.0594 8.08325 14.0874 8.11856 13.1188C8.13269 12.8469 7.97378 12.7041 7.68421 12.7381C6.9179 12.8265 6.1516 12.9318 5.3853 13.0304C4.88385 13.095 4.3824 13.1629 3.82798 13.2343C3.89154 13.0168 3.94098 12.8231 4.00808 12.6327C4.26586 11.8613 4.30824 11.8748 3.59491 11.3311C2.46135 10.461 1.33132 9.58756 0.201287 8.71411C0.141254 8.66993 0.0812209 8.61895 0 8.55098C0.271914 8.42863 0.515576 8.31647 0.762771 8.21112C1.06647 8.07857 1.10884 7.997 1.02409 7.69112C0.815741 6.97061 0.607391 6.2501 0.399042 5.52959C0.381385 5.47181 0.370791 5.41403 0.349603 5.30868C0.674487 5.37325 0.978182 5.43103 1.27835 5.4922C1.7127 5.57717 2.14353 5.66553 2.57788 5.7471C2.86039 5.80148 3.00517 5.71311 3.0864 5.45482C3.17468 5.17273 3.2559 4.88725 3.35478 4.55758C3.45719 4.65954 3.54194 4.73431 3.61963 4.81927C4.11755 5.34946 4.61547 5.87965 5.11339 6.40984C5.14517 6.44382 5.17342 6.4914 5.21227 6.5084C5.36058 6.56617 5.52302 6.67153 5.66075 6.65114C5.86203 6.62055 5.87263 6.41323 5.84438 6.2535C5.7455 5.68932 5.63603 5.12515 5.52656 4.56437C5.37471 3.79288 5.2158 3.02139 5.06395 2.2465C5.05689 2.22611 5.06748 2.20232 5.07454 2.14794C5.40649 2.30768 5.72078 2.46062 6.0386 2.61355C6.53652 2.85486 6.6919 2.80728 6.95675 2.34166C7.35226 1.63475 7.75483 0.927829 8.15388 0.220912C8.19272 0.152939 8.2351 0.0917633 8.28807 0C8.34457 0.0883646 8.39048 0.152939 8.43285 0.22431C8.84955 0.958417 9.26272 1.69252 9.67589 2.42323C9.87717 2.78009 10.0785 2.84126 10.4634 2.65434C10.8094 2.4912 11.1485 2.31787 11.5369 2.12755C11.4557 2.54898 11.3851 2.92963 11.3109 3.31028C11.1273 4.23131 10.9366 5.15234 10.76 6.07677C10.7212 6.28069 10.647 6.53559 10.9119 6.65114C11.1661 6.76329 11.325 6.56277 11.4733 6.40304C11.9748 5.87285 12.4692 5.33926 12.9671 4.81248C13.0589 4.73431 13.1366 4.65614 13.2425 4.54738Z" fill="#FF0000"/>
</svg>
