<svg width="21" height="20" viewBox="0 0 21 20" fill="#2F3337" xmlns="http://www.w3.org/2000/svg">
<path fill-rule="evenodd" clip-rule="evenodd" d="M4.8402 0.75464L6.47871 13.0435H17.1784L18.7778 5.04686C18.8719 4.57593 19.33 4.27053 19.801 4.36471C20.2719 4.4589 20.5773 4.91701 20.4831 5.38793L18.744 14.0836C18.6627 14.49 18.3058 14.7826 17.8913 14.7826H5.71739C5.28156 14.7826 4.91305 14.46 4.85545 14.028L3.21694 1.73913H1.36957C0.889318 1.73913 0.5 1.34981 0.5 0.869565C0.5 0.389318 0.889318 0 1.36957 0H3.97826C4.41409 0 4.7826 0.322635 4.8402 0.75464ZM10.9348 3.47821V5.21729H9.1957C8.71545 5.21729 8.32613 5.6066 8.32613 6.08685C8.32613 6.5671 8.71545 6.95642 9.1957 6.95642H10.9348V8.6956C10.9348 9.17585 11.3241 9.56516 11.8043 9.56516C12.2846 9.56516 12.6739 9.17585 12.6739 8.6956V6.95642H14.4131C14.8933 6.95642 15.2827 6.5671 15.2827 6.08685C15.2827 5.6066 14.8933 5.21729 14.4131 5.21729H12.6739V3.47821C12.6739 2.99796 12.2846 2.60864 11.8043 2.60864C11.3241 2.60864 10.9348 2.99796 10.9348 3.47821ZM6.58687 20.0001C7.54736 20.0001 8.326 19.2214 8.326 18.2609C8.326 17.3004 7.54736 16.5218 6.58687 16.5218C5.62637 16.5218 4.84774 17.3004 4.84774 18.2609C4.84774 19.2214 5.62637 20.0001 6.58687 20.0001ZM18.7608 18.2609C18.7608 19.2214 17.9821 20.0001 17.0216 20.0001C16.0611 20.0001 15.2825 19.2214 15.2825 18.2609C15.2825 17.3004 16.0611 16.5218 17.0216 16.5218C17.9821 16.5218 18.7608 17.3004 18.7608 18.2609Z"/>
</svg>
