<svg width="25" height="24" viewBox="0 0 25 24" fill="none" xmlns="http://www.w3.org/2000/svg">
<path fill-rule="evenodd" clip-rule="evenodd" d="M7.19783 14.4L5.23163 0.833123C5.16251 0.356189 4.72031 0 4.19732 0H1.06691C0.490615 0 0.0234375 0.429807 0.0234375 0.96C0.0234375 1.49019 0.490615 1.92 1.06691 1.92H3.28374L5.24994 15.4869C5.31906 15.9638 5.76127 16.32 6.28426 16.32H20.8928C21.3902 16.32 21.8185 15.997 21.916 15.5483L24.003 5.94827C24.116 5.42837 23.7495 4.92262 23.1844 4.81864C22.6193 4.71466 22.0696 5.05183 21.9566 5.57173L20.0374 14.4H7.19783ZM7.32815 23.5C8.48073 23.5 9.41509 22.5656 9.41509 21.413C9.41509 20.2604 8.48073 19.3261 7.32815 19.3261C6.17557 19.3261 5.24121 20.2604 5.24121 21.413C5.24121 22.5656 6.17557 23.5 7.32815 23.5ZM21.9366 21.413C21.9366 22.5656 21.0022 23.5 19.8496 23.5C18.6971 23.5 17.7627 22.5656 17.7627 21.413C17.7627 20.2604 18.6971 19.3261 19.8496 19.3261C21.0022 19.3261 21.9366 20.2604 21.9366 21.413Z" fill="#2F3337"/>
</svg>
