<svg width="24" height="43" viewBox="0 0 24 43" fill="none" xmlns="http://www.w3.org/2000/svg">
<path d="M7.51664 30.012H8.65664C8.59264 29.556 8.45664 29.156 8.24864 28.812C8.04064 28.46 7.78064 28.168 7.46864 27.936C7.15664 27.704 6.80064 27.528 6.40064 27.408C6.00064 27.288 5.57664 27.228 5.12864 27.228C4.47264 27.228 3.88864 27.348 3.37664 27.588C2.87264 27.82 2.44864 28.14 2.10464 28.548C1.76864 28.956 1.51264 29.436 1.33664 29.988C1.16064 30.532 1.07264 31.116 1.07264 31.74C1.07264 32.364 1.15264 32.948 1.31264 33.492C1.48064 34.036 1.72864 34.508 2.05664 34.908C2.38464 35.308 2.79664 35.624 3.29264 35.856C3.78864 36.08 4.36864 36.192 5.03264 36.192C6.12864 36.192 6.99264 35.892 7.62464 35.292C8.25664 34.692 8.62864 33.852 8.74064 32.772H7.60064C7.57664 33.124 7.50464 33.452 7.38464 33.756C7.26464 34.06 7.09664 34.324 6.88064 34.548C6.67264 34.764 6.42064 34.936 6.12464 35.064C5.83664 35.184 5.50464 35.244 5.12864 35.244C4.61664 35.244 4.17664 35.148 3.80864 34.956C3.44064 34.764 3.13664 34.508 2.89664 34.188C2.66464 33.86 2.49264 33.48 2.38064 33.048C2.26864 32.608 2.21264 32.144 2.21264 31.656C2.21264 31.208 2.26864 30.776 2.38064 30.36C2.49264 29.944 2.66464 29.576 2.89664 29.256C3.13664 28.928 3.43664 28.668 3.79664 28.476C4.16464 28.284 4.60464 28.188 5.11664 28.188C5.71664 28.188 6.23264 28.34 6.66464 28.644C7.10464 28.948 7.38864 29.404 7.51664 30.012ZM15.4808 35.976C15.3048 36.08 15.0608 36.132 14.7488 36.132C14.4848 36.132 14.2728 36.06 14.1128 35.916C13.9608 35.764 13.8848 35.52 13.8848 35.184C13.6048 35.52 13.2768 35.764 12.9008 35.916C12.5328 36.06 12.1328 36.132 11.7008 36.132C11.4208 36.132 11.1528 36.1 10.8968 36.036C10.6488 35.972 10.4328 35.872 10.2488 35.736C10.0648 35.6 9.9168 35.424 9.8048 35.208C9.7008 34.984 9.6488 34.716 9.6488 34.404C9.6488 34.052 9.7088 33.764 9.8288 33.54C9.9488 33.316 10.1048 33.136 10.2968 33C10.4968 32.856 10.7208 32.748 10.9688 32.676C11.2248 32.604 11.4848 32.544 11.7488 32.496C12.0288 32.44 12.2928 32.4 12.5408 32.376C12.7968 32.344 13.0208 32.304 13.2128 32.256C13.4048 32.2 13.5568 32.124 13.6688 32.028C13.7808 31.924 13.8368 31.776 13.8368 31.584C13.8368 31.36 13.7928 31.18 13.7048 31.044C13.6248 30.908 13.5168 30.804 13.3808 30.732C13.2528 30.66 13.1048 30.612 12.9368 30.588C12.7768 30.564 12.6168 30.552 12.4568 30.552C12.0248 30.552 11.6648 30.636 11.3768 30.804C11.0888 30.964 10.9328 31.272 10.9088 31.728H9.8888C9.9048 31.344 9.9848 31.02 10.1288 30.756C10.2728 30.492 10.4648 30.28 10.7048 30.12C10.9448 29.952 11.2168 29.832 11.5208 29.76C11.8328 29.688 12.1648 29.652 12.5168 29.652C12.7968 29.652 13.0728 29.672 13.3448 29.712C13.6248 29.752 13.8768 29.836 14.1008 29.964C14.3248 30.084 14.5048 30.256 14.6408 30.48C14.7768 30.704 14.8448 30.996 14.8448 31.356V34.548C14.8448 34.788 14.8568 34.964 14.8808 35.076C14.9128 35.188 15.0088 35.244 15.1688 35.244C15.2568 35.244 15.3608 35.224 15.4808 35.184V35.976ZM13.8248 32.796C13.6968 32.892 13.5288 32.964 13.3208 33.012C13.1128 33.052 12.8928 33.088 12.6608 33.12C12.4368 33.144 12.2088 33.176 11.9768 33.216C11.7448 33.248 11.5368 33.304 11.3528 33.384C11.1688 33.464 11.0168 33.58 10.8968 33.732C10.7848 33.876 10.7288 34.076 10.7288 34.332C10.7288 34.5 10.7608 34.644 10.8248 34.764C10.8968 34.876 10.9848 34.968 11.0888 35.04C11.2008 35.112 11.3288 35.164 11.4728 35.196C11.6168 35.228 11.7688 35.244 11.9288 35.244C12.2648 35.244 12.5528 35.2 12.7928 35.112C13.0328 35.016 13.2288 34.9 13.3808 34.764C13.5328 34.62 13.6448 34.468 13.7168 34.308C13.7888 34.14 13.8248 33.984 13.8248 33.84V32.796ZM16.3941 29.796V36H17.4141V33.24C17.4141 32.84 17.4541 32.488 17.5341 32.184C17.6141 31.872 17.7421 31.608 17.9181 31.392C18.0941 31.176 18.3261 31.012 18.6141 30.9C18.9021 30.788 19.2501 30.732 19.6581 30.732V29.652C19.1061 29.636 18.6501 29.748 18.2901 29.988C17.9301 30.228 17.6261 30.6 17.3781 31.104H17.3541V29.796H16.3941ZM21.8422 29.796V27.936H20.8222V29.796H19.7662V30.696H20.8222V34.644C20.8222 34.932 20.8502 35.164 20.9062 35.34C20.9622 35.516 21.0462 35.652 21.1582 35.748C21.2782 35.844 21.4302 35.912 21.6142 35.952C21.8062 35.984 22.0342 36 22.2982 36H23.0782V35.1H22.6102C22.4502 35.1 22.3182 35.096 22.2142 35.088C22.1182 35.072 22.0422 35.044 21.9862 35.004C21.9302 34.964 21.8902 34.908 21.8662 34.836C21.8502 34.764 21.8422 34.668 21.8422 34.548V30.696H23.0782V29.796H21.8422Z" fill="#2F3337"/>
<path fill-rule="evenodd" clip-rule="evenodd" d="M6.61246 13.729L4.80615 1.26537C4.74265 0.827224 4.33641 0.5 3.85595 0.5H0.9801C0.450671 0.5 0.0214844 0.894855 0.0214844 1.38193C0.0214844 1.86901 0.450671 2.26387 0.9801 2.26387H3.01666L4.82297 14.7275C4.88647 15.1656 5.29272 15.4929 5.77318 15.4929H19.1938C19.6507 15.4929 20.0442 15.1961 20.1338 14.7839L22.051 5.96456C22.1549 5.48694 21.8182 5.02232 21.299 4.92679C20.7799 4.83127 20.2749 5.14102 20.171 5.61864L18.4079 13.729H6.61246ZM6.73223 22.089C7.79109 22.089 8.64946 21.2306 8.64946 20.1718C8.64946 19.1129 7.79109 18.2545 6.73223 18.2545C5.67337 18.2545 4.815 19.1129 4.815 20.1718C4.815 21.2306 5.67337 22.089 6.73223 22.089ZM20.1527 20.1718C20.1527 21.2306 19.2943 22.089 18.2355 22.089C17.1766 22.089 16.3182 21.2306 16.3182 20.1718C16.3182 19.1129 17.1766 18.2545 18.2355 18.2545C19.2943 18.2545 20.1527 19.1129 20.1527 20.1718Z" fill="#2F3337"/>
</svg>
