<svg width="90" height="80" viewBox="0 0 90 80" fill="none" xmlns="http://www.w3.org/2000/svg">
  <rect y="57" width="90" height="16" rx="8" fill="#DADCDF" />
  <rect x="46" y="80" width="25" height="4" rx="2" transform="rotate(180 46 80)" fill="#DADCDF" />
  <rect x="19" y="80" width="4" height="4" rx="2" transform="rotate(180 19 80)" fill="#DADCDF" />
  <path d="M72.6264 27.0422L65.5061 19.1549L66.7053 57.1831L72.0567 67.3239L72.6264 27.0422Z" fill="#C75F5F" />
  <path
    d="M65.5053 19.7183L72.6256 28.4507L81.0133 27.3846L76.4269 22.1201C75.0975 20.5942 73.1727 19.7183 71.1489 19.7183H65.5053Z"
    fill="#FFC6C6" />
  <path d="M18.5126 27.0422L25.6328 19.1549L24.4336 57.1831L19.0822 67.3239L18.5126 27.0422Z" fill="#C75F5F" />
  <path
    d="M25.6327 19.7183L18.5124 28.4507L10.5001 27L14.71 22.1368C16.0396 20.6008 17.9709 19.7183 20.0024 19.7183H25.6327Z"
    fill="#FFC6C6" />
  <rect x="9.00003" y="26" width="11" height="43" rx="4" fill="#F88787" />
  <path
    d="M24.7543 7.79346C24.8663 3.45708 28.4139 0 32.7517 0H58.2484C62.5863 0 66.1338 3.45708 66.2458 7.79346L66.7881 28.7935C66.9043 33.2911 63.2899 37 58.7908 37H32.2093C27.7102 37 24.0958 33.2911 24.212 28.7935L24.7543 7.79346Z"
    fill="#F89292" />
  <path
    d="M23.6287 34.396C23.9585 33.0551 25.161 32.1126 26.5418 32.1126H64.5568C65.956 32.1126 67.1694 33.0799 67.4813 34.444L68.8025 40.2222H22.1953L23.6287 34.396Z"
    fill="#FFC6C6" />
  <path
    d="M39.9857 33.025H35.0036L17.5 20C17.5 20 15.775 21.0272 15.0346 21.8052C14.2942 22.5833 12.7255 24.4531 12.7255 24.4531C14.5325 23.4115 18.4866 23.4258 20.4933 26.9629C22.4999 30.5 23.0067 34.9905 23.0067 34.9905H39.9857C40.5284 34.9905 40.9684 34.5505 40.9684 34.0078C40.9684 33.465 40.5284 33.025 39.9857 33.025Z"
    fill="#932D2D" fill-opacity="0.2" />
  <path
    d="M38.3291 32.0657C37.1555 33.9733 34.7337 34.5679 32.864 33.4075L20.9335 26.0029C17.0384 23.5321 15.8322 18.2878 18.2393 14.2895C20.6464 10.2912 25.7553 9.05291 29.6504 11.5237L30.0388 11.7701C30.51 12.069 31.1257 11.9178 31.4186 11.4312L31.6555 11.0377C34.0626 7.03942 39.1716 5.80116 43.0667 8.27199C46.9617 10.7428 48.1679 15.9871 45.7608 19.9854L38.3291 32.0657Z"
    fill="#DF2936" />
  <path
    d="M38.5814 31.6557C38.4287 31.5878 38.2785 31.5096 38.1317 31.4209L25.1958 23.6066C21.041 21.0414 19.7544 15.5968 22.3219 11.4458C22.4908 11.1728 22.6683 10.8999 22.8538 10.6292C21.0008 11.2136 19.3385 12.4638 18.2394 14.2895C15.8322 18.2878 17.0385 23.5321 20.9335 26.0029L32.864 33.4075C34.7338 34.5679 37.1556 33.9733 38.3291 32.0657L38.5814 31.6557Z"
    fill="black" fill-opacity="0.14" />
  <path
    d="M21.6458 52.7324C21.6458 50.5233 23.4367 48.7324 25.6458 48.7324H65.4939C67.7031 48.7324 69.4939 50.5233 69.4939 52.7324V56C69.4939 58.2091 67.7031 60 65.4939 60H25.6458C23.4367 60 21.6458 58.2091 21.6458 56V52.7324Z"
    fill="#F88787" />
  <rect x="21.0001" y="48" width="49" height="4" fill="#C75F5F" />
  <path
    d="M22 41.2222C22 39.5654 23.3432 38.2222 25 38.2222H66C67.6569 38.2222 69 39.5654 69 41.2222V46.2222C69 47.8791 67.6569 49.2222 66 49.2222H25C23.3432 49.2222 22 47.8791 22 46.2222V41.2222Z"
    fill="#F88787" />
  <path
    d="M82 30C82 27.7909 80.2092 26 78 26H75C72.7909 26 71 27.7909 71 30V65C71 67.2091 72.7909 69 75 69H78C80.2092 69 82 67.2091 82 65V30Z"
    fill="#F88787" />
</svg>
