<svg data-svgname="checkbox-selected" viewBox="0 0 22 23" fill="none" xmlns="http://www.w3.org/2000/svg">
  <path
    d="M21 0.256836H1C0.734784 0.256836 0.48043 0.362193 0.292893 0.549729C0.105357 0.737265 0 0.991619 0 1.25684V21.2568C0 21.5221 0.105357 21.7764 0.292893 21.9639C0.48043 22.1515 0.734784 22.2568 1 22.2568H21C21.2652 22.2568 21.5196 22.1515 21.7071 21.9639C21.8946 21.7764 22 21.5221 22 21.2568V1.25684C22 0.991619 21.8946 0.737265 21.7071 0.549729C21.5196 0.362193 21.2652 0.256836 21 0.256836ZM9.049 16.7198L4.586 12.2568L6 10.8428L8.951 13.7938L15.906 5.84584L17.411 7.16284L9.049 16.7198Z"
    fill="#2F3337"/>
</svg>
