<svg alt="CitiPlccCard" fill="none" height="27" viewBox="0 0 40 24" width="43" xmlns="http://www.w3.org/2000/svg"><g clip-path="url(#clip0_6807_143221)"><path d="M40 25.232H31.2713H20.0373H0V0H13.3118H25.5432H35.0652H40V25.232Z" fill="#252525"></path><path fill-rule="evenodd" clip-rule="evenodd" d="M21.4437 -0.987183C27.6575 0.809693 31.2235 6.81734 29.6978 13.9451C28.4736 19.7182 24.206 24.7441 18.9404 27.4037H-0.127821C-1.01678 27.4037 -1.73743 26.6831 -1.73743 25.7941V13.6851C-1.39876 12.9272 -1.15343 12.3798 -0.981316 11.9958C-0.75483 11.4905 -0.655121 11.268 -0.636325 11.2209C1.68773 5.33883 7.12223 0.578481 13.2058 -0.987183H21.4437ZM4.63809 13.6793C4.63809 20.9674 8.9963 26.8819 14.3797 26.8819C19.763 26.8819 24.1212 20.9674 24.1212 13.6793C24.1212 6.39117 19.763 0.476672 14.3797 0.476672C8.9963 0.476672 4.63809 6.39117 4.63809 13.6793Z" fill="#545658"></path><g clip-path="url(#clip1_6807_143221)"><path d="M20.3397 5.82493H20.3102V5.62018L20.2298 5.82493H20.2117L20.1313 5.62018V5.82493H20.1018V5.59562H20.1543L20.2199 5.76433L20.2856 5.59562H20.3381V5.82493H20.3397ZM20.0591 5.61855H19.9853V5.82493H19.9557V5.61855H19.8819V5.59725H20.0591V5.61855ZM8.21813 4.9519C8.21813 5.45311 7.92601 5.87571 7.39099 5.87571C6.85597 5.87571 6.56384 5.45311 6.56384 4.9519C6.56384 4.45068 6.85597 4.02809 7.39099 4.02809C7.92601 4.02809 8.21813 4.45068 8.21813 4.9519ZM6.77719 4.9519C6.77719 5.32371 6.9807 5.69717 7.39099 5.69717C7.80128 5.69717 8.00478 5.32535 8.00478 4.9519C8.00478 4.57844 7.80128 4.20662 7.39099 4.20662C6.9807 4.20662 6.77719 4.57844 6.77719 4.9519ZM8.18039 4.07886H8.41835L8.96814 5.61199H8.97471L9.51793 4.07886H9.73785L9.08302 5.82493H8.85655L8.18203 4.07886H8.18039ZM9.93479 5.00922C9.93807 5.32044 10.1005 5.69553 10.5108 5.69553C10.8227 5.69553 10.9917 5.51208 11.0606 5.24837H11.274C11.1821 5.64475 10.9523 5.87407 10.5108 5.87407C9.95448 5.87407 9.72144 5.4482 9.72144 4.95026C9.72144 4.48999 9.95612 4.02645 10.5108 4.02645C11.0655 4.02645 11.297 4.51784 11.2805 5.00759H9.93479V5.00922ZM11.0672 4.83069C11.0573 4.50965 10.8571 4.20826 10.5108 4.20826C10.1645 4.20826 9.96761 4.51292 9.93479 4.83069H11.0672ZM13.4764 4.58991C13.4666 4.32619 13.2631 4.20826 13.0185 4.20826C12.8282 4.20826 12.605 4.28197 12.605 4.50965C12.605 4.69965 12.8216 4.76681 12.9677 4.80448L13.2532 4.86836C13.4977 4.90603 13.7521 5.04854 13.7521 5.35156C13.7521 5.72993 13.3763 5.87571 13.0497 5.87571C12.6427 5.87571 12.3653 5.6857 12.3309 5.25983H12.5442C12.5606 5.54811 12.774 5.69553 13.0596 5.69553C13.2598 5.69553 13.5371 5.60708 13.5371 5.36466C13.5371 5.16156 13.3468 5.0944 13.1531 5.0469L12.879 4.98629C12.6017 4.91258 12.3916 4.81758 12.3916 4.51947C12.3916 4.16404 12.7412 4.02809 13.0497 4.02809C13.3993 4.02809 13.6766 4.21154 13.6898 4.58991H13.4764ZM14.2757 4.07886H14.6318V4.25904H14.2757V5.43673C14.2757 5.57596 14.2954 5.65622 14.448 5.66605C14.5087 5.66605 14.5694 5.66277 14.6318 5.65622V5.83967C14.5678 5.83967 14.5071 5.84622 14.4414 5.84622C14.1559 5.84622 14.0574 5.75122 14.0623 5.45311V4.25904H13.8555V4.07886H14.0623V3.55471H14.2757V4.07886ZM16.3255 4.9519C16.3255 5.45311 16.0333 5.87571 15.4983 5.87571C14.9633 5.87571 14.6712 5.45311 14.6712 4.9519C14.6712 4.45068 14.9633 4.02809 15.4983 4.02809C16.0333 4.02809 16.3255 4.45068 16.3255 4.9519ZM14.8845 4.9519C14.8845 5.32371 15.088 5.69717 15.4983 5.69717C15.9086 5.69717 16.1121 5.32535 16.1121 4.9519C16.1121 4.57844 15.9086 4.20662 15.4983 4.20662C15.088 4.20662 14.8845 4.57844 14.8845 4.9519ZM17.8386 4.62758C17.7812 4.36714 17.622 4.20826 17.343 4.20826C16.9327 4.20826 16.7292 4.58008 16.7292 4.95353C16.7292 5.32699 16.9327 5.69881 17.343 5.69881C17.6072 5.69881 17.8238 5.49242 17.8517 5.20087H18.0651C18.0077 5.62018 17.7336 5.87734 17.343 5.87734C16.808 5.87734 16.5158 5.45475 16.5158 4.95353C16.5158 4.45232 16.808 4.02972 17.343 4.02972C17.7155 4.02972 18.0044 4.22955 18.052 4.62922H17.8386V4.62758ZM18.2899 3.40894H18.5033V4.92569L19.4732 4.0805H19.7571L19.0104 4.7275L19.808 5.82657H19.5405L18.8496 4.87491L18.5033 5.16319V5.82657H18.2899V3.41057V3.40894ZM12.28 4.06248V4.27378C11.9698 4.31964 11.768 4.5768 11.768 4.89293V5.82329H11.5546V4.07722H11.7516V4.48671H11.7581C11.85 4.24921 12.0355 4.09524 12.28 4.06084V4.06248Z" fill="white"></path><path d="M3.16497 3.39587H6.16009V6.38516H4.62068C5.15078 6.19679 5.59881 5.72342 5.71698 5.16815C5.8696 4.44745 5.41008 3.86433 4.68797 3.86433C4.03643 3.86433 3.39473 4.34098 3.16333 4.9634V3.39587H3.16497ZM5.30505 5.15832C5.30505 5.77747 4.92101 6.28033 4.44836 6.28033C3.9757 6.28033 3.59167 5.77911 3.59167 5.15832C3.59167 4.53753 3.9757 4.03795 4.44836 4.03795C4.92101 4.03795 5.30505 4.53917 5.30505 5.15832Z" fill="white"></path></g><path d="M3.31689 21.5984V22.6625H4.0218V22.5432H3.45847V21.5984H3.31689Z" fill="white"></path><path d="M5.52101 22.6625L5.80565 21.5984H5.66408L5.44798 22.4836H5.445L5.20954 21.5984H5.05604L4.81759 22.4836H4.81461L4.60597 21.5984H4.46141L4.73414 22.6625H4.88167L5.12757 21.7683H5.13055L5.37347 22.6625H5.52101Z" fill="white"></path><path d="M6.08638 22.2228L6.2667 21.7266H6.26968L6.44703 22.2228H6.08638ZM6.19219 21.5984L5.77789 22.6625H5.92244L6.04167 22.342H6.49173L6.60798 22.6625H6.76446L6.34867 21.5984H6.19219Z" fill="white"></path><path d="M6.86943 21.5984V22.6625H7.57434V22.5432H7.01101V21.5984H6.86943Z" fill="white"></path><path d="M7.69753 21.5984V22.6625H7.83911V22.2899L8.01645 22.1245L8.40095 22.6625H8.57978L8.11332 22.0276L8.5619 21.5984H8.37859L7.83911 22.1289V21.5984H7.69753Z" fill="white"></path><path d="M8.69154 21.5984V22.6625H9.43072V22.5432H8.83312V22.1751H9.38601V22.0559H8.83312V21.7176H9.42625V21.5984H8.69154Z" fill="white"></path><path d="M9.6026 21.5984V22.6625H9.74417V22.2079H10.0899C10.1247 22.2079 10.1525 22.2134 10.1734 22.2243C10.1942 22.2342 10.2111 22.2482 10.224 22.266C10.237 22.2829 10.2464 22.3033 10.2524 22.3271C10.2583 22.35 10.2633 22.3743 10.2673 22.4002C10.2722 22.426 10.2752 22.4523 10.2762 22.4791C10.2772 22.506 10.2782 22.5313 10.2792 22.5552C10.2802 22.578 10.2822 22.5989 10.2851 22.6177C10.2891 22.6366 10.2961 22.6515 10.306 22.6625H10.464C10.4491 22.6446 10.4377 22.6242 10.4297 22.6014C10.4228 22.5775 10.4173 22.5527 10.4133 22.5268C10.4093 22.501 10.4069 22.4747 10.4059 22.4479C10.4049 22.421 10.4034 22.3947 10.4014 22.3689C10.3984 22.343 10.3939 22.3182 10.388 22.2944C10.383 22.2705 10.3746 22.2491 10.3626 22.2303C10.3517 22.2104 10.3363 22.1935 10.3164 22.1796C10.2976 22.1657 10.2727 22.1558 10.2419 22.1498V22.1468C10.3065 22.1289 10.3532 22.0956 10.382 22.047C10.4118 21.9983 10.4267 21.9417 10.4267 21.8771C10.4267 21.7906 10.3979 21.7226 10.3403 21.6729C10.2837 21.6232 10.2047 21.5984 10.1033 21.5984H9.6026ZM10.0392 22.0887H9.74417V21.7176H10.0959C10.1624 21.7176 10.2106 21.7345 10.2404 21.7683C10.2702 21.8021 10.2851 21.8458 10.2851 21.8994C10.2851 21.9382 10.2782 21.97 10.2643 21.9948C10.2514 22.0187 10.2335 22.038 10.2106 22.0529C10.1888 22.0668 10.1629 22.0763 10.1331 22.0812C10.1033 22.0862 10.072 22.0887 10.0392 22.0887Z" fill="white"></path></g><defs><clipPath id="clip0_6807_143221"><rect fill="white" height="25.232" rx="1.6096" width="40"></rect></clipPath><clipPath id="clip1_6807_143221"><rect fill="white" height="2.98928" transform="translate(3.16333 3.39587)" width="17.1764"></rect></clipPath></defs></svg>