<svg width="43" height="27" viewBox="0 0 42 26" fill="none" xmlns="http://www.w3.org/2000/svg">
<g clip-path="url(#clip0_4877_19331)">
<path d="M40.7539 24.8512H32.0252H20.7912H0.753906V0.851196H14.0657H26.2971H35.8191H40.7539V24.8512Z" fill="#ED0000"/>
<path fill-rule="evenodd" clip-rule="evenodd" d="M20.2798 0.851196C25.5137 2.37017 28.5175 7.44868 27.2323 13.4741C26.2012 18.3543 22.6065 22.6029 18.1712 24.8512H2.14119C1.37501 24.8512 0.753906 24.2301 0.753906 23.4639V13.2543C1.03917 12.6136 1.24582 12.1509 1.39079 11.8263C1.58156 11.3991 1.66555 11.211 1.68138 11.1712C3.63897 6.19883 8.21655 2.17471 13.3409 0.851196H20.2798ZM6.12412 13.2493C6.12412 19.4103 9.79511 24.41 14.3296 24.41C18.8641 24.41 22.5351 19.4103 22.5351 13.2493C22.5351 7.08842 18.8641 2.08865 14.3296 2.08865C9.79511 2.08865 6.12412 7.08842 6.12412 13.2493Z" fill="#FF5362"/>
<g clip-path="url(#clip1_4877_19331)">
<path d="M31.8942 19.4622C31.8942 18.7329 32.2638 18.0824 32.8406 17.6617C32.4155 17.3517 31.8792 17.1663 31.2948 17.1663C29.9189 17.1663 28.8027 18.1945 28.8027 19.4622C28.8027 20.7299 29.9189 21.7581 31.2948 21.7581C31.8792 21.7581 32.4155 21.5727 32.8406 21.2627C32.2638 20.842 31.8942 20.1929 31.8942 19.4622Z" fill="#D72027"/>
<path d="M31.8945 19.4621C31.8945 20.1914 32.2641 20.8419 32.8409 21.2626C33.4177 20.8419 33.7873 20.1928 33.7873 19.4621C33.7873 18.7314 33.4177 18.0823 32.8409 17.6616C32.2641 18.0823 31.8945 18.7314 31.8945 19.4621Z" fill="#F26828"/>
<path d="M36.7734 20.7159V20.7339H36.8035V20.8017H36.826V20.7339H36.8561V20.7159H36.7749H36.7734ZM36.9492 20.7159L36.9267 20.7713L36.9041 20.7159H36.8726V20.8017H36.8951V20.7422L36.9161 20.7934H36.9387L36.9597 20.7422V20.8017H36.9807V20.7159H36.9492Z" fill="white"/>
<path d="M34.3866 17.1663C33.8022 17.1663 33.2659 17.3517 32.8408 17.6617C33.4177 18.0824 33.7872 18.7315 33.7872 19.4622C33.7872 20.1929 33.4177 20.842 32.8408 21.2627C33.2659 21.5727 33.8022 21.7581 34.3866 21.7581C35.7626 21.7581 36.8787 20.7299 36.8787 19.4622C36.8787 18.1945 35.7626 17.1663 34.3866 17.1663Z" fill="#F99E23"/>
<path d="M34.3866 17.1663C35.7626 17.1663 36.8788 18.1945 36.8788 19.4622C36.8788 20.7299 35.7626 21.7581 34.3866 21.7581C33.8023 21.7581 33.266 21.5727 32.8409 21.2613C32.4158 21.5727 31.8795 21.7581 31.2952 21.7581C29.9192 21.7581 28.803 20.7299 28.803 19.4622C28.803 18.1945 29.9192 17.1663 31.2952 17.1663C31.8795 17.1663 32.4158 17.3517 32.8409 17.6617C33.266 17.3517 33.8023 17.1663 34.3866 17.1663ZM34.3866 17.0099C33.8248 17.0099 33.2931 17.1677 32.8409 17.4666C32.3887 17.1677 31.857 17.0099 31.2952 17.0099C29.8275 17.0099 28.6333 18.1101 28.6333 19.4622C28.6333 20.8143 29.8275 21.9145 31.2952 21.9145C31.857 21.9145 32.3887 21.7567 32.8409 21.4578C33.2931 21.7567 33.8248 21.9145 34.3866 21.9145C35.8543 21.9145 37.0485 20.8143 37.0485 19.4622C37.0485 18.1101 35.8543 17.0099 34.3866 17.0099Z" fill="white"/>
</g>
<g clip-path="url(#clip2_4877_19331)">
<path d="M12.235 12.1191C12.271 12.1634 12.2996 12.2132 12.3191 12.2672C12.3386 12.3212 12.3491 12.3779 12.3491 12.4374C12.3491 12.4969 12.3386 12.555 12.3191 12.6076C12.2996 12.6602 12.271 12.71 12.235 12.7557C12.1854 12.8166 12.2004 12.9024 12.265 12.9467C12.3311 12.9924 12.4242 12.9785 12.4723 12.9176C12.5264 12.8512 12.5699 12.7751 12.5985 12.6948C12.6285 12.6132 12.6436 12.5274 12.6436 12.4374C12.6436 12.3475 12.627 12.2616 12.5985 12.18C12.5684 12.0983 12.5264 12.0236 12.4723 11.9572C12.4227 11.8963 12.3311 11.8838 12.265 11.9295C12.1989 11.9752 12.1854 12.0596 12.235 12.1205" fill="white"/>
<path d="M12.744 11.8645C12.8551 12.032 12.9197 12.2271 12.9197 12.4375C12.9197 12.6478 12.8551 12.8429 12.744 13.0104C12.7004 13.0741 12.7229 13.1585 12.792 13.1986C12.8611 13.2387 12.9528 13.218 12.9963 13.1543C13.136 12.9467 13.2172 12.7004 13.2157 12.4375C13.2157 12.1745 13.1345 11.9296 12.9963 11.7206C12.9528 11.6569 12.8626 11.6362 12.792 11.6763C12.7229 11.7164 12.7004 11.7995 12.744 11.8645Z" fill="white"/>
<path d="M13.2833 11.6043C13.438 11.8493 13.5266 12.133 13.5266 12.4374C13.5266 12.7419 13.438 13.0256 13.2817 13.2705C13.2412 13.3356 13.2637 13.4186 13.3358 13.4574C13.4064 13.4961 13.4981 13.474 13.5386 13.4089C13.7189 13.1239 13.8225 12.7917 13.8225 12.4388C13.8225 12.0859 13.7189 11.7538 13.5386 11.4687C13.4966 11.4036 13.4064 11.3815 13.3358 11.4202C13.2652 11.459 13.2412 11.542 13.2833 11.6071" fill="white"/>
<path d="M13.8211 11.3442C14.0209 11.6666 14.1335 12.0389 14.1335 12.4375C14.1335 12.836 14.0194 13.2083 13.8211 13.5308C13.7805 13.5958 13.8061 13.6802 13.8767 13.7176C13.9488 13.755 14.0389 13.7314 14.0795 13.6664C14.3033 13.3038 14.431 12.8845 14.431 12.4375C14.431 11.9905 14.3033 11.5711 14.0795 11.2085C14.0389 11.1435 13.9488 11.12 13.8767 11.1573C13.8061 11.1947 13.7805 11.2777 13.8211 11.3442Z" fill="white"/>
</g>
<g clip-path="url(#clip3_4877_19331)">
<path d="M20.9023 7.25601H20.8752V7.08302L20.8016 7.25601H20.7851L20.7115 7.08302V7.25601H20.6844V7.06226H20.7325L20.7926 7.2048L20.8527 7.06226H20.9008V7.25601H20.9023ZM20.6454 7.08163H20.5778V7.25601H20.5507V7.08163H20.4831V7.06364H20.6454V7.08163ZM9.80716 6.51838C9.80716 6.94186 9.53978 7.29891 9.05007 7.29891C8.56036 7.29891 8.29297 6.94186 8.29297 6.51838C8.29297 6.0949 8.56036 5.73784 9.05007 5.73784C9.53978 5.73784 9.80716 6.0949 9.80716 6.51838ZM8.48825 6.51838C8.48825 6.83253 8.67452 7.14806 9.05007 7.14806C9.42561 7.14806 9.61188 6.83391 9.61188 6.51838C9.61188 6.20284 9.42561 5.88869 9.05007 5.88869C8.67452 5.88869 8.48825 6.20284 8.48825 6.51838ZM9.77261 5.78075H9.99043L10.4937 7.0761H10.4997L10.9969 5.78075H11.1982L10.5988 7.25601H10.3915L9.77412 5.78075H9.77261ZM11.3784 6.56681C11.3814 6.82976 11.5302 7.14668 11.9057 7.14668C12.1911 7.14668 12.3458 6.99168 12.4089 6.76887H12.6042C12.5201 7.10378 12.3098 7.29753 11.9057 7.29753C11.3965 7.29753 11.1832 6.93771 11.1832 6.51699C11.1832 6.12811 11.398 5.73646 11.9057 5.73646C12.4134 5.73646 12.6253 6.15164 12.6102 6.56543H11.3784V6.56681ZM12.4149 6.41597C12.4059 6.14472 12.2227 5.89008 11.9057 5.89008C11.5887 5.89008 11.4085 6.14749 11.3784 6.41597H12.4149ZM14.6201 6.21253C14.6111 5.98972 14.4249 5.89008 14.201 5.89008C14.0268 5.89008 13.8225 5.95235 13.8225 6.14472C13.8225 6.30525 14.0208 6.36199 14.1545 6.39382L14.4158 6.4478C14.6397 6.47963 14.8725 6.60003 14.8725 6.85605C14.8725 7.17574 14.5285 7.29891 14.2296 7.29891C13.857 7.29891 13.6032 7.13838 13.5716 6.77856H13.7669C13.7819 7.02213 13.9772 7.14668 14.2386 7.14668C14.4219 7.14668 14.6757 7.07195 14.6757 6.86713C14.6757 6.69552 14.5015 6.63878 14.3242 6.59864L14.0734 6.54744C13.8195 6.48516 13.6272 6.4049 13.6272 6.15302C13.6272 5.85271 13.9472 5.73784 14.2296 5.73784C14.5495 5.73784 14.8034 5.89284 14.8154 6.21253H14.6201ZM15.3517 5.78075H15.6777V5.93298H15.3517V6.92802C15.3517 7.04565 15.3697 7.11346 15.5094 7.12177C15.565 7.12177 15.6206 7.119 15.6777 7.11346V7.26846C15.6191 7.26846 15.5635 7.274 15.5034 7.274C15.242 7.274 15.1519 7.19373 15.1564 6.94186V5.93298H14.9671V5.78075H15.1564V5.33789H15.3517V5.78075ZM17.2279 6.51838C17.2279 6.94186 16.9605 7.29891 16.4708 7.29891C15.9811 7.29891 15.7137 6.94186 15.7137 6.51838C15.7137 6.0949 15.9811 5.73784 16.4708 5.73784C16.9605 5.73784 17.2279 6.0949 17.2279 6.51838ZM15.909 6.51838C15.909 6.83253 16.0953 7.14806 16.4708 7.14806C16.8464 7.14806 17.0326 6.83391 17.0326 6.51838C17.0326 6.20284 16.8464 5.88869 16.4708 5.88869C16.0953 5.88869 15.909 6.20284 15.909 6.51838ZM18.6129 6.24436C18.5604 6.02432 18.4146 5.89008 18.1593 5.89008C17.7837 5.89008 17.5975 6.20423 17.5975 6.51976C17.5975 6.8353 17.7837 7.14945 18.1593 7.14945C18.4011 7.14945 18.5994 6.97507 18.625 6.72873H18.8202C18.7677 7.08302 18.5168 7.30029 18.1593 7.30029C17.6696 7.30029 17.4022 6.94324 17.4022 6.51976C17.4022 6.09628 17.6696 5.73923 18.1593 5.73923C18.5003 5.73923 18.7647 5.90807 18.8082 6.24574H18.6129V6.24436ZM19.026 5.21472H19.2213V6.49624L20.1091 5.78213H20.369L19.6855 6.32878L20.4155 7.25739H20.1707L19.5383 6.45333L19.2213 6.6969V7.25739H19.026V5.21611V5.21472ZM13.5251 5.76691V5.94543C13.2411 5.98418 13.0564 6.20146 13.0564 6.46856V7.25463H12.8611V5.77936H13.0414V6.12534H13.0474C13.1315 5.92467 13.3012 5.79459 13.5251 5.76552V5.76691Z" fill="white"/>
<path d="M5.18217 5.20361H7.92364V7.72927H6.5146C6.9998 7.57012 7.4099 7.17017 7.51805 6.70102C7.65776 6.09209 7.23715 5.59942 6.57619 5.59942C5.97982 5.59942 5.39247 6.00214 5.18066 6.52803V5.20361H5.18217ZM7.14101 6.69271C7.14101 7.21584 6.7895 7.6407 6.35687 7.6407C5.92424 7.6407 5.57273 7.21722 5.57273 6.69271C5.57273 6.16821 5.92424 5.74611 6.35687 5.74611C6.7895 5.74611 7.14101 6.16959 7.14101 6.69271Z" fill="white"/>
</g>
<g clip-path="url(#clip4_4877_19331)">
<path fill-rule="evenodd" clip-rule="evenodd" d="M33.4129 6.72868L33.4039 6.7356C33.2702 6.86015 33.1169 6.92658 32.9577 6.92658C32.6257 6.92658 32.3854 6.69685 32.3854 6.38131C32.3854 6.06578 32.6257 5.83605 32.9577 5.83605C33.1169 5.83605 33.2702 5.90248 33.4039 6.02841L33.4129 6.03533L33.6262 5.7973L33.6202 5.79038C33.4429 5.59801 33.2296 5.50391 32.9682 5.50391C32.7069 5.50391 32.4665 5.58556 32.2938 5.73225C32.106 5.89141 32.0068 6.1156 32.0068 6.37993C32.0068 6.64426 32.106 6.86984 32.2938 7.02899C32.4665 7.17707 32.7069 7.25734 32.9682 7.25734C33.2296 7.25734 33.4429 7.16323 33.6202 6.97087L33.6262 6.96533L33.4129 6.72729V6.72868Z" fill="white"/>
<path fill-rule="evenodd" clip-rule="evenodd" d="M33.8408 7.22688H34.2179V5.53296H33.8408V7.22688Z" fill="white"/>
<path fill-rule="evenodd" clip-rule="evenodd" d="M35.693 6.85873C35.5923 6.91547 35.4992 6.94315 35.4151 6.94315C35.2934 6.94315 35.2378 6.88364 35.2378 6.75217V5.854H35.6209V5.5357H35.2378V5.00842L34.8683 5.1911V5.5357H34.5498V5.854H34.8683V6.81029C34.8683 7.07047 35.035 7.249 35.2859 7.25315C35.4556 7.25591 35.5578 7.21025 35.6194 7.17565L35.6239 7.17288L35.714 6.84627L35.6915 6.85873H35.693Z" fill="white"/>
<path fill-rule="evenodd" clip-rule="evenodd" d="M36.0039 7.22688H36.381V5.53296H36.0039V7.22688Z" fill="white"/>
<path fill-rule="evenodd" clip-rule="evenodd" d="M36.6022 5.23543C36.2582 4.78704 35.6873 4.51855 35.106 4.51855C34.5246 4.51855 33.9538 4.78704 33.6098 5.23543L33.5918 5.25895H34.0244L34.0289 5.2548C34.3234 4.97387 34.7094 4.82579 35.1045 4.82579C35.4996 4.82579 35.8856 4.97387 36.18 5.2548L36.1846 5.25895H36.6172L36.5992 5.23543H36.6022Z" fill="white"/>
<path d="M37.0556 5.12061C37.0556 5.13999 37.0406 5.14829 37.021 5.14829H36.964V5.09155H37.021C37.0406 5.09155 37.0556 5.10124 37.0556 5.11923V5.12061ZM37.0931 5.12061C37.0931 5.07909 37.0616 5.0611 37.0225 5.0611H36.9279V5.26039H36.964V5.18427H37.006L37.0481 5.26039H37.0916L37.0481 5.18012C37.0766 5.1732 37.0946 5.15244 37.0946 5.122L37.0931 5.12061ZM37.1998 5.16351C37.1998 5.05972 37.1142 4.98083 37.0015 4.98083C36.8888 4.98083 36.8032 5.05972 36.8032 5.16351C36.8032 5.26731 36.8888 5.34481 37.0015 5.34481C37.1142 5.34481 37.1998 5.26592 37.1998 5.16351ZM37.1683 5.16351C37.1683 5.2507 37.0961 5.31574 37.003 5.31574C36.9099 5.31574 36.8378 5.24932 36.8378 5.16351C36.8378 5.07771 36.9099 5.01128 37.003 5.01128C37.0961 5.01128 37.1683 5.07771 37.1683 5.16351Z" fill="white"/>
</g>
<path d="M5.03711 20.1263V21.315H5.82453V21.1818H5.19526V20.1263H5.03711Z" fill="white"/>
<path d="M7.49923 21.315L7.8172 20.1263H7.65905L7.41766 21.1152H7.41433L7.1513 20.1263H6.97984L6.71348 21.1152H6.71015L6.47708 20.1263H6.3156L6.62025 21.315H6.78506L7.05974 20.3161H7.06307L7.33442 21.315H7.49923Z" fill="white"/>
<path d="M8.13078 20.8239L8.33222 20.2695H8.33554L8.53365 20.8239H8.13078ZM8.24898 20.1263L7.78618 21.315H7.94766L8.08084 20.957H8.58359L8.71344 21.315H8.88824L8.42378 20.1263H8.24898Z" fill="white"/>
<path d="M9.0055 20.1263V21.315H9.79292V21.1818H9.16365V20.1263H9.0055Z" fill="white"/>
<path d="M9.93053 20.1263V21.315H10.0887V20.8988L10.2868 20.714L10.7163 21.315H10.9161L10.395 20.6058L10.8961 20.1263H10.6913L10.0887 20.719V20.1263H9.93053Z" fill="white"/>
<path d="M11.0409 20.1263V21.315H11.8666V21.1818H11.1991V20.7706H11.8167V20.6374H11.1991V20.2595H11.8616V20.1263H11.0409Z" fill="white"/>
<path d="M12.0586 20.1263V21.315H12.2168V20.8072H12.603C12.6418 20.8072 12.6729 20.8133 12.6962 20.8255C12.7195 20.8366 12.7384 20.8522 12.7528 20.8721C12.7672 20.891 12.7778 20.9138 12.7844 20.9404C12.7911 20.9659 12.7966 20.9931 12.8011 21.022C12.8066 21.0508 12.81 21.0802 12.8111 21.1102C12.8122 21.1402 12.8133 21.1685 12.8144 21.1951C12.8155 21.2206 12.8177 21.2439 12.8211 21.265C12.8255 21.2861 12.8333 21.3028 12.8444 21.315H13.0208C13.0042 21.295 12.9914 21.2722 12.9825 21.2467C12.9748 21.2201 12.9687 21.1923 12.9642 21.1635C12.9598 21.1346 12.957 21.1052 12.9559 21.0752C12.9548 21.0453 12.9531 21.0159 12.9509 20.987C12.9476 20.9582 12.9426 20.9304 12.9359 20.9038C12.9304 20.8771 12.9209 20.8533 12.9076 20.8322C12.8954 20.81 12.8782 20.7911 12.856 20.7756C12.8349 20.7601 12.8072 20.749 12.7728 20.7423V20.739C12.8449 20.719 12.8971 20.6818 12.9293 20.6274C12.9626 20.573 12.9792 20.5098 12.9792 20.4376C12.9792 20.3411 12.947 20.2651 12.8827 20.2096C12.8194 20.1541 12.7312 20.1263 12.618 20.1263H12.0586ZM12.5464 20.674H12.2168V20.2595H12.6096C12.684 20.2595 12.7378 20.2784 12.7711 20.3161C12.8044 20.3539 12.8211 20.4027 12.8211 20.4626C12.8211 20.5059 12.8133 20.5414 12.7977 20.5692C12.7833 20.5958 12.7633 20.6174 12.7378 20.6341C12.7134 20.6496 12.6845 20.6602 12.6513 20.6657C12.618 20.6713 12.583 20.674 12.5464 20.674Z" fill="white"/>
<path d="M9.43449 10.6335H5.57239C5.32018 10.6335 5.11572 10.8219 5.11572 11.0543V13.5647C5.11572 13.797 5.32018 13.9854 5.57239 13.9854H9.43449C9.68669 13.9854 9.89115 13.797 9.89115 13.5647V11.0543C9.89115 10.8219 9.68669 10.6335 9.43449 10.6335Z" fill="#BCBEC0"/>
<path fill-rule="evenodd" clip-rule="evenodd" d="M5.11523 11.7061H6.31246V11.756H5.11523V11.7061Z" fill="#231F20"/>
<path fill-rule="evenodd" clip-rule="evenodd" d="M5.11523 12.8658H6.31246V12.9158H5.11523V12.8658Z" fill="#231F20"/>
<path fill-rule="evenodd" clip-rule="evenodd" d="M9.52541 11.756H8.32818V11.7061H9.52541V11.756Z" fill="#231F20"/>
<path fill-rule="evenodd" clip-rule="evenodd" d="M9.52541 12.9158H8.32818V12.8658H9.52541V12.9158Z" fill="#231F20"/>
<path fill-rule="evenodd" clip-rule="evenodd" d="M7.32102 13.5262C6.99188 13.5262 6.69116 13.4403 6.42277 13.2928L6.44683 13.249C6.70839 13.3928 7.0009 13.4762 7.32102 13.4762C7.64109 13.4762 7.92559 13.3942 8.18713 13.2491L8.21137 13.2927C7.94297 13.4417 7.65019 13.5262 7.32102 13.5262Z" fill="#231F20"/>
<path fill-rule="evenodd" clip-rule="evenodd" d="M6.42919 11.3275C6.69787 11.1784 6.99076 11.0998 7.31963 11.0998C7.64857 11.0998 7.94056 11.1798 8.20911 11.3275L8.18505 11.3712C7.92366 11.2275 7.63993 11.1498 7.31963 11.1498C6.99924 11.1498 6.71468 11.2262 6.45342 11.3712L6.42919 11.3275Z" fill="#231F20"/>
<path d="M6.43731 11.1511C6.43731 10.9655 6.39453 10.7899 6.31788 10.634H6.37326C6.44658 10.7911 6.48725 10.9665 6.48725 11.1511C6.48725 11.3614 6.43454 11.5596 6.34094 11.7324C6.43454 11.9053 6.48725 12.1034 6.48725 12.3137C6.48725 12.5239 6.43454 12.7221 6.34094 12.895C6.43454 13.0678 6.48725 13.266 6.48725 13.4762C6.48725 13.661 6.44652 13.8365 6.37309 13.9937H6.31771C6.39447 13.8377 6.43731 13.662 6.43731 13.4762C6.43731 13.2697 6.38432 13.0755 6.29064 12.9071L6.28388 12.895L6.29064 12.8828C6.38432 12.7144 6.43731 12.5202 6.43731 12.3137C6.43731 12.1071 6.38432 11.9129 6.29064 11.7446L6.28388 11.7324L6.29064 11.7203C6.38432 11.5519 6.43731 11.3577 6.43731 11.1511Z" fill="#231F20"/>
<path d="M8.15338 11.1511C8.15338 10.9665 8.19406 10.7911 8.26738 10.634H8.32276C8.24611 10.7899 8.20333 10.9655 8.20333 11.1511C8.20333 11.3577 8.25631 11.5519 8.35 11.7203L8.35676 11.7324L8.35 11.7446C8.25631 11.9129 8.20333 12.1071 8.20333 12.3137C8.20333 12.5202 8.25631 12.7144 8.35 12.8828L8.35676 12.895L8.35 12.9071C8.25631 13.0755 8.20333 13.2697 8.20333 13.4762C8.20333 13.6616 8.24601 13.837 8.32248 13.9928H8.26712C8.19396 13.8359 8.15338 13.6607 8.15338 13.4762C8.15338 13.266 8.2061 13.0678 8.2997 12.895C8.2061 12.7221 8.15338 12.5239 8.15338 12.3137C8.15338 12.1034 8.2061 11.9053 8.2997 11.7324C8.2061 11.5596 8.15338 11.3614 8.15338 11.1511Z" fill="#231F20"/>
</g>
<defs>
<clipPath id="clip0_4877_19331">
<rect x="0.753906" y="0.851196" width="40" height="24" rx="1.38728" fill="white"/>
</clipPath>
<clipPath id="clip1_4877_19331">
<rect width="8.56242" height="5.12052" fill="white" transform="translate(28.5444 16.9047)"/>
</clipPath>
<clipPath id="clip2_4877_19331">
<rect width="2.22607" height="2.59586" fill="white" transform="translate(12.2051 11.1395)"/>
</clipPath>
<clipPath id="clip3_4877_19331">
<rect width="15.7218" height="2.52566" fill="white" transform="translate(5.18066 5.20361)"/>
</clipPath>
<clipPath id="clip4_4877_19331">
<rect width="5.19303" height="2.73879" fill="white" transform="translate(32.0068 4.51855)"/>
</clipPath>
</defs>
</svg>
