<svg width="33" height="33" viewBox="0 0 33 33" fill="none" xmlns="http://www.w3.org/2000/svg">
  <path fill-rule="evenodd" clip-rule="evenodd"
    d="M28.3333 16.5C28.3333 23.1274 22.9607 28.5 16.3333 28.5C9.70583 28.5 4.33325 23.1274 4.33325 16.5C4.33325 9.87258 9.70583 4.5 16.3333 4.5C22.9607 4.5 28.3333 9.87258 28.3333 16.5ZM30.3333 16.5C30.3333 24.232 24.0652 30.5 16.3333 30.5C8.60127 30.5 2.33325 24.232 2.33325 16.5C2.33325 8.76801 8.60127 2.5 16.3333 2.5C24.0652 2.5 30.3333 8.76801 30.3333 16.5ZM15.3333 8.5V16.5V17.118L15.886 17.3944L20.886 19.8944L21.7805 18.1056L17.3333 15.882V8.5H15.3333Z"
    fill="#252525" />
</svg>