<svg viewBox="0 0 43 42" fill="none" xmlns="http://www.w3.org/2000/svg">
  <path
    d="M21.3105 6.01611L5.56055 18.8996V37.6246C5.56055 39.0745 6.73567 40.2496 8.18555 40.2496H16.9355V30.6246C16.9355 30.1416 17.3275 29.7496 17.8105 29.7496H24.8105C25.2935 29.7496 25.6855 30.1416 25.6855 30.6246V40.2496H34.4355C35.8854 40.2496 37.0605 39.0745 37.0605 37.6246V18.8996L21.3105 6.01611Z"
    fill="#AFB3BA" />
  <path
    d="M40.5607 19.2498C40.3594 19.2498 40.1634 19.1798 40.0077 19.052L21.3107 3.75528L2.61454 19.052C2.23567 19.3522 1.68529 19.2883 1.38517 18.9094C1.09117 18.5393 1.14542 18.002 1.50679 17.6975L20.7568 1.94753C21.0788 1.68416 21.5425 1.68416 21.8645 1.94753L41.1145 17.6975C41.4882 18.0038 41.5442 18.555 41.2379 18.9287C41.0717 19.1317 40.8232 19.2498 40.5607 19.2498Z"
    fill="#AFB3BA" />
</svg>
