<svg width="12" height="12" viewBox="0 0 12 12" fill="none" xmlns="http://www.w3.org/2000/svg">
  <g clip-path="url(#clip0_1031_29750)">
    <path fill-rule="evenodd" clip-rule="evenodd"
          d="M6.49997 9.20833L4.87498 9.20834C4.57583 9.20834 4.33331 8.96582 4.33331 8.66667V1.625C4.33331 1.32585 4.57583 1.08334 4.87498 1.08334H9.51315C9.74687 1.08334 9.95424 1.23325 10.0275 1.45518L11.0579 4.57616C11.1114 4.73806 11.2379 4.86534 11.3995 4.91972L12.6311 5.33419C12.8515 5.40837 13 5.61499 13 5.84756V8.66667C13 8.96582 12.7575 9.20834 12.4583 9.20834L10.8333 9.20833C10.8333 10.405 9.86325 11.375 8.66664 11.375C7.47002 11.375 6.49997 10.405 6.49997 9.20833ZM8.66664 10.2917C9.26495 10.2917 9.74997 9.80664 9.74997 9.20833C9.74997 8.61003 9.26495 8.125 8.66664 8.125C8.06833 8.125 7.5833 8.61003 7.5833 9.20833C7.5833 9.80664 8.06833 10.2917 8.66664 10.2917ZM5.9583 2.4375C5.9583 2.28792 6.07956 2.16667 6.22914 2.16667H9.00679C9.1264 2.16667 9.23184 2.24512 9.26621 2.35968L10.0208 4.875H5.9583V2.4375Z"
          fill="#2F3337"/>
    <path d="M3.25002 1.625H0.541687" stroke="#2F3337" stroke-width="1.08333" stroke-miterlimit="10"
          stroke-linecap="round" stroke-linejoin="round"/>
    <path d="M3.25 3.79166H1.625" stroke="#2F3337" stroke-width="1.08333" stroke-miterlimit="10"
          stroke-linecap="round" stroke-linejoin="round"/>
    <path d="M3.24998 5.95834H2.70831" stroke="#2F3337" stroke-width="1.08333"
          stroke-miterlimit="10" stroke-linecap="round" stroke-linejoin="round"/>
  </g>
  <defs>
    <clipPath id="clip0_1031_29750">
      <rect width="12" height="12" fill="white"/>
    </clipPath>
  </defs>
</svg>
