<svg width="43" height="27" viewBox="0 0 43 27" fill="none" xmlns="http://www.w3.org/2000/svg">
<rect x="0.587891" y="0.729492" width="41" height="25" rx="1.5" fill="white" stroke="#DADCDF"/>
<path d="M21.7748 10.5586C20.2649 10.5586 19.0391 11.7388 19.0391 13.197C19.0391 14.7474 20.2113 15.9043 21.7748 15.9043C23.3009 15.9043 24.5035 14.7304 24.5035 13.2265C24.5044 11.7316 23.3098 10.5586 21.7748 10.5586Z" fill="#FA7000"/>
<path d="M6.24407 10.6553H4.77344V15.7899H6.23513C7.01333 15.7899 7.57443 15.6048 8.06672 15.1963C8.65104 14.7126 8.9986 13.9812 8.9986 13.2239C8.9977 11.7076 7.86659 10.6553 6.24407 10.6553ZM7.4145 14.5114C7.09643 14.7957 6.6908 14.92 6.04304 14.92H5.775V11.5243H6.04393C6.69169 11.5243 7.08124 11.6405 7.41539 11.9392C7.75937 12.2476 7.96665 12.7242 7.96665 13.2168C7.96576 13.7112 7.75937 14.2047 7.4145 14.5114Z" fill="#444444"/>
<path d="M10.4568 10.6553H9.45898V15.79H10.4568V10.6553Z" fill="#444444"/>
<path d="M12.9062 12.6233C12.304 12.4024 12.128 12.2549 12.128 11.9777C12.128 11.655 12.4425 11.41 12.8749 11.41C13.1742 11.41 13.4217 11.5298 13.6844 11.8231L14.2053 11.14C13.7755 10.7609 13.26 10.5696 12.6989 10.5696C11.7911 10.5696 11.0987 11.2017 11.0987 12.0376C11.0987 12.7475 11.4203 13.1078 12.3594 13.4494C12.7516 13.5862 12.9509 13.6791 13.0527 13.7426C13.2528 13.8723 13.352 14.0573 13.352 14.2719C13.352 14.6894 13.0214 14.997 12.5738 14.997C12.0976 14.997 11.7125 14.7583 11.482 14.3104L10.8369 14.9362C11.2979 15.6121 11.851 15.9143 12.6131 15.9143C13.6522 15.9143 14.384 15.2187 14.384 14.2272C14.3849 13.41 14.0453 13.0399 12.9062 12.6233Z" fill="#444444"/>
<path d="M14.6982 13.224C14.6982 14.7341 15.883 15.9044 17.4072 15.9044C17.837 15.9044 18.206 15.8195 18.6599 15.6049V14.4247C18.2587 14.828 17.9067 14.9871 17.451 14.9871C16.4432 14.9871 15.7293 14.2575 15.7293 13.2168C15.7293 12.2333 16.4664 11.4537 17.4063 11.4537C17.8808 11.4537 18.2435 11.6218 18.659 12.0313V10.8529C18.2203 10.6312 17.8602 10.5391 17.4269 10.5391C15.9125 10.5391 14.6982 11.7318 14.6982 13.224Z" fill="#444444"/>
<path d="M26.7673 14.1028L25.3994 10.6553H24.3076L26.4832 15.9196H27.0202L29.2377 10.6553H28.1549L26.7673 14.1028Z" fill="#444444"/>
<path d="M29.6924 15.7899H32.53V14.92H30.6939V13.5342H32.4603V12.6642H30.6939V11.5243H32.53V10.6553H29.6924V15.7899Z" fill="#444444"/>
<path d="M36.4908 12.1698C36.4908 11.2077 35.8314 10.6543 34.6762 10.6543H33.1895V15.7891H34.1928V13.7246H34.3232L35.7054 15.7891H36.9375L35.323 13.6245C36.0771 13.4716 36.4908 12.9557 36.4908 12.1698ZM34.4841 13.0165H34.1937V11.4634H34.5002C35.1256 11.4634 35.4606 11.7263 35.4606 12.2261C35.4606 12.7393 35.1256 13.0165 34.4841 13.0165Z" fill="#444444"/>
</svg>
