<svg width="24" height="24" viewBox="0 0 24 24" fill="none" xmlns="http://www.w3.org/2000/svg">
<path d="M13.4 12.6004C12.989 12.8818 12.4977 13.0222 12 13.0004C11.5023 13.0222 11.011 12.8818 10.6 12.6004L0 6.90039V17.0004C0 17.796 0.31607 18.5591 0.87868 19.1217C1.44129 19.6843 2.20435 20.0004 3 20.0004H21C21.7956 20.0004 22.5587 19.6843 23.1213 19.1217C23.6839 18.5591 24 17.796 24 17.0004V6.90039L13.4 12.6004Z" fill="#2F3337"/>
<path d="M21 0H3.00001C2.20437 0 1.4413 0.316071 0.878694 0.87868C0.316085 1.44129 1.47444e-05 2.20435 1.47444e-05 3V4C-0.00094077 4.18032 0.0445606 4.35785 0.132135 4.51549C0.219709 4.67312 0.346405 4.80555 0.500015 4.9L11.5 10.9C11.6536 10.9808 11.8272 11.0156 12 11C12.1728 11.0156 12.3465 10.9808 12.5 10.9L23.5 4.9C23.6536 4.80555 23.7803 4.67312 23.8679 4.51549C23.9555 4.35785 24.001 4.18032 24 4V3C24 2.20435 23.6839 1.44129 23.1213 0.87868C22.5587 0.316071 21.7957 0 21 0Z" fill="#2F3337"/>
</svg>
