<svg width="271" height="271" viewBox="0 0 271 271" fill="none" xmlns="http://www.w3.org/2000/svg">
  <path d="M47 269L47 84" stroke="#DADCDF" stroke-width="4" stroke-miterlimit="10" stroke-linecap="square" />
  <path d="M69.7143 2H24.5714L2 65.3056V74.3492H92.2858V65.3056L69.7143 2Z" stroke="#DADCDF" stroke-width="4"
    stroke-miterlimit="10" stroke-linecap="square" />
  <path d="M74.2286 268.788H20.0571" stroke="#DADCDF" stroke-width="4" stroke-miterlimit="10" stroke-linecap="square" />
  <path d="M133.699 185.102H223.9" stroke="#DADCDF" stroke-width="4" stroke-miterlimit="10" stroke-linecap="square" />
  <path d="M114.37 269V256.093" stroke="#DADCDF" stroke-width="4" stroke-miterlimit="10" stroke-linecap="square" />
  <path d="M243.228 269V256.093" stroke="#DADCDF" stroke-width="4" stroke-miterlimit="10" stroke-linecap="square" />
  <path
    d="M246.45 156.061V104.431C246.45 100.152 244.753 96.0482 241.732 93.0225C238.711 89.9967 234.615 88.2969 230.343 88.2969H127.256C122.984 88.2969 118.887 89.9967 115.866 93.0225C112.845 96.0482 111.148 100.152 111.148 104.431V156.061"
    stroke="#DADCDF" stroke-width="4" stroke-miterlimit="10" stroke-linecap="square" />
  <path
    d="M269 178.648C269 172.658 266.624 166.912 262.395 162.676C258.166 158.44 252.431 156.06 246.45 156.06C240.469 156.06 234.733 158.44 230.504 162.676C226.275 166.912 223.9 172.658 223.9 178.648V220.597H133.699V178.648C133.701 174.764 132.703 170.944 130.802 167.559C128.9 164.173 126.159 161.336 122.844 159.321C119.528 157.306 115.749 156.182 111.873 156.057C107.997 155.933 104.154 156.811 100.716 158.608C97.278 160.405 94.3606 163.06 92.2459 166.316C90.1311 169.573 88.8905 173.32 88.6438 177.197C88.3971 181.074 89.1528 184.949 90.8377 188.447C92.5226 191.946 95.0799 194.951 98.2625 197.17V239.958C98.2625 244.237 99.9596 248.341 102.98 251.367C106.001 254.393 110.098 256.093 114.37 256.093H243.228C247.5 256.093 251.597 254.393 254.618 251.367C257.639 248.341 259.336 244.237 259.336 239.958V197.17C262.319 195.094 264.757 192.324 266.44 189.099C268.123 185.873 269.001 182.288 269 178.648Z"
    stroke="#DADCDF" stroke-width="4" stroke-miterlimit="10" stroke-linecap="square" />
  <path
    d="M162.439 181.421C160.874 183.964 157.645 184.757 155.152 183.21L139.245 173.337C134.051 170.043 132.443 163.05 135.652 157.719C138.862 152.388 145.674 150.737 150.867 154.032L151.385 154.36C152.013 154.759 152.834 154.557 153.225 153.908L153.541 153.384C156.75 148.053 163.562 146.402 168.755 149.696C173.949 152.99 175.557 159.983 172.348 165.314L162.439 181.421Z"
    fill="#BD0000" />
</svg>