<svg width="24" height="24" viewBox="0 0 24 24" fill="none" xmlns="http://www.w3.org/2000/svg">
<path fill-rule="evenodd" clip-rule="evenodd" d="M11.9991 3.5C15.5923 3.50012 18.3415 5.61476 20.126 7.57715C21.0285 8.56959 21.7177 9.55791 22.1807 10.2969C22.4127 10.6671 22.5897 10.9778 22.71 11.1982C22.7702 11.3085 22.8169 11.397 22.8487 11.459C22.8645 11.4898 22.8761 11.5147 22.8848 11.5322C22.889 11.5407 22.893 11.5476 22.8956 11.5527C22.8967 11.5552 22.8977 11.5579 22.8985 11.5596L22.9004 11.5615V11.5625C22.9005 11.5629 22.8889 11.5693 22.001 12L22.9004 11.5635C23.0174 11.8046 23.0321 12.0811 22.9444 12.3311L22.9004 12.4365V12.4375L22.8995 12.4404C22.8987 12.4421 22.8968 12.4439 22.8956 12.4463C22.893 12.4515 22.8901 12.4591 22.8858 12.4678C22.877 12.4853 22.8646 12.5101 22.8487 12.541C22.8169 12.603 22.7701 12.6906 22.71 12.8008C22.5897 13.0213 22.4127 13.3327 22.1807 13.7031C21.7179 14.4421 21.0291 15.4305 20.127 16.4229C18.3429 18.3853 15.5943 20.4999 12.001 20.5C8.40773 20.5 5.65918 18.3853 3.87504 16.4229C2.97293 15.4305 2.28415 14.4421 1.82133 13.7031C1.58933 13.3327 1.41232 13.0213 1.29204 12.8008C1.23196 12.6906 1.18516 12.603 1.15336 12.541C1.13749 12.5101 1.12501 12.4853 1.11625 12.4678C1.11193 12.4591 1.10905 12.4515 1.10649 12.4463C1.10529 12.4438 1.10343 12.4421 1.10258 12.4404L1.10161 12.4375V12.4365C0.968057 12.1611 0.967139 11.8389 1.10063 11.5635L2.00102 12C1.1734 11.5989 1.10679 11.5664 1.10161 11.5635V11.5625L1.10258 11.5605C1.10345 11.5588 1.10523 11.5563 1.10649 11.5537C1.10905 11.5485 1.11192 11.5409 1.11625 11.5322C1.125 11.5147 1.13752 11.4899 1.15336 11.459C1.18516 11.397 1.232 11.3093 1.29204 11.1992C1.41222 10.9788 1.58859 10.6681 1.82036 10.2979C2.283 9.55883 2.97201 8.56969 3.87407 7.57715C5.65775 5.6147 8.40579 3.5 11.9991 3.5ZM11.9991 5.5C9.2291 5.5 6.978 7.13551 5.35356 8.92285C4.55181 9.80506 3.93331 10.6913 3.51567 11.3584C3.35931 11.6082 3.23329 11.8268 3.13579 12C3.23326 12.173 3.35943 12.3911 3.51567 12.6406C3.9335 13.3078 4.55245 14.1948 5.35454 15.0771C6.97949 16.8646 9.231 18.5 12.001 18.5C14.771 18.4999 17.0226 16.8645 18.6475 15.0771C19.4496 14.1948 20.0686 13.3078 20.4864 12.6406C20.6425 12.3913 20.7678 12.1729 20.8653 12C20.7677 11.827 20.6417 11.6088 20.4854 11.3594C20.0674 10.6922 19.4489 9.80524 18.6465 8.92285C17.0211 7.1354 14.7691 5.50012 11.9991 5.5ZM12.001 8.375C14.023 8.37516 15.7286 9.96239 15.7286 12C15.7286 14.0376 14.023 15.6248 12.001 15.625C9.97887 15.625 8.27348 14.0377 8.27348 12C8.27348 9.96229 9.97887 8.375 12.001 8.375ZM12.001 10.375C11.0107 10.375 10.2735 11.1382 10.2735 12C10.2735 12.8618 11.0107 13.625 12.001 13.625C12.9912 13.6248 13.7286 12.8617 13.7286 12C13.7286 11.1383 12.9912 10.3752 12.001 10.375Z" fill="#252525"/>
</svg>
