<svg width="24" height="24" viewBox="0 0 24 24" fill="none" xmlns="http://www.w3.org/2000/svg">
<path fill-rule="evenodd" clip-rule="evenodd" d="M1.29296 1.29314C1.68349 0.902613 2.3165 0.902613 2.70702 1.29314L17.5615 16.1476C17.9485 15.8053 18.3117 15.4456 18.6465 15.0773C19.4485 14.195 20.0675 13.308 20.4853 12.6408C20.6414 12.3915 20.7668 12.1731 20.8643 12.0002C20.7667 11.8271 20.6406 11.609 20.4844 11.3595C20.0663 10.6923 19.4479 9.80542 18.6455 8.92302C17.02 7.1355 14.7682 5.50017 11.998 5.50017C11.5449 5.50017 11.1078 5.5434 10.6865 5.62322C10.5384 5.65129 10.3916 5.68401 10.2471 5.72087C9.71205 5.85725 9.16785 5.53413 9.03124 4.99919C8.89475 4.46407 9.21783 3.91991 9.75292 3.78337C9.93697 3.73643 10.1238 3.69432 10.3135 3.65837C10.854 3.55593 11.4162 3.50017 11.998 3.50017C15.5914 3.50017 18.3404 5.61488 20.125 7.57732C21.0275 8.56978 21.7167 9.55807 22.1797 10.297C22.4116 10.6673 22.5887 10.9779 22.709 11.1984C22.7691 11.3087 22.8158 11.3972 22.8476 11.4592C22.8635 11.49 22.8751 11.5149 22.8838 11.5324C22.888 11.5409 22.892 11.5477 22.8945 11.5529C22.8957 11.5553 22.8967 11.5581 22.8975 11.5597L22.8994 11.5617V11.5627C22.8971 11.5642 22.8511 11.5873 22 12.0002L22.8994 11.5636C23.0163 11.8048 23.0311 12.0813 22.9434 12.3312L22.8994 12.4367V12.4377L22.8984 12.4406C22.8976 12.4422 22.8957 12.4441 22.8945 12.4465C22.892 12.4517 22.8891 12.4593 22.8848 12.4679C22.876 12.4855 22.8635 12.5103 22.8476 12.5412C22.8159 12.6031 22.769 12.6908 22.709 12.801C22.5887 13.0215 22.4117 13.3329 22.1797 13.7033C21.7169 14.4423 21.0281 15.4307 20.126 16.423C19.7798 16.8037 19.3963 17.189 18.9785 17.5646L22.707 21.2931C23.0975 21.6837 23.0975 22.3167 22.707 22.7072C22.3165 23.0976 21.6834 23.0976 21.293 22.7072L17.3838 18.798C15.8895 19.7818 14.0887 20.5002 12 20.5002C8.40669 20.5002 5.65815 18.3854 3.87402 16.423C2.97191 15.4307 2.28313 14.4423 1.82031 13.7033C1.58832 13.3329 1.4113 13.0215 1.29101 12.801C1.23094 12.6908 1.18413 12.6031 1.15234 12.5412C1.13648 12.5103 1.12398 12.4855 1.11523 12.4679C1.11092 12.4593 1.10801 12.4517 1.10546 12.4465C1.10427 12.444 1.10241 12.4422 1.10156 12.4406L1.10058 12.4377V12.4367C0.967064 12.1613 0.966212 11.8391 1.0996 11.5636H1.10058V11.5627L1.10156 11.5617C1.10191 11.561 1.10211 11.5597 1.10253 11.5588C1.1038 11.5562 1.1054 11.5521 1.10741 11.548C1.11155 11.5397 1.11779 11.5282 1.12499 11.5138C1.13958 11.4848 1.16049 11.4434 1.18749 11.3918C1.24159 11.2883 1.32049 11.1409 1.42382 10.9592C1.63035 10.5959 1.93589 10.0913 2.33593 9.51482C2.97655 8.59164 3.87537 7.46277 5.01952 6.43376L1.29296 2.7072C0.902484 2.31672 0.902577 1.68367 1.29296 1.29314ZM6.43554 7.84978C5.40648 8.76028 4.58011 9.78991 3.97949 10.6554C3.61888 11.1751 3.34509 11.6283 3.16308 11.9484C3.15331 11.9656 3.144 11.9828 3.13476 11.9992C3.23228 12.1723 3.35819 12.391 3.51464 12.6408C3.93248 13.308 4.55143 14.195 5.35351 15.0773C6.97846 16.8647 9.22998 18.5002 12 18.5002C13.4618 18.5002 14.7775 18.0417 15.9346 17.3488L13.7734 15.1877C13.2443 15.4666 12.6397 15.6252 12 15.6252C9.97794 15.6251 8.27258 14.0378 8.27245 12.0002C8.27245 11.3372 8.45633 10.7181 8.77245 10.1867L6.43554 7.84978ZM10.2998 11.714C10.2822 11.8071 10.2725 11.9029 10.2725 12.0002C10.2726 12.8618 11.0098 13.6251 12 13.6252C12.0672 13.6252 12.1333 13.6194 12.1982 13.6125L10.2998 11.714Z" fill="#252525"/>
</svg>
