<svg width="48" height="48" viewBox="0 0 48 48" fill="none" xmlns="http://www.w3.org/2000/svg">
  <path
    d="M24 32C24.5523 32 25 31.5523 25 31C25 30.4477 24.5523 30 24 30C23.4477 30 23 30.4477 23 31C23 31.5523 23.4477 32 24 32Z"
    fill="#212121" />
  <path
    d="M40.8 33.6C42.4118 32.1231 43.7045 30.3322 44.5987 28.3374C45.4929 26.3425 45.9698 24.1859 46 22C46 12.1 36.2 4 24 4C11.8 4 2 12.1 2 22C2 31.9 11.8 40 24 40C26.0846 39.9703 28.1612 39.7358 30.2 39.3L42 44L40.8 33.6Z"
    stroke="#212121" stroke-width="3" stroke-linecap="round" stroke-linejoin="round" />
  <path d="M24 12V24" stroke="#212121" stroke-width="3" stroke-linecap="round" stroke-linejoin="round" />
  <path
    d="M24 32C24.5523 32 25 31.5523 25 31C25 30.4477 24.5523 30 24 30C23.4477 30 23 30.4477 23 31C23 31.5523 23.4477 32 24 32Z"
    stroke="#212121" stroke-width="3" stroke-linecap="round" stroke-linejoin="round" />
</svg>
