<svg width="16" height="16" viewBox="0 0 16 16" fill="none" xmlns="http://www.w3.org/2000/svg">
<path d="M9.33333 2.66666H15.3333" stroke="#2F3337" stroke-width="1.25" stroke-miterlimit="10" stroke-linecap="round" stroke-linejoin="round"/>
<path d="M0.666668 2.66666H2.66667" stroke="#2F3337" stroke-width="1.25" stroke-miterlimit="10" stroke-linecap="round" stroke-linejoin="round"/>
<path d="M14.6667 8H15.3333" stroke="#2F3337" stroke-width="1.25" stroke-miterlimit="10" stroke-linecap="round" stroke-linejoin="round"/>
<path d="M0.666668 8H8" stroke="#2F3337" stroke-width="1.25" stroke-miterlimit="10" stroke-linecap="round" stroke-linejoin="round"/>
<path d="M9.33333 13.3333H15.3333" stroke="#2F3337" stroke-width="1.25" stroke-miterlimit="10" stroke-linecap="round" stroke-linejoin="round"/>
<path d="M0.666668 13.3333H2.66667" stroke="#2F3337" stroke-width="1.25" stroke-miterlimit="10" stroke-linecap="round" stroke-linejoin="round"/>
<path d="M4.66667 4.66666C5.77124 4.66666 6.66667 3.77123 6.66667 2.66666C6.66667 1.56209 5.77124 0.666656 4.66667 0.666656C3.5621 0.666656 2.66667 1.56209 2.66667 2.66666C2.66667 3.77123 3.5621 4.66666 4.66667 4.66666Z" stroke="#2F3337" stroke-width="1.25" stroke-miterlimit="10" stroke-linecap="round" stroke-linejoin="round"/>
<path d="M10 10C11.1046 10 12 9.10457 12 8C12 6.89543 11.1046 6 10 6C8.89543 6 8 6.89543 8 8C8 9.10457 8.89543 10 10 10Z" stroke="#2F3337" stroke-width="1.25" stroke-miterlimit="10" stroke-linecap="round" stroke-linejoin="round"/>
<path d="M4.66667 15.3333C5.77124 15.3333 6.66667 14.4379 6.66667 13.3333C6.66667 12.2288 5.77124 11.3333 4.66667 11.3333C3.5621 11.3333 2.66667 12.2288 2.66667 13.3333C2.66667 14.4379 3.5621 15.3333 4.66667 15.3333Z" stroke="#2F3337" stroke-width="1.25" stroke-miterlimit="10" stroke-linecap="round" stroke-linejoin="round"/>
</svg>
