<svg width="20" height="20" viewBox="0 0 20 20" fill="none" xmlns="http://www.w3.org/2000/svg">
<path d="M1.30932 0.833374H7.02361C7.2866 0.833374 7.4998 1.04657 7.4998 1.30956V7.02385C7.4998 7.28684 7.2866 7.50004 7.02361 7.50004H1.30932C1.04633 7.50004 0.83313 7.28684 0.83313 7.02385V1.30956C0.83313 1.04657 1.04633 0.833374 1.30932 0.833374Z" stroke="#AFB3BA" stroke-width="1.5"/>
<path d="M1.30932 12.5H7.02361C7.2866 12.5 7.4998 12.7132 7.4998 12.9762V18.6905C7.4998 18.9535 7.2866 19.1667 7.02361 19.1667H1.30932C1.04633 19.1667 0.83313 18.9535 0.83313 18.6905V12.9762C0.83313 12.7132 1.04633 12.5 1.30932 12.5Z" stroke="#AFB3BA" stroke-width="1.5"/>
<path d="M12.976 0.833374H18.6903C18.9533 0.833374 19.1665 1.04657 19.1665 1.30956V7.02385C19.1665 7.28684 18.9533 7.50004 18.6903 7.50004H12.976C12.713 7.50004 12.4998 7.28684 12.4998 7.02385V1.30956C12.4998 1.04657 12.713 0.833374 12.976 0.833374Z" stroke="#AFB3BA" stroke-width="1.5"/>
<path d="M12.976 12.5H18.6903C18.9533 12.5 19.1665 12.7132 19.1665 12.9762V18.6905C19.1665 18.9535 18.9533 19.1667 18.6903 19.1667H12.976C12.713 19.1667 12.4998 18.9535 12.4998 18.6905V12.9762C12.4998 12.7132 12.713 12.5 12.976 12.5Z" stroke="#AFB3BA" stroke-width="1.5"/>
</svg>
