<svg width="16" height="17" viewBox="0 0 16 17" fill="none" xmlns="http://www.w3.org/2000/svg">
  <path
    d="M8 15.5C11.866 15.5 15 12.366 15 8.5C15 4.63401 11.866 1.5 8 1.5C4.13401 1.5 1 4.63401 1 8.5C1 12.366 4.13401 15.5 8 15.5Z"
    stroke="#2F3337" stroke-width="1.5" stroke-linecap="round" stroke-linejoin="round" />
  <path
    d="M5.38327 6.63328C5.38327 6.73454 5.30119 6.81662 5.19993 6.81662C5.09868 6.81662 5.0166 6.73454 5.0166 6.63328C5.0166 6.53203 5.09868 6.44995 5.19993 6.44995C5.30119 6.44995 5.38327 6.53203 5.38327 6.63328Z"
    fill="#2F3337" stroke="#2F3337" stroke-width="1.5" />
  <path
    d="M10.9829 6.63328C10.9829 6.73454 10.9008 6.81662 10.7995 6.81662C10.6983 6.81662 10.6162 6.73454 10.6162 6.63328C10.6162 6.53203 10.6983 6.44995 10.7995 6.44995C10.9008 6.44995 10.9829 6.53203 10.9829 6.63328Z"
    fill="#2F3337" stroke="#2F3337" stroke-width="1.5" />
  <path
    d="M10.8002 10.1798C10.5098 10.663 10.0994 11.0628 9.60871 11.3404C9.11806 11.618 8.56392 11.7639 8.0002 11.7639C7.43647 11.7639 6.88233 11.618 6.39168 11.3404C5.90103 11.0628 5.49056 10.663 5.2002 10.1798"
    stroke="#2F3337" stroke-width="1.5" stroke-linecap="round" stroke-linejoin="round" />
</svg>
