<svg width="14" height="16" viewBox="0 0 14 16" fill="none" xmlns="http://www.w3.org/2000/svg">
  <path
    d="M8.72399 6.293C8.72399 6.293 9.46999 1.905 6.42599 0C6.38064 0.753945 6.17675 1.48984 5.82765 2.15963C5.47854 2.82941 4.99206 3.41802 4.39999 3.887C3.09999 5.03 0.654992 7.6 0.680992 10.34C0.671652 11.5113 0.989816 12.6619 1.59959 13.662C2.20936 14.6621 3.08648 15.4719 4.13199 16C4.16934 15.4711 4.31188 14.955 4.55125 14.482C4.79062 14.0089 5.12201 13.5884 5.52599 13.245C5.86832 12.9817 6.1548 12.6529 6.36872 12.2778C6.58265 11.9027 6.71974 11.4887 6.77199 11.06C7.66692 11.5358 8.42306 12.2356 8.96644 13.0912C9.50982 13.9468 9.82184 14.9287 9.87199 15.941V15.954C10.8588 15.502 11.7013 14.7858 12.3063 13.8846C12.9113 12.9835 13.2552 11.9325 13.3 10.848C13.516 8.274 12.106 4.774 10.855 3.63C10.3827 4.68445 9.64923 5.601 8.72399 6.293Z"
    fill="white" />
</svg>
