<svg width="668" height="536" viewBox="0 0 668 536" fill="none" xmlns="http://www.w3.org/2000/svg">
  <g clip-path="url(#clip0_4355_19008)">
    <path d="M499.153 358.831V363.003" stroke="#DADCDF" stroke-width="2.74225" stroke-miterlimit="10"
      stroke-linecap="square" />
    <path d="M532.527 358.831V363.003" stroke="#DADCDF" stroke-width="2.74225" stroke-miterlimit="10"
      stroke-linecap="square" />
    <path d="M522.097 347.359V349.445H520.012H511.668H509.583V347.359" stroke="#DADCDF" stroke-width="2.74225"
      stroke-miterlimit="10" stroke-linecap="square" />
    <path d="M522.097 326.5V328.586H520.012H511.668H509.583V326.5" stroke="#DADCDF" stroke-width="2.74225"
      stroke-miterlimit="10" stroke-linecap="square" />
    <path d="M536.699 317.114H494.982V358.831H536.699V317.114Z" stroke="#DADCDF" stroke-width="2.74225"
      stroke-miterlimit="10" stroke-linecap="square" />
    <path d="M536.699 337.973H494.982" stroke="#DADCDF" stroke-width="2.74225" stroke-miterlimit="10"
      stroke-linecap="square" />
  </g>
  <g clip-path="url(#clip1_4355_19008)">
    <path d="M521.876 300.561V305.088H527.912V300.561" stroke="#DADCDF" stroke-width="2.74225" stroke-miterlimit="10"
      stroke-linecap="square" />
    <path d="M524.894 315.65H518.858" stroke="#DADCDF" stroke-width="2.74225" stroke-miterlimit="10"
      stroke-linecap="square" />
    <path d="M530.929 315.65H524.894" stroke="#DADCDF" stroke-width="2.74225" stroke-miterlimit="10"
      stroke-linecap="square" />
    <path d="M524.894 305.088V315.65" stroke="#DADCDF" stroke-width="2.74225" stroke-miterlimit="10"
      stroke-linecap="square" />
    <path d="M515.84 300.561V306.596" stroke="#DADCDF" stroke-width="2.74225" stroke-miterlimit="10"
      stroke-linecap="square" />
    <path d="M539.228 297.543V300.561H510.559V297.543L520.367 282.454H529.42L539.228 297.543Z" stroke="#DADCDF"
      stroke-width="2.74225" stroke-miterlimit="10" stroke-linecap="square" />
  </g>
  <g clip-path="url(#clip2_4355_19008)">
    <path d="M499.897 306.375H502.293" stroke="#DADCDF" stroke-width="1.37112" stroke-miterlimit="10"
      stroke-linecap="square" />
    <path d="M504.091 309.969H501.694" stroke="#DADCDF" stroke-width="1.37112" stroke-miterlimit="10"
      stroke-linecap="square" />
    <path d="M499.897 313.564H502.293" stroke="#DADCDF" stroke-width="1.37112" stroke-miterlimit="10"
      stroke-linecap="square" />
    <path d="M506.188 304.577V308.172" stroke="#DADCDF" stroke-width="1.37112" stroke-miterlimit="10"
      stroke-linecap="square" />
    <path d="M507.985 308.172V311.767" stroke="#DADCDF" stroke-width="1.37112" stroke-miterlimit="10"
      stroke-linecap="square" />
    <path d="M506.188 311.767V315.361" stroke="#DADCDF" stroke-width="1.37112" stroke-miterlimit="10"
      stroke-linecap="square" />
    <path d="M509.183 304.577H497.8V308.172H509.183V304.577Z" stroke="#DADCDF" stroke-width="1.37112"
      stroke-miterlimit="10" stroke-linecap="square" />
    <path d="M510.98 308.172H499.597V311.767H510.98V308.172Z" stroke="#DADCDF" stroke-width="1.37112"
      stroke-miterlimit="10" stroke-linecap="square" />
    <path d="M509.183 311.767H497.8V315.361H509.183V311.767Z" stroke="#DADCDF" stroke-width="1.37112"
      stroke-miterlimit="10" stroke-linecap="square" />
  </g>
  <path d="M373.599 345.808V363.804" stroke="#DADCDF" stroke-width="2.74225" stroke-miterlimit="10"
    stroke-linecap="square" />
  <path d="M481.575 345.808V363.804" stroke="#DADCDF" stroke-width="2.74225" stroke-miterlimit="10"
    stroke-linecap="square" />
  <path d="M470.778 299.918V281.022H384.397V299.918" stroke="#DADCDF" stroke-width="2.74225" stroke-miterlimit="10" />
  <path
    d="M380.797 320.613V306.216C380.797 302.257 384.037 299.018 387.996 299.018H420.389C424.348 299.018 427.587 302.257 427.587 306.216V320.613"
    stroke="#DADCDF" stroke-width="2.74225" stroke-miterlimit="10" stroke-linecap="square" />
  <path
    d="M427.587 320.613V306.216C427.587 302.257 430.827 299.018 434.786 299.018H467.179C471.138 299.018 474.377 302.257 474.377 306.216V320.613"
    stroke="#DADCDF" stroke-width="2.74225" stroke-miterlimit="10" stroke-linecap="square" />
  <path d="M481.575 320.613H373.599V345.808H481.575V320.613Z" stroke="#DADCDF" stroke-width="2.74225"
    stroke-miterlimit="10" stroke-linecap="square" />
  <path
    d="M421.798 317.616C421.014 318.89 419.397 319.287 418.149 318.512L410.183 313.568C407.583 311.918 406.777 308.417 408.385 305.747C409.992 303.078 413.403 302.251 416.003 303.901L416.263 304.065C416.577 304.265 416.989 304.164 417.184 303.839L417.342 303.576C418.949 300.907 422.361 300.08 424.961 301.73C427.562 303.379 428.367 306.881 426.76 309.55L421.798 317.616Z"
    fill="#BD0000" />
  <path d="M51.21 196L334 2.4237L616.79 196H51.21Z" stroke="#DADCDF" stroke-width="4" />
  <rect x="101" y="196" width="466" height="337" stroke="#DADCDF" stroke-width="4" />
  <line x1="101" y1="367" x2="567" y2="367" stroke="#DADCDF" stroke-width="4" />
  <line x1="335.944" y1="195" x2="335.944" y2="367" stroke="#DADCDF" stroke-width="3.88856" />
  <line x1="276.049" y1="367" x2="276.049" y2="535" stroke="#DADCDF" stroke-width="4.09878" />
  <path d="M171 29H209V88.9402L171 114.726V29Z" stroke="#DADCDF" stroke-width="4" />
  <rect x="167" y="25" width="46" height="4" fill="#BD0000" stroke="#BD0000" stroke-width="4" />
  <path
    d="M474.5 112.625H411.5C411.152 112.625 410.818 112.763 410.572 113.009C410.326 113.256 410.188 113.589 410.188 113.938V190.062C410.188 190.411 410.326 190.744 410.572 190.991C410.818 191.237 411.152 191.375 411.5 191.375H441.688V170.375H412.812V125.75H473.188V170.375H444.312V191.375H474.5C474.848 191.375 475.182 191.237 475.428 190.991C475.674 190.744 475.812 190.411 475.812 190.062V113.938C475.812 113.589 475.674 113.256 475.428 113.009C475.182 112.763 474.848 112.625 474.5 112.625ZM422 179.562H429.875C430.223 179.562 430.557 179.701 430.803 179.947C431.049 180.193 431.188 180.527 431.188 180.875C431.188 181.223 431.049 181.557 430.803 181.803C430.557 182.049 430.223 182.188 429.875 182.188H422C421.652 182.188 421.318 182.049 421.072 181.803C420.826 181.557 420.688 181.223 420.688 180.875C420.688 180.527 420.826 180.193 421.072 179.947C421.318 179.701 421.652 179.562 422 179.562ZM464 182.188H456.125C455.777 182.188 455.443 182.049 455.197 181.803C454.951 181.557 454.812 181.223 454.812 180.875C454.812 180.527 454.951 180.193 455.197 179.947C455.443 179.701 455.777 179.562 456.125 179.562H464C464.348 179.562 464.682 179.701 464.928 179.947C465.174 180.193 465.312 180.527 465.312 180.875C465.312 181.223 465.174 181.557 464.928 181.803C464.682 182.049 464.348 182.188 464 182.188ZM441.688 123.125H412.812V115.25H441.688V123.125ZM473.188 123.125H444.312V115.25H473.188V123.125Z"
    fill="#DADCDF" />
  <path
    d="M441.051 139.306L432.458 135.869C432.917 135.402 433.274 134.845 433.507 134.233C433.74 133.62 433.844 132.967 433.813 132.313C433.813 131.268 433.398 130.267 432.659 129.528C431.921 128.79 430.919 128.375 429.875 128.375C429.357 128.373 428.845 128.474 428.366 128.673C427.888 128.871 427.454 129.162 427.09 129.53C426.965 129.651 426.865 129.796 426.796 129.956C426.728 130.117 426.692 130.289 426.691 130.463C426.689 130.638 426.723 130.81 426.789 130.971C426.855 131.133 426.953 131.279 427.076 131.402C427.2 131.525 427.346 131.622 427.508 131.688C427.669 131.754 427.842 131.787 428.016 131.785C428.191 131.783 428.363 131.747 428.523 131.678C428.683 131.609 428.827 131.509 428.948 131.383C429.07 131.261 429.214 131.164 429.373 131.099C429.532 131.033 429.703 130.999 429.875 131C430.223 131 430.557 131.138 430.803 131.384C431.049 131.631 431.188 131.964 431.188 132.313C431.185 132.899 431.009 133.471 430.682 133.957C430.355 134.444 429.892 134.823 429.35 135.046L418.698 139.306C417.734 139.689 416.907 140.354 416.325 141.213C415.744 142.073 415.435 143.087 415.438 144.125C415.438 144.473 415.576 144.807 415.822 145.053C416.068 145.299 416.402 145.438 416.75 145.438H443C443.348 145.438 443.682 145.299 443.928 145.053C444.174 144.807 444.313 144.473 444.313 144.125C444.315 143.087 444.006 142.072 443.424 141.213C442.843 140.353 442.016 139.689 441.051 139.306ZM418.421 142.813C418.709 142.328 419.15 141.952 419.674 141.744L429.875 137.664L440.074 141.744C440.599 141.952 441.041 142.327 441.329 142.813H418.421Z"
    fill="#BD0000" />
  <path
    d="M454.176 139.306L445.583 135.869C446.042 135.402 446.399 134.845 446.632 134.233C446.865 133.62 446.969 132.967 446.937 132.313C446.937 131.268 446.523 130.267 445.784 129.528C445.046 128.79 444.044 128.375 443 128.375C442.482 128.373 441.969 128.474 441.491 128.673C441.013 128.871 440.579 129.162 440.215 129.53C440.09 129.651 439.99 129.796 439.921 129.956C439.853 130.117 439.817 130.289 439.815 130.463C439.814 130.638 439.848 130.81 439.914 130.971C439.98 131.133 440.078 131.279 440.201 131.402C440.325 131.525 440.471 131.622 440.633 131.688C440.794 131.754 440.967 131.787 441.141 131.785C441.315 131.783 441.488 131.747 441.648 131.678C441.808 131.609 441.952 131.509 442.073 131.383C442.195 131.261 442.339 131.164 442.498 131.099C442.657 131.033 442.828 130.999 443 131C443.348 131 443.682 131.138 443.928 131.384C444.174 131.631 444.312 131.964 444.312 132.313C444.31 132.899 444.134 133.471 443.807 133.957C443.48 134.444 443.017 134.823 442.475 135.046L439.972 136.047L442.025 136.868C442.778 137.171 443.48 137.589 444.106 138.106L453.199 141.744C453.724 141.952 454.165 142.327 454.454 142.813H446.819C446.895 143.246 446.935 143.685 446.937 144.125C446.933 144.573 446.851 145.017 446.696 145.438H456.125C456.473 145.438 456.807 145.299 457.053 145.053C457.299 144.807 457.437 144.473 457.437 144.125C457.44 143.087 457.131 142.072 456.549 141.213C455.967 140.353 455.14 139.689 454.176 139.306Z"
    fill="#BD0000" />
  <path
    d="M467.301 139.306L458.708 135.869C459.167 135.402 459.524 134.845 459.757 134.233C459.99 133.62 460.094 132.967 460.062 132.313C460.062 131.268 459.648 130.267 458.909 129.528C458.171 128.79 457.169 128.375 456.125 128.375C455.607 128.373 455.094 128.474 454.616 128.673C454.138 128.871 453.704 129.162 453.34 129.53C453.101 129.778 452.969 130.11 452.973 130.454C452.976 130.798 453.115 131.127 453.358 131.37C453.602 131.613 453.931 131.751 454.276 131.753C454.62 131.756 454.951 131.623 455.198 131.383C455.32 131.261 455.464 131.164 455.623 131.099C455.782 131.033 455.953 130.999 456.125 131C456.473 131 456.807 131.138 457.053 131.384C457.299 131.631 457.437 131.964 457.437 132.313C457.435 132.899 457.259 133.471 456.932 133.957C456.605 134.444 456.142 134.823 455.6 135.046L453.097 136.047L455.15 136.868C455.903 137.171 456.605 137.589 457.231 138.106L466.324 141.744C466.849 141.952 467.291 142.327 467.579 142.813H459.944C460.02 143.246 460.06 143.685 460.062 144.125C460.058 144.573 459.976 145.017 459.821 145.438H469.25C469.598 145.438 469.932 145.299 470.178 145.053C470.424 144.807 470.562 144.473 470.562 144.125C470.565 143.087 470.256 142.072 469.674 141.213C469.092 140.353 468.266 139.689 467.301 139.306Z"
    fill="#BD0000" />
  <path d="M318.125 143.375H325.719" stroke="#DADCDF" stroke-width="3" stroke-miterlimit="10" stroke-linecap="square" />
  <path d="M371.281 143.375H378.875" stroke="#DADCDF" stroke-width="3" stroke-miterlimit="10" stroke-linecap="square" />
  <path d="M344.703 140.844L325.719 159.828L326.984 158.562" stroke="#DADCDF" stroke-width="3" stroke-miterlimit="10"
    stroke-linecap="square" />
  <path d="M353.562 131.984L351.031 134.516" stroke="#DADCDF" stroke-width="3" stroke-miterlimit="10"
    stroke-linecap="square" />
  <path d="M345.968 157.354L343.494 159.828" stroke="#DADCDF" stroke-width="3" stroke-miterlimit="10"
    stroke-linecap="square" />
  <path d="M352.297 151.026L371.281 132.041L370.016 133.307" stroke="#DADCDF" stroke-width="3" stroke-miterlimit="10"
    stroke-linecap="square" />
  <path d="M318.125 116.797V190.203" stroke="#DADCDF" stroke-width="3" stroke-miterlimit="10" stroke-linecap="square" />
  <path d="M378.875 116.797V190.203" stroke="#DADCDF" stroke-width="3" stroke-miterlimit="10" stroke-linecap="square" />
  <path d="M318.125 182.609H378.875" stroke="#DADCDF" stroke-width="3" stroke-miterlimit="10" stroke-linecap="square" />
  <path
    d="M364.953 116.797H332.047C328.552 116.797 325.719 119.63 325.719 123.125V168.688C325.719 172.182 328.552 175.016 332.047 175.016H364.953C368.448 175.016 371.281 172.182 371.281 168.688V123.125C371.281 119.63 368.448 116.797 364.953 116.797Z"
    stroke="#DADCDF" stroke-width="3" stroke-miterlimit="10" stroke-linecap="square" />
  <path d="M513.308 521.448V528.445" stroke="#C7202C" stroke-width="3" stroke-miterlimit="10" stroke-linecap="square" />
  <path d="M551.924 528.445V521.448" stroke="#C7202C" stroke-width="3" stroke-miterlimit="10" stroke-linecap="square" />
  <path
    d="M556.751 423.498H508.481C506.482 423.498 504.861 425.847 504.861 428.745V516.201C504.861 519.099 506.482 521.448 508.481 521.448H556.751C558.75 521.448 560.371 519.099 560.371 516.201V428.745C560.371 425.847 558.75 423.498 556.751 423.498Z"
    fill="#BD0000" stroke="#C7202C" stroke-width="3" stroke-miterlimit="10" stroke-linecap="square" />
  <path d="M513.308 442.738V453.233" stroke="#DADCDF" stroke-width="3" stroke-miterlimit="10" stroke-linecap="square" />
  <path d="M513.308 477.721V491.713" stroke="#DADCDF" stroke-width="3" stroke-miterlimit="10" stroke-linecap="square" />
  <path d="M560.371 465.477H504.861" stroke="#DADCDF" stroke-width="2" stroke-miterlimit="10" />
  <path d="M142.551 361L142.551 280.626" stroke="#DADCDF" stroke-width="3.65354" stroke-miterlimit="10"
    stroke-linecap="square" />
  <path d="M152.419 245H132.806L123 272.504V276.433H162.225V272.504L152.419 245Z" stroke="#DADCDF"
    stroke-width="3.65354" stroke-miterlimit="10" stroke-linecap="square" />
  <path d="M154.38 360.908H130.845" stroke="#DADCDF" stroke-width="3.65354" stroke-miterlimit="10"
    stroke-linecap="square" />
  <path d="M180.217 324.55H219.406" stroke="#DADCDF" stroke-width="3.65354" stroke-miterlimit="10"
    stroke-linecap="square" />
  <path d="M171.82 361V355.392" stroke="#DADCDF" stroke-width="3.65354" stroke-miterlimit="10"
    stroke-linecap="square" />
  <path d="M227.803 361V355.392" stroke="#DADCDF" stroke-width="3.65354" stroke-miterlimit="10"
    stroke-linecap="square" />
  <path
    d="M229.203 311.933V289.502C229.203 287.643 228.465 285.86 227.153 284.545C225.841 283.231 224.061 282.492 222.205 282.492H177.418C175.562 282.492 173.782 283.231 172.47 284.545C171.157 285.86 170.42 287.643 170.42 289.502V311.933"
    stroke="#DADCDF" stroke-width="3.65354" stroke-miterlimit="10" stroke-linecap="square" />
  <path
    d="M239 321.746C239 319.143 237.968 316.647 236.13 314.807C234.293 312.967 231.801 311.933 229.203 311.933C226.604 311.933 224.113 312.967 222.275 314.807C220.438 316.647 219.406 319.143 219.406 321.746V339.971H180.217V321.746C180.218 320.058 179.785 318.399 178.959 316.928C178.133 315.457 176.942 314.224 175.501 313.349C174.061 312.474 172.419 311.986 170.735 311.931C169.051 311.877 167.382 312.259 165.888 313.039C164.394 313.82 163.127 314.974 162.208 316.388C161.289 317.803 160.75 319.431 160.643 321.115C160.536 322.8 160.864 324.483 161.596 326.003C162.328 327.523 163.439 328.829 164.822 329.793V348.383C164.822 350.242 165.559 352.025 166.871 353.339C168.184 354.654 169.964 355.392 171.82 355.392H227.803C229.659 355.392 231.439 354.654 232.752 353.339C234.064 352.025 234.801 350.242 234.801 348.383V329.793C236.097 328.891 237.156 327.688 237.888 326.286C238.619 324.885 239 323.327 239 321.746Z"
    stroke="#DADCDF" stroke-width="3.65354" stroke-miterlimit="10" stroke-linecap="square" />
  <path
    d="M194.219 322.71C193.437 323.982 191.822 324.379 190.576 323.605L182.622 318.669C180.026 317.021 179.221 313.525 180.826 310.86C182.431 308.194 185.837 307.369 188.434 309.016L188.692 309.18C189.007 309.379 189.417 309.279 189.612 308.954L189.77 308.692C191.375 306.026 194.781 305.201 197.378 306.848C199.974 308.495 200.779 311.991 199.174 314.657L194.219 322.71Z"
    fill="#BD0000" />
  <path d="M288 222L276 210L264 222" stroke="#DADCDF" stroke-width="3" stroke-miterlimit="10" />
  <path d="M305 222H247V266H305V222Z" stroke="#DADCDF" stroke-width="3" stroke-miterlimit="10"
    stroke-linecap="square" />
  <path
    d="M278.559 254H273.441L271.053 258.777C271.015 258.853 270.997 258.937 271.001 259.023C271.004 259.108 271.03 259.191 271.075 259.263C271.12 259.336 271.182 259.395 271.257 259.437C271.331 259.478 271.415 259.5 271.5 259.5H280.5C280.586 259.5 280.67 259.479 280.745 259.438C280.819 259.396 280.882 259.337 280.928 259.264C280.973 259.192 280.998 259.109 281.002 259.023C281.006 258.938 280.988 258.853 280.95 258.777L278.559 254Z"
    fill="#DADCDF" />
  <path
    d="M263.31 241.976L263.678 241.604C264.069 241.226 264.592 241.015 265.136 241.015C265.68 241.015 266.203 241.226 266.594 241.604C266.878 241.889 267.215 242.114 267.587 242.268C267.958 242.422 268.356 242.501 268.758 242.501C269.16 242.501 269.558 242.422 269.929 242.268C270.301 242.114 270.638 241.889 270.922 241.604C271.314 241.227 271.836 241.017 272.379 241.017C272.923 241.017 273.445 241.227 273.836 241.604C274.411 242.178 275.189 242.5 276 242.5C276.812 242.5 277.59 242.178 278.164 241.604C278.355 241.413 278.582 241.26 278.832 241.156C279.082 241.053 279.35 241 279.621 241C279.892 240.999 280.16 241.052 280.41 241.156C280.66 241.259 280.887 241.411 281.078 241.603C281.653 242.176 282.431 242.498 283.242 242.498C284.053 242.498 284.832 242.176 285.406 241.603C285.798 241.226 286.32 241.016 286.863 241.016C287.407 241.016 287.929 241.226 288.321 241.603L288.69 241.976L289.044 241.586C289.131 241.491 289.177 241.367 289.174 241.238C289.171 241.11 289.119 240.987 289.028 240.896C288.744 240.612 288.406 240.387 288.035 240.233C287.663 240.079 287.265 240 286.863 240C286.462 240 286.064 240.079 285.692 240.233C285.321 240.387 284.983 240.612 284.699 240.896C284.312 241.282 283.788 241.499 283.242 241.499C282.696 241.499 282.172 241.282 281.785 240.896C281.21 240.323 280.432 240.001 279.621 240.001C278.809 240.001 278.031 240.323 277.457 240.896C277.07 241.282 276.546 241.499 276 241.499C275.453 241.499 274.929 241.282 274.543 240.896C273.968 240.323 273.19 240.001 272.378 240.001C271.567 240.001 270.789 240.323 270.214 240.896C270.023 241.088 269.796 241.24 269.546 241.343C269.296 241.447 269.028 241.5 268.757 241.5C268.487 241.5 268.219 241.447 267.969 241.343C267.719 241.24 267.492 241.088 267.3 240.896C267.016 240.612 266.679 240.387 266.307 240.233C265.936 240.079 265.538 240 265.136 240C264.734 240 264.336 240.079 263.965 240.233C263.593 240.387 263.256 240.612 262.972 240.896C262.881 240.987 262.828 241.11 262.825 241.238C262.822 241.367 262.869 241.491 262.955 241.586L263.31 241.976Z"
    fill="#DADCDF" />
  <path
    d="M287.613 242.31C287.406 242.128 287.139 242.028 286.863 242.028C286.588 242.028 286.321 242.128 286.113 242.31C285.351 243.069 284.318 243.496 283.242 243.496C282.165 243.496 281.133 243.069 280.37 242.31C280.168 242.117 279.9 242.01 279.62 242.01C279.341 242.01 279.073 242.117 278.87 242.31C278.109 243.07 277.076 243.498 275.999 243.498C274.923 243.498 273.89 243.07 273.128 242.31C272.92 242.129 272.654 242.029 272.378 242.029C272.103 242.029 271.836 242.129 271.628 242.31C271.251 242.687 270.804 242.986 270.311 243.19C269.818 243.394 269.29 243.499 268.757 243.499C268.223 243.499 267.695 243.394 267.202 243.19C266.71 242.986 266.262 242.687 265.885 242.31C265.677 242.128 265.411 242.028 265.135 242.028C264.859 242.028 264.593 242.128 264.385 242.31L263.981 242.716L273.325 253H275.5V250.5C275.5 250.367 275.553 250.24 275.647 250.146C275.741 250.053 275.868 250 276 250C276.133 250 276.26 250.053 276.354 250.146C276.448 250.24 276.5 250.367 276.5 250.5V253H278.676L288.018 242.717L287.613 242.31Z"
    fill="#DADCDF" />
  <path
    d="M270 233V231.01C269.38 231.474 268.876 232.076 268.529 232.769C268.182 233.461 268.001 234.225 268 235C268 235.133 267.947 235.26 267.854 235.354C267.76 235.447 267.633 235.5 267.5 235.5C267.367 235.5 267.24 235.447 267.146 235.354C267.053 235.26 267 235.133 267 235C267 233.738 267.401 232.508 268.145 231.489C266.951 230.575 265.503 230.055 264 230C263.867 230 263.74 230.053 263.646 230.146C263.553 230.24 263.5 230.367 263.5 230.5V234.5C263.499 235.525 263.813 236.525 264.4 237.365C264.986 238.205 265.817 238.844 266.779 239.196C267.741 239.548 268.788 239.596 269.779 239.333C270.769 239.069 271.654 238.508 272.315 237.725C271.594 237.166 271.012 236.449 270.61 235.63C270.209 234.812 270.001 233.912 270 233Z"
    fill="#BD0000" />
  <path
    d="M282 233V231.01C282.62 231.474 283.124 232.076 283.471 232.769C283.818 233.461 283.999 234.225 284 235C284 235.133 284.053 235.26 284.146 235.354C284.24 235.447 284.367 235.5 284.5 235.5C284.633 235.5 284.76 235.447 284.854 235.354C284.947 235.26 285 235.133 285 235C285 233.738 284.599 232.508 283.855 231.489C285.049 230.575 286.498 230.055 288 230C288.133 230 288.26 230.053 288.354 230.146C288.447 230.24 288.5 230.367 288.5 230.5V234.5C288.501 235.525 288.187 236.525 287.6 237.365C287.014 238.205 286.183 238.844 285.221 239.196C284.259 239.548 283.212 239.596 282.222 239.333C281.231 239.069 280.346 238.508 279.686 237.725C280.406 237.166 280.989 236.449 281.39 235.63C281.791 234.812 282 233.912 282 233Z"
    fill="#BD0000" />
  <path
    d="M280.5 228.5C278.997 228.555 277.549 229.075 276.355 229.988C277.099 231.008 277.5 232.238 277.5 233.5C277.5 233.633 277.447 233.76 277.354 233.854C277.26 233.947 277.133 234 277 234C276.867 234 276.74 233.947 276.646 233.854C276.553 233.76 276.5 233.633 276.5 233.5C276.499 232.174 275.971 230.903 275.034 229.966C274.097 229.029 272.826 228.501 271.5 228.5C271.367 228.5 271.24 228.553 271.146 228.646C271.053 228.74 271 228.867 271 229V233C271.002 234.239 271.463 235.433 272.294 236.352C273.125 237.271 274.267 237.849 275.5 237.974V239.5C275.5 239.633 275.553 239.76 275.646 239.854C275.74 239.947 275.867 240 276 240C276.133 240 276.26 239.947 276.354 239.854C276.447 239.76 276.5 239.633 276.5 239.5V237.974C277.733 237.849 278.875 237.271 279.706 236.352C280.537 235.433 280.998 234.239 281 233V229C281 228.867 280.947 228.74 280.854 228.646C280.76 228.553 280.633 228.5 280.5 228.5Z"
    fill="#BD0000" />
  <path
    d="M306 330V318C306 313.757 304.314 309.687 301.314 306.686C298.313 303.686 294.243 302 290 302C290 306.243 291.686 310.313 294.686 313.314C297.687 316.314 301.757 318 306 318"
    stroke="#DADCDF" stroke-width="3" stroke-miterlimit="10" stroke-linecap="square" />
  <path
    d="M298 336V354C298 356.122 298.843 358.157 300.343 359.657C301.843 361.157 303.878 362 306 362C308.122 362 310.157 361.157 311.657 359.657C313.157 358.157 314 356.122 314 354V336H298Z"
    stroke="#DADCDF" stroke-width="3" stroke-miterlimit="10" stroke-linecap="square" />
  <path d="M298 344H303" stroke="#DADCDF" stroke-width="3" stroke-miterlimit="10" stroke-linecap="square" />
  <path d="M298 352H303" stroke="#DADCDF" stroke-width="3" stroke-miterlimit="10" stroke-linecap="square" />
  <path
    d="M312.072 322.808C315.009 321.603 317.521 319.551 319.289 316.914C321.056 314.277 322 311.175 322 308C317.757 308 313.687 309.686 310.686 312.686C307.686 315.687 306 319.757 306 324"
    stroke="#DADCDF" stroke-width="3" stroke-miterlimit="10" stroke-linecap="square" />
  <path
    d="M141.391 184.507L148.752 164.266C149.313 162.723 150.336 161.39 151.681 160.448C153.026 159.505 154.628 159 156.27 159H166.53C168.147 158.995 169.725 158.502 171.058 157.586C172.39 156.67 173.416 155.374 174 153.866C175.03 151.252 176.824 149.009 179.146 147.427C181.469 145.846 184.213 145 187.023 145V149L191.747 157.474C191.983 157.897 192.057 158.39 191.957 158.864C191.856 159.337 191.587 159.758 191.2 160.048L188.6 162L183.026 158L180 167L186.574 184.53"
    stroke="#DADCDF" stroke-width="3" stroke-miterlimit="10" />
  <path
    d="M181.685 187.155L180.6 184.172C179.486 180.642 177.276 177.56 174.291 175.372C171.306 173.183 167.701 172.004 164 172.004C160.299 172.004 156.694 173.183 153.709 175.372C150.724 177.56 148.514 180.642 147.4 184.172V184.172L146.316 187.155"
    stroke="#DADCDF" stroke-width="3" stroke-miterlimit="10" />
  <path
    d="M150.824 160.048C150.55 160.018 150.275 160.002 150 160C147.083 160 144.285 161.159 142.222 163.222C140.159 165.285 139 168.083 139 171H134C134 167.817 135.264 164.765 137.515 162.515C139.765 160.264 142.817 159 146 159C147.98 159.007 149.927 159.51 151.663 160.462"
    fill="#DADCDF" />
  <path
    d="M150.824 160.048C150.55 160.018 150.275 160.002 150 160C147.083 160 144.285 161.159 142.222 163.222C140.159 165.285 139 168.083 139 171H134C134 167.817 135.264 164.765 137.515 162.515C139.765 160.264 142.817 159 146 159C147.98 159.007 149.927 159.51 151.663 160.462"
    stroke="#DADCDF" stroke-width="3" stroke-miterlimit="10" />
  <path d="M136.624 181.043C144.296 187.475 153.988 191 164 191C174.012 191 183.704 187.475 191.376 181.043"
    stroke="#DADCDF" stroke-width="3" stroke-miterlimit="10" stroke-linecap="square" />
  <path
    d="M219.584 186.125C218.871 186.124 218.187 185.842 217.68 185.341C217.173 184.839 216.884 184.158 216.876 183.445L216.347 178.108C216.339 178.029 216.349 177.948 216.376 177.873C216.403 177.797 216.447 177.728 216.503 177.672C216.561 177.615 216.63 177.572 216.705 177.545C216.781 177.518 216.862 177.508 216.942 177.516C218.407 177.66 219.766 178.343 220.755 179.434C221.744 180.525 222.292 181.944 222.292 183.417C222.291 184.135 222.006 184.823 221.498 185.331C220.99 185.839 220.302 186.124 219.584 186.125Z"
    fill="#AC1B25" />
  <path
    d="M201.709 183.417C201.709 181.944 202.257 180.525 203.246 179.434C204.235 178.344 205.594 177.66 207.059 177.516C207.139 177.509 207.22 177.519 207.295 177.546C207.371 177.573 207.44 177.616 207.497 177.672C207.554 177.729 207.598 177.798 207.625 177.873C207.652 177.949 207.662 178.029 207.654 178.109L207.125 183.445C207.121 184.163 206.833 184.851 206.322 185.356C205.811 185.861 205.121 186.143 204.403 186.139C203.684 186.135 202.997 185.846 202.492 185.336C201.987 184.825 201.705 184.135 201.709 183.417Z"
    fill="#AC1B25" />
  <path
    d="M212 189.375C210.607 189.375 209.246 188.962 208.088 188.188C206.93 187.415 206.027 186.315 205.495 185.028C204.962 183.741 204.822 182.326 205.094 180.96C205.366 179.594 206.036 178.339 207.021 177.354C208.006 176.369 209.26 175.699 210.626 175.427C211.992 175.155 213.408 175.295 214.695 175.828C215.982 176.361 217.081 177.263 217.855 178.421C218.629 179.579 219.042 180.941 219.042 182.333C219.04 184.2 218.297 185.99 216.977 187.31C215.657 188.63 213.867 189.373 212 189.375Z"
    fill="#BD0000" />
  <path
    d="M217.612 170.397C218.021 170.361 218.413 170.209 218.739 169.959C219.065 169.708 219.313 169.37 219.454 168.983C219.595 168.597 219.622 168.178 219.533 167.776C219.444 167.375 219.242 167.007 218.951 166.716C218.66 166.425 218.292 166.223 217.891 166.134C217.489 166.045 217.071 166.073 216.684 166.213C216.297 166.354 215.959 166.602 215.709 166.928C215.458 167.255 215.306 167.646 215.27 168.056"
    stroke="#333333" stroke-width="1.08333" stroke-miterlimit="10" />
  <path
    d="M208.731 168.056C208.695 167.646 208.543 167.255 208.292 166.928C208.042 166.602 207.703 166.354 207.317 166.213C206.93 166.073 206.512 166.045 206.11 166.134C205.708 166.223 205.34 166.425 205.05 166.716C204.759 167.007 204.557 167.375 204.468 167.776C204.379 168.178 204.406 168.597 204.547 168.983C204.687 169.37 204.936 169.708 205.262 169.959C205.588 170.209 205.979 170.361 206.389 170.397"
    stroke="#333333" stroke-width="1.08333" stroke-miterlimit="10" />
  <path
    d="M216.875 189.917C218.371 189.917 219.584 188.704 219.584 187.208C219.584 185.713 218.371 184.5 216.875 184.5C215.38 184.5 214.167 185.713 214.167 187.208C214.167 188.704 215.38 189.917 216.875 189.917Z"
    stroke="#333333" stroke-width="1.08333" stroke-miterlimit="10" stroke-linecap="round" stroke-linejoin="round" />
  <path
    d="M207.125 189.917C208.621 189.917 209.834 188.704 209.834 187.208C209.834 185.713 208.621 184.5 207.125 184.5C205.63 184.5 204.417 185.713 204.417 187.208C204.417 188.704 205.63 189.917 207.125 189.917Z"
    stroke="#333333" stroke-width="1.08333" stroke-miterlimit="10" stroke-linecap="round" stroke-linejoin="round" />
  <path
    d="M212 185.042C214.094 185.042 215.792 183.344 215.792 181.25C215.792 179.156 214.094 177.458 212 177.458C209.906 177.458 208.208 179.156 208.208 181.25C208.208 183.344 209.906 185.042 212 185.042Z"
    fill="#AC1B25" />
  <path
    d="M206.583 170.958C208.079 170.958 209.292 169.746 209.292 168.25C209.292 166.754 208.079 165.542 206.583 165.542C205.088 165.542 203.875 166.754 203.875 168.25C203.875 169.746 205.088 170.958 206.583 170.958Z"
    fill="#BD0000" />
  <path
    d="M217.417 170.958C218.913 170.958 220.125 169.746 220.125 168.25C220.125 166.754 218.913 165.542 217.417 165.542C215.921 165.542 214.708 166.754 214.708 168.25C214.708 169.746 215.921 170.958 217.417 170.958Z"
    fill="#BD0000" />
  <path
    d="M206.583 169.333C207.182 169.333 207.667 168.848 207.667 168.25C207.667 167.652 207.182 167.167 206.583 167.167C205.985 167.167 205.5 167.652 205.5 168.25C205.5 168.848 205.985 169.333 206.583 169.333Z"
    fill="#AC1B25" />
  <path
    d="M217.417 169.333C218.015 169.333 218.5 168.848 218.5 168.25C218.5 167.652 218.015 167.167 217.417 167.167C216.819 167.167 216.333 167.652 216.333 168.25C216.333 168.848 216.819 169.333 217.417 169.333Z"
    fill="#AC1B25" />
  <path
    d="M212 180.708C210.607 180.708 209.246 180.295 208.088 179.522C206.93 178.748 206.027 177.648 205.495 176.361C204.962 175.075 204.822 173.659 205.094 172.293C205.366 170.927 206.036 169.672 207.021 168.688C208.006 167.703 209.26 167.032 210.626 166.76C211.992 166.489 213.408 166.628 214.695 167.161C215.982 167.694 217.081 168.597 217.855 169.755C218.629 170.913 219.042 172.274 219.042 173.667C219.04 175.534 218.297 177.323 216.977 178.644C215.657 179.964 213.867 180.706 212 180.708Z"
    fill="#BD0000" />
  <path
    d="M209.292 173.125C209.078 173.125 208.868 173.062 208.69 172.942C208.512 172.823 208.373 172.654 208.291 172.456C208.209 172.258 208.188 172.041 208.229 171.83C208.271 171.62 208.374 171.427 208.526 171.276C208.677 171.124 208.87 171.021 209.08 170.979C209.291 170.937 209.508 170.959 209.706 171.041C209.904 171.123 210.074 171.262 210.193 171.44C210.312 171.618 210.375 171.827 210.375 172.042C210.375 172.329 210.261 172.605 210.058 172.808C209.855 173.011 209.579 173.125 209.292 173.125Z"
    fill="#212121" />
  <path
    d="M214.708 173.125C214.494 173.125 214.285 173.062 214.106 172.942C213.928 172.823 213.789 172.654 213.707 172.456C213.625 172.258 213.604 172.041 213.646 171.83C213.688 171.62 213.791 171.427 213.942 171.276C214.094 171.124 214.287 171.021 214.497 170.979C214.707 170.937 214.925 170.959 215.123 171.041C215.321 171.123 215.49 171.262 215.609 171.44C215.728 171.618 215.792 171.827 215.792 172.042C215.792 172.329 215.678 172.605 215.474 172.808C215.271 173.011 214.996 173.125 214.708 173.125Z"
    fill="#212121" />
  <path
    d="M213.083 176.375C212.94 176.375 212.802 176.318 212.7 176.216C212.599 176.115 212.542 175.977 212.542 175.833V175.634C212.69 175.534 212.816 175.404 212.909 175.251C213.003 175.099 213.062 174.928 213.083 174.75C213.083 174.302 212.599 174.208 212 174.208C211.401 174.208 210.917 174.302 210.917 174.75C210.938 174.928 210.997 175.099 211.091 175.251C211.184 175.404 211.31 175.534 211.458 175.634V175.833C211.458 175.977 211.401 176.115 211.3 176.216C211.198 176.318 211.06 176.375 210.917 176.375C210.773 176.375 210.635 176.432 210.534 176.534C210.432 176.635 210.375 176.773 210.375 176.917C210.375 177.06 210.432 177.198 210.534 177.3C210.635 177.401 210.773 177.458 210.917 177.458C211.317 177.459 211.703 177.311 212 177.043C212.297 177.311 212.683 177.459 213.083 177.458C213.227 177.458 213.365 177.401 213.466 177.3C213.568 177.198 213.625 177.06 213.625 176.917C213.625 176.773 213.568 176.635 213.466 176.534C213.365 176.432 213.227 176.375 213.083 176.375Z"
    fill="#212121" />
  <path
    d="M207.125 190.458C208.92 190.458 210.375 189.003 210.375 187.208C210.375 185.413 208.92 183.958 207.125 183.958C205.33 183.958 203.875 185.413 203.875 187.208C203.875 189.003 205.33 190.458 207.125 190.458Z"
    fill="#BD0000" />
  <path
    d="M207.125 188.833C208.022 188.833 208.75 188.106 208.75 187.208C208.75 186.311 208.022 185.583 207.125 185.583C206.228 185.583 205.5 186.311 205.5 187.208C205.5 188.106 206.228 188.833 207.125 188.833Z"
    fill="#AC1B25" />
  <path
    d="M216.875 190.458C218.67 190.458 220.125 189.003 220.125 187.208C220.125 185.413 218.67 183.958 216.875 183.958C215.08 183.958 213.625 185.413 213.625 187.208C213.625 189.003 215.08 190.458 216.875 190.458Z"
    fill="#BD0000" />
  <path
    d="M216.875 188.833C217.772 188.833 218.5 188.106 218.5 187.208C218.5 186.311 217.772 185.583 216.875 185.583C215.978 185.583 215.25 186.311 215.25 187.208C215.25 188.106 215.978 188.833 216.875 188.833Z"
    fill="#AC1B25" />
  <path
    d="M432.339 201.219H459.188C459.411 201.219 459.626 201.13 459.784 200.972C459.942 200.813 460.031 200.599 460.031 200.375C460.031 200.151 459.942 199.937 459.784 199.778C459.626 199.62 459.411 199.531 459.188 199.531H428.812C428.589 199.531 428.374 199.62 428.216 199.778C428.058 199.937 427.969 200.151 427.969 200.375C427.969 200.599 428.058 200.813 428.216 200.972C428.374 201.13 428.589 201.219 428.812 201.219H432.339Z"
    fill="#DADCDF" />
  <path
    d="M433.052 202.906H454.948C453.928 204.935 452.364 206.641 450.431 207.833C448.497 209.025 446.271 209.656 444 209.656C441.729 209.656 439.502 209.025 437.569 207.833C435.636 206.641 434.072 204.935 433.052 202.906Z"
    fill="#DADCDF" />
  <path
    d="M444 248.469C443.332 248.469 442.68 248.271 442.125 247.9C441.57 247.529 441.137 247.002 440.882 246.385C440.626 245.769 440.56 245.09 440.69 244.435C440.82 243.781 441.142 243.179 441.614 242.707C442.086 242.235 442.687 241.914 443.342 241.784C443.996 241.653 444.675 241.72 445.292 241.976C445.908 242.231 446.435 242.664 446.806 243.219C447.177 243.774 447.375 244.426 447.375 245.094C447.375 245.989 447.019 246.847 446.386 247.48C445.754 248.113 444.895 248.469 444 248.469Z"
    fill="#BD0000" />
  <path
    d="M429.656 230.75H427.099C427.814 230.223 428.343 229.483 428.613 228.637C428.883 227.79 428.879 226.881 428.601 226.037C428.324 225.193 427.787 224.459 427.067 223.938C426.348 223.417 425.482 223.137 424.594 223.137C423.706 223.137 422.84 223.417 422.12 223.938C421.401 224.459 420.864 225.193 420.586 226.037C420.309 226.881 420.305 227.79 420.574 228.637C420.844 229.483 421.374 230.223 422.089 230.75H419.531C419.307 230.75 419.093 230.839 418.935 230.997C418.776 231.155 418.688 231.37 418.688 231.594C418.688 231.818 418.776 232.032 418.935 232.19C419.093 232.349 419.307 232.437 419.531 232.437H429.656C429.88 232.437 430.095 232.349 430.253 232.19C430.411 232.032 430.5 231.818 430.5 231.594C430.5 231.37 430.411 231.155 430.253 230.997C430.095 230.839 429.88 230.75 429.656 230.75Z"
    fill="#BD0000" />
  <path
    d="M444 221.469C444.282 221.471 444.564 221.494 444.844 221.536V211.314C444.564 211.331 444.283 211.344 444 211.344C443.717 211.344 443.436 211.331 443.156 211.314V221.536C443.436 221.494 443.718 221.471 444 221.469Z"
    fill="#DADCDF" />
  <path
    d="M449.062 230.75H446.505C447.22 230.223 447.75 229.483 448.019 228.637C448.289 227.79 448.285 226.881 448.007 226.037C447.73 225.193 447.193 224.459 446.473 223.938C445.754 223.417 444.888 223.137 444 223.137C443.112 223.137 442.246 223.417 441.527 223.938C440.807 224.459 440.27 225.193 439.993 226.037C439.715 226.881 439.711 227.79 439.981 228.637C440.25 229.483 440.78 230.223 441.495 230.75H438.938C438.714 230.75 438.499 230.839 438.341 230.997C438.183 231.155 438.094 231.37 438.094 231.594C438.094 231.818 438.183 232.032 438.341 232.19C438.499 232.349 438.714 232.437 438.938 232.437H449.062C449.286 232.437 449.501 232.349 449.659 232.19C449.817 232.032 449.906 231.818 449.906 231.594C449.906 231.37 449.817 231.155 449.659 230.997C449.501 230.839 449.286 230.75 449.062 230.75Z"
    fill="#BD0000" />
  <path
    d="M468.469 230.75H465.911C466.626 230.223 467.156 229.483 467.426 228.637C467.695 227.79 467.691 226.881 467.414 226.037C467.136 225.193 466.599 224.459 465.88 223.938C465.16 223.417 464.294 223.137 463.406 223.137C462.518 223.137 461.652 223.417 460.933 223.938C460.213 224.459 459.676 225.193 459.399 226.037C459.121 226.881 459.117 227.79 459.387 228.637C459.657 229.483 460.186 230.223 460.901 230.75H458.344C458.12 230.75 457.905 230.839 457.747 230.997C457.589 231.155 457.5 231.37 457.5 231.594C457.5 231.818 457.589 232.032 457.747 232.19C457.905 232.349 458.12 232.437 458.344 232.437H468.469C468.693 232.437 468.907 232.349 469.065 232.19C469.224 232.032 469.312 231.818 469.312 231.594C469.312 231.37 469.224 231.155 469.065 230.997C468.907 230.839 468.693 230.75 468.469 230.75Z"
    fill="#BD0000" />
  <path
    d="M462.46 234.125C462.158 236.232 461.107 238.16 459.498 239.555C457.89 240.949 455.832 241.717 453.703 241.717C451.574 241.717 449.517 240.949 447.908 239.555C446.3 238.16 445.248 236.232 444.946 234.125H443.054C442.752 236.232 441.7 238.16 440.092 239.555C438.483 240.949 436.426 241.717 434.297 241.717C432.168 241.717 430.11 240.949 428.502 239.555C426.893 238.16 425.842 236.232 425.54 234.125H423.846C424.122 236.43 425.151 238.58 426.775 240.24C428.398 241.899 430.525 242.976 432.824 243.302C435.122 243.629 437.464 243.186 439.486 242.044C441.507 240.901 443.094 239.123 444 236.985C444.906 239.123 446.493 240.901 448.514 242.044C450.536 243.186 452.878 243.629 455.176 243.302C457.475 242.976 459.602 241.899 461.225 240.24C462.849 238.58 463.878 236.43 464.154 234.125H462.46Z"
    fill="#DADCDF" />
  <path
    d="M433.051 467.133H385.442C383.799 467.133 382.466 468.465 382.466 470.109V517.717C382.466 519.361 383.799 520.693 385.442 520.693H433.051C434.694 520.693 436.026 519.361 436.026 517.717V470.109C436.026 468.465 434.694 467.133 433.051 467.133Z"
    fill="#BD0000" stroke="#C7202C" stroke-width="3" stroke-miterlimit="10" stroke-linecap="square" />
  <path d="M430.075 486.97H388.417V514.742H430.075V486.97Z" stroke="#DADCDF" stroke-width="2" stroke-miterlimit="10"
    stroke-linecap="square" />
  <path d="M418.173 494.905H400.319" stroke="#DADCDF" stroke-width="2" stroke-miterlimit="10" stroke-linecap="square" />
  <path
    d="M428.091 476.06C429.187 476.06 430.075 475.172 430.075 474.076C430.075 472.981 429.187 472.092 428.091 472.092C426.996 472.092 426.107 472.981 426.107 474.076C426.107 475.172 426.996 476.06 428.091 476.06Z"
    fill="#DADCDF" stroke="#DADCDF" stroke-width="2" stroke-miterlimit="10" stroke-linecap="square" />
  <path
    d="M419.165 476.06C420.26 476.06 421.149 475.172 421.149 474.076C421.149 472.981 420.26 472.092 419.165 472.092C418.069 472.092 417.181 472.981 417.181 474.076C417.181 475.172 418.069 476.06 419.165 476.06Z"
    fill="#DADCDF" stroke="#DADCDF" stroke-width="2" stroke-miterlimit="10" stroke-linecap="square" />
  <path d="M398.336 474.076H388.417" stroke="#DADCDF" stroke-width="2" stroke-miterlimit="10" stroke-linecap="square" />
  <path d="M382.466 481.019H436.026" stroke="#DADCDF" stroke-width="2" stroke-miterlimit="10" />
  <path d="M440.232 493.739H499.478" stroke="#DADCDF" stroke-width="3" stroke-miterlimit="10" stroke-linecap="square" />
  <path d="M462.449 477.87H477.261" stroke="#DADCDF" stroke-width="3" stroke-miterlimit="10" stroke-linecap="square" />
  <path d="M462.449 504.319H477.261" stroke="#DADCDF" stroke-width="3" stroke-miterlimit="10" stroke-linecap="square" />
  <path d="M499.478 467.29H440.232V520.188H499.478V467.29Z" stroke="#DADCDF" stroke-width="3" stroke-miterlimit="10"
    stroke-linecap="square" />
  <path d="M318.493 493.913H377.739" stroke="#DADCDF" stroke-width="3" stroke-miterlimit="10" stroke-linecap="square" />
  <path d="M340.71 478.043H355.522" stroke="#DADCDF" stroke-width="3" stroke-miterlimit="10" stroke-linecap="square" />
  <path d="M340.71 504.493H355.522" stroke="#DADCDF" stroke-width="3" stroke-miterlimit="10" stroke-linecap="square" />
  <path d="M377.739 467.464H318.493V520.362H377.739V467.464Z" stroke="#DADCDF" stroke-width="3" stroke-miterlimit="10"
    stroke-linecap="square" />
  <path d="M469.312 386.25L469.312 445.75" stroke="#DADCDF" stroke-width="3" stroke-miterlimit="10"
    stroke-linecap="square" />
  <path d="M486.656 408.562L486.656 423.438" stroke="#DADCDF" stroke-width="3" stroke-miterlimit="10"
    stroke-linecap="square" />
  <path d="M457.75 408.562L457.75 423.438" stroke="#DADCDF" stroke-width="3" stroke-miterlimit="10"
    stroke-linecap="square" />
  <path d="M498.219 445.75L498.219 386.25L440.406 386.25L440.406 445.75L498.219 445.75Z" stroke="#DADCDF"
    stroke-width="3" stroke-miterlimit="10" stroke-linecap="square" />
  <g clip-path="url(#clip3_4355_19008)">
    <path d="M528.565 386.166L528.565 414.863" stroke="#DADCDF" stroke-width="3" stroke-miterlimit="10"
      stroke-linecap="square" />
    <path d="M546.667 396.927L546.667 404.102" stroke="#DADCDF" stroke-width="3" stroke-miterlimit="10"
      stroke-linecap="square" />
    <path d="M516.498 396.927L516.498 404.102" stroke="#DADCDF" stroke-width="3" stroke-miterlimit="10"
      stroke-linecap="square" />
    <path d="M558.734 414.863L558.734 386.166L498.397 386.166L498.397 414.863L558.734 414.863Z" stroke="#DADCDF"
      stroke-width="3" stroke-miterlimit="10" stroke-linecap="square" />
  </g>
  <path d="M347.694 387.29L347.694 446.536" stroke="#DADCDF" stroke-width="3" stroke-miterlimit="10"
    stroke-linecap="square" />
  <path d="M364.804 409.507L364.804 424.319" stroke="#DADCDF" stroke-width="3" stroke-miterlimit="10"
    stroke-linecap="square" />
  <path d="M336.288 409.507L336.288 424.319" stroke="#DADCDF" stroke-width="3" stroke-miterlimit="10"
    stroke-linecap="square" />
  <path d="M376.21 446.536L376.21 387.29L319.179 387.29L319.179 446.536L376.21 446.536Z" stroke="#DADCDF"
    stroke-width="3" stroke-miterlimit="10" stroke-linecap="square" />
  <g clip-path="url(#clip4_4355_19008)">
    <path d="M409 379.5V370.5" stroke="#DADCDF" stroke-width="3" stroke-miterlimit="10" stroke-linecap="square" />
    <path d="M414.854 408C414.854 412.125 412.22 415.5 409 415.5C405.781 415.5 403.146 412.125 403.146 408"
      stroke="#DADCDF" stroke-width="3" stroke-miterlimit="10" />
    <path d="M405.488 389.25L392.024 402.75V408H425.976V402.75L412.512 389.25" stroke="#DADCDF" stroke-width="3"
      stroke-miterlimit="10" />
    <path
      d="M409 379.5C407.068 379.5 405.488 381.525 405.488 384V389.25H412.512V384C412.512 381.525 410.932 379.5 409 379.5Z"
      stroke="#DADCDF" stroke-width="3" stroke-miterlimit="10" stroke-linecap="square" />
  </g>
  <path d="M270.25 404.708H217.75V530.292H270.25V404.708Z" stroke="#DADCDF" stroke-width="3" stroke-miterlimit="10"
    stroke-linecap="square" />
  <path d="M217.75 490.333H244" stroke="#DADCDF" stroke-width="3" stroke-miterlimit="10" stroke-linecap="square" />
  <path d="M244 404.708V530.292" stroke="#DADCDF" stroke-width="3" stroke-miterlimit="10" />
  <path d="M227.958 510.313H233.791" stroke="#DADCDF" stroke-width="3" stroke-miterlimit="10" stroke-linecap="square" />
  <path d="M252.75 473.208V484.625" stroke="#DADCDF" stroke-width="3" stroke-miterlimit="10" stroke-linecap="square" />
  <path
    d="M147 504.5C147 508.366 140.508 516 132.5 516C124.492 516 118 508.366 118 504.5C118 500.634 119.5 501.5 127 500.5C137.5 507.5 147 500.634 147 504.5Z"
    fill="#BD0000" />
  <path
    d="M148.713 501.59C146.582 503.512 143.867 504.664 141.003 504.86C138.14 505.057 135.293 504.288 132.919 502.676C130.455 501.003 127.487 500.24 124.523 500.518C121.558 500.795 118.783 502.096 116.673 504.196"
    fill="#C7202C" />
  <path
    d="M148.713 501.59C146.582 503.512 143.867 504.664 141.003 504.86C138.14 505.057 135.293 504.288 132.919 502.676C130.455 501.003 127.487 500.24 124.523 500.518C121.558 500.795 118.783 502.096 116.673 504.196"
    stroke="#C7202C" stroke-width="2.95833" stroke-miterlimit="10" />
  <path d="M159.125 464.958H105.875V530.042H159.125V464.958Z" stroke="#DADCDF" stroke-width="2.95833"
    stroke-miterlimit="10" stroke-linecap="square" />
  <path
    d="M132.5 516.729C141.486 516.729 148.771 509.444 148.771 500.458C148.771 491.472 141.486 484.188 132.5 484.188C123.514 484.188 116.229 491.472 116.229 500.458C116.229 509.444 123.514 516.729 132.5 516.729Z"
    stroke="#DADCDF" stroke-width="2.95833" stroke-miterlimit="10" stroke-linecap="square" />
  <path d="M114.75 473.833H125.104" stroke="#DADCDF" stroke-width="2.95833" stroke-miterlimit="10"
    stroke-linecap="square" />
  <path
    d="M138.417 476.792C140.051 476.792 141.375 475.467 141.375 473.833C141.375 472.199 140.051 470.875 138.417 470.875C136.783 470.875 135.458 472.199 135.458 473.833C135.458 475.467 136.783 476.792 138.417 476.792Z"
    fill="#DADCDF" />
  <path
    d="M148.771 476.792C150.405 476.792 151.729 475.467 151.729 473.833C151.729 472.199 150.405 470.875 148.771 470.875C147.137 470.875 145.812 472.199 145.812 473.833C145.812 475.467 147.137 476.792 148.771 476.792Z"
    fill="#DADCDF" />
  <path d="M213.125 464.958H159.875V530.042H213.125V464.958Z" stroke="#DADCDF" stroke-width="3" stroke-miterlimit="10"
    stroke-linecap="square" />
  <path
    d="M186.5 516.729C195.486 516.729 202.771 509.444 202.771 500.458C202.771 491.472 195.486 484.188 186.5 484.188C177.514 484.188 170.229 491.472 170.229 500.458C170.229 509.444 177.514 516.729 186.5 516.729Z"
    stroke="#DADCDF" stroke-width="3" stroke-miterlimit="10" stroke-linecap="square" />
  <path d="M168.75 473.833H179.104" stroke="#DADCDF" stroke-width="3" stroke-miterlimit="10" stroke-linecap="square" />
  <path
    d="M192.417 476.792C194.051 476.792 195.375 475.467 195.375 473.833C195.375 472.199 194.051 470.875 192.417 470.875C190.783 470.875 189.458 472.199 189.458 473.833C189.458 475.467 190.783 476.792 192.417 476.792Z"
    fill="#DADCDF" />
  <path
    d="M202.771 476.792C204.405 476.792 205.729 475.467 205.729 473.833C205.729 472.199 204.405 470.875 202.771 470.875C201.137 470.875 199.812 472.199 199.812 473.833C199.812 475.467 201.137 476.792 202.771 476.792Z"
    fill="#DADCDF" />
  <g clip-path="url(#clip5_4355_19008)">
    <path
      d="M297 394.625C289.062 394.625 282.625 401.062 282.625 409C282.625 416.938 289.062 423.375 297 423.375C304.938 423.375 311.375 416.938 311.375 409C311.375 401.062 304.938 394.625 297 394.625ZM296.375 397.125C296.375 396.75 296.625 396.5 297 396.5C297.375 396.5 297.625 396.75 297.625 397.125V399.625C297.625 400 297.375 400.25 297 400.25C296.625 400.25 296.375 400 296.375 399.625V397.125ZM287.625 409.625H285.125C284.75 409.625 284.5 409.375 284.5 409C284.5 408.625 284.75 408.375 285.125 408.375H287.625C288 408.375 288.25 408.625 288.25 409C288.25 409.375 288 409.625 287.625 409.625ZM297.625 420.875C297.625 421.25 297.375 421.5 297 421.5C296.625 421.5 296.375 421.25 296.375 420.875V418.375C296.375 418 296.625 417.75 297 417.75C297.375 417.75 297.625 418 297.625 418.375V420.875ZM302 409.625H297C296.812 409.625 296.625 409.5 296.5 409.375L291.5 401.875C291.312 401.562 291.375 401.188 291.688 401C292 400.812 292.375 400.875 292.562 401.188L297.312 408.375H302C302.375 408.375 302.625 408.625 302.625 409C302.625 409.375 302.375 409.625 302 409.625ZM308.875 409.625H306.375C306 409.625 305.75 409.375 305.75 409C305.75 408.625 306 408.375 306.375 408.375H308.875C309.25 408.375 309.5 408.625 309.5 409C309.5 409.375 309.25 409.625 308.875 409.625Z"
      fill="#BD0000" />
  </g>
  <g clip-path="url(#clip6_4355_19008)">
    <path d="M178.969 421.562H181.656V417.531L166.875 409.084" stroke="#BD0000" stroke-width="3" stroke-miterlimit="10"
      stroke-linecap="square" />
    <path
      d="M166.875 398.719C166.875 397.293 166.309 395.926 165.301 394.918C164.293 393.91 162.926 393.344 161.5 393.344C160.074 393.344 158.707 393.91 157.699 394.918C156.691 395.926 156.125 397.293 156.125 398.719C156.135 399.912 156.534 401.069 157.261 402.015C157.989 402.961 159.005 403.644 160.156 403.959V406.781L141.344 417.531V421.562H144.031"
      stroke="#BD0000" stroke-width="3" stroke-miterlimit="10" stroke-linecap="square" />
    <path d="M174 418H149V447H174V418Z" fill="#DADCDF" stroke="#DADCDF" stroke-width="3" stroke-miterlimit="10"
      stroke-linecap="square" />
  </g>
  <path
    d="M285 48.4C285 51.7137 279.523 55 274 55C268.477 55 263 51.7137 263 48.4C267.5 46.6 268.477 46 274 46C279.523 46 280.5 45.9999 285 48.4Z"
    fill="#C7202C" />
  <path
    d="M306 48.4C306 51.7137 300.025 55 294 55C287.975 55 282 51.7137 282 48.4C286.909 46.6 287.975 46 294 46C300.025 46 301.091 45.9999 306 48.4Z"
    fill="#C7202C" />
  <path
    d="M325 48.4C325 51.7137 319.523 55 314 55C308.477 55 303 51.7137 303 48.4C307.5 46.6 308.477 46 314 46C319.523 46 320.5 45.9999 325 48.4Z"
    fill="#C7202C" />
  <path
    d="M346 48.4C346 51.7137 340.025 55 334 55C327.975 55 322 51.7137 322 48.4C326.909 46.6 327.975 46 334 46C340.025 46 341.091 45.9999 346 48.4Z"
    fill="#C7202C" />
  <path
    d="M365 48.4C365 51.7137 359.523 55 354 55C348.477 55 343 51.7137 343 48.4C347.5 46.6 348.477 46 354 46C359.523 46 360.5 45.9999 365 48.4Z"
    fill="#C7202C" />
  <path
    d="M386 48.4C386 51.7137 380.025 55 374 55C367.975 55 362 51.7137 362 48.4C366.909 46.6 367.975 46 374 46C380.025 46 381.091 45.9999 386 48.4Z"
    fill="#C7202C" />
  <path
    d="M405 48.4C405 51.7137 399.523 55 394 55C388.477 55 383 51.7137 383 48.4C387.5 46.6 388.477 46 394 46C399.523 46 400.5 45.9999 405 48.4Z"
    fill="#C7202C" />
  <path d="M334 0L405 48.5L265 47.5L334 0Z" fill="#BD0000" />
  <defs>
    <clipPath id="clip0_4355_19008">
      <rect width="50.0599" height="50.0599" fill="white" transform="translate(490.81 315.029)" />
    </clipPath>
    <clipPath id="clip1_4355_19008">
      <rect width="36.2136" height="36.2136" fill="white" transform="translate(506.787 280.945)" />
    </clipPath>
    <clipPath id="clip2_4355_19008">
      <rect width="14.3789" height="14.3789" fill="white" transform="translate(497.201 302.78)" />
    </clipPath>
    <clipPath id="clip3_4355_19008">
      <rect width="32.7971" height="77.2319" fill="white" transform="translate(564.768 384.116) rotate(90)" />
    </clipPath>
    <clipPath id="clip4_4355_19008">
      <rect width="37.4634" height="48" fill="white" transform="translate(390.269 369)" />
    </clipPath>
    <clipPath id="clip5_4355_19008">
      <rect width="30" height="30" fill="white" transform="translate(282 394)" />
    </clipPath>
    <clipPath id="clip6_4355_19008">
      <rect width="43" height="57" fill="white" transform="translate(140 392)" />
    </clipPath>
  </defs>
</svg>
