<svg viewBox="0 0 21 20" fill="none" xmlns="http://www.w3.org/2000/svg">
  <g clip-path="url(#clip0_2944_29415)">
    <path
      d="M17.9997 14.1667C17.9997 13.7065 17.6266 13.3334 17.1663 13.3334C16.7061 13.3334 16.333 13.7065 16.333 14.1667V15.8334H14.6663C14.2061 15.8334 13.833 16.2065 13.833 16.6667C13.833 17.1269 14.2061 17.5 14.6663 17.5H16.333V19.1667C16.333 19.6269 16.7061 20 17.1663 20C17.6266 20 17.9997 19.6269 17.9997 19.1667V17.5H19.6663C20.1266 17.5 20.4997 17.1269 20.4997 16.6667C20.4997 16.2065 20.1266 15.8334 19.6663 15.8334H17.9997V14.1667Z"/>
    <path
      d="M8.63218 6.9575C8.45634 6.75167 8.19301 6.64334 7.92051 6.67C7.65134 6.69584 7.41051 6.85084 7.27634 7.08667L3.94301 12.92C3.79551 13.1783 3.79634 13.495 3.94551 13.7517C4.09468 14.0083 4.36968 14.1667 4.66634 14.1667H12.9997C13.3255 14.1667 13.6205 13.9767 13.7563 13.6817C13.8922 13.3858 13.8438 13.0383 13.6322 12.7908L8.63218 6.9575Z"
    />
    <path
      d="M2.16667 1.66667H18V10.8333C18 11.2936 18.3731 11.6667 18.8333 11.6667C19.2936 11.6667 19.6667 11.2936 19.6667 10.8333V0.833333C19.6667 0.373333 19.2942 0 18.8333 0H1.33333C0.8725 0 0.5 0.373333 0.5 0.833333V18.3333C0.5 18.7933 0.8725 19.1667 1.33333 19.1667H11.3333C11.7936 19.1667 12.1667 18.7936 12.1667 18.3333C12.1667 17.8731 11.7936 17.5 11.3333 17.5H2.16667V1.66667Z"
    />
    <path
      d="M13.8337 7.49996C14.7541 7.49996 15.5003 6.75377 15.5003 5.83329C15.5003 4.91282 14.7541 4.16663 13.8337 4.16663C12.9132 4.16663 12.167 4.91282 12.167 5.83329C12.167 6.75377 12.9132 7.49996 13.8337 7.49996Z"
    />
  </g>
  <defs>
    <clipPath id="clip0_2944_29415">
      <rect width="20" height="20" fill="white" transform="translate(0.5)"/>
    </clipPath>
  </defs>
</svg>
