<svg viewBox="0 0 42 42" fill="none" xmlns="http://www.w3.org/2000/svg">
  <g clip-path="url(#clip0_1691_3744)">
    <path
      d="M22.75 4.375H1.75C1.28587 4.375 0.840752 4.55937 0.512563 4.88756C0.184374 5.21575 0 5.66087 0 6.125L0 32.375C0 32.8391 0.184374 33.2843 0.512563 33.6124C0.840752 33.9406 1.28587 34.125 1.75 34.125H3.5C3.5 32.2685 4.2375 30.488 5.55025 29.1753C6.86301 27.8625 8.64348 27.125 10.5 27.125C12.3565 27.125 14.137 27.8625 15.4497 29.1753C16.7625 30.488 17.5 32.2685 17.5 34.125H23.625C23.8571 34.125 24.0796 34.0328 24.2437 33.8687C24.4078 33.7046 24.5 33.4821 24.5 33.25V6.125C24.5 5.66087 24.3156 5.21575 23.9874 4.88756C23.6592 4.55937 23.2141 4.375 22.75 4.375Z"
      fill="#AFB3BA" />
    <path
      d="M41.8932 20.5809L36.6432 10.9559C36.568 10.8179 36.4569 10.7027 36.3217 10.6225C36.1865 10.5423 36.0322 10.5 35.875 10.5H27.125C26.8929 10.5 26.6704 10.5922 26.5063 10.7563C26.3422 10.9204 26.25 11.1429 26.25 11.375V29.5059C27.1882 28.4364 28.4302 27.6785 29.8104 27.3333C31.1905 26.9882 32.6431 27.0721 33.9743 27.5741C35.3055 28.076 36.4519 28.9721 37.2605 30.1426C38.0691 31.313 38.5016 32.7023 38.5 34.125H41.125C41.3571 34.125 41.5796 34.0328 41.7437 33.8687C41.9078 33.7046 42 33.4821 42 33.25V21C42 20.8536 41.9633 20.7094 41.8932 20.5809ZM28.875 21V13.125H34.8355L39.1309 21H28.875Z"
      fill="#AFB3BA" />
    <path
      d="M31.5 39.375C30.4617 39.375 29.4466 39.0671 28.5833 38.4902C27.7199 37.9133 27.047 37.0934 26.6496 36.1341C26.2523 35.1748 26.1483 34.1192 26.3509 33.1008C26.5535 32.0824 27.0535 31.1469 27.7877 30.4127C28.5219 29.6785 29.4574 29.1785 30.4758 28.9759C31.4942 28.7733 32.5498 28.8773 33.5091 29.2746C34.4684 29.672 35.2883 30.3449 35.8652 31.2083C36.4421 32.0716 36.75 33.0867 36.75 34.125C36.7486 35.517 36.195 36.8515 35.2108 37.8358C34.2265 38.82 32.892 39.3736 31.5 39.375ZM31.5 32.375C31.1539 32.375 30.8155 32.4776 30.5278 32.6699C30.24 32.8622 30.0157 33.1355 29.8832 33.4553C29.7508 33.7751 29.7161 34.1269 29.7836 34.4664C29.8512 34.8059 30.0178 35.1177 30.2626 35.3624C30.5073 35.6072 30.8191 35.7739 31.1586 35.8414C31.4981 35.9089 31.8499 35.8742 32.1697 35.7418C32.4895 35.6093 32.7628 35.385 32.9551 35.0973C33.1474 34.8095 33.25 34.4711 33.25 34.125C33.25 33.6609 33.0656 33.2158 32.7374 32.8876C32.4093 32.5594 31.9641 32.375 31.5 32.375Z"
      fill="#AFB3BA" />
    <path
      d="M10.5 39.375C9.46165 39.375 8.44662 39.0671 7.58326 38.4902C6.7199 37.9133 6.04699 37.0934 5.64963 36.1341C5.25227 35.1748 5.14831 34.1192 5.35088 33.1008C5.55345 32.0824 6.05347 31.1469 6.78769 30.4127C7.52192 29.6785 8.45738 29.1785 9.47578 28.9759C10.4942 28.7733 11.5498 28.8773 12.5091 29.2746C13.4684 29.672 14.2883 30.3449 14.8652 31.2083C15.4421 32.0716 15.75 33.0867 15.75 34.125C15.7486 35.517 15.195 36.8515 14.2108 37.8358C13.2265 38.82 11.892 39.3736 10.5 39.375ZM10.5 32.375C10.1539 32.375 9.81554 32.4776 9.52775 32.6699C9.23997 32.8622 9.01567 33.1355 8.88321 33.4553C8.75076 33.7751 8.7161 34.1269 8.78363 34.4664C8.85115 34.8059 9.01782 35.1177 9.26257 35.3624C9.50731 35.6072 9.81913 35.7739 10.1586 35.8414C10.4981 35.9089 10.8499 35.8742 11.1697 35.7418C11.4895 35.6093 11.7628 35.385 11.9551 35.0973C12.1474 34.8095 12.25 34.4711 12.25 34.125C12.25 33.6609 12.0656 33.2158 11.7374 32.8876C11.4093 32.5594 10.9641 32.375 10.5 32.375Z"
      fill="#AFB3BA" />
  </g>
  <defs>
    <clipPath id="clip0_1691_3744">
      <rect width="42" height="42" fill="white" />
    </clipPath>
  </defs>
</svg>
