<svg viewBox="0 0 11 11" fill="none" xmlns="http://www.w3.org/2000/svg">
<path fill-rule="evenodd" clip-rule="evenodd" d="M0 5.5C0 8.53757 2.46243 11 5.5 11C8.53757 11 11 8.53757 11 5.5C11 2.46243 8.53757 0 5.5 0C2.46243 0 0 2.46243 0 5.5ZM5.5 3.66667C5.75313 3.66667 5.95833 3.46146 5.95833 3.20833C5.95833 2.9552 5.75313 2.75 5.5 2.75C5.24687 2.75 5.04167 2.9552 5.04167 3.20833C5.04167 3.46146 5.24687 3.66667 5.5 3.66667ZM5.04167 8.25V8.24999H4.125V7.33332H5.04167V5.5H4.125V4.58333H5.95833V7.33332H6.875V8.24999H5.95833V8.25H5.04167Z" fill="#2F3337"/>
</svg>
