<svg width="32" height="32" viewBox="0 0 32 32" fill="none" xmlns="http://www.w3.org/2000/svg">
<path fill-rule="evenodd" clip-rule="evenodd" d="M19.7421 19.4003L18.5833 19.9375V21.2147V23H13.4167V21.2147V19.9375L12.2579 19.4003C9.15923 17.9637 7 14.7964 7 11.1111C7 6.06016 11.0483 2 16 2C17.3046 2 18.5464 2.28182 19.6681 2.78933L17.7815 6.00827C17.5839 6.34543 17.6783 6.77782 17.9985 7.00192L19.8131 8.27217L17.487 10.4528C17.1849 10.7361 17.1695 11.2108 17.4528 11.513C17.7361 11.8151 18.2108 11.8305 18.513 11.5472L21.513 8.73465C21.6778 8.58012 21.7642 8.35951 21.7481 8.13414C21.732 7.90876 21.6152 7.70265 21.4301 7.57308L19.4255 6.16983L20.9783 3.52027C23.3986 5.14956 25 7.93437 25 11.1111C25 14.7964 22.8408 17.9637 19.7421 19.4003ZM20.5833 23.1481V21.2147C24.3701 19.4592 27 15.5954 27 11.1111C27 4.97459 22.0752 0 16 0C9.92485 0 5 4.97459 5 11.1111C5 15.5954 7.62988 19.4592 11.4167 21.2147V23.1481C11.4167 24.1709 12.2375 25 13.25 25H18.75C19.7625 25 20.5833 24.1709 20.5833 23.1481ZM12 27C12 26.4477 12.4477 26 13 26H19C19.5523 26 20 26.4477 20 27C20 27.5523 19.5523 28 19 28H13C12.4477 28 12 27.5523 12 27ZM13 29C12.4477 29 12 29.4477 12 30C12 30.5523 12.4477 31 13 31H19C19.5523 31 20 30.5523 20 30C20 29.4477 19.5523 29 19 29H13Z" fill="#252525"/>
</svg>
