<svg viewBox="-1 -1 18 18" fill="none" xmlns="http://www.w3.org/2000/svg">
  <path d="M4.27615 15.415H1V8.20752H4.27615" stroke="#2F3337" stroke-miterlimit="10" stroke-linecap="round"
    stroke-linejoin="round" />
  <path
    d="M4.27612 8.20752L6.24181 1C6.76314 1 7.26312 1.2071 7.63176 1.57574C8.0004 1.94437 8.2075 2.44435 8.2075 2.96569V6.89706H13.1217C13.4051 6.89707 13.6851 6.95836 13.9426 7.07673C14.2001 7.1951 14.429 7.36774 14.6135 7.58282C14.798 7.79791 14.9339 8.05035 15.0117 8.32284C15.0895 8.59533 15.1075 8.88143 15.0645 9.16153L14.3588 13.7481C14.2875 14.2119 14.0526 14.6348 13.6967 14.9405C13.3407 15.2462 12.8872 15.4145 12.418 15.415H4.27612V8.20752Z"
    stroke="#2F3337" stroke-miterlimit="10" stroke-linecap="round" stroke-linejoin="round" />
</svg>
