<svg width="21" height="20" viewBox="0 0 21 20" fill="none" xmlns="http://www.w3.org/2000/svg">
<path d="M10.5 0.833365C9.95131 0.827907 9.40704 0.931954 8.89905 1.13942C8.39106 1.34688 7.92956 1.65359 7.54156 2.04159C7.15356 2.42959 6.84685 2.89109 6.63939 3.39908C6.43192 3.90707 6.32788 4.45134 6.33333 5.00003V7.50003H14.6667V5.00003C14.6721 4.45134 14.5681 3.90707 14.3606 3.39908C14.1532 2.89109 13.8464 2.42959 13.4584 2.04159C13.0704 1.65359 12.6089 1.34688 12.1009 1.13942C11.593 0.931954 11.0487 0.827907 10.5 0.833365V0.833365Z" stroke="white" stroke-width="1.66667" stroke-miterlimit="10" stroke-linecap="round" stroke-linejoin="round"/>
<path d="M16.3333 7.50024H4.66667C3.74619 7.50024 3 8.24644 3 9.16691V17.5002C3 18.4207 3.74619 19.1669 4.66667 19.1669H16.3333C17.2538 19.1669 18 18.4207 18 17.5002V9.16691C18 8.24644 17.2538 7.50024 16.3333 7.50024Z" stroke="white" stroke-width="1.66667" stroke-miterlimit="10" stroke-linecap="round" stroke-linejoin="round"/>
<path d="M10.5 14.1669C11.4205 14.1669 12.1666 13.4207 12.1666 12.5002C12.1666 11.5797 11.4205 10.8336 10.5 10.8336C9.57951 10.8336 8.83331 11.5797 8.83331 12.5002C8.83331 13.4207 9.57951 14.1669 10.5 14.1669Z" stroke="white" stroke-width="1.66667" stroke-miterlimit="10" stroke-linecap="round" stroke-linejoin="round"/>
<path d="M10.5 14.1665V15.8332" stroke="white" stroke-width="1.66667" stroke-miterlimit="10" stroke-linecap="round" stroke-linejoin="round"/>
</svg>
