<svg width="43" height="27" viewBox="0 0 43 27" fill="none" xmlns="http://www.w3.org/2000/svg">
<rect x="0.712891" y="0.729492" width="41" height="25" rx="1.5" fill="white" stroke="#DADCDF"/>
<path d="M13.6411 22.2099V21.014C13.6482 20.9134 13.6333 20.8125 13.5973 20.718C13.5613 20.6235 13.5051 20.5375 13.4324 20.4659C13.3597 20.3942 13.2722 20.3385 13.1757 20.3024C13.0792 20.2663 12.9759 20.2507 12.8727 20.2566C12.7376 20.248 12.6026 20.2749 12.4818 20.3345C12.3611 20.3941 12.2589 20.4842 12.186 20.5955C12.1196 20.4875 12.0245 20.3991 11.9109 20.3395C11.7972 20.2798 11.6692 20.2512 11.5402 20.2566C11.4278 20.2511 11.3159 20.2743 11.2156 20.3239C11.1152 20.3736 11.0299 20.4479 10.968 20.5396V20.3044H10.543V22.2099H10.9721V21.1615C10.963 21.0964 10.9687 21.03 10.9889 20.9673C11.0091 20.9045 11.0433 20.8469 11.089 20.7986C11.1347 20.7502 11.1908 20.7123 11.2532 20.6875C11.3157 20.6627 11.383 20.6517 11.4503 20.6552C11.7323 20.6552 11.8754 20.8346 11.8754 21.1575V22.2179H12.3045V21.1615C12.2958 21.0964 12.3018 21.0302 12.3221 20.9677C12.3425 20.9051 12.3767 20.8476 12.4223 20.7993C12.4679 20.751 12.5238 20.7131 12.5861 20.6882C12.6484 20.6633 12.7155 20.6521 12.7828 20.6552C13.0729 20.6552 13.2119 20.8346 13.2119 21.1575V22.2179L13.6411 22.2099ZM19.9905 20.3044H19.2916V19.7264H18.8625V20.3044H18.4742V20.6832H18.8706V21.5602C18.8706 22.0026 19.0464 22.2657 19.5491 22.2657C19.7369 22.2664 19.9211 22.2152 20.0804 22.1182L19.9578 21.7635C19.8438 21.8298 19.7145 21.8668 19.5818 21.8711C19.3774 21.8711 19.2998 21.7435 19.2998 21.5522V20.6832H19.9946L19.9905 20.3044ZM23.6159 20.2566C23.5122 20.2536 23.4097 20.278 23.319 20.3271C23.2284 20.3762 23.153 20.4483 23.1009 20.5357V20.3044H22.6799V22.2099H23.105V21.1416C23.105 20.8267 23.2439 20.6513 23.5137 20.6513C23.6046 20.65 23.6949 20.6663 23.7793 20.6991L23.9101 20.3005C23.8131 20.2666 23.7108 20.2491 23.6077 20.2486L23.6159 20.2566ZM18.1349 20.4559C17.8943 20.3164 17.6177 20.2472 17.3379 20.2566C16.8434 20.2566 16.5205 20.4878 16.5205 20.8665C16.5205 21.1775 16.7575 21.3688 17.1949 21.4286L17.3992 21.4565C17.6322 21.4884 17.7426 21.5482 17.7426 21.6558C17.7426 21.8033 17.5872 21.887 17.2971 21.887C17.0636 21.8936 16.8347 21.8234 16.6472 21.6877L16.4428 22.0106C16.6904 22.1792 16.987 22.2659 17.2889 22.2578C17.8529 22.2578 18.1799 21.9987 18.1799 21.6359C18.1799 21.2731 17.9224 21.1256 17.4973 21.0658L17.293 21.0379C17.109 21.014 16.9619 20.9781 16.9619 20.8506C16.9619 20.723 17.1009 20.6273 17.3338 20.6273C17.5492 20.6298 17.7603 20.6861 17.9469 20.7908L18.1349 20.4559ZM29.5198 20.2566C29.4162 20.2536 29.3136 20.278 29.223 20.3271C29.1324 20.3762 29.057 20.4483 29.0048 20.5357V20.3044H28.5838V22.2099H29.0089V21.1416C29.0089 20.8267 29.1479 20.6513 29.4176 20.6513C29.5085 20.65 29.5988 20.6663 29.6833 20.6991L29.8141 20.3005C29.717 20.2666 29.6147 20.2491 29.5116 20.2486L29.5198 20.2566ZM24.043 21.2532C24.0379 21.3871 24.0616 21.5206 24.1124 21.645C24.1633 21.7695 24.2402 21.8823 24.3383 21.9761C24.4365 22.0699 24.5536 22.1427 24.6822 22.1898C24.8108 22.237 24.948 22.2574 25.0852 22.2498C25.3404 22.2625 25.5912 22.1814 25.7882 22.0226L25.5838 21.6877C25.4369 21.797 25.2577 21.8571 25.0729 21.8591C24.9158 21.8467 24.7692 21.7771 24.6624 21.6641C24.5555 21.5511 24.4962 21.403 24.4962 21.2492C24.4962 21.0955 24.5555 20.9474 24.6624 20.8343C24.7692 20.7213 24.9158 20.6517 25.0729 20.6393C25.2577 20.6413 25.4369 20.7014 25.5838 20.8107L25.7882 20.4759C25.5912 20.317 25.3404 20.236 25.0852 20.2486C24.948 20.2411 24.8108 20.2615 24.6822 20.3086C24.5536 20.3558 24.4365 20.4286 24.3383 20.5224C24.2402 20.6162 24.1633 20.7289 24.1124 20.8534C24.0616 20.9779 24.0379 21.1113 24.043 21.2452V21.2532ZM28.0239 21.2532V20.3044H27.5988V20.5357C27.5266 20.4451 27.4334 20.3725 27.3268 20.324C27.2202 20.2755 27.1033 20.2524 26.9858 20.2566C26.7148 20.2566 26.4549 20.3616 26.2632 20.5485C26.0716 20.7354 25.964 20.9889 25.964 21.2532C25.964 21.5175 26.0716 21.771 26.2632 21.9579C26.4549 22.1448 26.7148 22.2498 26.9858 22.2498C27.1033 22.254 27.2202 22.2309 27.3268 22.1824C27.4334 22.1339 27.5266 22.0613 27.5988 21.9708V22.202H28.0239V21.2532ZM26.4422 21.2532C26.4489 21.141 26.4892 21.0333 26.558 20.9431C26.6268 20.853 26.7211 20.7845 26.8293 20.746C26.9375 20.7074 27.0549 20.7006 27.1671 20.7264C27.2792 20.7521 27.3812 20.8093 27.4604 20.8909C27.5396 20.9724 27.5927 21.0748 27.613 21.1854C27.6334 21.296 27.6201 21.4099 27.5749 21.5133C27.5297 21.6166 27.4544 21.7048 27.3585 21.7669C27.2625 21.8291 27.15 21.8625 27.0348 21.8631C26.9539 21.8641 26.8736 21.8488 26.7991 21.8181C26.7245 21.7873 26.6573 21.7419 26.6017 21.6846C26.546 21.6273 26.5031 21.5594 26.4756 21.4852C26.4482 21.4109 26.4368 21.332 26.4422 21.2532ZM21.3127 20.2566C21.0417 20.2603 20.7833 20.3689 20.5944 20.5584C20.4055 20.7479 20.3014 21.0028 20.3052 21.2672C20.309 21.5315 20.4203 21.7835 20.6146 21.9678C20.8089 22.152 21.0703 22.2535 21.3413 22.2498C21.6354 22.2645 21.9245 22.1722 22.1526 21.9907L21.9483 21.6837C21.7869 21.81 21.587 21.8801 21.3802 21.8831C21.2397 21.8948 21.1 21.8527 20.9908 21.7656C20.8817 21.6785 20.8117 21.5533 20.7957 21.4166H22.2466C22.2466 21.3648 22.2466 21.313 22.2466 21.2572C22.2466 20.6592 21.8665 20.2606 21.3189 20.2606L21.3127 20.2566ZM21.3127 20.6273C21.3763 20.626 21.4396 20.6369 21.4989 20.6595C21.5581 20.682 21.6123 20.7157 21.6582 20.7586C21.7042 20.8016 21.741 20.8529 21.7665 20.9097C21.7921 20.9665 21.8059 21.0277 21.8073 21.0898H20.7855C20.7929 20.9618 20.8513 20.8418 20.9484 20.7553C21.0454 20.6689 21.1732 20.623 21.3046 20.6273H21.3127ZM31.9619 21.2572V19.5391H31.5532V20.5357C31.481 20.4451 31.3878 20.3725 31.2812 20.324C31.1746 20.2755 31.0577 20.2524 30.9401 20.2566C30.6691 20.2566 30.4092 20.3616 30.2176 20.5485C30.026 20.7354 29.9183 20.9889 29.9183 21.2532C29.9183 21.5175 30.026 21.771 30.2176 21.9579C30.4092 22.1448 30.6691 22.2498 30.9401 22.2498C31.0577 22.254 31.1746 22.2309 31.2812 22.1824C31.3878 22.1339 31.481 22.0613 31.5532 21.9708V22.202H31.9619V21.2572ZM32.671 21.9329C32.6976 21.9326 32.724 21.9373 32.7487 21.9468C32.7722 21.9562 32.7936 21.9697 32.812 21.9867C32.83 22.0039 32.8446 22.0242 32.855 22.0465C32.8653 22.0698 32.8707 22.0949 32.8707 22.1202C32.8707 22.1456 32.8653 22.1707 32.855 22.194C32.8446 22.2163 32.83 22.2366 32.812 22.2538C32.7936 22.2708 32.7722 22.2843 32.7487 22.2936C32.7242 22.3042 32.6978 22.3096 32.671 22.3096C32.6323 22.3093 32.5944 22.2983 32.5619 22.2778C32.5293 22.2574 32.5034 22.2283 32.4871 22.194C32.4769 22.1707 32.4716 22.1456 32.4716 22.1202C32.4716 22.0949 32.4769 22.0698 32.4871 22.0465C32.4975 22.0242 32.5121 22.0039 32.53 21.9867C32.5484 21.9697 32.5699 21.9562 32.5934 21.9468C32.62 21.9365 32.6485 21.9318 32.6772 21.9329H32.671ZM32.671 22.2697C32.6914 22.2699 32.7116 22.2658 32.7303 22.2578C32.7479 22.2501 32.7638 22.2393 32.7773 22.2259C32.8029 22.1987 32.817 22.1631 32.817 22.1262C32.817 22.0893 32.8029 22.0538 32.7773 22.0266C32.7639 22.0131 32.7479 22.0023 32.7303 21.9947C32.7116 21.9867 32.6914 21.9827 32.671 21.9827C32.6507 21.9828 32.6305 21.9869 32.6118 21.9947C32.5934 22.002 32.5767 22.0129 32.5627 22.0266C32.5372 22.0538 32.523 22.0893 32.523 22.1262C32.523 22.1631 32.5372 22.1987 32.5627 22.2259C32.5768 22.2395 32.5934 22.2504 32.6118 22.2578C32.6324 22.2664 32.6547 22.2705 32.6772 22.2697H32.671ZM32.6833 22.0325C32.7024 22.0316 32.7212 22.0373 32.7364 22.0485C32.7427 22.0535 32.7476 22.06 32.7508 22.0672C32.754 22.0745 32.7554 22.0824 32.7548 22.0903C32.7551 22.097 32.754 22.1036 32.7515 22.1097C32.7491 22.1159 32.7453 22.1215 32.7405 22.1262C32.7287 22.1367 32.7136 22.143 32.6976 22.1442L32.7569 22.2099H32.7099L32.6547 22.1442H32.6363V22.2099H32.5975V22.0345L32.6833 22.0325ZM32.6383 22.0664V22.1143H32.6833C32.6913 22.1166 32.6998 22.1166 32.7078 22.1143C32.7093 22.1115 32.71 22.1084 32.71 22.1053C32.71 22.1022 32.7093 22.0991 32.7078 22.0963C32.7093 22.0935 32.71 22.0905 32.71 22.0874C32.71 22.0842 32.7093 22.0812 32.7078 22.0784C32.6998 22.0761 32.6913 22.0761 32.6833 22.0784L32.6383 22.0664ZM30.3904 21.2572C30.3972 21.145 30.4374 21.0372 30.5062 20.9471C30.575 20.857 30.6693 20.7885 30.7775 20.7499C30.8858 20.7114 31.0032 20.7046 31.1153 20.7304C31.2274 20.7561 31.3294 20.8133 31.4086 20.8948C31.4879 20.9764 31.5409 21.0788 31.5613 21.1894C31.5816 21.3 31.5684 21.4139 31.5231 21.5173C31.4779 21.6206 31.4027 21.7088 31.3067 21.7709C31.2107 21.8331 31.0982 21.8665 30.983 21.8671C30.9021 21.8681 30.8219 21.8528 30.7473 21.822C30.6728 21.7913 30.6056 21.7459 30.5499 21.6886C30.4942 21.6313 30.4513 21.5634 30.4239 21.4892C30.3964 21.4149 30.385 21.3359 30.3904 21.2572ZM16.0382 21.2572V20.3044H15.6131V20.5357C15.5409 20.4451 15.4477 20.3725 15.3411 20.324C15.2345 20.2755 15.1176 20.2524 15.0001 20.2566C14.7291 20.2566 14.4692 20.3616 14.2775 20.5485C14.0859 20.7354 13.9783 20.9889 13.9783 21.2532C13.9783 21.5175 14.0859 21.771 14.2775 21.9579C14.4692 22.1448 14.7291 22.2498 15.0001 22.2498C15.1176 22.254 15.2345 22.2309 15.3411 22.1824C15.4477 22.1339 15.5409 22.0613 15.6131 21.9708V22.202H16.0382V21.2572ZM14.4565 21.2572C14.4632 21.145 14.5035 21.0372 14.5723 20.9471C14.6411 20.857 14.7354 20.7885 14.8436 20.7499C14.9518 20.7114 15.0692 20.7046 15.1814 20.7304C15.2935 20.7561 15.3955 20.8133 15.4747 20.8948C15.5539 20.9764 15.607 21.0788 15.6274 21.1894C15.6477 21.3 15.6344 21.4139 15.5892 21.5173C15.544 21.6206 15.4687 21.7088 15.3728 21.7709C15.2768 21.8331 15.1643 21.8665 15.0491 21.8671C14.9678 21.8687 14.8871 21.8537 14.8121 21.8233C14.7371 21.7928 14.6694 21.7474 14.6133 21.6901C14.5572 21.6327 14.5139 21.5647 14.4862 21.4901C14.4585 21.4156 14.447 21.3363 14.4524 21.2572H14.4565Z" fill="#231F20"/>
<path d="M24.4315 5.78394H17.9941V17.0674H24.4315V5.78394Z" fill="#FF5F00"/>
<path d="M18.4025 11.4267C18.4013 10.3399 18.6537 9.26705 19.1405 8.28942C19.6273 7.3118 20.3359 6.45504 21.2124 5.78401C20.1271 4.95209 18.8237 4.43478 17.4512 4.29118C16.0787 4.14758 14.6924 4.3835 13.4509 4.97197C12.2093 5.56043 11.1626 6.47771 10.4303 7.61896C9.69793 8.76021 9.30957 10.0794 9.30957 11.4257C9.30957 12.7721 9.69793 14.0912 10.4303 15.2325C11.1626 16.3738 12.2093 17.291 13.4509 17.8795C14.6924 18.468 16.0787 18.7039 17.4512 18.5603C18.8237 18.4167 20.1271 17.8994 21.2124 17.0675C20.3361 16.3966 19.6278 15.5402 19.141 14.5629C18.6541 13.5857 18.4016 12.5132 18.4025 11.4267Z" fill="#EB001B"/>
<path d="M33.1168 11.4266C33.1168 12.773 32.7284 14.0923 31.9959 15.2336C31.2634 16.3749 30.2165 17.2921 28.9748 17.8805C27.7331 18.4689 26.3467 18.7047 24.9741 18.5609C23.6016 18.4171 22.2981 17.8995 21.2129 17.0673C22.0888 16.3959 22.797 15.5392 23.2839 14.5619C23.7709 13.5846 24.0239 12.5122 24.0239 11.4256C24.0239 10.339 23.7709 9.26658 23.2839 8.28927C22.797 7.31196 22.0888 6.45528 21.2129 5.78386C22.2981 4.95169 23.6016 4.43412 24.9741 4.29031C26.3467 4.14651 27.7331 4.38228 28.9748 4.97066C30.2165 5.55904 31.2634 6.47631 31.9959 7.6176C32.7284 8.75889 33.1168 10.0782 33.1168 11.4246V11.4266Z" fill="#F79E1B"/>
<path d="M32.4137 15.8713V15.6401H32.5098V15.5923H32.2666V15.6401H32.3708V15.8713H32.4137ZM32.8858 15.8713V15.5923H32.8122L32.7264 15.7916L32.6406 15.5923H32.5752V15.8713H32.6283V15.662L32.708 15.8434H32.7632L32.8429 15.662V15.8733L32.8858 15.8713Z" fill="#F79E1B"/>
</svg>
