<svg width="24" height="25" viewBox="0 0 24 25" fill="none" xmlns="http://www.w3.org/2000/svg">
<path d="M23 13.5H1C0.4 13.5 0 13.1 0 12.5C0 11.9 0.4 11.5 1 11.5H23C23.6 11.5 24 11.9 24 12.5C24 13.1 23.6 13.5 23 13.5Z" fill="#2F3337"/>
<path d="M23 6.5H1C0.4 6.5 0 6.1 0 5.5C0 4.9 0.4 4.5 1 4.5H23C23.6 4.5 24 4.9 24 5.5C24 6.1 23.6 6.5 23 6.5Z" fill="#2F3337"/>
<path d="M23 20.5H1C0.4 20.5 0 20.1 0 19.5C0 18.9 0.4 18.5 1 18.5H23C23.6 18.5 24 18.9 24 19.5C24 20.1 23.6 20.5 23 20.5Z" fill="#2F3337"/>
</svg>
