<svg width="23" height="22" viewBox="0 0 23 22" fill="none" xmlns="http://www.w3.org/2000/svg">
<path fill-rule="evenodd" clip-rule="evenodd" d="M6.61246 13.229L4.80615 0.765374C4.74265 0.327224 4.33641 0 3.85595 0H0.9801C0.450671 0 0.0214844 0.394855 0.0214844 0.881934C0.0214844 1.36901 0.450671 1.76387 0.9801 1.76387H3.01666L4.82297 14.2275C4.88647 14.6656 5.29272 14.9929 5.77318 14.9929H19.1938C19.6507 14.9929 20.0442 14.6961 20.1338 14.2839L22.051 5.46456C22.1549 4.98694 21.8182 4.52232 21.299 4.42679C20.7799 4.33127 20.2749 4.64102 20.171 5.11864L18.4079 13.229H6.61246ZM6.73223 21.589C7.79109 21.589 8.64946 20.7306 8.64946 19.6718C8.64946 18.6129 7.79109 17.7545 6.73223 17.7545C5.67337 17.7545 4.815 18.6129 4.815 19.6718C4.815 20.7306 5.67337 21.589 6.73223 21.589ZM20.1527 19.6718C20.1527 20.7306 19.2943 21.589 18.2355 21.589C17.1766 21.589 16.3182 20.7306 16.3182 19.6718C16.3182 18.6129 17.1766 17.7545 18.2355 17.7545C19.2943 17.7545 20.1527 18.6129 20.1527 19.6718Z" fill="#2F3337"/>
</svg>
