<svg width="217" height="157" viewBox="0 0 217 157" fill="none" xmlns="http://www.w3.org/2000/svg">
  <path d="M21.5507 154L21.5507 73.6255" stroke="#DADCDF" stroke-width="3.65354" stroke-miterlimit="10"
    stroke-linecap="square" />
  <path d="M31.419 38H11.8063L2 65.5035V69.4326H41.2253V65.5035L31.419 38Z" stroke="#DADCDF" stroke-width="3.65354"
    stroke-miterlimit="10" stroke-linecap="square" />
  <path d="M33.3801 153.908H9.84497" stroke="#DADCDF" stroke-width="3.65354" stroke-miterlimit="10"
    stroke-linecap="square" />
  <path d="M59.2177 117.55H98.4061" stroke="#DADCDF" stroke-width="3.65354" stroke-miterlimit="10"
    stroke-linecap="square" />
  <path d="M50.82 154V148.392" stroke="#DADCDF" stroke-width="3.65354" stroke-miterlimit="10" stroke-linecap="square" />
  <path d="M106.804 154V148.392" stroke="#DADCDF" stroke-width="3.65354" stroke-miterlimit="10"
    stroke-linecap="square" />
  <path
    d="M108.203 104.933V82.5018C108.203 80.6427 107.466 78.8598 106.153 77.5453C104.841 76.2307 103.061 75.4922 101.205 75.4922H56.4183C54.5623 75.4922 52.7824 76.2307 51.47 77.5453C50.1576 78.8598 49.4203 80.6427 49.4203 82.5018V104.933"
    stroke="#DADCDF" stroke-width="3.65354" stroke-miterlimit="10" stroke-linecap="square" />
  <path
    d="M118 114.746C118 112.143 116.968 109.647 115.131 107.807C113.293 105.966 110.801 104.933 108.203 104.933C105.605 104.933 103.113 105.966 101.275 107.807C99.4381 109.647 98.4059 112.143 98.4059 114.746V132.971H59.2175V114.746C59.2186 113.058 58.7852 111.399 57.959 109.928C57.1329 108.457 55.9421 107.224 54.5015 106.349C53.0609 105.474 51.4193 104.985 49.7353 104.931C48.0513 104.877 46.3818 105.259 44.8881 106.039C43.3943 106.82 42.1268 107.974 41.2081 109.388C40.2893 110.803 39.7503 112.431 39.6431 114.115C39.536 115.8 39.8643 117.483 40.5963 119.003C41.3283 120.523 42.4394 121.829 43.8221 122.793V141.383C43.8221 143.242 44.5593 145.025 45.8717 146.339C47.1841 147.654 48.964 148.392 50.82 148.392H106.803C108.659 148.392 110.439 147.654 111.752 146.339C113.064 145.025 113.801 143.242 113.801 141.383V122.793C115.098 121.891 116.157 120.688 116.888 119.286C117.619 117.885 118.001 116.327 118 114.746Z"
    stroke="#DADCDF" stroke-width="3.65354" stroke-miterlimit="10" stroke-linecap="square" />
  <path
    d="M73.2193 115.71C72.437 116.982 70.8224 117.379 69.5759 116.605L61.6223 111.669C59.0256 110.021 58.2214 106.525 59.8262 103.86C61.4309 101.194 64.8369 100.369 67.4336 102.016L67.6925 102.18C68.0066 102.379 68.4171 102.279 68.6124 101.954L68.7703 101.692C70.3751 99.0263 73.781 98.2008 76.3777 99.848C78.9744 101.495 79.7786 104.991 78.1739 107.657L73.2193 115.71Z"
    fill="#BD0000" />
  <path d="M167 15L155 3L143 15" stroke="#DADCDF" stroke-width="3" stroke-miterlimit="10" />
  <path d="M184 15H126V59H184V15Z" stroke="#DADCDF" stroke-width="3" stroke-miterlimit="10" stroke-linecap="square" />
  <path
    d="M157.559 47H152.441L150.052 51.7765C150.014 51.8527 149.996 51.9375 150 52.0226C150.004 52.1078 150.03 52.1905 150.075 52.263C150.119 52.3355 150.182 52.3953 150.256 52.4368C150.331 52.4783 150.415 52.5 150.5 52.5H159.5C159.585 52.5005 159.67 52.479 159.744 52.4377C159.819 52.3964 159.882 52.3366 159.927 52.2641C159.972 52.1915 159.998 52.1086 160.002 52.0232C160.006 51.9379 159.988 51.8529 159.95 51.7765L157.559 47Z"
    fill="#DADCDF" />
  <path
    d="M142.309 34.976L142.678 34.6045C143.069 34.2264 143.592 34.015 144.136 34.015C144.68 34.015 145.202 34.2264 145.593 34.6045C145.878 34.8888 146.215 35.1143 146.586 35.2681C146.958 35.4219 147.356 35.5011 147.758 35.5011C148.16 35.5011 148.558 35.4219 148.929 35.2681C149.3 35.1143 149.638 34.8888 149.922 34.6045C150.313 34.2275 150.836 34.0169 151.379 34.0169C151.922 34.0169 152.445 34.2275 152.836 34.6045C153.41 35.1777 154.189 35.4996 155 35.4996C155.811 35.4996 156.59 35.1777 157.164 34.6045C157.355 34.4126 157.582 34.2603 157.832 34.1565C158.082 34.0528 158.35 33.9996 158.621 34C158.892 33.9992 159.16 34.0521 159.41 34.1557C159.66 34.2593 159.887 34.4115 160.078 34.6035C160.653 35.1761 161.431 35.4976 162.242 35.4976C163.053 35.4976 163.831 35.1761 164.406 34.6035C164.797 34.2264 165.32 34.0156 165.863 34.0156C166.407 34.0156 166.929 34.2264 167.32 34.6035L167.69 34.976L168.044 34.5865C168.13 34.4915 168.177 34.3667 168.174 34.2382C168.171 34.1098 168.118 33.9874 168.027 33.8965C167.743 33.6123 167.406 33.3868 167.035 33.233C166.663 33.0792 166.265 33 165.863 33C165.461 33 165.063 33.0792 164.692 33.233C164.321 33.3868 163.983 33.6123 163.699 33.8965C163.312 34.2823 162.788 34.4989 162.242 34.4989C161.695 34.4989 161.171 34.2823 160.784 33.8965C160.21 33.3234 159.432 33.0015 158.62 33.0015C157.809 33.0015 157.031 33.3234 156.456 33.8965C156.07 34.2825 155.546 34.4992 154.999 34.4992C154.453 34.4992 153.929 34.2825 153.542 33.8965C152.968 33.3232 152.19 33.0012 151.378 33.0012C150.567 33.0012 149.788 33.3232 149.214 33.8965C149.023 34.0879 148.796 34.2397 148.546 34.3432C148.296 34.4468 148.028 34.5001 147.757 34.5001C147.486 34.5001 147.218 34.4468 146.968 34.3432C146.718 34.2397 146.491 34.0879 146.3 33.8965C146.016 33.6123 145.678 33.3868 145.307 33.233C144.936 33.0792 144.538 33 144.136 33C143.734 33 143.336 33.0792 142.964 33.233C142.593 33.3868 142.256 33.6123 141.971 33.8965C141.881 33.9874 141.828 34.1098 141.825 34.2382C141.822 34.3667 141.869 34.4915 141.955 34.5865L142.309 34.976Z"
    fill="#DADCDF" />
  <path
    d="M166.613 35.3095C166.405 35.128 166.139 35.0279 165.863 35.0279C165.587 35.0279 165.321 35.128 165.113 35.3095C164.351 36.0694 163.318 36.496 162.242 36.496C161.165 36.496 160.133 36.0694 159.37 35.3095C159.168 35.1169 158.899 35.0095 158.62 35.0095C158.341 35.0095 158.072 35.1169 157.87 35.3095C157.108 36.0703 156.076 36.4976 154.999 36.4976C153.922 36.4976 152.89 36.0703 152.128 35.3095C151.92 35.1288 151.654 35.0292 151.378 35.0292C151.102 35.0292 150.836 35.1288 150.628 35.3095C150.251 35.6867 149.803 35.986 149.311 36.1901C148.818 36.3943 148.29 36.4994 147.756 36.4994C147.223 36.4994 146.695 36.3943 146.202 36.1901C145.709 35.986 145.262 35.6867 144.885 35.3095C144.677 35.1278 144.41 35.0276 144.135 35.0276C143.859 35.0276 143.592 35.1278 143.385 35.3095L142.981 35.716L152.325 46H154.5V43.5C154.5 43.3674 154.553 43.2402 154.646 43.1465C154.74 43.0527 154.867 43 155 43C155.133 43 155.26 43.0527 155.354 43.1465C155.447 43.2402 155.5 43.3674 155.5 43.5V46H157.676L167.018 35.717L166.613 35.3095Z"
    fill="#DADCDF" />
  <path
    d="M149 26V24.0095C148.38 24.4738 147.876 25.0761 147.529 25.7687C147.182 26.4614 147.001 27.2253 147 28C147 28.1326 146.947 28.2598 146.854 28.3536C146.76 28.4473 146.633 28.5 146.5 28.5C146.367 28.5 146.24 28.4473 146.146 28.3536C146.053 28.2598 146 28.1326 146 28C146 26.7378 146.401 25.5082 147.145 24.4885C145.951 23.5748 144.503 23.0547 143 23C142.867 23 142.74 23.0527 142.646 23.1464C142.553 23.2402 142.5 23.3674 142.5 23.5V27.5C142.499 28.5245 142.813 29.5246 143.4 30.3646C143.986 31.2047 144.817 31.844 145.779 32.1961C146.741 32.5481 147.788 32.5958 148.779 32.3326C149.769 32.0695 150.654 31.5083 151.315 30.725C150.594 30.1657 150.012 29.4492 149.61 28.6304C149.209 27.8115 149.001 26.9118 149 26Z"
    fill="#BD0000" />
  <path
    d="M161 26V24.0095C161.62 24.4738 162.124 25.0761 162.471 25.7687C162.818 26.4614 162.999 27.2253 163 28C163 28.1326 163.053 28.2598 163.146 28.3536C163.24 28.4473 163.367 28.5 163.5 28.5C163.633 28.5 163.76 28.4473 163.854 28.3536C163.947 28.2598 164 28.1326 164 28C164 26.7378 163.599 25.5082 162.855 24.4885C164.049 23.5748 165.497 23.0547 167 23C167.133 23 167.26 23.0527 167.354 23.1464C167.447 23.2402 167.5 23.3674 167.5 23.5V27.5C167.501 28.5245 167.187 29.5246 166.6 30.3646C166.014 31.2047 165.183 31.844 164.221 32.1961C163.259 32.5481 162.212 32.5958 161.221 32.3326C160.231 32.0695 159.346 31.5083 158.685 30.725C159.406 30.1657 159.988 29.4492 160.39 28.6304C160.791 27.8115 160.999 26.9118 161 26Z"
    fill="#BD0000" />
  <path
    d="M159.5 21.5C157.997 21.5547 156.549 22.0748 155.355 22.9885C156.099 24.0082 156.5 25.2378 156.5 26.5C156.5 26.6326 156.447 26.7598 156.354 26.8536C156.26 26.9473 156.133 27 156 27C155.867 27 155.74 26.9473 155.646 26.8536C155.553 26.7598 155.5 26.6326 155.5 26.5C155.499 25.1744 154.971 23.9034 154.034 22.9661C153.097 22.0287 151.826 21.5015 150.5 21.5C150.367 21.5 150.24 21.5527 150.146 21.6464C150.053 21.7402 150 21.8674 150 22V26C150.002 27.239 150.463 28.4335 151.294 29.3523C152.125 30.2712 153.267 30.8491 154.5 30.9745V32.5C154.5 32.6326 154.553 32.7598 154.646 32.8536C154.74 32.9473 154.867 33 155 33C155.133 33 155.26 32.9473 155.354 32.8536C155.447 32.7598 155.5 32.6326 155.5 32.5V30.9745C156.733 30.8491 157.875 30.2712 158.706 29.3523C159.537 28.4335 159.998 27.239 160 26V22C160 21.8674 159.947 21.7402 159.854 21.6464C159.76 21.5527 159.633 21.5 159.5 21.5Z"
    fill="#BD0000" />
  <path
    d="M185 123V111C185 106.757 183.314 102.687 180.314 99.6863C177.313 96.6857 173.243 95 169 95C169 99.2435 170.686 103.313 173.686 106.314C176.687 109.314 180.757 111 185 111"
    stroke="#DADCDF" stroke-width="3" stroke-miterlimit="10" stroke-linecap="square" />
  <path
    d="M177 129V147C177 149.122 177.843 151.157 179.343 152.657C180.843 154.157 182.878 155 185 155C187.122 155 189.157 154.157 190.657 152.657C192.157 151.157 193 149.122 193 147V129H177Z"
    stroke="#DADCDF" stroke-width="3" stroke-miterlimit="10" stroke-linecap="square" />
  <path d="M177 137H182" stroke="#DADCDF" stroke-width="3" stroke-miterlimit="10" stroke-linecap="square" />
  <path d="M177 145H182" stroke="#DADCDF" stroke-width="3" stroke-miterlimit="10" stroke-linecap="square" />
  <path
    d="M191.072 115.808C194.009 114.603 196.521 112.551 198.289 109.914C200.056 107.277 201 104.175 201 101C196.757 101 192.687 102.686 189.686 105.686C186.686 108.687 185 112.757 185 117"
    stroke="#DADCDF" stroke-width="3" stroke-miterlimit="10" stroke-linecap="square" />
</svg>