<svg width="384" height="279" viewBox="0 0 384 279" fill="none" xmlns="http://www.w3.org/2000/svg">
<path d="M36.7024 273.35L36.7024 130.685" stroke="#DADCDF" stroke-width="4" stroke-miterlimit="10" stroke-linecap="square"/>
<path d="M54.2187 67.45H19.4062L2 116.269V123.243H71.6249V116.269L54.2187 67.45Z" stroke="#DADCDF" stroke-width="4" stroke-miterlimit="10" stroke-linecap="square"/>
<path d="M57.6997 273.186H15.9248" stroke="#DADCDF" stroke-width="4" stroke-miterlimit="10" stroke-linecap="square"/>
<path d="M103.561 208.651H173.121" stroke="#DADCDF" stroke-width="4" stroke-miterlimit="10" stroke-linecap="square"/>
<path d="M88.6555 273.35V263.396" stroke="#DADCDF" stroke-width="4" stroke-miterlimit="10" stroke-linecap="square"/>
<path d="M188.026 273.35V263.396" stroke="#DADCDF" stroke-width="4" stroke-miterlimit="10" stroke-linecap="square"/>
<path d="M190.51 186.255V146.441C190.51 143.141 189.201 139.976 186.872 137.643C184.543 135.31 181.383 133.999 178.089 133.999H98.5922C95.2979 133.999 92.1385 135.31 89.809 137.643C87.4796 139.976 86.1709 143.141 86.1709 146.441V186.255" stroke="#DADCDF" stroke-width="4" stroke-miterlimit="10" stroke-linecap="square"/>
<path d="M207.9 203.674C207.9 199.054 206.068 194.624 202.807 191.357C199.546 188.091 195.122 186.255 190.51 186.255C185.898 186.255 181.475 188.091 178.214 191.357C174.953 194.624 173.12 199.054 173.12 203.674V236.024H103.561V203.674C103.563 200.679 102.794 197.733 101.327 195.122C99.8609 192.511 97.7471 190.323 95.1901 188.77C92.633 187.216 89.7192 186.349 86.7301 186.253C83.741 186.157 80.7776 186.834 78.1262 188.22C75.4748 189.606 73.225 191.653 71.5942 194.164C69.9634 196.675 69.0067 199.565 68.8165 202.555C68.6262 205.545 69.209 208.533 70.5083 211.231C71.8077 213.929 73.7798 216.246 76.2341 217.958V250.954C76.2341 254.254 77.5427 257.419 79.8722 259.752C82.2016 262.085 85.361 263.396 88.6554 263.396H188.026C191.32 263.396 194.48 262.085 196.809 259.752C199.139 257.419 200.447 254.254 200.447 250.954V217.958C202.748 216.356 204.628 214.221 205.926 211.733C207.224 209.246 207.901 206.481 207.9 203.674Z" stroke="#DADCDF" stroke-width="4" stroke-miterlimit="10" stroke-linecap="square"/>
<path d="M128.414 205.386C127.026 207.643 124.16 208.347 121.947 206.974L107.83 198.212C103.22 195.288 101.793 189.082 104.641 184.351C107.49 179.62 113.535 178.154 118.145 181.078L118.604 181.37C119.162 181.723 119.89 181.544 120.237 180.969L120.517 180.503C123.366 175.772 129.411 174.306 134.021 177.23C138.63 180.154 140.057 186.36 137.209 191.091L128.414 205.386Z" fill="#BD0000"/>
<path d="M294.875 26.625L273.575 5.32501L252.275 26.625" stroke="#DADCDF" stroke-width="4" stroke-miterlimit="10"/>
<path d="M325.05 26.625H222.1V104.725H325.05V26.625Z" stroke="#DADCDF" stroke-width="4" stroke-miterlimit="10" stroke-linecap="square"/>
<path d="M278.117 83.425H269.032L264.793 91.9033C264.725 92.0386 264.693 92.189 264.7 92.3401C264.707 92.4913 264.752 92.6382 264.832 92.7668C264.912 92.8955 265.023 93.0017 265.155 93.0753C265.287 93.149 265.436 93.1876 265.587 93.1875H281.562C281.714 93.1883 281.863 93.1503 281.996 93.077C282.129 93.0036 282.24 92.8975 282.321 92.7687C282.401 92.6399 282.446 92.4928 282.454 92.3413C282.461 92.1897 282.429 92.039 282.361 91.9033L278.117 83.425Z" fill="#DADCDF"/>
<path d="M251.049 62.0824L251.703 61.423C252.397 60.7517 253.325 60.3765 254.291 60.3765C255.256 60.3765 256.184 60.7517 256.878 61.423C257.383 61.9275 257.981 62.3277 258.641 62.6008C259.3 62.8738 260.006 63.0143 260.72 63.0143C261.433 63.0143 262.14 62.8738 262.799 62.6008C263.458 62.3277 264.057 61.9275 264.561 61.423C265.256 60.7538 266.183 60.3799 267.147 60.3799C268.112 60.3799 269.039 60.7538 269.734 61.423C270.753 62.4403 272.134 63.0117 273.575 63.0117C275.015 63.0117 276.396 62.4403 277.416 61.423C277.755 61.0822 278.158 60.8119 278.602 60.6278C279.045 60.4436 279.521 60.3492 280.002 60.35C280.482 60.3485 280.958 60.4424 281.402 60.6263C281.846 60.8102 282.249 61.0804 282.588 61.4212C283.608 62.4375 284.989 63.0081 286.429 63.0081C287.869 63.0081 289.25 62.4375 290.27 61.4212C290.965 60.7517 291.892 60.3777 292.857 60.3777C293.822 60.3777 294.749 60.7517 295.444 61.4212L296.099 62.0824L296.728 61.391C296.881 61.2222 296.964 61.0008 296.958 60.7728C296.953 60.5447 296.86 60.3275 296.698 60.1663C296.194 59.6617 295.595 59.2615 294.936 58.9885C294.277 58.7154 293.57 58.5749 292.857 58.5749C292.143 58.5749 291.437 58.7154 290.778 58.9885C290.119 59.2615 289.52 59.6617 289.015 60.1663C288.329 60.8509 287.398 61.2354 286.429 61.2354C285.459 61.2354 284.529 60.8509 283.842 60.1663C282.823 59.1489 281.441 58.5775 280.001 58.5775C278.561 58.5775 277.179 59.1489 276.16 60.1663C275.474 60.8513 274.543 61.236 273.574 61.236C272.604 61.236 271.674 60.8513 270.988 60.1663C269.968 59.1486 268.587 58.5771 267.146 58.5771C265.706 58.5771 264.324 59.1486 263.305 60.1663C262.965 60.5059 262.562 60.7753 262.118 60.9591C261.674 61.1429 261.199 61.2375 260.718 61.2375C260.238 61.2375 259.762 61.1429 259.319 60.9591C258.875 60.7753 258.472 60.5059 258.132 60.1663C257.628 59.6617 257.029 59.2615 256.37 58.9885C255.711 58.7154 255.004 58.5749 254.291 58.5749C253.577 58.5749 252.871 58.7154 252.212 58.9885C251.552 59.2615 250.954 59.6617 250.449 60.1663C250.288 60.3275 250.195 60.5447 250.189 60.7728C250.184 61.0008 250.266 61.2222 250.42 61.391L251.049 62.0824Z" fill="#DADCDF"/>
<path d="M294.188 62.6744C293.819 62.3521 293.346 62.1745 292.856 62.1745C292.367 62.1745 291.894 62.3521 291.525 62.6744C290.172 64.0231 288.339 64.7804 286.428 64.7804C284.517 64.7804 282.685 64.0231 281.331 62.6744C280.972 62.3326 280.496 62.1419 280 62.1419C279.504 62.1419 279.028 62.3326 278.669 62.6744C277.317 64.0247 275.484 64.7832 273.573 64.7832C271.662 64.7832 269.829 64.0247 268.477 62.6744C268.107 62.3535 267.635 62.1769 267.145 62.1769C266.656 62.1769 266.183 62.3535 265.814 62.6744C265.145 63.344 264.35 63.8751 263.476 64.2375C262.601 64.5999 261.664 64.7864 260.717 64.7864C259.77 64.7864 258.833 64.5999 257.958 64.2375C257.083 63.8751 256.289 63.344 255.619 62.6744C255.251 62.3518 254.778 62.174 254.288 62.174C253.798 62.174 253.325 62.3518 252.957 62.6744L252.241 63.3959L268.825 81.65H272.687V77.2125C272.687 76.9772 272.78 76.7514 272.947 76.585C273.113 76.4185 273.339 76.325 273.574 76.325C273.81 76.325 274.036 76.4185 274.202 76.585C274.368 76.7514 274.462 76.9772 274.462 77.2125V81.65H278.323L294.906 63.3977L294.188 62.6744Z" fill="#DADCDF"/>
<path d="M262.925 46.15V42.6169C261.824 43.441 260.93 44.5101 260.314 45.7395C259.698 46.9689 259.376 48.3249 259.375 49.7C259.375 49.9354 259.281 50.1611 259.115 50.3276C258.948 50.494 258.723 50.5875 258.487 50.5875C258.252 50.5875 258.026 50.494 257.86 50.3276C257.693 50.1611 257.6 49.9354 257.6 49.7C257.6 47.4596 258.312 45.2771 259.632 43.4671C257.513 41.8453 254.942 40.9221 252.275 40.825C252.039 40.825 251.814 40.9185 251.647 41.085C251.481 41.2514 251.387 41.4771 251.387 41.7125V48.8125C251.385 50.6311 251.943 52.4062 252.984 53.8973C254.025 55.3883 255.5 56.5232 257.208 57.148C258.915 57.7729 260.774 57.8575 262.532 57.3904C264.289 56.9234 265.861 55.9272 267.033 54.5369C265.755 53.5441 264.72 52.2724 264.008 50.8189C263.296 49.3654 262.926 47.7685 262.925 46.15Z" fill="#BD0000"/>
<path d="M284.225 46.15V42.6169C285.326 43.441 286.219 44.5101 286.836 45.7395C287.452 46.9689 287.773 48.3249 287.775 49.7C287.775 49.9354 287.868 50.1611 288.035 50.3276C288.201 50.494 288.427 50.5875 288.662 50.5875C288.898 50.5875 289.123 50.494 289.29 50.3276C289.456 50.1611 289.55 49.9354 289.55 49.7C289.549 47.4596 288.838 45.2771 287.517 43.4671C289.637 41.8453 292.208 40.9221 294.875 40.825C295.11 40.825 295.336 40.9185 295.502 41.085C295.669 41.2514 295.762 41.4771 295.762 41.7125V48.8125C295.764 50.6311 295.206 52.4062 294.165 53.8973C293.124 55.3883 291.65 56.5232 289.942 57.148C288.234 57.7729 286.375 57.8575 284.618 57.3904C282.86 56.9234 281.289 55.9272 280.116 54.5369C281.395 53.5441 282.429 52.2724 283.141 50.8189C283.853 49.3654 284.224 47.7685 284.225 46.15Z" fill="#BD0000"/>
<path d="M281.562 38.1625C278.895 38.2596 276.324 39.1828 274.205 40.8046C275.525 42.6146 276.237 44.7971 276.237 47.0375C276.237 47.2729 276.144 47.4986 275.977 47.6651C275.811 47.8315 275.585 47.925 275.35 47.925C275.114 47.925 274.889 47.8315 274.722 47.6651C274.556 47.4986 274.462 47.2729 274.462 47.0375C274.46 44.6845 273.524 42.4286 271.86 40.7648C270.196 39.101 267.94 38.1651 265.587 38.1625C265.352 38.1625 265.126 38.256 264.96 38.4224C264.793 38.5889 264.7 38.8146 264.7 39.05V46.15C264.702 48.3493 265.521 50.4694 266.996 52.1004C268.471 53.7313 270.499 54.7572 272.687 54.9797V57.6875C272.687 57.9229 272.781 58.1486 272.947 58.3151C273.114 58.4815 273.339 58.575 273.575 58.575C273.81 58.575 274.036 58.4815 274.202 58.3151C274.369 58.1486 274.462 57.9229 274.462 57.6875V54.9797C276.65 54.7572 278.678 53.7313 280.153 52.1004C281.629 50.4694 282.447 48.3493 282.45 46.15V39.05C282.45 38.8146 282.356 38.5889 282.19 38.4224C282.023 38.256 281.798 38.1625 281.562 38.1625Z" fill="#BD0000"/>
<path d="M326.825 218.325V197.025C326.825 189.493 323.833 182.269 318.507 176.943C313.181 171.617 305.957 168.625 298.425 168.625C298.425 176.157 301.417 183.381 306.743 188.707C312.069 194.033 319.293 197.025 326.825 197.025" stroke="#DADCDF" stroke-width="4" stroke-miterlimit="10" stroke-linecap="square"/>
<path d="M312.625 228.975V260.925C312.625 264.691 314.121 268.303 316.784 270.966C319.447 273.629 323.059 275.125 326.825 275.125C330.591 275.125 334.203 273.629 336.866 270.966C339.529 268.303 341.025 264.691 341.025 260.925V228.975H312.625Z" stroke="#DADCDF" stroke-width="4" stroke-miterlimit="10" stroke-linecap="square"/>
<path d="M312.625 243.175H321.5" stroke="#DADCDF" stroke-width="4" stroke-miterlimit="10" stroke-linecap="square"/>
<path d="M312.625 257.375H321.5" stroke="#DADCDF" stroke-width="4" stroke-miterlimit="10" stroke-linecap="square"/>
<path d="M337.603 205.559C342.815 203.42 347.274 199.778 350.412 195.098C353.55 190.417 355.225 184.91 355.225 179.275C347.693 179.275 340.469 182.267 335.143 187.593C329.817 192.919 326.825 200.143 326.825 207.675" stroke="#DADCDF" stroke-width="4" stroke-miterlimit="10" stroke-linecap="square"/>
</svg>
