<svg width="28" height="30" viewBox="0 0 28 30" fill="none" xmlns="http://www.w3.org/2000/svg">
  <g clip-path="url(#clip0_5068_1552)">
    <path fill-rule="evenodd" clip-rule="evenodd" d="M14 5.04695C11.8783 5.04695 9.84344 5.8898 8.34315 7.39009C6.84285 8.89039 6 10.9252 6 13.0469V18.0408C5.97138 20.3303 5.3308 22.5704 4.14464 24.5289C3.95763 24.8377 3.95156 25.2233 4.12878 25.5378C4.306 25.8524 4.63899 26.0469 5 26.0469H23C23.361 26.0469 23.694 25.8524 23.8712 25.5378C24.0484 25.2233 24.0424 24.8377 23.8554 24.5289C22.6692 22.5704 22.0286 20.3303 22 18.0408V13.0469C22 10.9252 21.1571 8.89039 19.6569 7.39009C18.1566 5.8898 16.1217 5.04695 14 5.04695ZM9.75736 8.80431C10.8826 7.67909 12.4087 7.04695 14 7.04695C15.5913 7.04695 17.1174 7.67909 18.2426 8.80431C19.3679 9.92953 20 11.4557 20 13.0469V18.0469H19.9999L20.0001 18.059C20.025 20.1329 20.4845 22.172 21.3415 24.0469H6.65852C7.51551 22.172 7.97495 20.1329 7.99993 18.059H8V18.0469V13.0469C8 11.4557 8.63214 9.92953 9.75736 8.80431ZM12.2707 28.4917C11.7648 28.1348 11.3816 27.6302 11.1738 27.0469H16.8258C16.618 27.6302 16.2349 28.1348 15.7289 28.4917C15.223 28.8485 14.619 29.0401 13.9998 29.0401C13.3807 29.0401 12.7767 28.8485 12.2707 28.4917Z" fill="#2F3337"/>
  </g>
  <defs>
    <clipPath id="clip0_5068_1552">
      <rect width="24" height="24" fill="white" transform="translate(2 5.04695)"/>
    </clipPath>
  </defs>
</svg>
