<svg viewBox="0 0 42 42" fill="none" xmlns="http://www.w3.org/2000/svg">
  <g clip-path="url(#clip0_1691_3729)">
    <path
      d="M6.125 28C6.125 28.4839 6.51613 28.875 7 28.875H40.25C40.7339 28.875 41.125 28.4839 41.125 28C41.125 27.5161 40.7339 27.125 40.25 27.125H7.875V1.75C7.875 1.26613 7.48387 0.875 7 0.875H1.75C1.26613 0.875 0.875 1.26613 0.875 1.75C0.875 2.23388 1.26613 2.625 1.75 2.625H6.125V28Z"
      fill="#AFB3BA" />
    <path
      d="M10.5 41.125C12.9162 41.125 14.875 39.1662 14.875 36.75C14.875 34.3338 12.9162 32.375 10.5 32.375C8.08375 32.375 6.125 34.3338 6.125 36.75C6.125 39.1662 8.08375 41.125 10.5 41.125Z"
      fill="#AFB3BA" />
    <path
      d="M36.75 41.125C39.1662 41.125 41.125 39.1662 41.125 36.75C41.125 34.3338 39.1662 32.375 36.75 32.375C34.3338 32.375 32.375 34.3338 32.375 36.75C32.375 39.1662 34.3338 41.125 36.75 41.125Z"
      fill="#AFB3BA" />
    <path
      d="M36.375 21.125H11.875C11.392 21.125 11 20.733 11 20.25V1.875C11 1.392 11.392 1 11.875 1H36.375C36.858 1 37.25 1.392 37.25 1.875V20.25C37.25 20.733 36.858 21.125 36.375 21.125Z"
      fill="#AFB3BA" />
  </g>
  <defs>
    <clipPath id="clip0_1691_3729">
      <rect width="42" height="42" fill="white" />
    </clipPath>
  </defs>
</svg>
