<svg width="99" height="17" viewBox="0 0 99 17" fill="none" xmlns="http://www.w3.org/2000/svg">
<g clip-path="url(#clip0_6014_846)">
<path d="M0.907715 0.120361V8.92437C2.20479 5.42965 5.80032 2.75484 9.45634 2.75484C13.5021 2.75484 16.0896 6.0345 15.2293 10.087C14.564 13.2054 12.0505 15.8668 9.07998 16.9286H17.7093V0.120361H0.907715Z" fill="#252525"/>
<path d="M12.5412 10.0803C12.5412 6.57887 10.4645 3.74277 7.89724 3.74277C5.32997 3.74277 3.2533 6.57887 3.2533 10.0803C3.2533 13.5817 5.32997 16.4178 7.89724 16.4178C10.4645 16.4178 12.5412 13.5817 12.5412 10.0803Z" fill="#252525"/>
<path d="M97.2948 12.7887H96.8714V13.9783H96.7101V12.7887H96.2867V12.661H97.2948V12.7887ZM98.9078 13.9783H98.7465V12.8022H98.7398L98.2828 13.9783H98.1752L97.7182 12.8022H97.7115V13.9783H97.5502V12.6678H97.8526L98.229 13.6355H98.2357L98.6054 12.6678H98.9078V13.9783Z" fill="#252525"/>
<path d="M29.5107 8.97143C29.5107 11.8411 27.844 14.2673 24.7727 14.2673C21.7081 14.2673 20.0347 11.8411 20.0347 8.97143C20.0347 6.10172 21.7014 3.67558 24.7727 3.67558C27.844 3.66886 29.5107 6.095 29.5107 8.97143ZM21.2645 8.97143C21.2645 11.1086 22.4272 13.239 24.7794 13.239C27.1249 13.239 28.2943 11.1019 28.2943 8.97143C28.2943 6.84099 27.1316 4.70384 24.7794 4.70384C22.4272 4.70384 21.2645 6.83427 21.2645 8.97143Z" fill="#252525"/>
<path d="M29.2957 3.96454H30.6532L33.7985 12.7551H33.8321L36.937 3.96454H38.2005L34.4571 13.9783H33.1533L29.2957 3.96454Z" fill="#252525"/>
<path d="M39.3362 9.30072C39.3564 11.0884 40.2905 13.239 42.636 13.239C44.4237 13.239 45.3915 12.1906 45.7813 10.6784H47.0044C46.4802 12.95 45.163 14.2673 42.636 14.2673C39.4504 14.2673 38.113 11.821 38.113 8.97141C38.113 6.33021 39.4504 3.67557 42.636 3.67557C45.8552 3.67557 47.1388 6.49151 47.0447 9.30072H39.3362ZM45.8149 8.27247C45.7544 6.43102 44.6119 4.70382 42.6293 4.70382C40.6333 4.70382 39.5244 6.45118 39.3295 8.27247H45.8149Z" fill="#252525"/>
<path d="M59.5989 6.89474C59.5384 5.3826 58.3757 4.70382 56.9778 4.70382C55.8891 4.70382 54.6122 5.13394 54.6122 6.43102C54.6122 7.51976 55.8555 7.90283 56.6888 8.11789L58.3219 8.48753C59.7198 8.70259 61.1782 9.51578 61.1782 11.2631C61.1782 13.4339 59.0209 14.274 57.1593 14.274C54.8272 14.274 53.2412 13.1852 53.0463 10.7389H54.2694C54.3635 12.3855 55.5867 13.2457 57.2198 13.2457C58.3623 13.2457 59.9551 12.7417 59.9551 11.3438C59.9551 10.1811 58.8663 9.79133 57.7641 9.5225L56.1915 9.17303C54.5987 8.74291 53.3957 8.20526 53.3957 6.49151C53.3957 4.45516 55.3918 3.67557 57.1593 3.67557C59.1553 3.67557 60.7481 4.72398 60.8287 6.89474H59.5989Z" fill="#252525"/>
<path d="M64.1756 3.96454H66.212V4.99279H64.1756V11.747C64.1756 12.54 64.2899 13.0105 65.1636 13.0643C65.513 13.0643 65.8625 13.0441 66.212 13.0038V14.0522C65.8424 14.0522 65.4929 14.0925 65.1232 14.0925C63.4901 14.0925 62.9323 13.5481 62.9525 11.8411V4.99279H61.7697V3.96454H62.9525V0.953705H64.1756V3.96454Z" fill="#252525"/>
<path d="M75.9098 8.97143C75.9098 11.8411 74.2431 14.2673 71.1717 14.2673C68.1071 14.2673 66.4337 11.8411 66.4337 8.97143C66.4337 6.10172 68.1004 3.67558 71.1717 3.67558C74.2431 3.66886 75.9098 6.095 75.9098 8.97143ZM67.6636 8.97143C67.6636 11.1086 68.8263 13.239 71.1785 13.239C73.524 13.239 74.6934 11.1019 74.6934 8.97143C74.6934 6.84099 73.5307 4.70384 71.1785 4.70384C68.8263 4.70384 67.6636 6.83427 67.6636 8.97143Z" fill="#252525"/>
<path d="M84.5794 7.1098C84.2501 5.61783 83.3361 4.70382 81.7433 4.70382C79.3978 4.70382 78.2284 6.84098 78.2284 8.97141C78.2284 11.1086 79.3911 13.239 81.7433 13.239C83.2554 13.239 84.4987 12.0562 84.6533 10.3827H85.8765C85.5472 12.7887 83.9745 14.2673 81.7433 14.2673C78.6787 14.2673 77.0052 11.8411 77.0052 8.97141C77.0052 6.10171 78.672 3.67557 81.7433 3.67557C83.8804 3.67557 85.527 4.81807 85.8025 7.1098H84.5794Z" fill="#252525"/>
<path d="M87.1602 0.120361H88.3833V8.81684L93.9345 3.96455H95.5676L91.2933 7.66761L95.8566 13.9783H94.3243L90.3659 8.52113L88.3833 10.1744V13.9783H87.1602V0.120361Z" fill="#252525"/>
<path d="M52.7641 3.87045C51.3595 4.06535 50.3043 4.94575 49.7734 6.31004H49.7331V3.96454H48.604V13.9783H49.8339V8.64209C49.8339 6.82752 50.9898 5.34899 52.7641 5.08688V3.87045Z" fill="#252525"/>
</g>
<defs>
<clipPath id="clip0_6014_846">
<rect width="98" height="16.8015" fill="white" transform="translate(0.907715 0.120361)"/>
</clipPath>
</defs>
</svg>
