<svg width="183" height="25" viewBox="0 0 183 25" fill="none" xmlns="http://www.w3.org/2000/svg">
<path d="M17.0255 15.4694C17.0255 20.5148 14.1221 24.751 8.74349 24.751C3.3649 24.751 0.461426 20.5148 0.461426 15.4694C0.461426 10.4716 3.3649 6.18774 8.74349 6.18774C14.0745 6.18774 17.0255 10.4716 17.0255 15.4694ZM2.55574 15.4694C2.55574 19.182 4.60245 22.9423 8.69589 22.9423C12.7893 22.9423 14.836 19.2296 14.836 15.4694C14.836 11.7567 12.7893 7.99647 8.69589 7.99647C4.60245 7.99647 2.55574 11.7567 2.55574 15.4694Z" fill="black"/>
<path d="M16.5972 6.71133H18.9771L24.4984 22.0855H24.546L29.9722 6.71133H32.1617L25.5932 24.2274H23.3085L16.5972 6.71133Z" fill="black"/>
<path d="M34.161 16.0405C34.2086 19.182 35.8269 22.9423 39.9203 22.9423C43.0618 22.9423 44.7277 21.0859 45.4417 18.468H47.5836C46.6793 22.4187 44.347 24.751 39.9679 24.751C34.399 24.751 32.0667 20.4672 32.0667 15.4694C32.0667 10.8524 34.399 6.18774 39.9679 6.18774C45.5845 6.18774 47.8216 11.0903 47.6788 16.0405H34.161ZM45.5369 14.2318C45.4417 10.9951 43.4426 7.99647 39.9679 7.99647C36.4933 7.99647 34.5417 11.0427 34.2086 14.2318H45.5369Z" fill="black"/>
<path d="M69.6215 11.8519C69.5263 9.18643 67.4796 7.99648 65.0521 7.99648C63.1482 7.99648 60.9111 8.75805 60.9111 10.9952C60.9111 12.8991 63.1006 13.5655 64.5285 13.9462L67.3844 14.6126C69.8119 14.9934 72.3822 16.4213 72.3822 19.4676C72.3822 23.2755 68.622 24.751 65.3377 24.751C61.2443 24.751 58.4836 22.8471 58.1504 18.5632H60.2923C60.4827 21.4667 62.577 22.9423 65.4329 22.9423C67.432 22.9423 70.2403 22.0379 70.2403 19.6104C70.2403 17.5637 68.3364 16.8973 66.3849 16.4213L63.6242 15.8026C60.8635 15.041 58.7216 14.089 58.7216 11.138C58.7216 7.5681 62.1962 6.23535 65.2901 6.23535C68.7648 6.23535 71.573 8.09168 71.7158 11.8519H69.6215Z" fill="black"/>
<path d="M77.6178 6.71133H81.1877V8.52005H77.6178V20.3244C77.6178 21.7047 77.8082 22.5139 79.3314 22.6091C79.9501 22.6091 80.5689 22.5615 81.1877 22.5139V24.3702C80.5213 24.3702 79.9501 24.4178 79.2838 24.4178C76.4279 24.4178 75.4283 23.4658 75.4759 20.4672V8.52005H73.4292V6.71133H75.4759V1.47554H77.6178V6.71133Z" fill="black"/>
<path d="M98.1327 15.4694C98.1327 20.5148 95.2293 24.751 89.8507 24.751C84.4721 24.751 81.5686 20.5148 81.5686 15.4694C81.5686 10.424 84.4721 6.18774 89.8507 6.18774C95.2293 6.18774 98.1327 10.4716 98.1327 15.4694ZM83.7105 15.4694C83.7105 19.182 85.7572 22.9423 89.8507 22.9423C93.9441 22.9423 95.9908 19.2296 95.9908 15.4694C95.9908 11.7567 93.9441 7.99647 89.8507 7.99647C85.7572 7.99647 83.7105 11.7567 83.7105 15.4694Z" fill="black"/>
<path d="M113.316 12.2327C112.745 9.61481 111.127 8.04408 108.366 8.04408C104.273 8.04408 102.226 11.7567 102.226 15.517C102.226 19.2296 104.273 22.9899 108.366 22.9899C111.032 22.9899 113.174 20.9432 113.459 17.9921H115.601C115.03 22.1807 112.269 24.7986 108.366 24.7986C102.988 24.7986 100.084 20.5624 100.084 15.517C100.084 10.4716 102.988 6.23535 108.366 6.23535C112.079 6.23535 114.982 8.23447 115.458 12.2327H113.316Z" fill="black"/>
<path d="M117.838 0H119.98V15.1838L129.69 6.71133H132.546L125.026 13.1847L133.022 24.2274H130.357L123.455 14.7078L119.98 17.6113V24.275H117.838V0Z" fill="black"/>
<path d="M57.6744 6.56853C55.1993 6.90171 53.3905 8.47245 52.4386 10.8524H52.391V6.75892H50.4395V24.275H52.5814V14.8982C52.5814 11.7091 54.6281 9.13882 57.722 8.66284V6.56853H57.6744Z" fill="black"/>
<path d="M135.83 24.2274V20.6576H138.686V24.2274H135.83Z" fill="black"/>
<path d="M154.394 12.2803C153.822 9.66241 152.252 8.09167 149.443 8.09167C145.35 8.09167 143.303 11.8043 143.303 15.517C143.303 19.2296 145.35 22.9423 149.443 22.9423C152.061 22.9423 154.251 20.8955 154.489 17.9921H156.631C156.06 22.1807 153.299 24.751 149.443 24.751C144.112 24.751 141.209 20.5148 141.209 15.517C141.209 10.5192 144.112 6.28294 149.443 6.28294C153.156 6.28294 156.012 8.28206 156.488 12.2803H154.394Z" fill="black"/>
<path d="M160.153 12.1375C160.343 8.04407 163.247 6.28294 167.197 6.28294C170.291 6.28294 173.623 7.23491 173.623 11.8995V21.1811C173.623 21.9903 174.052 22.4663 174.861 22.4663C175.099 22.4663 175.384 22.4187 175.527 22.3235V24.1322C175.051 24.2274 174.718 24.275 174.147 24.275C172.005 24.275 171.624 23.0375 171.624 21.2287H171.576C170.101 23.5134 168.578 24.7986 165.246 24.7986C162.057 24.7986 159.391 23.2279 159.391 19.7056C159.391 14.803 164.151 14.6602 168.768 14.089C170.529 13.8986 171.529 13.6606 171.529 11.7091C171.529 8.85324 169.482 8.13927 166.959 8.13927C164.342 8.13927 162.342 9.37682 162.295 12.1851H160.153V12.1375ZM171.529 14.7078H171.481C171.196 15.2314 170.244 15.3742 169.673 15.4694C166.055 16.0881 161.581 16.0881 161.581 19.4676C161.581 21.6095 163.485 22.8947 165.484 22.8947C168.721 22.8947 171.624 20.8479 171.576 17.4209V14.7078H171.529Z" fill="black"/>
<path d="M180.192 22.1331H179.43V24.2274H179.145V22.1331H178.383V21.8951H180.144V22.1331H180.192ZM183 24.2274H182.714V22.1807L181.905 24.2274H181.715L180.906 22.1807V24.2274H180.62V21.9427H181.144L181.81 23.6562L182.476 21.9427H183V24.2274Z" fill="black"/>
</svg>
