<svg width="216" height="30" viewBox="0 0 216 30" fill="none" xmlns="http://www.w3.org/2000/svg">
<path d="M0 0.0467224V15.4209C2.28471 9.28075 8.56765 4.61614 14.9458 4.61614C22.0379 4.61614 26.5121 10.3279 25.0366 17.42C23.8466 22.8938 19.4676 27.5108 14.2794 29.3671H29.368V0.0467224H0Z" fill="#FF1F2C"/>
<path d="M12.2327 28.4636C16.7016 28.4636 20.3243 23.5196 20.3243 17.4209C20.3243 11.3222 16.7016 6.37814 12.2327 6.37814C7.76376 6.37814 4.14099 11.3222 4.14099 17.4209C4.14099 23.5196 7.76376 28.4636 12.2327 28.4636Z" fill="#FF1F2C"/>
<path d="M50.0257 15.4694C50.0257 20.5148 47.1222 24.751 41.7436 24.751C36.365 24.751 33.4615 20.5148 33.4615 15.4694C33.4615 10.4716 36.365 6.18774 41.7436 6.18774C47.0746 6.18774 50.0257 10.4716 50.0257 15.4694ZM35.5559 15.4694C35.5559 19.182 37.6026 22.9423 41.696 22.9423C45.7894 22.9423 47.8362 19.2296 47.8362 15.4694C47.8362 11.7567 45.7894 7.99647 41.696 7.99647C37.6026 7.99647 35.5559 11.7567 35.5559 15.4694Z" fill="black"/>
<path d="M49.5972 6.71133H51.9771L57.4984 22.0855H57.546L62.9722 6.71133H65.1617L58.5932 24.2274H56.3085L49.5972 6.71133Z" fill="black"/>
<path d="M67.1608 16.0405C67.2084 19.182 68.8268 22.9423 72.9202 22.9423C76.0617 22.9423 77.7276 21.0859 78.4416 18.468H80.5835C79.6791 22.4187 77.3468 24.751 72.9678 24.751C67.3988 24.751 65.0665 20.4672 65.0665 15.4694C65.0665 10.8524 67.3988 6.18774 72.9678 6.18774C78.5844 6.18774 80.8215 11.0903 80.6787 16.0405H67.1608ZM78.5368 14.2318C78.4416 10.9951 76.4425 7.99647 72.9678 7.99647C69.4932 7.99647 67.5416 11.0427 67.2084 14.2318H78.5368Z" fill="black"/>
<path d="M102.621 11.8519C102.526 9.18643 100.479 7.99648 98.052 7.99648C96.1481 7.99648 93.911 8.75805 93.911 10.9952C93.911 12.8991 96.1005 13.5655 97.5284 13.9462L100.384 14.6126C102.812 14.9934 105.382 16.4213 105.382 19.4676C105.382 23.2755 101.622 24.751 98.3376 24.751C94.2441 24.751 91.4835 22.8471 91.1503 18.5632H93.2922C93.4826 21.4667 95.5769 22.9423 98.4328 22.9423C100.432 22.9423 103.24 22.0379 103.24 19.6104C103.24 17.5637 101.336 16.8973 99.3847 16.4213L96.624 15.8026C93.8634 15.041 91.7214 14.089 91.7214 11.138C91.7214 7.5681 95.1961 6.23535 98.29 6.23535C101.765 6.23535 104.573 8.09168 104.716 11.8519H102.621Z" fill="black"/>
<path d="M110.618 6.71131H114.188V8.52004H110.618V20.3244C110.618 21.7047 110.808 22.5139 112.331 22.6091C112.95 22.6091 113.569 22.5615 114.188 22.5139V24.3702C113.521 24.3702 112.95 24.4178 112.284 24.4178C109.428 24.4178 108.428 23.4658 108.476 20.4672V8.52004H106.429V6.71131H108.476V1.47552H110.618V6.71131Z" fill="black"/>
<path d="M131.133 15.4694C131.133 20.5148 128.229 24.751 122.851 24.751C117.472 24.751 114.569 20.5148 114.569 15.4694C114.569 10.424 117.472 6.18774 122.851 6.18774C128.229 6.18774 131.133 10.4716 131.133 15.4694ZM116.711 15.4694C116.711 19.182 118.757 22.9423 122.851 22.9423C126.944 22.9423 128.991 19.2296 128.991 15.4694C128.991 11.7567 126.944 7.99647 122.851 7.99647C118.757 7.99647 116.711 11.7567 116.711 15.4694Z" fill="black"/>
<path d="M146.316 12.2327C145.745 9.61481 144.127 8.04408 141.366 8.04408C137.273 8.04408 135.226 11.7567 135.226 15.517C135.226 19.2296 137.273 22.9899 141.366 22.9899C144.032 22.9899 146.174 20.9432 146.459 17.9921H148.601C148.03 22.1807 145.269 24.7986 141.366 24.7986C135.988 24.7986 133.084 20.5624 133.084 15.517C133.084 10.4716 135.988 6.23535 141.366 6.23535C145.079 6.23535 147.982 8.23447 148.458 12.2327H146.316Z" fill="black"/>
<path d="M150.838 0H152.98V15.1838L162.69 6.71133H165.546L158.026 13.1847L166.022 24.2274H163.357L156.455 14.7078L152.98 17.6113V24.275H150.838V0Z" fill="black"/>
<path d="M90.6744 6.56854C88.1993 6.90173 86.3905 8.47246 85.4386 10.8524H85.391V6.75893H83.4395V24.275H85.5814V14.8982C85.5814 11.7091 87.6281 9.13884 90.722 8.66286V6.56854H90.6744Z" fill="black"/>
<path d="M168.83 24.2274V20.6576H171.686V24.2274H168.83Z" fill="black"/>
<path d="M187.394 12.2803C186.822 9.66242 185.252 8.09169 182.443 8.09169C178.35 8.09169 176.303 11.8043 176.303 15.517C176.303 19.2296 178.35 22.9423 182.443 22.9423C185.061 22.9423 187.251 20.8956 187.489 17.9921H189.631C189.06 22.1807 186.299 24.751 182.443 24.751C177.112 24.751 174.209 20.5148 174.209 15.517C174.209 10.5192 177.112 6.28296 182.443 6.28296C186.156 6.28296 189.012 8.28208 189.488 12.2803H187.394Z" fill="black"/>
<path d="M193.153 12.1375C193.343 8.04409 196.247 6.28296 200.197 6.28296C203.291 6.28296 206.623 7.23492 206.623 11.8995V21.1812C206.623 21.9903 207.052 22.4663 207.861 22.4663C208.099 22.4663 208.384 22.4187 208.527 22.3235V24.1322C208.051 24.2274 207.718 24.275 207.147 24.275C205.005 24.275 204.624 23.0375 204.624 21.2288H204.576C203.101 23.5135 201.578 24.7986 198.246 24.7986C195.057 24.7986 192.391 23.2279 192.391 19.7056C192.391 14.803 197.151 14.6602 201.768 14.089C203.529 13.8987 204.529 13.6607 204.529 11.7091C204.529 8.85325 202.482 8.13928 199.959 8.13928C197.342 8.13928 195.342 9.37683 195.295 12.1851H193.153V12.1375ZM204.529 14.7078H204.481C204.196 15.2314 203.244 15.3742 202.673 15.4694C199.055 16.0882 194.581 16.0882 194.581 19.4676C194.581 21.6095 196.485 22.8947 198.484 22.8947C201.721 22.8947 204.624 20.848 204.576 17.4209V14.7078H204.529Z" fill="black"/>
<path d="M213.192 22.1331H212.43V24.2274H212.145V22.1331H211.383V21.8951H213.144V22.1331H213.192ZM216 24.2274H215.714V22.1807L214.905 24.2274H214.715L213.906 22.1807V24.2274H213.62V21.9427H214.144L214.81 23.6562L215.476 21.9427H216V24.2274Z" fill="black"/>
</svg>
