<svg width="16" height="16" viewBox="0 0 16 16" fill="none" xmlns="http://www.w3.org/2000/svg">
  <path
    d="M7 16H1C0.448 16 0 15.553 0 15V6.00001C0 5.73401 0.105 5.48001 0.293 5.29301L5.293 0.293006C5.684 -0.0979941 6.316 -0.0979941 6.707 0.293006L11.707 5.29301C12.098 5.68401 12.098 6.31601 11.707 6.70701C11.316 7.09801 10.684 7.09801 10.293 6.70701L6 2.41401L2 6.41401V14H7C7.552 14 8 14.447 8 15C8 15.553 7.552 16 7 16Z"
    fill="white" />
  <path
    d="M15.361 9.63095C14.388 8.66995 12.764 8.82695 12 9.96395C11.235 8.82595 9.611 8.67095 8.639 9.63095C7.787 10.473 7.787 11.838 8.639 12.679L12 16L15.361 12.679C16.213 11.838 16.213 10.473 15.361 9.63095Z"
    fill="white" />
</svg>
