<svg width="115" height="20" viewBox="0 0 115 20" fill="none" xmlns="http://www.w3.org/2000/svg">
  <path
    d="M114.664 16.2488H114.472V14.8774H114.465L113.931 16.2488H113.806L113.272 14.8774H113.265V16.2488H113.073V14.7174H113.426L113.869 15.8488H113.876L114.31 14.7174H114.664V16.2488H114.664ZM112.786 14.8631H112.293V16.2488H112.101V14.8631H111.608V14.7174H112.786V14.8631H112.786ZM33.7285 10.4088C33.7285 13.7588 31.7814 16.5888 28.205 16.5888C24.6285 16.5888 22.6814 13.7588 22.6814 10.4088C22.6814 7.05879 24.6278 4.2288 28.2043 4.2288C31.7807 4.2288 33.7278 7.05879 33.7278 10.4088H33.7285ZM24.1078 10.4088C24.1078 12.8988 25.4657 15.3888 28.205 15.3888C30.9443 15.3888 32.3021 12.8988 32.3021 10.4088C32.3021 7.9188 30.9435 5.4288 28.2043 5.4288C25.465 5.4288 24.1071 7.9188 24.1071 10.4088H24.1078ZM33.4743 4.5688H35.0585L38.7257 14.8231H38.7707L42.3928 4.5688H43.8643L39.4957 16.2488H37.9785L33.4735 4.5688H33.4743ZM45.1835 10.7938C45.2064 12.8759 46.2928 15.3888 49.0321 15.3888C51.115 15.3888 52.2464 14.1667 52.6993 12.4009H54.1257C53.5143 15.0495 51.975 16.5888 49.0321 16.5888C45.32 16.5888 43.7578 13.7367 43.7578 10.4088C43.7578 7.33022 45.32 4.2288 49.0321 4.2288C52.7893 4.2288 54.2835 7.51165 54.1707 10.7931H45.1828L45.1835 10.7938ZM52.7443 9.5938C52.6764 7.4438 51.3414 5.4288 49.0321 5.4288C46.7007 5.4288 45.4107 7.46594 45.1835 9.5938H52.7443ZM68.8243 7.98665C68.7557 6.22165 67.3978 5.4288 65.7678 5.4288C64.5 5.4288 63.0057 5.92665 63.0057 7.44308C63.0057 8.71094 64.455 9.16451 65.4278 9.41308L67.3293 9.84308C68.9593 10.0917 70.6578 11.0431 70.6578 13.0795C70.6578 15.6152 68.1443 16.5888 65.9721 16.5888C63.255 16.5888 61.3985 15.3209 61.1721 12.4688H62.5985C62.7121 14.3931 64.1378 15.3888 66.0393 15.3888C67.375 15.3888 69.2314 14.8002 69.2314 13.1702C69.2314 11.8131 67.9635 11.3595 66.6728 11.0424L64.8393 10.6352C62.9835 10.1374 61.58 9.50308 61.58 7.51094C61.58 5.13451 63.9114 4.2288 65.9714 4.2288C68.3028 4.2288 70.1593 5.45165 70.25 7.98665H68.8235H68.8243ZM74.1578 4.5688H76.5343V5.7688H74.1571V13.6459C74.1571 14.5745 74.2928 15.1174 75.3114 15.1852C75.7185 15.1852 76.1264 15.1624 76.5336 15.1174V16.3395C76.1035 16.3395 75.6964 16.3845 75.2664 16.3845C73.3643 16.3845 72.7078 15.7509 72.7307 13.7588V5.76808H71.35V4.56808H72.7307V1.06094H74.1571V4.56951L74.1578 4.5688ZM87.8478 10.4088C87.8478 13.7588 85.9007 16.5888 82.3243 16.5888C78.7478 16.5888 76.8007 13.7588 76.8007 10.4088C76.8007 7.05879 78.7478 4.2288 82.3243 4.2288C85.9007 4.2288 87.8478 7.05879 87.8478 10.4088ZM78.2264 10.4088C78.2264 12.8988 79.585 15.3888 82.3243 15.3888C85.0628 15.3888 86.4214 12.8988 86.4214 10.4088C86.4214 7.9188 85.0621 5.4288 82.3235 5.4288C79.5843 5.4288 78.2264 7.9188 78.2264 10.4088ZM97.9536 8.23594C97.5686 6.49308 96.505 5.4288 94.6486 5.4288C91.9093 5.4288 90.5514 7.9188 90.5514 10.4088C90.5514 12.8988 91.9093 15.3888 94.6486 15.3888C96.4143 15.3888 97.8628 14.0081 98.0435 12.0617H99.47C99.085 14.8688 97.2521 16.5888 94.6486 16.5888C91.0721 16.5888 89.125 13.7588 89.125 10.4088C89.125 7.05879 91.0721 4.2288 94.6486 4.2288C97.1385 4.2288 99.0628 5.56451 99.38 8.23594H97.9536ZM100.968 0.0859375H102.394V10.2274L108.869 4.5688H110.769L105.789 8.89237L111.109 16.2495H109.321L104.704 9.88808L102.394 11.8124V16.2488H100.968V0.0866518V0.0859375ZM60.8443 4.46165V5.8788C58.7785 6.18522 57.4271 7.90522 57.4271 10.0245V16.2495H56V4.5688H57.3135V7.30737H57.3585C57.9714 5.71808 59.205 4.6888 60.8443 4.46094V4.46165Z"
    fill="#2F3337" />
  <path
    d="M0 0H20V20H9.72214C13.2607 18.7414 16.2564 15.5714 17.0457 11.8571C18.07 7.03929 14.9943 3.13357 10.1764 3.13357C5.82643 3.13357 1.54571 6.31714 0 10.4814V0ZM14.2857 11.7857C14.2857 15.9279 11.7271 19.2857 8.57143 19.2857C5.41571 19.2857 2.85714 15.9279 2.85714 11.7857C2.85714 7.64357 5.41571 4.28571 8.57143 4.28571C11.7271 4.28571 14.2857 7.64357 14.2857 11.7857Z"
    fill="#FF1F2C" />
</svg>
