<svg width="80" height="22" viewBox="0 0 80 22" fill="none" xmlns="http://www.w3.org/2000/svg">
<title>PayPal Logo</title>
<path fill-rule="evenodd" clip-rule="evenodd" d="M28.5376 4.91992H24.0521C23.7451 4.91992 23.484 5.16782 23.4361 5.50475L21.6219 18.2893C21.5859 18.5417 21.7617 18.769 21.9919 18.769H24.1333C24.4402 18.769 24.7013 18.5213 24.7492 18.1837L25.2385 14.7354C25.2857 14.3979 25.5473 14.15 25.8537 14.15H27.2737C30.2283 14.15 31.9336 12.5607 32.3791 9.41151C32.5797 8.03357 32.3875 6.9511 31.807 6.19291C31.1695 5.36038 30.0388 4.91992 28.5376 4.91992ZM29.0552 9.58968C28.81 11.3787 27.5802 11.3787 26.3912 11.3787H25.7142L26.1891 8.03756C26.2174 7.8356 26.3746 7.68695 26.5584 7.68695H26.8686C27.6786 7.68695 28.4427 7.68695 28.8375 8.2001C29.073 8.5062 29.1451 8.96115 29.0552 9.58968Z" fill="#28346A"/>
<path fill-rule="evenodd" clip-rule="evenodd" d="M41.9452 9.53166H39.7972C39.6142 9.53166 39.456 9.68032 39.4279 9.88227L39.3327 10.55L39.1826 10.308C38.7177 9.5578 37.6806 9.30704 36.6457 9.30704C34.272 9.30704 32.2447 11.3053 31.8499 14.1084C31.6447 15.5066 31.9364 16.8437 32.6501 17.776C33.3047 18.6333 34.2413 18.9906 35.3555 18.9906C37.2682 18.9906 38.3286 17.6237 38.3286 17.6237L38.2328 18.2871C38.1968 18.5408 38.3727 18.7682 38.6016 18.7682H40.5363C40.844 18.7682 41.1037 18.5203 41.1522 18.1828L42.3131 10.0113C42.3499 9.75975 42.1746 9.53166 41.9452 9.53166ZM38.9508 14.1784C38.7436 15.5423 37.7697 16.4579 36.5275 16.4579C35.9038 16.4579 35.4053 16.2355 35.0851 15.8143C34.7677 15.3959 34.6472 14.8002 34.748 14.1368C34.9416 12.7845 35.9319 11.8389 37.1552 11.8389C37.7652 11.8389 38.261 12.0643 38.5876 12.4891C38.9148 12.9185 39.0447 13.5178 38.9508 14.1784Z" fill="#28346A"/>
<path fill-rule="evenodd" clip-rule="evenodd" d="M53.3853 9.53174H51.2267C51.0207 9.53174 50.8273 9.64548 50.7106 9.83579L47.7335 14.7098L46.4716 10.0259C46.3922 9.73288 46.149 9.53174 45.8734 9.53174H43.7524C43.4945 9.53174 43.3156 9.8117 43.3975 10.0814L45.7751 17.8366L43.5399 21.3439C43.3641 21.6202 43.5412 22 43.8449 22H46.0007C46.2054 22 46.3968 21.8891 46.5129 21.7027L53.6921 10.1842C53.8641 9.90869 53.6875 9.53174 53.3853 9.53174" fill="#28346A"/>
<path fill-rule="evenodd" clip-rule="evenodd" d="M60.5313 4.91992H56.0452C55.739 4.91992 55.4779 5.16782 55.43 5.50475L53.6158 18.2893C53.5798 18.5417 53.7556 18.769 53.9845 18.769H56.2866C56.5003 18.769 56.6833 18.5956 56.7167 18.3594L57.2316 14.7354C57.2789 14.3979 57.5406 14.15 57.8469 14.15H59.2663C62.2215 14.15 63.9262 12.5607 64.3722 9.41151C64.5736 8.03357 64.3801 6.9511 63.7996 6.19291C63.1627 5.36038 62.0326 4.91992 60.5313 4.91992ZM61.0491 9.58968C60.8044 11.3787 59.5747 11.3787 58.3849 11.3787H57.7089L58.1843 8.03756C58.2124 7.8356 58.3686 7.68695 58.5528 7.68695H58.8631C59.6724 7.68695 60.4372 7.68695 60.832 8.2001C61.0675 8.5062 61.139 8.96115 61.0491 9.58968Z" fill="#2890C3"/>
<path fill-rule="evenodd" clip-rule="evenodd" d="M73.9396 9.53166H71.7929C71.6086 9.53166 71.4519 9.68032 71.4244 9.88227L71.3292 10.55L71.1784 10.308C70.7134 9.5578 69.677 9.30704 68.642 9.30704C66.2684 9.30704 64.2419 11.3053 63.8471 14.1084C63.6424 15.5066 63.9329 16.8437 64.6464 17.776C65.3024 18.6333 66.2375 18.9906 67.352 18.9906C69.2644 18.9906 70.325 17.6237 70.325 17.6237L70.2293 18.2871C70.1933 18.5408 70.3689 18.7682 70.5993 18.7682H72.5334C72.8397 18.7682 73.1007 18.5203 73.1487 18.1828L74.3101 10.0113C74.3456 9.75975 74.1698 9.53166 73.9396 9.53166ZM70.9451 14.1784C70.7392 15.5423 69.7639 16.4579 68.5216 16.4579C67.8992 16.4579 67.3995 16.2355 67.0792 15.8143C66.762 15.3959 66.6426 14.8002 66.7421 14.1368C66.937 12.7845 67.926 11.8389 69.1493 11.8389C69.7593 11.8389 70.2551 12.0643 70.5818 12.4891C70.9102 12.9185 71.0401 13.5178 70.9451 14.1784Z" fill="#2890C3"/>
<path fill-rule="evenodd" clip-rule="evenodd" d="M76.4712 5.27083L74.6302 18.2894C74.5942 18.5418 74.7698 18.7691 74.9987 18.7691H76.8496C77.1574 18.7691 77.4182 18.5214 77.4654 18.1838L79.2809 5.39989C79.3171 5.14749 79.1413 4.9194 78.9124 4.9194H76.8399C76.6569 4.92002 76.4995 5.06888 76.4712 5.27083" fill="#2890C3"/>
<path fill-rule="evenodd" clip-rule="evenodd" d="M5.47955 21.2536L5.82255 18.832L5.05848 18.8122H1.40991L3.94554 0.942002C3.95344 0.887889 3.97897 0.837655 4.01627 0.80192C4.05374 0.766185 4.10151 0.746582 4.15148 0.746582H10.3035C12.3461 0.746582 13.7555 1.2189 14.4913 2.15127C14.8363 2.58867 15.056 3.04588 15.1624 3.54882C15.2739 4.07668 15.2757 4.70725 15.167 5.47647L15.1591 5.53242V6.02536L15.5041 6.24263C15.7946 6.41395 16.0255 6.60998 16.2026 6.8344C16.4976 7.2085 16.6885 7.68387 16.7692 8.24726C16.8526 8.82678 16.825 9.51657 16.6885 10.2974C16.5311 11.1955 16.2766 11.9778 15.9329 12.6178C15.6169 13.2075 15.2142 13.6967 14.736 14.0757C14.2795 14.436 13.7371 14.7094 13.1239 14.8844C12.5296 15.0563 11.852 15.1431 11.1089 15.1431H10.6302C10.2879 15.1431 9.95538 15.2801 9.69432 15.5258C9.43253 15.7765 9.25947 16.1192 9.20638 16.4939L9.17019 16.712L8.56411 20.9804L8.53674 21.137C8.52939 21.1866 8.5169 21.2113 8.49853 21.2281C8.48218 21.2434 8.45866 21.2536 8.4357 21.2536H5.47955" fill="#28356A"/>
<path fill-rule="evenodd" clip-rule="evenodd" d="M15.8312 5.58917C15.813 5.71966 15.7919 5.853 15.7684 5.99002C14.9571 10.6201 12.1813 12.2195 8.63638 12.2195H6.83139C6.39782 12.2195 6.03241 12.5693 5.96499 13.0447L4.77911 21.4057C4.73521 21.7179 4.95162 21.9991 5.23491 21.9991H8.43631C8.81532 21.9991 9.13737 21.693 9.19707 21.2775L9.22849 21.0967L9.83126 16.8451L9.87002 16.6119C9.92899 16.1949 10.2518 15.8886 10.6308 15.8886H11.1095C14.2112 15.8886 16.6393 14.489 17.349 10.4385C17.6454 8.74651 17.492 7.33365 16.7075 6.34002C16.4701 6.04045 16.1756 5.79174 15.8312 5.58917" fill="#2890C3"/>
<path fill-rule="evenodd" clip-rule="evenodd" d="M14.9822 5.21334C14.8582 5.17311 14.7303 5.13676 14.5992 5.10388C14.4673 5.07183 14.3322 5.04344 14.1932 5.01853C13.7065 4.93113 13.1732 4.88968 12.602 4.88968H7.78006C7.6612 4.88968 7.5484 4.91949 7.44754 4.9734C7.22506 5.09225 7.0599 5.32626 7.01985 5.61275L5.99399 12.8345L5.9646 13.045C6.03202 12.5696 6.39743 12.2199 6.831 12.2199H8.63599C12.1809 12.2199 14.9567 10.6195 15.768 5.99032C15.7922 5.8533 15.8126 5.71996 15.8308 5.58947C15.6256 5.46838 15.4033 5.36485 15.1639 5.27664C15.1048 5.25479 15.0438 5.23376 14.9822 5.21334" fill="#22284F"/>
<path fill-rule="evenodd" clip-rule="evenodd" d="M7.01993 5.61264C7.05998 5.32615 7.22513 5.09214 7.44761 4.97411C7.54921 4.92 7.66127 4.89018 7.78013 4.89018H12.6021C13.1733 4.89018 13.7066 4.93184 14.1932 5.01924C14.3323 5.04395 14.4673 5.07253 14.5992 5.10459C14.7304 5.13727 14.8583 5.17382 14.9823 5.21384C15.0438 5.23426 15.1048 5.2555 15.1645 5.27653C15.4039 5.36475 15.6264 5.46909 15.8316 5.58937C16.073 3.87837 15.8296 2.71341 14.9974 1.65851C14.0797 0.497023 12.4237 0 10.3046 0H4.15233C3.7195 0 3.35023 0.349795 3.28336 0.825989L0.720913 18.8799C0.670392 19.2371 0.918223 19.5593 1.24229 19.5593H5.0404L7.01993 5.61264" fill="#28346A"/>
</svg>
