<svg width="15" height="12" viewBox="0 0 15 12" fill="none" xmlns="http://www.w3.org/2000/svg">
<path d="M14.375 4.375C14.72 4.375 15 4.095 15 3.75V0.625C15 0.28 14.72 0 14.375 0H0.625C0.28 0 0 0.28 0 0.625V3.75C0 4.095 0.28 4.375 0.625 4.375C1.3375 4.375 1.875 4.9125 1.875 5.625C1.875 6.3375 1.3375 6.875 0.625 6.875C0.28 6.875 0 7.155 0 7.5V10.625C0 10.97 0.28 11.25 0.625 11.25H14.375C14.72 11.25 15 10.97 15 10.625V7.5C15 7.155 14.72 6.875 14.375 6.875C13.6625 6.875 13.125 6.3375 13.125 5.625C13.125 4.9125 13.6625 4.375 14.375 4.375ZM5.3125 2.5C5.83 2.5 6.25 2.92 6.25 3.4375C6.25 3.955 5.83 4.375 5.3125 4.375C4.795 4.375 4.375 3.955 4.375 3.4375C4.375 2.92 4.795 2.5 5.3125 2.5ZM9.6875 8.75C9.17 8.75 8.75 8.33 8.75 7.8125C8.75 7.295 9.17 6.875 9.6875 6.875C10.205 6.875 10.625 7.295 10.625 7.8125C10.625 8.33 10.205 8.75 9.6875 8.75ZM5 9.00875L4.11625 8.125L10 2.24125L10.8837 3.125L5 9.00875Z" fill="white"/>
</svg>
