<svg fill="none" height="41" viewBox="0 0 40 41" width="40"
     xmlns="http://www.w3.org/2000/svg">
  <g clip-path="url(#clip0_933_15452)">
    <path
      d="M35 3.75781H5C3.67392 3.75781 2.40215 4.2846 1.46447 5.22228C0.526784 6.15996 0 7.43173 0 8.75781L0 32.0911C0 33.4172 0.526784 34.689 1.46447 35.6267C2.40215 36.5644 3.67392 37.0911 5 37.0911H35C36.3261 37.0911 37.5979 36.5644 38.5355 35.6267C39.4732 34.689 40 33.4172 40 32.0911V8.75781C40 7.43173 39.4732 6.15996 38.5355 5.22228C37.5979 4.2846 36.3261 3.75781 35 3.75781Z"
      fill="#2f3337"></path>
    <path
      d="M15 14.3471V26.5032C15 27.4849 16.0799 28.0835 16.9125 27.5631L26.6373 21.4851C27.4207 20.9955 27.4207 19.8547 26.6373 19.3651L16.9125 13.2871C16.0799 12.7668 15 13.3653 15 14.3471Z"
      fill="#ffffff"></path>
  </g>
  <defs>
    <clipPath id="clip0_933_15452">
      <rect width="40" height="40" fill="#ffffff" transform="translate(0 0.424805)"></rect>
    </clipPath>
  </defs>
</svg>
