<svg viewBox="0 0 18 18" fill="none" xmlns="http://www.w3.org/2000/svg">
<g clip-path="url(#clip0_1231_12371)">
<path d="M15.75 9C15.75 12.7222 12.7222 15.75 9 15.75C5.27775 15.75 2.25 12.7222 2.25 9C2.25 5.27775 5.27775 2.25 9 2.25C10.4917 2.25 11.9047 2.7375 13.0725 3.62475L10.3695 6.1695L17.2448 6.90675L16.9215 0L14.1803 2.5815C12.7177 1.3965 10.9088 0.75 9 0.75C4.45125 0.75 0.75 4.45125 0.75 9C0.75 13.5487 4.45125 17.25 9 17.25C13.5487 17.25 17.25 13.5487 17.25 9H15.75Z" fill="#2F3337"/>
</g>
<defs>
<clipPath id="clip0_1231_12371">
<rect width="18" height="18" fill="white"/>
</clipPath>
</defs>
</svg>
