<svg width="54" height="54" viewBox="0 0 54 54" fill="none" xmlns="http://www.w3.org/2000/svg">
<g clip-path="url(#clip0_1502_11322)">
<path d="M27 54C41.9117 54 54 41.9117 54 27C54 12.0883 41.9117 0 27 0C12.0883 0 0 12.0883 0 27C0 41.9117 12.0883 54 27 54Z" fill="#DADCDF"/>
<path d="M16 21L15.3598 20.2318L15 20.5316V21H16ZM38 21H39V20.5316L38.6402 20.2318L38 21ZM32 16L32.6402 15.2318L32.362 15H32V16ZM22 16V15H21.6379L21.3598 15.2318L22 16ZM16 38H15V39H16V38ZM38 38V39H39V38H38ZM30 28V29H31V28H30ZM24 28H23V29H24V28ZM24 21L23.0715 20.6286L23 20.8074V21H24ZM26 16V15H25.323L25.0715 15.6286L26 16ZM28 16L28.9285 15.6286L28.677 15H28V16ZM30 21H31V20.8074L30.9285 20.6286L30 21ZM16 22H38V20H16V22ZM38.6402 20.2318L32.6402 15.2318L31.3598 16.7682L37.3598 21.7682L38.6402 20.2318ZM32 15H22V17H32V15ZM21.3598 15.2318L15.3598 20.2318L16.6402 21.7682L22.6402 16.7682L21.3598 15.2318ZM15 21V38H17V21H15ZM16 39H38V37H16V39ZM39 38V21H37V38H39ZM30 27H24V29H30V27ZM25 28V21H23V28H25ZM24.9285 21.3714L26.9285 16.3714L25.0715 15.6286L23.0715 20.6286L24.9285 21.3714ZM26 17H28V15H26V17ZM27.0715 16.3714L29.0715 21.3714L30.9285 20.6286L28.9285 15.6286L27.0715 16.3714ZM29 21V28H31V21H29Z" fill="#545658"/>
</g>
<defs>
<clipPath id="clip0_1502_11322">
<rect width="54" height="54" fill="white"/>
</clipPath>
</defs>
</svg>
