<svg width="54" height="54" viewBox="0 0 54 54" fill="none" xmlns="http://www.w3.org/2000/svg">
<g clip-path="url(#clip0_1502_11297)">
<path d="M27 54C41.9117 54 54 41.9117 54 27C54 12.0883 41.9117 0 27 0C12.0883 0 0 12.0883 0 27C0 41.9117 12.0883 54 27 54Z" fill="#DADCDF"/>
<path d="M14.984 19.016C15.944 19.016 16.8187 18.9627 17.608 18.856C18.3973 18.728 19.0693 18.504 19.624 18.184C20.2 17.8427 20.648 17.3947 20.968 16.84C21.288 16.2853 21.448 15.5707 21.448 14.696C21.448 13.992 21.32 13.3947 21.064 12.904C20.808 12.392 20.456 11.976 20.008 11.656C19.5813 11.336 19.0693 11.1013 18.472 10.952C17.896 10.8027 17.288 10.728 16.648 10.728C15.9227 10.728 15.2613 10.8453 14.664 11.08C14.088 11.3147 13.5867 11.656 13.16 12.104C12.7333 12.5307 12.4027 13.0427 12.168 13.64C11.9333 14.216 11.816 14.856 11.816 15.56H9.768C9.768 14.536 9.93867 13.6187 10.28 12.808C10.6427 11.976 11.1973 11.208 11.944 10.504C12.648 9.864 13.4373 9.45867 14.312 9.288C15.208 9.096 16.1253 9 17.064 9C17.96 9 18.792 9.11733 19.56 9.352C20.3493 9.56534 21.032 9.90667 21.608 10.376C22.184 10.824 22.6427 11.4 22.984 12.104C23.3253 12.808 23.496 13.6293 23.496 14.568C23.496 15.7413 23.2293 16.7547 22.696 17.608C22.184 18.4613 21.384 19.1227 20.296 19.592C21.1067 19.848 21.768 20.1893 22.28 20.616C22.8133 21.0213 23.2293 21.48 23.528 21.992C23.8267 22.4827 24.0293 23.0053 24.136 23.56C24.2427 24.1147 24.296 24.648 24.296 25.16C24.296 26.0987 24.136 26.9733 23.816 27.784C23.496 28.5947 23.0267 29.3093 22.408 29.928C21.7893 30.5467 21.0213 31.048 20.104 31.432C19.208 31.7947 18.184 31.9867 17.032 32.008C15.7307 32.008 14.6 31.8907 13.64 31.656C12.68 31.4213 11.88 31.0373 11.24 30.504C10.6 29.9493 10.0987 29.2347 9.736 28.36C9.37333 27.464 9.128 26.3547 9 25.032H11.048C11.048 26.76 11.56 28.072 12.584 28.968C13.6293 29.8427 14.984 30.28 16.648 30.28C17.4587 30.28 18.216 30.1413 18.92 29.864C19.624 29.5867 20.2213 29.2133 20.712 28.744C21.224 28.2747 21.608 27.7307 21.864 27.112C22.1413 26.4933 22.2693 25.8533 22.248 25.192C22.2053 24.2747 21.992 23.5173 21.608 22.92C21.224 22.3013 20.7013 21.8213 20.04 21.48C19.4 21.1173 18.6427 20.8827 17.768 20.776C16.8933 20.648 15.9653 20.616 14.984 20.68V19.016Z" fill="#545658"/>
<path d="M40.1574 20.456C40.1574 19.24 40.0827 18.056 39.9334 16.904C39.8054 15.7307 39.5387 14.6853 39.1334 13.768C38.728 12.8507 38.152 12.1147 37.4054 11.56C36.68 11.0053 35.72 10.728 34.5254 10.728C33.3947 10.728 32.4667 11.016 31.7414 11.592C31.0374 12.1467 30.4827 12.8933 30.0774 13.832C29.672 14.7707 29.384 15.8373 29.2134 17.032C29.064 18.2267 28.9894 19.4427 28.9894 20.68C28.9894 22.1307 29.0747 23.4533 29.2454 24.648C29.4374 25.8213 29.7467 26.824 30.1734 27.656C30.6 28.488 31.1654 29.1387 31.8694 29.608C32.5947 30.056 33.5014 30.28 34.5894 30.28C35.8054 30.28 36.776 29.9813 37.5014 29.384C38.248 28.7867 38.8134 28.0187 39.1974 27.08C39.5814 26.1413 39.8374 25.0853 39.9654 23.912C40.0934 22.7387 40.1574 21.5867 40.1574 20.456ZM34.5894 9C35.6987 9 36.6587 9.17067 37.4694 9.512C38.28 9.832 38.9627 10.28 39.5174 10.856C40.0934 11.432 40.552 12.104 40.8934 12.872C41.256 13.64 41.5334 14.4613 41.7254 15.336C41.9174 16.1893 42.0454 17.0747 42.1094 17.992C42.1734 18.9093 42.2054 19.8053 42.2054 20.68C42.2054 22.1733 42.0987 23.6027 41.8854 24.968C41.672 26.3333 41.2774 27.5387 40.7014 28.584C40.1467 29.6293 39.3787 30.4613 38.3974 31.08C37.416 31.6987 36.1467 32.008 34.5894 32.008C33.032 32.008 31.752 31.6987 30.7494 31.08C29.768 30.4613 28.9894 29.6293 28.4134 28.584C27.8587 27.5173 27.4747 26.2907 27.2614 24.904C27.048 23.496 26.9414 22.0133 26.9414 20.456C26.9414 19.0267 27.0374 17.6293 27.2294 16.264C27.4214 14.8987 27.784 13.6827 28.3174 12.616C28.872 11.528 29.6507 10.6533 30.6534 9.992C31.656 9.33067 32.968 9 34.5894 9Z" fill="#545658"/>
<path d="M23.2991 40.8632C23.7874 40.8632 24.2327 40.6543 24.6351 40.2363C25.0374 39.8144 25.3226 39.2109 25.4905 38.4257C25.6585 37.6328 25.6214 37.0468 25.3792 36.6679C25.137 36.2851 24.7776 36.0937 24.3011 36.0937C23.7698 36.0937 23.2952 36.2968 22.8773 36.7031C22.4632 37.1093 22.1722 37.707 22.0042 38.4961C21.8597 39.1679 21.8812 39.7304 22.0687 40.1836C22.2601 40.6367 22.6702 40.8632 23.2991 40.8632ZM25.4378 35.4785C25.6019 35.5957 25.7718 35.8007 25.9476 36.0937L26.6214 32.9238H27.6351L25.8011 41.5605H24.8519L25.0335 40.6875C24.7054 41.0742 24.3538 41.3535 23.9788 41.5253C23.6077 41.6972 23.2054 41.7832 22.7718 41.7832C22.0726 41.7832 21.5296 41.4902 21.1429 40.9043C20.7562 40.3144 20.6683 39.5312 20.8792 38.5546C21.0706 37.6406 21.471 36.8496 22.0804 36.1816C22.6898 35.5097 23.428 35.1738 24.2952 35.1738C24.7757 35.1738 25.1566 35.2753 25.4378 35.4785Z" fill="#545658"/>
<path d="M29.44 40.875C29.8111 40.875 30.19 40.789 30.5767 40.6171C31.2212 40.332 31.6138 39.8652 31.7544 39.2168L31.9302 38.3671C31.7857 38.4492 31.606 38.5175 31.3911 38.5722C31.1763 38.6269 30.9693 38.666 30.77 38.6894L30.1138 38.7714C29.7193 38.8222 29.4146 38.9023 29.1997 39.0117C28.8364 39.1953 28.6118 39.4882 28.5259 39.8906C28.4595 40.1953 28.5181 40.4355 28.7017 40.6113C28.8892 40.7871 29.1353 40.875 29.44 40.875ZM31.5318 37.7578C31.7818 37.7265 31.9673 37.625 32.0884 37.4531C32.1548 37.3593 32.2056 37.2246 32.2407 37.0488C32.3189 36.6894 32.2466 36.4296 32.0239 36.2695C31.8013 36.1054 31.4517 36.0234 30.9751 36.0234C30.4243 36.0234 30.0025 36.1718 29.7095 36.4687C29.5454 36.6328 29.4107 36.8769 29.3052 37.2011H28.3208C28.5044 36.4277 28.8696 35.8906 29.4165 35.5898C29.9634 35.2851 30.5552 35.1328 31.1919 35.1328C31.9302 35.1328 32.4986 35.2734 32.897 35.5546C33.2954 35.8359 33.4321 36.2734 33.3071 36.8671L32.5396 40.4824C32.5161 40.5918 32.5181 40.6796 32.5454 40.7461C32.5767 40.8125 32.6646 40.8457 32.8091 40.8457C32.856 40.8457 32.9087 40.8437 32.9673 40.8398C33.0298 40.832 33.0962 40.8222 33.1665 40.8105L32.9966 41.5898C32.8247 41.6367 32.6939 41.666 32.604 41.6777C32.5181 41.6894 32.4009 41.6953 32.2525 41.6953C31.8892 41.6953 31.6528 41.5664 31.5435 41.3086C31.4849 41.1718 31.4653 40.9785 31.4849 40.7285C31.2075 41.0097 30.8462 41.2539 30.4009 41.4609C29.9556 41.6679 29.4907 41.7714 29.0064 41.7714C28.4243 41.7714 27.9849 41.5957 27.688 41.2441C27.395 40.8886 27.3052 40.4453 27.4185 39.914C27.5435 39.332 27.8208 38.8808 28.2505 38.5605C28.6841 38.2402 29.2036 38.0429 29.8091 37.9687L31.5318 37.7578Z" fill="#545658"/>
<path d="M39.2949 35.2852H40.4609C40.2266 35.6876 39.7012 36.6055 38.8848 38.0391C38.2754 39.1172 37.7695 39.9962 37.3672 40.6758C36.4141 42.2774 35.7754 43.254 35.4512 43.6055C35.127 43.9571 34.6602 44.1329 34.0508 44.1329C33.9023 44.1329 33.7891 44.127 33.7109 44.1153C33.6328 44.1036 33.5391 44.0821 33.4297 44.0508L33.6348 43.0899C33.8066 43.1407 33.9316 43.1719 34.0098 43.1837C34.0918 43.1954 34.1641 43.2012 34.2266 43.2012C34.4219 43.2012 34.5723 43.168 34.6777 43.1016C34.7832 43.0391 34.877 42.961 34.959 42.8672C34.9863 42.836 35.0898 42.6758 35.2695 42.3868C35.4531 42.0977 35.5879 41.8829 35.6738 41.7422L34.7246 35.2852H35.9199L36.5176 40.3946L39.2949 35.2852Z" fill="#545658"/>
<path d="M41.0883 39.5918C41.0453 39.9433 41.0766 40.2128 41.182 40.4003C41.3734 40.7402 41.7973 40.9101 42.4535 40.9101C42.8442 40.9101 43.2055 40.8261 43.5375 40.6582C43.8734 40.4863 44.0785 40.2226 44.1527 39.8671C44.2113 39.5976 44.1352 39.3925 43.9242 39.2519C43.7914 39.166 43.5121 39.0664 43.0863 38.9531L42.2953 38.7421C41.7875 38.6093 41.4242 38.4609 41.2055 38.2968C40.8109 38.0117 40.6684 37.6171 40.7777 37.1132C40.9027 36.5195 41.2172 36.039 41.7211 35.6718C42.2289 35.3046 42.8442 35.1211 43.5668 35.1211C44.5121 35.1211 45.1352 35.3984 45.4359 35.9531C45.6234 36.3046 45.6703 36.6836 45.5766 37.0898H44.5805C44.6117 36.8515 44.5727 36.6347 44.4633 36.4394C44.2797 36.1621 43.8891 36.0234 43.2914 36.0234C42.893 36.0234 42.5746 36.0996 42.3363 36.2519C42.102 36.4043 41.9574 36.6054 41.9027 36.8554C41.8442 37.1289 41.932 37.3476 42.1664 37.5117C42.3031 37.6093 42.516 37.6953 42.8051 37.7695L43.4672 37.9394C44.1859 38.123 44.6567 38.3007 44.8793 38.4726C45.2309 38.7421 45.3442 39.166 45.2192 39.7441C45.102 40.3027 44.7875 40.7851 44.2758 41.1914C43.768 41.5976 43.0805 41.8007 42.2133 41.8007C41.2797 41.8007 40.6625 41.5898 40.3617 41.1679C40.0649 40.7421 39.9692 40.2168 40.0746 39.5918H41.0883Z" fill="#545658"/>
</g>
<defs>
<clipPath id="clip0_1502_11297">
<rect width="54" height="54" fill="white"/>
</clipPath>
</defs>
</svg>
