<svg width="33" height="33" viewBox="0 0 33 33" fill="none" xmlns="http://www.w3.org/2000/svg">
  <path fill-rule="evenodd" clip-rule="evenodd"
    d="M18.8849 1.5C18.3326 1.5 17.8849 1.94772 17.8849 2.5C17.8849 3.05228 18.3326 3.5 18.8849 3.5H20.6667C25.6373 3.5 29.6667 7.52944 29.6667 12.5C29.6667 17.4706 25.6373 21.5 20.6667 21.5H5.08096L11.3739 15.2071C11.7644 14.8166 11.7644 14.1834 11.3739 13.7929C10.9833 13.4024 10.3502 13.4024 9.95964 13.7929L1.95964 21.7929C1.56912 22.1834 1.56912 22.8166 1.95964 23.2071L9.95964 31.2071C10.3502 31.5976 10.9833 31.5976 11.3739 31.2071C11.7644 30.8166 11.7644 30.1834 11.3739 29.7929L5.08096 23.5H20.6667C26.7419 23.5 31.6667 18.5751 31.6667 12.5C31.6667 6.42487 26.7419 1.5 20.6667 1.5H18.8849Z"
    fill="#252525" />
</svg>