<svg width="54" height="54" viewBox="0 0 54 54" fill="none" xmlns="http://www.w3.org/2000/svg">
<g clip-path="url(#clip0_1502_11310)">
<path d="M27 54C41.9117 54 54 41.9117 54 27C54 12.0883 41.9117 0 27 0C12.0883 0 0 12.0883 0 27C0 41.9117 12.0883 54 27 54Z" fill="#DADCDF"/>
<path d="M19.304 25.768H9V24.008L19.496 9H21.352V24.04H24.488V25.768H21.352V31.336H19.304V25.768ZM11.016 24.04H19.304V12.072L11.016 24.04Z" fill="#545658"/>
<path d="M28.797 25.48C29.0104 27.016 29.6184 28.168 30.621 28.936C31.645 29.6827 32.893 30.056 34.365 30.056C35.197 30.056 35.9437 29.9067 36.605 29.608C37.2877 29.3093 37.8637 28.904 38.333 28.392C38.8024 27.8587 39.1544 27.2507 39.389 26.568C39.645 25.864 39.773 25.1067 39.773 24.296C39.773 23.464 39.6344 22.696 39.357 21.992C39.101 21.288 38.7277 20.68 38.237 20.168C37.7677 19.656 37.181 19.2613 36.477 18.984C35.7944 18.7067 35.0264 18.568 34.173 18.568C33.149 18.568 32.2317 18.76 31.421 19.144C30.6104 19.5067 29.8957 20.0933 29.277 20.904L27.581 20.68L29.405 9H40.605V10.728H31.133L29.725 18.312C30.173 18.0347 30.5784 17.8 30.941 17.608C31.325 17.416 31.709 17.2667 32.093 17.16C32.477 17.032 32.8717 16.9467 33.277 16.904C33.7037 16.8613 34.173 16.84 34.685 16.84C35.709 16.84 36.6584 17.0107 37.533 17.352C38.4077 17.6933 39.165 18.184 39.805 18.824C40.445 19.464 40.9357 20.2533 41.277 21.192C41.6397 22.1093 41.821 23.144 41.821 24.296C41.821 25.4907 41.6184 26.5573 41.213 27.496C40.829 28.4133 40.3064 29.192 39.645 29.832C38.9837 30.472 38.2157 30.9627 37.341 31.304C36.4877 31.624 35.6024 31.784 34.685 31.784C33.6184 31.784 32.6157 31.6773 31.677 31.464C30.7597 31.2507 29.949 30.8987 29.245 30.408C28.541 29.896 27.965 29.2453 27.517 28.456C27.0904 27.6453 26.8344 26.6533 26.749 25.48H28.797Z" fill="#545658"/>
<path d="M22.2347 41.6386C22.723 41.6386 23.1683 41.4296 23.5706 41.0117C23.973 40.5898 24.2581 39.9863 24.4261 39.2011C24.5941 38.4082 24.557 37.8222 24.3148 37.4433C24.0726 37.0605 23.7132 36.8691 23.2366 36.8691C22.7054 36.8691 22.2308 37.0722 21.8128 37.4785C21.3988 37.8847 21.1077 38.4824 20.9398 39.2714C20.7952 39.9433 20.8167 40.5058 21.0042 40.9589C21.1956 41.4121 21.6058 41.6386 22.2347 41.6386ZM24.3734 36.2539C24.5374 36.3711 24.7074 36.5761 24.8831 36.8691L25.557 33.6992H26.5706L24.7366 42.3359H23.7874L23.9691 41.4629C23.6409 41.8496 23.2894 42.1289 22.9144 42.3007C22.5433 42.4726 22.1409 42.5586 21.7074 42.5586C21.0081 42.5586 20.4652 42.2656 20.0784 41.6796C19.6917 41.0898 19.6038 40.3066 19.8148 39.33C20.0062 38.416 20.4066 37.625 21.0159 36.957C21.6253 36.2851 22.3636 35.9492 23.2308 35.9492C23.7113 35.9492 24.0921 36.0507 24.3734 36.2539Z" fill="#545658"/>
<path d="M28.3745 41.6504C28.7456 41.6504 29.1245 41.5644 29.5112 41.3925C30.1558 41.1074 30.5483 40.6406 30.689 39.9921L30.8648 39.1425C30.7202 39.2246 30.5405 39.2929 30.3257 39.3476C30.1108 39.4023 29.9038 39.4414 29.7046 39.4648L29.0483 39.5468C28.6538 39.5976 28.3491 39.6777 28.1343 39.7871C27.771 39.9707 27.5464 40.2636 27.4605 40.666C27.3941 40.9707 27.4526 41.2109 27.6362 41.3867C27.8237 41.5625 28.0698 41.6504 28.3745 41.6504ZM30.4663 38.5332C30.7163 38.5019 30.9019 38.4004 31.023 38.2285C31.0894 38.1347 31.1401 38 31.1753 37.8242C31.2534 37.4648 31.1812 37.205 30.9585 37.0449C30.7358 36.8808 30.3862 36.7988 29.9097 36.7988C29.3589 36.7988 28.937 36.9472 28.6441 37.2441C28.48 37.4082 28.3452 37.6523 28.2398 37.9765H27.2554C27.439 37.2031 27.8042 36.666 28.3511 36.3652C28.898 36.0605 29.4898 35.9082 30.1265 35.9082C30.8648 35.9082 31.4331 36.0488 31.8316 36.33C32.23 36.6113 32.3667 37.0488 32.2417 37.6425L31.4741 41.2578C31.4507 41.3671 31.4526 41.455 31.48 41.5214C31.5112 41.5879 31.5991 41.6211 31.7437 41.6211C31.7905 41.6211 31.8433 41.6191 31.9019 41.6152C31.9644 41.6074 32.0308 41.5976 32.1011 41.5859L31.9312 42.3652C31.7593 42.4121 31.6284 42.4414 31.5386 42.4531C31.4526 42.4648 31.3355 42.4707 31.187 42.4707C30.8237 42.4707 30.5874 42.3418 30.478 42.0839C30.4194 41.9472 30.3999 41.7539 30.4194 41.5039C30.1421 41.7851 29.7808 42.0293 29.3355 42.2363C28.8901 42.4433 28.4253 42.5468 27.9409 42.5468C27.3589 42.5468 26.9194 42.3711 26.6226 42.0195C26.3296 41.664 26.2398 41.2207 26.353 40.6894C26.478 40.1074 26.7554 39.6562 27.1851 39.3359C27.6187 39.0156 28.1382 38.8183 28.7437 38.7441L30.4663 38.5332Z" fill="#545658"/>
<path d="M38.2304 36.0605H39.3964C39.162 36.4629 38.6366 37.3808 37.8202 38.8144C37.2109 39.8925 36.705 40.7714 36.3027 41.4511C35.3495 43.0527 34.7109 44.0293 34.3866 44.3808C34.0624 44.7324 33.5956 44.9082 32.9862 44.9082C32.8378 44.9082 32.7245 44.9023 32.6464 44.8906C32.5683 44.8789 32.4745 44.8574 32.3652 44.8261L32.5702 43.8652C32.7421 43.916 32.8671 43.9472 32.9452 43.9589C33.0273 43.9707 33.0995 43.9765 33.162 43.9765C33.3573 43.9765 33.5077 43.9433 33.6132 43.8769C33.7187 43.8144 33.8124 43.7363 33.8945 43.6425C33.9218 43.6113 34.0253 43.4511 34.205 43.1621C34.3886 42.873 34.5234 42.6582 34.6093 42.5175L33.6601 36.0605H34.8554L35.453 41.1699L38.2304 36.0605Z" fill="#545658"/>
<path d="M40.0239 40.3672C39.9809 40.7188 40.0121 40.9883 40.1176 41.1758C40.309 41.5157 40.7328 41.6856 41.3891 41.6856C41.7797 41.6856 42.141 41.6016 42.4731 41.4337C42.809 41.2618 43.0141 40.9981 43.0883 40.6426C43.1469 40.3731 43.0707 40.168 42.8598 40.0274C42.727 39.9415 42.4477 39.8419 42.0219 39.7286L41.2309 39.5176C40.7231 39.3848 40.3598 39.2364 40.141 39.0723C39.7465 38.7872 39.6039 38.3926 39.7133 37.8887C39.8383 37.295 40.1528 36.8145 40.6567 36.4473C41.1645 36.0801 41.7797 35.8965 42.5024 35.8965C43.4477 35.8965 44.0707 36.1739 44.3715 36.7286C44.559 37.0801 44.6059 37.459 44.5121 37.8653H43.516C43.5473 37.627 43.5082 37.4102 43.3989 37.2149C43.2153 36.9376 42.8246 36.7989 42.227 36.7989C41.8285 36.7989 41.5102 36.8751 41.2719 37.0274C41.0375 37.1798 40.893 37.3809 40.8383 37.6309C40.7797 37.9044 40.8676 38.1231 41.102 38.2872C41.2387 38.3848 41.4516 38.4708 41.7407 38.545L42.4028 38.7149C43.1215 38.8985 43.5922 39.0762 43.8149 39.2481C44.1664 39.5176 44.2797 39.9415 44.1547 40.5196C44.0375 41.0782 43.7231 41.5606 43.2114 41.9669C42.7035 42.3731 42.016 42.5762 41.1489 42.5762C40.2153 42.5762 39.5981 42.3653 39.2973 41.9434C39.0004 41.5176 38.9047 40.9922 39.0102 40.3672H40.0239Z" fill="#545658"/>
</g>
<defs>
<clipPath id="clip0_1502_11310">
<rect width="54" height="54" fill="white"/>
</clipPath>
</defs>
</svg>
