<svg width="54" height="54" viewBox="0 0 54 54" fill="none" xmlns="http://www.w3.org/2000/svg">
<g clip-path="url(#clip0_1502_11328)">
<path d="M27 54C41.9117 54 54 41.9117 54 27C54 12.0883 41.9117 0 27 0C12.0883 0 0 12.0883 0 27C0 41.9117 12.0883 54 27 54Z" fill="#DADCDF"/>
<path d="M28.8228 41.0147H25.1758C24.6121 41.0147 24.1546 41.4594 24.1546 42.0074C24.1546 42.5553 24.6121 43 25.1758 43H28.8228C29.3865 43 29.844 42.5553 29.844 42.0074C29.844 41.4594 29.3865 41.0147 28.8228 41.0147ZM26.9997 11C20.383 11 15 16.2332 15 22.6648C15 26.7366 17.1799 30.4947 20.7296 32.6117V33.4323C20.7296 35.6737 22.6051 37.4962 24.911 37.4962H29.0883C31.3942 37.4962 33.2698 35.6737 33.2698 33.4323V32.6117C36.8194 30.4961 39 26.7373 39 22.6648C38.9993 16.2332 33.6163 11 26.9997 11ZM31.7584 31.1697C31.4309 31.3431 31.2267 31.678 31.2267 32.0406V33.433C31.2267 34.5791 30.2675 35.5115 29.0877 35.5115H24.9103C23.7312 35.5115 22.7712 34.5798 22.7712 33.433V32.04C22.7712 31.6766 22.567 31.3431 22.2396 31.1691C19.0337 29.4697 17.0417 26.2112 17.0417 22.6655C17.0417 17.3291 21.5091 12.9859 26.999 12.9859C28.3299 12.9859 29.5976 13.2454 30.759 13.7079L29.3559 16.7977C29.1639 17.2212 29.298 17.7175 29.6799 17.9941L30.9803 18.9365L28.701 20.7781C28.2673 21.1282 28.2081 21.7542 28.5689 22.1758C28.7711 22.412 29.0618 22.5338 29.3545 22.5338C29.5846 22.5338 29.8161 22.4584 30.0067 22.3042L33.2834 19.6571C33.5244 19.4632 33.6599 19.1721 33.651 18.8677C33.6428 18.5639 33.4917 18.28 33.2405 18.098L31.5528 16.8751L32.5658 14.6436C35.2127 16.3854 36.9563 19.3309 36.9563 22.6655C36.9569 26.2105 34.9649 29.4684 31.7584 31.1697ZM29.9352 38.2631H24.0634C23.4997 38.2631 23.0422 38.7078 23.0422 39.2558C23.0422 39.8037 23.4997 40.2484 24.0634 40.2484H29.9352C30.4989 40.2484 30.9564 39.8037 30.9564 39.2558C30.9564 38.7078 30.4989 38.2631 29.9352 38.2631Z" fill="#545658"/>
</g>
<defs>
<clipPath id="clip0_1502_11328">
<rect width="54" height="54" fill="white"/>
</clipPath>
</defs>
</svg>
