<svg width="24" height="24" viewBox="0 0 24 24" fill="none" xmlns="http://www.w3.org/2000/svg">
<path d="M17.8477 18.9301L19.3067 20.2971C20.9947 18.4951 21.1627 18.2491 22.2367 16.0351L20.4377 15.1621C19.4547 17.1871 19.3877 17.2851 17.8477 18.9301Z" fill="#2F3337"/>
<path d="M11.2256 21.0213L11.2746 23.0203C13.8896 22.9563 14.3066 22.8763 16.7326 21.9923L16.0476 20.1133C13.8366 20.9183 13.6216 20.9623 11.2256 21.0213Z" fill="#2F3337"/>
<path d="M4.88115 17.5752L3.45215 18.9742C5.28915 20.8492 5.65115 21.1172 8.00815 22.2942L8.90315 20.5052C6.76315 19.4372 6.56015 19.2912 4.88115 17.5752Z" fill="#2F3337"/>
<path d="M3 11H1C1 13.523 1.054 13.863 1.81 16.25L3.716 15.646C3.024 13.461 3 13.301 3 11Z" fill="#2F3337"/>
<path d="M6.5705 4.83252C8.1275 3.64952 10.0115 2.99952 12.0005 2.99952C16.9635 2.99952 21.0005 7.03652 21.0005 11.9995C21.0005 12.2065 20.9835 12.4085 20.9695 12.6115L22.9535 12.9215C22.9795 12.6165 23.0005 12.3105 23.0005 11.9995C23.0005 5.93452 18.0655 0.999516 12.0005 0.999516C9.4555 0.999516 7.0435 1.86152 5.0935 3.44152L2.3335 0.853516L1.6875 8.43752L9.2915 7.37552L6.5705 4.83252Z" fill="#2F3337"/>
</svg>
