<svg width="16" height="16" viewBox="0 0 16 16" fill="none" xmlns="http://www.w3.org/2000/svg">
<path d="M1.33333 12.6667C1.33333 13.0348 1.63181 13.3333 1.99999 13.3333H5.99999C6.36818 13.3333 6.66666 13.0348 6.66666 12.6667C6.66666 12.2985 6.36819 12 6 12H2C1.63181 12 1.33333 12.2985 1.33333 12.6667ZM2 2.66666C1.63181 2.66666 1.33333 2.96513 1.33333 3.33332C1.33333 3.70151 1.63181 3.99999 1.99999 3.99999H14C14.3682 3.99999 14.6667 3.70151 14.6667 3.33332C14.6667 2.96513 14.3682 2.66666 14 2.66666H2ZM1.33333 7.99999C1.33333 8.36818 1.63181 8.66666 1.99999 8.66666H10C10.3682 8.66666 10.6667 8.36818 10.6667 7.99999C10.6667 7.6318 10.3682 7.33332 10 7.33332H1.99999C1.6318 7.33332 1.33333 7.6318 1.33333 7.99999Z" fill="#2F3337"/>
</svg>
