<svg viewBox="0 0 17 16" fill="none" xmlns="http://www.w3.org/2000/svg">
  <path
    d="M9.0568 0.975084L11.1301 5.17508L15.7661 5.84975C15.8685 5.86452 15.9648 5.90766 16.0439 5.9743C16.123 6.04094 16.1819 6.1284 16.2139 6.22679C16.2459 6.32519 16.2497 6.43057 16.2249 6.53101C16.2001 6.63144 16.1476 6.72292 16.0735 6.79508L12.7181 10.0617L13.5101 14.6791C13.5276 14.7811 13.5162 14.8859 13.4772 14.9818C13.4382 15.0776 13.3732 15.1606 13.2895 15.2214C13.2058 15.2823 13.1067 15.3185 13.0035 15.3259C12.9003 15.3334 12.7971 15.3119 12.7055 15.2637L8.55946 13.0871L4.4128 15.2657C4.32112 15.3137 4.21788 15.335 4.11472 15.3274C4.01156 15.3198 3.91257 15.2835 3.82892 15.2227C3.74527 15.1618 3.68028 15.0788 3.64127 14.983C3.60226 14.8872 3.59078 14.7824 3.60813 14.6804L4.40013 10.0658L1.0448 6.79908C0.970658 6.72692 0.918205 6.63544 0.893381 6.53501C0.868557 6.43457 0.872353 6.32919 0.904341 6.2308C0.936328 6.1324 0.995228 6.04494 1.07437 5.9783C1.15351 5.91166 1.24973 5.86852 1.35213 5.85375L5.98813 5.17575L8.06147 0.97575C8.10733 0.882968 8.17821 0.804849 8.26611 0.750207C8.35401 0.695565 8.45543 0.666573 8.55892 0.666504C8.66242 0.666435 8.76388 0.69529 8.85185 0.749815C8.93983 0.804339 9.01081 0.882363 9.0568 0.975084Z"
    fill="#BFBFBF" />
</svg>
