<svg viewBox="0 0 16 16" fill="none" xmlns="http://www.w3.org/2000/svg">
  <path
    d="M8.42032 0.975084L10.4937 5.17508L15.1297 5.84975C15.2321 5.86452 15.3283 5.90766 15.4074 5.9743C15.4866 6.04094 15.5455 6.1284 15.5774 6.22679C15.6094 6.32519 15.6132 6.43057 15.5884 6.53101C15.5636 6.63144 15.5111 6.72292 15.437 6.79508L12.0817 10.0617L12.8737 14.6791C12.8911 14.7811 12.8797 14.8859 12.8407 14.9818C12.8017 15.0776 12.7367 15.1606 12.653 15.2214C12.5693 15.2823 12.4702 15.3185 12.367 15.3259C12.2638 15.3334 12.1606 15.3119 12.069 15.2637L7.92299 13.0871L3.77632 15.2657C3.68465 15.3137 3.58141 15.335 3.47825 15.3274C3.37508 15.3198 3.2761 15.2835 3.19245 15.2227C3.1088 15.1618 3.0438 15.0788 3.00479 14.983C2.96578 14.8872 2.95431 14.7824 2.97166 14.6804L3.76366 10.0658L0.408324 6.79908C0.334183 6.72692 0.28173 6.63544 0.256906 6.53501C0.232082 6.43457 0.235879 6.32919 0.267866 6.2308C0.299854 6.1324 0.358754 6.04494 0.437895 5.9783C0.517037 5.91166 0.613257 5.86852 0.715658 5.85375L5.35166 5.17575L7.42499 0.97575C7.47085 0.882968 7.54173 0.804849 7.62963 0.750207C7.71753 0.695565 7.81895 0.666573 7.92245 0.666504C8.02595 0.666435 8.12741 0.69529 8.21538 0.749815C8.30335 0.804339 8.37434 0.882363 8.42032 0.975084Z"
    fill="#252525" />
</svg>
