<svg width="44" height="44" viewBox="0 0 44 44" fill="none" xmlns="http://www.w3.org/2000/svg">
<ellipse cx="22.259" cy="21.6013" rx="21.5059" ry="21.4353" fill="white"/>
<g clip-path="url(#clip0_1611_2238)">
<path d="M22.2589 4.06326C18.7788 4.06326 15.3768 5.09185 12.4832 7.01894C9.58963 8.94604 7.33434 11.6851 6.00256 14.8897C4.67079 18.0944 4.32233 21.6207 5.00127 25.0227C5.6802 28.4247 7.35603 31.5497 9.81684 34.0024C12.2776 36.4552 15.4129 38.1255 18.8261 38.8022C22.2394 39.4789 25.7773 39.1316 28.9925 37.8042C32.2077 36.4768 34.9558 34.2289 36.8892 31.3448C38.8226 28.4607 39.8546 25.0699 39.8546 21.6012C39.8411 16.954 37.9829 12.501 34.686 9.21492C31.3891 5.92884 26.9214 4.07676 22.2589 4.06326V4.06326ZM19.3263 29.5138L11.3877 21.6012L13.461 19.5347L19.3263 25.3807L31.0568 13.6887L33.1301 15.7552L19.3263 29.5138Z" fill="#0079D2"/>
</g>
<defs>
<clipPath id="clip0_1611_2238">
<rect width="35.1914" height="35.0759" fill="white" transform="translate(4.66316 4.06326)"/>
</clipPath>
</defs>
</svg>
