<svg width="32" height="33" viewBox="0 0 32 33" fill="none" xmlns="http://www.w3.org/2000/svg">
  <path fill-rule="evenodd" clip-rule="evenodd"
    d="M1 6.5C1 5.94772 1.44772 5.5 2 5.5H18C18.5523 5.5 19 5.94772 19 6.5V8.75L30.28 12.04C30.7067 12.1644 31 12.5556 31 13L31 23.5C31 24.0523 30.5523 24.5 30 24.5H27.874C27.4299 26.2252 25.8638 27.5 24 27.5C22.1362 27.5 20.5701 26.2252 20.126 24.5H18H11.874C11.4299 26.2252 9.86384 27.5 8 27.5C6.13616 27.5 4.57006 26.2252 4.12602 24.5H2C1.44772 24.5 1 24.0523 1 23.5V6.5ZM19 22.5H20.126C20.5701 20.7748 22.1362 19.5 24 19.5C25.8638 19.5 27.4299 20.7748 27.874 22.5H29L29 13.75L19 10.8333V22.5ZM17 22.5H11.874C11.4299 20.7748 9.86384 19.5 8 19.5C6.13616 19.5 4.57006 20.7748 4.12602 22.5H3V7.5H17V22.5ZM6 23.5C6 22.3954 6.89543 21.5 8 21.5C9.10457 21.5 10 22.3954 10 23.5C10 24.6046 9.10457 25.5 8 25.5C6.89543 25.5 6 24.6046 6 23.5ZM22 23.5C22 22.3954 22.8954 21.5 24 21.5C25.1046 21.5 26 22.3954 26 23.5C26 24.6046 25.1046 25.5 24 25.5C22.8954 25.5 22 24.6046 22 23.5Z"
    fill="#252525" />
</svg>