<svg width="32" height="21" viewBox="0 0 32 21" fill="none" xmlns="http://www.w3.org/2000/svg">
<path d="M32 1.16667C32 0.522083 31.4033 0 30.6667 0H13.3333V11.6667H0V19.8333C0 20.4779 0.596667 21 1.33333 21H30.6667C31.4033 21 32 20.4779 32 19.8333V1.16667Z" fill="#B41F30"/>
<rect x="13.333" y="2.3335" width="18.6668" height="2.33325" fill="#E6E6E6"/>
<rect x="13.333" y="7" width="18.6668" height="2.33337" fill="#E6E6E6"/>
<path d="M0 11.6665V13.9999H32V11.6665H13.3333H0Z" fill="#E6E6E6"/>
<path d="M0 16.3335H32V18.6667H0V16.3335Z" fill="#E6E6E6"/>
<path d="M13.3332 11.6666H0V1.16666C0 0.522081 0.596661 0 1.33332 0H13.3332V11.6666Z" fill="#00256A"/>
</svg>
