<svg width="23" height="23" viewBox="0 0 23 23" fill="none" xmlns="http://www.w3.org/2000/svg">
<path d="M11.9999 0C15.8659 0 18.9999 3.13401 18.9999 7C18.9999 9.31804 17.8723 11.3716 16.1366 12.6455C16.3325 12.712 16.5241 12.7821 16.7108 12.8574C17.2228 13.0642 17.4701 13.6471 17.2636 14.1592C17.0568 14.6711 16.4739 14.9185 15.9618 14.7119C14.8838 14.2771 13.5796 14 11.9989 14C7.84206 14 5.50377 15.9214 4.16885 17.8242C3.49017 18.7917 3.06521 19.7654 2.81143 20.499C2.68515 20.8641 2.60299 21.166 2.55264 21.3721C2.52751 21.4749 2.51017 21.5541 2.49991 21.6045C2.49482 21.6295 2.49109 21.6478 2.48917 21.6582L2.48721 21.665C2.3956 22.2096 1.88044 22.5779 1.33585 22.4863C0.791405 22.3946 0.424076 21.8785 0.515533 21.334L1.50186 21.5C0.540777 21.3384 0.516076 21.3337 0.515533 21.333L0.51651 21.332C0.516647 21.3312 0.516375 21.3301 0.51651 21.3291C0.516908 21.3268 0.517872 21.3236 0.518463 21.3203C0.519651 21.3136 0.521374 21.3046 0.523346 21.2939C0.527362 21.2723 0.532416 21.2421 0.539948 21.2051C0.555038 21.131 0.577666 21.0269 0.609283 20.8975C0.672485 20.6388 0.772561 20.2761 0.921783 19.8447C1.21929 18.9847 1.7193 17.8331 2.53116 16.6758C3.6488 15.0826 5.34875 13.4982 7.86124 12.6445C6.12662 11.3705 4.99991 9.31722 4.99991 7C4.99991 3.13403 8.13395 4.43257e-05 11.9999 0ZM19.2929 13.293C19.6834 12.9026 20.3164 12.9025 20.7069 13.293L22.7069 15.293C23.0971 15.6835 23.0972 16.3166 22.7069 16.707L17.7069 21.707C17.5195 21.8944 17.265 22 16.9999 22H14.9999C14.4478 21.9999 14 21.5521 13.9999 21V19C13.9999 18.7349 14.1055 18.4805 14.2929 18.293L19.2929 13.293ZM2.48819 21.667V21.668H2.48721V21.666L2.48819 21.667ZM15.9999 19.4141V20H16.5849L20.5849 16L19.9999 15.4141L15.9999 19.4141ZM11.9999 2C9.23852 2.00004 6.99991 4.2386 6.99991 7C6.99991 9.7614 9.23852 12 11.9999 12C14.7613 12 16.9999 9.76142 16.9999 7C16.9999 4.23858 14.7613 2 11.9999 2Z" fill="#252525"/>
</svg>
