<svg width="23" height="23" viewBox="0 0 23 23" fill="none" xmlns="http://www.w3.org/2000/svg">
<path d="M11.9996 0C15.8656 0 18.9996 3.13401 18.9996 7C18.9996 9.31812 17.8721 11.3716 16.1363 12.6455C16.3322 12.712 16.5238 12.7821 16.7106 12.8574C17.2225 13.0642 17.4698 13.6471 17.2633 14.1592C17.0565 14.671 16.4736 14.9184 15.9615 14.7119C14.8836 14.2772 13.5791 14 11.9986 14C7.84195 14.0001 5.50346 15.9215 4.16857 17.8242C3.48994 18.7917 3.06491 19.7654 2.81115 20.499C2.68488 20.8641 2.6027 21.166 2.55236 21.3721C2.52724 21.4749 2.50988 21.5541 2.49962 21.6045C2.49454 21.6294 2.49081 21.6478 2.48888 21.6582L2.48693 21.665C2.39529 22.2096 1.88014 22.5779 1.33556 22.4863C0.791292 22.3945 0.423835 21.8784 0.515247 21.334L1.50158 21.5C0.53107 21.3369 0.515398 21.3336 0.515247 21.333L0.516224 21.332C0.516359 21.3312 0.5161 21.3301 0.516224 21.3291C0.51662 21.3268 0.517586 21.3236 0.518177 21.3203C0.519363 21.3136 0.521092 21.3046 0.52306 21.2939C0.527074 21.2723 0.532137 21.242 0.539661 21.2051C0.55475 21.131 0.577389 21.0269 0.608997 20.8975C0.672194 20.6388 0.772293 20.2761 0.921497 19.8447C1.219 18.9847 1.71907 17.8331 2.53087 16.6758C3.6486 15.0825 5.34911 13.4982 7.86193 12.6445C6.12706 11.3705 4.99962 9.31741 4.99962 7C4.99962 3.13413 8.1338 0.00020358 11.9996 0ZM18.9996 14.5C19.5519 14.5 19.9996 14.9477 19.9996 15.5V17.5H21.9996C22.5519 17.5 22.9996 17.9477 22.9996 18.5C22.9996 19.0523 22.5519 19.5 21.9996 19.5H19.9996V21.5C19.9996 22.0523 19.5519 22.5 18.9996 22.5C18.4475 22.4998 17.9996 22.0522 17.9996 21.5V19.5H15.9996C15.4475 19.4998 14.9996 19.0522 14.9996 18.5C14.9996 17.9478 15.4475 17.5002 15.9996 17.5H17.9996V15.5C17.9996 14.9478 18.4475 14.5002 18.9996 14.5ZM2.4879 21.667V21.668H2.48693V21.666L2.4879 21.667ZM11.9996 2C9.23837 2.0002 6.99962 4.2387 6.99962 7C6.99962 9.7613 9.23837 11.9998 11.9996 12C14.761 12 16.9996 9.76142 16.9996 7C16.9996 4.23858 14.761 2 11.9996 2Z" fill="#252525"/>
</svg>
