<svg width="32" height="32" viewBox="0 0 32 32" fill="none" xmlns="http://www.w3.org/2000/svg">
<path d="M19.5566 1.66699C19.8732 1.66709 20.1718 1.81697 20.3604 2.07129L22.1387 4.47168C22.4276 4.8623 22.3937 5.40495 22.0586 5.75684L17.8555 10.1689C22.677 11.043 26.3348 15.2596 26.335 20.333C26.335 26.0398 21.7078 30.6668 16.001 30.667C10.2942 30.6668 5.66797 26.0398 5.66797 20.333C5.66812 15.2598 9.3244 11.0433 14.1455 10.1689L9.94336 5.75684C9.60822 5.40481 9.57498 4.86228 9.86426 4.47168L11.6426 2.07129L11.7178 1.98145C11.9054 1.78215 12.1682 1.66711 12.4453 1.66699H19.5566ZM16.001 12C11.3989 12.0002 7.66814 15.7309 7.66797 20.333C7.66797 24.9353 11.3988 28.6668 16.001 28.667C20.6032 28.6668 24.335 24.9353 24.335 20.333C24.3348 15.7309 20.6031 12.0002 16.001 12ZM11.9717 4.98535L16.001 9.2168L20.0293 4.98535L19.0527 3.66699H12.9492L11.9717 4.98535Z" fill="#252525"/>
</svg>
