<svg viewBox="0 0 22 22" fill="none" xmlns="http://www.w3.org/2000/svg">
  <path
    d="M11 2L13.0838 5.41389L16.8744 4.13814L16.2762 8.09268L20 9.55196L17.0001 12.197L18.9145 15.7083L14.9163 15.806L14.1256 19.7268L11 17.2315L7.87443 19.7268L7.08371 15.806L3.08546 15.7083L4.99989 12.197L2 9.55196L5.72375 8.09268L5.12557 4.13814L8.91618 5.41389L11 2Z"
    fill="#BD0000" stroke="#BD0000" stroke-width="2" stroke-miterlimit="10" stroke-linecap="square" />
  <path
    d="M9.49411 14.1513C9.40934 14.1513 9.32539 14.1347 9.24707 14.1022C9.16874 14.0698 9.09756 14.0223 9.0376 13.9624L6 10.9244L6.91257 10.0118L9.49411 12.5933L15.0874 7L16 7.91257L9.95061 13.9624C9.89065 14.0223 9.81947 14.0698 9.74115 14.1022C9.66282 14.1347 9.57887 14.1513 9.49411 14.1513Z"
    fill="white" />
</svg>
