<svg width="42" height="26" viewBox="0 0 42 26" fill="none" xmlns="http://www.w3.org/2000/svg">
<rect x="0.5" y="0.5" width="41" height="25" rx="1.5" fill="white" stroke="#DADCDF"/>
<g clip-path="url(#clip0_819_1483)">
<path d="M19.2668 16.8846H17.1606L18.478 9.14036H20.5841L19.2668 16.8846Z" fill="#00579F"/>
<path d="M26.9018 9.32968C26.4864 9.17299 25.8275 8.99998 25.0128 8.99998C22.9328 8.99998 21.4682 10.0545 21.4592 11.562C21.4419 12.6743 22.5078 13.2921 23.3051 13.663C24.1199 14.042 24.3969 14.2893 24.3969 14.6271C24.3886 15.1459 23.7385 15.3851 23.1321 15.3851C22.2912 15.3851 21.8406 15.2618 21.1559 14.9732L20.8786 14.8494L20.5839 16.5878C21.0778 16.8018 21.9879 16.9917 22.9328 17C25.1428 17 26.5815 15.9618 26.5986 14.3553C26.607 13.4737 26.0441 12.7982 24.8307 12.2462C24.094 11.8919 23.6429 11.6529 23.6429 11.2904C23.6515 10.9608 24.0244 10.6232 24.856 10.6232C25.5407 10.6067 26.0438 10.7631 26.4249 10.9197L26.6154 11.002L26.9018 9.32968Z" fill="#00579F"/>
<path d="M29.7012 14.1411C29.8747 13.6962 30.5421 11.9743 30.5421 11.9743C30.5334 11.9908 30.7152 11.5212 30.8192 11.2329L30.9664 11.9002C30.9664 11.9002 31.3653 13.7539 31.4519 14.1411C31.1227 14.1411 30.1172 14.1411 29.7012 14.1411ZM32.3011 9.14036H30.6719C30.1695 9.14036 29.7878 9.2803 29.5711 9.7829L26.4426 16.8845H28.6526C28.6526 16.8845 29.0164 15.9286 29.0946 15.7228C29.3371 15.7228 31.4869 15.7228 31.7988 15.7228C31.8592 15.9947 32.0501 16.8845 32.0501 16.8845H34.0002L32.3011 9.14036Z" fill="#00579F"/>
<path d="M15.394 9.14036L13.3313 14.4212L13.1059 13.3502C12.7246 12.1144 11.5286 10.7717 10.194 10.1041L12.0833 16.8764H14.3105L17.6211 9.14036H15.394Z" fill="#00579F"/>
<path d="M11.4234 9.14036H8.03479L8.00012 9.29684C10.6435 9.93949 12.3941 11.4886 13.1134 13.3505L12.3767 9.79133C12.2554 9.29673 11.8827 9.15668 11.4234 9.14036Z" fill="#FAA61A"/>
</g>
<defs>
<clipPath id="clip0_819_1483">
<rect width="26" height="8" fill="white" transform="translate(8.00012 9)"/>
</clipPath>
</defs>
</svg>
