<svg width="43" height="27" viewBox="0 0 43 27" fill="none" xmlns="http://www.w3.org/2000/svg">
<rect x="0.587891" y="0.729492" width="41" height="25" rx="1.5" fill="white" stroke="#DADCDF"/>
<g clip-path="url(#clip0)">
<path d="M19.3542 17.1141H17.248L18.5654 9.36987H20.6715L19.3542 17.1141Z" fill="#00579F"/>
<path d="M26.9899 9.55919C26.5744 9.4025 25.9155 9.22949 25.1008 9.22949C23.0208 9.22949 21.5562 10.284 21.5472 11.7916C21.5299 12.9038 22.5959 13.5216 23.3931 13.8925C24.2079 14.2715 24.4849 14.5188 24.4849 14.8567C24.4766 15.3755 23.8265 15.6146 23.2201 15.6146C22.3792 15.6146 21.9287 15.4913 21.2439 15.2027L20.9666 15.0789L20.6719 16.8173C21.1659 17.0313 22.076 17.2212 23.0208 17.2295C25.2308 17.2295 26.6696 16.1913 26.6866 14.5848C26.695 13.7032 26.1322 13.0277 24.9187 12.4757C24.182 12.1214 23.7309 11.8824 23.7309 11.5199C23.7395 11.1903 24.1125 10.8527 24.944 10.8527C25.6287 10.8362 26.1318 10.9926 26.5129 11.1492L26.7034 11.2315L26.9899 9.55919Z" fill="#00579F"/>
<path d="M29.7889 14.3706C29.9623 13.9257 30.6298 12.2038 30.6298 12.2038C30.621 12.2204 30.8029 11.7507 30.9069 11.4624L31.0541 12.1297C31.0541 12.1297 31.4529 13.9834 31.5395 14.3706C31.2104 14.3706 30.2049 14.3706 29.7889 14.3706ZM32.3887 9.36987H30.7596C30.2572 9.36987 29.8755 9.50981 29.6587 10.0124L26.5303 17.114H28.7402C28.7402 17.114 29.1041 16.1582 29.1823 15.9523C29.4247 15.9523 31.5745 15.9523 31.8864 15.9523C31.9469 16.2242 32.1377 17.114 32.1377 17.114H34.0879L32.3887 9.36987Z" fill="#00579F"/>
<path d="M15.4822 9.36987L13.4196 14.6507L13.1942 13.5797C12.8128 12.3439 11.6169 11.0012 10.2822 10.3336L12.1715 17.1059H14.3988L17.7093 9.36987H15.4822Z" fill="#00579F"/>
<path d="M11.5112 9.36987H8.12256L8.08789 9.52635C10.7312 10.169 12.4819 11.7181 13.2011 13.58L12.4645 10.0208C12.3432 9.52624 11.9705 9.38619 11.5112 9.36987Z" fill="#FAA61A"/>
</g>
<defs>
<clipPath id="clip0">
<rect width="26" height="8" fill="white" transform="translate(8.08789 9.22949)"/>
</clipPath>
</defs>
</svg>
