<svg width="40" height="20" viewBox="0 0 40 20" fill="none" xmlns="http://www.w3.org/2000/svg">
<path fill-rule="evenodd" clip-rule="evenodd" d="M34.0635 14.3482L34.8939 12.9358C34.923 12.8874 34.9512 12.8415 34.978 12.7978C35.1313 12.548 35.2412 12.369 35.2412 12.2015C35.2412 12.0334 35.1294 11.9769 34.9976 11.9103C34.808 11.8144 34.5769 11.6976 34.5769 11.1975C34.5769 10.5613 34.9688 10.1526 35.4379 10.1526C35.738 10.1526 36.0416 10.1874 36.3473 10.2225L36.3473 10.2225C36.657 10.258 36.9688 10.2938 37.281 10.2938C37.5924 10.2938 37.858 10.258 38.1219 10.2225C38.3827 10.1875 38.642 10.1526 38.9422 10.1526C39.6228 10.1526 40 10.6181 40 11.2255C40 11.6498 39.7276 12.1724 39.2146 12.1724C39.1089 12.1724 39.007 12.1547 38.9051 12.1371C38.803 12.1194 38.7009 12.1017 38.5949 12.1017C38.4289 12.1017 38.3082 12.1308 38.1875 12.2579C38.0635 12.3941 37.9318 12.585 37.8102 12.7612L37.8102 12.7612C37.7682 12.8221 37.7274 12.8812 37.6885 12.9358L35.8306 15.7045C35.4534 16.2699 35.3471 16.4819 35.3471 16.7218V17.5563C35.3471 17.8666 35.5435 18.0638 35.8605 18.0638C36.0138 18.0638 36.1629 18.0387 36.3101 18.0138C36.4535 17.9897 36.595 17.9658 36.7367 17.9658C37.2504 17.9658 37.5228 18.4881 37.5228 18.9123C37.5228 19.5194 37.1452 19.986 36.465 19.986C36.0964 19.986 35.7852 19.9522 35.4667 19.9176L35.4666 19.9176C35.1327 19.8813 34.7906 19.8441 34.3657 19.8441C33.9783 19.8441 33.5947 19.8799 33.213 19.9156L33.213 19.9156C32.8352 19.9509 32.4592 19.986 32.0834 19.986C30.9504 19.986 30.5732 19.5194 30.5732 18.9123C30.5732 18.4881 30.8444 17.9658 31.3593 17.9658C31.5103 17.9658 31.6575 17.9903 31.8047 18.0148C31.9517 18.0393 32.0988 18.0638 32.2495 18.0638C32.5064 18.0638 32.6721 17.923 32.6721 17.5419V16.9909C32.6586 16.5305 32.5612 16.3816 32.2202 15.8603L32.1738 15.7893L30.4226 13.0902C30.3991 13.0546 30.3705 13.01 30.3385 12.96L30.3382 12.9596L30.338 12.9593C30.2047 12.7514 30.0118 12.4504 29.8775 12.3136C29.7572 12.1864 29.6213 12.1304 29.4401 12.1304C29.3434 12.1304 29.2528 12.1392 29.1625 12.1487C29.1861 12.2841 29.1981 12.4244 29.1981 12.569C29.1981 13.6423 28.4423 14.392 27.4015 14.5472V14.5756C28.77 14.8999 29.5827 15.7193 29.5827 17.0616C29.5827 19.4213 27.4163 19.9867 25.734 19.9867C25.3797 19.9867 25.04 19.9577 24.6675 19.926L24.6675 19.926C24.2155 19.8875 23.7153 19.8448 23.0823 19.8448C22.6331 19.8448 22.2858 19.8852 21.962 19.9229H21.962C21.6792 19.9559 21.4143 19.9867 21.1151 19.9867C20.9638 19.9867 20.826 19.9793 20.7006 19.965C20.6112 19.9879 20.5156 20 20.4148 20C20.0973 20 19.8239 19.9654 19.5474 19.9304C19.2648 19.8946 18.979 19.8584 18.6396 19.8584C18.3095 19.8584 17.983 19.8942 17.6585 19.9298L17.6584 19.9298C17.3377 19.965 17.0189 20 16.7005 20C16.1188 20 15.7003 19.6045 15.7003 19.0815C15.7003 18.4733 16.014 18.1206 16.4318 18.1206C16.4647 18.1206 16.5006 18.1235 16.5406 18.1267C16.5913 18.1307 16.6487 18.1353 16.7152 18.1353C16.9234 18.1353 17.0585 18.0358 17.0585 17.8382C17.0585 17.7723 17.0452 17.7194 17.0319 17.6665C17.0252 17.6395 17.0184 17.6125 17.0134 17.5839C16.9835 17.4424 16.9234 17.1741 16.8492 17.0605C16.7599 16.9194 16.6108 16.9194 16.3871 16.9194L14.6864 16.9197C14.0454 16.905 13.9557 16.9758 13.8664 17.0885C13.7767 17.2164 13.6575 17.6827 13.6575 17.8382C13.6575 18.0225 13.7619 18.1066 13.9557 18.1066C14.0221 18.1066 14.0701 18.1109 14.1126 18.1148C14.1461 18.1179 14.1761 18.1206 14.2089 18.1206C14.5222 18.1206 14.94 18.3321 14.94 19.0815C14.94 19.6045 14.5222 20 13.9409 20C13.6233 20 13.3497 19.9654 13.0731 19.9304H13.0731H13.0731H13.073C12.7904 19.8946 12.5046 19.8584 12.1657 19.8584C11.8353 19.8584 11.509 19.8942 11.1846 19.9298L11.1846 19.9298C10.864 19.965 10.5452 20 10.2262 20C9.68533 20 9.28615 19.6335 9.23283 19.1274C8.43862 19.7866 7.25324 19.9867 6.24137 19.9867C5.88276 19.9867 5.53915 19.9578 5.16251 19.926C4.70575 19.8875 4.2004 19.8448 3.5608 19.8448C3.10646 19.8448 2.75508 19.8853 2.42751 19.923L2.42748 19.923C2.14146 19.9559 1.87358 19.9867 1.57114 19.9867C0.359845 19.9864 0 19.5201 0 18.9127C0 18.4888 0.259826 17.9654 0.749954 17.9654C0.856307 17.9654 0.958911 17.9895 1.06321 18.014C1.17101 18.0392 1.28062 18.0649 1.39804 18.0649C1.67189 18.0649 1.759 17.7819 1.759 16.9201V13.2188C1.759 12.3 1.67189 12.0736 1.39804 12.0736C1.28085 12.0736 1.17128 12.0992 1.06347 12.1244L1.06346 12.1244C0.959074 12.1488 0.856345 12.1728 0.749954 12.1728C0.259826 12.1724 0 11.6501 0 11.2259C0 10.6189 0.359845 10.1526 1.62871 10.1526C1.95338 10.1526 2.25718 10.1865 2.56733 10.2211H2.56734C2.89076 10.2573 3.22109 10.2941 3.58922 10.2941C4.29105 10.2941 4.85725 10.2498 5.35609 10.2108H5.3561H5.35611H5.35612H5.35614H5.35615H5.35616L5.35619 10.2108L5.35622 10.2108C5.74898 10.1801 6.09997 10.1526 6.44252 10.1526C7.19284 10.1526 7.89887 10.2374 8.51892 10.5617C9.29692 10.972 9.74423 11.6925 9.74423 12.569C9.74423 13.6423 8.97952 14.392 7.92766 14.5472V14.5756C9.31168 14.8999 10.1329 15.7193 10.1329 17.0617C10.1329 17.4045 10.0866 17.7095 10.0023 17.9804C10.0676 17.9823 10.1332 17.9877 10.2 17.9933L10.2 17.9933C10.2857 18.0005 10.3733 18.0078 10.4646 18.0078C10.8707 18.0078 11.0472 17.4859 11.1647 17.1386C11.1811 17.0901 11.1963 17.045 11.2109 17.0052L13.2541 11.6921C13.5885 10.8278 13.7806 10.4457 14.2412 10.2788C13.4838 10.1703 12.7389 9.75567 12.7389 8.93553C12.7389 8.40109 13.1807 7.9986 13.7354 7.9986C14.1653 7.9986 14.5171 8.33585 14.5171 8.75013C14.5171 8.8013 14.5067 8.8528 14.4963 8.9043L14.4963 8.90432C14.4913 8.92923 14.4862 8.95415 14.4824 8.97902C14.5732 9.03321 14.6411 9.06564 14.754 9.06564C15.1504 9.06564 15.6601 8.46669 15.6601 8.10733C15.6601 7.84563 15.3431 7.10478 15.2183 6.83203L14.0753 4.22763C13.883 3.76985 13.8262 3.67218 13.6675 3.67218C13.6223 3.67218 13.58 3.67759 13.5375 3.68302C13.4949 3.68847 13.4522 3.69393 13.4065 3.69393C13.033 3.69393 12.909 3.3998 12.909 3.0725C12.909 2.65858 13.1009 2.32059 13.577 2.32059C13.7415 2.32059 13.9167 2.34628 14.0973 2.37277C14.2895 2.40096 14.4878 2.43006 14.6861 2.43006C14.8875 2.43006 15.0858 2.40341 15.2868 2.37641C15.4932 2.34868 15.7023 2.32059 15.9203 2.32059C16.3621 2.32059 16.5772 2.57196 16.5772 2.97482C16.5772 3.33382 16.396 3.41085 16.2152 3.46504C16.1858 3.47201 16.1561 3.47786 16.1271 3.48359C15.9764 3.5133 15.8413 3.53994 15.8413 3.70461C15.8413 3.78332 15.8882 3.92438 15.9231 4.02965C15.9367 4.07031 15.9484 4.10562 15.955 4.12996L16.6909 6.33076H16.713L17.449 4.22763C17.5054 4.0861 17.5962 3.83583 17.5962 3.69393C17.5962 3.60422 17.5082 3.56957 17.3975 3.52602C17.36 3.51124 17.3198 3.49543 17.2796 3.47609C17.1209 3.41085 16.9511 3.2907 16.9511 2.96377C16.9511 2.62614 17.1777 2.32059 17.5398 2.32059C17.6945 2.32059 17.857 2.3466 18.0236 2.37326C18.1988 2.4013 18.3785 2.43006 18.5584 2.43006C18.7496 2.43006 18.9379 2.40309 19.1275 2.37592C19.3199 2.34836 19.5138 2.32059 19.7136 2.32059C19.9669 2.32059 20.1398 2.41667 20.2462 2.56911V2.08175C20.2462 1.53699 20.224 1.30773 20.0417 1.30773C19.9888 1.30773 19.9361 1.32443 19.8799 1.34223C19.8156 1.36259 19.7468 1.38439 19.6678 1.38439C19.2951 1.38439 19.1707 1.09027 19.1707 0.762966C19.1707 0.33799 19.3626 0 19.838 0C19.9845 0 20.1335 0.0269479 20.2837 0.0541031C20.4362 0.0816794 20.5899 0.10947 20.7433 0.10947C20.9152 0.10947 21.0841 0.0816802 21.2513 0.0541517C21.4154 0.0271349 21.578 0.000369268 21.7405 0.000369268C22.0118 0.000369268 22.1144 0.16402 22.1144 0.588626V2.46287H22.1373C22.4875 1.98371 23.0423 1.73307 23.6996 1.73307C24.585 1.73307 25.1597 2.20255 25.5001 2.84463C25.5641 2.54139 25.7721 2.3206 26.2026 2.3206C26.3821 2.3206 26.545 2.34751 26.7091 2.37465C26.8761 2.40225 27.0444 2.43007 27.233 2.43007C27.4177 2.43007 27.5522 2.3997 27.6795 2.37095C27.7939 2.34512 27.9025 2.3206 28.0365 2.3206C28.331 2.3206 28.331 2.52811 28.331 2.81118V5.52468C28.331 5.75357 28.331 6.13505 28.4676 6.35252C28.5377 6.45596 28.632 6.54081 28.7422 6.59976C28.8525 6.65871 28.9755 6.68998 29.1005 6.69088C29.4294 6.69088 29.735 6.52686 29.9162 6.25521C30.1539 5.90653 30.1768 5.53574 30.1768 5.13214V4.3806C30.1768 3.79235 30.131 3.61764 29.9727 3.61764C29.9354 3.61764 29.8982 3.62725 29.861 3.63687C29.8417 3.64183 29.8225 3.6468 29.8033 3.65044L29.7827 3.65718C29.7231 3.67677 29.6697 3.6943 29.5992 3.6943C29.2264 3.6943 29.1005 3.40017 29.1005 3.07324C29.1005 2.65896 29.2932 2.3206 29.7922 2.3206C29.9788 2.3206 30.1343 2.34797 30.2899 2.37533C30.4454 2.4027 30.601 2.43007 30.7876 2.43007C30.9438 2.43007 31.0764 2.40159 31.2064 2.37369C31.3312 2.34688 31.4536 2.3206 31.5921 2.3206C31.8859 2.3206 31.9538 2.44112 31.9538 2.6807V5.94929C31.9538 6.60352 32.0336 6.71262 32.1579 6.71262C32.2108 6.71262 32.2637 6.69598 32.32 6.67825C32.3843 6.658 32.4531 6.63632 32.5318 6.63632C32.906 6.63632 33.0293 6.93045 33.0293 7.25702C33.0293 7.6713 32.8374 8.00892 32.362 8.00892C32.2172 8.00892 32.0785 7.98055 31.9428 7.95279C31.8128 7.92621 31.6857 7.90019 31.5586 7.90019C31.4294 7.90019 31.3 7.9294 31.1753 7.95754C31.0595 7.9837 30.9477 8.00892 30.844 8.00892C30.5621 8.00892 30.4373 7.8239 30.4373 7.64956V7.21389H30.4144C29.9955 7.81321 29.1806 8.1512 28.4218 8.1512C27.2556 8.1512 26.5532 7.49696 26.5532 6.39675V4.3806C26.5532 3.71605 26.4742 3.61764 26.3491 3.61764C26.3127 3.61764 26.2754 3.62722 26.2381 3.63682C26.2188 3.6418 26.1994 3.64679 26.1801 3.65044L26.1585 3.65753C26.0994 3.67698 26.0468 3.6943 25.976 3.6943C25.9089 3.6943 25.8499 3.68484 25.7982 3.66743C25.8727 3.99395 25.9066 4.3315 25.9066 4.65372C25.9066 6.14647 25.1825 7.72622 23.4161 7.72622C22.6691 7.72622 21.99 7.46452 21.5933 6.72367L21.5711 6.74579L21.6047 7.0178C21.6047 7.36685 21.2991 7.53013 20.971 7.53013C20.3702 7.53013 20.2462 7.25738 20.2462 6.73436V3.54103C20.1677 3.6352 20.0506 3.69393 19.8837 3.69393C19.8326 3.69393 19.7815 3.68303 19.7305 3.67215C19.6796 3.66129 19.6287 3.65043 19.5778 3.65043C19.4534 3.65043 19.3512 3.72673 19.1814 4.17345L18.1967 6.76679C17.7063 8.06388 16.9724 9.65578 15.5777 10.1526L15.5962 10.1526C16.2974 10.1526 16.8939 10.1526 17.2068 10.307C17.5955 10.5057 17.6553 10.6749 17.849 11.325L19.6685 17.104L19.6904 17.1711C19.8427 17.6376 19.9334 17.9156 20.1338 17.9885C20.1866 17.9737 20.2429 17.9658 20.3028 17.9658C20.3737 17.9658 20.4429 17.9767 20.5121 17.9913C20.577 17.9852 20.6391 17.9798 20.6982 17.9798C20.8055 17.9798 20.914 18.0038 21.0134 18.058C21.2293 18.0088 21.3 17.7035 21.3 16.9205V13.2188C21.3 12.2999 21.2144 12.0736 20.9438 12.0736C20.828 12.0736 20.7197 12.0992 20.6131 12.1244C20.5098 12.1488 20.4081 12.1728 20.3028 12.1728C19.8174 12.1728 19.5609 11.6501 19.5609 11.2259C19.5609 10.6188 19.9178 10.1526 21.1719 10.1526C21.4933 10.1526 21.794 10.1865 22.1009 10.2212C22.4208 10.2572 22.7473 10.2941 23.111 10.2941C23.8048 10.2941 24.3644 10.2498 24.8577 10.2108L24.8577 10.2108C25.2464 10.1801 25.5939 10.1526 25.9333 10.1526C26.6752 10.1526 27.3727 10.2373 27.9861 10.5617C28.0522 10.5969 28.1159 10.6345 28.1771 10.6742C28.3457 10.3582 28.6812 10.1526 29.1832 10.1526C29.4835 10.1526 29.7877 10.1875 30.0936 10.2226C30.4032 10.2581 30.7145 10.2938 31.0257 10.2938C31.3003 10.2938 31.56 10.2598 31.8246 10.2252C32.0995 10.1892 32.3797 10.1526 32.6876 10.1526C32.7513 10.1526 32.8118 10.1569 32.869 10.1651C32.3059 9.97292 31.8473 9.57904 31.8473 8.93554C31.8473 8.4011 32.289 7.9986 32.8438 7.9986C33.2734 7.9986 33.6251 8.33586 33.6251 8.75014C33.6251 8.80076 33.6149 8.8517 33.6047 8.90265C33.5997 8.92812 33.5946 8.9536 33.5908 8.97903C33.6816 9.03321 33.7495 9.06565 33.862 9.06565C34.2591 9.06565 34.7677 8.4667 34.7677 8.10734C34.7677 7.84564 34.4507 7.10479 34.3267 6.83204L33.1833 4.22764C32.9914 3.76986 32.9342 3.67219 32.7758 3.67219C32.7305 3.67219 32.6882 3.6776 32.6457 3.68303C32.6031 3.68848 32.5604 3.69393 32.5145 3.69393C32.141 3.69393 32.017 3.39981 32.017 3.07251C32.017 2.65859 32.2093 2.3206 32.6851 2.3206C32.8498 2.3206 33.025 2.3463 33.2056 2.3728C33.3977 2.40098 33.5959 2.43007 33.7941 2.43007C33.9958 2.43007 34.1945 2.40338 34.3956 2.37636C34.6019 2.34866 34.8108 2.3206 35.0283 2.3206C35.4701 2.3206 35.6852 2.57197 35.6852 2.97483C35.6852 3.33383 35.5044 3.41086 35.3228 3.46504C35.2935 3.47204 35.2639 3.4779 35.2348 3.48364C35.0847 3.51334 34.9497 3.54003 34.9497 3.70462C34.9497 3.78146 34.9947 3.91771 35.0292 4.0221C35.0437 4.06592 35.0563 4.10413 35.063 4.12997L35.7989 6.33077H35.8211L36.557 4.22764C36.6131 4.08611 36.7046 3.83584 36.7046 3.69393C36.7046 3.60437 36.6164 3.56969 36.506 3.52624C36.4682 3.51139 36.4279 3.49553 36.3876 3.4761C36.2293 3.41086 36.0591 3.29071 36.0591 2.96377C36.0591 2.62615 36.2857 2.3206 36.6481 2.3206C36.8027 2.3206 36.965 2.34656 37.1315 2.3732C37.3069 2.40126 37.4869 2.43007 37.6675 2.43007C37.8579 2.43007 38.0457 2.40315 38.2352 2.37601C38.4278 2.34842 38.622 2.3206 38.822 2.3206C39.2973 2.3206 39.4893 2.65859 39.4893 3.07251C39.4893 3.39981 39.3653 3.69393 38.9918 3.69393C38.9408 3.69393 38.8898 3.68306 38.8388 3.67219C38.7878 3.66131 38.7367 3.65044 38.6858 3.65044C38.5614 3.65044 38.4596 3.72674 38.2898 4.17346L37.304 6.7668C36.7161 8.3248 35.7757 10.3081 33.7598 10.3081C33.5541 10.3081 33.3388 10.2857 33.1301 10.2386C33.513 10.4083 33.6852 10.8101 33.6852 11.2683C33.6852 11.7147 33.4419 11.8272 33.2401 11.9204C33.0972 11.9865 32.9751 12.0429 32.9751 12.2015C32.9751 12.3563 33.081 12.5539 33.2925 12.9358L34.0635 14.3482ZM1.14523 2.08175C1.14523 1.53699 1.12309 1.30773 0.941134 1.30773C0.888442 1.30773 0.83575 1.32442 0.779534 1.34222C0.715262 1.36258 0.646383 1.38439 0.567633 1.38439C0.194132 1.38439 0.0701242 1.09027 0.0701242 0.762966C0.0701242 0.33799 0.262042 0 0.737406 0C0.883307 0 1.03202 0.0268647 1.1821 0.0539773C1.33497 0.0815948 1.48927 0.10947 1.64348 0.10947C1.81489 0.10947 1.9833 0.0817256 2.15027 0.0542191C2.3144 0.0271794 2.47714 0.000369268 2.63997 0.000369268C2.91124 0.000369268 3.01347 0.16402 3.01347 0.588626V2.46287H3.03635C3.38697 1.98371 3.94206 1.73307 4.59864 1.73307C5.47944 1.73307 6.05304 2.19769 6.39422 2.83465C6.46069 2.53654 6.66874 2.32059 7.09421 2.32059C7.27407 2.32059 7.43701 2.34754 7.60118 2.3747C7.76784 2.40227 7.93577 2.43005 8.12392 2.43005C8.30908 2.43005 8.44381 2.39965 8.57127 2.37089C8.68568 2.34508 8.79423 2.32059 8.92813 2.32059C9.22339 2.32059 9.22339 2.5281 9.22339 2.81117L9.22302 5.52467C9.22302 5.75356 9.22302 6.13504 9.35847 6.3525C9.42876 6.45594 9.52316 6.54077 9.63355 6.59971C9.74393 6.65865 9.867 6.68993 9.99217 6.69086C10.3206 6.69086 10.6266 6.52684 10.8078 6.2552C11.0451 5.90652 11.0684 5.53573 11.0684 5.13213V4.38059C11.0684 3.79233 11.023 3.61763 10.8647 3.61763C10.8274 3.61763 10.7899 3.62727 10.7525 3.63689L10.7525 3.6369C10.7333 3.64185 10.7141 3.6468 10.6949 3.65043L10.6738 3.65734C10.6145 3.67686 10.5615 3.69429 10.4908 3.69429C10.1173 3.69429 9.99254 3.40016 9.99254 3.07323C9.99254 2.65894 10.1848 2.32059 10.6827 2.32059C10.8694 2.32059 11.0252 2.34795 11.1809 2.37532C11.3367 2.40269 11.4924 2.43005 11.6792 2.43005C11.8354 2.43005 11.968 2.40158 12.0978 2.37367C12.2226 2.34687 12.3449 2.32059 12.4834 2.32059C12.7779 2.32059 12.8458 2.44111 12.8458 2.68069V5.94928C12.8458 6.60351 12.9252 6.71261 13.0499 6.71261C13.1024 6.71261 13.155 6.69603 13.2112 6.67833C13.2756 6.65806 13.3446 6.63631 13.4234 6.63631C13.7969 6.63631 13.9213 6.93044 13.9213 7.257C13.9213 7.67129 13.7294 8.00891 13.2537 8.00891C13.1089 8.00891 12.9702 7.98055 12.8345 7.9528C12.7044 7.92621 12.5771 7.90018 12.4498 7.90018C12.3208 7.90018 12.1918 7.92934 12.0674 7.95746C11.9516 7.98364 11.8398 8.00891 11.7357 8.00891C11.4537 8.00891 11.3289 7.82388 11.3289 7.64954V7.21388H11.3057C10.8868 7.81319 10.0723 8.15118 9.31344 8.15118C8.14718 8.15118 7.4452 7.49695 7.4452 6.39673V4.38059C7.4452 3.71604 7.36548 3.61763 7.24111 3.61763C7.20423 3.61763 7.16703 3.62718 7.12972 3.63677C7.11028 3.64176 7.0908 3.64677 7.07133 3.65043L7.04955 3.65757C6.99058 3.67699 6.93808 3.69429 6.86797 3.69429C6.80449 3.69429 6.74821 3.68581 6.6985 3.67013C6.77268 3.99581 6.80642 4.33238 6.80642 4.65372C6.80642 6.14647 6.0823 7.72622 4.31556 7.72622C3.56819 7.72622 2.88873 7.46452 2.49234 6.72367L2.4702 6.74579L2.50415 7.0178C2.50415 7.36685 2.19819 7.53013 1.87009 7.53013C1.26961 7.53013 1.14523 7.25738 1.14523 6.73436V2.08175ZM4.93818 4.75139C4.93818 4.38097 4.9046 3.97737 4.71194 3.66186C4.56431 3.42192 4.31556 3.20408 4.02104 3.20408C3.59107 3.20408 3.01347 3.60731 3.01347 4.77351C3.01347 5.81917 3.44344 6.25521 4.00997 6.25521C4.55324 6.25521 4.93818 5.78637 4.93818 4.75139ZM14.6663 14.8015L14.6663 14.8015C14.6538 14.8332 14.6418 14.8634 14.6418 14.8992C14.6418 15.0127 14.8208 15.0827 15.2087 15.0827H15.611C16.1487 15.0827 16.2675 15.0267 16.2675 14.8855C16.2675 14.7864 16.2233 14.6025 16.193 14.5033L15.5814 11.8901H15.5515L14.6864 14.744C14.681 14.7645 14.6736 14.7832 14.6664 14.8014L14.6664 14.8015L14.6664 14.8015L14.6664 14.8015L14.6663 14.8015L14.6663 14.8015ZM4.42554 13.5719C4.42554 13.911 4.5263 13.911 5.11681 13.911C6.32774 13.911 7.00572 13.5999 7.00572 12.879C7.00572 12.1308 6.05425 11.9469 5.44824 11.9469C4.49714 11.9469 4.42554 12.1311 4.42554 12.8082V13.5719ZM4.42554 17.288C4.42554 17.8807 4.72781 18.1073 5.86676 18.1073C6.58719 18.1073 7.36593 17.7535 7.36593 16.9765C7.36593 16.0304 6.28455 15.6769 5.15999 15.6769C4.45396 15.6769 4.42554 15.6916 4.42554 16.284V17.288ZM24.622 13.911C24.0378 13.911 23.9381 13.911 23.9381 13.5719V12.8082C23.9381 12.1311 24.009 11.9468 24.9498 11.9468C25.5484 11.9468 26.4895 12.1308 26.4895 12.879C26.4895 13.5999 25.8197 13.911 24.622 13.911ZM25.3635 18.1073C24.2371 18.1073 23.9381 17.8806 23.9381 17.288V16.2839C23.9381 15.6916 23.9662 15.6769 24.6645 15.6769C25.7768 15.6769 26.8457 16.0303 26.8457 16.9765C26.8457 17.7535 26.0758 18.1073 25.3635 18.1073ZM23.8132 3.66186C24.0052 3.97737 24.0384 4.38097 24.0384 4.75139C24.0384 5.78637 23.6534 6.25521 23.1109 6.25521C22.5444 6.25521 22.1144 5.81917 22.1144 4.77351C22.1144 3.60731 22.6916 3.20408 23.1212 3.20408C23.4161 3.20408 23.6653 3.42192 23.8132 3.66186Z" fill="white"/>
<path d="M38.4943 19.3303V18.6502H38.8393C38.867 18.6502 38.8972 18.6582 38.9298 18.6742C38.9624 18.6895 38.99 18.7135 39.0128 18.7461C39.0362 18.778 39.0479 18.8186 39.0479 18.8677C39.0479 18.9175 39.0359 18.9598 39.0119 18.9949C38.9879 19.0293 38.9587 19.0554 38.9242 19.0732C38.8904 19.091 38.8584 19.0999 38.8283 19.0999H38.5791V18.9893H38.7821C38.8024 18.9893 38.8243 18.9792 38.8476 18.9589C38.8716 18.9386 38.8836 18.9082 38.8836 18.8677C38.8836 18.8259 38.8716 18.7977 38.8476 18.7829C38.8243 18.7682 38.8037 18.7608 38.7858 18.7608H38.6437V19.3303H38.4943ZM38.9058 19.0096L39.0755 19.3303H38.9113L38.7452 19.0096H38.9058ZM38.7526 19.7357C38.6505 19.7357 38.5548 19.7167 38.4657 19.6786C38.3765 19.6405 38.298 19.5877 38.2304 19.5201C38.1627 19.4525 38.1098 19.3742 38.0717 19.2851C38.0335 19.196 38.0145 19.1005 38.0145 18.9985C38.0145 18.8966 38.0335 18.801 38.0717 18.712C38.1098 18.6229 38.1627 18.5446 38.2304 18.477C38.298 18.4094 38.3765 18.3566 38.4657 18.3185C38.5548 18.2804 38.6505 18.2614 38.7526 18.2614C38.8547 18.2614 38.9504 18.2804 39.0396 18.3185C39.1288 18.3566 39.2072 18.4094 39.2748 18.477C39.3425 18.5446 39.3954 18.6229 39.4335 18.712C39.4717 18.801 39.4908 18.8966 39.4908 18.9985C39.4908 19.1005 39.4717 19.196 39.4335 19.2851C39.3954 19.3742 39.3425 19.4525 39.2748 19.5201C39.2072 19.5877 39.1288 19.6405 39.0396 19.6786C38.9504 19.7167 38.8547 19.7357 38.7526 19.7357ZM38.7526 19.5588C38.8559 19.5588 38.9501 19.5336 39.0349 19.4832C39.1198 19.4329 39.1875 19.3653 39.2379 19.2805C39.2884 19.1957 39.3136 19.1017 39.3136 18.9985C39.3136 18.8953 39.2884 18.8013 39.2379 18.7166C39.1875 18.6318 39.1198 18.5642 39.0349 18.5139C38.9501 18.4635 38.8559 18.4383 38.7526 18.4383C38.6493 18.4383 38.5552 18.4635 38.4703 18.5139C38.3854 18.5642 38.3177 18.6318 38.2673 18.7166C38.2168 18.8013 38.1916 18.8953 38.1916 18.9985C38.1916 19.1017 38.2168 19.1957 38.2673 19.2805C38.3177 19.3653 38.3854 19.4329 38.4703 19.4832C38.5552 19.5336 38.6493 19.5588 38.7526 19.5588Z" fill="white"/>
</svg>
