<svg width="55" height="20" viewBox="0 0 55 20" fill="none" xmlns="http://www.w3.org/2000/svg">
<path fill-rule="evenodd" clip-rule="evenodd" d="M26.8874 8.45154L28.0253 5.71547H31.5972L32.7436 8.45154H33.4774L29.8155 0L26.1537 8.45154H26.8874ZM29.8189 1.47635L31.3491 5.11226H28.298L29.8189 1.47635Z" fill="white"/>
<path fill-rule="evenodd" clip-rule="evenodd" d="M3.84631 4.03261C3.76713 4.01053 3.68732 3.99126 3.60697 3.97475C3.73068 3.94542 3.84896 3.9092 3.96181 3.86598C4.31848 3.73267 4.59703 3.52938 4.79744 3.26277C4.99786 2.99617 5.09976 2.66624 5.09976 2.26966C5.09976 1.83642 5.00126 1.47315 4.80424 1.18321C4.60722 0.893284 4.32868 0.673336 3.9686 0.526704C3.60853 0.380061 3.18053 0.306734 2.68118 0.306734H0.880823V8.44503H2.80008C3.33678 8.44503 3.81235 8.35837 4.22676 8.18841C4.64118 8.01844 4.96729 7.75849 5.20507 7.40857C5.44285 7.05864 5.56174 6.61541 5.56174 6.08219C5.56174 5.71226 5.48361 5.389 5.33075 5.1124C5.17789 4.83913 4.97407 4.61249 4.71591 4.43253C4.46115 4.2559 4.16902 4.12259 3.84631 4.03261ZM1.53643 7.87848V4.27257H2.80347C3.0854 4.27257 3.35376 4.31255 3.60173 4.38921C3.84971 4.46586 4.07391 4.58251 4.27092 4.73247C4.46794 4.88244 4.62081 5.06906 4.73291 5.28902C4.845 5.5123 4.89935 5.76558 4.89935 6.05218C4.89935 6.45543 4.81104 6.79204 4.63779 7.05864C4.46455 7.32526 4.21998 7.52855 3.90406 7.66851C3.58816 7.80849 3.22128 7.87848 2.80347 7.87848H1.53643ZM2.68458 3.70602H1.53643V0.879955H2.68458C3.22468 0.879955 3.65269 1.0066 3.97199 1.25655C4.29131 1.50983 4.45095 1.85974 4.45095 2.30964C4.45095 2.62958 4.36944 2.88952 4.21318 3.09614C4.05692 3.30276 3.84292 3.45606 3.57456 3.55605C3.30621 3.65602 3.00728 3.70602 2.68458 3.70602Z" fill="white"/>
<path d="M44.4628 10.462V20L38.2601 14.9277V19.5468H35.8007V10.0088L42.0034 15.081V10.462H44.4628Z" fill="white"/>
<path fill-rule="evenodd" clip-rule="evenodd" d="M26.2222 11.5456C25.7636 11.9655 25.407 12.4687 25.1454 13.0519H25.1386C24.8771 13.6352 24.748 14.295 24.748 15.0049C24.748 15.7147 24.8703 16.3679 25.1182 16.9645C25.3662 17.561 25.7161 18.0775 26.1713 18.5141C26.6265 18.9507 27.1598 19.2906 27.778 19.5272C28.3962 19.7639 29.0722 19.8838 29.8161 19.8838C30.5601 19.8838 31.2394 19.7672 31.8611 19.5272C32.4827 19.2873 33.0194 18.9507 33.4678 18.5141C33.9196 18.0775 34.2661 17.561 34.514 16.9645C34.762 16.3679 34.8843 15.7214 34.8843 15.0049C34.8843 14.2883 34.7586 13.6352 34.5072 13.0519C34.2559 12.4654 33.9026 11.9655 33.444 11.5456C32.9854 11.1257 32.4487 10.8024 31.8373 10.5725C31.2225 10.3425 30.5329 10.2292 29.8195 10.2292C29.1062 10.2292 28.4404 10.3425 27.829 10.5725C27.2175 10.8024 26.6808 11.1257 26.2222 11.5456ZM28.5763 17.1777C28.2264 16.9644 27.9512 16.6712 27.7576 16.2946H27.7542C27.5606 15.9213 27.4621 15.4981 27.4621 15.0049C27.4621 14.5116 27.5606 14.0817 27.7542 13.7085C27.9478 13.3352 28.2196 13.0453 28.5729 12.832C28.9262 12.622 29.3406 12.5154 29.8161 12.5154C30.3189 12.5154 30.7435 12.6187 31.0934 12.832C31.4432 13.0453 31.7082 13.3352 31.895 13.7085C32.0819 14.0784 32.1736 14.5216 32.1736 15.0049C32.1736 15.4881 32.0751 15.918 31.8815 16.2946C31.6878 16.6712 31.4161 16.9644 31.0696 17.1777C30.7197 17.3877 30.2951 17.4943 29.8195 17.4943C29.344 17.4943 28.9295 17.391 28.5763 17.1777Z" fill="white"/>
<path fill-rule="evenodd" clip-rule="evenodd" d="M6.67744 14.6901C6.90742 14.7742 7.12435 14.876 7.3282 14.9948C7.68827 15.2081 7.97699 15.4781 8.19439 15.8113C8.4118 16.1446 8.51711 16.5445 8.51711 17.0111C8.51711 17.6176 8.36764 18.1042 8.06872 18.4774C7.76979 18.8507 7.34178 19.1206 6.78469 19.2873C6.2276 19.4572 5.56181 19.5405 4.78732 19.5405H0.833344V10.4558H4.54955C5.21194 10.4558 5.79959 10.5424 6.31592 10.7157C6.83225 10.889 7.23987 11.1457 7.5388 11.4889C7.83773 11.8322 7.98719 12.2621 7.98719 12.7786C7.98719 13.2952 7.83773 13.6951 7.5388 14.045C7.31345 14.3088 7.02633 14.5234 6.67744 14.6901ZM3.40479 15.7547V17.6276H4.47482C4.72958 17.6276 4.96056 17.6009 5.16778 17.551C5.37499 17.4976 5.54144 17.401 5.66373 17.2577C5.78601 17.1144 5.85054 16.9111 5.85054 16.6411C5.85054 16.4678 5.81657 16.3246 5.74524 16.2112C5.67391 16.0979 5.5754 16.0079 5.44631 15.938C5.31724 15.868 5.17118 15.8213 5.00812 15.7947C4.84508 15.768 4.66503 15.7547 4.47141 15.7547H3.40479ZM4.24043 14.0584H3.40479V12.3854H4.23703C4.5903 12.3854 4.85865 12.4487 5.04548 12.5787C5.23231 12.7086 5.32404 12.9119 5.32404 13.1885C5.32404 13.3685 5.28327 13.5251 5.19835 13.6551C5.11342 13.7851 4.99454 13.8851 4.83488 13.955C4.67862 14.025 4.4782 14.0584 4.24043 14.0584Z" fill="white"/>
<path d="M12.0328 13.8379V12.4982H15.9867V10.462H9.57342V19.5467H12.0328V19.5434H15.9867V17.5071H12.0328V15.8108H15.7218V13.8379H12.0328Z" fill="white"/>
<path d="M25.4947 10.462L22.2133 15.9108V19.5434H19.5943V15.9375L16.2993 10.462H19.2614L20.9021 13.6413L22.5292 10.462H25.4947Z" fill="white"/>
<path fill-rule="evenodd" clip-rule="evenodd" d="M48.5635 10.4686V10.462H45.9037V19.5467H47.6497V19.5533H49.3686C50.4182 19.5533 51.3184 19.3667 52.0725 19.0001C52.8266 18.6336 53.4075 18.1103 53.8185 17.4305C54.2295 16.7506 54.4333 15.9541 54.4333 15.011C54.4333 14.0678 54.2295 13.258 53.8185 12.5848C53.4075 11.9116 52.8266 11.3884 52.0725 11.0218C51.3184 10.6519 50.4182 10.4686 49.3686 10.4686H48.5635ZM48.5635 12.6748V17.3405H49.2633C49.5724 17.3405 49.8747 17.3072 50.1702 17.2438C50.4658 17.1772 50.7307 17.0639 50.9719 16.8939C51.2097 16.7239 51.4033 16.4873 51.546 16.1807C51.692 15.8741 51.7634 15.4809 51.7634 15.0077C51.7634 14.5344 51.692 14.1412 51.546 13.8346C51.3999 13.528 51.2097 13.288 50.9719 13.1214C50.7341 12.9514 50.4658 12.8348 50.1702 12.7715C49.8747 12.7081 49.5724 12.6748 49.2633 12.6748H48.5635Z" fill="white"/>
<path d="M7.1415 3.68243V0.913023H10.9494V0.30982H6.48929V8.44809H10.9494V7.84489H7.1415V4.28565H10.7116V3.68243H7.1415Z" fill="white"/>
<path fill-rule="evenodd" clip-rule="evenodd" d="M12.7598 8.44834V8.44503H14.3597C15.1648 8.44503 15.8747 8.27172 16.4862 7.9318C17.0976 7.59186 17.5766 7.11529 17.9196 6.50875C18.2627 5.90222 18.436 5.18904 18.436 4.37589C18.436 3.56272 18.2627 2.85286 17.9196 2.24299C17.5766 1.63645 17.0976 1.1599 16.4862 0.819968C15.8747 0.476712 15.1648 0.306734 14.3597 0.306734H12.4642V0.31007H12.1076V8.44834H12.7598ZM12.7598 7.80849V0.946612H14.3597C14.8726 0.946612 15.3414 1.02659 15.7626 1.18989C16.1838 1.35319 16.5473 1.58648 16.8462 1.88308C17.1452 2.18302 17.3761 2.54294 17.5392 2.96619C17.7022 3.38943 17.7838 3.85933 17.7838 4.37922C17.7838 4.8991 17.7022 5.369 17.5392 5.79225C17.3761 6.21216 17.1452 6.57541 16.8462 6.87202C16.5473 7.17196 16.1838 7.40191 15.7626 7.5652C15.3414 7.72851 14.8726 7.80849 14.3597 7.80849H12.7598Z" fill="white"/>
<path fill-rule="evenodd" clip-rule="evenodd" d="M24.335 3.97475C24.4154 3.99126 24.4952 4.01053 24.5743 4.03261C24.897 4.12259 25.1892 4.2559 25.4439 4.43253C25.7021 4.61249 25.9059 4.83913 26.0588 5.1124C26.2116 5.389 26.2898 5.71226 26.2898 6.08219C26.2898 6.61541 26.1709 7.05864 25.9331 7.40857C25.6953 7.75849 25.3692 8.01844 24.9548 8.18841C24.5404 8.35837 24.0648 8.44503 23.5281 8.44503H21.6089V0.306734H23.4092C23.9085 0.306734 24.3366 0.380061 24.6966 0.526704C25.0567 0.673336 25.3352 0.893284 25.5323 1.18321C25.7293 1.47315 25.8278 1.83642 25.8278 2.26966C25.8278 2.66624 25.7259 2.99617 25.5255 3.26277C25.3251 3.52938 25.0465 3.73267 24.6898 3.86598C24.577 3.9092 24.4587 3.94542 24.335 3.97475ZM22.2644 4.27257V7.87848H23.5315C23.9493 7.87848 24.3162 7.80849 24.6321 7.66851C24.948 7.52855 25.1926 7.32526 25.3658 7.05864C25.5391 6.79204 25.6274 6.45543 25.6274 6.05218C25.6274 5.76558 25.573 5.5123 25.4609 5.28902C25.3488 5.06906 25.196 4.88244 24.9989 4.73247C24.8019 4.58251 24.5777 4.46586 24.3298 4.38921C24.0818 4.31255 23.8134 4.27257 23.5315 4.27257H22.2644ZM22.2644 3.70602H23.4126C23.7353 3.70602 24.0342 3.65602 24.3026 3.55605C24.5709 3.45606 24.785 3.30276 24.9412 3.09614C25.0975 2.88952 25.179 2.62958 25.179 2.30964C25.179 1.85974 25.0193 1.50983 24.7 1.25655C24.3807 1.0066 23.9527 0.879955 23.4126 0.879955H22.2644V3.70602Z" fill="white"/>
<path d="M37.221 0.30982H32.2072V0.913023H34.388V8.44809H35.0402V0.913023H37.221V0.30982Z" fill="white"/>
<path d="M38.3217 0.30982V3.71577H43.1691V0.30982H43.8315V8.44809H43.1691V4.31899H38.3217V8.44809H37.6695V0.30982H38.3217Z" fill="white"/>
<path fill-rule="evenodd" clip-rule="evenodd" d="M48.0569 2.66958C48.1792 2.90285 48.3253 3.10948 48.4952 3.29277L48.4985 3.28943C48.6684 3.4694 48.8179 3.63602 48.9436 3.78266L49.0337 3.88342C49.0021 3.89855 48.9697 3.91385 48.9367 3.9293C48.7159 4.03594 48.4884 4.15593 48.2608 4.2959C48.0298 4.43586 47.8192 4.60249 47.6255 4.79579C47.4319 4.98908 47.2723 5.21236 47.15 5.46897C47.0277 5.72558 46.9665 6.02551 46.9665 6.36545C46.9665 6.82202 47.0854 7.21528 47.3266 7.54521C47.5678 7.87514 47.8837 8.12841 48.2744 8.3017C48.6684 8.47834 49.0862 8.56499 49.538 8.56499C50.0679 8.56499 50.5469 8.46168 50.9715 8.25173C51.3961 8.04176 51.7901 7.76514 52.1502 7.42522C52.1597 7.4163 52.1691 7.40736 52.1785 7.39839L53.1149 8.44502H53.8487L52.5672 7.0028C52.7735 6.77904 52.9717 6.54167 53.1625 6.29214C53.4784 5.87889 53.7943 5.46898 54.1102 5.06574L53.6245 4.7758C53.3391 5.17238 53.047 5.55896 52.748 5.93888C52.5675 6.16783 52.3832 6.3825 52.1953 6.58433L49.9133 4.01612C49.9173 4.01384 49.9213 4.01156 49.9252 4.00927C50.2004 3.84931 50.445 3.68603 50.659 3.52272C50.873 3.35942 51.053 3.18946 51.1991 3.01616C51.3451 2.83953 51.4572 2.66291 51.5354 2.47961C51.6135 2.29965 51.6543 2.10968 51.6543 1.9164C51.6543 1.62312 51.5829 1.34319 51.4403 1.0799C51.2976 0.816622 51.0904 0.599999 50.8186 0.433367C50.5469 0.266736 50.2038 0.183426 49.8063 0.183426C49.4089 0.183426 49.0692 0.256753 48.7805 0.403385C48.4917 0.550028 48.2676 0.749987 48.1113 1.0066C47.9516 1.26321 47.8735 1.55646 47.8735 1.88973C47.8735 2.17633 47.9347 2.43629 48.0569 2.66958ZM49.4038 4.29711C49.3404 4.33072 49.2753 4.36475 49.2085 4.39921C48.9436 4.53585 48.6922 4.68915 48.451 4.85912C48.2098 5.02907 48.0094 5.23236 47.8531 5.46897C47.6935 5.70558 47.6154 5.99553 47.6154 6.33546C47.6154 6.6754 47.7037 6.98534 47.8769 7.23528C48.0502 7.48855 48.2845 7.67851 48.5835 7.81181C48.8824 7.94512 49.2085 8.00842 49.572 8.00842C50 8.00842 50.3974 7.91512 50.7677 7.72517C51.1358 7.53631 51.4837 7.28818 51.8049 6.98075L49.4038 4.29711ZM49.5573 3.61546C50.0074 3.35473 50.3602 3.08188 50.625 2.80287C50.9001 2.51293 51.0326 2.21633 51.0326 1.91306C51.0326 1.70311 50.9885 1.50982 50.8968 1.33318C50.805 1.15322 50.6726 1.00992 50.4925 0.896608C50.3125 0.783305 50.0883 0.726642 49.8097 0.726642C49.3919 0.726642 49.0692 0.836622 48.8484 1.05657C48.6276 1.27653 48.5155 1.55646 48.5155 1.88639C48.5155 2.21632 48.6106 2.48628 48.8043 2.72956C48.9979 2.97283 49.2017 3.21612 49.4157 3.45606L49.5573 3.61546Z" fill="white"/>
</svg>
