<svg width="83" height="16" viewBox="0 0 83 16" fill="none" xmlns="http://www.w3.org/2000/svg">
<g clip-path="url(#clip0_4998_1606)">
<path d="M22.5841 7.95904V6.85389H24.2717C24.5604 6.85389 24.8044 6.80909 25.0035 6.71948C25.2126 6.62988 25.3719 6.50542 25.4814 6.34612C25.5909 6.17687 25.6457 5.97276 25.6457 5.73381C25.6457 5.37539 25.5262 5.10657 25.2872 4.92735C25.0483 4.74814 24.7098 4.65853 24.2717 4.65853H23.2263V11.1998H24.5107C24.8392 11.1998 25.1329 11.16 25.3918 11.0803C25.6506 10.9907 25.8548 10.8513 26.0041 10.6622C26.1634 10.463 26.243 10.1942 26.243 9.85571C26.243 9.63667 26.1982 9.4475 26.1086 9.2882C26.019 9.1289 25.8946 8.99947 25.7353 8.89991C25.576 8.80034 25.3918 8.73065 25.1827 8.69083C24.9836 8.64104 24.7596 8.61615 24.5107 8.61615H22.5841V7.24219H24.7944C25.3022 7.24219 25.795 7.29695 26.2729 7.40647C26.7508 7.51599 27.1839 7.6952 27.5722 7.94411C27.9605 8.18306 28.2691 8.4917 28.4981 8.87004C28.7371 9.23842 28.8566 9.68645 28.8566 10.2141C28.8566 10.9111 28.6873 11.4736 28.3488 11.9017C28.0202 12.3298 27.5523 12.6484 26.945 12.8575C26.3376 13.0567 25.6208 13.1562 24.7944 13.1562H20.7024V2.70212H24.5405C25.2673 2.70212 25.9045 2.80169 26.4521 3.00081C27.0097 3.18998 27.4478 3.48369 27.7664 3.88194C28.0949 4.27024 28.2592 4.76307 28.2592 5.36045C28.2592 5.90805 28.0949 6.37599 27.7664 6.76429C27.4478 7.15258 27.0097 7.45127 26.4521 7.66035C25.9045 7.85948 25.2673 7.95904 24.5405 7.95904H22.5841Z" fill="white"/>
<path d="M31.8444 13.1562V11.0803H37.1162V13.1562H31.8444ZM31.8444 4.77801V2.70212H37.1162V4.77801H31.8444ZM31.8444 8.67589V6.64481H36.8175V8.67589H31.8444ZM30.1717 2.70212H32.5911V13.1562H30.1717V2.70212Z" fill="white"/>
<path d="M44.5915 2.70212H47.4888L43.8298 8.89991V13.1562H41.2611V8.91484L37.6022 2.70212H40.4995L42.5455 6.62988L44.5915 2.70212Z" fill="white"/>
<path d="M49.4654 7.92917C49.4654 8.54646 49.5848 9.09406 49.8238 9.57196C50.0727 10.0399 50.4162 10.4083 50.8543 10.6771C51.3023 10.9459 51.825 11.0803 52.4224 11.0803C53.0098 11.0803 53.5225 10.9459 53.9606 10.6771C54.4087 10.4083 54.7521 10.0399 54.9911 9.57196C55.24 9.09406 55.3645 8.54646 55.3645 7.92917C55.3645 7.31188 55.245 6.76926 55.006 6.30132C54.7671 5.82342 54.4286 5.45006 53.9905 5.18124C53.5524 4.91242 53.0297 4.77801 52.4224 4.77801C51.825 4.77801 51.3023 4.91242 50.8543 5.18124C50.4162 5.45006 50.0727 5.82342 49.8238 6.30132C49.5848 6.76926 49.4654 7.31188 49.4654 7.92917ZM46.7921 7.92917C46.7921 7.12271 46.9315 6.38595 47.2103 5.71888C47.499 5.05181 47.8972 4.47434 48.405 3.98648C48.9128 3.49863 49.5102 3.12527 50.1971 2.8664C50.8841 2.59758 51.6259 2.46317 52.4224 2.46317C53.2288 2.46317 53.9706 2.59758 54.6476 2.8664C55.3346 3.12527 55.932 3.49863 56.4397 3.98648C56.9475 4.47434 57.3408 5.05181 57.6196 5.71888C57.8983 6.38595 58.0377 7.12271 58.0377 7.92917C58.0377 8.73563 57.8983 9.47737 57.6196 10.1544C57.3507 10.8314 56.9624 11.4188 56.4547 11.9167C55.9569 12.4145 55.3645 12.8028 54.6775 13.0815C53.9905 13.3504 53.2388 13.4848 52.4224 13.4848C51.596 13.4848 50.8393 13.3504 50.1523 13.0815C49.4654 12.8028 48.868 12.4145 48.3602 11.9167C47.8624 11.4188 47.4741 10.8314 47.1953 10.1544C46.9265 9.47737 46.7921 8.73563 46.7921 7.92917Z" fill="white"/>
<path d="M66.4202 2.70212H68.8546V13.6789L61.6263 7.27206V13.1562H59.2069V2.17942L66.4202 8.58628V2.70212Z" fill="white"/>
<path d="M70.616 2.70212H73.2146V13.1562H70.616V2.70212ZM74.3496 13.1562H72.2887V10.9161H74.26C74.6582 10.9161 75.0416 10.8663 75.4099 10.7667C75.7883 10.6671 76.1168 10.5029 76.3956 10.2739C76.6843 10.0449 76.9133 9.74121 77.0826 9.36287C77.2519 8.97458 77.3365 8.49668 77.3365 7.92917C77.3365 7.36166 77.2519 6.88874 77.0826 6.5104C76.9133 6.12211 76.6843 5.81346 76.3956 5.58447C76.1168 5.35547 75.7883 5.19119 75.4099 5.09163C75.0416 4.99207 74.6582 4.94229 74.26 4.94229H72.2887V2.70212H74.3496C75.4946 2.70212 76.4852 2.91618 77.3215 3.34431C78.1579 3.77242 78.805 4.37478 79.263 5.15137C79.721 5.92796 79.95 6.85389 79.95 7.92917C79.95 8.99449 79.721 9.92043 79.263 10.707C78.805 11.4836 78.1579 12.0859 77.3215 12.514C76.4852 12.9422 75.4946 13.1562 74.3496 13.1562Z" fill="white"/>
<path d="M2.03761 8.49519L0.444504 10.0883V14.8676H5.22384L6.81695 13.2745H2.03761V8.49519ZM13.1894 13.2745H8.41006L10.0032 14.8676H14.7825V10.0883L13.1894 8.49519V13.2745ZM10.0032 0.52964L8.41006 2.12275H13.1894V6.90208L14.7825 5.30897V0.52964H10.0032ZM2.03761 2.12275H6.81695L5.22384 0.52964H0.444504V5.30897L2.03761 6.90208V2.12275ZM3.56616 6.04097L4.85829 7.3331C5.02197 6.09007 6.00493 5.10711 7.24796 4.94343L5.95583 3.6513C4.87375 4.09504 4.00991 4.95889 3.56616 6.04097ZM11.6608 9.35631L10.3687 8.06418C10.205 9.30721 9.22207 10.2902 7.97904 10.4538L9.27117 11.746C10.3533 11.3022 11.2171 10.4384 11.6608 9.35631ZM4.85738 8.06509L3.56526 9.35722C4.009 10.4393 4.87284 11.3031 5.95492 11.7469L7.24705 10.4548C6.00402 10.2911 5.02106 9.30812 4.85738 8.06509ZM11.6608 6.04097C11.2171 4.95889 10.3533 4.09504 9.27117 3.6513L7.97904 4.94343C9.22207 5.10711 10.205 6.09007 10.3687 7.3331L11.6608 6.04097Z" fill="white"/>
</g>
<defs>
<clipPath id="clip0_4998_1606">
<rect width="82.5" height="15" fill="white" transform="translate(0.444504 0.5)"/>
</clipPath>
</defs>
</svg>
