<svg width="767" height="767" viewBox="0 0 767 767" fill="none" xmlns="http://www.w3.org/2000/svg">
<path d="M36 669C36 666.791 37.7909 665 40 665H306C308.209 665 310 666.791 310 669V731C310 733.209 308.209 735 306 735H40C37.7909 735 36 733.209 36 731V669Z" fill="#837A3E"/>
<path d="M83.712 695.84C83.5413 694.197 82.944 693.013 81.92 692.288C80.9173 691.541 79.6267 691.168 78.048 691.168C77.408 691.168 76.7787 691.232 76.16 691.36C75.5413 691.488 74.9867 691.701 74.496 692C74.0267 692.299 73.6427 692.704 73.344 693.216C73.0667 693.707 72.928 694.325 72.928 695.072C72.928 695.776 73.1307 696.352 73.536 696.8C73.9627 697.227 74.5173 697.579 75.2 697.856C75.904 698.133 76.6933 698.368 77.568 698.56C78.4427 698.731 79.328 698.923 80.224 699.136C81.1413 699.349 82.0373 699.605 82.912 699.904C83.7867 700.181 84.5653 700.565 85.248 701.056C85.952 701.547 86.5067 702.165 86.912 702.912C87.3387 703.659 87.552 704.597 87.552 705.728C87.552 706.944 87.2747 707.989 86.72 708.864C86.1867 709.717 85.4933 710.421 84.64 710.976C83.7867 711.509 82.8267 711.893 81.76 712.128C80.7147 712.384 79.6693 712.512 78.624 712.512C77.344 712.512 76.128 712.352 74.976 712.032C73.8453 711.712 72.8427 711.232 71.968 710.592C71.1147 709.931 70.432 709.099 69.92 708.096C69.4293 707.072 69.184 705.867 69.184 704.48H72.064C72.064 705.44 72.2453 706.272 72.608 706.976C72.992 707.659 73.4827 708.224 74.08 708.672C74.6987 709.12 75.4133 709.451 76.224 709.664C77.0347 709.877 77.8667 709.984 78.72 709.984C79.4027 709.984 80.0853 709.92 80.768 709.792C81.472 709.664 82.1013 709.451 82.656 709.152C83.2107 708.832 83.6587 708.405 84 707.872C84.3413 707.339 84.512 706.656 84.512 705.824C84.512 705.035 84.2987 704.395 83.872 703.904C83.4667 703.413 82.912 703.019 82.208 702.72C81.5253 702.4 80.7467 702.144 79.872 701.952C78.9973 701.76 78.1013 701.568 77.184 701.376C76.288 701.163 75.4027 700.928 74.528 700.672C73.6533 700.395 72.864 700.043 72.16 699.616C71.4773 699.168 70.9227 698.603 70.496 697.92C70.0907 697.216 69.888 696.341 69.888 695.296C69.888 694.144 70.1227 693.152 70.592 692.32C71.0613 691.467 71.68 690.773 72.448 690.24C73.2373 689.685 74.1227 689.28 75.104 689.024C76.1067 688.747 77.1307 688.608 78.176 688.608C79.3493 688.608 80.4373 688.747 81.44 689.024C82.4427 689.301 83.3173 689.739 84.064 690.336C84.832 690.933 85.4293 691.691 85.856 692.608C86.304 693.504 86.5493 694.581 86.592 695.84H83.712ZM90.798 689.152H93.518V697.888H93.582C93.7953 697.376 94.094 696.949 94.478 696.608C94.862 696.245 95.2887 695.957 95.758 695.744C96.2487 695.509 96.75 695.339 97.262 695.232C97.7953 695.125 98.3073 695.072 98.798 695.072C99.886 695.072 100.793 695.221 101.518 695.52C102.243 695.819 102.83 696.235 103.278 696.768C103.726 697.301 104.035 697.941 104.206 698.688C104.398 699.413 104.494 700.224 104.494 701.12V712H101.774V700.8C101.774 699.776 101.475 698.965 100.878 698.368C100.281 697.771 99.4593 697.472 98.414 697.472C97.582 697.472 96.8567 697.6 96.238 697.856C95.6407 698.112 95.1393 698.475 94.734 698.944C94.3287 699.413 94.0193 699.968 93.806 700.608C93.614 701.227 93.518 701.909 93.518 702.656V712H90.798V689.152ZM110.563 703.744C110.563 704.747 110.691 705.643 110.947 706.432C111.225 707.2 111.598 707.851 112.067 708.384C112.537 708.896 113.081 709.291 113.699 709.568C114.339 709.845 115.011 709.984 115.715 709.984C116.419 709.984 117.081 709.845 117.699 709.568C118.339 709.291 118.894 708.896 119.363 708.384C119.833 707.851 120.195 707.2 120.451 706.432C120.729 705.643 120.867 704.747 120.867 703.744C120.867 702.741 120.729 701.856 120.451 701.088C120.195 700.299 119.833 699.637 119.363 699.104C118.894 698.571 118.339 698.165 117.699 697.888C117.081 697.611 116.419 697.472 115.715 697.472C115.011 697.472 114.339 697.611 113.699 697.888C113.081 698.165 112.537 698.571 112.067 699.104C111.598 699.637 111.225 700.299 110.947 701.088C110.691 701.856 110.563 702.741 110.563 703.744ZM107.683 703.744C107.683 702.528 107.854 701.397 108.195 700.352C108.537 699.285 109.049 698.368 109.731 697.6C110.414 696.811 111.257 696.192 112.259 695.744C113.262 695.296 114.414 695.072 115.715 695.072C117.038 695.072 118.19 695.296 119.171 695.744C120.174 696.192 121.017 696.811 121.699 697.6C122.382 698.368 122.894 699.285 123.235 700.352C123.577 701.397 123.747 702.528 123.747 703.744C123.747 704.96 123.577 706.091 123.235 707.136C122.894 708.181 122.382 709.099 121.699 709.888C121.017 710.656 120.174 711.264 119.171 711.712C118.19 712.139 117.038 712.352 115.715 712.352C114.414 712.352 113.262 712.139 112.259 711.712C111.257 711.264 110.414 710.656 109.731 709.888C109.049 709.099 108.537 708.181 108.195 707.136C107.854 706.091 107.683 704.96 107.683 703.744ZM127.05 695.456H129.77V697.696H129.834C130.282 696.779 130.986 696.117 131.946 695.712C132.906 695.285 133.962 695.072 135.114 695.072C136.394 695.072 137.504 695.307 138.442 695.776C139.402 696.245 140.192 696.885 140.81 697.696C141.45 698.485 141.93 699.403 142.25 700.448C142.57 701.493 142.73 702.603 142.73 703.776C142.73 704.949 142.57 706.059 142.25 707.104C141.952 708.149 141.482 709.067 140.842 709.856C140.224 710.624 139.434 711.232 138.474 711.68C137.536 712.128 136.437 712.352 135.178 712.352C134.773 712.352 134.314 712.309 133.802 712.224C133.312 712.139 132.821 712 132.33 711.808C131.84 711.616 131.37 711.36 130.922 711.04C130.496 710.699 130.133 710.283 129.834 709.792H129.77V718.304H127.05V695.456ZM139.85 703.584C139.85 702.816 139.744 702.069 139.53 701.344C139.338 700.597 139.029 699.936 138.602 699.36C138.197 698.784 137.664 698.325 137.002 697.984C136.362 697.643 135.605 697.472 134.73 697.472C133.813 697.472 133.034 697.653 132.394 698.016C131.754 698.379 131.232 698.859 130.826 699.456C130.421 700.032 130.122 700.693 129.93 701.44C129.76 702.187 129.674 702.944 129.674 703.712C129.674 704.523 129.77 705.312 129.962 706.08C130.154 706.827 130.453 707.488 130.858 708.064C131.285 708.64 131.829 709.109 132.49 709.472C133.152 709.813 133.952 709.984 134.89 709.984C135.829 709.984 136.608 709.803 137.226 709.44C137.866 709.077 138.378 708.597 138.762 708C139.146 707.403 139.424 706.72 139.594 705.952C139.765 705.184 139.85 704.395 139.85 703.584ZM158.605 695.456H161.901V697.856H158.605V708.128C158.605 708.448 158.627 708.704 158.669 708.896C158.733 709.088 158.84 709.237 158.989 709.344C159.139 709.451 159.341 709.525 159.597 709.568C159.875 709.589 160.227 709.6 160.653 709.6H161.901V712H159.821C159.117 712 158.509 711.957 157.997 711.872C157.507 711.765 157.101 711.584 156.781 711.328C156.483 711.072 156.259 710.709 156.109 710.24C155.96 709.771 155.885 709.152 155.885 708.384V697.856H153.069V695.456H155.885V690.496H158.605V695.456ZM164.923 689.152H167.643V697.888H167.707C167.92 697.376 168.219 696.949 168.603 696.608C168.987 696.245 169.414 695.957 169.883 695.744C170.374 695.509 170.875 695.339 171.387 695.232C171.92 695.125 172.432 695.072 172.923 695.072C174.011 695.072 174.918 695.221 175.643 695.52C176.368 695.819 176.955 696.235 177.403 696.768C177.851 697.301 178.16 697.941 178.331 698.688C178.523 699.413 178.619 700.224 178.619 701.12V712H175.899V700.8C175.899 699.776 175.6 698.965 175.003 698.368C174.406 697.771 173.584 697.472 172.539 697.472C171.707 697.472 170.982 697.6 170.363 697.856C169.766 698.112 169.264 698.475 168.859 698.944C168.454 699.413 168.144 699.968 167.931 700.608C167.739 701.227 167.643 701.909 167.643 702.656V712H164.923V689.152ZM194.192 702.144C194.15 701.504 194 700.896 193.744 700.32C193.51 699.744 193.179 699.253 192.752 698.848C192.347 698.421 191.856 698.091 191.28 697.856C190.726 697.6 190.107 697.472 189.424 697.472C188.72 697.472 188.08 697.6 187.504 697.856C186.95 698.091 186.47 698.421 186.064 698.848C185.659 699.275 185.339 699.776 185.104 700.352C184.87 700.907 184.731 701.504 184.688 702.144H194.192ZM196.816 706.752C196.454 708.608 195.654 710.005 194.416 710.944C193.179 711.883 191.622 712.352 189.744 712.352C188.422 712.352 187.27 712.139 186.288 711.712C185.328 711.285 184.518 710.688 183.856 709.92C183.195 709.152 182.694 708.235 182.352 707.168C182.032 706.101 181.851 704.939 181.808 703.68C181.808 702.421 182 701.269 182.384 700.224C182.768 699.179 183.302 698.272 183.984 697.504C184.688 696.736 185.51 696.139 186.448 695.712C187.408 695.285 188.454 695.072 189.584 695.072C191.056 695.072 192.272 695.381 193.232 696C194.214 696.597 194.992 697.365 195.568 698.304C196.166 699.243 196.571 700.267 196.784 701.376C197.019 702.485 197.115 703.541 197.072 704.544H184.688C184.667 705.269 184.752 705.963 184.944 706.624C185.136 707.264 185.446 707.84 185.872 708.352C186.299 708.843 186.843 709.237 187.504 709.536C188.166 709.835 188.944 709.984 189.84 709.984C190.992 709.984 191.931 709.717 192.656 709.184C193.403 708.651 193.894 707.84 194.128 706.752H196.816ZM222.462 695.84C222.291 694.197 221.694 693.013 220.67 692.288C219.667 691.541 218.377 691.168 216.798 691.168C216.158 691.168 215.529 691.232 214.91 691.36C214.291 691.488 213.737 691.701 213.246 692C212.777 692.299 212.393 692.704 212.094 693.216C211.817 693.707 211.678 694.325 211.678 695.072C211.678 695.776 211.881 696.352 212.286 696.8C212.713 697.227 213.267 697.579 213.95 697.856C214.654 698.133 215.443 698.368 216.318 698.56C217.193 698.731 218.078 698.923 218.974 699.136C219.891 699.349 220.787 699.605 221.662 699.904C222.537 700.181 223.315 700.565 223.998 701.056C224.702 701.547 225.257 702.165 225.662 702.912C226.089 703.659 226.302 704.597 226.302 705.728C226.302 706.944 226.025 707.989 225.47 708.864C224.937 709.717 224.243 710.421 223.39 710.976C222.537 711.509 221.577 711.893 220.51 712.128C219.465 712.384 218.419 712.512 217.374 712.512C216.094 712.512 214.878 712.352 213.726 712.032C212.595 711.712 211.593 711.232 210.718 710.592C209.865 709.931 209.182 709.099 208.67 708.096C208.179 707.072 207.934 705.867 207.934 704.48H210.814C210.814 705.44 210.995 706.272 211.358 706.976C211.742 707.659 212.233 708.224 212.83 708.672C213.449 709.12 214.163 709.451 214.974 709.664C215.785 709.877 216.617 709.984 217.47 709.984C218.153 709.984 218.835 709.92 219.518 709.792C220.222 709.664 220.851 709.451 221.406 709.152C221.961 708.832 222.409 708.405 222.75 707.872C223.091 707.339 223.262 706.656 223.262 705.824C223.262 705.035 223.049 704.395 222.622 703.904C222.217 703.413 221.662 703.019 220.958 702.72C220.275 702.4 219.497 702.144 218.622 701.952C217.747 701.76 216.851 701.568 215.934 701.376C215.038 701.163 214.153 700.928 213.278 700.672C212.403 700.395 211.614 700.043 210.91 699.616C210.227 699.168 209.673 698.603 209.246 697.92C208.841 697.216 208.638 696.341 208.638 695.296C208.638 694.144 208.873 693.152 209.342 692.32C209.811 691.467 210.43 690.773 211.198 690.24C211.987 689.685 212.873 689.28 213.854 689.024C214.857 688.747 215.881 688.608 216.926 688.608C218.099 688.608 219.187 688.747 220.19 689.024C221.193 689.301 222.067 689.739 222.814 690.336C223.582 690.933 224.179 691.691 224.606 692.608C225.054 693.504 225.299 694.581 225.342 695.84H222.462ZM233.324 695.456H236.62V697.856H233.324V708.128C233.324 708.448 233.345 708.704 233.388 708.896C233.452 709.088 233.559 709.237 233.708 709.344C233.857 709.451 234.06 709.525 234.316 709.568C234.593 709.589 234.945 709.6 235.372 709.6H236.62V712H234.54C233.836 712 233.228 711.957 232.716 711.872C232.225 711.765 231.82 711.584 231.5 711.328C231.201 711.072 230.977 710.709 230.828 710.24C230.679 709.771 230.604 709.152 230.604 708.384V697.856H227.788V695.456H230.604V690.496H233.324V695.456ZM246.138 714.208C245.818 715.019 245.498 715.701 245.178 716.256C244.879 716.811 244.538 717.259 244.154 717.6C243.791 717.963 243.375 718.219 242.906 718.368C242.458 718.539 241.935 718.624 241.338 718.624C241.018 718.624 240.698 718.603 240.378 718.56C240.058 718.517 239.748 718.443 239.45 718.336V715.84C239.684 715.947 239.951 716.032 240.25 716.096C240.57 716.181 240.836 716.224 241.05 716.224C241.604 716.224 242.063 716.085 242.426 715.808C242.81 715.552 243.098 715.179 243.29 714.688L244.41 711.904L237.85 695.456H240.922L245.754 708.992H245.818L250.458 695.456H253.338L246.138 714.208ZM255.802 689.152H258.522V712H255.802V689.152ZM274.224 702.144C274.181 701.504 274.032 700.896 273.776 700.32C273.541 699.744 273.21 699.253 272.784 698.848C272.378 698.421 271.888 698.091 271.312 697.856C270.757 697.6 270.138 697.472 269.456 697.472C268.752 697.472 268.112 697.6 267.536 697.856C266.981 698.091 266.501 698.421 266.096 698.848C265.69 699.275 265.37 699.776 265.136 700.352C264.901 700.907 264.762 701.504 264.72 702.144H274.224ZM276.847 706.752C276.485 708.608 275.685 710.005 274.448 710.944C273.21 711.883 271.653 712.352 269.776 712.352C268.453 712.352 267.301 712.139 266.32 711.712C265.36 711.285 264.549 710.688 263.888 709.92C263.226 709.152 262.725 708.235 262.384 707.168C262.064 706.101 261.882 704.939 261.84 703.68C261.84 702.421 262.032 701.269 262.416 700.224C262.8 699.179 263.333 698.272 264.016 697.504C264.72 696.736 265.541 696.139 266.48 695.712C267.44 695.285 268.485 695.072 269.616 695.072C271.088 695.072 272.304 695.381 273.264 696C274.245 696.597 275.024 697.365 275.6 698.304C276.197 699.243 276.602 700.267 276.816 701.376C277.05 702.485 277.146 703.541 277.104 704.544H264.72C264.698 705.269 264.784 705.963 264.976 706.624C265.168 707.264 265.477 707.84 265.904 708.352C266.33 708.843 266.874 709.237 267.536 709.536C268.197 709.835 268.976 709.984 269.872 709.984C271.024 709.984 271.962 709.717 272.688 709.184C273.434 708.651 273.925 707.84 274.16 706.752H276.847Z" fill="#FFFEF9"/>
<path d="M47.62 592.172C47.4333 591.257 47.0413 590.548 46.444 590.044C45.8467 589.54 45.044 589.288 44.036 589.288C43.1773 589.288 42.4587 589.447 41.88 589.764C41.3013 590.081 40.8347 590.501 40.48 591.024C40.144 591.547 39.9013 592.153 39.752 592.844C39.6027 593.516 39.528 594.216 39.528 594.944C39.528 595.616 39.6027 596.269 39.752 596.904C39.92 597.539 40.172 598.108 40.508 598.612C40.844 599.097 41.2827 599.489 41.824 599.788C42.3653 600.087 43.0093 600.236 43.756 600.236C44.932 600.236 45.8467 599.928 46.5 599.312C47.172 598.696 47.5827 597.828 47.732 596.708H50.168C49.9067 598.5 49.2347 599.881 48.152 600.852C47.088 601.823 45.632 602.308 43.784 602.308C42.6827 602.308 41.7027 602.131 40.844 601.776C40.004 601.421 39.2947 600.917 38.716 600.264C38.156 599.611 37.7267 598.836 37.428 597.94C37.148 597.025 37.008 596.027 37.008 594.944C37.008 593.861 37.148 592.853 37.428 591.92C37.708 590.968 38.128 590.147 38.688 589.456C39.2667 588.747 39.9853 588.196 40.844 587.804C41.7027 587.393 42.7013 587.188 43.84 587.188C44.6613 587.188 45.4267 587.291 46.136 587.496C46.864 587.683 47.4987 587.981 48.04 588.392C48.6 588.803 49.0573 589.325 49.412 589.96C49.7667 590.576 49.9907 591.313 50.084 592.172H47.62ZM52.9711 582.008H55.3511V602H52.9711V582.008ZM69.0901 593.376C69.0528 592.816 68.9221 592.284 68.6981 591.78C68.4928 591.276 68.2034 590.847 67.8301 590.492C67.4754 590.119 67.0461 589.829 66.5421 589.624C66.0568 589.4 65.5154 589.288 64.9181 589.288C64.3021 589.288 63.7421 589.4 63.2381 589.624C62.7528 589.829 62.3328 590.119 61.9781 590.492C61.6234 590.865 61.3434 591.304 61.1381 591.808C60.9328 592.293 60.8114 592.816 60.7741 593.376H69.0901ZM71.3861 597.408C71.0688 599.032 70.3688 600.255 69.2861 601.076C68.2034 601.897 66.8408 602.308 65.1981 602.308C64.0408 602.308 63.0328 602.121 62.1741 601.748C61.3341 601.375 60.6248 600.852 60.0461 600.18C59.4674 599.508 59.0288 598.705 58.7301 597.772C58.4501 596.839 58.2914 595.821 58.2541 594.72C58.2541 593.619 58.4221 592.611 58.7581 591.696C59.0941 590.781 59.5608 589.988 60.1581 589.316C60.7741 588.644 61.4928 588.121 62.3141 587.748C63.1541 587.375 64.0688 587.188 65.0581 587.188C66.3461 587.188 67.4101 587.459 68.2501 588C69.1088 588.523 69.7901 589.195 70.2941 590.016C70.8168 590.837 71.1714 591.733 71.3581 592.704C71.5634 593.675 71.6474 594.599 71.6101 595.476H60.7741C60.7554 596.111 60.8301 596.717 60.9981 597.296C61.1661 597.856 61.4368 598.36 61.8101 598.808C62.1834 599.237 62.6594 599.583 63.2381 599.844C63.8168 600.105 64.4981 600.236 65.2821 600.236C66.2901 600.236 67.1114 600.003 67.7461 599.536C68.3994 599.069 68.8288 598.36 69.0341 597.408H71.3861ZM86.9012 601.944C86.4905 602.187 85.9212 602.308 85.1932 602.308C84.5772 602.308 84.0825 602.14 83.7092 601.804C83.3545 601.449 83.1772 600.88 83.1772 600.096C82.5238 600.88 81.7585 601.449 80.8812 601.804C80.0225 602.14 79.0892 602.308 78.0812 602.308C77.4278 602.308 76.8025 602.233 76.2052 602.084C75.6265 601.935 75.1225 601.701 74.6932 601.384C74.2638 601.067 73.9185 600.656 73.6572 600.152C73.4145 599.629 73.2932 599.004 73.2932 598.276C73.2932 597.455 73.4332 596.783 73.7132 596.26C73.9932 595.737 74.3572 595.317 74.8052 595C75.2718 594.664 75.7945 594.412 76.3732 594.244C76.9705 594.076 77.5772 593.936 78.1932 593.824C78.8465 593.693 79.4625 593.6 80.0412 593.544C80.6385 593.469 81.1612 593.376 81.6092 593.264C82.0572 593.133 82.4118 592.956 82.6732 592.732C82.9345 592.489 83.0652 592.144 83.0652 591.696C83.0652 591.173 82.9625 590.753 82.7572 590.436C82.5705 590.119 82.3185 589.876 82.0012 589.708C81.7025 589.54 81.3572 589.428 80.9652 589.372C80.5918 589.316 80.2185 589.288 79.8452 589.288C78.8372 589.288 77.9972 589.484 77.3252 589.876C76.6532 590.249 76.2892 590.968 76.2332 592.032H73.8532C73.8905 591.136 74.0772 590.38 74.4132 589.764C74.7492 589.148 75.1972 588.653 75.7572 588.28C76.3172 587.888 76.9518 587.608 77.6612 587.44C78.3892 587.272 79.1638 587.188 79.9852 587.188C80.6385 587.188 81.2825 587.235 81.9172 587.328C82.5705 587.421 83.1585 587.617 83.6812 587.916C84.2038 588.196 84.6238 588.597 84.9412 589.12C85.2585 589.643 85.4172 590.324 85.4172 591.164V598.612C85.4172 599.172 85.4452 599.583 85.5012 599.844C85.5758 600.105 85.7998 600.236 86.1732 600.236C86.3785 600.236 86.6212 600.189 86.9012 600.096V601.944ZM83.0372 594.524C82.7385 594.748 82.3465 594.916 81.8612 595.028C81.3758 595.121 80.8625 595.205 80.3212 595.28C79.7985 595.336 79.2665 595.411 78.7252 595.504C78.1838 595.579 77.6985 595.709 77.2692 595.896C76.8398 596.083 76.4852 596.353 76.2052 596.708C75.9438 597.044 75.8132 597.511 75.8132 598.108C75.8132 598.5 75.8878 598.836 76.0372 599.116C76.2052 599.377 76.4105 599.592 76.6532 599.76C76.9145 599.928 77.2132 600.049 77.5492 600.124C77.8852 600.199 78.2398 600.236 78.6132 600.236C79.3972 600.236 80.0692 600.133 80.6292 599.928C81.1892 599.704 81.6465 599.433 82.0012 599.116C82.3558 598.78 82.6172 598.425 82.7852 598.052C82.9532 597.66 83.0372 597.296 83.0372 596.96V594.524ZM89.1162 587.524H91.3562V589.82H91.4122C92.4016 588.065 93.9696 587.188 96.1162 587.188C97.0682 587.188 97.8616 587.319 98.4962 587.58C99.1309 587.841 99.6442 588.205 100.036 588.672C100.428 589.139 100.699 589.699 100.848 590.352C101.016 590.987 101.1 591.696 101.1 592.48V602H98.7202V592.2C98.7202 591.304 98.4589 590.595 97.9362 590.072C97.4136 589.549 96.6949 589.288 95.7802 589.288C95.0522 589.288 94.4176 589.4 93.8762 589.624C93.3536 589.848 92.9149 590.165 92.5602 590.576C92.2056 590.987 91.9349 591.472 91.7482 592.032C91.5802 592.573 91.4962 593.171 91.4962 593.824V602H89.1162V587.524ZM112.608 582.008H114.988V602H112.608V582.008ZM121.195 584.92H118.815V582.008H121.195V584.92ZM118.815 587.524H121.195V602H118.815V587.524ZM124.882 587.524H127.122V589.82H127.178C128.167 588.065 129.735 587.188 131.882 587.188C132.834 587.188 133.627 587.319 134.262 587.58C134.897 587.841 135.41 588.205 135.802 588.672C136.194 589.139 136.465 589.699 136.614 590.352C136.782 590.987 136.866 591.696 136.866 592.48V602H134.486V592.2C134.486 591.304 134.225 590.595 133.702 590.072C133.179 589.549 132.461 589.288 131.546 589.288C130.818 589.288 130.183 589.4 129.642 589.624C129.119 589.848 128.681 590.165 128.326 590.576C127.971 590.987 127.701 591.472 127.514 592.032C127.346 592.573 127.262 593.171 127.262 593.824V602H124.882V587.524ZM150.492 593.376C150.455 592.816 150.324 592.284 150.1 591.78C149.895 591.276 149.606 590.847 149.232 590.492C148.878 590.119 148.448 589.829 147.944 589.624C147.459 589.4 146.918 589.288 146.32 589.288C145.704 589.288 145.144 589.4 144.64 589.624C144.155 589.829 143.735 590.119 143.38 590.492C143.026 590.865 142.746 591.304 142.54 591.808C142.335 592.293 142.214 592.816 142.176 593.376H150.492ZM152.788 597.408C152.471 599.032 151.771 600.255 150.688 601.076C149.606 601.897 148.243 602.308 146.6 602.308C145.443 602.308 144.435 602.121 143.576 601.748C142.736 601.375 142.027 600.852 141.448 600.18C140.87 599.508 140.431 598.705 140.132 597.772C139.852 596.839 139.694 595.821 139.656 594.72C139.656 593.619 139.824 592.611 140.16 591.696C140.496 590.781 140.963 589.988 141.56 589.316C142.176 588.644 142.895 588.121 143.716 587.748C144.556 587.375 145.471 587.188 146.46 587.188C147.748 587.188 148.812 587.459 149.652 588C150.511 588.523 151.192 589.195 151.696 590.016C152.219 590.837 152.574 591.733 152.76 592.704C152.966 593.675 153.05 594.599 153.012 595.476H142.176C142.158 596.111 142.232 596.717 142.4 597.296C142.568 597.856 142.839 598.36 143.212 598.808C143.586 599.237 144.062 599.583 144.64 599.844C145.219 600.105 145.9 600.236 146.684 600.236C147.692 600.236 148.514 600.003 149.148 599.536C149.802 599.069 150.231 598.36 150.436 597.408H152.788ZM156.936 597.436C156.954 597.959 157.076 598.407 157.3 598.78C157.524 599.135 157.813 599.424 158.168 599.648C158.541 599.853 158.952 600.003 159.4 600.096C159.866 600.189 160.342 600.236 160.828 600.236C161.201 600.236 161.593 600.208 162.004 600.152C162.414 600.096 162.788 599.993 163.124 599.844C163.478 599.695 163.768 599.48 163.992 599.2C164.216 598.901 164.328 598.528 164.328 598.08C164.328 597.464 164.094 596.997 163.628 596.68C163.161 596.363 162.573 596.111 161.864 595.924C161.173 595.719 160.417 595.541 159.596 595.392C158.774 595.224 158.009 595 157.3 594.72C156.609 594.421 156.03 594.011 155.564 593.488C155.097 592.965 154.864 592.237 154.864 591.304C154.864 590.576 155.022 589.951 155.34 589.428C155.676 588.905 156.096 588.485 156.6 588.168C157.122 587.832 157.701 587.589 158.336 587.44C158.989 587.272 159.633 587.188 160.268 587.188C161.089 587.188 161.845 587.263 162.536 587.412C163.226 587.543 163.833 587.785 164.356 588.14C164.897 588.476 165.326 588.943 165.644 589.54C165.961 590.119 166.148 590.847 166.204 591.724H163.824C163.786 591.257 163.665 590.875 163.46 590.576C163.254 590.259 162.993 590.007 162.676 589.82C162.358 589.633 162.004 589.503 161.612 589.428C161.238 589.335 160.856 589.288 160.464 589.288C160.109 589.288 159.745 589.316 159.372 589.372C159.017 589.428 158.69 589.531 158.392 589.68C158.093 589.811 157.85 589.997 157.664 590.24C157.477 590.464 157.383 590.763 157.383 591.136C157.383 591.547 157.523 591.892 157.803 592.172C158.102 592.433 158.476 592.657 158.924 592.844C159.372 593.012 159.876 593.161 160.436 593.292C160.996 593.404 161.556 593.525 162.116 593.656C162.713 593.787 163.292 593.945 163.852 594.132C164.43 594.319 164.934 594.571 165.364 594.888C165.812 595.187 166.166 595.569 166.428 596.036C166.708 596.503 166.848 597.081 166.848 597.772C166.848 598.649 166.661 599.377 166.288 599.956C165.933 600.535 165.457 601.001 164.86 601.356C164.281 601.711 163.618 601.953 162.872 602.084C162.144 602.233 161.416 602.308 160.688 602.308C159.885 602.308 159.12 602.224 158.392 602.056C157.664 601.888 157.02 601.617 156.46 601.244C155.9 600.852 155.452 600.348 155.116 599.732C154.78 599.097 154.593 598.332 154.556 597.436H156.936ZM170.012 598.892H173.12V601.72C173.12 602.784 172.877 603.699 172.392 604.464C171.906 605.229 171.122 605.771 170.04 606.088V604.688C170.357 604.576 170.618 604.408 170.824 604.184C171.048 603.979 171.225 603.745 171.356 603.484C171.486 603.241 171.57 602.989 171.608 602.728C171.664 602.467 171.682 602.224 171.664 602H170.012V598.892ZM41.04 623.776C41.04 624.355 41.096 624.924 41.208 625.484C41.32 626.025 41.5067 626.52 41.768 626.968C42.048 627.397 42.412 627.743 42.86 628.004C43.308 628.265 43.868 628.396 44.54 628.396C45.212 628.396 45.772 628.265 46.22 628.004C46.6867 627.743 47.0507 627.397 47.312 626.968C47.592 626.52 47.788 626.025 47.9 625.484C48.012 624.924 48.068 624.355 48.068 623.776C48.068 623.197 48.012 622.628 47.9 622.068C47.788 621.508 47.592 621.013 47.312 620.584C47.0507 620.155 46.6867 619.809 46.22 619.548C45.772 619.268 45.212 619.128 44.54 619.128C43.868 619.128 43.308 619.268 42.86 619.548C42.412 619.809 42.048 620.155 41.768 620.584C41.5067 621.013 41.32 621.508 41.208 622.068C41.096 622.628 41.04 623.197 41.04 623.776ZM37.064 623.776C37.064 622.619 37.2413 621.573 37.596 620.64C37.9507 619.688 38.4547 618.885 39.108 618.232C39.7613 617.56 40.5453 617.047 41.46 616.692C42.3747 616.319 43.4013 616.132 44.54 616.132C45.6787 616.132 46.7053 616.319 47.62 616.692C48.5533 617.047 49.3467 617.56 50 618.232C50.6533 618.885 51.1573 619.688 51.512 620.64C51.8667 621.573 52.044 622.619 52.044 623.776C52.044 624.933 51.8667 625.979 51.512 626.912C51.1573 627.845 50.6533 628.648 50 629.32C49.3467 629.973 48.5533 630.477 47.62 630.832C46.7053 631.187 45.6787 631.364 44.54 631.364C43.4013 631.364 42.3747 631.187 41.46 630.832C40.5453 630.477 39.7613 629.973 39.108 629.32C38.4547 628.648 37.9507 627.845 37.596 626.912C37.2413 625.979 37.064 624.933 37.064 623.776ZM54.6292 616.524H58.4092V619.212H58.4652C58.6519 618.764 58.9039 618.353 59.2212 617.98C59.5385 617.588 59.9025 617.261 60.3132 617C60.7239 616.72 61.1625 616.505 61.6292 616.356C62.0959 616.207 62.5812 616.132 63.0852 616.132C63.3465 616.132 63.6359 616.179 63.9532 616.272V619.968C63.7665 619.931 63.5425 619.903 63.2812 619.884C63.0199 619.847 62.7679 619.828 62.5252 619.828C61.7972 619.828 61.1812 619.949 60.6772 620.192C60.1732 620.435 59.7625 620.771 59.4452 621.2C59.1465 621.611 58.9319 622.096 58.8012 622.656C58.6705 623.216 58.6052 623.823 58.6052 624.476V631H54.6292V616.524ZM71.467 627.584C72.027 627.584 72.5217 627.472 72.951 627.248C73.3804 627.024 73.735 626.725 74.015 626.352C74.295 625.979 74.5004 625.559 74.631 625.092C74.7804 624.607 74.855 624.103 74.855 623.58C74.855 622.983 74.799 622.423 74.687 621.9C74.575 621.359 74.3884 620.883 74.127 620.472C73.8657 620.061 73.5204 619.735 73.091 619.492C72.6617 619.249 72.1204 619.128 71.467 619.128C70.907 619.128 70.4217 619.24 70.011 619.464C69.619 619.688 69.283 619.996 69.003 620.388C68.7417 620.761 68.5457 621.2 68.415 621.704C68.303 622.189 68.247 622.703 68.247 623.244C68.247 623.767 68.2937 624.289 68.387 624.812C68.499 625.316 68.6764 625.773 68.919 626.184C69.1804 626.595 69.5164 626.931 69.927 627.192C70.3377 627.453 70.851 627.584 71.467 627.584ZM78.635 630.076C78.635 630.655 78.551 631.317 78.383 632.064C78.2337 632.811 77.8977 633.501 77.375 634.136C76.8524 634.789 76.0964 635.34 75.107 635.788C74.1177 636.236 72.7924 636.46 71.131 636.46C70.4217 636.46 69.6937 636.367 68.947 636.18C68.219 636.012 67.547 635.741 66.931 635.368C66.3337 634.995 65.8297 634.509 65.419 633.912C65.027 633.333 64.803 632.633 64.747 631.812H68.695C68.8817 632.559 69.2457 633.072 69.787 633.352C70.3284 633.651 70.9537 633.8 71.663 633.8C72.783 633.8 73.595 633.464 74.099 632.792C74.6217 632.12 74.8737 631.271 74.855 630.244V628.34H74.799C74.3697 629.105 73.7537 629.675 72.951 630.048C72.167 630.403 71.3364 630.58 70.459 630.58C69.3764 630.58 68.443 630.393 67.659 630.02C66.875 629.628 66.231 629.105 65.727 628.452C65.223 627.78 64.8497 627.005 64.607 626.128C64.383 625.232 64.271 624.289 64.271 623.3C64.271 622.367 64.4017 621.471 64.663 620.612C64.943 619.735 65.3444 618.969 65.867 618.316C66.3897 617.644 67.0337 617.112 67.799 616.72C68.583 616.328 69.479 616.132 70.487 616.132C71.439 616.132 72.2697 616.309 72.979 616.664C73.707 617.019 74.3137 617.616 74.799 618.456H74.855V616.524H78.635V630.076ZM81.6682 620.976C81.7242 620.043 81.9576 619.268 82.3682 618.652C82.7789 618.036 83.3016 617.541 83.9362 617.168C84.5709 616.795 85.2802 616.533 86.0642 616.384C86.8669 616.216 87.6696 616.132 88.4722 616.132C89.2002 616.132 89.9376 616.188 90.6842 616.3C91.4309 616.393 92.1122 616.589 92.7282 616.888C93.3442 617.187 93.8482 617.607 94.2402 618.148C94.6322 618.671 94.8282 619.371 94.8282 620.248V627.78C94.8282 628.433 94.8656 629.059 94.9402 629.656C95.0149 630.253 95.1456 630.701 95.3322 631H91.3002C91.2256 630.776 91.1602 630.552 91.1042 630.328C91.0669 630.085 91.0389 629.843 91.0202 629.6C90.3856 630.253 89.6389 630.711 88.7802 630.972C87.9216 631.233 87.0442 631.364 86.1482 631.364C85.4576 631.364 84.8136 631.28 84.2162 631.112C83.6189 630.944 83.0962 630.683 82.6482 630.328C82.2002 629.973 81.8456 629.525 81.5842 628.984C81.3416 628.443 81.2202 627.799 81.2202 627.052C81.2202 626.231 81.3602 625.559 81.6402 625.036C81.9389 624.495 82.3122 624.065 82.7602 623.748C83.2269 623.431 83.7496 623.197 84.3282 623.048C84.9256 622.88 85.5229 622.749 86.1202 622.656C86.7176 622.563 87.3056 622.488 87.8842 622.432C88.4629 622.376 88.9762 622.292 89.4242 622.18C89.8722 622.068 90.2269 621.909 90.4882 621.704C90.7496 621.48 90.8709 621.163 90.8522 620.752C90.8522 620.323 90.7776 619.987 90.6282 619.744C90.4976 619.483 90.3109 619.287 90.0682 619.156C89.8442 619.007 89.5736 618.913 89.2562 618.876C88.9576 618.82 88.6309 618.792 88.2762 618.792C87.4922 618.792 86.8762 618.96 86.4282 619.296C85.9802 619.632 85.7189 620.192 85.6442 620.976H81.6682ZM90.8522 623.916C90.6842 624.065 90.4696 624.187 90.2082 624.28C89.9656 624.355 89.6949 624.42 89.3962 624.476C89.1162 624.532 88.8176 624.579 88.5002 624.616C88.1829 624.653 87.8656 624.7 87.5482 624.756C87.2496 624.812 86.9509 624.887 86.6522 624.98C86.3722 625.073 86.1202 625.204 85.8962 625.372C85.6909 625.521 85.5229 625.717 85.3922 625.96C85.2616 626.203 85.1962 626.511 85.1962 626.884C85.1962 627.239 85.2616 627.537 85.3922 627.78C85.5229 628.023 85.7002 628.219 85.9242 628.368C86.1482 628.499 86.4096 628.592 86.7082 628.648C87.0069 628.704 87.3149 628.732 87.6322 628.732C88.4162 628.732 89.0229 628.601 89.4522 628.34C89.8816 628.079 90.1989 627.771 90.4042 627.416C90.6096 627.043 90.7309 626.669 90.7682 626.296C90.8242 625.923 90.8522 625.624 90.8522 625.4V623.916ZM97.9143 616.524H101.694V618.54H101.778C102.282 617.7 102.936 617.093 103.738 616.72C104.541 616.328 105.362 616.132 106.202 616.132C107.266 616.132 108.134 616.281 108.806 616.58C109.497 616.86 110.038 617.261 110.43 617.784C110.822 618.288 111.093 618.913 111.242 619.66C111.41 620.388 111.494 621.2 111.494 622.096V631H107.518V622.824C107.518 621.629 107.332 620.743 106.958 620.164C106.585 619.567 105.922 619.268 104.97 619.268C103.888 619.268 103.104 619.595 102.618 620.248C102.133 620.883 101.89 621.937 101.89 623.412V631H97.9143V616.524ZM118.6 614.284H114.624V611.008H118.6V614.284ZM114.624 616.524H118.6V631H114.624V616.524ZM131.587 621.62C131.325 619.959 130.345 619.128 128.647 619.128C128.012 619.128 127.48 619.277 127.051 619.576C126.621 619.856 126.267 620.229 125.987 620.696C125.725 621.144 125.539 621.648 125.427 622.208C125.315 622.749 125.259 623.291 125.259 623.832C125.259 624.355 125.315 624.887 125.427 625.428C125.539 625.969 125.716 626.464 125.959 626.912C126.22 627.341 126.565 627.696 126.995 627.976C127.424 628.256 127.947 628.396 128.563 628.396C129.515 628.396 130.243 628.135 130.747 627.612C131.269 627.071 131.596 626.352 131.727 625.456H135.563C135.301 627.379 134.555 628.844 133.323 629.852C132.091 630.86 130.513 631.364 128.591 631.364C127.508 631.364 126.509 631.187 125.595 630.832C124.699 630.459 123.933 629.945 123.299 629.292C122.664 628.639 122.169 627.864 121.815 626.968C121.46 626.053 121.283 625.055 121.283 623.972C121.283 622.852 121.441 621.816 121.759 620.864C122.095 619.893 122.58 619.063 123.215 618.372C123.849 617.663 124.624 617.112 125.539 616.72C126.453 616.328 127.499 616.132 128.675 616.132C129.533 616.132 130.355 616.244 131.139 616.468C131.941 616.692 132.651 617.037 133.267 617.504C133.901 617.952 134.415 618.521 134.807 619.212C135.199 619.884 135.423 620.687 135.479 621.62H131.587ZM148.682 626.296C148.682 626.725 148.766 627.099 148.934 627.416C149.121 627.715 149.354 627.967 149.634 628.172C149.914 628.359 150.231 628.499 150.586 628.592C150.959 628.685 151.342 628.732 151.734 628.732C152.014 628.732 152.303 628.704 152.602 628.648C152.919 628.573 153.199 628.471 153.442 628.34C153.703 628.191 153.918 628.004 154.086 627.78C154.254 627.537 154.338 627.239 154.338 626.884C154.338 626.287 153.937 625.839 153.134 625.54C152.35 625.241 151.249 624.943 149.83 624.644C149.251 624.513 148.682 624.364 148.122 624.196C147.581 624.009 147.095 623.776 146.666 623.496C146.237 623.197 145.891 622.833 145.63 622.404C145.369 621.956 145.238 621.415 145.238 620.78C145.238 619.847 145.415 619.081 145.77 618.484C146.143 617.887 146.629 617.42 147.226 617.084C147.823 616.729 148.495 616.487 149.242 616.356C149.989 616.207 150.754 616.132 151.538 616.132C152.322 616.132 153.078 616.207 153.806 616.356C154.553 616.505 155.215 616.757 155.794 617.112C156.373 617.467 156.849 617.943 157.222 618.54C157.614 619.119 157.847 619.856 157.922 620.752H154.142C154.086 619.987 153.797 619.473 153.274 619.212C152.751 618.932 152.135 618.792 151.426 618.792C151.202 618.792 150.959 618.811 150.698 618.848C150.437 618.867 150.194 618.923 149.97 619.016C149.765 619.109 149.587 619.249 149.438 619.436C149.289 619.604 149.214 619.837 149.214 620.136C149.214 620.491 149.345 620.78 149.606 621.004C149.867 621.228 150.203 621.415 150.614 621.564C151.043 621.695 151.529 621.816 152.07 621.928C152.611 622.04 153.162 622.161 153.722 622.292C154.301 622.423 154.861 622.581 155.402 622.768C155.962 622.955 156.457 623.207 156.886 623.524C157.315 623.823 157.661 624.205 157.922 624.672C158.183 625.12 158.314 625.68 158.314 626.352C158.314 627.304 158.118 628.107 157.726 628.76C157.353 629.395 156.858 629.908 156.242 630.3C155.626 630.692 154.917 630.963 154.114 631.112C153.33 631.28 152.527 631.364 151.706 631.364C150.866 631.364 150.045 631.28 149.242 631.112C148.439 630.944 147.721 630.664 147.086 630.272C146.47 629.88 145.957 629.367 145.546 628.732C145.154 628.079 144.939 627.267 144.902 626.296H148.682ZM160.641 611.008H164.617V618.54H164.701C165.205 617.7 165.849 617.093 166.633 616.72C167.417 616.328 168.182 616.132 168.929 616.132C169.993 616.132 170.861 616.281 171.533 616.58C172.224 616.86 172.765 617.261 173.157 617.784C173.549 618.288 173.82 618.913 173.969 619.66C174.137 620.388 174.221 621.2 174.221 622.096V631H170.245V622.824C170.245 621.629 170.058 620.743 169.685 620.164C169.312 619.567 168.649 619.268 167.697 619.268C166.614 619.268 165.83 619.595 165.345 620.248C164.86 620.883 164.617 621.937 164.617 623.412V631H160.641V611.008ZM177.071 620.976C177.127 620.043 177.36 619.268 177.771 618.652C178.181 618.036 178.704 617.541 179.339 617.168C179.973 616.795 180.683 616.533 181.467 616.384C182.269 616.216 183.072 616.132 183.875 616.132C184.603 616.132 185.34 616.188 186.087 616.3C186.833 616.393 187.515 616.589 188.131 616.888C188.747 617.187 189.251 617.607 189.643 618.148C190.035 618.671 190.231 619.371 190.231 620.248V627.78C190.231 628.433 190.268 629.059 190.343 629.656C190.417 630.253 190.548 630.701 190.735 631H186.703C186.628 630.776 186.563 630.552 186.507 630.328C186.469 630.085 186.441 629.843 186.423 629.6C185.788 630.253 185.041 630.711 184.183 630.972C183.324 631.233 182.447 631.364 181.551 631.364C180.86 631.364 180.216 631.28 179.619 631.112C179.021 630.944 178.499 630.683 178.051 630.328C177.603 629.973 177.248 629.525 176.987 628.984C176.744 628.443 176.623 627.799 176.623 627.052C176.623 626.231 176.763 625.559 177.043 625.036C177.341 624.495 177.715 624.065 178.163 623.748C178.629 623.431 179.152 623.197 179.731 623.048C180.328 622.88 180.925 622.749 181.523 622.656C182.12 622.563 182.708 622.488 183.287 622.432C183.865 622.376 184.379 622.292 184.827 622.18C185.275 622.068 185.629 621.909 185.891 621.704C186.152 621.48 186.273 621.163 186.255 620.752C186.255 620.323 186.18 619.987 186.031 619.744C185.9 619.483 185.713 619.287 185.471 619.156C185.247 619.007 184.976 618.913 184.659 618.876C184.36 618.82 184.033 618.792 183.679 618.792C182.895 618.792 182.279 618.96 181.831 619.296C181.383 619.632 181.121 620.192 181.047 620.976H177.071ZM186.255 623.916C186.087 624.065 185.872 624.187 185.611 624.28C185.368 624.355 185.097 624.42 184.799 624.476C184.519 624.532 184.22 624.579 183.903 624.616C183.585 624.653 183.268 624.7 182.951 624.756C182.652 624.812 182.353 624.887 182.055 624.98C181.775 625.073 181.523 625.204 181.299 625.372C181.093 625.521 180.925 625.717 180.795 625.96C180.664 626.203 180.599 626.511 180.599 626.884C180.599 627.239 180.664 627.537 180.795 627.78C180.925 628.023 181.103 628.219 181.327 628.368C181.551 628.499 181.812 628.592 182.111 628.648C182.409 628.704 182.717 628.732 183.035 628.732C183.819 628.732 184.425 628.601 184.855 628.34C185.284 628.079 185.601 627.771 185.807 627.416C186.012 627.043 186.133 626.669 186.171 626.296C186.227 625.923 186.255 625.624 186.255 625.4V623.916ZM200.625 628.396C201.278 628.396 201.819 628.265 202.249 628.004C202.697 627.743 203.051 627.407 203.313 626.996C203.593 626.567 203.789 626.072 203.901 625.512C204.013 624.952 204.069 624.383 204.069 623.804C204.069 623.225 204.003 622.656 203.873 622.096C203.761 621.536 203.565 621.041 203.285 620.612C203.005 620.164 202.641 619.809 202.193 619.548C201.763 619.268 201.231 619.128 200.597 619.128C199.943 619.128 199.393 619.268 198.945 619.548C198.515 619.809 198.161 620.155 197.881 620.584C197.619 621.013 197.433 621.508 197.321 622.068C197.209 622.628 197.153 623.207 197.153 623.804C197.153 624.383 197.209 624.952 197.321 625.512C197.451 626.072 197.647 626.567 197.909 626.996C198.189 627.407 198.553 627.743 199.001 628.004C199.449 628.265 199.99 628.396 200.625 628.396ZM193.317 616.524H197.097V618.372H197.153C197.638 617.588 198.254 617.019 199.001 616.664C199.747 616.309 200.569 616.132 201.465 616.132C202.603 616.132 203.583 616.347 204.405 616.776C205.226 617.205 205.907 617.775 206.449 618.484C206.99 619.193 207.391 620.024 207.653 620.976C207.914 621.909 208.045 622.889 208.045 623.916C208.045 624.887 207.914 625.82 207.653 626.716C207.391 627.612 206.99 628.405 206.449 629.096C205.926 629.787 205.263 630.337 204.461 630.748C203.677 631.159 202.753 631.364 201.689 631.364C200.793 631.364 199.962 631.187 199.197 630.832C198.45 630.459 197.834 629.917 197.349 629.208H197.293V636.068H193.317V616.524ZM220.178 622.208C219.991 621.2 219.655 620.435 219.17 619.912C218.703 619.389 217.985 619.128 217.014 619.128C216.379 619.128 215.847 619.24 215.418 619.464C215.007 619.669 214.671 619.931 214.41 620.248C214.167 620.565 213.99 620.901 213.878 621.256C213.785 621.611 213.729 621.928 213.71 622.208H220.178ZM213.71 624.728C213.766 626.016 214.093 626.949 214.69 627.528C215.287 628.107 216.146 628.396 217.266 628.396C218.069 628.396 218.759 628.2 219.338 627.808C219.917 627.397 220.271 626.968 220.402 626.52H223.902C223.342 628.256 222.483 629.497 221.326 630.244C220.169 630.991 218.769 631.364 217.126 631.364C215.987 631.364 214.961 631.187 214.046 630.832C213.131 630.459 212.357 629.936 211.722 629.264C211.087 628.592 210.593 627.789 210.238 626.856C209.902 625.923 209.734 624.896 209.734 623.776C209.734 622.693 209.911 621.685 210.266 620.752C210.621 619.819 211.125 619.016 211.778 618.344C212.431 617.653 213.206 617.112 214.102 616.72C215.017 616.328 216.025 616.132 217.126 616.132C218.358 616.132 219.431 616.375 220.346 616.86C221.261 617.327 222.007 617.961 222.586 618.764C223.183 619.567 223.613 620.481 223.874 621.508C224.135 622.535 224.229 623.608 224.154 624.728H213.71ZM229.592 626.296C229.592 626.725 229.676 627.099 229.844 627.416C230.031 627.715 230.264 627.967 230.544 628.172C230.824 628.359 231.141 628.499 231.496 628.592C231.869 628.685 232.252 628.732 232.644 628.732C232.924 628.732 233.213 628.704 233.512 628.648C233.829 628.573 234.109 628.471 234.352 628.34C234.613 628.191 234.828 628.004 234.996 627.78C235.164 627.537 235.248 627.239 235.248 626.884C235.248 626.287 234.847 625.839 234.044 625.54C233.26 625.241 232.159 624.943 230.74 624.644C230.161 624.513 229.592 624.364 229.032 624.196C228.491 624.009 228.005 623.776 227.576 623.496C227.147 623.197 226.801 622.833 226.54 622.404C226.279 621.956 226.148 621.415 226.148 620.78C226.148 619.847 226.325 619.081 226.68 618.484C227.053 617.887 227.539 617.42 228.136 617.084C228.733 616.729 229.405 616.487 230.152 616.356C230.899 616.207 231.664 616.132 232.448 616.132C233.232 616.132 233.988 616.207 234.716 616.356C235.463 616.505 236.125 616.757 236.704 617.112C237.283 617.467 237.759 617.943 238.132 618.54C238.524 619.119 238.757 619.856 238.832 620.752H235.052C234.996 619.987 234.707 619.473 234.184 619.212C233.661 618.932 233.045 618.792 232.336 618.792C232.112 618.792 231.869 618.811 231.608 618.848C231.347 618.867 231.104 618.923 230.88 619.016C230.675 619.109 230.497 619.249 230.348 619.436C230.199 619.604 230.124 619.837 230.124 620.136C230.124 620.491 230.255 620.78 230.516 621.004C230.777 621.228 231.113 621.415 231.524 621.564C231.953 621.695 232.439 621.816 232.98 621.928C233.521 622.04 234.072 622.161 234.632 622.292C235.211 622.423 235.771 622.581 236.312 622.768C236.872 622.955 237.367 623.207 237.796 623.524C238.225 623.823 238.571 624.205 238.832 624.672C239.093 625.12 239.224 625.68 239.224 626.352C239.224 627.304 239.028 628.107 238.636 628.76C238.263 629.395 237.768 629.908 237.152 630.3C236.536 630.692 235.827 630.963 235.024 631.112C234.24 631.28 233.437 631.364 232.616 631.364C231.776 631.364 230.955 631.28 230.152 631.112C229.349 630.944 228.631 630.664 227.996 630.272C227.38 629.88 226.867 629.367 226.456 628.732C226.064 628.079 225.849 627.267 225.812 626.296H229.592Z" fill="#FFFEF9"/>
<path d="M46.4 453.46H53.225V456.905H46.4V479.525C46.4 480.868 46.5733 481.93 46.92 482.71C47.31 483.447 48.2417 483.858 49.715 483.945C50.885 483.945 52.055 483.88 53.225 483.75V487.195C52.6183 487.195 52.0117 487.217 51.405 487.26C50.7983 487.303 50.1917 487.325 49.585 487.325C46.855 487.325 44.9483 486.805 43.865 485.765C42.7817 484.682 42.2617 482.71 42.305 479.85V456.905H36.455V453.46H42.305V443.385H46.4V453.46ZM57.1184 440.59H61.2134V459.245H61.3434C62.1234 457.208 63.5101 455.583 65.5034 454.37C67.4967 453.113 69.6851 452.485 72.0684 452.485C74.4084 452.485 76.3584 452.788 77.9184 453.395C79.5217 454.002 80.8001 454.868 81.7534 455.995C82.7067 457.078 83.3784 458.422 83.7684 460.025C84.1584 461.628 84.3534 463.427 84.3534 465.42V487H80.2584V466.07C80.2584 464.64 80.1284 463.318 79.8684 462.105C79.6084 460.848 79.1534 459.765 78.5034 458.855C77.8534 457.945 76.9651 457.23 75.8384 456.71C74.7551 456.19 73.3901 455.93 71.7434 455.93C70.0967 455.93 68.6234 456.233 67.3234 456.84C66.0667 457.403 64.9834 458.205 64.0734 459.245C63.2067 460.242 62.5134 461.455 61.9934 462.885C61.5167 464.272 61.2567 465.788 61.2134 467.435V487H57.1184V440.59ZM114.261 467.89C114.217 466.33 113.936 464.835 113.416 463.405C112.939 461.975 112.246 460.718 111.336 459.635C110.426 458.508 109.321 457.62 108.021 456.97C106.721 456.277 105.247 455.93 103.601 455.93C101.911 455.93 100.416 456.277 99.1155 456.97C97.8155 457.62 96.7105 458.508 95.8005 459.635C94.8905 460.718 94.1538 461.997 93.5905 463.47C93.0705 464.9 92.7238 466.373 92.5505 467.89H114.261ZM92.5505 471.335C92.5505 472.808 92.7455 474.347 93.1355 475.95C93.5688 477.51 94.2405 478.918 95.1505 480.175C96.0605 481.432 97.2088 482.472 98.5955 483.295C99.9822 484.118 101.651 484.53 103.601 484.53C106.591 484.53 108.931 483.75 110.621 482.19C112.311 480.63 113.481 478.55 114.131 475.95H118.226C117.359 479.763 115.756 482.71 113.416 484.79C111.119 486.87 107.847 487.91 103.601 487.91C100.957 487.91 98.6605 487.455 96.7105 486.545C94.8038 485.592 93.2438 484.313 92.0305 482.71C90.8172 481.063 89.9072 479.178 89.3005 477.055C88.7372 474.888 88.4555 472.613 88.4555 470.23C88.4555 468.02 88.7372 465.853 89.3005 463.73C89.9072 461.607 90.8172 459.722 92.0305 458.075C93.2438 456.385 94.8038 455.042 96.7105 454.045C98.6605 453.005 100.957 452.485 103.601 452.485C106.287 452.485 108.584 453.027 110.491 454.11C112.397 455.193 113.936 456.623 115.106 458.4C116.319 460.133 117.186 462.148 117.706 464.445C118.226 466.698 118.442 468.995 118.356 471.335H92.5505ZM137.912 453.395H146.622V457.945H146.752C147.966 456.212 149.417 454.868 151.107 453.915C152.841 452.962 154.812 452.485 157.022 452.485C159.146 452.485 161.074 452.897 162.807 453.72C164.584 454.543 165.927 455.995 166.837 458.075C167.834 456.602 169.177 455.302 170.867 454.175C172.601 453.048 174.637 452.485 176.977 452.485C178.754 452.485 180.401 452.702 181.917 453.135C183.434 453.568 184.734 454.262 185.817 455.215C186.901 456.168 187.746 457.425 188.352 458.985C188.959 460.502 189.262 462.343 189.262 464.51V487H180.032V467.955C180.032 466.828 179.989 465.767 179.902 464.77C179.816 463.773 179.577 462.907 179.187 462.17C178.797 461.433 178.212 460.848 177.432 460.415C176.696 459.982 175.677 459.765 174.377 459.765C173.077 459.765 172.016 460.025 171.192 460.545C170.412 461.022 169.784 461.672 169.307 462.495C168.874 463.275 168.571 464.185 168.397 465.225C168.267 466.222 168.202 467.24 168.202 468.28V487H158.972V468.15C158.972 467.153 158.951 466.178 158.907 465.225C158.864 464.228 158.669 463.318 158.322 462.495C158.019 461.672 157.477 461.022 156.697 460.545C155.961 460.025 154.856 459.765 153.382 459.765C152.949 459.765 152.364 459.873 151.627 460.09C150.934 460.263 150.241 460.632 149.547 461.195C148.897 461.715 148.334 462.495 147.857 463.535C147.381 464.532 147.142 465.853 147.142 467.5V487H137.912V453.395ZM204.099 448.195H194.869V440.59H204.099V448.195ZM194.869 453.395H204.099V487H194.869V453.395ZM233.271 470.1C233.271 468.713 233.141 467.392 232.881 466.135C232.621 464.835 232.166 463.708 231.516 462.755C230.91 461.758 230.108 460.957 229.111 460.35C228.115 459.743 226.858 459.44 225.341 459.44C223.825 459.44 222.546 459.743 221.506 460.35C220.466 460.957 219.621 461.758 218.971 462.755C218.365 463.752 217.91 464.9 217.606 466.2C217.346 467.457 217.216 468.778 217.216 470.165C217.216 471.465 217.368 472.765 217.671 474.065C217.975 475.365 218.451 476.535 219.101 477.575C219.795 478.572 220.64 479.395 221.636 480.045C222.676 480.652 223.911 480.955 225.341 480.955C226.858 480.955 228.115 480.652 229.111 480.045C230.151 479.438 230.975 478.637 231.581 477.64C232.188 476.6 232.621 475.43 232.881 474.13C233.141 472.83 233.271 471.487 233.271 470.1ZM233.401 482.71H233.271C232.188 484.53 230.758 485.852 228.981 486.675C227.248 487.455 225.276 487.845 223.066 487.845C220.553 487.845 218.343 487.368 216.436 486.415C214.53 485.418 212.948 484.097 211.691 482.45C210.478 480.76 209.546 478.832 208.896 476.665C208.29 474.498 207.986 472.245 207.986 469.905C207.986 467.652 208.29 465.485 208.896 463.405C209.546 461.282 210.478 459.418 211.691 457.815C212.948 456.212 214.508 454.933 216.371 453.98C218.235 452.983 220.401 452.485 222.871 452.485C224.865 452.485 226.75 452.918 228.526 453.785C230.346 454.608 231.776 455.843 232.816 457.49H232.946V440.59H242.176V487H233.401V482.71ZM247.138 465.29H266.703V473.22H247.138V465.29ZM294.602 465.225C293.996 461.368 291.721 459.44 287.777 459.44C286.304 459.44 285.069 459.787 284.072 460.48C283.076 461.13 282.252 461.997 281.602 463.08C280.996 464.12 280.562 465.29 280.302 466.59C280.042 467.847 279.912 469.103 279.912 470.36C279.912 471.573 280.042 472.808 280.302 474.065C280.562 475.322 280.974 476.47 281.537 477.51C282.144 478.507 282.946 479.33 283.942 479.98C284.939 480.63 286.152 480.955 287.582 480.955C289.792 480.955 291.482 480.348 292.652 479.135C293.866 477.878 294.624 476.21 294.927 474.13H303.832C303.226 478.593 301.492 481.995 298.632 484.335C295.772 486.675 292.111 487.845 287.647 487.845C285.134 487.845 282.816 487.433 280.692 486.61C278.612 485.743 276.836 484.552 275.362 483.035C273.889 481.518 272.741 479.72 271.917 477.64C271.094 475.517 270.682 473.198 270.682 470.685C270.682 468.085 271.051 465.68 271.787 463.47C272.567 461.217 273.694 459.288 275.167 457.685C276.641 456.038 278.439 454.76 280.562 453.85C282.686 452.94 285.112 452.485 287.842 452.485C289.836 452.485 291.742 452.745 293.562 453.265C295.426 453.785 297.072 454.587 298.502 455.67C299.976 456.71 301.167 458.032 302.077 459.635C302.987 461.195 303.507 463.058 303.637 465.225H294.602ZM329.717 466.59C329.283 464.25 328.503 462.473 327.377 461.26C326.293 460.047 324.625 459.44 322.372 459.44C320.898 459.44 319.663 459.7 318.667 460.22C317.713 460.697 316.933 461.303 316.327 462.04C315.763 462.777 315.352 463.557 315.092 464.38C314.875 465.203 314.745 465.94 314.702 466.59H329.717ZM314.702 472.44C314.832 475.43 315.59 477.597 316.977 478.94C318.363 480.283 320.357 480.955 322.957 480.955C324.82 480.955 326.423 480.5 327.767 479.59C329.11 478.637 329.933 477.64 330.237 476.6H338.362C337.062 480.63 335.068 483.512 332.382 485.245C329.695 486.978 326.445 487.845 322.632 487.845C319.988 487.845 317.605 487.433 315.482 486.61C313.358 485.743 311.56 484.53 310.087 482.97C308.613 481.41 307.465 479.547 306.642 477.38C305.862 475.213 305.472 472.83 305.472 470.23C305.472 467.717 305.883 465.377 306.707 463.21C307.53 461.043 308.7 459.18 310.217 457.62C311.733 456.017 313.532 454.76 315.612 453.85C317.735 452.94 320.075 452.485 322.632 452.485C325.492 452.485 327.983 453.048 330.107 454.175C332.23 455.258 333.963 456.732 335.307 458.595C336.693 460.458 337.69 462.582 338.297 464.965C338.903 467.348 339.12 469.84 338.947 472.44H314.702ZM342.471 453.395H351.246V458.075H351.441C352.611 456.125 354.128 454.717 355.991 453.85C357.854 452.94 359.761 452.485 361.711 452.485C364.181 452.485 366.196 452.832 367.756 453.525C369.359 454.175 370.616 455.107 371.526 456.32C372.436 457.49 373.064 458.942 373.411 460.675C373.801 462.365 373.996 464.25 373.996 466.33V487H364.766V468.02C364.766 465.247 364.333 463.188 363.466 461.845C362.599 460.458 361.061 459.765 358.851 459.765C356.338 459.765 354.518 460.523 353.391 462.04C352.264 463.513 351.701 465.962 351.701 469.385V487H342.471V453.395ZM390.751 453.395H397.511V459.57H390.751V476.21C390.751 477.77 391.011 478.81 391.531 479.33C392.051 479.85 393.091 480.11 394.651 480.11C395.171 480.11 395.67 480.088 396.146 480.045C396.623 480.002 397.078 479.937 397.511 479.85V487C396.731 487.13 395.865 487.217 394.911 487.26C393.958 487.303 393.026 487.325 392.116 487.325C390.686 487.325 389.321 487.217 388.021 487C386.765 486.827 385.638 486.458 384.641 485.895C383.688 485.332 382.93 484.53 382.366 483.49C381.803 482.45 381.521 481.085 381.521 479.395V459.57H375.931V453.395H381.521V443.32H390.751V453.395ZM431.478 487H422.703V482.32H422.508C421.338 484.27 419.821 485.678 417.958 486.545C416.094 487.412 414.188 487.845 412.238 487.845C409.768 487.845 407.731 487.52 406.128 486.87C404.568 486.22 403.333 485.31 402.423 484.14C401.513 482.927 400.863 481.475 400.473 479.785C400.126 478.052 399.953 476.145 399.953 474.065V453.395H409.183V472.375C409.183 475.148 409.616 477.228 410.483 478.615C411.349 479.958 412.888 480.63 415.098 480.63C417.611 480.63 419.431 479.893 420.558 478.42C421.684 476.903 422.248 474.433 422.248 471.01V453.395H431.478V487ZM436.533 453.395H445.308V459.635H445.438C445.871 458.595 446.456 457.642 447.193 456.775C447.93 455.865 448.775 455.107 449.728 454.5C450.681 453.85 451.7 453.352 452.783 453.005C453.866 452.658 454.993 452.485 456.163 452.485C456.77 452.485 457.441 452.593 458.178 452.81V461.39C457.745 461.303 457.225 461.238 456.618 461.195C456.011 461.108 455.426 461.065 454.863 461.065C453.173 461.065 451.743 461.347 450.573 461.91C449.403 462.473 448.45 463.253 447.713 464.25C447.02 465.203 446.521 466.33 446.218 467.63C445.915 468.93 445.763 470.338 445.763 471.855V487H436.533V453.395ZM476.422 491.16C475.425 493.89 474.038 495.84 472.262 497.01C470.485 498.18 468.015 498.765 464.852 498.765C463.898 498.765 462.945 498.722 461.992 498.635C461.082 498.592 460.15 498.527 459.197 498.44V490.835C460.063 490.922 460.952 491.008 461.862 491.095C462.772 491.182 463.682 491.203 464.592 491.16C465.805 491.03 466.693 490.553 467.257 489.73C467.863 488.907 468.167 487.997 468.167 487C468.167 486.263 468.037 485.57 467.777 484.92L456.012 453.395H465.827L473.432 476.405H473.562L480.907 453.395H490.462L476.422 491.16Z" fill="#FFFEF9"/>
<path d="M39.77 514.395H48.48V518.945H48.61C49.8233 517.212 51.275 515.868 52.965 514.915C54.6983 513.962 56.67 513.485 58.88 513.485C61.0033 513.485 62.9317 513.897 64.665 514.72C66.4417 515.543 67.785 516.995 68.695 519.075C69.6917 517.602 71.035 516.302 72.725 515.175C74.4583 514.048 76.495 513.485 78.835 513.485C80.6117 513.485 82.2583 513.702 83.775 514.135C85.2917 514.568 86.5917 515.262 87.675 516.215C88.7583 517.168 89.6033 518.425 90.21 519.985C90.8167 521.502 91.12 523.343 91.12 525.51V548H81.89V528.955C81.89 527.828 81.8467 526.767 81.76 525.77C81.6733 524.773 81.435 523.907 81.045 523.17C80.655 522.433 80.07 521.848 79.29 521.415C78.5533 520.982 77.535 520.765 76.235 520.765C74.935 520.765 73.8733 521.025 73.05 521.545C72.27 522.022 71.6417 522.672 71.165 523.495C70.7317 524.275 70.4283 525.185 70.255 526.225C70.125 527.222 70.06 528.24 70.06 529.28V548H60.83V529.15C60.83 528.153 60.8083 527.178 60.765 526.225C60.7217 525.228 60.5267 524.318 60.18 523.495C59.8767 522.672 59.335 522.022 58.555 521.545C57.8183 521.025 56.7133 520.765 55.24 520.765C54.8067 520.765 54.2217 520.873 53.485 521.09C52.7917 521.263 52.0983 521.632 51.405 522.195C50.755 522.715 50.1917 523.495 49.715 524.535C49.2383 525.532 49 526.853 49 528.5V548H39.77V514.395ZM104.656 531.23C104.656 532.573 104.786 533.895 105.046 535.195C105.306 536.452 105.74 537.6 106.346 538.64C106.996 539.637 107.841 540.438 108.881 541.045C109.921 541.652 111.221 541.955 112.781 541.955C114.341 541.955 115.641 541.652 116.681 541.045C117.765 540.438 118.61 539.637 119.216 538.64C119.866 537.6 120.321 536.452 120.581 535.195C120.841 533.895 120.971 532.573 120.971 531.23C120.971 529.887 120.841 528.565 120.581 527.265C120.321 525.965 119.866 524.817 119.216 523.82C118.61 522.823 117.765 522.022 116.681 521.415C115.641 520.765 114.341 520.44 112.781 520.44C111.221 520.44 109.921 520.765 108.881 521.415C107.841 522.022 106.996 522.823 106.346 523.82C105.74 524.817 105.306 525.965 105.046 527.265C104.786 528.565 104.656 529.887 104.656 531.23ZM95.4262 531.23C95.4262 528.543 95.8379 526.117 96.6612 523.95C97.4846 521.74 98.6546 519.877 100.171 518.36C101.688 516.8 103.508 515.608 105.631 514.785C107.755 513.918 110.138 513.485 112.781 513.485C115.425 513.485 117.808 513.918 119.931 514.785C122.098 515.608 123.94 516.8 125.456 518.36C126.973 519.877 128.143 521.74 128.966 523.95C129.79 526.117 130.201 528.543 130.201 531.23C130.201 533.917 129.79 536.343 128.966 538.51C128.143 540.677 126.973 542.54 125.456 544.1C123.94 545.617 122.098 546.787 119.931 547.61C117.808 548.433 115.425 548.845 112.781 548.845C110.138 548.845 107.755 548.433 105.631 547.61C103.508 546.787 101.688 545.617 100.171 544.1C98.6546 542.54 97.4846 540.677 96.6612 538.51C95.8379 536.343 95.4262 533.917 95.4262 531.23ZM158.108 531.1C158.108 529.713 157.978 528.392 157.718 527.135C157.458 525.835 157.003 524.708 156.353 523.755C155.746 522.758 154.944 521.957 153.948 521.35C152.951 520.743 151.694 520.44 150.178 520.44C148.661 520.44 147.383 520.743 146.343 521.35C145.303 521.957 144.458 522.758 143.808 523.755C143.201 524.752 142.746 525.9 142.443 527.2C142.183 528.457 142.053 529.778 142.053 531.165C142.053 532.465 142.204 533.765 142.508 535.065C142.811 536.365 143.288 537.535 143.938 538.575C144.631 539.572 145.476 540.395 146.473 541.045C147.513 541.652 148.748 541.955 150.178 541.955C151.694 541.955 152.951 541.652 153.948 541.045C154.988 540.438 155.811 539.637 156.418 538.64C157.024 537.6 157.458 536.43 157.718 535.13C157.978 533.83 158.108 532.487 158.108 531.1ZM158.238 543.71H158.108C157.024 545.53 155.594 546.852 153.818 547.675C152.084 548.455 150.113 548.845 147.903 548.845C145.389 548.845 143.179 548.368 141.273 547.415C139.366 546.418 137.784 545.097 136.528 543.45C135.314 541.76 134.383 539.832 133.733 537.665C133.126 535.498 132.823 533.245 132.823 530.905C132.823 528.652 133.126 526.485 133.733 524.405C134.383 522.282 135.314 520.418 136.528 518.815C137.784 517.212 139.344 515.933 141.208 514.98C143.071 513.983 145.238 513.485 147.708 513.485C149.701 513.485 151.586 513.918 153.363 514.785C155.183 515.608 156.613 516.843 157.653 518.49H157.783V501.59H167.013V548H158.238V543.71ZM194.659 527.59C194.226 525.25 193.446 523.473 192.319 522.26C191.236 521.047 189.567 520.44 187.314 520.44C185.841 520.44 184.606 520.7 183.609 521.22C182.656 521.697 181.876 522.303 181.269 523.04C180.706 523.777 180.294 524.557 180.034 525.38C179.817 526.203 179.687 526.94 179.644 527.59H194.659ZM179.644 533.44C179.774 536.43 180.532 538.597 181.919 539.94C183.306 541.283 185.299 541.955 187.899 541.955C189.762 541.955 191.366 541.5 192.709 540.59C194.052 539.637 194.876 538.64 195.179 537.6H203.304C202.004 541.63 200.011 544.512 197.324 546.245C194.637 547.978 191.387 548.845 187.574 548.845C184.931 548.845 182.547 548.433 180.424 547.61C178.301 546.743 176.502 545.53 175.029 543.97C173.556 542.41 172.407 540.547 171.584 538.38C170.804 536.213 170.414 533.83 170.414 531.23C170.414 528.717 170.826 526.377 171.649 524.21C172.472 522.043 173.642 520.18 175.159 518.62C176.676 517.017 178.474 515.76 180.554 514.85C182.677 513.94 185.017 513.485 187.574 513.485C190.434 513.485 192.926 514.048 195.049 515.175C197.172 516.258 198.906 517.732 200.249 519.595C201.636 521.458 202.632 523.582 203.239 525.965C203.846 528.348 204.062 530.84 203.889 533.44H179.644ZM207.413 514.395H216.188V520.635H216.318C216.751 519.595 217.336 518.642 218.073 517.775C218.81 516.865 219.655 516.107 220.608 515.5C221.561 514.85 222.58 514.352 223.663 514.005C224.746 513.658 225.873 513.485 227.043 513.485C227.65 513.485 228.321 513.593 229.058 513.81V522.39C228.625 522.303 228.105 522.238 227.498 522.195C226.891 522.108 226.306 522.065 225.743 522.065C224.053 522.065 222.623 522.347 221.453 522.91C220.283 523.473 219.33 524.253 218.593 525.25C217.9 526.203 217.401 527.33 217.098 528.63C216.795 529.93 216.643 531.338 216.643 532.855V548H207.413V514.395ZM231.869 514.395H240.644V519.075H240.839C242.009 517.125 243.526 515.717 245.389 514.85C247.253 513.94 249.159 513.485 251.109 513.485C253.579 513.485 255.594 513.832 257.154 514.525C258.758 515.175 260.014 516.107 260.924 517.32C261.834 518.49 262.463 519.942 262.809 521.675C263.199 523.365 263.394 525.25 263.394 527.33V548H254.164V529.02C254.164 526.247 253.731 524.188 252.864 522.845C251.998 521.458 250.459 520.765 248.249 520.765C245.736 520.765 243.916 521.523 242.789 523.04C241.663 524.513 241.099 526.962 241.099 530.385V548H231.869V514.395ZM309.095 528.89C309.052 527.33 308.77 525.835 308.25 524.405C307.774 522.975 307.08 521.718 306.17 520.635C305.26 519.508 304.155 518.62 302.855 517.97C301.555 517.277 300.082 516.93 298.435 516.93C296.745 516.93 295.25 517.277 293.95 517.97C292.65 518.62 291.545 519.508 290.635 520.635C289.725 521.718 288.989 522.997 288.425 524.47C287.905 525.9 287.559 527.373 287.385 528.89H309.095ZM287.385 532.335C287.385 533.808 287.58 535.347 287.97 536.95C288.404 538.51 289.075 539.918 289.985 541.175C290.895 542.432 292.044 543.472 293.43 544.295C294.817 545.118 296.485 545.53 298.435 545.53C301.425 545.53 303.765 544.75 305.455 543.19C307.145 541.63 308.315 539.55 308.965 536.95H313.06C312.194 540.763 310.59 543.71 308.25 545.79C305.954 547.87 302.682 548.91 298.435 548.91C295.792 548.91 293.495 548.455 291.545 547.545C289.639 546.592 288.079 545.313 286.865 543.71C285.652 542.063 284.742 540.178 284.135 538.055C283.572 535.888 283.29 533.613 283.29 531.23C283.29 529.02 283.572 526.853 284.135 524.73C284.742 522.607 285.652 520.722 286.865 519.075C288.079 517.385 289.639 516.042 291.545 515.045C293.495 514.005 295.792 513.485 298.435 513.485C301.122 513.485 303.419 514.027 305.325 515.11C307.232 516.193 308.77 517.623 309.94 519.4C311.154 521.133 312.02 523.148 312.54 525.445C313.06 527.698 313.277 529.995 313.19 532.335H287.385ZM346.247 548H342.477V541.63H342.347C341.913 542.713 341.263 543.71 340.397 544.62C339.573 545.53 338.62 546.31 337.537 546.96C336.453 547.567 335.283 548.043 334.027 548.39C332.813 548.737 331.6 548.91 330.387 548.91C327.83 548.91 325.598 548.455 323.692 547.545C321.828 546.592 320.268 545.313 319.012 543.71C317.755 542.063 316.823 540.178 316.217 538.055C315.61 535.888 315.307 533.613 315.307 531.23C315.307 528.847 315.61 526.593 316.217 524.47C316.823 522.303 317.755 520.418 319.012 518.815C320.268 517.168 321.828 515.868 323.692 514.915C325.598 513.962 327.83 513.485 330.387 513.485C331.643 513.485 332.857 513.637 334.027 513.94C335.24 514.243 336.367 514.72 337.407 515.37C338.447 515.977 339.357 516.735 340.137 517.645C340.96 518.555 341.588 519.617 342.022 520.83H342.152V501.59H346.247V548ZM319.402 531.23C319.402 532.963 319.597 534.697 319.987 536.43C320.42 538.12 321.07 539.637 321.937 540.98C322.847 542.323 323.995 543.428 325.382 544.295C326.768 545.118 328.437 545.53 330.387 545.53C332.553 545.53 334.373 545.118 335.847 544.295C337.363 543.428 338.577 542.323 339.487 540.98C340.44 539.637 341.112 538.12 341.502 536.43C341.935 534.697 342.152 532.963 342.152 531.23C342.152 529.497 341.935 527.785 341.502 526.095C341.112 524.362 340.44 522.823 339.487 521.48C338.577 520.137 337.363 519.053 335.847 518.23C334.373 517.363 332.553 516.93 330.387 516.93C328.437 516.93 326.768 517.363 325.382 518.23C323.995 519.053 322.847 520.137 321.937 521.48C321.07 522.823 320.42 524.362 319.987 526.095C319.597 527.785 319.402 529.497 319.402 531.23ZM352.176 501.59H356.271V508.155H352.176V501.59ZM352.176 514.46H356.271V548H352.176V514.46ZM368.658 514.46H375.483V517.905H368.658V540.525C368.658 541.868 368.831 542.93 369.178 543.71C369.568 544.447 370.499 544.858 371.973 544.945C373.143 544.945 374.313 544.88 375.483 544.75V548.195C374.876 548.195 374.269 548.217 373.663 548.26C373.056 548.303 372.449 548.325 371.843 548.325C369.113 548.325 367.206 547.805 366.123 546.765C365.039 545.682 364.519 543.71 364.563 540.85V517.905H358.713V514.46H364.563V504.385H368.658V514.46Z" fill="#FFFEF9"/>
<path d="M631.06 611.31H627.914V609.632H627.844C627.424 610.331 626.88 610.836 626.212 611.147C625.544 611.458 624.861 611.613 624.161 611.613C623.276 611.613 622.545 611.497 621.97 611.263C621.411 611.03 620.968 610.704 620.642 610.285C620.316 609.849 620.083 609.329 619.943 608.723C619.818 608.101 619.756 607.418 619.756 606.672V599.26H623.066V606.066C623.066 607.06 623.221 607.806 623.532 608.303C623.843 608.785 624.394 609.026 625.187 609.026C626.088 609.026 626.741 608.762 627.145 608.234C627.549 607.69 627.751 606.804 627.751 605.577V599.26H631.06V611.31ZM639.655 609.143C640.199 609.143 640.65 609.034 641.007 608.816C641.38 608.599 641.675 608.319 641.893 607.977C642.126 607.62 642.289 607.208 642.382 606.742C642.475 606.276 642.522 605.802 642.522 605.32C642.522 604.838 642.468 604.365 642.359 603.898C642.266 603.432 642.102 603.021 641.869 602.663C641.636 602.29 641.333 601.995 640.96 601.778C640.603 601.544 640.16 601.428 639.632 601.428C639.088 601.428 638.63 601.544 638.257 601.778C637.899 601.995 637.604 602.282 637.371 602.64C637.154 602.997 636.998 603.409 636.905 603.875C636.812 604.341 636.765 604.823 636.765 605.32C636.765 605.802 636.812 606.276 636.905 606.742C637.014 607.208 637.177 607.62 637.394 607.977C637.627 608.319 637.93 608.599 638.303 608.816C638.676 609.034 639.127 609.143 639.655 609.143ZM633.572 599.26H636.718V600.799H636.765C637.169 600.146 637.682 599.672 638.303 599.377C638.925 599.082 639.609 598.934 640.354 598.934C641.302 598.934 642.118 599.113 642.802 599.47C643.485 599.827 644.052 600.301 644.503 600.892C644.954 601.482 645.288 602.174 645.505 602.966C645.723 603.743 645.832 604.559 645.832 605.413C645.832 606.221 645.723 606.998 645.505 607.744C645.288 608.49 644.954 609.15 644.503 609.725C644.068 610.3 643.516 610.758 642.848 611.1C642.196 611.442 641.427 611.613 640.541 611.613C639.795 611.613 639.104 611.465 638.467 611.17C637.845 610.859 637.332 610.409 636.928 609.818H636.882V615.529H633.572V599.26ZM658.502 599.26H660.926V601.475H658.502V607.441C658.502 608 658.596 608.373 658.782 608.56C658.968 608.746 659.341 608.84 659.901 608.84C660.087 608.84 660.266 608.832 660.437 608.816C660.608 608.801 660.771 608.777 660.926 608.746V611.31C660.647 611.357 660.336 611.388 659.994 611.403C659.652 611.419 659.318 611.427 658.992 611.427C658.479 611.427 657.99 611.388 657.523 611.31C657.073 611.248 656.669 611.116 656.311 610.914C655.97 610.712 655.698 610.424 655.496 610.051C655.294 609.679 655.193 609.189 655.193 608.583V601.475H653.188V599.26H655.193V595.648H658.502V599.26ZM665.438 605.297C665.438 605.779 665.484 606.252 665.577 606.719C665.671 607.169 665.826 607.581 666.044 607.954C666.277 608.311 666.58 608.599 666.953 608.816C667.325 609.034 667.792 609.143 668.351 609.143C668.91 609.143 669.376 609.034 669.749 608.816C670.138 608.599 670.441 608.311 670.658 607.954C670.891 607.581 671.055 607.169 671.148 606.719C671.241 606.252 671.288 605.779 671.288 605.297C671.288 604.815 671.241 604.341 671.148 603.875C671.055 603.409 670.891 602.997 670.658 602.64C670.441 602.282 670.138 601.995 669.749 601.778C669.376 601.544 668.91 601.428 668.351 601.428C667.792 601.428 667.325 601.544 666.953 601.778C666.58 601.995 666.277 602.282 666.044 602.64C665.826 602.997 665.671 603.409 665.577 603.875C665.484 604.341 665.438 604.815 665.438 605.297ZM662.128 605.297C662.128 604.334 662.276 603.463 662.571 602.686C662.866 601.894 663.286 601.226 663.829 600.682C664.373 600.123 665.026 599.695 665.787 599.4C666.549 599.089 667.403 598.934 668.351 598.934C669.299 598.934 670.153 599.089 670.915 599.4C671.692 599.695 672.352 600.123 672.896 600.682C673.44 601.226 673.859 601.894 674.154 602.686C674.45 603.463 674.597 604.334 674.597 605.297C674.597 606.26 674.45 607.13 674.154 607.907C673.859 608.684 673.44 609.352 672.896 609.912C672.352 610.455 671.692 610.875 670.915 611.17C670.153 611.465 669.299 611.613 668.351 611.613C667.403 611.613 666.549 611.465 665.787 611.17C665.026 610.875 664.373 610.455 663.829 609.912C663.286 609.352 662.866 608.684 662.571 607.907C662.276 607.13 662.128 606.26 662.128 605.297Z" fill="#837A3E"/>
<path d="M723.908 683.534V686.558H729.423V691.411H723.908V716.078H717.433V691.411H707.602V716.078H701.123V691.411H696.293V686.558H701.123V684.105C701.123 682.242 701.351 680.728 701.807 679.564C702.176 678.529 702.802 677.606 703.627 676.884C704.374 676.259 705.262 675.827 706.213 675.626C707.212 675.413 708.23 675.308 709.251 675.313C711.333 675.313 712.848 675.446 713.797 675.712V680.791C713.359 680.674 712.913 680.589 712.463 680.537C711.906 680.475 711.346 680.446 710.787 680.451C709.993 680.429 709.211 680.648 708.543 681.08C707.918 681.499 707.605 682.317 707.605 683.534V686.558H717.436V684.105C717.436 682.242 717.664 680.728 718.121 679.564C718.489 678.53 719.114 677.607 719.937 676.884C720.685 676.26 721.572 675.829 722.523 675.626C723.523 675.413 724.542 675.309 725.564 675.313C727.648 675.313 729.164 675.446 730.11 675.712V680.791C729.672 680.674 729.226 680.589 728.776 680.537C728.22 680.475 727.66 680.446 727.1 680.451C726.305 680.429 725.522 680.648 724.853 681.08C724.223 681.499 723.908 682.321 723.908 683.534Z" fill="#837A3E"/>
<path d="M691.72 690.157C690.413 688.76 688.825 687.659 687.061 686.93C685.067 686.12 682.93 685.723 680.78 685.761C679.626 685.755 678.473 685.86 677.339 686.074L713.472 624.29H710.982L695.277 651.118C695.051 650.166 694.808 649.238 694.548 648.344C692.662 641.929 690.092 636.787 686.838 632.92C683.584 629.052 679.821 626.285 675.55 624.62C671.177 622.941 666.531 622.097 661.85 622.131C657.215 622.106 652.617 622.949 648.29 624.62C644.021 626.278 640.28 629.045 637.067 632.92C633.854 636.794 631.311 641.936 629.439 648.344C627.553 654.76 626.611 662.664 626.613 672.058C626.613 681.741 627.555 689.834 629.439 696.336C631.322 702.839 633.869 708.026 637.077 711.898C640.29 715.771 644.032 718.537 648.301 720.198C650.11 720.901 651.974 721.455 653.873 721.855L650.852 727H653.404L666.273 705.004C666.433 705.877 666.662 706.735 666.957 707.571C667.572 709.393 668.559 711.066 669.854 712.483C671.161 713.881 672.751 714.981 674.517 715.71C678.559 717.268 683.032 717.268 687.074 715.71C688.839 714.98 690.427 713.88 691.733 712.483C693.029 711.066 694.016 709.393 694.631 707.571C695.958 703.51 695.958 699.129 694.631 695.068C694.011 693.245 693.02 691.572 691.72 690.157ZM661.847 706.654C657.899 706.654 654.871 705.363 652.761 702.78C650.569 700.042 648.995 696.857 648.15 693.446C647.18 689.737 646.607 685.935 646.44 682.104C646.255 678.186 646.164 674.843 646.166 672.076C646.166 670.417 646.189 668.411 646.234 666.058C646.28 663.705 646.441 661.284 646.717 658.796C646.99 656.298 647.447 653.825 648.085 651.396C648.67 649.09 649.574 646.878 650.77 644.825C651.866 642.942 653.373 641.334 655.176 640.12C656.964 638.924 659.19 638.325 661.853 638.322C664.517 638.32 666.767 638.919 668.602 640.12C670.446 641.329 671.998 642.936 673.145 644.825C674.377 646.86 675.283 649.078 675.83 651.396C676.422 653.835 676.879 656.306 677.199 658.796C677.513 661.205 677.697 663.629 677.749 666.058C677.793 668.408 677.816 670.414 677.818 672.076C677.818 674.667 677.737 677.76 677.575 681.355L662.784 706.619C662.479 706.64 662.165 706.65 661.847 706.65V706.654ZM688.651 705.09C688.349 706.284 687.839 707.415 687.146 708.431C686.466 709.42 685.573 710.242 684.533 710.836C683.373 711.437 682.087 711.751 680.782 711.751C679.477 711.751 678.191 711.437 677.031 710.836C675.989 710.245 675.095 709.422 674.418 708.431C673.722 707.416 673.212 706.285 672.912 705.09C672.265 702.612 672.265 700.007 672.912 697.529C673.204 696.331 673.715 695.199 674.418 694.188C675.104 693.214 675.996 692.406 677.031 691.82C678.191 691.22 679.477 690.906 680.782 690.906C682.087 690.906 683.373 691.22 684.533 691.82C685.566 692.407 686.459 693.216 687.146 694.188C687.847 695.2 688.357 696.332 688.651 697.529C689.294 700.008 689.294 702.611 688.651 705.09Z" fill="#837A3E"/>
<path d="M703.158 628.173C703.02 627.493 702.747 626.848 702.355 626.276C701.971 625.735 701.463 625.296 700.873 624.994C700.16 624.658 699.376 624.496 698.588 624.523C697.821 624.505 697.06 624.661 696.361 624.981C695.754 625.271 695.223 625.699 694.808 626.232C694.387 626.784 694.079 627.415 693.902 628.087C693.702 628.825 693.603 629.587 693.608 630.352C693.602 631.11 693.686 631.866 693.857 632.604C694 633.255 694.28 633.867 694.679 634.401C695.072 634.911 695.586 635.315 696.173 635.576C696.889 635.882 697.663 636.029 698.441 636.006C699.204 636.024 699.962 635.884 700.668 635.594C701.265 635.339 701.793 634.946 702.207 634.446C702.621 633.929 702.925 633.332 703.1 632.693C703.302 631.969 703.401 631.221 703.394 630.469C703.398 629.698 703.318 628.928 703.158 628.173V628.173ZM700.36 631.487C700.334 631.859 700.256 632.226 700.128 632.576C700.008 632.91 699.806 633.208 699.539 633.442C699.227 633.672 698.85 633.796 698.464 633.796C698.077 633.796 697.7 633.672 697.388 633.442C697.133 633.205 696.941 632.907 696.83 632.576C696.711 632.22 696.642 631.848 696.625 631.473C696.608 631.078 696.597 630.727 696.597 630.411C696.597 630.095 696.597 629.696 696.642 629.263C696.666 628.851 696.749 628.445 696.888 628.057C697.015 627.701 697.221 627.379 697.49 627.115C697.791 626.847 698.186 626.709 698.588 626.733C698.779 626.721 698.97 626.752 699.148 626.823C699.325 626.895 699.485 627.005 699.615 627.146C699.866 627.435 700.05 627.777 700.155 628.146C700.273 628.543 700.347 628.952 700.374 629.366C700.405 629.789 700.418 630.146 700.418 630.442C700.418 630.737 700.391 631.112 700.36 631.487V631.487ZM718.275 638.017C718.139 637.353 717.865 636.727 717.471 636.178C717.083 635.651 716.575 635.227 715.989 634.94C715.274 634.612 714.491 634.455 713.704 634.483C712.939 634.464 712.178 634.616 711.478 634.927C710.875 635.202 710.344 635.615 709.928 636.133C709.506 636.663 709.197 637.273 709.018 637.927C708.817 638.656 708.718 639.409 708.724 640.165C708.72 640.928 708.804 641.689 708.974 642.433C709.122 643.095 709.401 643.72 709.795 644.272C710.183 644.798 710.697 645.218 711.289 645.492C712.003 645.807 712.778 645.959 713.557 645.935C714.322 645.954 715.081 645.807 715.784 645.505C716.386 645.241 716.915 644.833 717.324 644.316C717.736 643.782 718.039 643.171 718.216 642.519C718.417 641.79 718.516 641.037 718.511 640.281C718.516 639.517 718.437 638.754 718.275 638.006V638.017ZM715.476 641.299C715.45 641.69 715.372 642.076 715.244 642.447C715.124 642.798 714.924 643.116 714.659 643.375C714.366 643.639 713.981 643.777 713.588 643.756C713.391 643.769 713.194 643.742 713.007 643.676C712.821 643.611 712.65 643.508 712.504 643.375C712.248 643.113 712.057 642.796 711.946 642.447C711.828 642.07 711.759 641.68 711.741 641.285C711.724 640.873 711.714 640.508 711.714 640.195C711.714 639.883 711.714 639.487 711.758 639.075C711.782 638.682 711.867 638.295 712.008 637.927C712.133 637.588 712.338 637.285 712.606 637.044C712.918 636.797 713.309 636.674 713.704 636.7C713.894 636.688 714.084 636.718 714.261 636.787C714.438 636.856 714.598 636.962 714.731 637.099C714.977 637.369 715.161 637.691 715.271 638.041C715.39 638.413 715.464 638.798 715.49 639.188C715.521 639.591 715.535 639.941 715.535 640.22C715.535 640.498 715.507 640.886 715.476 641.288V641.299Z" fill="#837A3E"/>
<path d="M732.646 680.259L733.197 678.623L735.951 679.706V676.688H737.661V679.706L740.398 678.623L740.996 680.259L738.144 681.215L739.895 683.576L738.571 684.555L736.792 682.095L735.082 684.555L733.68 683.576L735.431 681.215L732.646 680.259Z" fill="#837A3E"/>
<path d="M552.996 698.241V680.283L594.797 623.919H612.243V682.081H625.033V698.234H612.243V720.615H593.682V698.234L552.996 698.241ZM593.282 648.51L568.396 682.081H593.709V648.51H593.282Z" fill="#837A3E"/>
</svg>
