<svg width="767" height="430" viewBox="0 0 767 430" fill="none" xmlns="http://www.w3.org/2000/svg">
<path d="M122.712 292.537C122.541 290.894 121.944 289.71 120.92 288.985C119.917 288.238 118.627 287.865 117.048 287.865C116.408 287.865 115.779 287.929 115.16 288.057C114.541 288.185 113.987 288.398 113.496 288.697C113.027 288.996 112.643 289.401 112.344 289.913C112.067 290.404 111.928 291.022 111.928 291.769C111.928 292.473 112.131 293.049 112.536 293.497C112.963 293.924 113.517 294.276 114.2 294.553C114.904 294.83 115.693 295.065 116.568 295.257C117.443 295.428 118.328 295.62 119.224 295.833C120.141 296.046 121.037 296.302 121.912 296.601C122.787 296.878 123.565 297.262 124.248 297.753C124.952 298.244 125.507 298.862 125.912 299.609C126.339 300.356 126.552 301.294 126.552 302.425C126.552 303.641 126.275 304.686 125.72 305.561C125.187 306.414 124.493 307.118 123.64 307.673C122.787 308.206 121.827 308.59 120.76 308.825C119.715 309.081 118.669 309.209 117.624 309.209C116.344 309.209 115.128 309.049 113.976 308.729C112.845 308.409 111.843 307.929 110.968 307.289C110.115 306.628 109.432 305.796 108.92 304.793C108.429 303.769 108.184 302.564 108.184 301.177H111.064C111.064 302.137 111.245 302.969 111.608 303.673C111.992 304.356 112.483 304.921 113.08 305.369C113.699 305.817 114.413 306.148 115.224 306.361C116.035 306.574 116.867 306.681 117.72 306.681C118.403 306.681 119.085 306.617 119.768 306.489C120.472 306.361 121.101 306.148 121.656 305.849C122.211 305.529 122.659 305.102 123 304.569C123.341 304.036 123.512 303.353 123.512 302.521C123.512 301.732 123.299 301.092 122.872 300.601C122.467 300.11 121.912 299.716 121.208 299.417C120.525 299.097 119.747 298.841 118.872 298.649C117.997 298.457 117.101 298.265 116.184 298.073C115.288 297.86 114.403 297.625 113.528 297.369C112.653 297.092 111.864 296.74 111.16 296.313C110.477 295.865 109.923 295.3 109.496 294.617C109.091 293.913 108.888 293.038 108.888 291.993C108.888 290.841 109.123 289.849 109.592 289.017C110.061 288.164 110.68 287.47 111.448 286.937C112.237 286.382 113.123 285.977 114.104 285.721C115.107 285.444 116.131 285.305 117.176 285.305C118.349 285.305 119.437 285.444 120.44 285.721C121.443 285.998 122.317 286.436 123.064 287.033C123.832 287.63 124.429 288.388 124.856 289.305C125.304 290.201 125.549 291.278 125.592 292.537H122.712ZM144.454 308.633C143.985 308.91 143.334 309.049 142.502 309.049C141.798 309.049 141.233 308.857 140.806 308.473C140.401 308.068 140.198 307.417 140.198 306.521C139.451 307.417 138.577 308.068 137.574 308.473C136.593 308.857 135.526 309.049 134.374 309.049C133.627 309.049 132.913 308.964 132.23 308.793C131.569 308.622 130.993 308.356 130.502 307.993C130.011 307.63 129.617 307.161 129.318 306.585C129.041 305.988 128.902 305.273 128.902 304.441C128.902 303.502 129.062 302.734 129.382 302.137C129.702 301.54 130.118 301.06 130.63 300.697C131.163 300.313 131.761 300.025 132.422 299.833C133.105 299.641 133.798 299.481 134.502 299.353C135.249 299.204 135.953 299.097 136.614 299.033C137.297 298.948 137.894 298.841 138.406 298.713C138.918 298.564 139.323 298.361 139.622 298.105C139.921 297.828 140.07 297.433 140.07 296.921C140.07 296.324 139.953 295.844 139.718 295.481C139.505 295.118 139.217 294.841 138.854 294.649C138.513 294.457 138.118 294.329 137.67 294.265C137.243 294.201 136.817 294.169 136.39 294.169C135.238 294.169 134.278 294.393 133.51 294.841C132.742 295.268 132.326 296.089 132.262 297.305H129.542C129.585 296.281 129.798 295.417 130.182 294.713C130.566 294.009 131.078 293.444 131.718 293.017C132.358 292.569 133.083 292.249 133.894 292.057C134.726 291.865 135.611 291.769 136.55 291.769C137.297 291.769 138.033 291.822 138.758 291.929C139.505 292.036 140.177 292.26 140.774 292.601C141.371 292.921 141.851 293.38 142.214 293.977C142.577 294.574 142.758 295.353 142.758 296.313V304.825C142.758 305.465 142.79 305.934 142.854 306.233C142.939 306.532 143.195 306.681 143.622 306.681C143.857 306.681 144.134 306.628 144.454 306.521V308.633ZM140.038 300.153C139.697 300.409 139.249 300.601 138.694 300.729C138.139 300.836 137.553 300.932 136.934 301.017C136.337 301.081 135.729 301.166 135.11 301.273C134.491 301.358 133.937 301.508 133.446 301.721C132.955 301.934 132.55 302.244 132.23 302.649C131.931 303.033 131.782 303.566 131.782 304.249C131.782 304.697 131.867 305.081 132.038 305.401C132.23 305.7 132.465 305.945 132.742 306.137C133.041 306.329 133.382 306.468 133.766 306.553C134.15 306.638 134.555 306.681 134.982 306.681C135.878 306.681 136.646 306.564 137.286 306.329C137.926 306.073 138.449 305.764 138.854 305.401C139.259 305.017 139.558 304.612 139.75 304.185C139.942 303.737 140.038 303.321 140.038 302.937V300.153ZM154.442 308.697H151.53L145.386 292.153H148.426L153.066 305.945H153.13L157.642 292.153H160.49L154.442 308.697ZM174.474 298.841C174.431 298.201 174.282 297.593 174.026 297.017C173.791 296.441 173.46 295.95 173.034 295.545C172.628 295.118 172.138 294.788 171.562 294.553C171.007 294.297 170.388 294.169 169.706 294.169C169.002 294.169 168.362 294.297 167.786 294.553C167.231 294.788 166.751 295.118 166.346 295.545C165.94 295.972 165.62 296.473 165.386 297.049C165.151 297.604 165.012 298.201 164.97 298.841H174.474ZM177.097 303.449C176.735 305.305 175.935 306.702 174.698 307.641C173.46 308.58 171.903 309.049 170.026 309.049C168.703 309.049 167.551 308.836 166.57 308.409C165.61 307.982 164.799 307.385 164.138 306.617C163.476 305.849 162.975 304.932 162.634 303.865C162.314 302.798 162.132 301.636 162.09 300.377C162.09 299.118 162.282 297.966 162.666 296.921C163.05 295.876 163.583 294.969 164.266 294.201C164.97 293.433 165.791 292.836 166.73 292.409C167.69 291.982 168.735 291.769 169.866 291.769C171.338 291.769 172.554 292.078 173.514 292.697C174.495 293.294 175.274 294.062 175.85 295.001C176.447 295.94 176.852 296.964 177.066 298.073C177.3 299.182 177.396 300.238 177.354 301.241H164.97C164.948 301.966 165.034 302.66 165.226 303.321C165.418 303.961 165.727 304.537 166.154 305.049C166.58 305.54 167.124 305.934 167.786 306.233C168.447 306.532 169.226 306.681 170.122 306.681C171.274 306.681 172.212 306.414 172.938 305.881C173.684 305.348 174.175 304.537 174.41 303.449H177.097ZM189.495 285.849H192.727L204.759 304.377H204.823V285.849H207.703V308.697H204.375L192.439 290.361H192.375V308.697H189.495V285.849ZM214.157 300.441C214.157 301.444 214.285 302.34 214.541 303.129C214.818 303.897 215.192 304.548 215.661 305.081C216.13 305.593 216.674 305.988 217.293 306.265C217.933 306.542 218.605 306.681 219.309 306.681C220.013 306.681 220.674 306.542 221.293 306.265C221.933 305.988 222.488 305.593 222.957 305.081C223.426 304.548 223.789 303.897 224.045 303.129C224.322 302.34 224.461 301.444 224.461 300.441C224.461 299.438 224.322 298.553 224.045 297.785C223.789 296.996 223.426 296.334 222.957 295.801C222.488 295.268 221.933 294.862 221.293 294.585C220.674 294.308 220.013 294.169 219.309 294.169C218.605 294.169 217.933 294.308 217.293 294.585C216.674 294.862 216.13 295.268 215.661 295.801C215.192 296.334 214.818 296.996 214.541 297.785C214.285 298.553 214.157 299.438 214.157 300.441ZM211.277 300.441C211.277 299.225 211.448 298.094 211.789 297.049C212.13 295.982 212.642 295.065 213.325 294.297C214.008 293.508 214.85 292.889 215.853 292.441C216.856 291.993 218.008 291.769 219.309 291.769C220.632 291.769 221.784 291.993 222.765 292.441C223.768 292.889 224.61 293.508 225.293 294.297C225.976 295.065 226.488 295.982 226.829 297.049C227.17 298.094 227.341 299.225 227.341 300.441C227.341 301.657 227.17 302.788 226.829 303.833C226.488 304.878 225.976 305.796 225.293 306.585C224.61 307.353 223.768 307.961 222.765 308.409C221.784 308.836 220.632 309.049 219.309 309.049C218.008 309.049 216.856 308.836 215.853 308.409C214.85 307.961 214.008 307.353 213.325 306.585C212.642 305.796 212.13 304.878 211.789 303.833C211.448 302.788 211.277 301.657 211.277 300.441ZM246.932 308.697H244.052L240.692 295.545H240.628L237.3 308.697H234.356L229.044 292.153H232.052L235.796 305.689H235.86L239.188 292.153H242.164L245.62 305.689H245.684L249.396 292.153H252.212L246.932 308.697Z" fill="#FFFEF9"/>
<path d="M268.76 306.081L266.888 304.881L272.952 298.769V299.665L266.888 293.553L268.76 292.353L275.32 299.217L268.76 306.081Z" fill="#FFFEF9"/>
<path d="M87.0606 141.293H94.4446V148.038H87.0606V166.214C87.0606 167.918 87.3446 169.054 87.9126 169.622C88.4806 170.19 89.6166 170.474 91.3206 170.474C91.8886 170.474 92.433 170.45 92.9536 170.403C93.4743 170.356 93.9713 170.285 94.4446 170.19V178C93.5926 178.142 92.646 178.237 91.6046 178.284C90.5633 178.331 89.5456 178.355 88.5516 178.355C86.9896 178.355 85.4986 178.237 84.0786 178C82.706 177.811 81.4753 177.408 80.3866 176.793C79.3453 176.178 78.517 175.302 77.9016 174.166C77.2863 173.03 76.9786 171.539 76.9786 169.693V148.038H70.8726V141.293H76.9786V130.288H87.0606V141.293ZM106.058 159.682C106.058 161.149 106.2 162.593 106.484 164.013C106.768 165.386 107.241 166.64 107.904 167.776C108.614 168.865 109.537 169.74 110.673 170.403C111.809 171.066 113.229 171.397 114.933 171.397C116.637 171.397 118.057 171.066 119.193 170.403C120.376 169.74 121.299 168.865 121.962 167.776C122.672 166.64 123.169 165.386 123.453 164.013C123.737 162.593 123.879 161.149 123.879 159.682C123.879 158.215 123.737 156.771 123.453 155.351C123.169 153.931 122.672 152.677 121.962 151.588C121.299 150.499 120.376 149.624 119.193 148.961C118.057 148.251 116.637 147.896 114.933 147.896C113.229 147.896 111.809 148.251 110.673 148.961C109.537 149.624 108.614 150.499 107.904 151.588C107.241 152.677 106.768 153.931 106.484 155.351C106.2 156.771 106.058 158.215 106.058 159.682ZM95.9756 159.682C95.9756 156.747 96.4252 154.097 97.3246 151.73C98.2239 149.316 99.5019 147.281 101.159 145.624C102.815 143.92 104.803 142.618 107.123 141.719C109.442 140.772 112.045 140.299 114.933 140.299C117.82 140.299 120.423 140.772 122.743 141.719C125.109 142.618 127.121 143.92 128.778 145.624C130.434 147.281 131.712 149.316 132.612 151.73C133.511 154.097 133.961 156.747 133.961 159.682C133.961 162.617 133.511 165.267 132.612 167.634C131.712 170.001 130.434 172.036 128.778 173.74C127.121 175.397 125.109 176.675 122.743 177.574C120.423 178.473 117.82 178.923 114.933 178.923C112.045 178.923 109.442 178.473 107.123 177.574C104.803 176.675 102.815 175.397 101.159 173.74C99.5019 172.036 98.2239 170.001 97.3246 167.634C96.4252 165.267 95.9756 162.617 95.9756 159.682ZM156.917 171.397C158.574 171.397 159.946 171.066 161.035 170.403C162.171 169.74 163.07 168.888 163.733 167.847C164.443 166.758 164.94 165.504 165.224 164.084C165.508 162.664 165.65 161.22 165.65 159.753C165.65 158.286 165.484 156.842 165.153 155.422C164.869 154.002 164.372 152.748 163.662 151.659C162.952 150.523 162.029 149.624 160.893 148.961C159.804 148.251 158.455 147.896 156.846 147.896C155.189 147.896 153.793 148.251 152.657 148.961C151.568 149.624 150.669 150.499 149.959 151.588C149.296 152.677 148.823 153.931 148.539 155.351C148.255 156.771 148.113 158.238 148.113 159.753C148.113 161.22 148.255 162.664 148.539 164.084C148.87 165.504 149.367 166.758 150.03 167.847C150.74 168.888 151.663 169.74 152.799 170.403C153.935 171.066 155.308 171.397 156.917 171.397ZM138.386 141.293H147.971V145.979H148.113C149.344 143.991 150.906 142.547 152.799 141.648C154.692 140.749 156.775 140.299 159.047 140.299C161.934 140.299 164.419 140.843 166.502 141.932C168.585 143.021 170.312 144.464 171.685 146.263C173.058 148.062 174.075 150.168 174.738 152.582C175.401 154.949 175.732 157.434 175.732 160.037C175.732 162.498 175.401 164.865 174.738 167.137C174.075 169.409 173.058 171.421 171.685 173.172C170.36 174.923 168.679 176.32 166.644 177.361C164.656 178.402 162.313 178.923 159.615 178.923C157.343 178.923 155.237 178.473 153.296 177.574C151.403 176.627 149.841 175.255 148.61 173.456H148.468V190.851H138.386V141.293ZM221.289 178H211.207V145.766H198.711V138.169C200.462 138.216 202.143 138.098 203.752 137.814C205.409 137.483 206.876 136.938 208.154 136.181C209.479 135.376 210.592 134.335 211.491 133.057C212.39 131.779 212.982 130.193 213.266 128.3H221.289V178ZM242.352 152.937C242.352 154.357 242.399 156.085 242.494 158.12C242.589 160.108 242.873 162.049 243.346 163.942C243.867 165.788 244.671 167.374 245.76 168.699C246.849 170.024 248.411 170.687 250.446 170.687C252.529 170.687 254.114 170.024 255.203 168.699C256.339 167.374 257.144 165.788 257.617 163.942C258.138 162.049 258.445 160.108 258.54 158.12C258.635 156.085 258.682 154.357 258.682 152.937C258.682 152.085 258.658 151.067 258.611 149.884C258.611 148.653 258.516 147.399 258.327 146.121C258.185 144.843 257.948 143.589 257.617 142.358C257.333 141.08 256.883 139.944 256.268 138.95C255.653 137.956 254.872 137.151 253.925 136.536C252.978 135.921 251.819 135.613 250.446 135.613C249.073 135.613 247.914 135.921 246.967 136.536C246.068 137.151 245.31 137.956 244.695 138.95C244.127 139.944 243.677 141.08 243.346 142.358C243.015 143.589 242.778 144.843 242.636 146.121C242.494 147.399 242.399 148.653 242.352 149.884C242.352 151.067 242.352 152.085 242.352 152.937ZM232.27 152.937C232.27 148.109 232.743 144.062 233.69 140.796C234.684 137.483 236.009 134.832 237.666 132.844C239.323 130.856 241.24 129.436 243.417 128.584C245.642 127.732 247.985 127.306 250.446 127.306C252.955 127.306 255.298 127.732 257.475 128.584C259.7 129.436 261.64 130.856 263.297 132.844C265.001 134.832 266.326 137.483 267.273 140.796C268.267 144.062 268.764 148.109 268.764 152.937C268.764 157.907 268.267 162.072 267.273 165.433C266.326 168.746 265.001 171.397 263.297 173.385C261.64 175.373 259.7 176.793 257.475 177.645C255.298 178.497 252.955 178.923 250.446 178.923C247.985 178.923 245.642 178.497 243.417 177.645C241.24 176.793 239.323 175.373 237.666 173.385C236.009 171.397 234.684 168.746 233.69 165.433C232.743 162.072 232.27 157.907 232.27 152.937ZM279.674 152.937C279.674 154.357 279.722 156.085 279.816 158.12C279.911 160.108 280.195 162.049 280.668 163.942C281.189 165.788 281.994 167.374 283.082 168.699C284.171 170.024 285.733 170.687 287.768 170.687C289.851 170.687 291.437 170.024 292.525 168.699C293.661 167.374 294.466 165.788 294.939 163.942C295.46 162.049 295.768 160.108 295.862 158.12C295.957 156.085 296.004 154.357 296.004 152.937C296.004 152.085 295.981 151.067 295.933 149.884C295.933 148.653 295.839 147.399 295.649 146.121C295.507 144.843 295.271 143.589 294.939 142.358C294.655 141.08 294.206 139.944 293.59 138.95C292.975 137.956 292.194 137.151 291.247 136.536C290.301 135.921 289.141 135.613 287.768 135.613C286.396 135.613 285.236 135.921 284.289 136.536C283.39 137.151 282.633 137.956 282.017 138.95C281.449 139.944 281 141.08 280.668 142.358C280.337 143.589 280.1 144.843 279.958 146.121C279.816 147.399 279.722 148.653 279.674 149.884C279.674 151.067 279.674 152.085 279.674 152.937ZM269.592 152.937C269.592 148.109 270.066 144.062 271.012 140.796C272.006 137.483 273.332 134.832 274.988 132.844C276.645 130.856 278.562 129.436 280.739 128.584C282.964 127.732 285.307 127.306 287.768 127.306C290.277 127.306 292.62 127.732 294.797 128.584C297.022 129.436 298.963 130.856 300.619 132.844C302.323 134.832 303.649 137.483 304.595 140.796C305.589 144.062 306.086 148.109 306.086 152.937C306.086 157.907 305.589 162.072 304.595 165.433C303.649 168.746 302.323 171.397 300.619 173.385C298.963 175.373 297.022 176.793 294.797 177.645C292.62 178.497 290.277 178.923 287.768 178.923C285.307 178.923 282.964 178.497 280.739 177.645C278.562 176.793 276.645 175.373 274.988 173.385C273.332 171.397 272.006 168.746 271.012 165.433C270.066 162.072 269.592 157.907 269.592 152.937Z" fill="#FFFEF9"/>
<path d="M142.142 228.379C142.142 226.817 141.976 225.326 141.645 223.906C141.314 222.486 140.793 221.232 140.083 220.143C139.373 219.054 138.474 218.202 137.385 217.587C136.344 216.924 135.066 216.593 133.551 216.593C132.084 216.593 130.806 216.924 129.717 217.587C128.628 218.202 127.729 219.054 127.019 220.143C126.309 221.232 125.788 222.486 125.457 223.906C125.126 225.326 124.96 226.817 124.96 228.379C124.96 229.894 125.126 231.361 125.457 232.781C125.788 234.201 126.309 235.455 127.019 236.544C127.729 237.633 128.628 238.508 129.717 239.171C130.806 239.786 132.084 240.094 133.551 240.094C135.066 240.094 136.344 239.786 137.385 239.171C138.474 238.508 139.373 237.633 140.083 236.544C140.793 235.455 141.314 234.201 141.645 232.781C141.976 231.361 142.142 229.894 142.142 228.379ZM115.233 196.003H125.315V214.463H125.457C126.688 212.57 128.344 211.197 130.427 210.345C132.557 209.446 134.758 208.996 137.03 208.996C138.876 208.996 140.698 209.375 142.497 210.132C144.296 210.889 145.905 212.049 147.325 213.611C148.792 215.173 149.976 217.185 150.875 219.646C151.774 222.06 152.224 224.947 152.224 228.308C152.224 231.669 151.774 234.58 150.875 237.041C149.976 239.455 148.792 241.443 147.325 243.005C145.905 244.567 144.296 245.727 142.497 246.484C140.698 247.241 138.876 247.62 137.03 247.62C134.332 247.62 131.918 247.194 129.788 246.342C127.658 245.49 126.049 244.046 124.96 242.011H124.818V246.697H115.233V196.003ZM181.215 224.403C180.742 221.847 179.89 219.906 178.659 218.581C177.476 217.256 175.654 216.593 173.192 216.593C171.583 216.593 170.234 216.877 169.145 217.445C168.104 217.966 167.252 218.628 166.589 219.433C165.974 220.238 165.524 221.09 165.24 221.989C165.004 222.888 164.862 223.693 164.814 224.403H181.215ZM164.814 230.793C164.956 234.059 165.785 236.426 167.299 237.893C168.814 239.36 170.991 240.094 173.831 240.094C175.867 240.094 177.618 239.597 179.085 238.603C180.553 237.562 181.452 236.473 181.783 235.337H190.658C189.238 239.739 187.061 242.887 184.126 244.78C181.192 246.673 177.642 247.62 173.476 247.62C170.589 247.62 167.986 247.17 165.666 246.271C163.347 245.324 161.383 243.999 159.773 242.295C158.164 240.591 156.91 238.556 156.01 236.189C155.158 233.822 154.732 231.219 154.732 228.379C154.732 225.634 155.182 223.078 156.081 220.711C156.981 218.344 158.259 216.309 159.915 214.605C161.572 212.854 163.536 211.481 165.808 210.487C168.128 209.493 170.684 208.996 173.476 208.996C176.6 208.996 179.322 209.611 181.641 210.842C183.961 212.025 185.854 213.635 187.321 215.67C188.836 217.705 189.925 220.025 190.587 222.628C191.25 225.231 191.487 227.953 191.297 230.793H164.814ZM221.204 228.237C221.204 226.722 221.062 225.279 220.778 223.906C220.494 222.486 219.997 221.255 219.287 220.214C218.624 219.125 217.749 218.25 216.66 217.587C215.571 216.924 214.199 216.593 212.542 216.593C210.885 216.593 209.489 216.924 208.353 217.587C207.217 218.25 206.294 219.125 205.584 220.214C204.921 221.303 204.424 222.557 204.093 223.977C203.809 225.35 203.667 226.793 203.667 228.308C203.667 229.728 203.833 231.148 204.164 232.568C204.495 233.988 205.016 235.266 205.726 236.402C206.483 237.491 207.406 238.39 208.495 239.1C209.631 239.763 210.98 240.094 212.542 240.094C214.199 240.094 215.571 239.763 216.66 239.1C217.796 238.437 218.695 237.562 219.358 236.473C220.021 235.337 220.494 234.059 220.778 232.639C221.062 231.219 221.204 229.752 221.204 228.237ZM221.346 242.011H221.204C220.021 243.999 218.459 245.443 216.518 246.342C214.625 247.194 212.471 247.62 210.057 247.62C207.312 247.62 204.898 247.099 202.815 246.058C200.732 244.969 199.005 243.526 197.632 241.727C196.307 239.881 195.289 237.775 194.579 235.408C193.916 233.041 193.585 230.58 193.585 228.024C193.585 225.563 193.916 223.196 194.579 220.924C195.289 218.605 196.307 216.569 197.632 214.818C199.005 213.067 200.709 211.67 202.744 210.629C204.779 209.54 207.146 208.996 209.844 208.996C212.021 208.996 214.08 209.469 216.021 210.416C218.009 211.315 219.571 212.664 220.707 214.463H220.849V196.003H230.931V246.697H221.346V242.011ZM244.231 234.769C244.231 235.858 244.444 236.804 244.87 237.609C245.344 238.366 245.935 239.005 246.645 239.526C247.355 239.999 248.16 240.354 249.059 240.591C250.006 240.828 250.976 240.946 251.97 240.946C252.68 240.946 253.414 240.875 254.171 240.733C254.976 240.544 255.686 240.283 256.301 239.952C256.964 239.573 257.508 239.1 257.934 238.532C258.36 237.917 258.573 237.159 258.573 236.26C258.573 234.745 257.556 233.609 255.52 232.852C253.532 232.095 250.74 231.337 247.142 230.58C245.675 230.249 244.231 229.87 242.811 229.444C241.439 228.971 240.208 228.379 239.119 227.669C238.031 226.912 237.155 225.989 236.492 224.9C235.83 223.764 235.498 222.391 235.498 220.782C235.498 218.415 235.948 216.475 236.847 214.96C237.794 213.445 239.025 212.262 240.539 211.41C242.054 210.511 243.758 209.895 245.651 209.564C247.545 209.185 249.485 208.996 251.473 208.996C253.461 208.996 255.378 209.185 257.224 209.564C259.118 209.943 260.798 210.582 262.265 211.481C263.733 212.38 264.94 213.587 265.886 215.102C266.88 216.569 267.472 218.439 267.661 220.711H258.076C257.934 218.77 257.201 217.469 255.875 216.806C254.55 216.096 252.988 215.741 251.189 215.741C250.621 215.741 250.006 215.788 249.343 215.883C248.681 215.93 248.065 216.072 247.497 216.309C246.977 216.546 246.527 216.901 246.148 217.374C245.77 217.8 245.58 218.392 245.58 219.149C245.58 220.048 245.912 220.782 246.574 221.35C247.237 221.918 248.089 222.391 249.13 222.77C250.219 223.101 251.45 223.409 252.822 223.693C254.195 223.977 255.591 224.285 257.011 224.616C258.479 224.947 259.899 225.35 261.271 225.823C262.691 226.296 263.946 226.935 265.034 227.74C266.123 228.497 266.999 229.468 267.661 230.651C268.324 231.787 268.655 233.207 268.655 234.911C268.655 237.325 268.158 239.36 267.164 241.017C266.218 242.626 264.963 243.928 263.401 244.922C261.839 245.916 260.041 246.602 258.005 246.981C256.017 247.407 253.982 247.62 251.899 247.62C249.769 247.62 247.687 247.407 245.651 246.981C243.616 246.555 241.794 245.845 240.184 244.851C238.622 243.857 237.321 242.555 236.279 240.946C235.285 239.289 234.741 237.23 234.646 234.769H244.231Z" fill="#FFFEF9"/>
</svg>
