<svg viewBox="0 0 767 430" fill="none" xmlns="http://www.w3.org/2000/svg">
<path d="M122.712 340.464C122.541 338.821 121.944 337.637 120.92 336.912C119.917 336.165 118.627 335.792 117.048 335.792C116.408 335.792 115.779 335.856 115.16 335.984C114.541 336.112 113.987 336.325 113.496 336.624C113.027 336.922 112.643 337.328 112.344 337.84C112.067 338.33 111.928 338.949 111.928 339.696C111.928 340.4 112.131 340.976 112.536 341.424C112.963 341.85 113.517 342.202 114.2 342.48C114.904 342.757 115.693 342.992 116.568 343.184C117.443 343.354 118.328 343.546 119.224 343.76C120.141 343.973 121.037 344.229 121.912 344.528C122.787 344.805 123.565 345.189 124.248 345.68C124.952 346.17 125.507 346.789 125.912 347.536C126.339 348.282 126.552 349.221 126.552 350.352C126.552 351.568 126.275 352.613 125.72 353.488C125.187 354.341 124.493 355.045 123.64 355.6C122.787 356.133 121.827 356.517 120.76 356.752C119.715 357.008 118.669 357.136 117.624 357.136C116.344 357.136 115.128 356.976 113.976 356.656C112.845 356.336 111.843 355.856 110.968 355.216C110.115 354.554 109.432 353.722 108.92 352.72C108.429 351.696 108.184 350.49 108.184 349.104H111.064C111.064 350.064 111.245 350.896 111.608 351.6C111.992 352.282 112.483 352.848 113.08 353.296C113.699 353.744 114.413 354.074 115.224 354.288C116.035 354.501 116.867 354.608 117.72 354.608C118.403 354.608 119.085 354.544 119.768 354.416C120.472 354.288 121.101 354.074 121.656 353.776C122.211 353.456 122.659 353.029 123 352.496C123.341 351.962 123.512 351.28 123.512 350.448C123.512 349.658 123.299 349.018 122.872 348.528C122.467 348.037 121.912 347.642 121.208 347.344C120.525 347.024 119.747 346.768 118.872 346.576C117.997 346.384 117.101 346.192 116.184 346C115.288 345.786 114.403 345.552 113.528 345.296C112.653 345.018 111.864 344.666 111.16 344.24C110.477 343.792 109.923 343.226 109.496 342.544C109.091 341.84 108.888 340.965 108.888 339.92C108.888 338.768 109.123 337.776 109.592 336.944C110.061 336.09 110.68 335.397 111.448 334.864C112.237 334.309 113.123 333.904 114.104 333.648C115.107 333.37 116.131 333.232 117.176 333.232C118.349 333.232 119.437 333.37 120.44 333.648C121.443 333.925 122.317 334.362 123.064 334.96C123.832 335.557 124.429 336.314 124.856 337.232C125.304 338.128 125.549 339.205 125.592 340.464H122.712ZM144.454 356.56C143.985 356.837 143.334 356.976 142.502 356.976C141.798 356.976 141.233 356.784 140.806 356.4C140.401 355.994 140.198 355.344 140.198 354.448C139.451 355.344 138.577 355.994 137.574 356.4C136.593 356.784 135.526 356.976 134.374 356.976C133.627 356.976 132.913 356.89 132.23 356.72C131.569 356.549 130.993 356.282 130.502 355.92C130.011 355.557 129.617 355.088 129.318 354.512C129.041 353.914 128.902 353.2 128.902 352.368C128.902 351.429 129.062 350.661 129.382 350.064C129.702 349.466 130.118 348.986 130.63 348.624C131.163 348.24 131.761 347.952 132.422 347.76C133.105 347.568 133.798 347.408 134.502 347.28C135.249 347.13 135.953 347.024 136.614 346.96C137.297 346.874 137.894 346.768 138.406 346.64C138.918 346.49 139.323 346.288 139.622 346.032C139.921 345.754 140.07 345.36 140.07 344.848C140.07 344.25 139.953 343.77 139.718 343.408C139.505 343.045 139.217 342.768 138.854 342.576C138.513 342.384 138.118 342.256 137.67 342.192C137.243 342.128 136.817 342.096 136.39 342.096C135.238 342.096 134.278 342.32 133.51 342.768C132.742 343.194 132.326 344.016 132.262 345.232H129.542C129.585 344.208 129.798 343.344 130.182 342.64C130.566 341.936 131.078 341.37 131.718 340.944C132.358 340.496 133.083 340.176 133.894 339.984C134.726 339.792 135.611 339.696 136.55 339.696C137.297 339.696 138.033 339.749 138.758 339.856C139.505 339.962 140.177 340.186 140.774 340.528C141.371 340.848 141.851 341.306 142.214 341.904C142.577 342.501 142.758 343.28 142.758 344.24V352.752C142.758 353.392 142.79 353.861 142.854 354.16C142.939 354.458 143.195 354.608 143.622 354.608C143.857 354.608 144.134 354.554 144.454 354.448V356.56ZM140.038 348.08C139.697 348.336 139.249 348.528 138.694 348.656C138.139 348.762 137.553 348.858 136.934 348.944C136.337 349.008 135.729 349.093 135.11 349.2C134.491 349.285 133.937 349.434 133.446 349.648C132.955 349.861 132.55 350.17 132.23 350.576C131.931 350.96 131.782 351.493 131.782 352.176C131.782 352.624 131.867 353.008 132.038 353.328C132.23 353.626 132.465 353.872 132.742 354.064C133.041 354.256 133.382 354.394 133.766 354.48C134.15 354.565 134.555 354.608 134.982 354.608C135.878 354.608 136.646 354.49 137.286 354.256C137.926 354 138.449 353.69 138.854 353.328C139.259 352.944 139.558 352.538 139.75 352.112C139.942 351.664 140.038 351.248 140.038 350.864V348.08ZM154.442 356.624H151.53L145.386 340.08H148.426L153.066 353.872H153.13L157.642 340.08H160.49L154.442 356.624ZM174.474 346.768C174.431 346.128 174.282 345.52 174.026 344.944C173.791 344.368 173.46 343.877 173.034 343.472C172.628 343.045 172.138 342.714 171.562 342.48C171.007 342.224 170.388 342.096 169.706 342.096C169.002 342.096 168.362 342.224 167.786 342.48C167.231 342.714 166.751 343.045 166.346 343.472C165.94 343.898 165.62 344.4 165.386 344.976C165.151 345.53 165.012 346.128 164.97 346.768H174.474ZM177.097 351.376C176.735 353.232 175.935 354.629 174.698 355.568C173.46 356.506 171.903 356.976 170.026 356.976C168.703 356.976 167.551 356.762 166.57 356.336C165.61 355.909 164.799 355.312 164.138 354.544C163.476 353.776 162.975 352.858 162.634 351.792C162.314 350.725 162.132 349.562 162.09 348.304C162.09 347.045 162.282 345.893 162.666 344.848C163.05 343.802 163.583 342.896 164.266 342.128C164.97 341.36 165.791 340.762 166.73 340.336C167.69 339.909 168.735 339.696 169.866 339.696C171.338 339.696 172.554 340.005 173.514 340.624C174.495 341.221 175.274 341.989 175.85 342.928C176.447 343.866 176.852 344.89 177.066 346C177.3 347.109 177.396 348.165 177.354 349.168H164.97C164.948 349.893 165.034 350.586 165.226 351.248C165.418 351.888 165.727 352.464 166.154 352.976C166.58 353.466 167.124 353.861 167.786 354.16C168.447 354.458 169.226 354.608 170.122 354.608C171.274 354.608 172.212 354.341 172.938 353.808C173.684 353.274 174.175 352.464 174.41 351.376H177.097ZM189.495 333.776H192.727L204.759 352.304H204.823V333.776H207.703V356.624H204.375L192.439 338.288H192.375V356.624H189.495V333.776ZM214.157 348.368C214.157 349.37 214.285 350.266 214.541 351.056C214.818 351.824 215.192 352.474 215.661 353.008C216.13 353.52 216.674 353.914 217.293 354.192C217.933 354.469 218.605 354.608 219.309 354.608C220.013 354.608 220.674 354.469 221.293 354.192C221.933 353.914 222.488 353.52 222.957 353.008C223.426 352.474 223.789 351.824 224.045 351.056C224.322 350.266 224.461 349.37 224.461 348.368C224.461 347.365 224.322 346.48 224.045 345.712C223.789 344.922 223.426 344.261 222.957 343.728C222.488 343.194 221.933 342.789 221.293 342.512C220.674 342.234 220.013 342.096 219.309 342.096C218.605 342.096 217.933 342.234 217.293 342.512C216.674 342.789 216.13 343.194 215.661 343.728C215.192 344.261 214.818 344.922 214.541 345.712C214.285 346.48 214.157 347.365 214.157 348.368ZM211.277 348.368C211.277 347.152 211.448 346.021 211.789 344.976C212.13 343.909 212.642 342.992 213.325 342.224C214.008 341.434 214.85 340.816 215.853 340.368C216.856 339.92 218.008 339.696 219.309 339.696C220.632 339.696 221.784 339.92 222.765 340.368C223.768 340.816 224.61 341.434 225.293 342.224C225.976 342.992 226.488 343.909 226.829 344.976C227.17 346.021 227.341 347.152 227.341 348.368C227.341 349.584 227.17 350.714 226.829 351.76C226.488 352.805 225.976 353.722 225.293 354.512C224.61 355.28 223.768 355.888 222.765 356.336C221.784 356.762 220.632 356.976 219.309 356.976C218.008 356.976 216.856 356.762 215.853 356.336C214.85 355.888 214.008 355.28 213.325 354.512C212.642 353.722 212.13 352.805 211.789 351.76C211.448 350.714 211.277 349.584 211.277 348.368ZM246.932 356.624H244.052L240.692 343.472H240.628L237.3 356.624H234.356L229.044 340.08H232.052L235.796 353.616H235.86L239.188 340.08H242.164L245.62 353.616H245.684L249.396 340.08H252.212L246.932 356.624Z" fill="#FFFEF9"/>
<path d="M268.76 354.008L266.888 352.808L272.952 346.696V347.592L266.888 341.48L268.76 340.28L275.32 347.144L268.76 354.008Z" fill="#FFFEF9"/>
<path d="M139.373 84.565H146.798V89.845H146.908C147.275 88.965 147.77 88.1583 148.393 87.425C149.017 86.655 149.732 86.0133 150.538 85.5C151.345 84.95 152.207 84.5283 153.123 84.235C154.04 83.9417 154.993 83.795 155.983 83.795C156.497 83.795 157.065 83.8867 157.688 84.07V91.33C157.322 91.2567 156.882 91.2017 156.368 91.165C155.855 91.0917 155.36 91.055 154.883 91.055C153.453 91.055 152.243 91.2933 151.253 91.77C150.263 92.2467 149.457 92.9067 148.833 93.75C148.247 94.5567 147.825 95.51 147.568 96.61C147.312 97.71 147.183 98.9017 147.183 100.185V113H139.373V84.565ZM185.775 113H178.35V109.04H178.185C177.195 110.69 175.912 111.882 174.335 112.615C172.759 113.348 171.145 113.715 169.495 113.715C167.405 113.715 165.682 113.44 164.325 112.89C163.005 112.34 161.96 111.57 161.19 110.58C160.42 109.553 159.87 108.325 159.54 106.895C159.247 105.428 159.1 103.815 159.1 102.055V84.565H166.91V100.625C166.91 102.972 167.277 104.732 168.01 105.905C168.744 107.042 170.045 107.61 171.915 107.61C174.042 107.61 175.582 106.987 176.535 105.74C177.489 104.457 177.965 102.367 177.965 99.47V84.565H185.775V113ZM203.308 106.29C204.408 106.29 205.379 106.07 206.223 105.63C207.066 105.19 207.763 104.603 208.313 103.87C208.863 103.137 209.266 102.312 209.523 101.395C209.816 100.442 209.963 99.4517 209.963 98.425C209.963 97.2517 209.853 96.1517 209.633 95.125C209.413 94.0617 209.046 93.1267 208.533 92.32C208.019 91.5133 207.341 90.8717 206.498 90.395C205.654 89.9183 204.591 89.68 203.308 89.68C202.208 89.68 201.254 89.9 200.448 90.34C199.678 90.78 199.018 91.385 198.468 92.155C197.954 92.8883 197.569 93.75 197.313 94.74C197.093 95.6933 196.983 96.7017 196.983 97.765C196.983 98.7917 197.074 99.8183 197.258 100.845C197.478 101.835 197.826 102.733 198.303 103.54C198.816 104.347 199.476 105.007 200.283 105.52C201.089 106.033 202.098 106.29 203.308 106.29ZM217.388 111.185C217.388 112.322 217.223 113.623 216.893 115.09C216.599 116.557 215.939 117.913 214.913 119.16C213.886 120.443 212.401 121.525 210.458 122.405C208.514 123.285 205.911 123.725 202.648 123.725C201.254 123.725 199.824 123.542 198.358 123.175C196.928 122.845 195.608 122.313 194.398 121.58C193.224 120.847 192.234 119.893 191.428 118.72C190.658 117.583 190.218 116.208 190.108 114.595H197.863C198.229 116.062 198.944 117.07 200.008 117.62C201.071 118.207 202.299 118.5 203.693 118.5C205.893 118.5 207.488 117.84 208.478 116.52C209.504 115.2 209.999 113.532 209.963 111.515V107.775H209.853C209.009 109.278 207.799 110.397 206.223 111.13C204.683 111.827 203.051 112.175 201.328 112.175C199.201 112.175 197.368 111.808 195.828 111.075C194.288 110.305 193.023 109.278 192.033 107.995C191.043 106.675 190.309 105.153 189.833 103.43C189.393 101.67 189.173 99.8183 189.173 97.875C189.173 96.0417 189.429 94.2817 189.943 92.595C190.493 90.8717 191.281 89.3683 192.308 88.085C193.334 86.765 194.599 85.72 196.103 84.95C197.643 84.18 199.403 83.795 201.383 83.795C203.253 83.795 204.884 84.1433 206.278 84.84C207.708 85.5367 208.899 86.71 209.853 88.36H209.963V84.565H217.388V111.185ZM228.076 103.76C228.076 104.603 228.241 105.337 228.571 105.96C228.937 106.547 229.396 107.042 229.946 107.445C230.496 107.812 231.119 108.087 231.816 108.27C232.549 108.453 233.301 108.545 234.071 108.545C234.621 108.545 235.189 108.49 235.776 108.38C236.399 108.233 236.949 108.032 237.426 107.775C237.939 107.482 238.361 107.115 238.691 106.675C239.021 106.198 239.186 105.612 239.186 104.915C239.186 103.742 238.397 102.862 236.821 102.275C235.281 101.688 233.117 101.102 230.331 100.515C229.194 100.258 228.076 99.965 226.976 99.635C225.912 99.2683 224.959 98.81 224.116 98.26C223.272 97.6733 222.594 96.9583 222.081 96.115C221.567 95.235 221.311 94.1717 221.311 92.925C221.311 91.0917 221.659 89.5883 222.356 88.415C223.089 87.2417 224.042 86.325 225.216 85.665C226.389 84.9683 227.709 84.4917 229.176 84.235C230.642 83.9417 232.146 83.795 233.686 83.795C235.226 83.795 236.711 83.9417 238.141 84.235C239.607 84.5283 240.909 85.0233 242.046 85.72C243.182 86.4167 244.117 87.3517 244.851 88.525C245.621 89.6617 246.079 91.11 246.226 92.87H238.801C238.691 91.3667 238.122 90.3583 237.096 89.845C236.069 89.295 234.859 89.02 233.466 89.02C233.026 89.02 232.549 89.0567 232.036 89.13C231.522 89.1667 231.046 89.2767 230.606 89.46C230.202 89.6433 229.854 89.9183 229.561 90.285C229.267 90.615 229.121 91.0733 229.121 91.66C229.121 92.3567 229.377 92.925 229.891 93.365C230.404 93.805 231.064 94.1717 231.871 94.465C232.714 94.7217 233.667 94.96 234.731 95.18C235.794 95.4 236.876 95.6383 237.976 95.895C239.112 96.1517 240.212 96.4633 241.276 96.83C242.376 97.1967 243.347 97.6917 244.191 98.315C245.034 98.9017 245.712 99.6533 246.226 100.57C246.739 101.45 246.996 102.55 246.996 103.87C246.996 105.74 246.611 107.317 245.841 108.6C245.107 109.847 244.136 110.855 242.926 111.625C241.716 112.395 240.322 112.927 238.746 113.22C237.206 113.55 235.629 113.715 234.016 113.715C232.366 113.715 230.752 113.55 229.176 113.22C227.599 112.89 226.187 112.34 224.941 111.57C223.731 110.8 222.722 109.792 221.916 108.545C221.146 107.262 220.724 105.667 220.651 103.76H228.076Z" fill="#FFFEF9"/>
<path d="M173.108 168.225H169.328V166.209H169.244C168.74 167.049 168.086 167.656 167.284 168.029C166.481 168.402 165.66 168.589 164.82 168.589C163.756 168.589 162.879 168.449 162.188 168.169C161.516 167.889 160.984 167.497 160.592 166.993C160.2 166.47 159.92 165.845 159.752 165.117C159.603 164.37 159.528 163.549 159.528 162.653V153.749H163.504V161.925C163.504 163.12 163.691 164.016 164.064 164.613C164.437 165.192 165.1 165.481 166.052 165.481C167.135 165.481 167.919 165.164 168.404 164.529C168.889 163.876 169.132 162.812 169.132 161.337V153.749H173.108V168.225ZM183.433 165.621C184.087 165.621 184.628 165.49 185.057 165.229C185.505 164.968 185.86 164.632 186.121 164.221C186.401 163.792 186.597 163.297 186.709 162.737C186.821 162.177 186.877 161.608 186.877 161.029C186.877 160.451 186.812 159.881 186.681 159.321C186.569 158.761 186.373 158.267 186.093 157.837C185.813 157.389 185.449 157.035 185.001 156.773C184.572 156.493 184.04 156.353 183.405 156.353C182.752 156.353 182.201 156.493 181.753 156.773C181.324 157.035 180.969 157.38 180.689 157.809C180.428 158.239 180.241 158.733 180.129 159.293C180.017 159.853 179.961 160.432 179.961 161.029C179.961 161.608 180.017 162.177 180.129 162.737C180.26 163.297 180.456 163.792 180.717 164.221C180.997 164.632 181.361 164.968 181.809 165.229C182.257 165.49 182.799 165.621 183.433 165.621ZM176.125 153.749H179.905V155.597H179.961C180.447 154.813 181.063 154.244 181.809 153.889C182.556 153.535 183.377 153.357 184.273 153.357C185.412 153.357 186.392 153.572 187.213 154.001C188.035 154.431 188.716 155 189.257 155.709C189.799 156.419 190.2 157.249 190.461 158.201C190.723 159.135 190.853 160.115 190.853 161.141C190.853 162.112 190.723 163.045 190.461 163.941C190.2 164.837 189.799 165.63 189.257 166.321C188.735 167.012 188.072 167.562 187.269 167.973C186.485 168.384 185.561 168.589 184.497 168.589C183.601 168.589 182.771 168.412 182.005 168.057C181.259 167.684 180.643 167.142 180.157 166.433H180.101V173.293H176.125V153.749ZM206.075 153.749H208.987V156.409H206.075V163.577C206.075 164.249 206.187 164.697 206.411 164.921C206.635 165.145 207.083 165.257 207.755 165.257C207.979 165.257 208.194 165.248 208.399 165.229C208.605 165.21 208.801 165.182 208.987 165.145V168.225C208.651 168.281 208.278 168.318 207.867 168.337C207.457 168.356 207.055 168.365 206.663 168.365C206.047 168.365 205.459 168.318 204.899 168.225C204.358 168.15 203.873 167.992 203.443 167.749C203.033 167.506 202.706 167.161 202.463 166.713C202.221 166.265 202.099 165.677 202.099 164.949V156.409H199.691V153.749H202.099V149.409H206.075V153.749ZM214.407 161.001C214.407 161.58 214.463 162.149 214.575 162.709C214.687 163.251 214.874 163.745 215.135 164.193C215.415 164.622 215.779 164.968 216.227 165.229C216.675 165.49 217.235 165.621 217.907 165.621C218.579 165.621 219.139 165.49 219.587 165.229C220.054 164.968 220.418 164.622 220.679 164.193C220.959 163.745 221.155 163.251 221.267 162.709C221.379 162.149 221.435 161.58 221.435 161.001C221.435 160.423 221.379 159.853 221.267 159.293C221.155 158.733 220.959 158.239 220.679 157.809C220.418 157.38 220.054 157.035 219.587 156.773C219.139 156.493 218.579 156.353 217.907 156.353C217.235 156.353 216.675 156.493 216.227 156.773C215.779 157.035 215.415 157.38 215.135 157.809C214.874 158.239 214.687 158.733 214.575 159.293C214.463 159.853 214.407 160.423 214.407 161.001ZM210.431 161.001C210.431 159.844 210.608 158.799 210.963 157.865C211.318 156.913 211.822 156.111 212.475 155.457C213.128 154.785 213.912 154.272 214.827 153.917C215.742 153.544 216.768 153.357 217.907 153.357C219.046 153.357 220.072 153.544 220.987 153.917C221.92 154.272 222.714 154.785 223.367 155.457C224.02 156.111 224.524 156.913 224.879 157.865C225.234 158.799 225.411 159.844 225.411 161.001C225.411 162.159 225.234 163.204 224.879 164.137C224.524 165.07 224.02 165.873 223.367 166.545C222.714 167.198 221.92 167.702 220.987 168.057C220.072 168.412 219.046 168.589 217.907 168.589C216.768 168.589 215.742 168.412 214.827 168.057C213.912 167.702 213.128 167.198 212.475 166.545C211.822 165.873 211.318 165.07 210.963 164.137C210.608 163.204 210.431 162.159 210.431 161.001Z" fill="#FFFEF9"/>
<path d="M114.514 199.951L110.082 225.106L110.401 225.425C113.455 222.368 116.725 220.18 120.21 218.86C123.695 217.54 127.649 216.884 132.073 216.892C137.557 216.892 142.412 217.894 146.637 219.899C150.725 221.805 154.365 224.555 157.315 227.968C160.291 231.477 162.549 235.536 163.963 239.914C165.512 244.636 166.286 249.578 166.254 254.548C166.301 260.024 165.167 265.447 162.932 270.446C160.805 275.231 157.769 279.556 153.993 283.183C150.231 286.783 145.796 289.605 140.941 291.488C135.903 293.448 130.526 294.384 125.122 294.243C119.905 294.266 114.711 293.547 109.697 292.106C104.965 290.771 100.534 288.542 96.6406 285.541C92.8418 282.585 89.7369 278.832 87.5444 274.547C85.2772 270.17 84.0964 265.081 84.002 259.279H106.469C106.994 264.341 108.892 268.376 112.164 271.383C115.437 274.39 119.602 275.892 124.661 275.89C127.432 275.931 130.172 275.308 132.652 274.071C134.942 272.91 136.973 271.296 138.623 269.328C140.296 267.314 141.584 265.008 142.421 262.527C143.314 259.957 143.769 257.256 143.767 254.536C143.783 251.796 143.355 249.071 142.5 246.467C141.701 244.016 140.408 241.755 138.702 239.823C137.034 237.938 134.985 236.428 132.691 235.391C130.145 234.296 127.394 233.759 124.622 233.817C120.61 233.817 117.34 234.529 114.813 235.954C112.286 237.379 109.913 239.62 107.693 242.677H87.4539L98.3726 181.451H160.232V199.951H114.514Z" fill="#FFFEF9"/>
<path d="M280.325 249.856V253.319H286.67V258.877H280.325V287.126H272.886V258.877H261.573V287.126H254.118V258.877H248.561V253.319H254.118V250.509C254.118 248.376 254.381 246.642 254.906 245.309C255.329 244.124 256.051 243.067 257 242.239C257.859 241.524 258.881 241.029 259.975 240.799C261.124 240.555 262.296 240.435 263.471 240.44C265.869 240.44 267.613 240.593 268.702 240.897V246.715C268.198 246.58 267.685 246.482 267.166 246.423C266.526 246.352 265.882 246.319 265.238 246.325C264.324 246.3 263.424 246.551 262.656 247.045C261.937 247.525 261.577 248.462 261.577 249.856V253.319H272.889V250.509C272.889 248.376 273.152 246.642 273.677 245.309C274.101 244.125 274.82 243.068 275.767 242.239C276.627 241.525 277.649 241.031 278.742 240.799C279.893 240.555 281.066 240.435 282.242 240.44C284.637 240.44 286.381 240.593 287.473 240.897V246.715C286.969 246.58 286.456 246.482 285.937 246.423C285.297 246.352 284.653 246.319 284.009 246.325C283.094 246.3 282.193 246.551 281.423 247.045C280.718 247.525 280.325 248.466 280.325 249.856Z" fill="#FFFEF9"/>
<path d="M243.294 257.441C241.791 255.841 239.963 254.581 237.933 253.745C235.645 252.819 233.194 252.363 230.726 252.403C229.398 252.396 228.072 252.516 226.766 252.761L268.343 182.002H265.478L247.407 212.727C247.147 211.637 246.868 210.574 246.569 209.551C244.399 202.203 241.441 196.315 237.697 191.886C233.952 187.456 229.623 184.288 224.708 182.38C219.682 180.46 214.343 179.494 208.964 179.53C203.631 179.501 198.339 180.467 193.361 182.38C188.449 184.28 184.144 187.448 180.447 191.886C176.749 196.323 173.82 202.211 171.658 209.551C169.49 216.898 168.406 225.951 168.406 236.71C168.406 247.799 169.49 257.067 171.658 264.514C173.825 271.961 176.755 277.902 180.447 282.337C184.144 286.771 188.449 289.94 193.361 291.842C195.443 292.647 197.588 293.282 199.773 293.739L196.313 299.624H199.249L214.057 274.433C214.241 275.432 214.504 276.416 214.844 277.373C215.551 279.46 216.687 281.376 218.178 282.998C219.682 284.599 221.511 285.859 223.543 286.694C228.194 288.478 233.341 288.478 237.992 286.694C240.022 285.858 241.85 284.598 243.353 282.998C244.844 281.376 245.979 279.46 246.687 277.373C248.214 272.722 248.214 267.705 246.687 263.054C245.96 260.967 244.804 259.055 243.294 257.441ZM208.92 276.334C204.378 276.334 200.893 274.855 198.466 271.898C195.943 268.762 194.133 265.114 193.16 261.208C192.044 256.96 191.384 252.606 191.192 248.219C190.98 243.732 190.875 239.903 190.877 236.733C190.877 234.833 190.904 232.536 190.956 229.841C191.008 227.146 191.194 224.374 191.511 221.524C191.825 218.664 192.351 215.832 193.085 213.05C193.758 210.409 194.798 207.876 196.175 205.524C197.436 203.368 199.17 201.526 201.245 200.136C203.305 198.766 205.866 198.08 208.928 198.077C211.99 198.075 214.579 198.761 216.694 200.136C218.816 201.52 220.601 203.361 221.921 205.524C223.339 207.856 224.381 210.395 225.011 213.05C225.692 215.843 226.218 218.673 226.585 221.524C226.947 224.283 227.158 227.06 227.219 229.841C227.269 232.533 227.295 234.831 227.298 236.733C227.298 239.701 227.205 243.244 227.018 247.361L209.999 276.295C209.648 276.318 209.286 276.33 208.92 276.33V276.334ZM239.763 274.543C239.415 275.91 238.829 277.205 238.031 278.369C237.249 279.502 236.221 280.444 235.024 281.124C233.69 281.812 232.21 282.171 230.708 282.171C229.207 282.171 227.727 281.812 226.393 281.124C225.194 280.447 224.165 279.504 223.385 278.369C222.585 277.207 221.998 275.912 221.653 274.543C220.909 271.705 220.909 268.722 221.653 265.884C221.989 264.512 222.576 263.215 223.385 262.058C224.175 260.943 225.202 260.016 226.393 259.346C227.727 258.658 229.207 258.299 230.708 258.299C232.21 258.299 233.69 258.658 235.024 259.346C236.213 260.018 237.24 260.944 238.031 262.058C238.838 263.217 239.425 264.513 239.763 265.884C240.503 268.723 240.503 271.704 239.763 274.543Z" fill="#FFFEF9"/>
<path d="M256.457 186.454C256.298 185.675 255.983 184.936 255.532 184.281C255.09 183.662 254.505 183.158 253.827 182.813C253.006 182.427 252.105 182.243 251.198 182.274C250.315 182.253 249.439 182.432 248.636 182.797C247.937 183.13 247.325 183.621 246.849 184.23C246.364 184.863 246.009 185.585 245.806 186.355C245.576 187.201 245.462 188.073 245.467 188.949C245.46 189.817 245.557 190.683 245.754 191.528C245.919 192.273 246.241 192.975 246.699 193.586C247.157 194.175 247.755 194.639 248.439 194.936C249.263 195.287 250.153 195.455 251.048 195.428C251.926 195.449 252.798 195.288 253.611 194.956C254.297 194.665 254.905 194.214 255.382 193.641C255.858 193.049 256.207 192.366 256.409 191.634C256.642 190.805 256.756 189.948 256.748 189.087C256.745 188.201 256.648 187.319 256.457 186.454ZM253.237 190.248C253.207 190.675 253.117 191.095 252.969 191.496C252.831 191.879 252.599 192.22 252.292 192.488C251.933 192.751 251.5 192.893 251.054 192.893C250.609 192.893 250.175 192.751 249.816 192.488C249.523 192.216 249.302 191.875 249.175 191.496C249.038 191.088 248.959 190.663 248.939 190.233C248.919 189.78 248.907 189.378 248.907 189.016C248.907 188.654 248.907 188.198 248.958 187.702C248.986 187.23 249.081 186.765 249.242 186.32C249.388 185.913 249.624 185.544 249.934 185.242C250.281 184.934 250.735 184.777 251.198 184.805C251.417 184.791 251.637 184.826 251.842 184.908C252.046 184.99 252.229 185.116 252.379 185.277C252.668 185.608 252.88 186 253.001 186.422C253.137 186.877 253.221 187.346 253.253 187.82C253.288 188.304 253.304 188.713 253.304 189.052C253.304 189.39 253.272 189.819 253.237 190.248ZM273.85 197.727C273.694 196.967 273.379 196.25 272.925 195.621C272.48 195.018 271.895 194.532 271.221 194.204C270.397 193.827 269.497 193.648 268.592 193.681C267.71 193.659 266.835 193.832 266.029 194.188C265.335 194.504 264.725 194.977 264.246 195.57C263.761 196.176 263.405 196.875 263.199 197.625C262.968 198.459 262.854 199.321 262.861 200.187C262.857 201.061 262.953 201.933 263.148 202.785C263.318 203.543 263.639 204.259 264.093 204.89C264.539 205.494 265.131 205.974 265.813 206.288C266.634 206.649 267.525 206.823 268.422 206.795C269.302 206.817 270.176 206.649 270.985 206.303C271.677 206.001 272.285 205.533 272.756 204.942C273.23 204.329 273.579 203.63 273.783 202.883C274.015 202.049 274.128 201.186 274.122 200.321C274.128 199.445 274.037 198.571 273.85 197.715V197.727ZM270.63 201.486C270.601 201.934 270.511 202.376 270.363 202.8C270.225 203.203 269.995 203.567 269.69 203.863C269.353 204.166 268.91 204.324 268.458 204.3C268.231 204.315 268.004 204.284 267.789 204.209C267.575 204.134 267.378 204.016 267.21 203.863C266.916 203.564 266.696 203.2 266.568 202.8C266.432 202.369 266.353 201.922 266.332 201.47C266.312 200.998 266.301 200.58 266.301 200.222C266.301 199.864 266.301 199.411 266.352 198.939C266.38 198.489 266.477 198.045 266.639 197.625C266.783 197.236 267.02 196.889 267.328 196.613C267.686 196.33 268.136 196.19 268.592 196.219C268.81 196.206 269.028 196.24 269.232 196.318C269.436 196.397 269.62 196.519 269.772 196.676C270.056 196.986 270.268 197.354 270.394 197.754C270.531 198.181 270.616 198.622 270.646 199.069C270.681 199.53 270.697 199.931 270.697 200.25C270.697 200.569 270.666 201.013 270.63 201.474V201.486Z" fill="#FFFEF9"/>
<path d="M290.391 246.104L291.024 244.231L294.193 245.47V242.015H296.161V245.47L299.31 244.231L300.002 246.104L296.72 247.198L298.735 249.903L297.208 251.024L295.165 248.206L293.197 251.024L291.583 249.903L293.598 247.198L290.391 246.104Z" fill="#FFFEF9"/>
</svg>
