<svg width="767" height="430" viewBox="0 0 767 430" fill="none" xmlns="http://www.w3.org/2000/svg">
<path d="M96.3606 83.94H98.5656V87.055H98.6356C99.0556 85.9583 99.8023 85.0833 100.876 84.43C101.949 83.7533 103.127 83.415 104.411 83.415C105.671 83.415 106.721 83.5783 107.561 83.905C108.424 84.2317 109.112 84.6983 109.626 85.305C110.139 85.8883 110.501 86.6117 110.711 87.475C110.921 88.3383 111.026 89.3067 111.026 90.38V102H108.821V90.73C108.821 89.96 108.751 89.2483 108.611 88.595C108.471 87.9183 108.226 87.335 107.876 86.845C107.526 86.355 107.047 85.97 106.441 85.69C105.857 85.41 105.122 85.27 104.236 85.27C103.349 85.27 102.556 85.4333 101.856 85.76C101.179 86.0633 100.596 86.495 100.106 87.055C99.6389 87.5917 99.2656 88.245 98.9856 89.015C98.7289 89.7617 98.5889 90.5783 98.5656 91.465V102H96.3606V83.94ZM127.129 91.71C127.106 90.87 126.954 90.065 126.674 89.295C126.418 88.525 126.044 87.8483 125.554 87.265C125.064 86.6583 124.469 86.18 123.769 85.83C123.069 85.4567 122.276 85.27 121.389 85.27C120.479 85.27 119.674 85.4567 118.974 85.83C118.274 86.18 117.679 86.6583 117.189 87.265C116.699 87.8483 116.303 88.5367 115.999 89.33C115.719 90.1 115.533 90.8933 115.439 91.71H127.129ZM115.439 93.565C115.439 94.3583 115.544 95.1867 115.754 96.05C115.988 96.89 116.349 97.6483 116.839 98.325C117.329 99.0017 117.948 99.5617 118.694 100.005C119.441 100.448 120.339 100.67 121.389 100.67C122.999 100.67 124.259 100.25 125.169 99.41C126.079 98.57 126.709 97.45 127.059 96.05H129.264C128.798 98.1033 127.934 99.69 126.674 100.81C125.438 101.93 123.676 102.49 121.389 102.49C119.966 102.49 118.729 102.245 117.679 101.755C116.653 101.242 115.813 100.553 115.159 99.69C114.506 98.8033 114.016 97.7883 113.689 96.645C113.386 95.4783 113.234 94.2533 113.234 92.97C113.234 91.78 113.386 90.6133 113.689 89.47C114.016 88.3267 114.506 87.3117 115.159 86.425C115.813 85.515 116.653 84.7917 117.679 84.255C118.729 83.695 119.966 83.415 121.389 83.415C122.836 83.415 124.073 83.7067 125.099 84.29C126.126 84.8733 126.954 85.6433 127.584 86.6C128.238 87.5333 128.704 88.6183 128.984 89.855C129.264 91.0683 129.381 92.305 129.334 93.565H115.439ZM129.424 83.94H131.769L136.389 99.41H136.459L140.869 83.94H143.354L147.764 99.41H147.834L152.454 83.94H154.799L148.989 102H146.574L142.129 86.81H142.059L137.649 102H135.234L129.424 83.94ZM171.792 85.795H168.222V102H166.017V85.795H162.937V83.94H166.017V82.295C166.017 81.525 166.076 80.8133 166.192 80.16C166.309 79.5067 166.531 78.9467 166.857 78.48C167.184 78.0133 167.627 77.6517 168.187 77.395C168.771 77.1383 169.506 77.01 170.392 77.01C170.719 77.01 171.022 77.0217 171.302 77.045C171.582 77.0683 171.897 77.1033 172.247 77.15V79.04C171.944 78.9933 171.664 78.9583 171.407 78.935C171.151 78.8883 170.894 78.865 170.637 78.865C170.031 78.865 169.564 78.9583 169.237 79.145C168.911 79.3317 168.666 79.5883 168.502 79.915C168.362 80.2183 168.281 80.58 168.257 81C168.234 81.42 168.222 81.875 168.222 82.365V83.94H171.792V85.795ZM172.625 89.47C172.695 88.42 172.917 87.51 173.29 86.74C173.663 85.97 174.165 85.34 174.795 84.85C175.448 84.36 176.207 83.9983 177.07 83.765C177.933 83.5317 178.89 83.415 179.94 83.415C180.733 83.415 181.527 83.4967 182.32 83.66C183.113 83.8 183.825 84.08 184.455 84.5C185.085 84.92 185.598 85.515 185.995 86.285C186.392 87.0317 186.59 88.0117 186.59 89.225V98.815C186.59 99.7017 187.022 100.145 187.885 100.145C188.142 100.145 188.375 100.098 188.585 100.005V101.86C188.328 101.907 188.095 101.942 187.885 101.965C187.698 101.988 187.453 102 187.15 102C186.59 102 186.135 101.93 185.785 101.79C185.458 101.627 185.202 101.405 185.015 101.125C184.828 100.845 184.7 100.518 184.63 100.145C184.583 99.7483 184.56 99.3167 184.56 98.85H184.49C184.093 99.4333 183.685 99.9583 183.265 100.425C182.868 100.868 182.413 101.242 181.9 101.545C181.41 101.848 180.838 102.082 180.185 102.245C179.555 102.408 178.797 102.49 177.91 102.49C177.07 102.49 176.277 102.385 175.53 102.175C174.807 101.988 174.165 101.685 173.605 101.265C173.068 100.822 172.637 100.273 172.31 99.62C172.007 98.9433 171.855 98.15 171.855 97.24C171.855 95.98 172.135 95 172.695 94.3C173.255 93.5767 173.99 93.0283 174.9 92.655C175.833 92.2817 176.872 92.025 178.015 91.885C179.182 91.7217 180.36 91.57 181.55 91.43C182.017 91.3833 182.425 91.325 182.775 91.255C183.125 91.185 183.417 91.0683 183.65 90.905C183.883 90.7183 184.058 90.4733 184.175 90.17C184.315 89.8667 184.385 89.47 184.385 88.98C184.385 88.2333 184.257 87.6267 184 87.16C183.767 86.67 183.428 86.285 182.985 86.005C182.565 85.725 182.063 85.5383 181.48 85.445C180.92 85.3283 180.313 85.27 179.66 85.27C178.26 85.27 177.117 85.6083 176.23 86.285C175.343 86.9383 174.877 88 174.83 89.47H172.625ZM184.385 92.13H184.315C184.175 92.3867 183.907 92.5733 183.51 92.69C183.113 92.8067 182.763 92.8883 182.46 92.935C181.527 93.0983 180.558 93.25 179.555 93.39C178.575 93.5067 177.677 93.6933 176.86 93.95C176.043 94.2067 175.367 94.58 174.83 95.07C174.317 95.5367 174.06 96.2133 174.06 97.1C174.06 97.66 174.165 98.1617 174.375 98.605C174.608 99.025 174.912 99.3983 175.285 99.725C175.658 100.028 176.09 100.262 176.58 100.425C177.07 100.588 177.572 100.67 178.085 100.67C178.925 100.67 179.73 100.542 180.5 100.285C181.27 100.028 181.935 99.655 182.495 99.165C183.078 98.675 183.533 98.08 183.86 97.38C184.21 96.68 184.385 95.8867 184.385 95V92.13ZM189.969 77.01H192.174V102H189.969V77.01ZM195.379 77.01H197.584V102H195.379V77.01Z" fill="#373636"/>
<path d="M60.9019 127.79H56.2269V122.565H60.9019V120.365C60.9019 117.835 61.6902 115.763 63.2669 114.15C64.8435 112.537 67.2269 111.73 70.4169 111.73C71.1135 111.73 71.8102 111.767 72.5069 111.84C73.2035 111.877 73.8819 111.913 74.5419 111.95V117.78C73.6252 117.67 72.6719 117.615 71.6819 117.615C70.6185 117.615 69.8485 117.872 69.3719 118.385C68.9319 118.862 68.7119 119.687 68.7119 120.86V122.565H74.1019V127.79H68.7119V151H60.9019V127.79ZM75.5323 131.31C75.6423 129.477 76.1006 127.955 76.9073 126.745C77.7139 125.535 78.7406 124.563 79.9873 123.83C81.2339 123.097 82.6273 122.583 84.1673 122.29C85.7439 121.96 87.3206 121.795 88.8973 121.795C90.3273 121.795 91.7756 121.905 93.2423 122.125C94.709 122.308 96.0473 122.693 97.2573 123.28C98.4673 123.867 99.4573 124.692 100.227 125.755C100.997 126.782 101.382 128.157 101.382 129.88V144.675C101.382 145.958 101.456 147.187 101.602 148.36C101.749 149.533 102.006 150.413 102.372 151H94.4523C94.3056 150.56 94.1773 150.12 94.0673 149.68C93.994 149.203 93.939 148.727 93.9023 148.25C92.6556 149.533 91.189 150.432 89.5023 150.945C87.8156 151.458 86.0923 151.715 84.3323 151.715C82.9756 151.715 81.7106 151.55 80.5373 151.22C79.3639 150.89 78.3373 150.377 77.4573 149.68C76.5773 148.983 75.8806 148.103 75.3673 147.04C74.8906 145.977 74.6523 144.712 74.6523 143.245C74.6523 141.632 74.9273 140.312 75.4773 139.285C76.0639 138.222 76.7973 137.378 77.6773 136.755C78.5939 136.132 79.6206 135.673 80.7573 135.38C81.9306 135.05 83.1039 134.793 84.2773 134.61C85.4506 134.427 86.6056 134.28 87.7423 134.17C88.879 134.06 89.8873 133.895 90.7673 133.675C91.6473 133.455 92.3439 133.143 92.8573 132.74C93.3706 132.3 93.6089 131.677 93.5723 130.87C93.5723 130.027 93.4256 129.367 93.1323 128.89C92.8756 128.377 92.509 127.992 92.0323 127.735C91.5923 127.442 91.0606 127.258 90.4373 127.185C89.8506 127.075 89.2089 127.02 88.5123 127.02C86.9723 127.02 85.7623 127.35 84.8823 128.01C84.0023 128.67 83.4889 129.77 83.3423 131.31H75.5323ZM93.5723 137.085C93.2423 137.378 92.8206 137.617 92.3073 137.8C91.8306 137.947 91.2989 138.075 90.7123 138.185C90.1623 138.295 89.5756 138.387 88.9523 138.46C88.3289 138.533 87.7056 138.625 87.0823 138.735C86.4956 138.845 85.9089 138.992 85.3223 139.175C84.7723 139.358 84.2773 139.615 83.8373 139.945C83.4339 140.238 83.1039 140.623 82.8473 141.1C82.5906 141.577 82.4623 142.182 82.4623 142.915C82.4623 143.612 82.5906 144.198 82.8473 144.675C83.1039 145.152 83.4523 145.537 83.8923 145.83C84.3323 146.087 84.8456 146.27 85.4323 146.38C86.019 146.49 86.6239 146.545 87.2473 146.545C88.7873 146.545 89.9789 146.288 90.8223 145.775C91.6656 145.262 92.2889 144.657 92.6923 143.96C93.0956 143.227 93.334 142.493 93.4073 141.76C93.5173 141.027 93.5723 140.44 93.5723 140V137.085ZM111.844 141.76C111.844 142.603 112.009 143.337 112.339 143.96C112.706 144.547 113.164 145.042 113.714 145.445C114.264 145.812 114.888 146.087 115.584 146.27C116.318 146.453 117.069 146.545 117.839 146.545C118.389 146.545 118.958 146.49 119.544 146.38C120.168 146.233 120.718 146.032 121.194 145.775C121.708 145.482 122.129 145.115 122.459 144.675C122.789 144.198 122.954 143.612 122.954 142.915C122.954 141.742 122.166 140.862 120.589 140.275C119.049 139.688 116.886 139.102 114.099 138.515C112.963 138.258 111.844 137.965 110.744 137.635C109.681 137.268 108.728 136.81 107.884 136.26C107.041 135.673 106.363 134.958 105.849 134.115C105.336 133.235 105.079 132.172 105.079 130.925C105.079 129.092 105.428 127.588 106.124 126.415C106.858 125.242 107.811 124.325 108.984 123.665C110.158 122.968 111.478 122.492 112.944 122.235C114.411 121.942 115.914 121.795 117.454 121.795C118.994 121.795 120.479 121.942 121.909 122.235C123.376 122.528 124.678 123.023 125.814 123.72C126.951 124.417 127.886 125.352 128.619 126.525C129.389 127.662 129.848 129.11 129.994 130.87H122.569C122.459 129.367 121.891 128.358 120.864 127.845C119.838 127.295 118.628 127.02 117.234 127.02C116.794 127.02 116.318 127.057 115.804 127.13C115.291 127.167 114.814 127.277 114.374 127.46C113.971 127.643 113.623 127.918 113.329 128.285C113.036 128.615 112.889 129.073 112.889 129.66C112.889 130.357 113.146 130.925 113.659 131.365C114.173 131.805 114.833 132.172 115.639 132.465C116.483 132.722 117.436 132.96 118.499 133.18C119.563 133.4 120.644 133.638 121.744 133.895C122.881 134.152 123.981 134.463 125.044 134.83C126.144 135.197 127.116 135.692 127.959 136.315C128.803 136.902 129.481 137.653 129.994 138.57C130.508 139.45 130.764 140.55 130.764 141.87C130.764 143.74 130.379 145.317 129.609 146.6C128.876 147.847 127.904 148.855 126.694 149.625C125.484 150.395 124.091 150.927 122.514 151.22C120.974 151.55 119.398 151.715 117.784 151.715C116.134 151.715 114.521 151.55 112.944 151.22C111.368 150.89 109.956 150.34 108.709 149.57C107.499 148.8 106.491 147.792 105.684 146.545C104.914 145.262 104.493 143.667 104.419 141.76H111.844ZM133.685 111.73H141.495V126.525H141.66C142.65 124.875 143.915 123.683 145.455 122.95C146.995 122.18 148.499 121.795 149.965 121.795C152.055 121.795 153.76 122.088 155.08 122.675C156.437 123.225 157.5 124.013 158.27 125.04C159.04 126.03 159.572 127.258 159.865 128.725C160.195 130.155 160.36 131.75 160.36 133.51V151H152.55V134.94C152.55 132.593 152.184 130.852 151.45 129.715C150.717 128.542 149.415 127.955 147.545 127.955C145.419 127.955 143.879 128.597 142.925 129.88C141.972 131.127 141.495 133.198 141.495 136.095V151H133.685V111.73ZM172.668 118.165H164.858V111.73H172.668V118.165ZM164.858 122.565H172.668V151H164.858V122.565ZM184.098 136.81C184.098 137.947 184.208 139.065 184.428 140.165C184.648 141.228 185.014 142.2 185.528 143.08C186.078 143.923 186.793 144.602 187.673 145.115C188.553 145.628 189.653 145.885 190.973 145.885C192.293 145.885 193.393 145.628 194.273 145.115C195.189 144.602 195.904 143.923 196.418 143.08C196.968 142.2 197.353 141.228 197.573 140.165C197.793 139.065 197.903 137.947 197.903 136.81C197.903 135.673 197.793 134.555 197.573 133.455C197.353 132.355 196.968 131.383 196.418 130.54C195.904 129.697 195.189 129.018 194.273 128.505C193.393 127.955 192.293 127.68 190.973 127.68C189.653 127.68 188.553 127.955 187.673 128.505C186.793 129.018 186.078 129.697 185.528 130.54C185.014 131.383 184.648 132.355 184.428 133.455C184.208 134.555 184.098 135.673 184.098 136.81ZM176.288 136.81C176.288 134.537 176.636 132.483 177.333 130.65C178.029 128.78 179.019 127.203 180.303 125.92C181.586 124.6 183.126 123.592 184.923 122.895C186.719 122.162 188.736 121.795 190.973 121.795C193.209 121.795 195.226 122.162 197.023 122.895C198.856 123.592 200.414 124.6 201.698 125.92C202.981 127.203 203.971 128.78 204.668 130.65C205.364 132.483 205.713 134.537 205.713 136.81C205.713 139.083 205.364 141.137 204.668 142.97C203.971 144.803 202.981 146.38 201.698 147.7C200.414 148.983 198.856 149.973 197.023 150.67C195.226 151.367 193.209 151.715 190.973 151.715C188.736 151.715 186.719 151.367 184.923 150.67C183.126 149.973 181.586 148.983 180.303 147.7C179.019 146.38 178.029 144.803 177.333 142.97C176.636 141.137 176.288 139.083 176.288 136.81ZM209.141 122.565H216.566V126.525H216.731C217.721 124.875 219.004 123.683 220.581 122.95C222.157 122.18 223.771 121.795 225.421 121.795C227.511 121.795 229.216 122.088 230.536 122.675C231.892 123.225 232.956 124.013 233.726 125.04C234.496 126.03 235.027 127.258 235.321 128.725C235.651 130.155 235.816 131.75 235.816 133.51V151H228.006V134.94C228.006 132.593 227.639 130.852 226.906 129.715C226.172 128.542 224.871 127.955 223.001 127.955C220.874 127.955 219.334 128.597 218.381 129.88C217.427 131.127 216.951 133.198 216.951 136.095V151H209.141V122.565Z" fill="#373636"/>
<path d="M131.957 198.014H128.81V196.336H128.74C128.321 197.035 127.777 197.54 127.109 197.851C126.441 198.162 125.757 198.317 125.058 198.317C124.172 198.317 123.442 198.201 122.867 197.968C122.308 197.734 121.865 197.408 121.538 196.989C121.212 196.554 120.979 196.033 120.839 195.427C120.715 194.806 120.653 194.122 120.653 193.376V185.964H123.962V192.77C123.962 193.765 124.118 194.51 124.429 195.008C124.739 195.489 125.291 195.73 126.083 195.73C126.985 195.73 127.637 195.466 128.041 194.938C128.445 194.394 128.647 193.508 128.647 192.281V185.964H131.957V198.014ZM140.552 195.847C141.095 195.847 141.546 195.738 141.903 195.52C142.276 195.303 142.572 195.023 142.789 194.681C143.022 194.324 143.185 193.912 143.279 193.446C143.372 192.98 143.418 192.506 143.418 192.024C143.418 191.543 143.364 191.069 143.255 190.603C143.162 190.136 142.999 189.725 142.766 189.367C142.533 188.994 142.23 188.699 141.857 188.482C141.499 188.249 141.057 188.132 140.528 188.132C139.985 188.132 139.526 188.249 139.153 188.482C138.796 188.699 138.501 188.987 138.268 189.344C138.05 189.701 137.895 190.113 137.801 190.579C137.708 191.045 137.662 191.527 137.662 192.024C137.662 192.506 137.708 192.98 137.801 193.446C137.91 193.912 138.073 194.324 138.291 194.681C138.524 195.023 138.827 195.303 139.2 195.52C139.573 195.738 140.023 195.847 140.552 195.847ZM134.469 185.964H137.615V187.503H137.662C138.066 186.85 138.578 186.376 139.2 186.081C139.821 185.786 140.505 185.638 141.251 185.638C142.199 185.638 143.014 185.817 143.698 186.174C144.382 186.532 144.949 187.005 145.4 187.596C145.85 188.186 146.184 188.878 146.402 189.67C146.619 190.447 146.728 191.263 146.728 192.117C146.728 192.925 146.619 193.702 146.402 194.448C146.184 195.194 145.85 195.854 145.4 196.429C144.964 197.004 144.413 197.463 143.745 197.804C143.092 198.146 142.323 198.317 141.437 198.317C140.692 198.317 140 198.17 139.363 197.874C138.741 197.564 138.229 197.113 137.825 196.523H137.778V202.233H134.469V185.964ZM159.399 185.964H161.823V188.179H159.399V194.145C159.399 194.705 159.492 195.077 159.678 195.264C159.865 195.45 160.238 195.544 160.797 195.544C160.984 195.544 161.162 195.536 161.333 195.52C161.504 195.505 161.667 195.481 161.823 195.45V198.014C161.543 198.061 161.232 198.092 160.89 198.107C160.549 198.123 160.215 198.131 159.888 198.131C159.376 198.131 158.886 198.092 158.42 198.014C157.969 197.952 157.565 197.82 157.208 197.618C156.866 197.416 156.594 197.128 156.392 196.756C156.19 196.383 156.089 195.893 156.089 195.287V188.179H154.085V185.964H156.089V182.352H159.399V185.964ZM166.334 192.001C166.334 192.483 166.381 192.957 166.474 193.423C166.567 193.873 166.723 194.285 166.94 194.658C167.173 195.015 167.476 195.303 167.849 195.52C168.222 195.738 168.688 195.847 169.247 195.847C169.807 195.847 170.273 195.738 170.646 195.52C171.034 195.303 171.337 195.015 171.555 194.658C171.788 194.285 171.951 193.873 172.044 193.423C172.138 192.957 172.184 192.483 172.184 192.001C172.184 191.519 172.138 191.045 172.044 190.579C171.951 190.113 171.788 189.701 171.555 189.344C171.337 188.987 171.034 188.699 170.646 188.482C170.273 188.249 169.807 188.132 169.247 188.132C168.688 188.132 168.222 188.249 167.849 188.482C167.476 188.699 167.173 188.987 166.94 189.344C166.723 189.701 166.567 190.113 166.474 190.579C166.381 191.045 166.334 191.519 166.334 192.001ZM163.024 192.001C163.024 191.038 163.172 190.167 163.467 189.391C163.763 188.598 164.182 187.93 164.726 187.386C165.27 186.827 165.922 186.4 166.684 186.104C167.445 185.794 168.3 185.638 169.247 185.638C170.195 185.638 171.05 185.794 171.811 186.104C172.588 186.4 173.248 186.827 173.792 187.386C174.336 187.93 174.756 188.598 175.051 189.391C175.346 190.167 175.494 191.038 175.494 192.001C175.494 192.964 175.346 193.834 175.051 194.611C174.756 195.388 174.336 196.056 173.792 196.616C173.248 197.16 172.588 197.579 171.811 197.874C171.05 198.17 170.195 198.317 169.247 198.317C168.3 198.317 167.445 198.17 166.684 197.874C165.922 197.579 165.27 197.16 164.726 196.616C164.182 196.056 163.763 195.388 163.467 194.611C163.172 193.834 163.024 192.964 163.024 192.001Z" fill="#373636"/>
<path d="M102.077 224.553C101.033 223.442 99.7668 222.563 98.3609 221.973C96.9551 221.384 95.4407 221.097 93.9166 221.131C90.5789 221.131 87.7924 222.114 85.5571 224.078C83.2926 226.091 81.4774 228.558 80.2296 231.318C78.8907 234.237 77.9174 237.31 77.3316 240.467C76.7612 243.332 76.4099 246.236 76.2806 249.154L76.5426 249.416C79.0879 245.729 82.0708 243.096 85.4915 241.518C88.9122 239.94 92.8612 239.15 97.3385 239.15C101.339 239.162 105.289 240.036 108.92 241.714C112.564 243.333 115.834 245.686 118.527 248.627C120.975 251.419 122.813 254.691 123.924 258.234C125.054 261.765 125.631 265.45 125.636 269.157C125.679 273.669 124.903 278.152 123.344 282.386C121.884 286.343 119.647 289.968 116.766 293.048C113.889 296.091 110.417 298.509 106.566 300.153C102.617 301.867 98.2291 302.723 93.4026 302.72C86.4717 302.72 80.7239 301.339 76.1594 298.575C71.6879 295.9 67.9381 292.172 65.2359 287.717C62.4379 283.037 60.5203 277.884 59.5777 272.514C58.5188 266.805 57.9893 261.011 57.9962 255.205C57.9996 249.446 58.6588 243.706 59.9608 238.096C61.1844 232.623 63.3208 227.395 66.2804 222.631C69.1149 218.086 72.9384 214.239 77.4659 211.377C82.0261 208.482 87.5981 207.035 94.1819 207.035C97.9361 207.005 101.67 207.584 105.24 208.747C108.542 209.825 111.618 211.498 114.316 213.685C116.982 215.877 119.176 218.586 120.767 221.649C122.51 225.063 123.625 228.763 124.058 232.572H106.288C105.692 229.547 104.229 226.761 102.077 224.553ZM86.3594 254.629C84.5326 255.5 82.9331 256.783 81.6867 258.378C80.431 260.009 79.4933 261.862 78.923 263.84C78.2998 265.955 77.9887 268.15 77.9996 270.356C78.0006 272.478 78.332 274.587 78.982 276.607C79.605 278.603 80.5822 280.471 81.8668 282.121C83.1256 283.738 84.7197 285.062 86.5394 286.004C88.4948 286.996 90.6637 287.493 92.8558 287.452C94.9442 287.5 97.0089 287.001 98.8448 286.004C100.555 285.041 102.055 283.744 103.255 282.19C104.5 280.576 105.436 278.746 106.019 276.793C106.63 274.787 106.94 272.702 106.939 270.605C106.944 268.449 106.656 266.302 106.084 264.223C105.551 262.247 104.683 260.377 103.517 258.696C102.365 257.063 100.858 255.713 99.11 254.747C97.1917 253.709 95.0364 253.187 92.8558 253.234C90.6097 253.188 88.3833 253.661 86.3495 254.616L86.3594 254.629Z" fill="#373636"/>
<path d="M220.909 265.595V268.476H226.188V273.1H220.909V296.6H214.711V273.1H205.31V296.6H199.088V273.1H194.465V268.476H199.088V266.138C199.088 264.364 199.307 262.922 199.743 261.813C200.096 260.826 200.696 259.947 201.485 259.259C202.2 258.664 203.05 258.252 203.961 258.06C204.917 257.858 205.891 257.758 206.868 257.762C208.864 257.762 210.314 257.889 211.22 258.142V262.982C210.801 262.869 210.374 262.788 209.943 262.739C209.41 262.68 208.875 262.653 208.339 262.658C207.579 262.637 206.83 262.845 206.191 263.257C205.592 263.656 205.294 264.436 205.294 265.595V268.476H214.704V266.138C214.704 264.364 214.922 262.922 215.359 261.813C215.712 260.827 216.31 259.948 217.098 259.259C217.814 258.665 218.663 258.254 219.573 258.06C220.53 257.858 221.506 257.758 222.484 257.762C224.48 257.762 225.93 257.889 226.836 258.142V262.982C226.417 262.869 225.99 262.788 225.559 262.739C225.026 262.68 224.49 262.653 223.954 262.658C223.193 262.637 222.444 262.845 221.803 263.257C221.211 263.656 220.909 264.439 220.909 265.595Z" fill="#373636"/>
<path d="M190.096 271.905C188.845 270.574 187.325 269.526 185.636 268.83C183.727 268.059 181.683 267.68 179.624 267.717C178.519 267.711 177.416 267.811 176.33 268.015L210.918 209.15H208.534L193.501 234.711C193.285 233.804 193.053 232.92 192.804 232.068C190.998 225.956 188.538 221.057 185.423 217.373C182.308 213.688 178.706 211.052 174.618 209.465C170.432 207.866 165.984 207.062 161.503 207.094C157.067 207.07 152.665 207.874 148.524 209.465C144.437 211.045 140.856 213.681 137.78 217.373C134.704 221.064 132.267 225.963 130.468 232.068C128.663 238.181 127.761 245.712 127.764 254.662C127.764 263.887 128.665 271.597 130.468 277.793C132.271 283.988 134.709 288.93 137.78 292.619C140.854 296.308 144.435 298.944 148.524 300.527C150.256 301.197 152.04 301.724 153.858 302.105L150.979 307H153.422L165.741 286.044C165.894 286.875 166.113 287.693 166.395 288.49C166.984 290.226 167.929 291.82 169.169 293.169C170.42 294.501 171.942 295.55 173.632 296.244C177.501 297.728 181.783 297.728 185.652 296.244C187.341 295.549 188.862 294.5 190.112 293.169C191.352 291.82 192.297 290.226 192.886 288.49C194.156 284.621 194.156 280.447 192.886 276.578C192.291 274.843 191.341 273.251 190.096 271.905ZM161.5 287.622C157.721 287.622 154.822 286.392 152.803 283.932C150.705 281.323 149.198 278.288 148.389 275.039C147.461 271.505 146.912 267.883 146.752 264.233C146.575 260.5 146.488 257.315 146.49 254.678C146.49 253.098 146.512 251.187 146.556 248.945C146.599 246.703 146.753 244.397 147.017 242.026C147.279 239.647 147.716 237.29 148.327 234.976C148.887 232.779 149.752 230.672 150.898 228.715C151.947 226.922 153.389 225.389 155.115 224.233C156.829 223.093 158.959 222.522 161.507 222.52C164.054 222.518 166.208 223.089 167.967 224.233C169.732 225.384 171.218 226.916 172.316 228.715C173.495 230.655 174.362 232.767 174.886 234.976C175.453 237.3 175.89 239.653 176.196 242.026C176.497 244.321 176.673 246.631 176.723 248.945C176.767 251.184 176.788 253.096 176.788 254.678C176.788 257.147 176.711 260.094 176.556 263.519L162.414 287.59C162.106 287.609 161.805 287.619 161.5 287.619V287.622ZM187.159 286.133C186.869 287.27 186.381 288.347 185.718 289.315C185.067 290.258 184.212 291.042 183.216 291.607C182.106 292.18 180.875 292.478 179.626 292.478C178.377 292.478 177.146 292.18 176.035 291.607C175.038 291.044 174.182 290.26 173.534 289.315C172.868 288.349 172.38 287.271 172.093 286.133C171.474 283.771 171.474 281.29 172.093 278.929C172.372 277.788 172.861 276.709 173.534 275.746C174.19 274.818 175.045 274.047 176.035 273.49C177.146 272.918 178.377 272.619 179.626 272.619C180.875 272.619 182.106 272.918 183.216 273.49C184.205 274.049 185.06 274.82 185.718 275.746C186.389 276.71 186.877 277.789 187.159 278.929C187.774 281.291 187.774 283.771 187.159 286.133Z" fill="#373636"/>
<path d="M201.053 212.85C200.92 212.201 200.659 211.587 200.283 211.042C199.916 210.527 199.429 210.108 198.865 209.821C198.182 209.5 197.432 209.346 196.678 209.372C195.944 209.355 195.215 209.504 194.546 209.808C193.965 210.084 193.456 210.493 193.06 211C192.656 211.526 192.362 212.127 192.192 212.768C192.001 213.471 191.906 214.197 191.91 214.926C191.905 215.648 191.985 216.368 192.149 217.07C192.286 217.691 192.554 218.275 192.935 218.783C193.312 219.269 193.804 219.654 194.366 219.903C195.052 220.194 195.792 220.334 196.537 220.312C197.267 220.329 197.993 220.196 198.669 219.919C199.24 219.677 199.745 219.302 200.142 218.825C200.538 218.333 200.829 217.765 200.997 217.156C201.19 216.466 201.285 215.753 201.279 215.037C201.282 214.302 201.206 213.569 201.053 212.85ZM198.374 216.006C198.349 216.361 198.274 216.71 198.152 217.044C198.037 217.363 197.843 217.647 197.588 217.869C197.29 218.088 196.929 218.206 196.558 218.206C196.188 218.206 195.827 218.088 195.529 217.869C195.285 217.643 195.101 217.36 194.995 217.044C194.881 216.705 194.815 216.351 194.798 215.993C194.782 215.617 194.772 215.283 194.772 214.981C194.772 214.68 194.772 214.3 194.815 213.888C194.838 213.495 194.917 213.108 195.051 212.738C195.172 212.399 195.369 212.092 195.627 211.841C195.915 211.585 196.293 211.455 196.678 211.478C196.861 211.466 197.043 211.496 197.213 211.564C197.383 211.631 197.536 211.736 197.66 211.871C197.901 212.146 198.078 212.472 198.178 212.823C198.291 213.202 198.361 213.592 198.387 213.986C198.417 214.389 198.43 214.729 198.43 215.011C198.43 215.292 198.397 215.649 198.368 216.006H198.374ZM215.522 222.228C215.393 221.596 215.13 220.999 214.753 220.476C214.382 219.974 213.896 219.57 213.335 219.297C212.65 218.984 211.901 218.835 211.148 218.862C210.415 218.843 209.687 218.988 209.016 219.284C208.439 219.546 207.931 219.94 207.533 220.433C207.129 220.938 206.833 221.519 206.662 222.143C206.469 222.837 206.375 223.554 206.38 224.274C206.377 225.001 206.457 225.726 206.619 226.435C206.761 227.066 207.028 227.662 207.405 228.187C207.777 228.689 208.269 229.089 208.836 229.35C209.519 229.65 210.261 229.794 211.007 229.772C211.739 229.79 212.466 229.65 213.139 229.363C213.715 229.111 214.221 228.722 214.612 228.23C215.007 227.72 215.297 227.138 215.467 226.517C215.659 225.823 215.754 225.106 215.748 224.385C215.751 223.657 215.673 222.93 215.516 222.218L215.522 222.228ZM212.844 225.355C212.819 225.728 212.744 226.095 212.621 226.448C212.507 226.783 212.315 227.086 212.061 227.332C211.781 227.585 211.413 227.715 211.036 227.696C210.848 227.708 210.659 227.682 210.48 227.62C210.302 227.558 210.138 227.46 209.998 227.332C209.754 227.084 209.571 226.781 209.465 226.448C209.351 226.09 209.285 225.718 209.268 225.342C209.268 224.949 209.242 224.602 209.242 224.304C209.242 224.006 209.242 223.629 209.285 223.236C209.308 222.861 209.389 222.493 209.524 222.143C209.643 221.82 209.84 221.531 210.097 221.301C210.395 221.066 210.769 220.949 211.148 220.974C211.329 220.962 211.511 220.99 211.68 221.056C211.85 221.121 212.003 221.223 212.13 221.353C212.366 221.611 212.542 221.917 212.647 222.251C212.762 222.605 212.832 222.972 212.857 223.344C212.886 223.727 212.9 224.061 212.9 224.327C212.9 224.592 212.867 224.962 212.841 225.345L212.844 225.355Z" fill="#373636"/>
<path d="M229.277 262.475L229.804 260.916L232.424 261.948V259.073H234.061V261.948L236.681 260.916L237.254 262.475L234.526 263.385L236.203 265.635L234.932 266.568L233.233 264.223L231.596 266.568L230.256 265.635L231.933 263.385L229.277 262.475Z" fill="#373636"/>
<path d="M85.9824 339.86C85.833 338.423 85.3104 337.387 84.4144 336.752C83.537 336.099 82.4077 335.772 81.0264 335.772C80.4664 335.772 79.9157 335.828 79.3744 335.94C78.833 336.052 78.3477 336.239 77.9184 336.5C77.5077 336.761 77.1717 337.116 76.9104 337.564C76.6677 337.993 76.5464 338.535 76.5464 339.188C76.5464 339.804 76.7237 340.308 77.0784 340.7C77.4517 341.073 77.937 341.381 78.5344 341.624C79.1504 341.867 79.841 342.072 80.6064 342.24C81.3717 342.389 82.1464 342.557 82.9304 342.744C83.733 342.931 84.517 343.155 85.2824 343.416C86.0477 343.659 86.729 343.995 87.3264 344.424C87.9424 344.853 88.4277 345.395 88.7824 346.048C89.1557 346.701 89.3424 347.523 89.3424 348.512C89.3424 349.576 89.0997 350.491 88.6144 351.256C88.1477 352.003 87.541 352.619 86.7944 353.104C86.0477 353.571 85.2077 353.907 84.2744 354.112C83.3597 354.336 82.445 354.448 81.5304 354.448C80.4104 354.448 79.3464 354.308 78.3384 354.028C77.349 353.748 76.4717 353.328 75.7064 352.768C74.9597 352.189 74.3624 351.461 73.9144 350.584C73.485 349.688 73.2704 348.633 73.2704 347.42H75.7904C75.7904 348.26 75.949 348.988 76.2664 349.604C76.6024 350.201 77.0317 350.696 77.5544 351.088C78.0957 351.48 78.721 351.769 79.4304 351.956C80.1397 352.143 80.8677 352.236 81.6144 352.236C82.2117 352.236 82.809 352.18 83.4064 352.068C84.0224 351.956 84.573 351.769 85.0584 351.508C85.5437 351.228 85.9357 350.855 86.2344 350.388C86.533 349.921 86.6824 349.324 86.6824 348.596C86.6824 347.905 86.4957 347.345 86.1224 346.916C85.7677 346.487 85.2824 346.141 84.6664 345.88C84.069 345.6 83.3877 345.376 82.6224 345.208C81.857 345.04 81.073 344.872 80.2704 344.704C79.4864 344.517 78.7117 344.312 77.9464 344.088C77.181 343.845 76.4904 343.537 75.8744 343.164C75.277 342.772 74.7917 342.277 74.4184 341.68C74.0637 341.064 73.8864 340.299 73.8864 339.384C73.8864 338.376 74.0917 337.508 74.5024 336.78C74.913 336.033 75.4544 335.427 76.1264 334.96C76.817 334.475 77.5917 334.12 78.4504 333.896C79.3277 333.653 80.2237 333.532 81.1384 333.532C82.165 333.532 83.117 333.653 83.9944 333.896C84.8717 334.139 85.637 334.521 86.2904 335.044C86.9624 335.567 87.485 336.229 87.8584 337.032C88.2504 337.816 88.465 338.759 88.5024 339.86H85.9824ZM105.007 353.944C104.596 354.187 104.027 354.308 103.299 354.308C102.683 354.308 102.188 354.14 101.815 353.804C101.46 353.449 101.283 352.88 101.283 352.096C100.629 352.88 99.864 353.449 98.9866 353.804C98.128 354.14 97.1946 354.308 96.1866 354.308C95.5333 354.308 94.908 354.233 94.3106 354.084C93.732 353.935 93.228 353.701 92.7986 353.384C92.3693 353.067 92.024 352.656 91.7626 352.152C91.52 351.629 91.3986 351.004 91.3986 350.276C91.3986 349.455 91.5386 348.783 91.8186 348.26C92.0986 347.737 92.4626 347.317 92.9106 347C93.3773 346.664 93.9 346.412 94.4786 346.244C95.076 346.076 95.6826 345.936 96.2986 345.824C96.952 345.693 97.568 345.6 98.1466 345.544C98.744 345.469 99.2666 345.376 99.7146 345.264C100.163 345.133 100.517 344.956 100.779 344.732C101.04 344.489 101.171 344.144 101.171 343.696C101.171 343.173 101.068 342.753 100.863 342.436C100.676 342.119 100.424 341.876 100.107 341.708C99.808 341.54 99.4626 341.428 99.0706 341.372C98.6973 341.316 98.324 341.288 97.9506 341.288C96.9426 341.288 96.1026 341.484 95.4306 341.876C94.7586 342.249 94.3946 342.968 94.3386 344.032H91.9586C91.996 343.136 92.1826 342.38 92.5186 341.764C92.8546 341.148 93.3026 340.653 93.8626 340.28C94.4226 339.888 95.0573 339.608 95.7666 339.44C96.4946 339.272 97.2693 339.188 98.0906 339.188C98.744 339.188 99.388 339.235 100.023 339.328C100.676 339.421 101.264 339.617 101.787 339.916C102.309 340.196 102.729 340.597 103.047 341.12C103.364 341.643 103.523 342.324 103.523 343.164V350.612C103.523 351.172 103.551 351.583 103.607 351.844C103.681 352.105 103.905 352.236 104.279 352.236C104.484 352.236 104.727 352.189 105.007 352.096V353.944ZM101.143 346.524C100.844 346.748 100.452 346.916 99.9666 347.028C99.4813 347.121 98.968 347.205 98.4266 347.28C97.904 347.336 97.372 347.411 96.8306 347.504C96.2893 347.579 95.804 347.709 95.3746 347.896C94.9453 348.083 94.5906 348.353 94.3106 348.708C94.0493 349.044 93.9186 349.511 93.9186 350.108C93.9186 350.5 93.9933 350.836 94.1426 351.116C94.3106 351.377 94.516 351.592 94.7586 351.76C95.02 351.928 95.3186 352.049 95.6546 352.124C95.9906 352.199 96.3453 352.236 96.7186 352.236C97.5026 352.236 98.1746 352.133 98.7346 351.928C99.2946 351.704 99.752 351.433 100.107 351.116C100.461 350.78 100.723 350.425 100.891 350.052C101.059 349.66 101.143 349.296 101.143 348.96V346.524ZM113.746 354H111.198L105.822 339.524H108.482L112.542 351.592H112.598L116.546 339.524H119.038L113.746 354ZM131.274 345.376C131.236 344.816 131.106 344.284 130.882 343.78C130.676 343.276 130.387 342.847 130.014 342.492C129.659 342.119 129.23 341.829 128.726 341.624C128.24 341.4 127.699 341.288 127.102 341.288C126.486 341.288 125.926 341.4 125.422 341.624C124.936 341.829 124.516 342.119 124.162 342.492C123.807 342.865 123.527 343.304 123.322 343.808C123.116 344.293 122.995 344.816 122.958 345.376H131.274ZM133.57 349.408C133.252 351.032 132.552 352.255 131.47 353.076C130.387 353.897 129.024 354.308 127.382 354.308C126.224 354.308 125.216 354.121 124.358 353.748C123.518 353.375 122.808 352.852 122.23 352.18C121.651 351.508 121.212 350.705 120.914 349.772C120.634 348.839 120.475 347.821 120.438 346.72C120.438 345.619 120.606 344.611 120.942 343.696C121.278 342.781 121.744 341.988 122.342 341.316C122.958 340.644 123.676 340.121 124.498 339.748C125.338 339.375 126.252 339.188 127.242 339.188C128.53 339.188 129.594 339.459 130.434 340C131.292 340.523 131.974 341.195 132.478 342.016C133 342.837 133.355 343.733 133.542 344.704C133.747 345.675 133.831 346.599 133.794 347.476H122.958C122.939 348.111 123.014 348.717 123.182 349.296C123.35 349.856 123.62 350.36 123.994 350.808C124.367 351.237 124.843 351.583 125.422 351.844C126 352.105 126.682 352.236 127.466 352.236C128.474 352.236 129.295 352.003 129.93 351.536C130.583 351.069 131.012 350.36 131.218 349.408H133.57ZM144.418 334.008H147.246L157.774 350.22H157.83V334.008H160.35V354H157.438L146.994 337.956H146.938V354H144.418V334.008ZM165.997 346.776C165.997 347.653 166.109 348.437 166.333 349.128C166.575 349.8 166.902 350.369 167.313 350.836C167.723 351.284 168.199 351.629 168.741 351.872C169.301 352.115 169.889 352.236 170.505 352.236C171.121 352.236 171.699 352.115 172.241 351.872C172.801 351.629 173.286 351.284 173.697 350.836C174.107 350.369 174.425 349.8 174.649 349.128C174.891 348.437 175.013 347.653 175.013 346.776C175.013 345.899 174.891 345.124 174.649 344.452C174.425 343.761 174.107 343.183 173.697 342.716C173.286 342.249 172.801 341.895 172.241 341.652C171.699 341.409 171.121 341.288 170.505 341.288C169.889 341.288 169.301 341.409 168.741 341.652C168.199 341.895 167.723 342.249 167.313 342.716C166.902 343.183 166.575 343.761 166.333 344.452C166.109 345.124 165.997 345.899 165.997 346.776ZM163.477 346.776C163.477 345.712 163.626 344.723 163.925 343.808C164.223 342.875 164.671 342.072 165.269 341.4C165.866 340.709 166.603 340.168 167.481 339.776C168.358 339.384 169.366 339.188 170.505 339.188C171.662 339.188 172.67 339.384 173.529 339.776C174.406 340.168 175.143 340.709 175.741 341.4C176.338 342.072 176.786 342.875 177.085 343.808C177.383 344.723 177.533 345.712 177.533 346.776C177.533 347.84 177.383 348.829 177.085 349.744C176.786 350.659 176.338 351.461 175.741 352.152C175.143 352.824 174.406 353.356 173.529 353.748C172.67 354.121 171.662 354.308 170.505 354.308C169.366 354.308 168.358 354.121 167.481 353.748C166.603 353.356 165.866 352.824 165.269 352.152C164.671 351.461 164.223 350.659 163.925 349.744C163.626 348.829 163.477 347.84 163.477 346.776ZM194.675 354H192.155L189.215 342.492H189.159L186.247 354H183.671L179.023 339.524H181.655L184.931 351.368H184.987L187.899 339.524H190.503L193.527 351.368H193.583L196.831 339.524H199.295L194.675 354Z" fill="#373636"/>
<path d="M215.76 353.384L213.888 352.184L219.952 346.072V346.968L213.888 340.856L215.76 339.656L222.32 346.52L215.76 353.384Z" fill="#373636"/>
</svg>
