<svg width="1920" height="530" viewBox="0 0 1920 530" fill="none" xmlns="http://www.w3.org/2000/svg">
<path d="M608.757 84.9574C608.471 83.6814 607.943 82.6804 607.173 81.9544C606.403 81.2284 605.325 80.8654 603.939 80.8654C602.949 80.8654 602.08 81.0744 601.332 81.4924C600.584 81.9104 599.957 82.4604 599.451 83.1424C598.967 83.8244 598.593 84.6054 598.329 85.4854C598.087 86.3434 597.966 87.2234 597.966 88.1254C597.966 89.0274 598.087 89.9184 598.329 90.7984C598.593 91.6564 598.967 92.4264 599.451 93.1084C599.957 93.7904 600.584 94.3404 601.332 94.7584C602.08 95.1764 602.949 95.3854 603.939 95.3854C604.577 95.3854 605.182 95.2644 605.754 95.0224C606.326 94.7804 606.832 94.4504 607.272 94.0324C607.712 93.5924 608.075 93.0754 608.361 92.4814C608.647 91.8874 608.823 91.2384 608.889 90.5344H610.968C610.682 92.6024 609.923 94.2194 608.691 95.3854C607.459 96.5294 605.875 97.1014 603.939 97.1014C602.641 97.1014 601.486 96.8704 600.474 96.4084C599.484 95.9244 598.648 95.2754 597.966 94.4614C597.284 93.6474 596.767 92.7014 596.415 91.6234C596.063 90.5234 595.887 89.3574 595.887 88.1254C595.887 86.8934 596.063 85.7384 596.415 84.6604C596.767 83.5604 597.284 82.6034 597.966 81.7894C598.648 80.9754 599.484 80.3264 600.474 79.8424C601.486 79.3584 602.641 79.1164 603.939 79.1164C605.765 79.1164 607.305 79.6004 608.559 80.5684C609.835 81.5364 610.594 82.9994 610.836 84.9574H608.757ZM626.101 86.9374C626.079 86.1454 625.936 85.3864 625.672 84.6604C625.43 83.9344 625.078 83.2964 624.616 82.7464C624.154 82.1744 623.593 81.7234 622.933 81.3934C622.273 81.0414 621.525 80.8654 620.689 80.8654C619.831 80.8654 619.072 81.0414 618.412 81.3934C617.752 81.7234 617.191 82.1744 616.729 82.7464C616.267 83.2964 615.893 83.9454 615.607 84.6934C615.343 85.4194 615.167 86.1674 615.079 86.9374H626.101ZM615.079 88.6864C615.079 89.4344 615.178 90.2154 615.376 91.0294C615.596 91.8214 615.937 92.5364 616.399 93.1744C616.861 93.8124 617.444 94.3404 618.148 94.7584C618.852 95.1764 619.699 95.3854 620.689 95.3854C622.207 95.3854 623.395 94.9894 624.253 94.1974C625.111 93.4054 625.705 92.3494 626.035 91.0294H628.114C627.674 92.9654 626.86 94.4614 625.672 95.5174C624.506 96.5734 622.845 97.1014 620.689 97.1014C619.347 97.1014 618.181 96.8704 617.191 96.4084C616.223 95.9244 615.431 95.2754 614.815 94.4614C614.199 93.6254 613.737 92.6684 613.429 91.5904C613.143 90.4904 613 89.3354 613 88.1254C613 87.0034 613.143 85.9034 613.429 84.8254C613.737 83.7474 614.199 82.7904 614.815 81.9544C615.431 81.0964 616.223 80.4144 617.191 79.9084C618.181 79.3804 619.347 79.1164 620.689 79.1164C622.053 79.1164 623.219 79.3914 624.187 79.9414C625.155 80.4914 625.936 81.2174 626.53 82.1194C627.146 82.9994 627.586 84.0224 627.85 85.1884C628.114 86.3324 628.224 87.4984 628.18 88.6864H615.079ZM631.003 73.0774H633.082V96.6394H631.003V73.0774ZM649.304 86.9374C649.282 86.1454 649.139 85.3864 648.875 84.6604C648.633 83.9344 648.281 83.2964 647.819 82.7464C647.357 82.1744 646.796 81.7234 646.136 81.3934C645.476 81.0414 644.728 80.8654 643.892 80.8654C643.034 80.8654 642.275 81.0414 641.615 81.3934C640.955 81.7234 640.394 82.1744 639.932 82.7464C639.47 83.2964 639.096 83.9454 638.81 84.6934C638.546 85.4194 638.37 86.1674 638.282 86.9374H649.304ZM638.282 88.6864C638.282 89.4344 638.381 90.2154 638.579 91.0294C638.799 91.8214 639.14 92.5364 639.602 93.1744C640.064 93.8124 640.647 94.3404 641.351 94.7584C642.055 95.1764 642.902 95.3854 643.892 95.3854C645.41 95.3854 646.598 94.9894 647.456 94.1974C648.314 93.4054 648.908 92.3494 649.238 91.0294H651.317C650.877 92.9654 650.063 94.4614 648.875 95.5174C647.709 96.5734 646.048 97.1014 643.892 97.1014C642.55 97.1014 641.384 96.8704 640.394 96.4084C639.426 95.9244 638.634 95.2754 638.018 94.4614C637.402 93.6254 636.94 92.6684 636.632 91.5904C636.346 90.4904 636.203 89.3354 636.203 88.1254C636.203 87.0034 636.346 85.9034 636.632 84.8254C636.94 83.7474 637.402 82.7904 638.018 81.9544C638.634 81.0964 639.426 80.4144 640.394 79.9084C641.384 79.3804 642.55 79.1164 643.892 79.1164C645.256 79.1164 646.422 79.3914 647.39 79.9414C648.358 80.4914 649.139 81.2174 649.733 82.1194C650.349 82.9994 650.789 84.0224 651.053 85.1884C651.317 86.3324 651.427 87.4984 651.383 88.6864H638.282ZM654.173 73.0774H656.252V82.8454H656.318C656.538 82.2294 656.846 81.6904 657.242 81.2284C657.66 80.7664 658.133 80.3814 658.661 80.0734C659.189 79.7434 659.761 79.5014 660.377 79.3474C660.993 79.1934 661.609 79.1164 662.225 79.1164C663.523 79.1164 664.645 79.3584 665.591 79.8424C666.559 80.3264 667.362 80.9864 668 81.8224C668.638 82.6364 669.111 83.5934 669.419 84.6934C669.727 85.7714 669.881 86.9154 669.881 88.1254C669.881 89.3354 669.727 90.4904 669.419 91.5904C669.111 92.6684 668.638 93.6254 668 94.4614C667.362 95.2754 666.559 95.9244 665.591 96.4084C664.645 96.8704 663.523 97.1014 662.225 97.1014C660.839 97.1014 659.596 96.7824 658.496 96.1444C657.418 95.5064 656.637 94.5934 656.153 93.4054H656.087V96.6394H654.173V73.0774ZM667.802 88.1254C667.802 87.2454 667.692 86.3764 667.472 85.5184C667.274 84.6384 666.944 83.8574 666.482 83.1754C666.042 82.4934 665.47 81.9434 664.766 81.5254C664.062 81.0854 663.215 80.8654 662.225 80.8654C661.125 80.8654 660.19 81.0854 659.42 81.5254C658.672 81.9434 658.056 82.4934 657.572 83.1754C657.11 83.8574 656.769 84.6384 656.549 85.5184C656.351 86.3764 656.252 87.2454 656.252 88.1254C656.252 89.0054 656.351 89.8854 656.549 90.7654C656.769 91.6234 657.11 92.3934 657.572 93.0754C658.056 93.7574 658.672 94.3184 659.42 94.7584C660.19 95.1764 661.125 95.3854 662.225 95.3854C663.215 95.3854 664.062 95.1764 664.766 94.7584C665.47 94.3184 666.042 93.7574 666.482 93.0754C666.944 92.3934 667.274 91.6234 667.472 90.7654C667.692 89.8854 667.802 89.0054 667.802 88.1254ZM673.122 79.6114H675.036V83.6044H675.102C675.63 82.2184 676.444 81.1514 677.544 80.4034C678.666 79.6554 679.997 79.3144 681.537 79.3804V81.4594C680.591 81.4154 679.733 81.5474 678.963 81.8554C678.193 82.1414 677.522 82.5594 676.95 83.1094C676.4 83.6594 675.971 84.3194 675.663 85.0894C675.355 85.8374 675.201 86.6624 675.201 87.5644V96.6394H673.122V79.6114ZM683.334 84.8254C683.4 83.8354 683.609 82.9774 683.961 82.2514C684.313 81.5254 684.786 80.9314 685.38 80.4694C685.996 80.0074 686.711 79.6664 687.525 79.4464C688.339 79.2264 689.241 79.1164 690.231 79.1164C690.979 79.1164 691.727 79.1934 692.475 79.3474C693.223 79.4794 693.894 79.7434 694.488 80.1394C695.082 80.5354 695.566 81.0964 695.94 81.8224C696.314 82.5264 696.501 83.4504 696.501 84.5944V93.6364C696.501 94.4724 696.908 94.8904 697.722 94.8904C697.964 94.8904 698.184 94.8464 698.382 94.7584V96.5074C698.14 96.5514 697.92 96.5844 697.722 96.6064C697.546 96.6284 697.315 96.6394 697.029 96.6394C696.501 96.6394 696.072 96.5734 695.742 96.4414C695.434 96.2874 695.192 96.0784 695.016 95.8144C694.84 95.5504 694.719 95.2424 694.653 94.8904C694.609 94.5164 694.587 94.1094 694.587 93.6694H694.521C694.147 94.2194 693.762 94.7144 693.366 95.1544C692.992 95.5724 692.563 95.9244 692.079 96.2104C691.617 96.4964 691.078 96.7164 690.462 96.8704C689.868 97.0244 689.153 97.1014 688.317 97.1014C687.525 97.1014 686.777 97.0024 686.073 96.8044C685.391 96.6284 684.786 96.3424 684.258 95.9464C683.752 95.5284 683.345 95.0114 683.037 94.3954C682.751 93.7574 682.608 93.0094 682.608 92.1514C682.608 90.9634 682.872 90.0394 683.4 89.3794C683.928 88.6974 684.621 88.1804 685.479 87.8284C686.359 87.4764 687.338 87.2344 688.416 87.1024C689.516 86.9484 690.627 86.8054 691.749 86.6734C692.189 86.6294 692.574 86.5744 692.904 86.5084C693.234 86.4424 693.509 86.3324 693.729 86.1784C693.949 86.0024 694.114 85.7714 694.224 85.4854C694.356 85.1994 694.422 84.8254 694.422 84.3634C694.422 83.6594 694.301 83.0874 694.059 82.6474C693.839 82.1854 693.52 81.8224 693.102 81.5584C692.706 81.2944 692.233 81.1184 691.683 81.0304C691.155 80.9204 690.583 80.8654 689.967 80.8654C688.647 80.8654 687.569 81.1844 686.733 81.8224C685.897 82.4384 685.457 83.4394 685.413 84.8254H683.334ZM694.422 87.3334H694.356C694.224 87.5754 693.971 87.7514 693.597 87.8614C693.223 87.9714 692.893 88.0484 692.607 88.0924C691.727 88.2464 690.814 88.3894 689.868 88.5214C688.944 88.6314 688.097 88.8074 687.327 89.0494C686.557 89.2914 685.919 89.6434 685.413 90.1054C684.929 90.5454 684.687 91.1834 684.687 92.0194C684.687 92.5474 684.786 93.0204 684.984 93.4384C685.204 93.8344 685.49 94.1864 685.842 94.4944C686.194 94.7804 686.601 95.0004 687.063 95.1544C687.525 95.3084 687.998 95.3854 688.482 95.3854C689.274 95.3854 690.033 95.2644 690.759 95.0224C691.485 94.7804 692.112 94.4284 692.64 93.9664C693.19 93.5044 693.619 92.9434 693.927 92.2834C694.257 91.6234 694.422 90.8754 694.422 90.0394V87.3334ZM703.944 79.6114H707.409V81.3604H703.944V92.8444C703.944 93.5264 704.032 94.0654 704.208 94.4614C704.406 94.8354 704.879 95.0444 705.627 95.0884C706.221 95.0884 706.815 95.0554 707.409 94.9894V96.7384C707.101 96.7384 706.793 96.7494 706.485 96.7714C706.177 96.7934 705.869 96.8044 705.561 96.8044C704.175 96.8044 703.207 96.5404 702.657 96.0124C702.107 95.4624 701.843 94.4614 701.865 93.0094V81.3604H698.895V79.6114H701.865V74.4964H703.944V79.6114ZM710.441 73.0774H712.52V76.4104H710.441V73.0774ZM710.441 79.6114H712.52V96.6394H710.441V79.6114ZM716.466 79.6114H718.545V82.5484H718.611C719.007 81.5144 719.711 80.6894 720.723 80.0734C721.735 79.4354 722.846 79.1164 724.056 79.1164C725.244 79.1164 726.234 79.2704 727.026 79.5784C727.84 79.8864 728.489 80.3264 728.973 80.8984C729.457 81.4484 729.798 82.1304 729.996 82.9444C730.194 83.7584 730.293 84.6714 730.293 85.6834V96.6394H728.214V86.0134C728.214 85.2874 728.148 84.6164 728.016 84.0004C727.884 83.3624 727.653 82.8124 727.323 82.3504C726.993 81.8884 726.542 81.5254 725.97 81.2614C725.42 80.9974 724.727 80.8654 723.891 80.8654C723.055 80.8654 722.307 81.0194 721.647 81.3274C721.009 81.6134 720.459 82.0204 719.997 82.5484C719.557 83.0544 719.205 83.6704 718.941 84.3964C718.699 85.1004 718.567 85.8704 718.545 86.7064V96.6394H716.466V79.6114ZM748.612 95.2534C748.612 96.5074 748.469 97.6404 748.183 98.6524C747.919 99.6644 747.49 100.522 746.896 101.226C746.302 101.93 745.521 102.469 744.553 102.843C743.607 103.217 742.441 103.404 741.055 103.404C740.197 103.404 739.361 103.305 738.547 103.107C737.733 102.909 736.996 102.601 736.336 102.183C735.698 101.765 735.159 101.226 734.719 100.566C734.301 99.9284 734.059 99.1584 733.993 98.2564H736.072C736.182 98.8944 736.391 99.4224 736.699 99.8404C737.029 100.28 737.414 100.632 737.854 100.896C738.316 101.16 738.822 101.347 739.372 101.457C739.922 101.589 740.483 101.655 741.055 101.655C742.991 101.655 744.388 101.105 745.246 100.005C746.104 98.9054 746.533 97.3214 746.533 95.2534V92.9434H746.467C745.983 93.9994 745.268 94.8464 744.322 95.4844C743.398 96.1224 742.309 96.4414 741.055 96.4414C739.691 96.4414 738.525 96.2214 737.557 95.7814C736.589 95.3194 735.786 94.6924 735.148 93.9004C734.532 93.1084 734.081 92.1844 733.795 91.1284C733.509 90.0504 733.366 88.9064 733.366 87.6964C733.366 86.5304 733.531 85.4304 733.861 84.3964C734.213 83.3404 734.708 82.4274 735.346 81.6574C736.006 80.8654 736.809 80.2494 737.755 79.8094C738.723 79.3474 739.823 79.1164 741.055 79.1164C741.693 79.1164 742.287 79.2044 742.837 79.3804C743.409 79.5564 743.926 79.8094 744.388 80.1394C744.85 80.4474 745.257 80.8104 745.609 81.2284C745.983 81.6464 746.269 82.0864 746.467 82.5484H746.533V79.6114H748.612V95.2534ZM741.055 94.6924C741.957 94.6924 742.749 94.5054 743.431 94.1314C744.113 93.7354 744.685 93.2294 745.147 92.6134C745.609 91.9754 745.95 91.2494 746.17 90.4354C746.412 89.6214 746.533 88.7854 746.533 87.9274C746.533 87.0914 746.434 86.2554 746.236 85.4194C746.038 84.5834 745.719 83.8244 745.279 83.1424C744.839 82.4604 744.267 81.9104 743.563 81.4924C742.881 81.0744 742.045 80.8654 741.055 80.8654C740.065 80.8654 739.218 81.0744 738.514 81.4924C737.81 81.8884 737.227 82.4164 736.765 83.0764C736.303 83.7364 735.962 84.4954 735.742 85.3534C735.544 86.1894 735.445 87.0474 735.445 87.9274C735.445 88.7854 735.555 89.6214 735.775 90.4354C735.995 91.2494 736.336 91.9754 736.798 92.6134C737.26 93.2294 737.843 93.7354 738.547 94.1314C739.251 94.5054 740.087 94.6924 741.055 94.6924ZM768.939 80.8654C767.949 80.8654 767.08 81.0744 766.332 81.4924C765.584 81.9104 764.957 82.4604 764.451 83.1424C763.967 83.8244 763.593 84.6054 763.329 85.4854C763.087 86.3434 762.966 87.2234 762.966 88.1254C762.966 89.0274 763.087 89.9184 763.329 90.7984C763.593 91.6564 763.967 92.4264 764.451 93.1084C764.957 93.7904 765.584 94.3404 766.332 94.7584C767.08 95.1764 767.949 95.3854 768.939 95.3854C769.929 95.3854 770.798 95.1764 771.546 94.7584C772.294 94.3404 772.91 93.7904 773.394 93.1084C773.9 92.4264 774.274 91.6564 774.516 90.7984C774.78 89.9184 774.912 89.0274 774.912 88.1254C774.912 87.2234 774.78 86.3434 774.516 85.4854C774.274 84.6054 773.9 83.8244 773.394 83.1424C772.91 82.4604 772.294 81.9104 771.546 81.4924C770.798 81.0744 769.929 80.8654 768.939 80.8654ZM768.939 79.1164C770.237 79.1164 771.381 79.3584 772.371 79.8424C773.383 80.3264 774.23 80.9754 774.912 81.7894C775.594 82.6034 776.111 83.5604 776.463 84.6604C776.815 85.7384 776.991 86.8934 776.991 88.1254C776.991 89.3574 776.815 90.5234 776.463 91.6234C776.111 92.7014 775.594 93.6474 774.912 94.4614C774.23 95.2754 773.383 95.9244 772.371 96.4084C771.381 96.8704 770.237 97.1014 768.939 97.1014C767.641 97.1014 766.486 96.8704 765.474 96.4084C764.484 95.9244 763.648 95.2754 762.966 94.4614C762.284 93.6474 761.767 92.7014 761.415 91.6234C761.063 90.5234 760.887 89.3574 760.887 88.1254C760.887 86.8934 761.063 85.7384 761.415 84.6604C761.767 83.5604 762.284 82.6034 762.966 81.7894C763.648 80.9754 764.484 80.3264 765.474 79.8424C766.486 79.3584 767.641 79.1164 768.939 79.1164ZM793.876 96.6394H791.962V93.5704H791.896C791.346 94.7144 790.543 95.5944 789.487 96.2104C788.453 96.8044 787.298 97.1014 786.022 97.1014C784.944 97.1014 784.02 96.9474 783.25 96.6394C782.502 96.3534 781.886 95.9354 781.402 95.3854C780.94 94.8354 780.599 94.1644 780.379 93.3724C780.159 92.5804 780.049 91.6784 780.049 90.6664V79.6114H782.128V90.6994C782.172 92.2394 782.524 93.4054 783.184 94.1974C783.866 94.9894 785.032 95.3854 786.682 95.3854C787.584 95.3854 788.354 95.1984 788.992 94.8244C789.63 94.4284 790.158 93.9114 790.576 93.2734C790.994 92.6354 791.302 91.9094 791.5 91.0954C791.698 90.2594 791.797 89.4124 791.797 88.5544V79.6114H793.876V96.6394ZM797.807 79.6114H799.721V83.6044H799.787C800.315 82.2184 801.129 81.1514 802.229 80.4034C803.351 79.6554 804.682 79.3144 806.222 79.3804V81.4594C805.276 81.4154 804.418 81.5474 803.648 81.8554C802.878 82.1414 802.207 82.5594 801.635 83.1094C801.085 83.6594 800.656 84.3194 800.348 85.0894C800.04 85.8374 799.886 86.6624 799.886 87.5644V96.6394H797.807V79.6114ZM829.413 84.9574C829.127 83.6814 828.599 82.6804 827.829 81.9544C827.059 81.2284 825.981 80.8654 824.595 80.8654C823.605 80.8654 822.736 81.0744 821.988 81.4924C821.24 81.9104 820.613 82.4604 820.107 83.1424C819.623 83.8244 819.249 84.6054 818.985 85.4854C818.743 86.3434 818.622 87.2234 818.622 88.1254C818.622 89.0274 818.743 89.9184 818.985 90.7984C819.249 91.6564 819.623 92.4264 820.107 93.1084C820.613 93.7904 821.24 94.3404 821.988 94.7584C822.736 95.1764 823.605 95.3854 824.595 95.3854C825.233 95.3854 825.838 95.2644 826.41 95.0224C826.982 94.7804 827.488 94.4504 827.928 94.0324C828.368 93.5924 828.731 93.0754 829.017 92.4814C829.303 91.8874 829.479 91.2384 829.545 90.5344H831.624C831.338 92.6024 830.579 94.2194 829.347 95.3854C828.115 96.5294 826.531 97.1014 824.595 97.1014C823.297 97.1014 822.142 96.8704 821.13 96.4084C820.14 95.9244 819.304 95.2754 818.622 94.4614C817.94 93.6474 817.423 92.7014 817.071 91.6234C816.719 90.5234 816.543 89.3574 816.543 88.1254C816.543 86.8934 816.719 85.7384 817.071 84.6604C817.423 83.5604 817.94 82.6034 818.622 81.7894C819.304 80.9754 820.14 80.3264 821.13 79.8424C822.142 79.3584 823.297 79.1164 824.595 79.1164C826.421 79.1164 827.961 79.6004 829.215 80.5684C830.491 81.5364 831.25 82.9994 831.492 84.9574H829.413ZM848.307 96.6394H846.393V93.5704H846.327C845.777 94.7144 844.974 95.5944 843.918 96.2104C842.884 96.8044 841.729 97.1014 840.453 97.1014C839.375 97.1014 838.451 96.9474 837.681 96.6394C836.933 96.3534 836.317 95.9354 835.833 95.3854C835.371 94.8354 835.03 94.1644 834.81 93.3724C834.59 92.5804 834.48 91.6784 834.48 90.6664V79.6114H836.559V90.6994C836.603 92.2394 836.955 93.4054 837.615 94.1974C838.297 94.9894 839.463 95.3854 841.113 95.3854C842.015 95.3854 842.785 95.1984 843.423 94.8244C844.061 94.4284 844.589 93.9114 845.007 93.2734C845.425 92.6354 845.733 91.9094 845.931 91.0954C846.129 90.2594 846.228 89.4124 846.228 88.5544V79.6114H848.307V96.6394ZM862.435 84.5944C862.413 83.9564 862.281 83.4064 862.039 82.9444C861.797 82.4604 861.467 82.0644 861.049 81.7564C860.653 81.4484 860.191 81.2284 859.663 81.0964C859.135 80.9424 858.574 80.8654 857.98 80.8654C857.518 80.8654 857.045 80.9204 856.561 81.0304C856.099 81.1184 855.67 81.2834 855.274 81.5254C854.878 81.7454 854.559 82.0424 854.317 82.4164C854.075 82.7904 853.954 83.2524 853.954 83.8024C853.954 84.2644 854.064 84.6604 854.284 84.9904C854.526 85.2984 854.823 85.5624 855.175 85.7824C855.527 86.0024 855.912 86.1894 856.33 86.3434C856.748 86.4754 857.133 86.5854 857.485 86.6734L860.257 87.3004C860.851 87.3884 861.434 87.5534 862.006 87.7954C862.6 88.0154 863.117 88.3124 863.557 88.6864C864.019 89.0604 864.393 89.5224 864.679 90.0724C864.965 90.6224 865.108 91.2714 865.108 92.0194C865.108 92.9434 864.899 93.7354 864.481 94.3954C864.063 95.0334 863.524 95.5614 862.864 95.9794C862.226 96.3754 861.5 96.6614 860.686 96.8374C859.872 97.0134 859.069 97.1014 858.277 97.1014C856.275 97.1014 854.647 96.6284 853.393 95.6824C852.161 94.7364 851.457 93.2184 851.281 91.1284H853.36C853.448 92.5364 853.954 93.6034 854.878 94.3294C855.824 95.0334 856.99 95.3854 858.376 95.3854C858.882 95.3854 859.399 95.3304 859.927 95.2204C860.477 95.1104 860.983 94.9234 861.445 94.6594C861.907 94.3954 862.281 94.0654 862.567 93.6694C862.875 93.2514 863.029 92.7454 863.029 92.1514C863.029 91.6454 862.919 91.2274 862.699 90.8974C862.501 90.5454 862.226 90.2594 861.874 90.0394C861.522 89.7974 861.115 89.5994 860.653 89.4454C860.213 89.2914 859.762 89.1594 859.3 89.0494L856.627 88.4554C855.945 88.2794 855.318 88.0814 854.746 87.8614C854.174 87.6194 853.668 87.3334 853.228 87.0034C852.81 86.6514 852.48 86.2334 852.238 85.7494C851.996 85.2434 851.875 84.6274 851.875 83.9014C851.875 83.0434 852.062 82.3064 852.436 81.6904C852.832 81.0744 853.338 80.5794 853.954 80.2054C854.57 79.8314 855.252 79.5564 856 79.3804C856.77 79.2044 857.529 79.1164 858.277 79.1164C859.135 79.1164 859.927 79.2264 860.653 79.4464C861.401 79.6664 862.05 80.0074 862.6 80.4694C863.172 80.9314 863.623 81.5034 863.953 82.1854C864.283 82.8674 864.47 83.6704 864.514 84.5944H862.435ZM871.425 79.6114H874.89V81.3604H871.425V92.8444C871.425 93.5264 871.513 94.0654 871.689 94.4614C871.887 94.8354 872.36 95.0444 873.108 95.0884C873.702 95.0884 874.296 95.0554 874.89 94.9894V96.7384C874.582 96.7384 874.274 96.7494 873.966 96.7714C873.658 96.7934 873.35 96.8044 873.042 96.8044C871.656 96.8044 870.688 96.5404 870.138 96.0124C869.588 95.4624 869.324 94.4614 869.346 93.0094V81.3604H866.376V79.6114H869.346V74.4964H871.425V79.6114ZM885.084 80.8654C884.094 80.8654 883.225 81.0744 882.477 81.4924C881.729 81.9104 881.102 82.4604 880.596 83.1424C880.112 83.8244 879.738 84.6054 879.474 85.4854C879.232 86.3434 879.111 87.2234 879.111 88.1254C879.111 89.0274 879.232 89.9184 879.474 90.7984C879.738 91.6564 880.112 92.4264 880.596 93.1084C881.102 93.7904 881.729 94.3404 882.477 94.7584C883.225 95.1764 884.094 95.3854 885.084 95.3854C886.074 95.3854 886.943 95.1764 887.691 94.7584C888.439 94.3404 889.055 93.7904 889.539 93.1084C890.045 92.4264 890.419 91.6564 890.661 90.7984C890.925 89.9184 891.057 89.0274 891.057 88.1254C891.057 87.2234 890.925 86.3434 890.661 85.4854C890.419 84.6054 890.045 83.8244 889.539 83.1424C889.055 82.4604 888.439 81.9104 887.691 81.4924C886.943 81.0744 886.074 80.8654 885.084 80.8654ZM885.084 79.1164C886.382 79.1164 887.526 79.3584 888.516 79.8424C889.528 80.3264 890.375 80.9754 891.057 81.7894C891.739 82.6034 892.256 83.5604 892.608 84.6604C892.96 85.7384 893.136 86.8934 893.136 88.1254C893.136 89.3574 892.96 90.5234 892.608 91.6234C892.256 92.7014 891.739 93.6474 891.057 94.4614C890.375 95.2754 889.528 95.9244 888.516 96.4084C887.526 96.8704 886.382 97.1014 885.084 97.1014C883.786 97.1014 882.631 96.8704 881.619 96.4084C880.629 95.9244 879.793 95.2754 879.111 94.4614C878.429 93.6474 877.912 92.7014 877.56 91.6234C877.208 90.5234 877.032 89.3574 877.032 88.1254C877.032 86.8934 877.208 85.7384 877.56 84.6604C877.912 83.5604 878.429 82.6034 879.111 81.7894C879.793 80.9754 880.629 80.3264 881.619 79.8424C882.631 79.3584 883.786 79.1164 885.084 79.1164ZM896.227 79.6114H898.141V82.4824H898.24C898.79 81.4264 899.505 80.6014 900.385 80.0074C901.287 79.4134 902.431 79.1164 903.817 79.1164C904.939 79.1164 905.951 79.3914 906.853 79.9414C907.777 80.4914 908.393 81.3274 908.701 82.4494C909.207 81.3274 909.955 80.4914 910.945 79.9414C911.935 79.3914 912.991 79.1164 914.113 79.1164C917.875 79.1164 919.756 81.1074 919.756 85.0894V96.6394H917.677V85.1884C917.677 83.7804 917.38 82.7134 916.786 81.9874C916.192 81.2394 915.147 80.8654 913.651 80.8654C912.749 80.8654 912.001 81.0414 911.407 81.3934C910.813 81.7234 910.34 82.1744 909.988 82.7464C909.636 83.3184 909.383 83.9784 909.229 84.7264C909.097 85.4524 909.031 86.2114 909.031 87.0034V96.6394H906.952V85.0894C906.952 84.5174 906.886 83.9784 906.754 83.4724C906.644 82.9444 906.446 82.4934 906.16 82.1194C905.896 81.7234 905.533 81.4154 905.071 81.1954C904.609 80.9754 904.048 80.8654 903.388 80.8654C902.508 80.8654 901.738 81.0304 901.078 81.3604C900.44 81.6684 899.912 82.1084 899.494 82.6804C899.098 83.2304 898.801 83.8904 898.603 84.6604C898.405 85.4084 898.306 86.2334 898.306 87.1354V96.6394H896.227V79.6114ZM935.959 86.9374C935.937 86.1454 935.794 85.3864 935.53 84.6604C935.288 83.9344 934.936 83.2964 934.474 82.7464C934.012 82.1744 933.451 81.7234 932.791 81.3934C932.131 81.0414 931.383 80.8654 930.547 80.8654C929.689 80.8654 928.93 81.0414 928.27 81.3934C927.61 81.7234 927.049 82.1744 926.587 82.7464C926.125 83.2964 925.751 83.9454 925.465 84.6934C925.201 85.4194 925.025 86.1674 924.937 86.9374H935.959ZM924.937 88.6864C924.937 89.4344 925.036 90.2154 925.234 91.0294C925.454 91.8214 925.795 92.5364 926.257 93.1744C926.719 93.8124 927.302 94.3404 928.006 94.7584C928.71 95.1764 929.557 95.3854 930.547 95.3854C932.065 95.3854 933.253 94.9894 934.111 94.1974C934.969 93.4054 935.563 92.3494 935.893 91.0294H937.972C937.532 92.9654 936.718 94.4614 935.53 95.5174C934.364 96.5734 932.703 97.1014 930.547 97.1014C929.205 97.1014 928.039 96.8704 927.049 96.4084C926.081 95.9244 925.289 95.2754 924.673 94.4614C924.057 93.6254 923.595 92.6684 923.287 91.5904C923.001 90.4904 922.858 89.3354 922.858 88.1254C922.858 87.0034 923.001 85.9034 923.287 84.8254C923.595 83.7474 924.057 82.7904 924.673 81.9544C925.289 81.0964 926.081 80.4144 927.049 79.9084C928.039 79.3804 929.205 79.1164 930.547 79.1164C931.911 79.1164 933.077 79.3914 934.045 79.9414C935.013 80.4914 935.794 81.2174 936.388 82.1194C937.004 82.9994 937.444 84.0224 937.708 85.1884C937.972 86.3324 938.082 87.4984 938.038 88.6864H924.937ZM940.828 79.6114H942.742V83.6044H942.808C943.336 82.2184 944.15 81.1514 945.25 80.4034C946.372 79.6554 947.703 79.3144 949.243 79.3804V81.4594C948.297 81.4154 947.439 81.5474 946.669 81.8554C945.899 82.1414 945.228 82.5594 944.656 83.1094C944.106 83.6594 943.677 84.3194 943.369 85.0894C943.061 85.8374 942.907 86.6624 942.907 87.5644V96.6394H940.828V79.6114ZM961.435 84.5944C961.413 83.9564 961.281 83.4064 961.039 82.9444C960.797 82.4604 960.467 82.0644 960.049 81.7564C959.653 81.4484 959.191 81.2284 958.663 81.0964C958.135 80.9424 957.574 80.8654 956.98 80.8654C956.518 80.8654 956.045 80.9204 955.561 81.0304C955.099 81.1184 954.67 81.2834 954.274 81.5254C953.878 81.7454 953.559 82.0424 953.317 82.4164C953.075 82.7904 952.954 83.2524 952.954 83.8024C952.954 84.2644 953.064 84.6604 953.284 84.9904C953.526 85.2984 953.823 85.5624 954.175 85.7824C954.527 86.0024 954.912 86.1894 955.33 86.3434C955.748 86.4754 956.133 86.5854 956.485 86.6734L959.257 87.3004C959.851 87.3884 960.434 87.5534 961.006 87.7954C961.6 88.0154 962.117 88.3124 962.557 88.6864C963.019 89.0604 963.393 89.5224 963.679 90.0724C963.965 90.6224 964.108 91.2714 964.108 92.0194C964.108 92.9434 963.899 93.7354 963.481 94.3954C963.063 95.0334 962.524 95.5614 961.864 95.9794C961.226 96.3754 960.5 96.6614 959.686 96.8374C958.872 97.0134 958.069 97.1014 957.277 97.1014C955.275 97.1014 953.647 96.6284 952.393 95.6824C951.161 94.7364 950.457 93.2184 950.281 91.1284H952.36C952.448 92.5364 952.954 93.6034 953.878 94.3294C954.824 95.0334 955.99 95.3854 957.376 95.3854C957.882 95.3854 958.399 95.3304 958.927 95.2204C959.477 95.1104 959.983 94.9234 960.445 94.6594C960.907 94.3954 961.281 94.0654 961.567 93.6694C961.875 93.2514 962.029 92.7454 962.029 92.1514C962.029 91.6454 961.919 91.2274 961.699 90.8974C961.501 90.5454 961.226 90.2594 960.874 90.0394C960.522 89.7974 960.115 89.5994 959.653 89.4454C959.213 89.2914 958.762 89.1594 958.3 89.0494L955.627 88.4554C954.945 88.2794 954.318 88.0814 953.746 87.8614C953.174 87.6194 952.668 87.3334 952.228 87.0034C951.81 86.6514 951.48 86.2334 951.238 85.7494C950.996 85.2434 950.875 84.6274 950.875 83.9014C950.875 83.0434 951.062 82.3064 951.436 81.6904C951.832 81.0744 952.338 80.5794 952.954 80.2054C953.57 79.8314 954.252 79.5564 955 79.3804C955.77 79.2044 956.529 79.1164 957.277 79.1164C958.135 79.1164 958.927 79.2264 959.653 79.4464C960.401 79.6664 961.05 80.0074 961.6 80.4694C962.172 80.9314 962.623 81.5034 962.953 82.1854C963.283 82.8674 963.47 83.6704 963.514 84.5944H961.435ZM995.615 96.6394H990.797L987.761 85.1884H987.695L984.791 96.6394H979.94L974.528 79.5784H979.478L982.613 91.1614H982.679L985.517 79.5784H990.071L992.975 91.1284H993.041L996.176 79.5784H1000.99L995.615 96.6394ZM1007.81 76.9384H1003.12V73.0774H1007.81V76.9384ZM1003.12 79.5784H1007.81V96.6394H1003.12V79.5784ZM1017.44 79.5784H1020.87V82.7134H1017.44V91.1614C1017.44 91.9534 1017.57 92.4814 1017.83 92.7454C1018.1 93.0094 1018.62 93.1414 1019.42 93.1414C1019.68 93.1414 1019.93 93.1304 1020.18 93.1084C1020.42 93.0864 1020.65 93.0534 1020.87 93.0094V96.6394C1020.47 96.7054 1020.03 96.7494 1019.55 96.7714C1019.06 96.7934 1018.59 96.8044 1018.13 96.8044C1017.4 96.8044 1016.71 96.7494 1016.05 96.6394C1015.41 96.5514 1014.84 96.3644 1014.33 96.0784C1013.85 95.7924 1013.47 95.3854 1013.18 94.8574C1012.89 94.3294 1012.75 93.6364 1012.75 92.7784V82.7134H1009.91V79.5784H1012.75V74.4634H1017.44V79.5784ZM1023.1 73.0774H1027.78V81.9544H1027.88C1028.48 80.9644 1029.24 80.2494 1030.16 79.8094C1031.08 79.3474 1031.99 79.1164 1032.87 79.1164C1034.12 79.1164 1035.14 79.2924 1035.94 79.6444C1036.75 79.9744 1037.39 80.4474 1037.85 81.0634C1038.31 81.6574 1038.63 82.3944 1038.81 83.2744C1039 84.1324 1039.1 85.0894 1039.1 86.1454V96.6394H1034.42V87.0034C1034.42 85.5954 1034.2 84.5504 1033.76 83.8684C1033.32 83.1644 1032.54 82.8124 1031.41 82.8124C1030.14 82.8124 1029.21 83.1974 1028.64 83.9674C1028.07 84.7154 1027.78 85.9584 1027.78 87.6964V96.6394H1023.1V73.0774ZM1051.84 73.0774H1056.53V81.9544H1056.63C1057.22 80.9644 1057.98 80.2494 1058.91 79.8094C1059.83 79.3474 1060.73 79.1164 1061.61 79.1164C1062.87 79.1164 1063.89 79.2924 1064.68 79.6444C1065.5 79.9744 1066.13 80.4474 1066.6 81.0634C1067.06 81.6574 1067.38 82.3944 1067.55 83.2744C1067.75 84.1324 1067.85 85.0894 1067.85 86.1454V96.6394H1063.16V87.0034C1063.16 85.5954 1062.94 84.5504 1062.5 83.8684C1062.06 83.1644 1061.28 82.8124 1060.16 82.8124C1058.88 82.8124 1057.96 83.1974 1057.39 83.9674C1056.82 84.7154 1056.53 85.9584 1056.53 87.6964V96.6394H1051.84V73.0774ZM1087.41 96.6394H1082.96V94.2634H1082.86C1082.26 95.2534 1081.49 95.9684 1080.55 96.4084C1079.6 96.8484 1078.63 97.0684 1077.64 97.0684C1076.39 97.0684 1075.35 96.9034 1074.54 96.5734C1073.75 96.2434 1073.12 95.7814 1072.66 95.1874C1072.2 94.5714 1071.87 93.8344 1071.67 92.9764C1071.49 92.0964 1071.41 91.1284 1071.41 90.0724V79.5784H1076.09V89.2144C1076.09 90.6224 1076.31 91.6784 1076.75 92.3824C1077.19 93.0644 1077.97 93.4054 1079.09 93.4054C1080.37 93.4054 1081.29 93.0314 1081.87 92.2834C1082.44 91.5134 1082.72 90.2594 1082.72 88.5214V79.5784H1087.41V96.6394ZM1098.92 92.6134C1099.58 92.6134 1100.16 92.4814 1100.67 92.2174C1101.18 91.9534 1101.59 91.6014 1101.92 91.1614C1102.25 90.7214 1102.5 90.2264 1102.65 89.6764C1102.83 89.1044 1102.91 88.5104 1102.91 87.8944C1102.91 87.1904 1102.85 86.5304 1102.72 85.9144C1102.58 85.2764 1102.36 84.7154 1102.06 84.2314C1101.75 83.7474 1101.34 83.3624 1100.83 83.0764C1100.33 82.7904 1099.69 82.6474 1098.92 82.6474C1098.26 82.6474 1097.69 82.7794 1097.2 83.0434C1096.74 83.3074 1096.35 83.6704 1096.02 84.1324C1095.71 84.5724 1095.48 85.0894 1095.32 85.6834C1095.19 86.2554 1095.13 86.8604 1095.13 87.4984C1095.13 88.1144 1095.18 88.7304 1095.29 89.3464C1095.42 89.9404 1095.63 90.4794 1095.92 90.9634C1096.23 91.4474 1096.62 91.8434 1097.11 92.1514C1097.59 92.4594 1098.19 92.6134 1098.92 92.6134ZM1107.37 95.5504C1107.37 96.2324 1107.27 97.0134 1107.07 97.8934C1106.9 98.7734 1106.5 99.5874 1105.88 100.335C1105.27 101.105 1104.38 101.754 1103.21 102.282C1102.04 102.81 1100.48 103.074 1098.52 103.074C1097.69 103.074 1096.83 102.964 1095.95 102.744C1095.09 102.546 1094.3 102.227 1093.57 101.787C1092.87 101.347 1092.28 100.775 1091.79 100.071C1091.33 99.3894 1091.07 98.5644 1091 97.5964H1095.65C1095.87 98.4764 1096.3 99.0814 1096.94 99.4114C1097.58 99.7634 1098.32 99.9394 1099.15 99.9394C1100.47 99.9394 1101.43 99.5434 1102.02 98.7514C1102.64 97.9594 1102.94 96.9584 1102.91 95.7484V93.5044H1102.85C1102.34 94.4064 1101.62 95.0774 1100.67 95.5174C1099.75 95.9354 1098.77 96.1444 1097.73 96.1444C1096.46 96.1444 1095.36 95.9244 1094.43 95.4844C1093.51 95.0224 1092.75 94.4064 1092.16 93.6364C1091.56 92.8444 1091.12 91.9314 1090.84 90.8974C1090.57 89.8414 1090.44 88.7304 1090.44 87.5644C1090.44 86.4644 1090.59 85.4084 1090.9 84.3964C1091.23 83.3624 1091.7 82.4604 1092.32 81.6904C1092.94 80.8984 1093.7 80.2714 1094.6 79.8094C1095.52 79.3474 1096.58 79.1164 1097.77 79.1164C1098.89 79.1164 1099.87 79.3254 1100.7 79.7434C1101.56 80.1614 1102.28 80.8654 1102.85 81.8554H1102.91V79.5784H1107.37V95.5504ZM1122.63 86.2774C1122.41 85.0894 1122.01 84.1874 1121.44 83.5714C1120.89 82.9554 1120.04 82.6474 1118.9 82.6474C1118.15 82.6474 1117.52 82.7794 1117.02 83.0434C1116.53 83.2854 1116.14 83.5934 1115.83 83.9674C1115.54 84.3414 1115.33 84.7374 1115.2 85.1554C1115.09 85.5734 1115.02 85.9474 1115 86.2774H1122.63ZM1115 89.2474C1115.07 90.7654 1115.45 91.8654 1116.16 92.5474C1116.86 93.2294 1117.87 93.5704 1119.19 93.5704C1120.14 93.5704 1120.95 93.3394 1121.64 92.8774C1122.32 92.3934 1122.74 91.8874 1122.89 91.3594H1127.01C1126.35 93.4054 1125.34 94.8684 1123.98 95.7484C1122.61 96.6284 1120.96 97.0684 1119.03 97.0684C1117.69 97.0684 1116.48 96.8594 1115.4 96.4414C1114.32 96.0014 1113.41 95.3854 1112.66 94.5934C1111.91 93.8014 1111.33 92.8554 1110.91 91.7554C1110.51 90.6554 1110.32 89.4454 1110.32 88.1254C1110.32 86.8494 1110.53 85.6614 1110.94 84.5614C1111.36 83.4614 1111.96 82.5154 1112.73 81.7234C1113.5 80.9094 1114.41 80.2714 1115.46 79.8094C1116.54 79.3474 1117.73 79.1164 1119.03 79.1164C1120.48 79.1164 1121.75 79.4024 1122.82 79.9744C1123.9 80.5244 1124.78 81.2724 1125.46 82.2184C1126.17 83.1644 1126.67 84.2424 1126.98 85.4524C1127.29 86.6624 1127.4 87.9274 1127.31 89.2474H1115ZM1142.9 91.0954C1142.9 91.6014 1143 92.0414 1143.2 92.4154C1143.42 92.7674 1143.7 93.0644 1144.03 93.3064C1144.36 93.5264 1144.73 93.6914 1145.15 93.8014C1145.59 93.9114 1146.04 93.9664 1146.5 93.9664C1146.83 93.9664 1147.17 93.9334 1147.52 93.8674C1147.9 93.7794 1148.23 93.6584 1148.51 93.5044C1148.82 93.3284 1149.08 93.1084 1149.27 92.8444C1149.47 92.5584 1149.57 92.2064 1149.57 91.7884C1149.57 91.0844 1149.1 90.5564 1148.15 90.2044C1147.23 89.8524 1145.93 89.5004 1144.26 89.1484C1143.58 88.9944 1142.9 88.8184 1142.24 88.6204C1141.61 88.4004 1141.03 88.1254 1140.53 87.7954C1140.02 87.4434 1139.62 87.0144 1139.31 86.5084C1139 85.9804 1138.85 85.3424 1138.85 84.5944C1138.85 83.4944 1139.05 82.5924 1139.47 81.8884C1139.91 81.1844 1140.48 80.6344 1141.19 80.2384C1141.89 79.8204 1142.68 79.5344 1143.56 79.3804C1144.44 79.2044 1145.35 79.1164 1146.27 79.1164C1147.19 79.1164 1148.09 79.2044 1148.94 79.3804C1149.82 79.5564 1150.6 79.8534 1151.29 80.2714C1151.97 80.6894 1152.53 81.2504 1152.97 81.9544C1153.43 82.6364 1153.71 83.5054 1153.79 84.5614H1149.34C1149.27 83.6594 1148.93 83.0544 1148.32 82.7464C1147.7 82.4164 1146.97 82.2514 1146.14 82.2514C1145.87 82.2514 1145.59 82.2734 1145.28 82.3174C1144.97 82.3394 1144.69 82.4054 1144.42 82.5154C1144.18 82.6254 1143.97 82.7904 1143.8 83.0104C1143.62 83.2084 1143.53 83.4834 1143.53 83.8354C1143.53 84.2534 1143.69 84.5944 1143.99 84.8584C1144.3 85.1224 1144.7 85.3424 1145.18 85.5184C1145.69 85.6724 1146.26 85.8154 1146.9 85.9474C1147.54 86.0794 1148.18 86.2224 1148.84 86.3764C1149.53 86.5304 1150.19 86.7174 1150.82 86.9374C1151.48 87.1574 1152.07 87.4544 1152.57 87.8284C1153.08 88.1804 1153.49 88.6314 1153.79 89.1814C1154.1 89.7094 1154.26 90.3694 1154.26 91.1614C1154.26 92.2834 1154.03 93.2294 1153.56 93.9994C1153.12 94.7474 1152.54 95.3524 1151.81 95.8144C1151.09 96.2764 1150.25 96.5954 1149.31 96.7714C1148.38 96.9694 1147.44 97.0684 1146.47 97.0684C1145.48 97.0684 1144.51 96.9694 1143.56 96.7714C1142.62 96.5734 1141.77 96.2434 1141.02 95.7814C1140.3 95.3194 1139.69 94.7144 1139.21 93.9664C1138.75 93.1964 1138.49 92.2394 1138.45 91.0954H1142.9ZM1156.8 84.8254C1156.87 83.7254 1157.14 82.8124 1157.63 82.0864C1158.11 81.3604 1158.73 80.7774 1159.47 80.3374C1160.22 79.8974 1161.06 79.5894 1161.98 79.4134C1162.93 79.2154 1163.87 79.1164 1164.82 79.1164C1165.68 79.1164 1166.55 79.1824 1167.43 79.3144C1168.31 79.4244 1169.11 79.6554 1169.84 80.0074C1170.56 80.3594 1171.16 80.8544 1171.62 81.4924C1172.08 82.1084 1172.31 82.9334 1172.31 83.9674V92.8444C1172.31 93.6144 1172.36 94.3514 1172.44 95.0554C1172.53 95.7594 1172.69 96.2874 1172.91 96.6394H1168.15C1168.07 96.3754 1167.99 96.1114 1167.92 95.8474C1167.88 95.5614 1167.85 95.2754 1167.82 94.9894C1167.08 95.7594 1166.2 96.2984 1165.18 96.6064C1164.17 96.9144 1163.14 97.0684 1162.08 97.0684C1161.27 97.0684 1160.51 96.9694 1159.8 96.7714C1159.1 96.5734 1158.48 96.2654 1157.96 95.8474C1157.43 95.4294 1157.01 94.9014 1156.7 94.2634C1156.42 93.6254 1156.27 92.8664 1156.27 91.9864C1156.27 91.0184 1156.44 90.2264 1156.77 89.6104C1157.12 88.9724 1157.56 88.4664 1158.09 88.0924C1158.64 87.7184 1159.25 87.4434 1159.94 87.2674C1160.64 87.0694 1161.34 86.9154 1162.05 86.8054C1162.75 86.6954 1163.45 86.6074 1164.13 86.5414C1164.81 86.4754 1165.41 86.3764 1165.94 86.2444C1166.47 86.1124 1166.89 85.9254 1167.2 85.6834C1167.5 85.4194 1167.65 85.0454 1167.63 84.5614C1167.63 84.0554 1167.54 83.6594 1167.36 83.3734C1167.21 83.0654 1166.99 82.8344 1166.7 82.6804C1166.44 82.5044 1166.12 82.3944 1165.74 82.3504C1165.39 82.2844 1165.01 82.2514 1164.59 82.2514C1163.67 82.2514 1162.94 82.4494 1162.41 82.8454C1161.88 83.2414 1161.58 83.9014 1161.49 84.8254H1156.8ZM1167.63 88.2904C1167.43 88.4664 1167.17 88.6094 1166.87 88.7194C1166.58 88.8074 1166.26 88.8844 1165.91 88.9504C1165.58 89.0164 1165.23 89.0714 1164.85 89.1154C1164.48 89.1594 1164.11 89.2144 1163.73 89.2804C1163.38 89.3464 1163.03 89.4344 1162.68 89.5444C1162.35 89.6544 1162.05 89.8084 1161.78 90.0064C1161.54 90.1824 1161.34 90.4134 1161.19 90.6994C1161.04 90.9854 1160.96 91.3484 1160.96 91.7884C1160.96 92.2064 1161.04 92.5584 1161.19 92.8444C1161.34 93.1304 1161.55 93.3614 1161.82 93.5374C1162.08 93.6914 1162.39 93.8014 1162.74 93.8674C1163.09 93.9334 1163.46 93.9664 1163.83 93.9664C1164.75 93.9664 1165.47 93.8124 1165.98 93.5044C1166.48 93.1964 1166.86 92.8334 1167.1 92.4154C1167.34 91.9754 1167.48 91.5354 1167.53 91.0954C1167.59 90.6554 1167.63 90.3034 1167.63 90.0394V88.2904ZM1185.39 96.6394H1180.17L1174.33 79.5784H1179.25L1182.85 91.2274H1182.91L1186.51 79.5784H1191.16L1185.39 96.6394ZM1197.91 76.9384H1193.23V73.0774H1197.91V76.9384ZM1193.23 79.5784H1197.91V96.6394H1193.23V79.5784ZM1201.6 79.5784H1206.06V81.9544H1206.16C1206.75 80.9644 1207.52 80.2494 1208.47 79.8094C1209.41 79.3474 1210.38 79.1164 1211.37 79.1164C1212.62 79.1164 1213.65 79.2924 1214.44 79.6444C1215.25 79.9744 1215.89 80.4474 1216.35 81.0634C1216.81 81.6574 1217.13 82.3944 1217.31 83.2744C1217.51 84.1324 1217.61 85.0894 1217.61 86.1454V96.6394H1212.92V87.0034C1212.92 85.5954 1212.7 84.5504 1212.26 83.8684C1211.82 83.1644 1211.04 82.8124 1209.92 82.8124C1208.64 82.8124 1207.72 83.1974 1207.15 83.9674C1206.57 84.7154 1206.29 85.9584 1206.29 87.6964V96.6394H1201.6V79.5784ZM1229.12 92.6134C1229.78 92.6134 1230.36 92.4814 1230.86 92.2174C1231.37 91.9534 1231.79 91.6014 1232.12 91.1614C1232.45 90.7214 1232.69 90.2264 1232.84 89.6764C1233.02 89.1044 1233.11 88.5104 1233.11 87.8944C1233.11 87.1904 1233.04 86.5304 1232.91 85.9144C1232.78 85.2764 1232.56 84.7154 1232.25 84.2314C1231.94 83.7474 1231.54 83.3624 1231.03 83.0764C1230.52 82.7904 1229.89 82.6474 1229.12 82.6474C1228.46 82.6474 1227.88 82.7794 1227.4 83.0434C1226.94 83.3074 1226.54 83.6704 1226.21 84.1324C1225.9 84.5724 1225.67 85.0894 1225.52 85.6834C1225.39 86.2554 1225.32 86.8604 1225.32 87.4984C1225.32 88.1144 1225.38 88.7304 1225.49 89.3464C1225.62 89.9404 1225.83 90.4794 1226.11 90.9634C1226.42 91.4474 1226.82 91.8434 1227.3 92.1514C1227.78 92.4594 1228.39 92.6134 1229.12 92.6134ZM1237.56 95.5504C1237.56 96.2324 1237.46 97.0134 1237.27 97.8934C1237.09 98.7734 1236.69 99.5874 1236.08 100.335C1235.46 101.105 1234.57 101.754 1233.41 102.282C1232.24 102.81 1230.68 103.074 1228.72 103.074C1227.88 103.074 1227.03 102.964 1226.15 102.744C1225.29 102.546 1224.5 102.227 1223.77 101.787C1223.07 101.347 1222.47 100.775 1221.99 100.071C1221.53 99.3894 1221.26 98.5644 1221.2 97.5964H1225.85C1226.07 98.4764 1226.5 99.0814 1227.14 99.4114C1227.77 99.7634 1228.51 99.9394 1229.35 99.9394C1230.67 99.9394 1231.62 99.5434 1232.22 98.7514C1232.83 97.9594 1233.13 96.9584 1233.11 95.7484V93.5044H1233.04C1232.54 94.4064 1231.81 95.0774 1230.86 95.5174C1229.94 95.9354 1228.96 96.1444 1227.93 96.1444C1226.65 96.1444 1225.55 95.9244 1224.63 95.4844C1223.7 95.0224 1222.94 94.4064 1222.35 93.6364C1221.76 92.8444 1221.32 91.9314 1221.03 90.8974C1220.77 89.8414 1220.63 88.7304 1220.63 87.5644C1220.63 86.4644 1220.79 85.4084 1221.1 84.3964C1221.43 83.3624 1221.9 82.4604 1222.52 81.6904C1223.13 80.8984 1223.89 80.2714 1224.79 79.8094C1225.72 79.3474 1226.77 79.1164 1227.96 79.1164C1229.08 79.1164 1230.06 79.3254 1230.9 79.7434C1231.76 80.1614 1232.47 80.8654 1233.04 81.8554H1233.11V79.5784H1237.56V95.5504ZM1244.97 91.0954C1244.97 91.6014 1245.07 92.0414 1245.26 92.4154C1245.48 92.7674 1245.76 93.0644 1246.09 93.3064C1246.42 93.5264 1246.79 93.6914 1247.21 93.8014C1247.65 93.9114 1248.1 93.9664 1248.56 93.9664C1248.89 93.9664 1249.23 93.9334 1249.59 93.8674C1249.96 93.7794 1250.29 93.6584 1250.58 93.5044C1250.88 93.3284 1251.14 93.1084 1251.34 92.8444C1251.53 92.5584 1251.63 92.2064 1251.63 91.7884C1251.63 91.0844 1251.16 90.5564 1250.21 90.2044C1249.29 89.8524 1247.99 89.5004 1246.32 89.1484C1245.64 88.9944 1244.97 88.8184 1244.31 88.6204C1243.67 88.4004 1243.1 88.1254 1242.59 87.7954C1242.08 87.4434 1241.68 87.0144 1241.37 86.5084C1241.06 85.9804 1240.91 85.3424 1240.91 84.5944C1240.91 83.4944 1241.12 82.5924 1241.53 81.8884C1241.97 81.1844 1242.55 80.6344 1243.25 80.2384C1243.95 79.8204 1244.75 79.5344 1245.63 79.3804C1246.51 79.2044 1247.41 79.1164 1248.33 79.1164C1249.26 79.1164 1250.15 79.2044 1251.01 79.3804C1251.89 79.5564 1252.67 79.8534 1253.35 80.2714C1254.03 80.6894 1254.59 81.2504 1255.03 81.9544C1255.49 82.6364 1255.77 83.5054 1255.86 84.5614H1251.4C1251.34 83.6594 1250.99 83.0544 1250.38 82.7464C1249.76 82.4164 1249.04 82.2514 1248.2 82.2514C1247.94 82.2514 1247.65 82.2734 1247.34 82.3174C1247.03 82.3394 1246.75 82.4054 1246.48 82.5154C1246.24 82.6254 1246.03 82.7904 1245.86 83.0104C1245.68 83.2084 1245.59 83.4834 1245.59 83.8354C1245.59 84.2534 1245.75 84.5944 1246.06 84.8584C1246.36 85.1224 1246.76 85.3424 1247.24 85.5184C1247.75 85.6724 1248.32 85.8154 1248.96 85.9474C1249.6 86.0794 1250.25 86.2224 1250.91 86.3764C1251.59 86.5304 1252.25 86.7174 1252.89 86.9374C1253.55 87.1574 1254.13 87.4544 1254.64 87.8284C1255.14 88.1804 1255.55 88.6314 1255.86 89.1814C1256.16 89.7094 1256.32 90.3694 1256.32 91.1614C1256.32 92.2834 1256.09 93.2294 1255.63 93.9994C1255.19 94.7474 1254.6 95.3524 1253.88 95.8144C1253.15 96.2764 1252.31 96.5954 1251.37 96.7714C1250.44 96.9694 1249.5 97.0684 1248.53 97.0684C1247.54 97.0684 1246.57 96.9694 1245.63 96.7714C1244.68 96.5734 1243.83 96.2434 1243.09 95.7814C1242.36 95.3194 1241.75 94.7144 1241.27 93.9664C1240.81 93.1964 1240.56 92.2394 1240.51 91.0954H1244.97Z" fill="#FFFEF9"/>
<g filter="url(#filter0_d_30103_1274)">
<path d="M930.136 324.231H925.307V321.656H925.2C924.556 322.729 923.721 323.504 922.695 323.981C921.67 324.458 920.62 324.696 919.547 324.696C918.188 324.696 917.067 324.518 916.184 324.16C915.326 323.802 914.646 323.301 914.145 322.657C913.644 321.989 913.287 321.191 913.072 320.26C912.881 319.306 912.786 318.257 912.786 317.112V305.736H917.866V316.182C917.866 317.708 918.104 318.853 918.581 319.616C919.058 320.356 919.905 320.725 921.121 320.725C922.505 320.725 923.506 320.32 924.126 319.509C924.746 318.674 925.056 317.315 925.056 315.431V305.736H930.136V324.231ZM943.329 320.904C944.164 320.904 944.855 320.737 945.404 320.403C945.976 320.07 946.429 319.64 946.763 319.116C947.121 318.567 947.372 317.935 947.515 317.22C947.658 316.504 947.729 315.777 947.729 315.037C947.729 314.298 947.646 313.571 947.479 312.855C947.336 312.14 947.085 311.508 946.728 310.959C946.37 310.387 945.905 309.934 945.332 309.6C944.784 309.242 944.104 309.063 943.293 309.063C942.459 309.063 941.755 309.242 941.183 309.6C940.634 309.934 940.181 310.375 939.823 310.923C939.489 311.472 939.251 312.104 939.108 312.819C938.965 313.535 938.893 314.274 938.893 315.037C938.893 315.777 938.965 316.504 939.108 317.22C939.275 317.935 939.525 318.567 939.859 319.116C940.217 319.64 940.682 320.07 941.254 320.403C941.827 320.737 942.518 320.904 943.329 320.904ZM933.992 305.736H938.821V308.097H938.893C939.513 307.095 940.3 306.368 941.254 305.915C942.208 305.462 943.257 305.235 944.402 305.235C945.857 305.235 947.109 305.509 948.159 306.058C949.208 306.607 950.078 307.334 950.77 308.24C951.462 309.146 951.974 310.208 952.308 311.424C952.642 312.617 952.809 313.869 952.809 315.18C952.809 316.421 952.642 317.613 952.308 318.758C951.974 319.903 951.462 320.916 950.77 321.799C950.102 322.681 949.256 323.385 948.23 323.909C947.228 324.434 946.048 324.696 944.688 324.696C943.544 324.696 942.482 324.47 941.505 324.017C940.551 323.54 939.764 322.848 939.143 321.942H939.072V330.706H933.992V305.736ZM972.258 305.736H975.978V309.135H972.258V318.293C972.258 319.151 972.401 319.724 972.687 320.01C972.973 320.296 973.546 320.439 974.404 320.439C974.691 320.439 974.965 320.427 975.227 320.403C975.489 320.38 975.74 320.344 975.978 320.296V324.231C975.549 324.303 975.072 324.351 974.547 324.374C974.023 324.398 973.51 324.41 973.009 324.41C972.222 324.41 971.471 324.351 970.755 324.231C970.064 324.136 969.444 323.933 968.895 323.623C968.37 323.313 967.953 322.872 967.643 322.3C967.333 321.727 967.178 320.976 967.178 320.046V309.135H964.101V305.736H967.178V300.191H972.258V305.736ZM982.903 315.002C982.903 315.741 982.975 316.468 983.118 317.184C983.261 317.875 983.499 318.507 983.833 319.08C984.191 319.628 984.656 320.07 985.228 320.403C985.801 320.737 986.516 320.904 987.375 320.904C988.233 320.904 988.949 320.737 989.521 320.403C990.117 320.07 990.583 319.628 990.916 319.08C991.274 318.507 991.525 317.875 991.668 317.184C991.811 316.468 991.882 315.741 991.882 315.002C991.882 314.262 991.811 313.535 991.668 312.819C991.525 312.104 991.274 311.472 990.916 310.923C990.583 310.375 990.117 309.934 989.521 309.6C988.949 309.242 988.233 309.063 987.375 309.063C986.516 309.063 985.801 309.242 985.228 309.6C984.656 309.934 984.191 310.375 983.833 310.923C983.499 311.472 983.261 312.104 983.118 312.819C982.975 313.535 982.903 314.262 982.903 315.002ZM977.823 315.002C977.823 313.523 978.05 312.187 978.503 310.995C978.956 309.779 979.6 308.753 980.435 307.918C981.269 307.06 982.271 306.404 983.44 305.951C984.608 305.474 985.92 305.235 987.375 305.235C988.83 305.235 990.141 305.474 991.31 305.951C992.502 306.404 993.516 307.06 994.351 307.918C995.185 308.753 995.829 309.779 996.283 310.995C996.736 312.187 996.962 313.523 996.962 315.002C996.962 316.48 996.736 317.816 996.283 319.008C995.829 320.201 995.185 321.226 994.351 322.085C993.516 322.92 992.502 323.564 991.31 324.017C990.141 324.47 988.83 324.696 987.375 324.696C985.92 324.696 984.608 324.47 983.44 324.017C982.271 323.564 981.269 322.92 980.435 322.085C979.6 321.226 978.956 320.201 978.503 319.008C978.05 317.816 977.823 316.48 977.823 315.002Z" fill="#FFFEF9"/>
<path d="M856.342 364.652L850.68 396.792L851.087 397.199C854.989 393.293 859.167 390.497 863.619 388.811C868.071 387.124 873.124 386.286 878.776 386.296C885.783 386.296 891.986 387.577 897.383 390.138C902.608 392.574 907.257 396.087 911.027 400.448C914.829 404.931 917.715 410.117 919.521 415.711C921.5 421.744 922.488 428.059 922.448 434.408C922.508 441.405 921.06 448.333 918.203 454.721C915.486 460.834 911.607 466.361 906.783 470.994C901.976 475.594 896.309 479.2 890.107 481.605C883.67 484.109 876.799 485.306 869.895 485.126C863.229 485.155 856.593 484.235 850.186 482.395C844.142 480.689 838.479 477.842 833.505 474.007C828.652 470.23 824.685 465.436 821.883 459.961C818.987 454.368 817.478 447.866 817.357 440.453H846.063C846.733 446.921 849.159 452.075 853.34 455.917C857.52 459.76 862.843 461.679 869.307 461.676C872.846 461.729 876.348 460.932 879.516 459.352C882.442 457.868 885.037 455.807 887.145 453.292C889.282 450.718 890.927 447.772 891.997 444.602C893.138 441.32 893.72 437.869 893.717 434.393C893.738 430.892 893.191 427.41 892.098 424.084C891.078 420.952 889.426 418.063 887.245 415.595C885.114 413.186 882.497 411.256 879.566 409.932C876.313 408.533 872.797 407.847 869.257 407.921C864.13 407.921 859.953 408.831 856.724 410.652C853.496 412.472 850.463 415.335 847.627 419.241H821.768L835.718 341.015H914.754V364.652H856.342Z" fill="#FFFEF9"/>
<path d="M1068.19 428.413V432.838H1076.3V439.939H1068.19V476.032H1058.69V439.939H1044.24V476.032H1034.71V439.939H1027.61V432.838H1034.71V429.248C1034.71 426.522 1035.05 424.307 1035.72 422.604C1036.26 421.089 1037.18 419.739 1038.39 418.682C1039.49 417.768 1040.8 417.136 1042.19 416.841C1043.66 416.53 1045.16 416.377 1046.66 416.384C1049.72 416.384 1051.95 416.578 1053.34 416.967V424.4C1052.7 424.227 1052.04 424.103 1051.38 424.028C1050.56 423.936 1049.74 423.894 1048.92 423.902C1047.75 423.87 1046.6 424.19 1045.62 424.822C1044.7 425.436 1044.24 426.633 1044.24 428.413V432.838H1058.69V429.248C1058.69 426.522 1059.03 424.307 1059.7 422.604C1060.24 421.091 1061.16 419.741 1062.37 418.682C1063.47 417.769 1064.77 417.138 1066.17 416.841C1067.64 416.53 1069.14 416.377 1070.64 416.384C1073.7 416.384 1075.93 416.578 1077.33 416.967V424.4C1076.68 424.227 1076.03 424.103 1075.36 424.028C1074.55 423.936 1073.72 423.894 1072.9 423.902C1071.73 423.87 1070.58 424.19 1069.6 424.822C1068.7 425.436 1068.19 426.638 1068.19 428.413Z" fill="#FFFEF9"/>
<path d="M1020.88 438.104C1018.96 436.06 1016.62 434.45 1014.03 433.382C1011.11 432.199 1007.97 431.616 1004.82 431.667C1003.12 431.658 1001.43 431.811 999.762 432.125L1052.88 341.719H1049.22L1026.13 380.975C1025.8 379.582 1025.44 378.224 1025.06 376.917C1022.29 367.529 1018.51 360.006 1013.73 354.347C1008.94 348.688 1003.41 344.639 997.132 342.202C990.711 339.749 983.889 338.514 977.016 338.561C970.202 338.523 963.441 339.758 957.081 342.202C950.805 344.629 945.305 348.678 940.581 354.347C935.857 360.016 932.114 367.539 929.351 376.917C926.582 386.304 925.197 397.871 925.197 411.617C925.197 425.785 926.582 437.627 929.351 447.142C932.121 456.656 935.864 464.247 940.581 469.913C945.305 475.579 950.805 479.627 957.081 482.058C959.741 483.086 962.481 483.897 965.273 484.482L960.853 492H964.604L983.523 459.815C983.759 461.091 984.095 462.348 984.529 463.571C985.433 466.237 986.884 468.685 988.789 470.758C990.71 472.803 993.047 474.413 995.643 475.48C1001.59 477.759 1008.16 477.759 1014.1 475.48C1016.7 474.412 1019.03 472.802 1020.95 470.758C1022.86 468.685 1024.31 466.237 1025.21 463.571C1027.16 457.629 1027.16 451.218 1025.21 445.276C1024.28 442.609 1022.81 440.166 1020.88 438.104V438.104ZM976.961 462.244C971.157 462.244 966.705 460.354 963.604 456.576C960.38 452.568 958.067 447.908 956.825 442.917C955.399 437.491 954.556 431.927 954.31 426.322C954.039 420.589 953.904 415.697 953.908 411.647C953.908 409.22 953.941 406.284 954.008 402.841C954.075 399.398 954.312 395.856 954.717 392.215C955.119 388.561 955.791 384.942 956.729 381.388C957.589 378.014 958.918 374.777 960.677 371.772C962.288 369.017 964.503 366.664 967.154 364.888C969.786 363.137 973.058 362.261 976.971 362.257C980.883 362.254 984.191 363.131 986.893 364.888C989.604 366.657 991.885 369.009 993.571 371.772C995.382 374.751 996.715 377.996 997.519 381.388C998.389 384.957 999.061 388.572 999.531 392.215C999.993 395.74 1000.26 399.287 1000.34 402.841C1000.4 406.281 1000.44 409.216 1000.44 411.647C1000.44 415.439 1000.32 419.965 1000.08 425.225L978.338 462.193C977.891 462.223 977.428 462.239 976.961 462.239V462.244ZM1016.37 459.955C1015.92 461.702 1015.17 463.357 1014.15 464.843C1013.16 466.291 1011.84 467.495 1010.31 468.364C1008.61 469.243 1006.72 469.701 1004.8 469.701C1002.88 469.701 1000.99 469.243 999.284 468.364C997.752 467.498 996.438 466.294 995.442 464.843C994.419 463.359 993.67 461.704 993.229 459.955C992.278 456.329 992.278 452.518 993.229 448.892C993.658 447.139 994.409 445.482 995.442 444.003C996.451 442.578 997.763 441.395 999.284 440.538C1000.99 439.659 1002.88 439.201 1004.8 439.201C1006.72 439.201 1008.61 439.659 1010.31 440.538C1011.83 441.397 1013.14 442.581 1014.15 444.003C1015.18 445.484 1015.93 447.141 1016.37 448.892C1017.31 452.519 1017.31 456.328 1016.37 459.955V459.955Z" fill="#FFFEF9"/>
<path d="M1037.7 347.407C1037.49 346.411 1037.09 345.467 1036.51 344.631C1035.95 343.839 1035.2 343.196 1034.34 342.755C1033.29 342.262 1032.14 342.026 1030.98 342.066C1029.85 342.04 1028.73 342.268 1027.7 342.735C1026.81 343.16 1026.03 343.787 1025.42 344.566C1024.8 345.374 1024.35 346.297 1024.09 347.281C1023.79 348.361 1023.65 349.476 1023.65 350.595C1023.65 351.704 1023.77 352.81 1024.02 353.889C1024.23 354.842 1024.64 355.739 1025.23 356.519C1025.81 357.272 1026.58 357.865 1027.45 358.244C1028.5 358.692 1029.64 358.907 1030.79 358.873C1031.91 358.9 1033.02 358.694 1034.06 358.27C1034.94 357.898 1035.71 357.322 1036.32 356.59C1036.93 355.833 1037.38 354.961 1037.64 354.025C1037.93 352.966 1038.08 351.871 1038.07 350.771C1038.06 349.64 1037.94 348.512 1037.7 347.407V347.407ZM1033.58 352.255C1033.54 352.8 1033.43 353.337 1033.24 353.849C1033.06 354.338 1032.77 354.774 1032.37 355.116C1031.92 355.453 1031.36 355.634 1030.79 355.634C1030.22 355.634 1029.67 355.453 1029.21 355.116C1028.84 354.769 1028.56 354.333 1028.39 353.849C1028.22 353.327 1028.12 352.784 1028.09 352.235C1028.07 351.656 1028.05 351.143 1028.05 350.681C1028.05 350.218 1028.05 349.635 1028.12 349.001C1028.15 348.398 1028.27 347.804 1028.48 347.236C1028.66 346.715 1028.97 346.244 1029.36 345.858C1029.81 345.465 1030.39 345.265 1030.98 345.3C1031.26 345.282 1031.54 345.327 1031.8 345.432C1032.06 345.536 1032.29 345.697 1032.49 345.903C1032.85 346.327 1033.13 346.826 1033.28 347.367C1033.45 347.948 1033.56 348.547 1033.6 349.152C1033.65 349.771 1033.67 350.294 1033.67 350.726C1033.67 351.159 1033.63 351.707 1033.58 352.255V352.255ZM1059.92 361.81C1059.72 360.84 1059.32 359.923 1058.74 359.119C1058.17 358.349 1057.42 357.728 1056.56 357.309C1055.51 356.828 1054.36 356.599 1053.2 356.64C1052.07 356.612 1050.96 356.834 1049.93 357.289C1049.04 357.692 1048.26 358.296 1047.65 359.054C1047.03 359.829 1046.57 360.722 1046.31 361.679C1046.01 362.745 1045.87 363.847 1045.88 364.953C1045.87 366.07 1046 367.183 1046.24 368.272C1046.46 369.241 1046.87 370.156 1047.45 370.963C1048.02 371.733 1048.78 372.347 1049.65 372.748C1050.7 373.21 1051.84 373.431 1052.98 373.397C1054.11 373.424 1055.22 373.21 1056.26 372.768C1057.14 372.381 1057.92 371.784 1058.52 371.028C1059.13 370.246 1059.57 369.352 1059.83 368.398C1060.13 367.332 1060.27 366.23 1060.27 365.124C1060.27 364.005 1060.16 362.888 1059.92 361.795V361.81ZM1055.8 366.613C1055.77 367.185 1055.65 367.75 1055.46 368.292C1055.29 368.806 1054.99 369.272 1054.6 369.65C1054.17 370.037 1053.61 370.238 1053.03 370.208C1052.74 370.227 1052.45 370.188 1052.17 370.092C1051.9 369.996 1051.65 369.846 1051.43 369.65C1051.06 369.268 1050.78 368.803 1050.61 368.292C1050.44 367.741 1050.34 367.17 1050.31 366.593C1050.29 365.989 1050.27 365.456 1050.27 364.998C1050.27 364.541 1050.27 363.962 1050.34 363.359C1050.37 362.783 1050.5 362.217 1050.71 361.679C1050.89 361.183 1051.19 360.74 1051.59 360.387C1052.04 360.025 1052.62 359.846 1053.2 359.884C1053.48 359.867 1053.76 359.91 1054.02 360.01C1054.28 360.111 1054.51 360.267 1054.71 360.467C1055.07 360.863 1055.34 361.333 1055.5 361.845C1055.68 362.39 1055.79 362.954 1055.82 363.525C1055.87 364.113 1055.89 364.626 1055.89 365.034C1055.89 365.441 1055.85 366.009 1055.8 366.598V366.613Z" fill="#FFFEF9"/>
<path d="M1081.05 423.62L1081.86 421.226L1085.91 422.81V418.395H1088.43V422.81L1092.45 421.226L1093.34 423.62L1089.14 425.018L1091.72 428.473L1089.76 429.906L1087.15 426.305L1084.64 429.906L1082.58 428.473L1085.15 425.018L1081.05 423.62Z" fill="#FFFEF9"/>
</g>
<path d="M1179.71 415.84C1179.54 414.197 1178.94 413.013 1177.92 412.288C1176.92 411.541 1175.63 411.168 1174.05 411.168C1173.41 411.168 1172.78 411.232 1172.16 411.36C1171.54 411.488 1170.99 411.701 1170.5 412C1170.03 412.299 1169.64 412.704 1169.34 413.216C1169.07 413.707 1168.93 414.325 1168.93 415.072C1168.93 415.776 1169.13 416.352 1169.54 416.8C1169.96 417.227 1170.52 417.579 1171.2 417.856C1171.9 418.133 1172.69 418.368 1173.57 418.56C1174.44 418.731 1175.33 418.923 1176.22 419.136C1177.14 419.349 1178.04 419.605 1178.91 419.904C1179.79 420.181 1180.57 420.565 1181.25 421.056C1181.95 421.547 1182.51 422.165 1182.91 422.912C1183.34 423.659 1183.55 424.597 1183.55 425.728C1183.55 426.944 1183.27 427.989 1182.72 428.864C1182.19 429.717 1181.49 430.421 1180.64 430.976C1179.79 431.509 1178.83 431.893 1177.76 432.128C1176.71 432.384 1175.67 432.512 1174.62 432.512C1173.34 432.512 1172.13 432.352 1170.98 432.032C1169.85 431.712 1168.84 431.232 1167.97 430.592C1167.11 429.931 1166.43 429.099 1165.92 428.096C1165.43 427.072 1165.18 425.867 1165.18 424.48H1168.06C1168.06 425.44 1168.25 426.272 1168.61 426.976C1168.99 427.659 1169.48 428.224 1170.08 428.672C1170.7 429.12 1171.41 429.451 1172.22 429.664C1173.03 429.877 1173.87 429.984 1174.72 429.984C1175.4 429.984 1176.09 429.92 1176.77 429.792C1177.47 429.664 1178.1 429.451 1178.66 429.152C1179.21 428.832 1179.66 428.405 1180 427.872C1180.34 427.339 1180.51 426.656 1180.51 425.824C1180.51 425.035 1180.3 424.395 1179.87 423.904C1179.47 423.413 1178.91 423.019 1178.21 422.72C1177.53 422.4 1176.75 422.144 1175.87 421.952C1175 421.76 1174.1 421.568 1173.18 421.376C1172.29 421.163 1171.4 420.928 1170.53 420.672C1169.65 420.395 1168.86 420.043 1168.16 419.616C1167.48 419.168 1166.92 418.603 1166.5 417.92C1166.09 417.216 1165.89 416.341 1165.89 415.296C1165.89 414.144 1166.12 413.152 1166.59 412.32C1167.06 411.467 1167.68 410.773 1168.45 410.24C1169.24 409.685 1170.12 409.28 1171.1 409.024C1172.11 408.747 1173.13 408.608 1174.18 408.608C1175.35 408.608 1176.44 408.747 1177.44 409.024C1178.44 409.301 1179.32 409.739 1180.06 410.336C1180.83 410.933 1181.43 411.691 1181.86 412.608C1182.3 413.504 1182.55 414.581 1182.59 415.84H1179.71ZM1201.45 431.936C1200.98 432.213 1200.33 432.352 1199.5 432.352C1198.8 432.352 1198.23 432.16 1197.81 431.776C1197.4 431.371 1197.2 430.72 1197.2 429.824C1196.45 430.72 1195.58 431.371 1194.57 431.776C1193.59 432.16 1192.53 432.352 1191.37 432.352C1190.63 432.352 1189.91 432.267 1189.23 432.096C1188.57 431.925 1187.99 431.659 1187.5 431.296C1187.01 430.933 1186.62 430.464 1186.32 429.888C1186.04 429.291 1185.9 428.576 1185.9 427.744C1185.9 426.805 1186.06 426.037 1186.38 425.44C1186.7 424.843 1187.12 424.363 1187.63 424C1188.16 423.616 1188.76 423.328 1189.42 423.136C1190.1 422.944 1190.8 422.784 1191.5 422.656C1192.25 422.507 1192.95 422.4 1193.61 422.336C1194.3 422.251 1194.89 422.144 1195.41 422.016C1195.92 421.867 1196.32 421.664 1196.62 421.408C1196.92 421.131 1197.07 420.736 1197.07 420.224C1197.07 419.627 1196.95 419.147 1196.72 418.784C1196.5 418.421 1196.22 418.144 1195.85 417.952C1195.51 417.76 1195.12 417.632 1194.67 417.568C1194.24 417.504 1193.82 417.472 1193.39 417.472C1192.24 417.472 1191.28 417.696 1190.51 418.144C1189.74 418.571 1189.33 419.392 1189.26 420.608H1186.54C1186.58 419.584 1186.8 418.72 1187.18 418.016C1187.57 417.312 1188.08 416.747 1188.72 416.32C1189.36 415.872 1190.08 415.552 1190.89 415.36C1191.73 415.168 1192.61 415.072 1193.55 415.072C1194.3 415.072 1195.03 415.125 1195.76 415.232C1196.5 415.339 1197.18 415.563 1197.77 415.904C1198.37 416.224 1198.85 416.683 1199.21 417.28C1199.58 417.877 1199.76 418.656 1199.76 419.616V428.128C1199.76 428.768 1199.79 429.237 1199.85 429.536C1199.94 429.835 1200.2 429.984 1200.62 429.984C1200.86 429.984 1201.13 429.931 1201.45 429.824V431.936ZM1197.04 423.456C1196.7 423.712 1196.25 423.904 1195.69 424.032C1195.14 424.139 1194.55 424.235 1193.93 424.32C1193.34 424.384 1192.73 424.469 1192.11 424.576C1191.49 424.661 1190.94 424.811 1190.45 425.024C1189.96 425.237 1189.55 425.547 1189.23 425.952C1188.93 426.336 1188.78 426.869 1188.78 427.552C1188.78 428 1188.87 428.384 1189.04 428.704C1189.23 429.003 1189.46 429.248 1189.74 429.44C1190.04 429.632 1190.38 429.771 1190.77 429.856C1191.15 429.941 1191.56 429.984 1191.98 429.984C1192.88 429.984 1193.65 429.867 1194.29 429.632C1194.93 429.376 1195.45 429.067 1195.85 428.704C1196.26 428.32 1196.56 427.915 1196.75 427.488C1196.94 427.04 1197.04 426.624 1197.04 426.24V423.456ZM1211.44 432H1208.53L1202.39 415.456H1205.43L1210.07 429.248H1210.13L1214.64 415.456H1217.49L1211.44 432ZM1231.47 422.144C1231.43 421.504 1231.28 420.896 1231.03 420.32C1230.79 419.744 1230.46 419.253 1230.03 418.848C1229.63 418.421 1229.14 418.091 1228.56 417.856C1228.01 417.6 1227.39 417.472 1226.71 417.472C1226 417.472 1225.36 417.6 1224.79 417.856C1224.23 418.091 1223.75 418.421 1223.35 418.848C1222.94 419.275 1222.62 419.776 1222.39 420.352C1222.15 420.907 1222.01 421.504 1221.97 422.144H1231.47ZM1234.1 426.752C1233.73 428.608 1232.93 430.005 1231.7 430.944C1230.46 431.883 1228.9 432.352 1227.03 432.352C1225.7 432.352 1224.55 432.139 1223.57 431.712C1222.61 431.285 1221.8 430.688 1221.14 429.92C1220.48 429.152 1219.97 428.235 1219.63 427.168C1219.31 426.101 1219.13 424.939 1219.09 423.68C1219.09 422.421 1219.28 421.269 1219.67 420.224C1220.05 419.179 1220.58 418.272 1221.27 417.504C1221.97 416.736 1222.79 416.139 1223.73 415.712C1224.69 415.285 1225.73 415.072 1226.87 415.072C1228.34 415.072 1229.55 415.381 1230.51 416C1231.49 416.597 1232.27 417.365 1232.85 418.304C1233.45 419.243 1233.85 420.267 1234.07 421.376C1234.3 422.485 1234.4 423.541 1234.35 424.544H1221.97C1221.95 425.269 1222.03 425.963 1222.23 426.624C1222.42 427.264 1222.73 427.84 1223.15 428.352C1223.58 428.843 1224.12 429.237 1224.79 429.536C1225.45 429.835 1226.23 429.984 1227.12 429.984C1228.27 429.984 1229.21 429.717 1229.94 429.184C1230.68 428.651 1231.17 427.84 1231.41 426.752H1234.1ZM1246.5 409.152H1249.73L1261.76 427.68H1261.82V409.152H1264.7V432H1261.38L1249.44 413.664H1249.38V432H1246.5V409.152ZM1271.16 423.744C1271.16 424.747 1271.29 425.643 1271.54 426.432C1271.82 427.2 1272.19 427.851 1272.66 428.384C1273.13 428.896 1273.67 429.291 1274.29 429.568C1274.93 429.845 1275.61 429.984 1276.31 429.984C1277.01 429.984 1277.67 429.845 1278.29 429.568C1278.93 429.291 1279.49 428.896 1279.96 428.384C1280.43 427.851 1280.79 427.2 1281.05 426.432C1281.32 425.643 1281.46 424.747 1281.46 423.744C1281.46 422.741 1281.32 421.856 1281.05 421.088C1280.79 420.299 1280.43 419.637 1279.96 419.104C1279.49 418.571 1278.93 418.165 1278.29 417.888C1277.67 417.611 1277.01 417.472 1276.31 417.472C1275.61 417.472 1274.93 417.611 1274.29 417.888C1273.67 418.165 1273.13 418.571 1272.66 419.104C1272.19 419.637 1271.82 420.299 1271.54 421.088C1271.29 421.856 1271.16 422.741 1271.16 423.744ZM1268.28 423.744C1268.28 422.528 1268.45 421.397 1268.79 420.352C1269.13 419.285 1269.64 418.368 1270.33 417.6C1271.01 416.811 1271.85 416.192 1272.85 415.744C1273.86 415.296 1275.01 415.072 1276.31 415.072C1277.63 415.072 1278.78 415.296 1279.77 415.744C1280.77 416.192 1281.61 416.811 1282.29 417.6C1282.98 418.368 1283.49 419.285 1283.83 420.352C1284.17 421.397 1284.34 422.528 1284.34 423.744C1284.34 424.96 1284.17 426.091 1283.83 427.136C1283.49 428.181 1282.98 429.099 1282.29 429.888C1281.61 430.656 1280.77 431.264 1279.77 431.712C1278.78 432.139 1277.63 432.352 1276.31 432.352C1275.01 432.352 1273.86 432.139 1272.85 431.712C1271.85 431.264 1271.01 430.656 1270.33 429.888C1269.64 429.099 1269.13 428.181 1268.79 427.136C1268.45 426.091 1268.28 424.96 1268.28 423.744ZM1303.93 432H1301.05L1297.69 418.848H1297.63L1294.3 432H1291.36L1286.04 415.456H1289.05L1292.8 428.992H1292.86L1296.19 415.456H1299.16L1302.62 428.992H1302.68L1306.4 415.456H1309.21L1303.93 432Z" fill="#FFFEF9"/>
<path d="M1325.76 429.384L1323.89 428.184L1329.95 422.072V422.968L1323.89 416.856L1325.76 415.656L1332.32 422.52L1325.76 429.384Z" fill="#FFFEF9"/>
<defs>
<filter id="filter0_d_30103_1274" x="811.348" y="273.142" width="282.847" height="224.866" filterUnits="userSpaceOnUse" color-interpolation-filters="sRGB">
<feFlood flood-opacity="0" result="BackgroundImageFix"/>
<feColorMatrix in="SourceAlpha" type="matrix" values="0 0 0 0 0 0 0 0 0 0 0 0 0 0 0 0 0 0 127 0" result="hardAlpha"/>
<feOffset dx="-2.5748" dy="2.5748"/>
<feGaussianBlur stdDeviation="1.71654"/>
<feComposite in2="hardAlpha" operator="out"/>
<feColorMatrix type="matrix" values="0 0 0 0 0 0 0 0 0 0 0 0 0 0 0 0 0 0 0.25 0"/>
<feBlend mode="normal" in2="BackgroundImageFix" result="effect1_dropShadow_30103_1274"/>
<feBlend mode="normal" in="SourceGraphic" in2="effect1_dropShadow_30103_1274" result="shape"/>
</filter>
</defs>
</svg>
