<svg viewBox="0 0 767 430" fill="none" xmlns="http://www.w3.org/2000/svg">
<path d="M131.957 207.014H128.81V205.336H128.74C128.321 206.035 127.777 206.54 127.109 206.851C126.441 207.162 125.757 207.317 125.058 207.317C124.172 207.317 123.442 207.201 122.867 206.968C122.308 206.734 121.865 206.408 121.538 205.989C121.212 205.554 120.979 205.033 120.839 204.427C120.715 203.806 120.653 203.122 120.653 202.376V194.964H123.962V201.77C123.962 202.765 124.118 203.51 124.429 204.008C124.739 204.489 125.291 204.73 126.083 204.73C126.985 204.73 127.637 204.466 128.041 203.938C128.445 203.394 128.647 202.508 128.647 201.281V194.964H131.957V207.014ZM140.552 204.847C141.095 204.847 141.546 204.738 141.903 204.52C142.276 204.303 142.572 204.023 142.789 203.681C143.022 203.324 143.185 202.912 143.279 202.446C143.372 201.98 143.418 201.506 143.418 201.024C143.418 200.543 143.364 200.069 143.255 199.603C143.162 199.136 142.999 198.725 142.766 198.367C142.533 197.994 142.23 197.699 141.857 197.482C141.499 197.249 141.057 197.132 140.528 197.132C139.985 197.132 139.526 197.249 139.153 197.482C138.796 197.699 138.501 197.987 138.268 198.344C138.05 198.701 137.895 199.113 137.801 199.579C137.708 200.045 137.662 200.527 137.662 201.024C137.662 201.506 137.708 201.98 137.801 202.446C137.91 202.912 138.073 203.324 138.291 203.681C138.524 204.023 138.827 204.303 139.2 204.52C139.573 204.738 140.023 204.847 140.552 204.847ZM134.469 194.964H137.615V196.503H137.662C138.066 195.85 138.578 195.376 139.2 195.081C139.821 194.786 140.505 194.638 141.251 194.638C142.199 194.638 143.014 194.817 143.698 195.174C144.382 195.532 144.949 196.005 145.4 196.596C145.85 197.186 146.184 197.878 146.402 198.67C146.619 199.447 146.728 200.263 146.728 201.117C146.728 201.925 146.619 202.702 146.402 203.448C146.184 204.194 145.85 204.854 145.4 205.429C144.964 206.004 144.413 206.463 143.745 206.804C143.092 207.146 142.323 207.317 141.437 207.317C140.692 207.317 140 207.17 139.363 206.874C138.741 206.564 138.229 206.113 137.825 205.523H137.778V211.233H134.469V194.964ZM159.399 194.964H161.823V197.179H159.399V203.145C159.399 203.705 159.492 204.077 159.678 204.264C159.865 204.45 160.238 204.544 160.797 204.544C160.984 204.544 161.162 204.536 161.333 204.52C161.504 204.505 161.667 204.481 161.823 204.45V207.014C161.543 207.061 161.232 207.092 160.89 207.107C160.549 207.123 160.215 207.131 159.888 207.131C159.376 207.131 158.886 207.092 158.42 207.014C157.969 206.952 157.565 206.82 157.208 206.618C156.866 206.416 156.594 206.128 156.392 205.756C156.19 205.383 156.089 204.893 156.089 204.287V197.179H154.085V194.964H156.089V191.352H159.399V194.964ZM166.334 201.001C166.334 201.483 166.381 201.957 166.474 202.423C166.567 202.873 166.723 203.285 166.94 203.658C167.173 204.015 167.476 204.303 167.849 204.52C168.222 204.738 168.688 204.847 169.247 204.847C169.807 204.847 170.273 204.738 170.646 204.52C171.034 204.303 171.337 204.015 171.555 203.658C171.788 203.285 171.951 202.873 172.044 202.423C172.138 201.957 172.184 201.483 172.184 201.001C172.184 200.519 172.138 200.045 172.044 199.579C171.951 199.113 171.788 198.701 171.555 198.344C171.337 197.987 171.034 197.699 170.646 197.482C170.273 197.249 169.807 197.132 169.247 197.132C168.688 197.132 168.222 197.249 167.849 197.482C167.476 197.699 167.173 197.987 166.94 198.344C166.723 198.701 166.567 199.113 166.474 199.579C166.381 200.045 166.334 200.519 166.334 201.001ZM163.024 201.001C163.024 200.038 163.172 199.167 163.467 198.391C163.763 197.598 164.182 196.93 164.726 196.386C165.27 195.827 165.922 195.4 166.684 195.104C167.445 194.794 168.3 194.638 169.247 194.638C170.195 194.638 171.05 194.794 171.811 195.104C172.588 195.4 173.248 195.827 173.792 196.386C174.336 196.93 174.756 197.598 175.051 198.391C175.346 199.167 175.494 200.038 175.494 201.001C175.494 201.964 175.346 202.834 175.051 203.611C174.756 204.388 174.336 205.056 173.792 205.616C173.248 206.16 172.588 206.579 171.811 206.874C171.05 207.17 170.195 207.317 169.247 207.317C168.3 207.317 167.445 207.17 166.684 206.874C165.922 206.579 165.27 206.16 164.726 205.616C164.182 205.056 163.763 204.388 163.467 203.611C163.172 202.834 163.024 201.964 163.024 201.001Z" fill="#FFFEF9"/>
<path d="M102.077 233.553C101.033 232.442 99.7668 231.563 98.3609 230.973C96.9551 230.384 95.4407 230.097 93.9166 230.131C90.5789 230.131 87.7924 231.113 85.5571 233.078C83.2926 235.091 81.4774 237.557 80.2296 240.318C78.8907 243.237 77.9174 246.309 77.3316 249.467C76.7612 252.331 76.4099 255.236 76.2806 258.154L76.5426 258.416C79.0879 254.729 82.0708 252.096 85.4915 250.518C88.9122 248.939 92.8612 248.15 97.3385 248.15C101.339 248.161 105.289 249.036 108.92 250.714C112.564 252.333 115.834 254.686 118.527 257.627C120.975 260.419 122.813 263.691 123.924 267.234C125.054 270.765 125.631 274.45 125.636 278.157C125.679 282.669 124.903 287.152 123.344 291.386C121.884 295.343 119.647 298.968 116.766 302.048C113.889 305.091 110.417 307.509 106.566 309.153C102.617 310.867 98.2291 311.722 93.4026 311.72C86.4717 311.72 80.7239 310.338 76.1594 307.575C71.6879 304.899 67.9381 301.172 65.2359 296.717C62.4379 292.037 60.5203 286.884 59.5777 281.514C58.5188 275.805 57.9893 270.011 57.9962 264.205C57.9996 258.446 58.6588 252.706 59.9608 247.096C61.1844 241.623 63.3208 236.395 66.2804 231.631C69.1149 227.086 72.9384 223.239 77.4659 220.377C82.0261 217.482 87.5981 216.035 94.1819 216.035C97.9361 216.005 101.67 216.583 105.24 217.747C108.542 218.825 111.618 220.498 114.316 222.685C116.982 224.877 119.176 227.586 120.767 230.648C122.51 234.063 123.625 237.763 124.058 241.572H106.288C105.692 238.547 104.229 235.761 102.077 233.553ZM86.3594 263.629C84.5326 264.5 82.9331 265.783 81.6867 267.378C80.431 269.009 79.4933 270.862 78.923 272.84C78.2998 274.955 77.9887 277.15 77.9996 279.356C78.0006 281.478 78.332 283.587 78.982 285.607C79.605 287.603 80.5822 289.471 81.8668 291.121C83.1256 292.737 84.7197 294.062 86.5394 295.004C88.4948 295.996 90.6637 296.493 92.8558 296.452C94.9442 296.5 97.0089 296.001 98.8448 295.004C100.555 294.041 102.055 292.743 103.255 291.189C104.5 289.575 105.436 287.746 106.019 285.793C106.63 283.787 106.94 281.702 106.939 279.605C106.944 277.448 106.656 275.302 106.084 273.223C105.551 271.247 104.683 269.377 103.517 267.695C102.365 266.063 100.858 264.713 99.11 263.746C97.1917 262.709 95.0364 262.187 92.8558 262.234C90.6097 262.188 88.3833 262.661 86.3495 263.615L86.3594 263.629Z" fill="#FFFEF9"/>
<path d="M220.909 274.595V277.476H226.188V282.1H220.909V305.6H214.711V282.1H205.31V305.6H199.088V282.1H194.465V277.476H199.088V275.138C199.088 273.363 199.307 271.922 199.743 270.813C200.096 269.826 200.696 268.947 201.485 268.259C202.2 267.663 203.05 267.252 203.961 267.06C204.917 266.858 205.891 266.758 206.868 266.762C208.864 266.762 210.314 266.889 211.22 267.142V271.982C210.801 271.869 210.374 271.788 209.943 271.739C209.41 271.68 208.875 271.653 208.339 271.657C207.579 271.637 206.83 271.845 206.191 272.257C205.592 272.656 205.294 273.436 205.294 274.595V277.476H214.704V275.138C214.704 273.363 214.922 271.922 215.359 270.813C215.712 269.827 216.31 268.948 217.098 268.259C217.814 267.665 218.663 267.253 219.573 267.06C220.53 266.858 221.506 266.758 222.484 266.762C224.48 266.762 225.93 266.889 226.836 267.142V271.982C226.417 271.869 225.99 271.788 225.559 271.739C225.026 271.68 224.49 271.653 223.954 271.657C223.193 271.637 222.444 271.845 221.803 272.257C221.211 272.656 220.909 273.439 220.909 274.595Z" fill="#FFFEF9"/>
<path d="M190.096 280.905C188.845 279.574 187.325 278.525 185.636 277.83C183.727 277.059 181.683 276.68 179.624 276.717C178.519 276.711 177.416 276.811 176.33 277.015L210.918 218.15H208.534L193.501 243.711C193.285 242.804 193.053 241.919 192.804 241.068C190.998 234.956 188.538 230.057 185.423 226.373C182.308 222.688 178.706 220.052 174.618 218.465C170.432 216.866 165.984 216.062 161.503 216.094C157.067 216.07 152.665 216.874 148.524 218.465C144.437 220.045 140.856 222.681 137.78 226.373C134.704 230.064 132.267 234.962 130.468 241.068C128.663 247.18 127.761 254.712 127.764 263.662C127.764 272.887 128.665 280.597 130.468 286.792C132.271 292.988 134.709 297.93 137.78 301.619C140.854 305.308 144.435 307.944 148.524 309.527C150.256 310.197 152.04 310.724 153.858 311.105L150.979 316H153.422L165.741 295.044C165.894 295.875 166.113 296.693 166.395 297.49C166.984 299.226 167.929 300.82 169.169 302.169C170.42 303.501 171.942 304.549 173.632 305.244C177.501 306.728 181.783 306.728 185.652 305.244C187.341 304.549 188.862 303.5 190.112 302.169C191.352 300.82 192.297 299.226 192.886 297.49C194.156 293.621 194.156 289.447 192.886 285.578C192.291 283.843 191.341 282.251 190.096 280.905ZM161.5 296.622C157.721 296.622 154.822 295.392 152.803 292.932C150.705 290.323 149.198 287.288 148.389 284.039C147.461 280.505 146.912 276.883 146.752 273.233C146.575 269.5 146.488 266.315 146.49 263.678C146.49 262.098 146.512 260.186 146.556 257.945C146.599 255.703 146.753 253.396 147.017 251.026C147.279 248.647 147.716 246.29 148.327 243.976C148.887 241.779 149.752 239.671 150.898 237.715C151.947 235.921 153.389 234.389 155.115 233.232C156.829 232.093 158.959 231.522 161.507 231.52C164.054 231.518 166.208 232.089 167.967 233.232C169.732 234.384 171.218 235.916 172.316 237.715C173.495 239.655 174.362 241.767 174.886 243.976C175.453 246.3 175.89 248.653 176.196 251.026C176.497 253.321 176.673 255.63 176.723 257.945C176.767 260.184 176.788 262.095 176.788 263.678C176.788 266.147 176.711 269.094 176.556 272.519L162.414 296.589C162.106 296.609 161.805 296.619 161.5 296.619V296.622ZM187.159 295.132C186.869 296.27 186.381 297.347 185.718 298.315C185.067 299.258 184.212 300.041 183.216 300.607C182.106 301.18 180.875 301.478 179.626 301.478C178.377 301.478 177.146 301.18 176.035 300.607C175.038 300.043 174.182 299.259 173.534 298.315C172.868 297.349 172.38 296.271 172.093 295.132C171.474 292.771 171.474 290.29 172.093 287.929C172.372 286.788 172.861 285.709 173.534 284.746C174.19 283.818 175.045 283.047 176.035 282.49C177.146 281.917 178.377 281.619 179.626 281.619C180.875 281.619 182.106 281.917 183.216 282.49C184.205 283.049 185.06 283.819 185.718 284.746C186.389 285.71 186.877 286.789 187.159 287.929C187.774 290.29 187.774 292.771 187.159 295.132Z" fill="#FFFEF9"/>
<path d="M201.053 221.849C200.92 221.201 200.659 220.586 200.283 220.042C199.916 219.527 199.429 219.108 198.865 218.821C198.182 218.5 197.432 218.346 196.678 218.372C195.944 218.355 195.215 218.503 194.546 218.807C193.965 219.084 193.456 219.492 193.06 219.999C192.656 220.526 192.362 221.127 192.192 221.768C192.001 222.471 191.906 223.197 191.91 223.925C191.905 224.647 191.985 225.367 192.149 226.07C192.286 226.69 192.554 227.274 192.935 227.783C193.312 228.269 193.804 228.654 194.366 228.903C195.052 229.194 195.792 229.334 196.537 229.312C197.267 229.329 197.993 229.195 198.669 228.919C199.24 228.677 199.745 228.302 200.142 227.825C200.538 227.333 200.829 226.764 200.997 226.155C201.19 225.466 201.285 224.753 201.279 224.037C201.282 223.302 201.206 222.568 201.053 221.849ZM198.374 225.006C198.349 225.361 198.274 225.71 198.152 226.044C198.037 226.362 197.843 226.646 197.588 226.869C197.29 227.088 196.929 227.206 196.558 227.206C196.188 227.206 195.827 227.088 195.529 226.869C195.285 226.643 195.101 226.359 194.995 226.044C194.881 225.704 194.815 225.351 194.798 224.993C194.782 224.616 194.772 224.282 194.772 223.981C194.772 223.68 194.772 223.3 194.815 222.887C194.838 222.495 194.917 222.108 195.051 221.738C195.172 221.399 195.369 221.092 195.627 220.841C195.915 220.585 196.293 220.454 196.678 220.477C196.861 220.466 197.043 220.495 197.213 220.563C197.383 220.631 197.536 220.736 197.66 220.87C197.901 221.146 198.078 221.471 198.178 221.823C198.291 222.202 198.361 222.591 198.387 222.986C198.417 223.388 198.43 223.729 198.43 224.011C198.43 224.292 198.397 224.649 198.368 225.006H198.374ZM215.522 231.227C215.393 230.596 215.13 229.999 214.753 229.476C214.382 228.974 213.896 228.57 213.335 228.297C212.65 227.983 211.901 227.834 211.148 227.861C210.415 227.843 209.687 227.987 209.016 228.284C208.439 228.546 207.931 228.94 207.533 229.433C207.129 229.938 206.833 230.519 206.662 231.142C206.469 231.836 206.375 232.554 206.38 233.274C206.377 234.001 206.457 234.726 206.619 235.435C206.761 236.066 207.028 236.662 207.405 237.187C207.777 237.689 208.269 238.088 208.836 238.349C209.519 238.65 210.261 238.794 211.007 238.772C211.739 238.79 212.466 238.65 213.139 238.362C213.715 238.11 214.221 237.721 214.612 237.229C215.007 236.72 215.297 236.138 215.467 235.517C215.659 234.823 215.754 234.105 215.748 233.385C215.751 232.656 215.673 231.929 215.516 231.218L215.522 231.227ZM212.844 234.354C212.819 234.727 212.744 235.095 212.621 235.448C212.507 235.783 212.315 236.086 212.061 236.332C211.781 236.584 211.413 236.715 211.036 236.696C210.848 236.708 210.659 236.682 210.48 236.62C210.302 236.557 210.138 236.459 209.998 236.332C209.754 236.083 209.571 235.781 209.465 235.448C209.351 235.089 209.285 234.717 209.268 234.341C209.268 233.948 209.242 233.601 209.242 233.303C209.242 233.005 209.242 232.629 209.285 232.236C209.308 231.861 209.389 231.492 209.524 231.142C209.643 230.819 209.84 230.53 210.097 230.301C210.395 230.065 210.769 229.949 211.148 229.973C211.329 229.962 211.511 229.99 211.68 230.056C211.85 230.121 212.003 230.223 212.13 230.353C212.366 230.611 212.542 230.917 212.647 231.25C212.762 231.605 212.832 231.972 212.857 232.344C212.886 232.727 212.9 233.061 212.9 233.326C212.9 233.592 212.867 233.962 212.841 234.345L212.844 234.354Z" fill="#FFFEF9"/>
<path d="M229.277 271.475L229.804 269.916L232.424 270.948V268.073H234.061V270.948L236.681 269.916L237.254 271.475L234.526 272.385L236.203 274.635L234.932 275.568L233.233 273.223L231.596 275.568L230.256 274.635L231.933 272.385L229.277 271.475Z" fill="#FFFEF9"/>
<path d="M85.9824 348.86C85.833 347.423 85.3104 346.387 84.4144 345.752C83.537 345.099 82.4077 344.772 81.0264 344.772C80.4664 344.772 79.9157 344.828 79.3744 344.94C78.833 345.052 78.3477 345.239 77.9184 345.5C77.5077 345.761 77.1717 346.116 76.9104 346.564C76.6677 346.993 76.5464 347.535 76.5464 348.188C76.5464 348.804 76.7237 349.308 77.0784 349.7C77.4517 350.073 77.937 350.381 78.5344 350.624C79.1504 350.867 79.841 351.072 80.6064 351.24C81.3717 351.389 82.1464 351.557 82.9304 351.744C83.733 351.931 84.517 352.155 85.2824 352.416C86.0477 352.659 86.729 352.995 87.3264 353.424C87.9424 353.853 88.4277 354.395 88.7824 355.048C89.1557 355.701 89.3424 356.523 89.3424 357.512C89.3424 358.576 89.0997 359.491 88.6144 360.256C88.1477 361.003 87.541 361.619 86.7944 362.104C86.0477 362.571 85.2077 362.907 84.2744 363.112C83.3597 363.336 82.445 363.448 81.5304 363.448C80.4104 363.448 79.3464 363.308 78.3384 363.028C77.349 362.748 76.4717 362.328 75.7064 361.768C74.9597 361.189 74.3624 360.461 73.9144 359.584C73.485 358.688 73.2704 357.633 73.2704 356.42H75.7904C75.7904 357.26 75.949 357.988 76.2664 358.604C76.6024 359.201 77.0317 359.696 77.5544 360.088C78.0957 360.48 78.721 360.769 79.4304 360.956C80.1397 361.143 80.8677 361.236 81.6144 361.236C82.2117 361.236 82.809 361.18 83.4064 361.068C84.0224 360.956 84.573 360.769 85.0584 360.508C85.5437 360.228 85.9357 359.855 86.2344 359.388C86.533 358.921 86.6824 358.324 86.6824 357.596C86.6824 356.905 86.4957 356.345 86.1224 355.916C85.7677 355.487 85.2824 355.141 84.6664 354.88C84.069 354.6 83.3877 354.376 82.6224 354.208C81.857 354.04 81.073 353.872 80.2704 353.704C79.4864 353.517 78.7117 353.312 77.9464 353.088C77.181 352.845 76.4904 352.537 75.8744 352.164C75.277 351.772 74.7917 351.277 74.4184 350.68C74.0637 350.064 73.8864 349.299 73.8864 348.384C73.8864 347.376 74.0917 346.508 74.5024 345.78C74.913 345.033 75.4544 344.427 76.1264 343.96C76.817 343.475 77.5917 343.12 78.4504 342.896C79.3277 342.653 80.2237 342.532 81.1384 342.532C82.165 342.532 83.117 342.653 83.9944 342.896C84.8717 343.139 85.637 343.521 86.2904 344.044C86.9624 344.567 87.485 345.229 87.8584 346.032C88.2504 346.816 88.465 347.759 88.5024 348.86H85.9824ZM105.007 362.944C104.596 363.187 104.027 363.308 103.299 363.308C102.683 363.308 102.188 363.14 101.815 362.804C101.46 362.449 101.283 361.88 101.283 361.096C100.629 361.88 99.864 362.449 98.9866 362.804C98.128 363.14 97.1946 363.308 96.1866 363.308C95.5333 363.308 94.908 363.233 94.3106 363.084C93.732 362.935 93.228 362.701 92.7986 362.384C92.3693 362.067 92.024 361.656 91.7626 361.152C91.52 360.629 91.3986 360.004 91.3986 359.276C91.3986 358.455 91.5386 357.783 91.8186 357.26C92.0986 356.737 92.4626 356.317 92.9106 356C93.3773 355.664 93.9 355.412 94.4786 355.244C95.076 355.076 95.6826 354.936 96.2986 354.824C96.952 354.693 97.568 354.6 98.1466 354.544C98.744 354.469 99.2666 354.376 99.7146 354.264C100.163 354.133 100.517 353.956 100.779 353.732C101.04 353.489 101.171 353.144 101.171 352.696C101.171 352.173 101.068 351.753 100.863 351.436C100.676 351.119 100.424 350.876 100.107 350.708C99.808 350.54 99.4626 350.428 99.0706 350.372C98.6973 350.316 98.324 350.288 97.9506 350.288C96.9426 350.288 96.1026 350.484 95.4306 350.876C94.7586 351.249 94.3946 351.968 94.3386 353.032H91.9586C91.996 352.136 92.1826 351.38 92.5186 350.764C92.8546 350.148 93.3026 349.653 93.8626 349.28C94.4226 348.888 95.0573 348.608 95.7666 348.44C96.4946 348.272 97.2693 348.188 98.0906 348.188C98.744 348.188 99.388 348.235 100.023 348.328C100.676 348.421 101.264 348.617 101.787 348.916C102.309 349.196 102.729 349.597 103.047 350.12C103.364 350.643 103.523 351.324 103.523 352.164V359.612C103.523 360.172 103.551 360.583 103.607 360.844C103.681 361.105 103.905 361.236 104.279 361.236C104.484 361.236 104.727 361.189 105.007 361.096V362.944ZM101.143 355.524C100.844 355.748 100.452 355.916 99.9666 356.028C99.4813 356.121 98.968 356.205 98.4266 356.28C97.904 356.336 97.372 356.411 96.8306 356.504C96.2893 356.579 95.804 356.709 95.3746 356.896C94.9453 357.083 94.5906 357.353 94.3106 357.708C94.0493 358.044 93.9186 358.511 93.9186 359.108C93.9186 359.5 93.9933 359.836 94.1426 360.116C94.3106 360.377 94.516 360.592 94.7586 360.76C95.02 360.928 95.3186 361.049 95.6546 361.124C95.9906 361.199 96.3453 361.236 96.7186 361.236C97.5026 361.236 98.1746 361.133 98.7346 360.928C99.2946 360.704 99.752 360.433 100.107 360.116C100.461 359.78 100.723 359.425 100.891 359.052C101.059 358.66 101.143 358.296 101.143 357.96V355.524ZM113.746 363H111.198L105.822 348.524H108.482L112.542 360.592H112.598L116.546 348.524H119.038L113.746 363ZM131.274 354.376C131.236 353.816 131.106 353.284 130.882 352.78C130.676 352.276 130.387 351.847 130.014 351.492C129.659 351.119 129.23 350.829 128.726 350.624C128.24 350.4 127.699 350.288 127.102 350.288C126.486 350.288 125.926 350.4 125.422 350.624C124.936 350.829 124.516 351.119 124.162 351.492C123.807 351.865 123.527 352.304 123.322 352.808C123.116 353.293 122.995 353.816 122.958 354.376H131.274ZM133.57 358.408C133.252 360.032 132.552 361.255 131.47 362.076C130.387 362.897 129.024 363.308 127.382 363.308C126.224 363.308 125.216 363.121 124.358 362.748C123.518 362.375 122.808 361.852 122.23 361.18C121.651 360.508 121.212 359.705 120.914 358.772C120.634 357.839 120.475 356.821 120.438 355.72C120.438 354.619 120.606 353.611 120.942 352.696C121.278 351.781 121.744 350.988 122.342 350.316C122.958 349.644 123.676 349.121 124.498 348.748C125.338 348.375 126.252 348.188 127.242 348.188C128.53 348.188 129.594 348.459 130.434 349C131.292 349.523 131.974 350.195 132.478 351.016C133 351.837 133.355 352.733 133.542 353.704C133.747 354.675 133.831 355.599 133.794 356.476H122.958C122.939 357.111 123.014 357.717 123.182 358.296C123.35 358.856 123.62 359.36 123.994 359.808C124.367 360.237 124.843 360.583 125.422 360.844C126 361.105 126.682 361.236 127.466 361.236C128.474 361.236 129.295 361.003 129.93 360.536C130.583 360.069 131.012 359.36 131.218 358.408H133.57ZM144.418 343.008H147.246L157.774 359.22H157.83V343.008H160.35V363H157.438L146.994 346.956H146.938V363H144.418V343.008ZM165.997 355.776C165.997 356.653 166.109 357.437 166.333 358.128C166.575 358.8 166.902 359.369 167.313 359.836C167.723 360.284 168.199 360.629 168.741 360.872C169.301 361.115 169.889 361.236 170.505 361.236C171.121 361.236 171.699 361.115 172.241 360.872C172.801 360.629 173.286 360.284 173.697 359.836C174.107 359.369 174.425 358.8 174.649 358.128C174.891 357.437 175.013 356.653 175.013 355.776C175.013 354.899 174.891 354.124 174.649 353.452C174.425 352.761 174.107 352.183 173.697 351.716C173.286 351.249 172.801 350.895 172.241 350.652C171.699 350.409 171.121 350.288 170.505 350.288C169.889 350.288 169.301 350.409 168.741 350.652C168.199 350.895 167.723 351.249 167.313 351.716C166.902 352.183 166.575 352.761 166.333 353.452C166.109 354.124 165.997 354.899 165.997 355.776ZM163.477 355.776C163.477 354.712 163.626 353.723 163.925 352.808C164.223 351.875 164.671 351.072 165.269 350.4C165.866 349.709 166.603 349.168 167.481 348.776C168.358 348.384 169.366 348.188 170.505 348.188C171.662 348.188 172.67 348.384 173.529 348.776C174.406 349.168 175.143 349.709 175.741 350.4C176.338 351.072 176.786 351.875 177.085 352.808C177.383 353.723 177.533 354.712 177.533 355.776C177.533 356.84 177.383 357.829 177.085 358.744C176.786 359.659 176.338 360.461 175.741 361.152C175.143 361.824 174.406 362.356 173.529 362.748C172.67 363.121 171.662 363.308 170.505 363.308C169.366 363.308 168.358 363.121 167.481 362.748C166.603 362.356 165.866 361.824 165.269 361.152C164.671 360.461 164.223 359.659 163.925 358.744C163.626 357.829 163.477 356.84 163.477 355.776ZM194.675 363H192.155L189.215 351.492H189.159L186.247 363H183.671L179.023 348.524H181.655L184.931 360.368H184.987L187.899 348.524H190.503L193.527 360.368H193.583L196.831 348.524H199.295L194.675 363Z" fill="#FFFEF9"/>
<path d="M215.76 362.384L213.888 361.184L219.952 355.072V355.968L213.888 349.856L215.76 348.656L222.32 355.52L215.76 362.384Z" fill="#FFFEF9"/>
<path d="M76.4939 77.78H81.2189V80.165H76.4939V95.825C76.4939 96.755 76.6139 97.49 76.8539 98.03C77.1239 98.54 77.7689 98.825 78.7889 98.885C79.5989 98.885 80.4089 98.84 81.2189 98.75V101.135C80.7989 101.135 80.3789 101.15 79.9589 101.18C79.5389 101.21 79.1189 101.225 78.6989 101.225C76.8089 101.225 75.4889 100.865 74.7389 100.145C73.9889 99.395 73.6289 98.03 73.6589 96.05V80.165H69.6089V77.78H73.6589V70.805H76.4939V77.78ZM85.3544 68.87H88.1894V73.415H85.3544V68.87ZM85.3544 77.78H88.1894V101H85.3544V77.78ZM93.615 77.78H96.225V81.695H96.36C97.11 80.255 98.085 79.13 99.285 78.32C100.515 77.51 102.075 77.105 103.965 77.105C105.495 77.105 106.875 77.48 108.105 78.23C109.365 78.98 110.205 80.12 110.625 81.65C111.315 80.12 112.335 78.98 113.685 78.23C115.035 77.48 116.475 77.105 118.005 77.105C123.135 77.105 125.7 79.82 125.7 85.25V101H122.865V85.385C122.865 83.465 122.46 82.01 121.65 81.02C120.84 80 119.415 79.49 117.375 79.49C116.145 79.49 115.125 79.73 114.315 80.21C113.505 80.66 112.86 81.275 112.38 82.055C111.9 82.835 111.555 83.735 111.345 84.755C111.165 85.745 111.075 86.78 111.075 87.86V101H108.24V85.25C108.24 84.47 108.15 83.735 107.97 83.045C107.82 82.325 107.55 81.71 107.16 81.2C106.8 80.66 106.305 80.24 105.675 79.94C105.045 79.64 104.28 79.49 103.38 79.49C102.18 79.49 101.13 79.715 100.23 80.165C99.36 80.585 98.64 81.185 98.07 81.965C97.53 82.715 97.125 83.615 96.855 84.665C96.585 85.685 96.45 86.81 96.45 88.04V101H93.615V77.78ZM147.795 87.77C147.765 86.69 147.57 85.655 147.21 84.665C146.88 83.675 146.4 82.805 145.77 82.055C145.14 81.275 144.375 80.66 143.475 80.21C142.575 79.73 141.555 79.49 140.415 79.49C139.245 79.49 138.21 79.73 137.31 80.21C136.41 80.66 135.645 81.275 135.015 82.055C134.385 82.805 133.875 83.69 133.485 84.71C133.125 85.7 132.885 86.72 132.765 87.77H147.795ZM132.765 90.155C132.765 91.175 132.9 92.24 133.17 93.35C133.47 94.43 133.935 95.405 134.565 96.275C135.195 97.145 135.99 97.865 136.95 98.435C137.91 99.005 139.065 99.29 140.415 99.29C142.485 99.29 144.105 98.75 145.275 97.67C146.445 96.59 147.255 95.15 147.705 93.35H150.54C149.94 95.99 148.83 98.03 147.21 99.47C145.62 100.91 143.355 101.63 140.415 101.63C138.585 101.63 136.995 101.315 135.645 100.685C134.325 100.025 133.245 99.14 132.405 98.03C131.565 96.89 130.935 95.585 130.515 94.115C130.125 92.615 129.93 91.04 129.93 89.39C129.93 87.86 130.125 86.36 130.515 84.89C130.935 83.42 131.565 82.115 132.405 80.975C133.245 79.805 134.325 78.875 135.645 78.185C136.995 77.465 138.585 77.105 140.415 77.105C142.275 77.105 143.865 77.48 145.185 78.23C146.505 78.98 147.57 79.97 148.38 81.2C149.22 82.4 149.82 83.795 150.18 85.385C150.54 86.945 150.69 88.535 150.63 90.155H132.765ZM154.48 68.87H157.315V101H154.48V68.87ZM179.436 87.77C179.406 86.69 179.211 85.655 178.851 84.665C178.521 83.675 178.041 82.805 177.411 82.055C176.781 81.275 176.016 80.66 175.116 80.21C174.216 79.73 173.196 79.49 172.056 79.49C170.886 79.49 169.851 79.73 168.951 80.21C168.051 80.66 167.286 81.275 166.656 82.055C166.026 82.805 165.516 83.69 165.126 84.71C164.766 85.7 164.526 86.72 164.406 87.77H179.436ZM164.406 90.155C164.406 91.175 164.541 92.24 164.811 93.35C165.111 94.43 165.576 95.405 166.206 96.275C166.836 97.145 167.631 97.865 168.591 98.435C169.551 99.005 170.706 99.29 172.056 99.29C174.126 99.29 175.746 98.75 176.916 97.67C178.086 96.59 178.896 95.15 179.346 93.35H182.181C181.581 95.99 180.471 98.03 178.851 99.47C177.261 100.91 174.996 101.63 172.056 101.63C170.226 101.63 168.636 101.315 167.286 100.685C165.966 100.025 164.886 99.14 164.046 98.03C163.206 96.89 162.576 95.585 162.156 94.115C161.766 92.615 161.571 91.04 161.571 89.39C161.571 87.86 161.766 86.36 162.156 84.89C162.576 83.42 163.206 82.115 164.046 80.975C164.886 79.805 165.966 78.875 167.286 78.185C168.636 77.465 170.226 77.105 172.056 77.105C173.916 77.105 175.506 77.48 176.826 78.23C178.146 78.98 179.211 79.97 180.021 81.2C180.861 82.4 181.461 83.795 181.821 85.385C182.181 86.945 182.331 88.535 182.271 90.155H164.406ZM199.981 84.575C199.951 83.705 199.771 82.955 199.441 82.325C199.111 81.665 198.661 81.125 198.091 80.705C197.551 80.285 196.921 79.985 196.201 79.805C195.481 79.595 194.716 79.49 193.906 79.49C193.276 79.49 192.631 79.565 191.971 79.715C191.341 79.835 190.756 80.06 190.216 80.39C189.676 80.69 189.241 81.095 188.911 81.605C188.581 82.115 188.416 82.745 188.416 83.495C188.416 84.125 188.566 84.665 188.866 85.115C189.196 85.535 189.601 85.895 190.081 86.195C190.561 86.495 191.086 86.75 191.656 86.96C192.226 87.14 192.751 87.29 193.231 87.41L197.011 88.265C197.821 88.385 198.616 88.61 199.396 88.94C200.206 89.24 200.911 89.645 201.511 90.155C202.141 90.665 202.651 91.295 203.041 92.045C203.431 92.795 203.626 93.68 203.626 94.7C203.626 95.96 203.341 97.04 202.771 97.94C202.201 98.81 201.466 99.53 200.566 100.1C199.696 100.64 198.706 101.03 197.596 101.27C196.486 101.51 195.391 101.63 194.311 101.63C191.581 101.63 189.361 100.985 187.651 99.695C185.971 98.405 185.011 96.335 184.771 93.485H187.606C187.726 95.405 188.416 96.86 189.676 97.85C190.966 98.81 192.556 99.29 194.446 99.29C195.136 99.29 195.841 99.215 196.561 99.065C197.311 98.915 198.001 98.66 198.631 98.3C199.261 97.94 199.771 97.49 200.161 96.95C200.581 96.38 200.791 95.69 200.791 94.88C200.791 94.19 200.641 93.62 200.341 93.17C200.071 92.69 199.696 92.3 199.216 92C198.736 91.67 198.181 91.4 197.551 91.19C196.951 90.98 196.336 90.8 195.706 90.65L192.061 89.84C191.131 89.6 190.276 89.33 189.496 89.03C188.716 88.7 188.026 88.31 187.426 87.86C186.856 87.38 186.406 86.81 186.076 86.15C185.746 85.46 185.581 84.62 185.581 83.63C185.581 82.46 185.836 81.455 186.346 80.615C186.886 79.775 187.576 79.1 188.416 78.59C189.256 78.08 190.186 77.705 191.206 77.465C192.256 77.225 193.291 77.105 194.311 77.105C195.481 77.105 196.561 77.255 197.551 77.555C198.571 77.855 199.456 78.32 200.206 78.95C200.986 79.58 201.601 80.36 202.051 81.29C202.501 82.22 202.756 83.315 202.816 84.575H199.981ZM221.646 84.575C221.616 83.705 221.436 82.955 221.106 82.325C220.776 81.665 220.326 81.125 219.756 80.705C219.216 80.285 218.586 79.985 217.866 79.805C217.146 79.595 216.381 79.49 215.571 79.49C214.941 79.49 214.296 79.565 213.636 79.715C213.006 79.835 212.421 80.06 211.881 80.39C211.341 80.69 210.906 81.095 210.576 81.605C210.246 82.115 210.081 82.745 210.081 83.495C210.081 84.125 210.231 84.665 210.531 85.115C210.861 85.535 211.266 85.895 211.746 86.195C212.226 86.495 212.751 86.75 213.321 86.96C213.891 87.14 214.416 87.29 214.896 87.41L218.676 88.265C219.486 88.385 220.281 88.61 221.061 88.94C221.871 89.24 222.576 89.645 223.176 90.155C223.806 90.665 224.316 91.295 224.706 92.045C225.096 92.795 225.291 93.68 225.291 94.7C225.291 95.96 225.006 97.04 224.436 97.94C223.866 98.81 223.131 99.53 222.231 100.1C221.361 100.64 220.371 101.03 219.261 101.27C218.151 101.51 217.056 101.63 215.976 101.63C213.246 101.63 211.026 100.985 209.316 99.695C207.636 98.405 206.676 96.335 206.436 93.485H209.271C209.391 95.405 210.081 96.86 211.341 97.85C212.631 98.81 214.221 99.29 216.111 99.29C216.801 99.29 217.506 99.215 218.226 99.065C218.976 98.915 219.666 98.66 220.296 98.3C220.926 97.94 221.436 97.49 221.826 96.95C222.246 96.38 222.456 95.69 222.456 94.88C222.456 94.19 222.306 93.62 222.006 93.17C221.736 92.69 221.361 92.3 220.881 92C220.401 91.67 219.846 91.4 219.216 91.19C218.616 90.98 218.001 90.8 217.371 90.65L213.726 89.84C212.796 89.6 211.941 89.33 211.161 89.03C210.381 88.7 209.691 88.31 209.091 87.86C208.521 87.38 208.071 86.81 207.741 86.15C207.411 85.46 207.246 84.62 207.246 83.63C207.246 82.46 207.501 81.455 208.011 80.615C208.551 79.775 209.241 79.1 210.081 78.59C210.921 78.08 211.851 77.705 212.871 77.465C213.921 77.225 214.956 77.105 215.976 77.105C217.146 77.105 218.226 77.255 219.216 77.555C220.236 77.855 221.121 78.32 221.871 78.95C222.651 79.58 223.266 80.36 223.716 81.29C224.166 82.22 224.421 83.315 224.481 84.575H221.646Z" fill="#FFFEF9"/>
<path d="M50.8819 121.035H41.6519V113.43H50.8819V121.035ZM36.1269 163.74C36.6035 163.913 37.2535 164 38.0769 164C39.0302 164 39.8535 163.805 40.5469 163.415C41.2835 163.068 41.6519 162.267 41.6519 161.01V126.235H50.8819V161.465C50.8819 163.198 50.6869 164.693 50.2969 165.95C49.9502 167.207 49.3219 168.247 48.4119 169.07C47.5452 169.937 46.3535 170.565 44.8369 170.955C43.3202 171.388 41.3919 171.605 39.0519 171.605C37.9685 171.605 36.9935 171.518 36.1269 171.345V163.74ZM81.5177 139.43C81.0844 137.09 80.3044 135.313 79.1777 134.1C78.0944 132.887 76.426 132.28 74.1727 132.28C72.6994 132.28 71.4644 132.54 70.4677 133.06C69.5144 133.537 68.7344 134.143 68.1277 134.88C67.5644 135.617 67.1527 136.397 66.8927 137.22C66.676 138.043 66.546 138.78 66.5027 139.43H81.5177ZM66.5027 145.28C66.6327 148.27 67.391 150.437 68.7777 151.78C70.1644 153.123 72.1577 153.795 74.7577 153.795C76.621 153.795 78.2244 153.34 79.5677 152.43C80.911 151.477 81.7344 150.48 82.0377 149.44H90.1627C88.8627 153.47 86.8694 156.352 84.1827 158.085C81.496 159.818 78.246 160.685 74.4327 160.685C71.7894 160.685 69.406 160.273 67.2827 159.45C65.1594 158.583 63.361 157.37 61.8877 155.81C60.4144 154.25 59.266 152.387 58.4427 150.22C57.6627 148.053 57.2727 145.67 57.2727 143.07C57.2727 140.557 57.6844 138.217 58.5077 136.05C59.331 133.883 60.501 132.02 62.0177 130.46C63.5344 128.857 65.3327 127.6 67.4127 126.69C69.536 125.78 71.876 125.325 74.4327 125.325C77.2927 125.325 79.7844 125.888 81.9077 127.015C84.031 128.098 85.7644 129.572 87.1077 131.435C88.4944 133.298 89.491 135.422 90.0977 137.805C90.7044 140.188 90.921 142.68 90.7477 145.28H66.5027ZM134.637 159.84H125.147L119.167 137.285H119.037L113.317 159.84H103.762L93.1019 126.235H102.852L109.027 149.05H109.157L114.747 126.235H123.717L129.437 148.985H129.567L135.742 126.235H145.232L134.637 159.84ZM171.781 139.43C171.348 137.09 170.568 135.313 169.441 134.1C168.358 132.887 166.69 132.28 164.436 132.28C162.963 132.28 161.728 132.54 160.731 133.06C159.778 133.537 158.998 134.143 158.391 134.88C157.828 135.617 157.416 136.397 157.156 137.22C156.94 138.043 156.81 138.78 156.766 139.43H171.781ZM156.766 145.28C156.896 148.27 157.655 150.437 159.041 151.78C160.428 153.123 162.421 153.795 165.021 153.795C166.885 153.795 168.488 153.34 169.831 152.43C171.175 151.477 171.998 150.48 172.301 149.44H180.426C179.126 153.47 177.133 156.352 174.446 158.085C171.76 159.818 168.51 160.685 164.696 160.685C162.053 160.685 159.67 160.273 157.546 159.45C155.423 158.583 153.625 157.37 152.151 155.81C150.678 154.25 149.53 152.387 148.706 150.22C147.926 148.053 147.536 145.67 147.536 143.07C147.536 140.557 147.948 138.217 148.771 136.05C149.595 133.883 150.765 132.02 152.281 130.46C153.798 128.857 155.596 127.6 157.676 126.69C159.8 125.78 162.14 125.325 164.696 125.325C167.556 125.325 170.048 125.888 172.171 127.015C174.295 128.098 176.028 129.572 177.371 131.435C178.758 133.298 179.755 135.422 180.361 137.805C180.968 140.188 181.185 142.68 181.011 145.28H156.766ZM186.746 113.43H195.976V159.84H186.746V113.43ZM203.243 126.235H212.018V132.475H212.148C212.582 131.435 213.167 130.482 213.903 129.615C214.64 128.705 215.485 127.947 216.438 127.34C217.392 126.69 218.41 126.192 219.493 125.845C220.577 125.498 221.703 125.325 222.873 125.325C223.48 125.325 224.152 125.433 224.888 125.65V134.23C224.455 134.143 223.935 134.078 223.328 134.035C222.722 133.948 222.137 133.905 221.573 133.905C219.883 133.905 218.453 134.187 217.283 134.75C216.113 135.313 215.16 136.093 214.423 137.09C213.73 138.043 213.232 139.17 212.928 140.47C212.625 141.77 212.473 143.178 212.473 144.695V159.84H203.243V126.235ZM245.082 164C244.085 166.73 242.699 168.68 240.922 169.85C239.145 171.02 236.675 171.605 233.512 171.605C232.559 171.605 231.605 171.562 230.652 171.475C229.742 171.432 228.81 171.367 227.857 171.28V163.675C228.724 163.762 229.612 163.848 230.522 163.935C231.432 164.022 232.342 164.043 233.252 164C234.465 163.87 235.354 163.393 235.917 162.57C236.524 161.747 236.827 160.837 236.827 159.84C236.827 159.103 236.697 158.41 236.437 157.76L224.672 126.235H234.487L242.092 149.245H242.222L249.567 126.235H259.122L245.082 164Z" fill="#FFFEF9"/>
</svg>
