<svg width="767" height="430" viewBox="0 0 767 430" fill="none" xmlns="http://www.w3.org/2000/svg">
<path d="M115.638 376.423C115.638 379.346 114.86 381.543 113.302 383.015C111.745 384.466 109.526 385.191 106.646 385.191C103.702 385.191 101.398 384.498 99.7343 383.111C98.0917 381.703 97.2703 379.474 97.2703 376.423V361.831H100.31V376.423C100.31 378.471 100.854 380.028 101.942 381.095C103.03 382.14 104.598 382.663 106.646 382.663C108.588 382.663 110.06 382.14 111.062 381.095C112.086 380.028 112.598 378.471 112.598 376.423V361.831H115.638V376.423ZM121.708 379.463C121.729 380.06 121.868 380.572 122.124 380.999C122.38 381.404 122.711 381.735 123.116 381.991C123.543 382.226 124.012 382.396 124.524 382.503C125.057 382.61 125.601 382.663 126.156 382.663C126.583 382.663 127.031 382.631 127.5 382.567C127.969 382.503 128.396 382.386 128.78 382.215C129.185 382.044 129.516 381.799 129.772 381.479C130.028 381.138 130.156 380.711 130.156 380.199C130.156 379.495 129.889 378.962 129.356 378.599C128.823 378.236 128.151 377.948 127.34 377.735C126.551 377.5 125.687 377.298 124.748 377.127C123.809 376.935 122.935 376.679 122.124 376.359C121.335 376.018 120.673 375.548 120.14 374.951C119.607 374.354 119.34 373.522 119.34 372.455C119.34 371.623 119.521 370.908 119.884 370.311C120.268 369.714 120.748 369.234 121.324 368.871C121.921 368.487 122.583 368.21 123.308 368.039C124.055 367.847 124.791 367.751 125.516 367.751C126.455 367.751 127.319 367.836 128.108 368.007C128.897 368.156 129.591 368.434 130.188 368.839C130.807 369.223 131.297 369.756 131.66 370.439C132.023 371.1 132.236 371.932 132.3 372.935H129.58C129.537 372.402 129.399 371.964 129.164 371.623C128.929 371.26 128.631 370.972 128.268 370.759C127.905 370.546 127.5 370.396 127.052 370.311C126.625 370.204 126.188 370.151 125.74 370.151C125.335 370.151 124.919 370.183 124.492 370.247C124.087 370.311 123.713 370.428 123.372 370.599C123.031 370.748 122.753 370.962 122.54 371.239C122.327 371.495 122.22 371.836 122.22 372.263C122.22 372.732 122.38 373.127 122.7 373.447C123.041 373.746 123.468 374.002 123.98 374.215C124.492 374.407 125.068 374.578 125.708 374.727C126.348 374.855 126.988 374.994 127.628 375.143C128.311 375.292 128.972 375.474 129.612 375.687C130.273 375.9 130.849 376.188 131.34 376.551C131.852 376.892 132.257 377.33 132.556 377.863C132.876 378.396 133.036 379.058 133.036 379.847C133.036 380.85 132.823 381.682 132.396 382.343C131.991 383.004 131.447 383.538 130.764 383.943C130.103 384.348 129.345 384.626 128.492 384.775C127.66 384.946 126.828 385.031 125.996 385.031C125.079 385.031 124.204 384.935 123.372 384.743C122.54 384.551 121.804 384.242 121.164 383.815C120.524 383.367 120.012 382.791 119.628 382.087C119.244 381.362 119.031 380.487 118.988 379.463H121.708ZM147.532 374.823C147.489 374.183 147.34 373.575 147.084 372.999C146.849 372.423 146.519 371.932 146.092 371.527C145.687 371.1 145.196 370.77 144.62 370.535C144.065 370.279 143.447 370.151 142.764 370.151C142.06 370.151 141.42 370.279 140.844 370.535C140.289 370.77 139.809 371.1 139.404 371.527C138.999 371.954 138.679 372.455 138.444 373.031C138.209 373.586 138.071 374.183 138.028 374.823H147.532ZM150.156 379.431C149.793 381.287 148.993 382.684 147.756 383.623C146.519 384.562 144.961 385.031 143.084 385.031C141.761 385.031 140.609 384.818 139.628 384.391C138.668 383.964 137.857 383.367 137.196 382.599C136.535 381.831 136.033 380.914 135.692 379.847C135.372 378.78 135.191 377.618 135.148 376.359C135.148 375.1 135.34 373.948 135.724 372.903C136.108 371.858 136.641 370.951 137.324 370.183C138.028 369.415 138.849 368.818 139.788 368.391C140.748 367.964 141.793 367.751 142.924 367.751C144.396 367.751 145.612 368.06 146.572 368.679C147.553 369.276 148.332 370.044 148.908 370.983C149.505 371.922 149.911 372.946 150.124 374.055C150.359 375.164 150.455 376.22 150.412 377.223H138.028C138.007 377.948 138.092 378.642 138.284 379.303C138.476 379.943 138.785 380.519 139.212 381.031C139.639 381.522 140.183 381.916 140.844 382.215C141.505 382.514 142.284 382.663 143.18 382.663C144.332 382.663 145.271 382.396 145.996 381.863C146.743 381.33 147.233 380.519 147.468 379.431H150.156ZM173.37 373.447C173.157 372.402 172.709 371.591 172.026 371.015C171.343 370.439 170.426 370.151 169.274 370.151C168.293 370.151 167.471 370.332 166.81 370.695C166.149 371.058 165.615 371.538 165.21 372.135C164.826 372.732 164.549 373.426 164.378 374.215C164.207 374.983 164.122 375.783 164.122 376.615C164.122 377.383 164.207 378.13 164.378 378.855C164.57 379.58 164.858 380.231 165.242 380.807C165.626 381.362 166.127 381.81 166.746 382.151C167.365 382.492 168.101 382.663 168.954 382.663C170.298 382.663 171.343 382.311 172.09 381.607C172.858 380.903 173.327 379.911 173.498 378.631H176.282C175.983 380.679 175.215 382.258 173.978 383.367C172.762 384.476 171.098 385.031 168.986 385.031C167.727 385.031 166.607 384.828 165.626 384.423C164.666 384.018 163.855 383.442 163.194 382.695C162.554 381.948 162.063 381.063 161.722 380.039C161.402 378.994 161.242 377.852 161.242 376.615C161.242 375.378 161.402 374.226 161.722 373.159C162.042 372.071 162.522 371.132 163.162 370.343C163.823 369.532 164.645 368.903 165.626 368.455C166.607 367.986 167.749 367.751 169.05 367.751C169.989 367.751 170.863 367.868 171.674 368.103C172.506 368.316 173.231 368.658 173.85 369.127C174.49 369.596 175.013 370.194 175.418 370.919C175.823 371.623 176.079 372.466 176.186 373.447H173.37ZM181.309 376.423C181.309 377.426 181.437 378.322 181.693 379.111C181.971 379.879 182.344 380.53 182.813 381.063C183.283 381.575 183.827 381.97 184.445 382.247C185.085 382.524 185.757 382.663 186.461 382.663C187.165 382.663 187.827 382.524 188.445 382.247C189.085 381.97 189.64 381.575 190.109 381.063C190.579 380.53 190.941 379.879 191.197 379.111C191.475 378.322 191.613 377.426 191.613 376.423C191.613 375.42 191.475 374.535 191.197 373.767C190.941 372.978 190.579 372.316 190.109 371.783C189.64 371.25 189.085 370.844 188.445 370.567C187.827 370.29 187.165 370.151 186.461 370.151C185.757 370.151 185.085 370.29 184.445 370.567C183.827 370.844 183.283 371.25 182.813 371.783C182.344 372.316 181.971 372.978 181.693 373.767C181.437 374.535 181.309 375.42 181.309 376.423ZM178.429 376.423C178.429 375.207 178.6 374.076 178.941 373.031C179.283 371.964 179.795 371.047 180.477 370.279C181.16 369.49 182.003 368.871 183.005 368.423C184.008 367.975 185.16 367.751 186.461 367.751C187.784 367.751 188.936 367.975 189.917 368.423C190.92 368.871 191.763 369.49 192.445 370.279C193.128 371.047 193.64 371.964 193.981 373.031C194.323 374.076 194.493 375.207 194.493 376.423C194.493 377.639 194.323 378.77 193.981 379.815C193.64 380.86 193.128 381.778 192.445 382.567C191.763 383.335 190.92 383.943 189.917 384.391C188.936 384.818 187.784 385.031 186.461 385.031C185.16 385.031 184.008 384.818 183.005 384.391C182.003 383.943 181.16 383.335 180.477 382.567C179.795 381.778 179.283 380.86 178.941 379.815C178.6 378.77 178.429 377.639 178.429 376.423ZM199.684 376.551C199.684 377.319 199.78 378.076 199.972 378.823C200.186 379.548 200.495 380.199 200.9 380.775C201.327 381.351 201.86 381.81 202.5 382.151C203.162 382.492 203.93 382.663 204.804 382.663C205.722 382.663 206.5 382.482 207.14 382.119C207.78 381.756 208.303 381.287 208.708 380.711C209.114 380.114 209.402 379.442 209.572 378.695C209.764 377.948 209.86 377.191 209.86 376.423C209.86 375.612 209.764 374.834 209.572 374.087C209.38 373.319 209.071 372.647 208.644 372.071C208.239 371.495 207.706 371.036 207.044 370.695C206.383 370.332 205.583 370.151 204.644 370.151C203.727 370.151 202.948 370.332 202.308 370.695C201.668 371.058 201.156 371.538 200.772 372.135C200.388 372.732 200.111 373.415 199.94 374.183C199.77 374.951 199.684 375.74 199.684 376.551ZM212.484 384.679H209.764V382.439H209.7C209.252 383.356 208.548 384.018 207.588 384.423C206.628 384.828 205.572 385.031 204.42 385.031C203.14 385.031 202.02 384.796 201.06 384.327C200.122 383.858 199.332 383.228 198.692 382.439C198.074 381.65 197.604 380.732 197.284 379.687C196.964 378.642 196.804 377.532 196.804 376.359C196.804 375.186 196.954 374.076 197.252 373.031C197.572 371.986 198.042 371.079 198.66 370.311C199.3 369.522 200.09 368.903 201.028 368.455C201.988 367.986 203.098 367.751 204.356 367.751C204.783 367.751 205.242 367.794 205.732 367.879C206.223 367.964 206.714 368.114 207.204 368.327C207.695 368.519 208.154 368.786 208.58 369.127C209.028 369.447 209.402 369.852 209.7 370.343H209.764V361.831H212.484V384.679ZM228.157 374.823C228.114 374.183 227.965 373.575 227.709 372.999C227.474 372.423 227.144 371.932 226.717 371.527C226.312 371.1 225.821 370.77 225.245 370.535C224.69 370.279 224.072 370.151 223.389 370.151C222.685 370.151 222.045 370.279 221.469 370.535C220.914 370.77 220.434 371.1 220.029 371.527C219.624 371.954 219.304 372.455 219.069 373.031C218.834 373.586 218.696 374.183 218.653 374.823H228.157ZM230.781 379.431C230.418 381.287 229.618 382.684 228.381 383.623C227.144 384.562 225.586 385.031 223.709 385.031C222.386 385.031 221.234 384.818 220.253 384.391C219.293 383.964 218.482 383.367 217.821 382.599C217.16 381.831 216.658 380.914 216.317 379.847C215.997 378.78 215.816 377.618 215.773 376.359C215.773 375.1 215.965 373.948 216.349 372.903C216.733 371.858 217.266 370.951 217.949 370.183C218.653 369.415 219.474 368.818 220.413 368.391C221.373 367.964 222.418 367.751 223.549 367.751C225.021 367.751 226.237 368.06 227.197 368.679C228.178 369.276 228.957 370.044 229.533 370.983C230.13 371.922 230.536 372.946 230.749 374.055C230.984 375.164 231.08 376.22 231.037 377.223H218.653C218.632 377.948 218.717 378.642 218.909 379.303C219.101 379.943 219.41 380.519 219.837 381.031C220.264 381.522 220.808 381.916 221.469 382.215C222.13 382.514 222.909 382.663 223.805 382.663C224.957 382.663 225.896 382.396 226.621 381.863C227.368 381.33 227.858 380.519 228.093 379.431H230.781ZM246.955 373.351C246.955 374.311 247.062 375.25 247.275 376.167C247.51 377.063 247.872 377.874 248.363 378.599C248.854 379.324 249.494 379.911 250.283 380.359C251.072 380.786 252.032 380.999 253.163 380.999C254.294 380.999 255.254 380.786 256.043 380.359C256.832 379.911 257.472 379.324 257.963 378.599C258.454 377.874 258.806 377.063 259.019 376.167C259.254 375.25 259.371 374.311 259.371 373.351C259.371 372.348 259.254 371.378 259.019 370.439C258.806 369.5 258.454 368.668 257.963 367.943C257.472 367.196 256.832 366.61 256.043 366.183C255.254 365.735 254.294 365.511 253.163 365.511C252.032 365.511 251.072 365.735 250.283 366.183C249.494 366.61 248.854 367.196 248.363 367.943C247.872 368.668 247.51 369.5 247.275 370.439C247.062 371.378 246.955 372.348 246.955 373.351ZM241.931 373.351C241.931 371.644 242.187 370.066 242.699 368.615C243.211 367.143 243.947 365.863 244.907 364.775C245.867 363.687 247.04 362.834 248.427 362.215C249.835 361.596 251.414 361.287 253.163 361.287C254.934 361.287 256.512 361.596 257.899 362.215C259.286 362.834 260.459 363.687 261.419 364.775C262.379 365.863 263.115 367.143 263.627 368.615C264.139 370.066 264.395 371.644 264.395 373.351C264.395 375.015 264.139 376.572 263.627 378.023C263.115 379.452 262.379 380.7 261.419 381.767C260.459 382.834 259.286 383.676 257.899 384.295C256.512 384.892 254.934 385.191 253.163 385.191C251.414 385.191 249.835 384.892 248.427 384.295C247.04 383.676 245.867 382.834 244.907 381.767C243.947 380.7 243.211 379.452 242.699 378.023C242.187 376.572 241.931 375.015 241.931 373.351ZM271.253 377.095C271.253 377.863 271.392 378.514 271.669 379.047C271.946 379.58 272.309 380.018 272.757 380.359C273.226 380.679 273.77 380.924 274.389 381.095C275.008 381.244 275.648 381.319 276.309 381.319C276.757 381.319 277.237 381.287 277.749 381.223C278.261 381.138 278.741 380.988 279.189 380.775C279.637 380.562 280.01 380.274 280.309 379.911C280.608 379.527 280.757 379.047 280.757 378.471C280.757 377.852 280.554 377.351 280.149 376.967C279.765 376.583 279.253 376.263 278.613 376.007C277.973 375.751 277.248 375.527 276.437 375.335C275.626 375.143 274.805 374.93 273.973 374.695C273.12 374.482 272.288 374.226 271.477 373.927C270.666 373.607 269.941 373.202 269.301 372.711C268.661 372.22 268.138 371.612 267.733 370.887C267.349 370.14 267.157 369.244 267.157 368.199C267.157 367.026 267.402 366.012 267.893 365.159C268.405 364.284 269.066 363.559 269.877 362.983C270.688 362.407 271.605 361.98 272.629 361.703C273.653 361.426 274.677 361.287 275.701 361.287C276.896 361.287 278.037 361.426 279.125 361.703C280.234 361.959 281.216 362.386 282.069 362.983C282.922 363.58 283.594 364.348 284.085 365.287C284.597 366.204 284.853 367.324 284.853 368.647H279.989C279.946 367.964 279.797 367.399 279.541 366.951C279.306 366.503 278.986 366.151 278.581 365.895C278.176 365.639 277.706 365.458 277.173 365.351C276.661 365.244 276.096 365.191 275.477 365.191C275.072 365.191 274.666 365.234 274.261 365.319C273.856 365.404 273.482 365.554 273.141 365.767C272.821 365.98 272.554 366.247 272.341 366.567C272.128 366.887 272.021 367.292 272.021 367.783C272.021 368.231 272.106 368.594 272.277 368.871C272.448 369.148 272.778 369.404 273.269 369.639C273.781 369.874 274.474 370.108 275.349 370.343C276.245 370.578 277.408 370.876 278.837 371.239C279.264 371.324 279.85 371.484 280.597 371.719C281.365 371.932 282.122 372.284 282.869 372.775C283.616 373.266 284.256 373.927 284.789 374.759C285.344 375.57 285.621 376.615 285.621 377.895C285.621 378.94 285.418 379.911 285.013 380.807C284.608 381.703 284 382.482 283.189 383.143C282.4 383.783 281.408 384.284 280.213 384.647C279.04 385.01 277.674 385.191 276.117 385.191C274.858 385.191 273.632 385.031 272.437 384.711C271.264 384.412 270.218 383.932 269.301 383.271C268.405 382.61 267.69 381.767 267.157 380.743C266.624 379.719 266.368 378.503 266.389 377.095H271.253ZM293.666 366.055H286.818V361.831H305.538V366.055H298.69V384.679H293.666V366.055ZM308.173 361.831H313.197V371.303L322.125 361.831H328.397L319.469 370.855L329.261 384.679H322.957L316.077 374.407L313.197 377.319V384.679H308.173V361.831ZM336.323 366.055H329.475V361.831H348.195V366.055H341.347V384.679H336.323V366.055ZM354.861 373.351C354.861 374.311 354.968 375.25 355.181 376.167C355.416 377.063 355.778 377.874 356.269 378.599C356.76 379.324 357.4 379.911 358.189 380.359C358.978 380.786 359.938 380.999 361.069 380.999C362.2 380.999 363.16 380.786 363.949 380.359C364.738 379.911 365.378 379.324 365.869 378.599C366.36 377.874 366.712 377.063 366.925 376.167C367.16 375.25 367.277 374.311 367.277 373.351C367.277 372.348 367.16 371.378 366.925 370.439C366.712 369.5 366.36 368.668 365.869 367.943C365.378 367.196 364.738 366.61 363.949 366.183C363.16 365.735 362.2 365.511 361.069 365.511C359.938 365.511 358.978 365.735 358.189 366.183C357.4 366.61 356.76 367.196 356.269 367.943C355.778 368.668 355.416 369.5 355.181 370.439C354.968 371.378 354.861 372.348 354.861 373.351ZM349.837 373.351C349.837 371.644 350.093 370.066 350.605 368.615C351.117 367.143 351.853 365.863 352.813 364.775C353.773 363.687 354.946 362.834 356.333 362.215C357.741 361.596 359.32 361.287 361.069 361.287C362.84 361.287 364.418 361.596 365.805 362.215C367.192 362.834 368.365 363.687 369.325 364.775C370.285 365.863 371.021 367.143 371.533 368.615C372.045 370.066 372.301 371.644 372.301 373.351C372.301 375.015 372.045 376.572 371.533 378.023C371.021 379.452 370.285 380.7 369.325 381.767C368.365 382.834 367.192 383.676 365.805 384.295C364.418 384.892 362.84 385.191 361.069 385.191C359.32 385.191 357.741 384.892 356.333 384.295C354.946 383.676 353.773 382.834 352.813 381.767C351.853 380.7 351.117 379.452 350.605 378.023C350.093 376.572 349.837 375.015 349.837 373.351ZM380.759 371.079H385.847C386.743 371.079 387.479 370.866 388.055 370.439C388.631 370.012 388.919 369.319 388.919 368.359C388.919 367.826 388.823 367.388 388.631 367.047C388.439 366.706 388.183 366.439 387.863 366.247C387.543 366.055 387.17 365.927 386.743 365.863C386.338 365.778 385.911 365.735 385.463 365.735H380.759V371.079ZM375.735 361.831H386.487C387.575 361.831 388.567 361.927 389.463 362.119C390.359 362.311 391.127 362.631 391.767 363.079C392.407 363.506 392.898 364.082 393.239 364.807C393.602 365.532 393.783 366.428 393.783 367.495C393.783 368.647 393.517 369.607 392.983 370.375C392.471 371.143 391.703 371.772 390.679 372.263C392.087 372.668 393.133 373.383 393.815 374.407C394.519 375.41 394.871 376.626 394.871 378.055C394.871 379.207 394.647 380.21 394.199 381.063C393.751 381.895 393.143 382.578 392.375 383.111C391.629 383.644 390.765 384.039 389.783 384.295C388.823 384.551 387.831 384.679 386.807 384.679H375.735V361.831ZM380.759 380.775H386.135C386.626 380.775 387.095 380.732 387.543 380.647C387.991 380.54 388.386 380.38 388.727 380.167C389.069 379.932 389.335 379.623 389.527 379.239C389.741 378.855 389.847 378.364 389.847 377.767C389.847 376.594 389.517 375.762 388.855 375.271C388.194 374.759 387.319 374.503 386.231 374.503H380.759V380.775ZM398.267 361.831H415.355V366.055H403.291V370.951H414.363V374.855H403.291V380.455H415.611V384.679H398.267V361.831ZM424.041 372.167H429.545C430.697 372.167 431.561 371.911 432.137 371.399C432.713 370.887 433.001 370.055 433.001 368.903C433.001 367.794 432.713 366.994 432.137 366.503C431.561 365.991 430.697 365.735 429.545 365.735H424.041V372.167ZM419.017 361.831H431.337C432.361 361.831 433.278 362.002 434.089 362.343C434.921 362.663 435.625 363.111 436.201 363.687C436.798 364.263 437.246 364.935 437.545 365.703C437.865 366.45 438.025 367.26 438.025 368.135C438.025 369.479 437.737 370.642 437.161 371.623C436.606 372.604 435.689 373.351 434.409 373.863V373.927C435.027 374.098 435.539 374.364 435.945 374.727C436.35 375.068 436.681 375.484 436.937 375.975C437.193 376.444 437.374 376.967 437.481 377.543C437.609 378.119 437.694 378.695 437.737 379.271C437.758 379.634 437.779 380.06 437.801 380.551C437.822 381.042 437.854 381.543 437.897 382.055C437.961 382.567 438.046 383.058 438.153 383.527C438.281 383.975 438.462 384.359 438.697 384.679H433.673C433.395 383.954 433.225 383.09 433.161 382.087C433.097 381.084 433.001 380.124 432.873 379.207C432.702 378.012 432.339 377.138 431.785 376.583C431.23 376.028 430.323 375.751 429.065 375.751H424.041V384.679H419.017V361.831ZM452.446 384.679H447.902V370.151H442.27V366.727C443.06 366.748 443.817 366.695 444.542 366.567C445.289 366.418 445.95 366.172 446.526 365.831C447.124 365.468 447.625 364.999 448.03 364.423C448.436 363.847 448.702 363.132 448.83 362.279H452.446V384.679ZM462.9 373.383C462.9 374.023 462.921 374.802 462.964 375.719C463.006 376.615 463.134 377.49 463.348 378.343C463.582 379.175 463.945 379.89 464.436 380.487C464.926 381.084 465.63 381.383 466.548 381.383C467.486 381.383 468.201 381.084 468.692 380.487C469.204 379.89 469.566 379.175 469.78 378.343C470.014 377.49 470.153 376.615 470.196 375.719C470.238 374.802 470.26 374.023 470.26 373.383C470.26 372.999 470.249 372.54 470.228 372.007C470.228 371.452 470.185 370.887 470.1 370.311C470.036 369.735 469.929 369.17 469.78 368.615C469.652 368.039 469.449 367.527 469.172 367.079C468.894 366.631 468.542 366.268 468.116 365.991C467.689 365.714 467.166 365.575 466.548 365.575C465.929 365.575 465.406 365.714 464.98 365.991C464.574 366.268 464.233 366.631 463.956 367.079C463.7 367.527 463.497 368.039 463.348 368.615C463.198 369.17 463.092 369.735 463.028 370.311C462.964 370.887 462.921 371.452 462.9 372.007C462.9 372.54 462.9 372.999 462.9 373.383ZM458.356 373.383C458.356 371.207 458.569 369.383 458.996 367.911C459.444 366.418 460.041 365.223 460.788 364.327C461.534 363.431 462.398 362.791 463.38 362.407C464.382 362.023 465.438 361.831 466.548 361.831C467.678 361.831 468.734 362.023 469.716 362.407C470.718 362.791 471.593 363.431 472.34 364.327C473.108 365.223 473.705 366.418 474.132 367.911C474.58 369.383 474.804 371.207 474.804 373.383C474.804 375.623 474.58 377.5 474.132 379.015C473.705 380.508 473.108 381.703 472.34 382.599C471.593 383.495 470.718 384.135 469.716 384.519C468.734 384.903 467.678 385.095 466.548 385.095C465.438 385.095 464.382 384.903 463.38 384.519C462.398 384.135 461.534 383.495 460.788 382.599C460.041 381.703 459.444 380.508 458.996 379.015C458.569 377.5 458.356 375.623 458.356 373.383ZM486.099 373.223C486.163 372.263 486.366 371.431 486.707 370.727C487.048 370.023 487.507 369.447 488.083 368.999C488.68 368.551 489.374 368.22 490.163 368.007C490.952 367.794 491.827 367.687 492.787 367.687C493.512 367.687 494.238 367.762 494.963 367.911C495.688 368.039 496.339 368.295 496.915 368.679C497.491 369.063 497.96 369.607 498.323 370.311C498.686 370.994 498.867 371.89 498.867 372.999V381.767C498.867 382.578 499.262 382.983 500.051 382.983C500.286 382.983 500.499 382.94 500.691 382.855V384.551C500.456 384.594 500.243 384.626 500.051 384.647C499.88 384.668 499.656 384.679 499.379 384.679C498.867 384.679 498.451 384.615 498.131 384.487C497.832 384.338 497.598 384.135 497.427 383.879C497.256 383.623 497.139 383.324 497.075 382.983C497.032 382.62 497.011 382.226 497.011 381.799H496.947C496.584 382.332 496.211 382.812 495.827 383.239C495.464 383.644 495.048 383.986 494.579 384.263C494.131 384.54 493.608 384.754 493.011 384.903C492.435 385.052 491.742 385.127 490.931 385.127C490.163 385.127 489.438 385.031 488.755 384.839C488.094 384.668 487.507 384.391 486.995 384.007C486.504 383.602 486.11 383.1 485.811 382.503C485.534 381.884 485.395 381.159 485.395 380.327C485.395 379.175 485.651 378.279 486.163 377.639C486.675 376.978 487.347 376.476 488.179 376.135C489.032 375.794 489.982 375.559 491.027 375.431C492.094 375.282 493.171 375.143 494.259 375.015C494.686 374.972 495.059 374.919 495.379 374.855C495.699 374.791 495.966 374.684 496.179 374.535C496.392 374.364 496.552 374.14 496.659 373.863C496.787 373.586 496.851 373.223 496.851 372.775C496.851 372.092 496.734 371.538 496.499 371.111C496.286 370.663 495.976 370.311 495.571 370.055C495.187 369.799 494.728 369.628 494.195 369.543C493.683 369.436 493.128 369.383 492.531 369.383C491.251 369.383 490.206 369.692 489.395 370.311C488.584 370.908 488.158 371.879 488.115 373.223H486.099ZM496.851 375.655H496.787C496.659 375.89 496.414 376.06 496.051 376.167C495.688 376.274 495.368 376.348 495.091 376.391C494.238 376.54 493.352 376.679 492.435 376.807C491.539 376.914 490.718 377.084 489.971 377.319C489.224 377.554 488.606 377.895 488.115 378.343C487.646 378.77 487.411 379.388 487.411 380.199C487.411 380.711 487.507 381.17 487.699 381.575C487.912 381.959 488.19 382.3 488.531 382.599C488.872 382.876 489.267 383.09 489.715 383.239C490.163 383.388 490.622 383.463 491.091 383.463C491.859 383.463 492.595 383.346 493.299 383.111C494.003 382.876 494.611 382.535 495.123 382.087C495.656 381.639 496.072 381.095 496.371 380.455C496.691 379.815 496.851 379.09 496.851 378.279V375.655ZM506.085 368.167H509.445V369.863H506.085V380.999C506.085 381.66 506.17 382.183 506.341 382.567C506.533 382.93 506.992 383.132 507.717 383.175C508.293 383.175 508.869 383.143 509.445 383.079V384.775C509.146 384.775 508.848 384.786 508.549 384.807C508.25 384.828 507.952 384.839 507.653 384.839C506.309 384.839 505.37 384.583 504.837 384.071C504.304 383.538 504.048 382.567 504.069 381.159V369.863H501.189V368.167H504.069V363.207H506.085V368.167ZM532.908 373.351C532.631 372.114 532.119 371.143 531.372 370.439C530.625 369.735 529.58 369.383 528.236 369.383C527.276 369.383 526.433 369.586 525.708 369.991C524.983 370.396 524.375 370.93 523.884 371.591C523.415 372.252 523.052 373.01 522.796 373.863C522.561 374.695 522.444 375.548 522.444 376.423C522.444 377.298 522.561 378.162 522.796 379.015C523.052 379.847 523.415 380.594 523.884 381.255C524.375 381.916 524.983 382.45 525.708 382.855C526.433 383.26 527.276 383.463 528.236 383.463C528.855 383.463 529.441 383.346 529.996 383.111C530.551 382.876 531.041 382.556 531.468 382.151C531.895 381.724 532.247 381.223 532.524 380.647C532.801 380.071 532.972 379.442 533.036 378.759H535.052C534.775 380.764 534.039 382.332 532.844 383.463C531.649 384.572 530.113 385.127 528.236 385.127C526.977 385.127 525.857 384.903 524.876 384.455C523.916 383.986 523.105 383.356 522.444 382.567C521.783 381.778 521.281 380.86 520.94 379.815C520.599 378.748 520.428 377.618 520.428 376.423C520.428 375.228 520.599 374.108 520.94 373.063C521.281 371.996 521.783 371.068 522.444 370.279C523.105 369.49 523.916 368.86 524.876 368.391C525.857 367.922 526.977 367.687 528.236 367.687C530.007 367.687 531.5 368.156 532.716 369.095C533.953 370.034 534.689 371.452 534.924 373.351H532.908ZM537.822 361.831H539.838V371.015H539.902C540.286 370.012 540.968 369.212 541.95 368.615C542.931 367.996 544.008 367.687 545.182 367.687C546.334 367.687 547.294 367.836 548.062 368.135C548.851 368.434 549.48 368.86 549.95 369.415C550.419 369.948 550.75 370.61 550.942 371.399C551.134 372.188 551.23 373.074 551.23 374.055V384.679H549.214V374.375C549.214 373.671 549.15 373.02 549.022 372.423C548.894 371.804 548.67 371.271 548.35 370.823C548.03 370.375 547.592 370.023 547.038 369.767C546.504 369.511 545.832 369.383 545.022 369.383C544.211 369.383 543.486 369.532 542.846 369.831C542.227 370.108 541.694 370.503 541.246 371.015C540.819 371.506 540.478 372.103 540.222 372.807C539.987 373.49 539.859 374.236 539.838 375.047V384.679H537.822V361.831ZM566.913 375.271C566.892 374.503 566.753 373.767 566.497 373.063C566.262 372.359 565.921 371.74 565.473 371.207C565.025 370.652 564.481 370.215 563.841 369.895C563.201 369.554 562.476 369.383 561.665 369.383C560.833 369.383 560.097 369.554 559.457 369.895C558.817 370.215 558.273 370.652 557.825 371.207C557.377 371.74 557.014 372.37 556.737 373.095C556.481 373.799 556.31 374.524 556.225 375.271H566.913ZM556.225 376.967C556.225 377.692 556.321 378.45 556.513 379.239C556.726 380.007 557.057 380.7 557.505 381.319C557.953 381.938 558.518 382.45 559.201 382.855C559.884 383.26 560.705 383.463 561.665 383.463C563.137 383.463 564.289 383.079 565.121 382.311C565.953 381.543 566.529 380.519 566.849 379.239H568.865C568.438 381.116 567.649 382.567 566.497 383.591C565.366 384.615 563.756 385.127 561.665 385.127C560.364 385.127 559.233 384.903 558.273 384.455C557.334 383.986 556.566 383.356 555.969 382.567C555.372 381.756 554.924 380.828 554.625 379.783C554.348 378.716 554.209 377.596 554.209 376.423C554.209 375.335 554.348 374.268 554.625 373.223C554.924 372.178 555.372 371.25 555.969 370.439C556.566 369.607 557.334 368.946 558.273 368.455C559.233 367.943 560.364 367.687 561.665 367.687C562.988 367.687 564.118 367.954 565.057 368.487C565.996 369.02 566.753 369.724 567.329 370.599C567.926 371.452 568.353 372.444 568.609 373.575C568.865 374.684 568.972 375.815 568.929 376.967H556.225ZM583.283 373.351C583.006 372.114 582.494 371.143 581.747 370.439C581 369.735 579.955 369.383 578.611 369.383C577.651 369.383 576.808 369.586 576.083 369.991C575.358 370.396 574.75 370.93 574.259 371.591C573.79 372.252 573.427 373.01 573.171 373.863C572.936 374.695 572.819 375.548 572.819 376.423C572.819 377.298 572.936 378.162 573.171 379.015C573.427 379.847 573.79 380.594 574.259 381.255C574.75 381.916 575.358 382.45 576.083 382.855C576.808 383.26 577.651 383.463 578.611 383.463C579.23 383.463 579.816 383.346 580.371 383.111C580.926 382.876 581.416 382.556 581.843 382.151C582.27 381.724 582.622 381.223 582.899 380.647C583.176 380.071 583.347 379.442 583.411 378.759H585.427C585.15 380.764 584.414 382.332 583.219 383.463C582.024 384.572 580.488 385.127 578.611 385.127C577.352 385.127 576.232 384.903 575.251 384.455C574.291 383.986 573.48 383.356 572.819 382.567C572.158 381.778 571.656 380.86 571.315 379.815C570.974 378.748 570.803 377.618 570.803 376.423C570.803 375.228 570.974 374.108 571.315 373.063C571.656 371.996 572.158 371.068 572.819 370.279C573.48 369.49 574.291 368.86 575.251 368.391C576.232 367.922 577.352 367.687 578.611 367.687C580.382 367.687 581.875 368.156 583.091 369.095C584.328 370.034 585.064 371.452 585.299 373.351H583.283ZM588.229 361.831H590.245V376.167L599.397 368.167H602.085L595.045 374.279L602.565 384.679H600.037L593.509 375.687L590.245 378.407V384.679H588.229V361.831ZM611.205 369.383C610.245 369.383 609.402 369.586 608.677 369.991C607.951 370.396 607.343 370.93 606.853 371.591C606.383 372.252 606.021 373.01 605.765 373.863C605.53 374.695 605.413 375.548 605.413 376.423C605.413 377.298 605.53 378.162 605.765 379.015C606.021 379.847 606.383 380.594 606.853 381.255C607.343 381.916 607.951 382.45 608.677 382.855C609.402 383.26 610.245 383.463 611.205 383.463C612.165 383.463 613.007 383.26 613.733 382.855C614.458 382.45 615.055 381.916 615.525 381.255C616.015 380.594 616.378 379.847 616.613 379.015C616.869 378.162 616.997 377.298 616.997 376.423C616.997 375.548 616.869 374.695 616.613 373.863C616.378 373.01 616.015 372.252 615.525 371.591C615.055 370.93 614.458 370.396 613.733 369.991C613.007 369.586 612.165 369.383 611.205 369.383ZM611.205 367.687C612.463 367.687 613.573 367.922 614.533 368.391C615.514 368.86 616.335 369.49 616.997 370.279C617.658 371.068 618.159 371.996 618.501 373.063C618.842 374.108 619.013 375.228 619.013 376.423C619.013 377.618 618.842 378.748 618.501 379.815C618.159 380.86 617.658 381.778 616.997 382.567C616.335 383.356 615.514 383.986 614.533 384.455C613.573 384.903 612.463 385.127 611.205 385.127C609.946 385.127 608.826 384.903 607.845 384.455C606.885 383.986 606.074 383.356 605.413 382.567C604.751 381.778 604.25 380.86 603.909 379.815C603.567 378.748 603.397 377.618 603.397 376.423C603.397 375.228 603.567 374.108 603.909 373.063C604.25 371.996 604.751 371.068 605.413 370.279C606.074 369.49 606.885 368.86 607.845 368.391C608.826 367.922 609.946 367.687 611.205 367.687ZM635.386 384.679H633.53V381.703H633.466C632.933 382.812 632.154 383.666 631.13 384.263C630.127 384.839 629.007 385.127 627.77 385.127C626.725 385.127 625.829 384.978 625.082 384.679C624.357 384.402 623.759 383.996 623.29 383.463C622.842 382.93 622.511 382.279 622.298 381.511C622.085 380.743 621.978 379.868 621.978 378.887V368.167H623.994V378.919C624.037 380.412 624.378 381.543 625.018 382.311C625.679 383.079 626.81 383.463 628.41 383.463C629.285 383.463 630.031 383.282 630.65 382.919C631.269 382.535 631.781 382.034 632.186 381.415C632.591 380.796 632.89 380.092 633.082 379.303C633.274 378.492 633.37 377.671 633.37 376.839V368.167H635.386V384.679ZM642.397 368.167H645.757V369.863H642.397V380.999C642.397 381.66 642.483 382.183 642.653 382.567C642.845 382.93 643.304 383.132 644.029 383.175C644.605 383.175 645.181 383.143 645.757 383.079V384.775C645.459 384.775 645.16 384.786 644.861 384.807C644.563 384.828 644.264 384.839 643.965 384.839C642.621 384.839 641.683 384.583 641.149 384.071C640.616 383.538 640.36 382.567 640.381 381.159V369.863H637.501V368.167H640.381V363.207H642.397V368.167Z" fill="#FFFEF9"/>
<path d="M662.662 382.063L660.79 380.863L666.854 374.751V375.647L660.79 369.535L662.662 368.335L669.222 375.199L662.662 382.063Z" fill="#FFFEF9"/>
<path d="M209.101 61.3297C209.075 60.5527 208.914 59.8828 208.619 59.3201C208.324 58.7306 207.922 58.2483 207.413 57.8732C206.931 57.4981 206.368 57.2301 205.725 57.0693C205.082 56.8818 204.399 56.788 203.675 56.788C203.113 56.788 202.537 56.855 201.947 56.989C201.384 57.0961 200.862 57.2971 200.38 57.5918C199.897 57.8598 199.509 58.2215 199.214 58.677C198.919 59.1326 198.772 59.6953 198.772 60.3651C198.772 60.9278 198.906 61.4101 199.174 61.8121C199.469 62.1872 199.83 62.5087 200.259 62.7767C200.688 63.0446 201.157 63.2724 201.666 63.4599C202.175 63.6207 202.644 63.7547 203.073 63.8619L206.449 64.6255C207.172 64.7327 207.882 64.9337 208.579 65.2284C209.302 65.4964 209.932 65.8581 210.468 66.3136C211.031 66.7691 211.486 67.3318 211.835 68.0017C212.183 68.6716 212.357 69.462 212.357 70.3731C212.357 71.4984 212.102 72.4631 211.593 73.2669C211.084 74.044 210.428 74.687 209.624 75.1962C208.847 75.6785 207.963 76.0268 206.971 76.2412C205.98 76.4555 205.002 76.5627 204.037 76.5627C201.599 76.5627 199.616 75.9866 198.089 74.8344C196.588 73.6822 195.731 71.8334 195.516 69.2879H198.048C198.156 71.0027 198.772 72.3023 199.897 73.1865C201.05 74.044 202.47 74.4727 204.158 74.4727C204.774 74.4727 205.404 74.4057 206.047 74.2717C206.717 74.1377 207.333 73.91 207.896 73.5885C208.458 73.2669 208.914 72.865 209.262 72.3827C209.637 71.8736 209.825 71.2573 209.825 70.5338C209.825 69.9175 209.691 69.4084 209.423 69.0065C209.182 68.5778 208.847 68.2295 208.418 67.9615C207.989 67.6668 207.494 67.4256 206.931 67.238C206.395 67.0505 205.846 66.8897 205.283 66.7557L202.028 66.0323C201.197 65.8179 200.433 65.5768 199.737 65.3088C199.04 65.0141 198.424 64.6657 197.888 64.2638C197.379 63.8351 196.977 63.326 196.682 62.7365C196.387 62.1202 196.24 61.3699 196.24 60.4857C196.24 59.4407 196.468 58.5431 196.923 57.7928C197.405 57.0426 198.022 56.4397 198.772 55.9841C199.522 55.5286 200.353 55.1937 201.264 54.9793C202.202 54.765 203.126 54.6578 204.037 54.6578C205.082 54.6578 206.047 54.7918 206.931 55.0597C207.842 55.3277 208.633 55.743 209.302 56.3057C209.999 56.8684 210.548 57.5651 210.95 58.3957C211.352 59.2263 211.58 60.2044 211.634 61.3297H209.101ZM229.738 64.1834C229.711 63.2188 229.537 62.2944 229.216 61.4101C228.921 60.5259 228.492 59.7488 227.929 59.079C227.367 58.3823 226.683 57.833 225.88 57.4311C225.076 57.0024 224.165 56.788 223.146 56.788C222.101 56.788 221.177 57.0024 220.373 57.4311C219.569 57.833 218.886 58.3823 218.323 59.079C217.761 59.7488 217.305 60.5393 216.957 61.4503C216.635 62.3346 216.421 63.2456 216.314 64.1834H229.738ZM216.314 66.3136C216.314 67.2246 216.434 68.1759 216.676 69.1673C216.943 70.1319 217.359 71.0027 217.921 71.7798C218.484 72.5568 219.194 73.1999 220.052 73.709C220.909 74.2181 221.941 74.4727 223.146 74.4727C224.995 74.4727 226.442 73.9904 227.487 73.0258C228.532 72.0611 229.256 70.775 229.658 69.1673H232.19C231.654 71.5252 230.662 73.3473 229.216 74.6335C227.795 75.9196 225.772 76.5627 223.146 76.5627C221.512 76.5627 220.092 76.2813 218.886 75.7187C217.707 75.1292 216.742 74.3387 215.992 73.3473C215.242 72.3291 214.679 71.1635 214.304 69.8506C213.956 68.5108 213.782 67.1041 213.782 65.6303C213.782 64.2638 213.956 62.924 214.304 61.6111C214.679 60.2981 215.242 59.1326 215.992 58.1143C216.742 57.0693 217.707 56.2387 218.886 55.6224C220.092 54.9793 221.512 54.6578 223.146 54.6578C224.808 54.6578 226.228 54.9927 227.407 55.6626C228.586 56.3325 229.537 57.2167 230.261 58.3153C231.011 59.3871 231.547 60.6331 231.868 62.0532C232.19 63.4466 232.324 64.8667 232.27 66.3136H216.314ZM234.503 47.3026H237.035V76H234.503V47.3026ZM255.587 64.1834C255.56 63.2188 255.386 62.2944 255.064 61.4101C254.77 60.5259 254.341 59.7488 253.778 59.079C253.215 58.3823 252.532 57.833 251.728 57.4311C250.925 57.0024 250.013 56.788 248.995 56.788C247.95 56.788 247.026 57.0024 246.222 57.4311C245.418 57.833 244.735 58.3823 244.172 59.079C243.609 59.7488 243.154 60.5393 242.806 61.4503C242.484 62.3346 242.27 63.2456 242.163 64.1834H255.587ZM242.163 66.3136C242.163 67.2246 242.283 68.1759 242.524 69.1673C242.792 70.1319 243.208 71.0027 243.77 71.7798C244.333 72.5568 245.043 73.1999 245.9 73.709C246.758 74.2181 247.79 74.4727 248.995 74.4727C250.844 74.4727 252.291 73.9904 253.336 73.0258C254.381 72.0611 255.105 70.775 255.506 69.1673H258.039C257.503 71.5252 256.511 73.3473 255.064 74.6335C253.644 75.9196 251.621 76.5627 248.995 76.5627C247.361 76.5627 245.941 76.2813 244.735 75.7187C243.556 75.1292 242.591 74.3387 241.841 73.3473C241.091 72.3291 240.528 71.1635 240.153 69.8506C239.805 68.5108 239.63 67.1041 239.63 65.6303C239.63 64.2638 239.805 62.924 240.153 61.6111C240.528 60.2981 241.091 59.1326 241.841 58.1143C242.591 57.0693 243.556 56.2387 244.735 55.6224C245.941 54.9793 247.361 54.6578 248.995 54.6578C250.657 54.6578 252.077 54.9927 253.256 55.6626C254.435 56.3325 255.386 57.2167 256.109 58.3153C256.86 59.3871 257.396 60.6331 257.717 62.0532C258.039 63.4466 258.173 64.8667 258.119 66.3136H242.163ZM274.942 61.7719C274.593 60.2178 273.95 58.9986 273.012 58.1143C272.075 57.2301 270.762 56.788 269.074 56.788C267.868 56.788 266.809 57.0426 265.898 57.5517C264.987 58.0608 264.224 58.7306 263.607 59.5613C263.018 60.3919 262.562 61.3431 262.241 62.4149C261.946 63.4599 261.799 64.5317 261.799 65.6303C261.799 66.7289 261.946 67.8141 262.241 68.8859C262.562 69.9309 263.018 70.8688 263.607 71.6994C264.224 72.53 264.987 73.1999 265.898 73.709C266.809 74.2181 267.868 74.4727 269.074 74.4727C269.851 74.4727 270.588 74.3253 271.284 74.0306C271.981 73.7358 272.597 73.3339 273.133 72.8248C273.669 72.2889 274.111 71.6592 274.459 70.9357C274.808 70.2123 275.022 69.4218 275.102 68.5644H277.635C277.286 71.0831 276.362 73.0526 274.861 74.4727C273.361 75.866 271.432 76.5627 269.074 76.5627C267.493 76.5627 266.086 76.2813 264.853 75.7187C263.648 75.1292 262.629 74.3387 261.799 73.3473C260.968 72.3559 260.338 71.2037 259.91 69.8907C259.481 68.551 259.267 67.1309 259.267 65.6303C259.267 64.1298 259.481 62.7231 259.91 61.4101C260.338 60.0704 260.968 58.9048 261.799 57.9134C262.629 56.922 263.648 56.1315 264.853 55.542C266.086 54.9525 267.493 54.6578 269.074 54.6578C271.298 54.6578 273.173 55.2473 274.701 56.4263C276.255 57.6052 277.179 59.3871 277.474 61.7719H274.942ZM283.967 55.2607H288.187V57.3909H283.967V71.3779C283.967 72.2085 284.074 72.865 284.289 73.3473C284.53 73.8028 285.106 74.0574 286.017 74.111C286.74 74.111 287.464 74.0708 288.187 73.9904V76.1206C287.812 76.1206 287.437 76.134 287.062 76.1608C286.687 76.1876 286.312 76.201 285.937 76.201C284.248 76.201 283.069 75.8794 282.4 75.2363C281.73 74.5665 281.408 73.3473 281.435 71.5788V57.3909H277.818V55.2607H281.435V49.0309H283.967V55.2607ZM300.616 55.2607H302.947V59.1995H303.027C303.617 57.7526 304.568 56.6406 305.881 55.8636C307.221 55.0597 308.734 54.6578 310.423 54.6578C312.003 54.6578 313.37 54.9525 314.522 55.542C315.701 56.1315 316.679 56.9354 317.456 57.9536C318.233 58.945 318.809 60.1106 319.185 61.4503C319.56 62.7633 319.747 64.1566 319.747 65.6303C319.747 67.1041 319.56 68.5108 319.185 69.8506C318.809 71.1635 318.233 72.3291 317.456 73.3473C316.679 74.3387 315.701 75.1292 314.522 75.7187C313.37 76.2813 312.003 76.5627 310.423 76.5627C309.672 76.5627 308.922 76.4689 308.172 76.2813C307.422 76.0938 306.725 75.8124 306.082 75.4373C305.439 75.0622 304.863 74.5933 304.353 74.0306C303.871 73.4679 303.496 72.8114 303.228 72.0611H303.148V83.6366H300.616V55.2607ZM317.215 65.6303C317.215 64.5585 317.081 63.5001 316.813 62.4551C316.572 61.3833 316.17 60.4321 315.607 59.6015C315.071 58.7708 314.375 58.101 313.517 57.5918C312.66 57.0559 311.628 56.788 310.423 56.788C309.029 56.788 307.864 57.0292 306.926 57.5115C305.988 57.9938 305.238 58.6369 304.675 59.4407C304.112 60.2446 303.71 61.1824 303.469 62.2542C303.255 63.326 303.148 64.4514 303.148 65.6303C303.148 66.7021 303.268 67.7739 303.509 68.8457C303.777 69.8907 304.193 70.8286 304.755 71.6592C305.345 72.4899 306.095 73.1731 307.006 73.709C307.944 74.2181 309.083 74.4727 310.423 74.4727C311.628 74.4727 312.66 74.2181 313.517 73.709C314.375 73.1731 315.071 72.4899 315.607 71.6592C316.17 70.8286 316.572 69.8907 316.813 68.8457C317.081 67.7739 317.215 66.7021 317.215 65.6303ZM322.489 55.2607H324.82V60.124H324.901C325.544 58.4359 326.535 57.1363 327.875 56.2253C329.241 55.3143 330.863 54.899 332.738 54.9793V57.5115C331.586 57.4579 330.541 57.6186 329.603 57.9938C328.665 58.3421 327.848 58.8512 327.151 59.5211C326.482 60.191 325.959 60.9948 325.584 61.9326C325.209 62.8437 325.021 63.8485 325.021 64.9471V76H322.489V55.2607ZM342.017 56.788C340.811 56.788 339.752 57.0426 338.841 57.5517C337.93 58.0608 337.167 58.7306 336.55 59.5613C335.961 60.3919 335.505 61.3431 335.184 62.4149C334.889 63.4599 334.742 64.5317 334.742 65.6303C334.742 66.7289 334.889 67.8141 335.184 68.8859C335.505 69.9309 335.961 70.8688 336.55 71.6994C337.167 72.53 337.93 73.1999 338.841 73.709C339.752 74.2181 340.811 74.4727 342.017 74.4727C343.222 74.4727 344.281 74.2181 345.192 73.709C346.103 73.1999 346.853 72.53 347.443 71.6994C348.059 70.8688 348.514 69.9309 348.809 68.8859C349.131 67.8141 349.291 66.7289 349.291 65.6303C349.291 64.5317 349.131 63.4599 348.809 62.4149C348.514 61.3431 348.059 60.3919 347.443 59.5613C346.853 58.7306 346.103 58.0608 345.192 57.5517C344.281 57.0426 343.222 56.788 342.017 56.788ZM342.017 54.6578C343.598 54.6578 344.991 54.9525 346.197 55.542C347.429 56.1315 348.461 56.922 349.291 57.9134C350.122 58.9048 350.752 60.0704 351.181 61.4101C351.609 62.7231 351.824 64.1298 351.824 65.6303C351.824 67.1309 351.609 68.551 351.181 69.8907C350.752 71.2037 350.122 72.3559 349.291 73.3473C348.461 74.3387 347.429 75.1292 346.197 75.7187C344.991 76.2813 343.598 76.5627 342.017 76.5627C340.436 76.5627 339.029 76.2813 337.796 75.7187C336.591 75.1292 335.572 74.3387 334.742 73.3473C333.911 72.3559 333.281 71.2037 332.853 69.8907C332.424 68.551 332.21 67.1309 332.21 65.6303C332.21 64.1298 332.424 62.7231 332.853 61.4101C333.281 60.0704 333.911 58.9048 334.742 57.9134C335.572 56.922 336.591 56.1315 337.796 55.542C339.029 54.9525 340.436 54.6578 342.017 54.6578ZM372.63 76H370.299V72.0611H370.218C369.95 72.731 369.548 73.3473 369.013 73.91C368.503 74.4727 367.914 74.955 367.244 75.3569C366.574 75.7321 365.851 76.0268 365.074 76.2412C364.323 76.4555 363.573 76.5627 362.823 76.5627C361.242 76.5627 359.862 76.2813 358.683 75.7187C357.531 75.1292 356.566 74.3387 355.789 73.3473C355.012 72.3291 354.436 71.1635 354.061 69.8506C353.686 68.5108 353.498 67.1041 353.498 65.6303C353.498 64.1566 353.686 62.7633 354.061 61.4503C354.436 60.1106 355.012 58.945 355.789 57.9536C356.566 56.9354 357.531 56.1315 358.683 55.542C359.862 54.9525 361.242 54.6578 362.823 54.6578C363.6 54.6578 364.35 54.7516 365.074 54.9391C365.824 55.1267 366.521 55.4215 367.164 55.8234C367.807 56.1985 368.369 56.6674 368.852 57.2301C369.361 57.7928 369.749 58.4493 370.017 59.1995H370.098V47.3026H372.63V76ZM356.03 65.6303C356.03 66.7021 356.151 67.7739 356.392 68.8457C356.66 69.8907 357.062 70.8286 357.598 71.6592C358.161 72.4899 358.871 73.1731 359.728 73.709C360.585 74.2181 361.617 74.4727 362.823 74.4727C364.163 74.4727 365.288 74.2181 366.199 73.709C367.137 73.1731 367.887 72.4899 368.45 71.6592C369.039 70.8286 369.455 69.8907 369.696 68.8457C369.964 67.7739 370.098 66.7021 370.098 65.6303C370.098 64.5585 369.964 63.5001 369.696 62.4551C369.455 61.3833 369.039 60.4321 368.45 59.6015C367.887 58.7708 367.137 58.101 366.199 57.5918C365.288 57.0559 364.163 56.788 362.823 56.788C361.617 56.788 360.585 57.0559 359.728 57.5918C358.871 58.101 358.161 58.7708 357.598 59.6015C357.062 60.4321 356.66 61.3833 356.392 62.4551C356.151 63.5001 356.03 64.5585 356.03 65.6303ZM393.056 76H390.725V72.2621H390.645C389.975 73.6554 388.997 74.7272 387.711 75.4775C386.451 76.201 385.045 76.5627 383.491 76.5627C382.178 76.5627 381.052 76.3751 380.114 76C379.203 75.6517 378.453 75.1426 377.864 74.4727C377.301 73.8028 376.886 72.9856 376.618 72.0209C376.35 71.0563 376.216 69.9577 376.216 68.7252V55.2607H378.748V68.7654C378.801 70.641 379.23 72.0611 380.034 73.0258C380.865 73.9904 382.285 74.4727 384.294 74.4727C385.393 74.4727 386.331 74.2449 387.108 73.7894C387.885 73.3071 388.528 72.6774 389.037 71.9004C389.546 71.1233 389.921 70.2391 390.163 69.2477C390.404 68.2295 390.524 67.1978 390.524 66.1528V55.2607H393.056V76ZM411.268 61.7719C410.92 60.2178 410.277 58.9986 409.339 58.1143C408.401 57.2301 407.088 56.788 405.4 56.788C404.194 56.788 403.136 57.0426 402.225 57.5517C401.314 58.0608 400.55 58.7306 399.934 59.5613C399.344 60.3919 398.889 61.3431 398.567 62.4149C398.272 63.4599 398.125 64.5317 398.125 65.6303C398.125 66.7289 398.272 67.8141 398.567 68.8859C398.889 69.9309 399.344 70.8688 399.934 71.6994C400.55 72.53 401.314 73.1999 402.225 73.709C403.136 74.2181 404.194 74.4727 405.4 74.4727C406.177 74.4727 406.914 74.3253 407.61 74.0306C408.307 73.7358 408.923 73.3339 409.459 72.8248C409.995 72.2889 410.437 71.6592 410.786 70.9357C411.134 70.2123 411.348 69.4218 411.429 68.5644H413.961C413.613 71.0831 412.688 73.0526 411.188 74.4727C409.687 75.866 407.758 76.5627 405.4 76.5627C403.819 76.5627 402.412 76.2813 401.18 75.7187C399.974 75.1292 398.956 74.3387 398.125 73.3473C397.294 72.3559 396.665 71.2037 396.236 69.8907C395.807 68.551 395.593 67.1309 395.593 65.6303C395.593 64.1298 395.807 62.7231 396.236 61.4101C396.665 60.0704 397.294 58.9048 398.125 57.9134C398.956 56.922 399.974 56.1315 401.18 55.542C402.412 54.9525 403.819 54.6578 405.4 54.6578C407.624 54.6578 409.5 55.2473 411.027 56.4263C412.581 57.6052 413.505 59.3871 413.8 61.7719H411.268ZM420.293 55.2607H424.514V57.3909H420.293V71.3779C420.293 72.2085 420.401 72.865 420.615 73.3473C420.856 73.8028 421.432 74.0574 422.343 74.111C423.067 74.111 423.79 74.0708 424.514 73.9904V76.1206C424.138 76.1206 423.763 76.134 423.388 76.1608C423.013 76.1876 422.638 76.201 422.263 76.201C420.575 76.201 419.396 75.8794 418.726 75.2363C418.056 74.5665 417.734 73.3473 417.761 71.5788V57.3909H414.144V55.2607H417.761V49.0309H420.293V55.2607ZM439.381 61.3297C439.354 60.5527 439.193 59.8828 438.898 59.3201C438.604 58.7306 438.202 58.2483 437.693 57.8732C437.21 57.4981 436.648 57.2301 436.005 57.0693C435.361 56.8818 434.678 56.788 433.955 56.788C433.392 56.788 432.816 56.855 432.226 56.989C431.664 57.0961 431.141 57.2971 430.659 57.5918C430.177 57.8598 429.788 58.2215 429.493 58.677C429.199 59.1326 429.051 59.6953 429.051 60.3651C429.051 60.9278 429.185 61.4101 429.453 61.8121C429.748 62.1872 430.11 62.5087 430.538 62.7767C430.967 63.0446 431.436 63.2724 431.945 63.4599C432.454 63.6207 432.923 63.7547 433.352 63.8619L436.728 64.6255C437.451 64.7327 438.162 64.9337 438.858 65.2284C439.582 65.4964 440.211 65.8581 440.747 66.3136C441.31 66.7691 441.765 67.3318 442.114 68.0017C442.462 68.6716 442.636 69.462 442.636 70.3731C442.636 71.4984 442.382 72.4631 441.873 73.2669C441.364 74.044 440.707 74.687 439.903 75.1962C439.126 75.6785 438.242 76.0268 437.251 76.2412C436.259 76.4555 435.281 76.5627 434.316 76.5627C431.878 76.5627 429.895 75.9866 428.368 74.8344C426.867 73.6822 426.01 71.8334 425.796 69.2879H428.328C428.435 71.0027 429.051 72.3023 430.177 73.1865C431.329 74.044 432.749 74.4727 434.437 74.4727C435.053 74.4727 435.683 74.4057 436.326 74.2717C436.996 74.1377 437.612 73.91 438.175 73.5885C438.738 73.2669 439.193 72.865 439.541 72.3827C439.917 71.8736 440.104 71.2573 440.104 70.5338C440.104 69.9175 439.97 69.4084 439.702 69.0065C439.461 68.5778 439.126 68.2295 438.697 67.9615C438.269 67.6668 437.773 67.4256 437.21 67.238C436.674 67.0505 436.125 66.8897 435.562 66.7557L432.307 66.0323C431.476 65.8179 430.713 65.5768 430.016 65.3088C429.319 65.0141 428.703 64.6657 428.167 64.2638C427.658 63.8351 427.256 63.326 426.961 62.7365C426.667 62.1202 426.519 61.3699 426.519 60.4857C426.519 59.4407 426.747 58.5431 427.202 57.7928C427.685 57.0426 428.301 56.4397 429.051 55.9841C429.802 55.5286 430.632 55.1937 431.543 54.9793C432.481 54.765 433.405 54.6578 434.316 54.6578C435.361 54.6578 436.326 54.7918 437.21 55.0597C438.121 55.3277 438.912 55.743 439.582 56.3057C440.278 56.8684 440.828 57.5651 441.23 58.3957C441.631 59.2263 441.859 60.2044 441.913 61.3297H439.381ZM459.106 55.2607H463.326V57.3909H459.106V71.3779C459.106 72.2085 459.213 72.865 459.427 73.3473C459.668 73.8028 460.245 74.0574 461.156 74.111C461.879 74.111 462.603 74.0708 463.326 73.9904V76.1206C462.951 76.1206 462.576 76.134 462.201 76.1608C461.825 76.1876 461.45 76.201 461.075 76.201C459.387 76.201 458.208 75.8794 457.538 75.2363C456.868 74.5665 456.547 73.3473 456.574 71.5788V57.3909H452.956V55.2607H456.574V49.0309H459.106V55.2607ZM465.533 61.6111C465.613 60.4053 465.867 59.3603 466.296 58.4761C466.725 57.5918 467.301 56.8684 468.024 56.3057C468.775 55.743 469.646 55.3277 470.637 55.0597C471.628 54.7918 472.727 54.6578 473.933 54.6578C474.844 54.6578 475.755 54.7516 476.666 54.9391C477.577 55.0999 478.394 55.4215 479.118 55.9038C479.841 56.3861 480.431 57.0693 480.886 57.9536C481.342 58.811 481.569 59.9364 481.569 61.3297V72.3425C481.569 73.3607 482.065 73.8698 483.056 73.8698C483.351 73.8698 483.619 73.8162 483.86 73.709V75.8392C483.566 75.8928 483.298 75.933 483.056 75.9598C482.842 75.9866 482.561 76 482.212 76C481.569 76 481.047 75.9196 480.645 75.7588C480.27 75.5713 479.975 75.3167 479.761 74.9952C479.546 74.6736 479.399 74.2985 479.319 73.8698C479.265 73.4143 479.238 72.9186 479.238 72.3827H479.158C478.702 73.0526 478.233 73.6554 477.751 74.1913C477.296 74.7004 476.773 75.1292 476.184 75.4775C475.621 75.8258 474.964 76.0938 474.214 76.2813C473.491 76.4689 472.62 76.5627 471.602 76.5627C470.637 76.5627 469.726 76.4421 468.868 76.201C468.038 75.9866 467.301 75.6383 466.658 75.156C466.042 74.6469 465.546 74.0172 465.171 73.2669C464.822 72.4899 464.648 71.5788 464.648 70.5338C464.648 69.0869 464.97 67.9615 465.613 67.1577C466.256 66.327 467.1 65.6973 468.145 65.2686C469.217 64.8399 470.409 64.5451 471.722 64.3844C473.062 64.1968 474.415 64.0226 475.782 63.8619C476.317 63.8083 476.786 63.7413 477.188 63.6609C477.59 63.5805 477.925 63.4466 478.193 63.259C478.461 63.0446 478.662 62.7633 478.796 62.4149C478.957 62.0666 479.037 61.6111 479.037 61.0484C479.037 60.191 478.89 59.4943 478.595 58.9584C478.327 58.3957 477.939 57.9536 477.429 57.632C476.947 57.3105 476.371 57.0961 475.701 56.989C475.058 56.855 474.361 56.788 473.611 56.788C472.004 56.788 470.691 57.1765 469.672 57.9536C468.654 58.7038 468.118 59.923 468.065 61.6111H465.533ZM479.037 64.6657H478.957C478.796 64.9605 478.488 65.1748 478.032 65.3088C477.577 65.4428 477.175 65.5366 476.827 65.5901C475.755 65.7777 474.643 65.9519 473.491 66.1127C472.365 66.2466 471.334 66.461 470.396 66.7557C469.458 67.0505 468.681 67.4792 468.065 68.0419C467.475 68.5778 467.18 69.3548 467.18 70.3731C467.18 71.0161 467.301 71.5922 467.542 72.1013C467.81 72.5836 468.158 73.0124 468.587 73.3875C469.016 73.7358 469.512 74.0038 470.074 74.1913C470.637 74.3789 471.213 74.4727 471.803 74.4727C472.767 74.4727 473.692 74.3253 474.576 74.0306C475.46 73.7358 476.224 73.3071 476.867 72.7444C477.537 72.1817 478.059 71.4984 478.434 70.6946C478.836 69.8907 479.037 68.9797 479.037 67.9615V64.6657ZM485.41 47.3026H487.942V65.3088L499.437 55.2607H502.813L493.971 62.9374L503.416 76H500.241L492.042 64.7059L487.942 68.1223V76H485.41V47.3026ZM519.212 64.1834C519.185 63.2188 519.011 62.2944 518.689 61.4101C518.395 60.5259 517.966 59.7488 517.403 59.079C516.84 58.3823 516.157 57.833 515.353 57.4311C514.549 57.0024 513.638 56.788 512.62 56.788C511.575 56.788 510.651 57.0024 509.847 57.4311C509.043 57.833 508.36 58.3823 507.797 59.079C507.234 59.7488 506.779 60.5393 506.431 61.4503C506.109 62.3346 505.895 63.2456 505.787 64.1834H519.212ZM505.787 66.3136C505.787 67.2246 505.908 68.1759 506.149 69.1673C506.417 70.1319 506.832 71.0027 507.395 71.7798C507.958 72.5568 508.668 73.1999 509.525 73.709C510.383 74.2181 511.414 74.4727 512.62 74.4727C514.469 74.4727 515.916 73.9904 516.961 73.0258C518.006 72.0611 518.729 70.775 519.131 69.1673H521.663C521.128 71.5252 520.136 73.3473 518.689 74.6335C517.269 75.9196 515.246 76.5627 512.62 76.5627C510.986 76.5627 509.566 76.2813 508.36 75.7187C507.181 75.1292 506.216 74.3387 505.466 73.3473C504.716 72.3291 504.153 71.1635 503.778 69.8506C503.43 68.5108 503.255 67.1041 503.255 65.6303C503.255 64.2638 503.43 62.924 503.778 61.6111C504.153 60.2981 504.716 59.1326 505.466 58.1143C506.216 57.0693 507.181 56.2387 508.36 55.6224C509.566 54.9793 510.986 54.6578 512.62 54.6578C514.281 54.6578 515.702 54.9927 516.881 55.6626C518.06 56.3325 519.011 57.2167 519.734 58.3153C520.485 59.3871 521.02 60.6331 521.342 62.0532C521.663 63.4466 521.797 64.8667 521.744 66.3136H505.787ZM533.676 61.6111C533.756 60.4053 534.011 59.3603 534.44 58.4761C534.868 57.5918 535.444 56.8684 536.168 56.3057C536.918 55.743 537.789 55.3277 538.78 55.0597C539.772 54.7918 540.87 54.6578 542.076 54.6578C542.987 54.6578 543.898 54.7516 544.809 54.9391C545.72 55.0999 546.538 55.4215 547.261 55.9038C547.985 56.3861 548.574 57.0693 549.03 57.9536C549.485 58.811 549.713 59.9364 549.713 61.3297V72.3425C549.713 73.3607 550.209 73.8698 551.2 73.8698C551.495 73.8698 551.763 73.8162 552.004 73.709V75.8392C551.709 75.8928 551.441 75.933 551.2 75.9598C550.986 75.9866 550.704 76 550.356 76C549.713 76 549.19 75.9196 548.788 75.7588C548.413 75.5713 548.119 75.3167 547.904 74.9952C547.69 74.6736 547.542 74.2985 547.462 73.8698C547.408 73.4143 547.382 72.9186 547.382 72.3827H547.301C546.846 73.0526 546.377 73.6554 545.895 74.1913C545.439 74.7004 544.917 75.1292 544.327 75.4775C543.764 75.8258 543.108 76.0938 542.358 76.2813C541.634 76.4689 540.763 76.5627 539.745 76.5627C538.78 76.5627 537.869 76.4421 537.012 76.201C536.181 75.9866 535.444 75.6383 534.801 75.156C534.185 74.6469 533.689 74.0172 533.314 73.2669C532.966 72.4899 532.792 71.5788 532.792 70.5338C532.792 69.0869 533.113 67.9615 533.756 67.1577C534.399 66.327 535.244 65.6973 536.289 65.2686C537.36 64.8399 538.553 64.5451 539.866 64.3844C541.205 64.1968 542.559 64.0226 543.925 63.8619C544.461 63.8083 544.93 63.7413 545.332 63.6609C545.734 63.5805 546.069 63.4466 546.337 63.259C546.605 63.0446 546.806 62.7633 546.94 62.4149C547.1 62.0666 547.181 61.6111 547.181 61.0484C547.181 60.191 547.033 59.4943 546.739 58.9584C546.471 58.3957 546.082 57.9536 545.573 57.632C545.091 57.3105 544.515 57.0961 543.845 56.989C543.202 56.855 542.505 56.788 541.755 56.788C540.147 56.788 538.834 57.1765 537.816 57.9536C536.798 58.7038 536.262 59.923 536.208 61.6111H533.676ZM547.181 64.6657H547.1C546.94 64.9605 546.631 65.1748 546.176 65.3088C545.72 65.4428 545.318 65.5366 544.97 65.5901C543.898 65.7777 542.786 65.9519 541.634 66.1127C540.509 66.2466 539.477 66.461 538.539 66.7557C537.601 67.0505 536.824 67.4792 536.208 68.0419C535.619 68.5778 535.324 69.3548 535.324 70.3731C535.324 71.0161 535.444 71.5922 535.686 72.1013C535.954 72.5836 536.302 73.0124 536.731 73.3875C537.159 73.7358 537.655 74.0038 538.218 74.1913C538.78 74.3789 539.357 74.4727 539.946 74.4727C540.911 74.4727 541.835 74.3253 542.719 74.0306C543.604 73.7358 544.367 73.3071 545.01 72.7444C545.68 72.1817 546.203 71.4984 546.578 70.6946C546.98 69.8907 547.181 68.9797 547.181 67.9615V64.6657ZM553.513 55.2607H556.045V58.8378H556.126C556.608 57.5784 557.465 56.5736 558.698 55.8234C559.931 55.0463 561.284 54.6578 562.757 54.6578C564.204 54.6578 565.41 54.8454 566.375 55.2205C567.366 55.5956 568.157 56.1315 568.746 56.8282C569.336 57.4981 569.751 58.3287 569.992 59.3201C570.233 60.3115 570.354 61.4235 570.354 62.6561V76H567.822V63.058C567.822 62.1738 567.741 61.3565 567.581 60.6063C567.42 59.8292 567.138 59.1594 566.737 58.5967C566.335 58.034 565.785 57.5918 565.089 57.2703C564.419 56.9488 563.575 56.788 562.557 56.788C561.538 56.788 560.627 56.9756 559.823 57.3507C559.046 57.699 558.376 58.1947 557.814 58.8378C557.278 59.4541 556.849 60.2044 556.528 61.0886C556.233 61.946 556.072 62.8839 556.045 63.9021V76H553.513V55.2607Z" fill="#FFFEF9"/>
<path d="M302.289 326.352V240.285H268.912V220.005C273.455 220.144 277.999 219.794 282.467 218.962C286.612 218.221 290.593 216.745 294.22 214.605C297.708 212.509 300.712 209.697 303.034 206.356C305.433 202.944 307.005 198.711 307.751 193.655H329.172V326.357L302.289 326.352Z" fill="#FFFEF9"/>
<path d="M474.143 275.043V279.194H481.745V285.853H474.143V319.702H465.215V285.853H451.66V319.702H442.728V285.853H436.068V279.194H442.728V275.826C442.728 273.27 443.042 271.193 443.671 269.596C444.179 268.175 445.043 266.909 446.18 265.917C447.21 265.06 448.434 264.468 449.746 264.191C451.122 263.899 452.526 263.756 453.934 263.762C456.807 263.762 458.897 263.944 460.201 264.309V271.28C459.598 271.118 458.983 271.001 458.362 270.931C457.595 270.845 456.823 270.806 456.051 270.813C454.956 270.783 453.878 271.083 452.957 271.676C452.096 272.251 451.665 273.374 451.665 275.043V279.194H465.22V275.826C465.22 273.27 465.534 271.193 466.163 269.596C466.671 268.177 467.533 266.91 468.667 265.917C469.698 265.062 470.922 264.469 472.233 264.191C473.611 263.9 475.016 263.756 476.425 263.762C479.299 263.762 481.388 263.944 482.693 264.309V271.28C482.09 271.118 481.475 271.001 480.854 270.931C480.087 270.845 479.315 270.806 478.543 270.813C477.447 270.783 476.367 271.083 475.444 271.676C474.577 272.251 474.143 273.378 474.143 275.043Z" fill="#FFFEF9"/>
<path d="M429.768 284.131C427.967 282.214 425.777 280.704 423.344 279.702C420.595 278.591 417.65 278.046 414.685 278.099C413.094 278.09 411.505 278.234 409.941 278.528L459.758 193.744H456.325L434.673 230.559C434.361 229.253 434.027 227.979 433.668 226.753C431.071 217.949 427.528 210.894 423.038 205.586C418.548 200.279 413.36 196.482 407.474 194.197C401.445 191.893 395.039 190.735 388.585 190.782C382.195 190.747 375.855 191.905 369.89 194.197C364.004 196.473 358.846 200.27 354.416 205.586C349.986 210.903 346.482 217.959 343.903 226.753C341.306 235.557 340.008 246.404 340.008 259.295C340.008 272.582 341.306 283.688 343.903 292.611C346.501 301.534 350.011 308.652 354.435 313.966C358.862 319.28 364.02 323.076 369.909 325.356C372.404 326.32 374.973 327.081 377.592 327.629L373.446 334.68H376.965L394.707 304.496C394.928 305.693 395.243 306.871 395.65 308.019C396.498 310.519 397.859 312.815 399.645 314.758C401.447 316.677 403.639 318.187 406.073 319.187C411.646 321.325 417.814 321.325 423.387 319.187C425.819 318.186 428.009 316.676 429.81 314.758C431.597 312.815 432.957 310.519 433.805 308.019C435.635 302.446 435.635 296.434 433.805 290.861C432.943 288.361 431.568 286.069 429.768 284.131ZM388.581 306.769C383.138 306.769 378.963 304.997 376.054 301.454C373.031 297.695 370.862 293.325 369.697 288.645C368.359 283.555 367.569 278.338 367.339 273.081C367.084 267.704 366.958 263.117 366.961 259.319C366.961 257.042 366.993 254.29 367.056 251.061C367.119 247.831 367.34 244.51 367.721 241.095C368.097 237.668 368.728 234.274 369.607 230.941C370.413 227.777 371.66 224.741 373.309 221.923C374.82 219.34 376.897 217.133 379.384 215.467C381.852 213.826 384.921 213.003 388.59 213C392.259 212.997 395.361 213.819 397.895 215.467C400.438 217.126 402.577 219.332 404.158 221.923C405.857 224.717 407.106 227.76 407.861 230.941C408.677 234.288 409.307 237.678 409.747 241.095C410.18 244.401 410.434 247.727 410.507 251.061C410.569 254.286 410.601 257.039 410.601 259.319C410.601 262.875 410.489 267.119 410.266 272.053L389.873 306.722C389.453 306.75 389.019 306.764 388.581 306.764V306.769ZM425.537 304.623C425.12 306.261 424.418 307.813 423.462 309.207C422.525 310.565 421.293 311.694 419.859 312.509C418.26 313.333 416.487 313.763 414.687 313.763C412.888 313.763 411.115 313.333 409.516 312.509C408.08 311.697 406.847 310.568 405.913 309.207C404.953 307.815 404.251 306.263 403.838 304.623C402.946 301.222 402.946 297.648 403.838 294.247C404.24 292.604 404.944 291.05 405.913 289.663C406.859 288.327 408.089 287.217 409.516 286.414C411.115 285.589 412.888 285.159 414.687 285.159C416.487 285.159 418.26 285.589 419.859 286.414C421.284 287.219 422.514 288.329 423.462 289.663C424.428 291.052 425.131 292.605 425.537 294.247C426.423 297.649 426.423 301.221 425.537 304.623Z" fill="#FFFEF9"/>
<path d="M445.531 199.073C445.341 198.139 444.964 197.254 444.423 196.47C443.894 195.727 443.193 195.124 442.381 194.71C441.397 194.248 440.317 194.027 439.231 194.064C438.173 194.039 437.123 194.254 436.16 194.692C435.323 195.09 434.59 195.678 434.019 196.408C433.438 197.166 433.013 198.032 432.769 198.955C432.494 199.968 432.357 201.013 432.364 202.063C432.356 203.103 432.471 204.14 432.708 205.152C432.905 206.046 433.291 206.887 433.84 207.619C434.382 208.319 435.091 208.874 435.901 209.232C436.888 209.652 437.955 209.853 439.028 209.821C440.079 209.846 441.125 209.654 442.098 209.255C442.921 208.907 443.648 208.367 444.22 207.68C444.79 206.971 445.209 206.152 445.451 205.275C445.73 204.282 445.866 203.255 445.857 202.223C445.861 201.165 445.752 200.108 445.531 199.073ZM441.673 203.619C441.638 204.131 441.53 204.634 441.353 205.115C441.188 205.573 440.909 205.982 440.542 206.303C440.111 206.618 439.592 206.788 439.058 206.788C438.525 206.788 438.005 206.618 437.575 206.303C437.224 205.977 436.959 205.569 436.806 205.115C436.643 204.625 436.547 204.116 436.523 203.601C436.523 203.058 436.486 202.577 436.486 202.143C436.486 201.709 436.486 201.162 436.547 200.568C436.58 200.003 436.694 199.445 436.887 198.913C437.061 198.424 437.345 197.982 437.717 197.62C438.132 197.252 438.677 197.064 439.231 197.097C439.494 197.08 439.757 197.123 440.002 197.221C440.246 197.318 440.466 197.469 440.645 197.663C440.992 198.06 441.246 198.528 441.391 199.035C441.554 199.58 441.655 200.142 441.692 200.709C441.735 201.29 441.754 201.78 441.754 202.186C441.754 202.591 441.716 203.105 441.673 203.619ZM466.373 212.58C466.186 211.67 465.808 210.81 465.264 210.057C464.73 209.335 464.03 208.752 463.222 208.359C462.235 207.908 461.156 207.693 460.072 207.732C459.016 207.706 457.967 207.914 457.001 208.34C456.17 208.718 455.439 209.285 454.865 209.996C454.284 210.723 453.857 211.56 453.61 212.458C453.333 213.457 453.197 214.491 453.205 215.528C453.2 216.575 453.316 217.62 453.549 218.641C453.753 219.549 454.138 220.407 454.681 221.164C455.216 221.887 455.925 222.462 456.742 222.838C457.726 223.271 458.794 223.479 459.869 223.447C460.923 223.472 461.97 223.271 462.939 222.857C463.769 222.494 464.498 221.934 465.062 221.225C465.63 220.492 466.048 219.654 466.292 218.759C466.57 217.759 466.706 216.726 466.698 215.688C466.705 214.639 466.596 213.592 466.373 212.566V212.58ZM462.515 217.084C462.479 217.621 462.371 218.151 462.194 218.66C462.029 219.142 461.753 219.578 461.388 219.933C460.984 220.296 460.453 220.485 459.911 220.457C459.64 220.474 459.367 220.437 459.111 220.347C458.854 220.257 458.617 220.116 458.416 219.933C458.064 219.575 457.8 219.138 457.648 218.66C457.484 218.143 457.389 217.607 457.364 217.066C457.341 216.5 457.327 216 457.327 215.57C457.327 215.141 457.327 214.599 457.388 214.033C457.422 213.493 457.538 212.962 457.732 212.458C457.905 211.993 458.188 211.577 458.558 211.246C458.987 210.907 459.526 210.739 460.072 210.774C460.333 210.758 460.595 210.798 460.839 210.893C461.083 210.987 461.304 211.133 461.487 211.321C461.826 211.692 462.08 212.133 462.232 212.613C462.396 213.124 462.497 213.653 462.534 214.189C462.576 214.74 462.595 215.221 462.595 215.603C462.595 215.985 462.557 216.518 462.515 217.07V217.084Z" fill="#FFFEF9"/>
<path d="M486.193 270.548L486.953 268.303L490.749 269.789V265.648H493.107V269.789L496.88 268.303L497.71 270.548L493.777 271.86L496.192 275.1L494.362 276.444L491.914 273.067L489.556 276.444L487.623 275.1L490.037 271.86L486.193 270.548Z" fill="#FFFEF9"/>
<path d="M306.839 137.966C306.229 134.674 305.132 132.175 303.547 130.468C302.023 128.761 299.676 127.908 296.506 127.908C294.433 127.908 292.696 128.274 291.294 129.005C289.953 129.676 288.855 130.529 288.002 131.565C287.209 132.602 286.63 133.699 286.264 134.857C285.96 136.016 285.777 137.052 285.716 137.966H306.839ZM285.716 146.196C285.899 150.402 286.965 153.451 288.916 155.34C290.867 157.23 293.671 158.175 297.329 158.175C299.95 158.175 302.206 157.535 304.096 156.255C305.985 154.914 307.144 153.511 307.57 152.048H319.001C317.172 157.718 314.368 161.772 310.588 164.21C306.808 166.649 302.236 167.868 296.872 167.868C293.153 167.868 289.8 167.289 286.813 166.13C283.826 164.911 281.296 163.204 279.223 161.01C277.151 158.815 275.535 156.194 274.377 153.146C273.28 150.098 272.731 146.745 272.731 143.087C272.731 139.551 273.31 136.259 274.468 133.211C275.627 130.163 277.273 127.542 279.406 125.347C281.54 123.092 284.07 121.324 286.996 120.044C289.983 118.764 293.275 118.124 296.872 118.124C300.895 118.124 304.4 118.916 307.387 120.501C310.375 122.025 312.813 124.098 314.703 126.719C316.654 129.34 318.056 132.327 318.909 135.68C319.763 139.033 320.067 142.538 319.824 146.196H285.716ZM339.595 141.807L324.05 119.404H338.863L347.185 131.748L355.414 119.404H369.771L354.226 141.533L371.691 166.679H356.877L347.002 151.774L337.126 166.679H322.587L339.595 141.807ZM393.098 119.404H402.608V128.091H393.098V151.5C393.098 153.694 393.464 155.157 394.196 155.889C394.927 156.621 396.39 156.986 398.585 156.986C399.316 156.986 400.017 156.956 400.688 156.895C401.359 156.834 401.999 156.742 402.608 156.621V166.679C401.511 166.862 400.292 166.984 398.951 167.045C397.609 167.106 396.299 167.136 395.019 167.136C393.007 167.136 391.087 166.984 389.258 166.679C387.49 166.435 385.905 165.917 384.503 165.125C383.162 164.332 382.095 163.204 381.302 161.741C380.51 160.278 380.114 158.358 380.114 155.98V128.091H372.25V119.404H380.114V105.23H393.098V119.404ZM408.786 119.404H421.131V128.182H421.314C421.923 126.719 422.746 125.378 423.783 124.159C424.819 122.879 426.008 121.812 427.349 120.958C428.69 120.044 430.123 119.343 431.647 118.855C433.171 118.367 434.756 118.124 436.402 118.124C437.255 118.124 438.2 118.276 439.236 118.581V130.651C438.627 130.529 437.895 130.438 437.042 130.377C436.188 130.255 435.365 130.194 434.573 130.194C432.195 130.194 430.184 130.59 428.538 131.383C426.892 132.175 425.551 133.272 424.514 134.674C423.539 136.016 422.838 137.601 422.411 139.429C421.984 141.258 421.771 143.24 421.771 145.373V166.679H408.786V119.404ZM443.779 133.943C443.961 130.895 444.723 128.365 446.065 126.353C447.406 124.342 449.113 122.726 451.185 121.507C453.258 120.288 455.575 119.434 458.135 118.947C460.756 118.398 463.378 118.124 465.999 118.124C468.376 118.124 470.784 118.306 473.223 118.672C475.661 118.977 477.886 119.617 479.898 120.592C481.91 121.568 483.556 122.939 484.836 124.707C486.116 126.414 486.756 128.7 486.756 131.565V156.163C486.756 158.297 486.878 160.339 487.122 162.29C487.366 164.241 487.792 165.704 488.402 166.679H475.234C474.991 165.948 474.777 165.216 474.594 164.485C474.472 163.692 474.381 162.9 474.32 162.107C472.247 164.241 469.809 165.734 467.005 166.588C464.201 167.441 461.335 167.868 458.409 167.868C456.154 167.868 454.05 167.594 452.1 167.045C450.149 166.496 448.442 165.643 446.979 164.485C445.516 163.326 444.358 161.863 443.504 160.095C442.712 158.327 442.315 156.224 442.315 153.786C442.315 151.104 442.773 148.909 443.687 147.202C444.662 145.434 445.882 144.032 447.345 142.996C448.869 141.959 450.576 141.197 452.465 140.71C454.416 140.161 456.367 139.734 458.318 139.429C460.269 139.125 462.189 138.881 464.079 138.698C465.968 138.515 467.645 138.241 469.108 137.875C470.571 137.509 471.729 136.991 472.583 136.32C473.436 135.589 473.832 134.553 473.771 133.211C473.771 131.809 473.528 130.712 473.04 129.92C472.613 129.066 472.004 128.426 471.211 127.999C470.48 127.512 469.596 127.207 468.559 127.085C467.584 126.902 466.517 126.811 465.359 126.811C462.798 126.811 460.787 127.359 459.324 128.456C457.861 129.554 457.007 131.383 456.763 133.943H443.779ZM473.771 143.544C473.223 144.032 472.522 144.428 471.668 144.733C470.876 144.977 469.992 145.19 469.016 145.373C468.102 145.556 467.127 145.708 466.09 145.83C465.054 145.952 464.018 146.105 462.981 146.288C462.006 146.47 461.031 146.714 460.055 147.019C459.141 147.324 458.318 147.751 457.586 148.299C456.916 148.787 456.367 149.427 455.94 150.22C455.514 151.012 455.3 152.018 455.3 153.237C455.3 154.395 455.514 155.371 455.94 156.163C456.367 156.956 456.946 157.596 457.678 158.084C458.409 158.51 459.263 158.815 460.238 158.998C461.213 159.181 462.219 159.272 463.256 159.272C465.816 159.272 467.797 158.846 469.199 157.992C470.601 157.139 471.638 156.133 472.308 154.975C472.979 153.755 473.375 152.536 473.497 151.317C473.68 150.098 473.771 149.122 473.771 148.391V143.544Z" fill="#FFFEF9"/>
</svg>
